M48
;DRILL file {KiCad 4.0.7-e2-6376~58~ubuntu16.04.1} date Mon Jun 18 12:44:59 2018
;FORMAT={-:-/ absolute / inch / decimal}
FMAT,2
INCH,TZ
T1C0.012
T2C0.028
T3C0.039
T4C0.040
T5C0.043
T6C0.083
%
G90
G05
M72
T1
X4.682Y-2.428
X4.682Y-2.626
X4.682Y-2.83
X4.744Y-3.723
X4.748Y-4.357
X4.78Y-3.984
X4.798Y-3.926
X4.88Y-3.194
X4.886Y-2.644
X4.886Y-2.85
X4.888Y-2.442
X4.906Y-3.044
X4.92Y-3.282
X4.934Y-3.042
X4.95Y-3.792
X4.99Y-3.564
X4.994Y-3.308
X5.019Y-3.563
X5.058Y-2.598
X5.0809Y-4.1516
X5.0948Y-3.078
X5.1325Y-4.02
X5.158Y-3.048
X5.166Y-3.481
X5.231Y-3.57
X5.2494Y-2.6214
X5.285Y-4.05
X5.285Y-4.075
X5.297Y-3.782
X5.305Y-3.233
X5.321Y-3.481
X5.327Y-3.662
X5.328Y-3.756
X5.33Y-3.07
X5.33Y-3.11
X5.3315Y-3.698
X5.348Y-3.274
X5.37Y-3.07
X5.37Y-3.11
X5.376Y-3.517
X5.41Y-3.07
X5.41Y-3.11
X5.415Y-3.859
X5.436Y-3.58
X5.437Y-3.808
X5.465Y-3.58
X5.4874Y-3.1034
X5.49Y-4.07
X5.49Y-4.29
X5.512Y-3.808
X5.512Y-3.842
X5.553Y-3.32
X5.582Y-3.8468
X5.5862Y-3.8822
X5.61Y-3.248
X5.628Y-3.589
X5.666Y-2.77
X5.666Y-2.836
X5.8325Y-4.08
X5.8325Y-4.1075
X5.845Y-3.3
X5.855Y-3.903
X5.9088Y-5.3875
X5.9275Y-5.1202
X5.9331Y-3.8588
X5.9331Y-4.4888
X5.9333Y-3.2286
X5.9338Y-2.5938
X5.935Y-3.744
X5.935Y-4.035
X5.935Y-4.665
X5.936Y-4.375
X5.936Y-5.011
X5.937Y-2.488
X5.939Y-3.118
X5.94Y-2.775
X5.94Y-3.405
X5.96Y-3.23
X5.96Y-3.86
X5.96Y-4.49
X5.96Y-5.12
X5.9607Y-2.595
X5.965Y-5.01
X5.966Y-4.375
X5.968Y-2.4898
X5.97Y-3.7497
X5.971Y-3.1198
X6.16Y-2.775
X6.16Y-3.405
X6.16Y-4.665
X6.165Y-4.035
X6.495Y-3.375
X6.495Y-4.005
X6.5Y-2.745
X6.5Y-4.635
X6.5Y-5.265
T2
X5.412Y-2.4575
X5.603Y-2.4575
T3
X4.649Y-3.617
X4.649Y-3.717
X4.649Y-3.817
X4.649Y-3.917
X4.649Y-4.017
X4.649Y-4.117
X4.649Y-4.217
X4.649Y-4.317
X4.649Y-4.417
T4
X6.5785Y-4.3597
X6.5785Y-4.4597
X6.5785Y-4.5597
X6.5785Y-4.9903
X6.5785Y-5.0903
X6.5785Y-5.1903
X6.5788Y-2.4687
X6.5788Y-2.5687
X6.5788Y-2.6687
X6.5788Y-3.0992
X6.5788Y-3.1992
X6.5788Y-3.2992
X6.5788Y-3.7303
X6.5788Y-3.8303
X6.5788Y-3.9303
X7.2785Y-4.3597
X7.2785Y-4.4597
X7.2785Y-4.5597
X7.2785Y-4.9903
X7.2785Y-5.0903
X7.2785Y-5.1903
X7.2788Y-2.4687
X7.2788Y-2.5687
X7.2788Y-2.6687
X7.2788Y-3.0992
X7.2788Y-3.1992
X7.2788Y-3.2992
X7.2788Y-3.7303
X7.2788Y-3.8303
X7.2788Y-3.9303
X7.4969Y-2.47
X7.4969Y-2.57
X7.4994Y-3.1
X7.4994Y-3.2
X7.4994Y-3.7298
X7.4994Y-3.8298
X7.4994Y-4.36
X7.4994Y-4.46
X7.4994Y-4.99
X7.4994Y-5.09
T6
X7.7469Y-2.37
X7.7469Y-2.77
X7.7494Y-3.
X7.7494Y-3.4
X7.7494Y-3.6298
X7.7494Y-4.0298
X7.7494Y-4.26
X7.7494Y-4.66
X7.7494Y-4.89
X7.7494Y-5.29
T5
X5.3648Y-2.3532G85X5.3648Y-2.3532
G05
X5.6502Y-2.3532G85X5.6502Y-2.3532
G05
T0
M30
