G04 #@! TF.FileFunction,Copper,L2,Bot,Signal*
%FSLAX46Y46*%
G04 Gerber Fmt 4.6, Leading zero omitted, Abs format (unit mm)*
G04 Created by KiCad (PCBNEW 4.0.7-e2-6376~58~ubuntu16.04.1) date Mon Jun 18 12:44:58 2018*
%MOMM*%
%LPD*%
G01*
G04 APERTURE LIST*
%ADD10C,0.100000*%
%ADD11C,1.200000*%
%ADD12O,1.700000X1.700000*%
%ADD13O,1.727200X2.032000*%
%ADD14C,1.727200*%
%ADD15C,2.200000*%
%ADD16R,1.700000X1.700000*%
%ADD17C,0.500000*%
%ADD18C,0.254000*%
%ADD19C,0.203000*%
%ADD20C,0.381000*%
G04 APERTURE END LIST*
D10*
D11*
X142315500Y-62421500D03*
X137465500Y-62421500D03*
D12*
X143515500Y-59771500D03*
X136265500Y-59771500D03*
D13*
X167100720Y-62703988D03*
X167100720Y-65243988D03*
X167100720Y-67783988D03*
X184880720Y-62703988D03*
X184880720Y-65243988D03*
X184880720Y-67783988D03*
X167100720Y-78719988D03*
X167100720Y-81259988D03*
X167100720Y-83799988D03*
X184880720Y-78719988D03*
X184880720Y-81259988D03*
X184880720Y-83799988D03*
X167100720Y-94749988D03*
X167100720Y-97289988D03*
X167100720Y-99829988D03*
X184880720Y-94749988D03*
X184880720Y-97289988D03*
X184880720Y-99829988D03*
X167095120Y-110736488D03*
X167095120Y-113276488D03*
X167095120Y-115816488D03*
X184875120Y-110736488D03*
X184875120Y-113276488D03*
X184875120Y-115816488D03*
X167095120Y-126753988D03*
X167095120Y-129293988D03*
X167095120Y-131833988D03*
X184875120Y-126753988D03*
X184875120Y-129293988D03*
X184875120Y-131833988D03*
D14*
X190484000Y-126746000D03*
X190484000Y-129286000D03*
D15*
X196834000Y-124206000D03*
X196834000Y-134366000D03*
D14*
X190484000Y-110744000D03*
X190484000Y-113284000D03*
D15*
X196834000Y-108204000D03*
X196834000Y-118364000D03*
D14*
X190484000Y-78740000D03*
X190484000Y-81280000D03*
D15*
X196834000Y-76200000D03*
X196834000Y-86360000D03*
D14*
X190484000Y-94738000D03*
X190484000Y-97278000D03*
D15*
X196834000Y-92198000D03*
X196834000Y-102358000D03*
D14*
X190420500Y-62738000D03*
X190420500Y-65278000D03*
D15*
X196770500Y-60198000D03*
X196770500Y-70358000D03*
D16*
X118084600Y-91871800D03*
D12*
X118084600Y-94411800D03*
X118084600Y-96951800D03*
X118084600Y-99491800D03*
X118084600Y-102031800D03*
X118084600Y-104571800D03*
X118084600Y-107111800D03*
X118084600Y-109651800D03*
X118084600Y-112191800D03*
D17*
X139381100Y-78826300D03*
X135382000Y-78994000D03*
X135382000Y-77978000D03*
X136398000Y-77978000D03*
X136398000Y-78994000D03*
X137414000Y-78994000D03*
X137414000Y-77978000D03*
X143916400Y-70358000D03*
X143916400Y-72034400D03*
X134747000Y-82118200D03*
X135839200Y-83159600D03*
X123952000Y-81127600D03*
X118922800Y-61671200D03*
X118922800Y-66700400D03*
X118922800Y-71882000D03*
X126847600Y-84023200D03*
X139446000Y-103378000D03*
X139446000Y-108966000D03*
X135421334Y-93929200D03*
X148463000Y-83820000D03*
X142494000Y-82499200D03*
X125730000Y-96316800D03*
X136550400Y-89331800D03*
X120497600Y-94564200D03*
X150876000Y-86487000D03*
X156464000Y-86487000D03*
X150876000Y-70485000D03*
X156464000Y-70485000D03*
X156591000Y-102489000D03*
X150749000Y-102489000D03*
X156464000Y-118491000D03*
X150749000Y-118491000D03*
X150083000Y-136842500D03*
X165100000Y-69723000D03*
X164973000Y-85725000D03*
X164973000Y-101727000D03*
X165100000Y-117729000D03*
X165100000Y-133731000D03*
X150799800Y-63195200D03*
X151587200Y-63241900D03*
X150850600Y-79197200D03*
X151663400Y-79241900D03*
X150749000Y-95097600D03*
X151638000Y-95241900D03*
X150774400Y-111125000D03*
X151536400Y-111125000D03*
X150774400Y-127279400D03*
X151511000Y-127254000D03*
X135331200Y-95402400D03*
X129409010Y-78181200D03*
X134543800Y-96062800D03*
X131013200Y-77419200D03*
X124612400Y-77317600D03*
X132867400Y-90678000D03*
X125323610Y-77266810D03*
X135153400Y-88417400D03*
X133335982Y-66584782D03*
X142951200Y-91160600D03*
X124104400Y-72390000D03*
X127482600Y-90500200D03*
X124104400Y-67157600D03*
X126746000Y-90525600D03*
X124155200Y-62026800D03*
X131216400Y-88417400D03*
X128473200Y-65989200D03*
X135305800Y-93014800D03*
X120599200Y-110667800D03*
X138811000Y-90932000D03*
X138074400Y-90932000D03*
X141888399Y-98606799D03*
X140004800Y-96723200D03*
X138099800Y-96723200D03*
X150705706Y-82007657D03*
X150718888Y-65882888D03*
X150701475Y-98013888D03*
X150701959Y-114015404D03*
X150558500Y-130052090D03*
X140004800Y-97586800D03*
X137541000Y-98018600D03*
X148717000Y-99136200D03*
X151384000Y-130048000D03*
X151384000Y-114046000D03*
X151384000Y-98044000D03*
X151384000Y-82042000D03*
X151401413Y-65913000D03*
X121412000Y-101193600D03*
X121869200Y-99720400D03*
X130365500Y-102108000D03*
X129054407Y-105451093D03*
X124968000Y-83362800D03*
X148145500Y-104330500D03*
X134239000Y-103505000D03*
X148145500Y-103632000D03*
X134239000Y-102870000D03*
X141782800Y-97709621D03*
X141046200Y-84328000D03*
D18*
X137414000Y-78994000D02*
X139213400Y-78994000D01*
X139213400Y-78994000D02*
X139381100Y-78826300D01*
X137414000Y-77978000D02*
X136398000Y-77978000D01*
X135382000Y-77978000D02*
X135382000Y-78994000D01*
X136398000Y-78994000D02*
X136398000Y-77978000D01*
X137414000Y-77978000D02*
X137414000Y-78994000D01*
D19*
X143916400Y-70358000D02*
X143916400Y-72034400D01*
D18*
X134747000Y-82118200D02*
X134797800Y-82118200D01*
X134797800Y-82118200D02*
X135839200Y-83159600D01*
X123952000Y-81127600D02*
X119176800Y-76352400D01*
X119176800Y-76352400D02*
X119024400Y-76200000D01*
X118922800Y-76098400D02*
X119176800Y-76352400D01*
X118922800Y-71882000D02*
X118922800Y-76098400D01*
X126847600Y-84023200D02*
X123952000Y-81127600D01*
X118922800Y-66700400D02*
X118922800Y-61671200D01*
X118922800Y-71528447D02*
X118922800Y-66700400D01*
X118922800Y-71882000D02*
X118922800Y-71528447D01*
D20*
X135421334Y-93929200D02*
X136550400Y-92800134D01*
X136550400Y-92800134D02*
X136550400Y-89331800D01*
X135421334Y-93929200D02*
X133033734Y-96316800D01*
X125730000Y-96316800D02*
X133033734Y-96316800D01*
X125730000Y-96316800D02*
X121896647Y-96316800D01*
X120497600Y-94564200D02*
X120497600Y-94917753D01*
X120497600Y-94917753D02*
X121896647Y-96316800D01*
D18*
X139446000Y-103378000D02*
X139446000Y-108966000D01*
D20*
X142494000Y-82499200D02*
X143814800Y-83820000D01*
X143814800Y-83820000D02*
X148463000Y-83820000D01*
X150050410Y-84366190D02*
X150050410Y-86487000D01*
X150050410Y-86487000D02*
X150050410Y-95728367D01*
X150876000Y-86487000D02*
X150522447Y-86487000D01*
X150522447Y-86487000D02*
X150050410Y-86487000D01*
X150050410Y-100255084D02*
X150050410Y-102489000D01*
X150050410Y-102489000D02*
X150050410Y-111721810D01*
X150395447Y-102489000D02*
X150050410Y-102489000D01*
X151976901Y-81652858D02*
X151976901Y-82439699D01*
X151976901Y-82439699D02*
X150050410Y-84366190D01*
X150050410Y-95728367D02*
X151976901Y-97654858D01*
X151976901Y-97654858D02*
X151976901Y-98328593D01*
X151976901Y-98328593D02*
X150050410Y-100255084D01*
X150050410Y-111721810D02*
X151976901Y-113648301D01*
X150876000Y-86487000D02*
X151229553Y-86487000D01*
X151229553Y-86487000D02*
X156464000Y-86487000D01*
X150749000Y-102489000D02*
X150395447Y-102489000D01*
X150050410Y-116319390D02*
X150050410Y-118491000D01*
X150050410Y-118491000D02*
X150050410Y-127836916D01*
X150749000Y-118491000D02*
X150395447Y-118491000D01*
X150395447Y-118491000D02*
X150050410Y-118491000D01*
X150876000Y-70485000D02*
X150522447Y-70485000D01*
X151976901Y-134948599D02*
X150083000Y-136842500D01*
X151976901Y-114392899D02*
X150050410Y-116319390D01*
X150522447Y-70485000D02*
X150050410Y-70957037D01*
X150050410Y-70957037D02*
X150050410Y-79726367D01*
X150050410Y-79726367D02*
X151976901Y-81652858D01*
X150050410Y-127836916D02*
X151976901Y-129763407D01*
X151976901Y-113648301D02*
X151976901Y-114392899D01*
X151976901Y-129763407D02*
X151976901Y-134948599D01*
X150876000Y-70485000D02*
X156464000Y-70485000D01*
X150749000Y-102489000D02*
X156591000Y-102489000D01*
X150749000Y-118491000D02*
X151102553Y-118491000D01*
X151102553Y-118491000D02*
X156464000Y-118491000D01*
D19*
X165100000Y-69723000D02*
X167039012Y-67783988D01*
X167039012Y-67783988D02*
X167100720Y-67783988D01*
X164973000Y-85725000D02*
X166898012Y-83799988D01*
X166898012Y-83799988D02*
X167100720Y-83799988D01*
X164973000Y-101727000D02*
X166870012Y-99829988D01*
X166870012Y-99829988D02*
X167100720Y-99829988D01*
X165100000Y-117729000D02*
X167012512Y-115816488D01*
X167012512Y-115816488D02*
X167095120Y-115816488D01*
X165100000Y-133731000D02*
X166997012Y-131833988D01*
X166997012Y-131833988D02*
X167095120Y-131833988D01*
X152247600Y-62738000D02*
X153416000Y-62738000D01*
X151155400Y-62484000D02*
X151993600Y-62484000D01*
X151993600Y-62484000D02*
X152247600Y-62738000D01*
X150903447Y-62735953D02*
X151155400Y-62484000D01*
X150903447Y-62738000D02*
X150903447Y-62735953D01*
X150799800Y-63195200D02*
X150799800Y-62841647D01*
X150799800Y-62841647D02*
X150903447Y-62738000D01*
X153416000Y-62738000D02*
X167195500Y-62738000D01*
X151587200Y-63241900D02*
X165251032Y-63241900D01*
X165251032Y-63241900D02*
X167100720Y-65091588D01*
X167100720Y-65091588D02*
X167100720Y-65243988D01*
X150850600Y-79197200D02*
X151561800Y-78486000D01*
X151561800Y-78486000D02*
X152376600Y-78486000D01*
X152376600Y-78486000D02*
X152628600Y-78738000D01*
X152628600Y-78738000D02*
X153418000Y-78738000D01*
X153416000Y-78740000D02*
X153418000Y-78738000D01*
X167195500Y-78738000D02*
X153418000Y-78738000D01*
X151663400Y-79241900D02*
X165235032Y-79241900D01*
X165235032Y-79241900D02*
X167100720Y-81107588D01*
X167100720Y-81107588D02*
X167100720Y-81259988D01*
X167195500Y-94738000D02*
X152247600Y-94738000D01*
X152247600Y-94738000D02*
X152048400Y-94538800D01*
X152048400Y-94538800D02*
X151307800Y-94538800D01*
X151307800Y-94538800D02*
X150749000Y-95097600D01*
X151638000Y-95241900D02*
X165205032Y-95241900D01*
X165205032Y-95241900D02*
X167100720Y-97137588D01*
X167100720Y-97137588D02*
X167100720Y-97289988D01*
X150774400Y-111125000D02*
X151278301Y-110621099D01*
X151278301Y-110621099D02*
X152860599Y-110621099D01*
X152860599Y-110621099D02*
X152977500Y-110738000D01*
X152977500Y-110738000D02*
X153168000Y-110738000D01*
X153168000Y-110738000D02*
X167195500Y-110738000D01*
X151536400Y-111125000D02*
X165096032Y-111125000D01*
X165096032Y-111125000D02*
X167095120Y-113124088D01*
X167095120Y-113124088D02*
X167095120Y-113276488D01*
X150774400Y-127279400D02*
X150774400Y-126925847D01*
X150962247Y-126738000D02*
X153289000Y-126738000D01*
X150774400Y-126925847D02*
X150962247Y-126738000D01*
X153289000Y-126738000D02*
X167195500Y-126738000D01*
X151511000Y-127254000D02*
X165207532Y-127254000D01*
X165207532Y-127254000D02*
X167095120Y-129141588D01*
X167095120Y-129141588D02*
X167095120Y-129293988D01*
X151511000Y-127254000D02*
X151892000Y-127254000D01*
D18*
X135331200Y-95402400D02*
X137123309Y-93610291D01*
X137123309Y-93610291D02*
X137123309Y-89050559D01*
X137123309Y-89050559D02*
X128879610Y-80806860D01*
X128879610Y-80806860D02*
X128879610Y-78710600D01*
X128879610Y-78710600D02*
X129409010Y-78181200D01*
X131013200Y-77419200D02*
X129286020Y-79146380D01*
X137529719Y-88863319D02*
X137529719Y-93987395D01*
X129286020Y-79146380D02*
X129286020Y-80619620D01*
X129286020Y-80619620D02*
X137529719Y-88863319D01*
X137529719Y-93987395D02*
X135454314Y-96062800D01*
X135454314Y-96062800D02*
X134543800Y-96062800D01*
X124612400Y-78638400D02*
X132867400Y-86893400D01*
X124612400Y-78638400D02*
X124612400Y-77317600D01*
X132867400Y-86893400D02*
X132867400Y-87249000D01*
X132867400Y-87249000D02*
X132867400Y-90678000D01*
X125323600Y-78587600D02*
X126517400Y-79781400D01*
X125323610Y-77266810D02*
X125323610Y-77620363D01*
X125323600Y-77620373D02*
X125323600Y-78587600D01*
X125323610Y-77620363D02*
X125323600Y-77620373D01*
X135153400Y-88417400D02*
X126517400Y-79781400D01*
X142951200Y-91160600D02*
X140401750Y-91160600D01*
X140401750Y-91160600D02*
X129768600Y-80527450D01*
X129768600Y-80527450D02*
X129768600Y-79447314D01*
X129768600Y-79447314D02*
X133335982Y-75879932D01*
X133335982Y-75879932D02*
X133335982Y-66584782D01*
X127482600Y-90500200D02*
X130280589Y-87702211D01*
X130263141Y-86448141D02*
X125501400Y-81686400D01*
X130280589Y-87702211D02*
X130280589Y-86448141D01*
X130280589Y-86448141D02*
X130263141Y-86448141D01*
X125501400Y-81686400D02*
X125501400Y-81668952D01*
X125501400Y-81668952D02*
X123270179Y-79437731D01*
X123270179Y-79437731D02*
X123270179Y-75783121D01*
X123270179Y-75783121D02*
X124104400Y-74948900D01*
X124104400Y-74948900D02*
X124104400Y-72390000D01*
X124307600Y-75320450D02*
X123676589Y-75951461D01*
X124104400Y-67157600D02*
X124866400Y-67919600D01*
X124866400Y-67919600D02*
X124866400Y-74761650D01*
X124866400Y-74761650D02*
X124307600Y-75320450D01*
X127736713Y-91029601D02*
X127250001Y-91029601D01*
X123676589Y-75951461D02*
X123676589Y-79269391D01*
X123676589Y-79269391D02*
X130686999Y-86279801D01*
X130686999Y-86279801D02*
X130686999Y-88079315D01*
X130686999Y-88079315D02*
X127736713Y-91029601D01*
X127250001Y-91029601D02*
X126746000Y-90525600D01*
X125272810Y-63144410D02*
X125272809Y-74828400D01*
X125272809Y-74828400D02*
X125272810Y-74929990D01*
X124082999Y-76119801D02*
X125272809Y-74929991D01*
X125272809Y-74929991D02*
X125272809Y-74828400D01*
X124155200Y-62026800D02*
X125272810Y-63144410D01*
X124082999Y-79039349D02*
X131216400Y-86172750D01*
X124082999Y-76119801D02*
X124082999Y-79039349D01*
X131216400Y-86172750D02*
X131216400Y-88417400D01*
X135682801Y-88184801D02*
X128473200Y-80975200D01*
X128473200Y-80975200D02*
X128473200Y-65989200D01*
X135305800Y-93014800D02*
X135305800Y-89048514D01*
X135305800Y-89048514D02*
X135682801Y-88671513D01*
X135682801Y-88671513D02*
X135682801Y-88184801D01*
X138811000Y-90932000D02*
X139420600Y-91541600D01*
X139420600Y-91541600D02*
X139420600Y-97497264D01*
X137857864Y-99060000D02*
X137224136Y-99060000D01*
X139420600Y-97497264D02*
X137857864Y-99060000D01*
X137224136Y-99060000D02*
X136273076Y-98108940D01*
X136273076Y-98108940D02*
X125004660Y-98108940D01*
X125004660Y-98108940D02*
X123088400Y-100025200D01*
X123088400Y-108178600D02*
X120599200Y-110667800D01*
X123088400Y-100025200D02*
X123088400Y-108178600D01*
X118084600Y-112191800D02*
X122681990Y-107594410D01*
X122681990Y-107594410D02*
X122681990Y-98196410D01*
X122681990Y-98196410D02*
X123175870Y-97702530D01*
X123175870Y-97702530D02*
X136441416Y-97702530D01*
X138955318Y-97387796D02*
X138955318Y-92166471D01*
X136441416Y-97702530D02*
X137286887Y-98548001D01*
X137286887Y-98548001D02*
X137795113Y-98548001D01*
X137795113Y-98548001D02*
X138955318Y-97387796D01*
X138955318Y-92166471D02*
X138074400Y-91285553D01*
X138074400Y-91285553D02*
X138074400Y-90932000D01*
X150701475Y-98013888D02*
X149250590Y-99464773D01*
X149250590Y-98348800D02*
X149250590Y-99464773D01*
X141888399Y-98606799D02*
X148992591Y-98606799D01*
X148992591Y-98606799D02*
X149250590Y-98348800D01*
D19*
X149250590Y-98196400D02*
X149250590Y-97612200D01*
X149250590Y-98196400D02*
X149250590Y-98348800D01*
X149250590Y-99034600D02*
X149250590Y-98348800D01*
D18*
X140004800Y-96723200D02*
X141888399Y-98606799D01*
X140004800Y-96723200D02*
X140254799Y-96973199D01*
X136424109Y-96889710D02*
X137933290Y-96889710D01*
X137933290Y-96889710D02*
X138099800Y-96723200D01*
D19*
X149250590Y-97612200D02*
X149250590Y-83522997D01*
X149250590Y-97856836D02*
X149250590Y-97612200D01*
D18*
X136424109Y-96889710D02*
X120686690Y-96889710D01*
X120686690Y-96889710D02*
X118084600Y-99491800D01*
D19*
X149250590Y-99464773D02*
X149250590Y-99034600D01*
X149250590Y-98924016D02*
X149250590Y-99034600D01*
X149250590Y-115466773D02*
X149250590Y-101066600D01*
X149250590Y-101066600D02*
X149250590Y-99464773D01*
X149250590Y-100660390D02*
X149250590Y-101066600D01*
X150749000Y-82024587D02*
X150732070Y-82007657D01*
X149250590Y-83462773D02*
X150455707Y-82257656D01*
X149250590Y-83522997D02*
X149250590Y-83462773D01*
X150732070Y-82007657D02*
X150705706Y-82007657D01*
X150455707Y-82257656D02*
X150705706Y-82007657D01*
X149250590Y-83522997D02*
X149250590Y-67351186D01*
X150468889Y-66132887D02*
X150718888Y-65882888D01*
X149250590Y-67351186D02*
X150468889Y-66132887D01*
X150731587Y-97983776D02*
X150701475Y-98013888D01*
X150451960Y-114265403D02*
X150701959Y-114015404D01*
X149250590Y-128744180D02*
X149250590Y-115466773D01*
X149250590Y-115466773D02*
X150451960Y-114265403D01*
X150558500Y-130052090D02*
X149250590Y-128744180D01*
X150731587Y-113985776D02*
X150701959Y-114015404D01*
D18*
X118084600Y-102031800D02*
X122820280Y-97296120D01*
X122820280Y-97296120D02*
X136818520Y-97296120D01*
X136818520Y-97296120D02*
X137541000Y-98018600D01*
X140004800Y-97586800D02*
X141554200Y-99136200D01*
X141554200Y-99136200D02*
X148717000Y-99136200D01*
D19*
X149606000Y-83820000D02*
X151384000Y-82042000D01*
X149606000Y-95912447D02*
X149606000Y-83820000D01*
X151384000Y-98044000D02*
X151384000Y-97690447D01*
X151384000Y-97690447D02*
X149606000Y-95912447D01*
X149606000Y-79910447D02*
X149606000Y-67708413D01*
X149606000Y-67708413D02*
X151401413Y-65913000D01*
X151384000Y-82042000D02*
X151384000Y-81688447D01*
X151384000Y-81688447D02*
X149606000Y-79910447D01*
X149606000Y-111914447D02*
X149606000Y-99822000D01*
X149606000Y-99822000D02*
X151384000Y-98044000D01*
X151384000Y-114046000D02*
X151384000Y-113692447D01*
X151384000Y-113692447D02*
X149606000Y-111914447D01*
X151384000Y-114046000D02*
X149606000Y-115824000D01*
X149606000Y-115824000D02*
X149606000Y-128270000D01*
X149606000Y-128270000D02*
X151384000Y-130048000D01*
X151384000Y-65930413D02*
X151401413Y-65913000D01*
D18*
X118084600Y-104571800D02*
X121412000Y-101244400D01*
X121412000Y-101244400D02*
X121412000Y-101193600D01*
X122021600Y-100226353D02*
X122021600Y-101752400D01*
X118084600Y-107111800D02*
X122021600Y-103174800D01*
X122021600Y-103174800D02*
X122021600Y-101752400D01*
X121869200Y-99720400D02*
X121869200Y-100073953D01*
X121869200Y-100073953D02*
X122021600Y-100226353D01*
D19*
X129054407Y-105451093D02*
X129054407Y-103419093D01*
X129054407Y-103419093D02*
X130365500Y-102108000D01*
D20*
X119758190Y-85473810D02*
X121869200Y-83362800D01*
X121869200Y-83362800D02*
X124968000Y-83362800D01*
X119758190Y-85598000D02*
X119758190Y-95278210D01*
X119758190Y-85598000D02*
X119758190Y-85473810D01*
X119758190Y-95278210D02*
X118084600Y-96951800D01*
D18*
X134239000Y-103505000D02*
X134239000Y-102870000D01*
X134239000Y-102870000D02*
X134488999Y-102620001D01*
X134488999Y-102620001D02*
X147133501Y-102620001D01*
X147133501Y-102620001D02*
X148145500Y-103632000D01*
X141782800Y-97709621D02*
X142136354Y-97709622D01*
X142136354Y-97709622D02*
X142341600Y-97709622D01*
D19*
X148895180Y-97709622D02*
X142341600Y-97709622D01*
X148895180Y-97709622D02*
X148895180Y-85191600D01*
X141046200Y-84328000D02*
X148031580Y-84328000D01*
X148031580Y-84328000D02*
X148895180Y-85191600D01*
D18*
G36*
X148336000Y-83244697D02*
X148203851Y-83299300D01*
X144030481Y-83299300D01*
X143045306Y-82314124D01*
X142986157Y-82170972D01*
X142823086Y-82007617D01*
X142609915Y-81919101D01*
X142379097Y-81918899D01*
X142165772Y-82007043D01*
X142002417Y-82170114D01*
X141913901Y-82383285D01*
X141913699Y-82614103D01*
X142001843Y-82827428D01*
X142164914Y-82990783D01*
X142309052Y-83050634D01*
X143154719Y-83896300D01*
X141435065Y-83896300D01*
X141375286Y-83836417D01*
X141162115Y-83747901D01*
X140931297Y-83747699D01*
X140717972Y-83835843D01*
X140554617Y-83998914D01*
X140466101Y-84212085D01*
X140465899Y-84442903D01*
X140554043Y-84656228D01*
X140717114Y-84819583D01*
X140930285Y-84908099D01*
X141161103Y-84908301D01*
X141374428Y-84820157D01*
X141434990Y-84759700D01*
X147852764Y-84759700D01*
X148336000Y-85242936D01*
X148336000Y-97277922D01*
X142469798Y-97277922D01*
X142341600Y-97252422D01*
X142146210Y-97252422D01*
X142111886Y-97218038D01*
X141898715Y-97129522D01*
X141667897Y-97129320D01*
X141454572Y-97217464D01*
X141299973Y-97371795D01*
X140585058Y-96656880D01*
X140585101Y-96608297D01*
X140496957Y-96394972D01*
X140333886Y-96231617D01*
X140120715Y-96143101D01*
X139889897Y-96142899D01*
X139877800Y-96147897D01*
X139877800Y-91541600D01*
X139842998Y-91366637D01*
X139743890Y-91218311D01*
X139391258Y-90865680D01*
X139391301Y-90817097D01*
X139376959Y-90782387D01*
X140078461Y-91483889D01*
X140226787Y-91582998D01*
X140401750Y-91617800D01*
X142587791Y-91617800D01*
X142622114Y-91652183D01*
X142835285Y-91740699D01*
X143066103Y-91740901D01*
X143279428Y-91652757D01*
X143442783Y-91489686D01*
X143531299Y-91276515D01*
X143531501Y-91045697D01*
X143443357Y-90832372D01*
X143280286Y-90669017D01*
X143067115Y-90580501D01*
X142836297Y-90580299D01*
X142622972Y-90668443D01*
X142587954Y-90703400D01*
X140591128Y-90703400D01*
X130225800Y-80338072D01*
X130225800Y-79636692D01*
X133659271Y-76203221D01*
X133758380Y-76054895D01*
X133793182Y-75879932D01*
X133793182Y-66948191D01*
X133827565Y-66913868D01*
X133916081Y-66700697D01*
X133916283Y-66469879D01*
X133828139Y-66256554D01*
X133665068Y-66093199D01*
X133451897Y-66004683D01*
X133221079Y-66004481D01*
X133007754Y-66092625D01*
X132844399Y-66255696D01*
X132755883Y-66468867D01*
X132755681Y-66699685D01*
X132843825Y-66913010D01*
X132878782Y-66948028D01*
X132878782Y-75690554D01*
X131491872Y-77077464D01*
X131342286Y-76927617D01*
X131129115Y-76839101D01*
X130898297Y-76838899D01*
X130684972Y-76927043D01*
X130521617Y-77090114D01*
X130433101Y-77303285D01*
X130433058Y-77352764D01*
X129910431Y-77875391D01*
X129901167Y-77852972D01*
X129738096Y-77689617D01*
X129524925Y-77601101D01*
X129294107Y-77600899D01*
X129080782Y-77689043D01*
X128930400Y-77839164D01*
X128930400Y-66352609D01*
X128964783Y-66318286D01*
X129053299Y-66105115D01*
X129053501Y-65874297D01*
X128965357Y-65660972D01*
X128802286Y-65497617D01*
X128589115Y-65409101D01*
X128358297Y-65408899D01*
X128144972Y-65497043D01*
X127981617Y-65660114D01*
X127893101Y-65873285D01*
X127892899Y-66104103D01*
X127981043Y-66317428D01*
X128016000Y-66352446D01*
X128016000Y-80633422D01*
X125780800Y-78398222D01*
X125780800Y-77630229D01*
X125815193Y-77595896D01*
X125903709Y-77382725D01*
X125903911Y-77151907D01*
X125815767Y-76938582D01*
X125652696Y-76775227D01*
X125439525Y-76686711D01*
X125208707Y-76686509D01*
X124995382Y-76774653D01*
X124942705Y-76827238D01*
X124941486Y-76826017D01*
X124728315Y-76737501D01*
X124540199Y-76737336D01*
X124540199Y-76309179D01*
X125596098Y-75253281D01*
X125596101Y-75253277D01*
X125596102Y-75253276D01*
X125695210Y-75104949D01*
X125730010Y-74929985D01*
X125730009Y-74828395D01*
X125730010Y-63144410D01*
X125695208Y-62969447D01*
X125596099Y-62821121D01*
X125380695Y-62605717D01*
X136535139Y-62605717D01*
X136676455Y-62947728D01*
X136937896Y-63209626D01*
X137279660Y-63351538D01*
X137649717Y-63351861D01*
X137991728Y-63210545D01*
X138253626Y-62949104D01*
X138395538Y-62607340D01*
X138395539Y-62605717D01*
X141385139Y-62605717D01*
X141526455Y-62947728D01*
X141787896Y-63209626D01*
X142129660Y-63351538D01*
X142499717Y-63351861D01*
X142841728Y-63210545D01*
X143103626Y-62949104D01*
X143245538Y-62607340D01*
X143245861Y-62237283D01*
X143104545Y-61895272D01*
X142843104Y-61633374D01*
X142501340Y-61491462D01*
X142131283Y-61491139D01*
X141789272Y-61632455D01*
X141527374Y-61893896D01*
X141385462Y-62235660D01*
X141385139Y-62605717D01*
X138395539Y-62605717D01*
X138395861Y-62237283D01*
X138254545Y-61895272D01*
X137993104Y-61633374D01*
X137651340Y-61491462D01*
X137281283Y-61491139D01*
X136939272Y-61632455D01*
X136677374Y-61893896D01*
X136535462Y-62235660D01*
X136535139Y-62605717D01*
X125380695Y-62605717D01*
X124735458Y-61960480D01*
X124735501Y-61911897D01*
X124647357Y-61698572D01*
X124484286Y-61535217D01*
X124271115Y-61446701D01*
X124040297Y-61446499D01*
X123826972Y-61534643D01*
X123663617Y-61697714D01*
X123575101Y-61910885D01*
X123574899Y-62141703D01*
X123663043Y-62355028D01*
X123826114Y-62518383D01*
X124039285Y-62606899D01*
X124088764Y-62606942D01*
X124815610Y-63333788D01*
X124815610Y-67222232D01*
X124684658Y-67091280D01*
X124684701Y-67042697D01*
X124596557Y-66829372D01*
X124433486Y-66666017D01*
X124220315Y-66577501D01*
X123989497Y-66577299D01*
X123776172Y-66665443D01*
X123612817Y-66828514D01*
X123524301Y-67041685D01*
X123524099Y-67272503D01*
X123612243Y-67485828D01*
X123775314Y-67649183D01*
X123988485Y-67737699D01*
X124037964Y-67737742D01*
X124409200Y-68108978D01*
X124409200Y-71888333D01*
X124220315Y-71809901D01*
X123989497Y-71809699D01*
X123776172Y-71897843D01*
X123612817Y-72060914D01*
X123524301Y-72274085D01*
X123524099Y-72504903D01*
X123612243Y-72718228D01*
X123647200Y-72753246D01*
X123647200Y-74759522D01*
X122946890Y-75459832D01*
X122847781Y-75608158D01*
X122812979Y-75783121D01*
X122812979Y-79342000D01*
X119500089Y-76029111D01*
X119380000Y-75909022D01*
X119380000Y-72245409D01*
X119414383Y-72211086D01*
X119502899Y-71997915D01*
X119503101Y-71767097D01*
X119414957Y-71553772D01*
X119380000Y-71518754D01*
X119380000Y-67063809D01*
X119414383Y-67029486D01*
X119502899Y-66816315D01*
X119503101Y-66585497D01*
X119414957Y-66372172D01*
X119380000Y-66337154D01*
X119380000Y-62034609D01*
X119414383Y-62000286D01*
X119502899Y-61787115D01*
X119503101Y-61556297D01*
X119414957Y-61342972D01*
X119251886Y-61179617D01*
X119038715Y-61091101D01*
X118807897Y-61090899D01*
X118594572Y-61179043D01*
X118431217Y-61342114D01*
X118342701Y-61555285D01*
X118342499Y-61786103D01*
X118430643Y-61999428D01*
X118465600Y-62034446D01*
X118465600Y-66336991D01*
X118431217Y-66371314D01*
X118342701Y-66584485D01*
X118342499Y-66815303D01*
X118430643Y-67028628D01*
X118465600Y-67063646D01*
X118465600Y-71518591D01*
X118431217Y-71552914D01*
X118342701Y-71766085D01*
X118342499Y-71996903D01*
X118430643Y-72210228D01*
X118465600Y-72245246D01*
X118465600Y-76098400D01*
X118500402Y-76273363D01*
X118599511Y-76421689D01*
X123371742Y-81193920D01*
X123371699Y-81242503D01*
X123459843Y-81455828D01*
X123622914Y-81619183D01*
X123836085Y-81707699D01*
X123885564Y-81707742D01*
X124960415Y-82782593D01*
X124853097Y-82782499D01*
X124708851Y-82842100D01*
X121869205Y-82842100D01*
X121869200Y-82842099D01*
X121669937Y-82881736D01*
X121501009Y-82994609D01*
X121501007Y-82994612D01*
X119389999Y-85105619D01*
X119277126Y-85274547D01*
X119237489Y-85473810D01*
X119237490Y-85473815D01*
X119237490Y-90459942D01*
X119060909Y-90386800D01*
X118370350Y-90386800D01*
X118211600Y-90545550D01*
X118211600Y-91744800D01*
X118231600Y-91744800D01*
X118231600Y-91998800D01*
X118211600Y-91998800D01*
X118211600Y-92018800D01*
X117957600Y-92018800D01*
X117957600Y-91998800D01*
X116758350Y-91998800D01*
X116599600Y-92157550D01*
X116599600Y-92848110D01*
X116696273Y-93081499D01*
X116874902Y-93260127D01*
X117108291Y-93356800D01*
X117556912Y-93356800D01*
X117226952Y-93577273D01*
X116971116Y-93960157D01*
X116881279Y-94411800D01*
X116971116Y-94863443D01*
X117226952Y-95246327D01*
X117609836Y-95502163D01*
X118061479Y-95592000D01*
X118107721Y-95592000D01*
X118559364Y-95502163D01*
X118942248Y-95246327D01*
X119198084Y-94863443D01*
X119237490Y-94665335D01*
X119237490Y-95062529D01*
X118458620Y-95841398D01*
X118107721Y-95771600D01*
X118061479Y-95771600D01*
X117609836Y-95861437D01*
X117226952Y-96117273D01*
X116971116Y-96500157D01*
X116881279Y-96951800D01*
X116971116Y-97403443D01*
X117226952Y-97786327D01*
X117609836Y-98042163D01*
X118061479Y-98132000D01*
X118107721Y-98132000D01*
X118559364Y-98042163D01*
X118942248Y-97786327D01*
X119198084Y-97403443D01*
X119287921Y-96951800D01*
X119210451Y-96562331D01*
X120126378Y-95646403D01*
X120126381Y-95646401D01*
X120239254Y-95477473D01*
X120252806Y-95409341D01*
X121275976Y-96432510D01*
X120686690Y-96432510D01*
X120511727Y-96467312D01*
X120363401Y-96566421D01*
X118533525Y-98396297D01*
X118107721Y-98311600D01*
X118061479Y-98311600D01*
X117609836Y-98401437D01*
X117226952Y-98657273D01*
X116971116Y-99040157D01*
X116881279Y-99491800D01*
X116971116Y-99943443D01*
X117226952Y-100326327D01*
X117609836Y-100582163D01*
X118061479Y-100672000D01*
X118107721Y-100672000D01*
X118559364Y-100582163D01*
X118942248Y-100326327D01*
X119198084Y-99943443D01*
X119287921Y-99491800D01*
X119198084Y-99040157D01*
X119191970Y-99031008D01*
X120876068Y-97346910D01*
X122122912Y-97346910D01*
X118533525Y-100936297D01*
X118107721Y-100851600D01*
X118061479Y-100851600D01*
X117609836Y-100941437D01*
X117226952Y-101197273D01*
X116971116Y-101580157D01*
X116881279Y-102031800D01*
X116971116Y-102483443D01*
X117226952Y-102866327D01*
X117609836Y-103122163D01*
X118061479Y-103212000D01*
X118107721Y-103212000D01*
X118559364Y-103122163D01*
X118942248Y-102866327D01*
X119198084Y-102483443D01*
X119287921Y-102031800D01*
X119198084Y-101580157D01*
X119191970Y-101571008D01*
X122224790Y-98538188D01*
X122224790Y-99255367D01*
X122198286Y-99228817D01*
X121985115Y-99140301D01*
X121754297Y-99140099D01*
X121540972Y-99228243D01*
X121377617Y-99391314D01*
X121289101Y-99604485D01*
X121288899Y-99835303D01*
X121377043Y-100048628D01*
X121414408Y-100086058D01*
X121446802Y-100248916D01*
X121545911Y-100397242D01*
X121564400Y-100415731D01*
X121564400Y-100628651D01*
X121527915Y-100613501D01*
X121297097Y-100613299D01*
X121083772Y-100701443D01*
X120920417Y-100864514D01*
X120831901Y-101077685D01*
X120831813Y-101178009D01*
X118533525Y-103476297D01*
X118107721Y-103391600D01*
X118061479Y-103391600D01*
X117609836Y-103481437D01*
X117226952Y-103737273D01*
X116971116Y-104120157D01*
X116881279Y-104571800D01*
X116971116Y-105023443D01*
X117226952Y-105406327D01*
X117609836Y-105662163D01*
X118061479Y-105752000D01*
X118107721Y-105752000D01*
X118559364Y-105662163D01*
X118942248Y-105406327D01*
X119198084Y-105023443D01*
X119287921Y-104571800D01*
X119198084Y-104120157D01*
X119191970Y-104111008D01*
X121530608Y-101772370D01*
X121564400Y-101758408D01*
X121564400Y-102985422D01*
X118533525Y-106016297D01*
X118107721Y-105931600D01*
X118061479Y-105931600D01*
X117609836Y-106021437D01*
X117226952Y-106277273D01*
X116971116Y-106660157D01*
X116881279Y-107111800D01*
X116971116Y-107563443D01*
X117226952Y-107946327D01*
X117609836Y-108202163D01*
X118061479Y-108292000D01*
X118107721Y-108292000D01*
X118559364Y-108202163D01*
X118942248Y-107946327D01*
X119198084Y-107563443D01*
X119287921Y-107111800D01*
X119198084Y-106660157D01*
X119191970Y-106651008D01*
X122224790Y-103618188D01*
X122224790Y-107405032D01*
X118533525Y-111096297D01*
X118107721Y-111011600D01*
X118061479Y-111011600D01*
X117609836Y-111101437D01*
X117226952Y-111357273D01*
X116971116Y-111740157D01*
X116881279Y-112191800D01*
X116971116Y-112643443D01*
X117226952Y-113026327D01*
X117609836Y-113282163D01*
X118061479Y-113372000D01*
X118107721Y-113372000D01*
X118559364Y-113282163D01*
X118942248Y-113026327D01*
X119198084Y-112643443D01*
X119287921Y-112191800D01*
X119198084Y-111740157D01*
X119191970Y-111731008D01*
X120054387Y-110868591D01*
X120107043Y-110996028D01*
X120270114Y-111159383D01*
X120483285Y-111247899D01*
X120714103Y-111248101D01*
X120927428Y-111159957D01*
X121090783Y-110996886D01*
X121179299Y-110783715D01*
X121179342Y-110734236D01*
X123411689Y-108501890D01*
X123510798Y-108353563D01*
X123545600Y-108178600D01*
X123545600Y-105565996D01*
X128474106Y-105565996D01*
X128562250Y-105779321D01*
X128725321Y-105942676D01*
X128938492Y-106031192D01*
X129169310Y-106031394D01*
X129382635Y-105943250D01*
X129545990Y-105780179D01*
X129634506Y-105567008D01*
X129634708Y-105336190D01*
X129546564Y-105122865D01*
X129486107Y-105062303D01*
X129486107Y-103597909D01*
X130395789Y-102688227D01*
X130480403Y-102688301D01*
X130693728Y-102600157D01*
X130857083Y-102437086D01*
X130945599Y-102223915D01*
X130945801Y-101993097D01*
X130857657Y-101779772D01*
X130694586Y-101616417D01*
X130481415Y-101527901D01*
X130250597Y-101527699D01*
X130037272Y-101615843D01*
X129873917Y-101778914D01*
X129785401Y-101992085D01*
X129785326Y-102077658D01*
X128749149Y-103113835D01*
X128655568Y-103253888D01*
X128634146Y-103361583D01*
X128622707Y-103419093D01*
X128622707Y-105062228D01*
X128562824Y-105122007D01*
X128474308Y-105335178D01*
X128474106Y-105565996D01*
X123545600Y-105565996D01*
X123545600Y-100214578D01*
X125194038Y-98566140D01*
X136083698Y-98566140D01*
X136900847Y-99383289D01*
X137049173Y-99482398D01*
X137224136Y-99517200D01*
X137857864Y-99517200D01*
X138032827Y-99482398D01*
X138181153Y-99383289D01*
X139580969Y-97983473D01*
X139675714Y-98078383D01*
X139888885Y-98166899D01*
X139938364Y-98166942D01*
X141230910Y-99459489D01*
X141265196Y-99482398D01*
X141379237Y-99558598D01*
X141554200Y-99593400D01*
X148336000Y-99593400D01*
X148336000Y-103082871D01*
X148261415Y-103051901D01*
X148211936Y-103051858D01*
X147456790Y-102296712D01*
X147308464Y-102197603D01*
X147133501Y-102162801D01*
X134488999Y-102162801D01*
X134314036Y-102197603D01*
X134176137Y-102289745D01*
X134124097Y-102289699D01*
X133910772Y-102377843D01*
X133747417Y-102540914D01*
X133658901Y-102754085D01*
X133658699Y-102984903D01*
X133742508Y-103187736D01*
X133658901Y-103389085D01*
X133658699Y-103619903D01*
X133746843Y-103833228D01*
X133909914Y-103996583D01*
X134123085Y-104085099D01*
X134353903Y-104085301D01*
X134567228Y-103997157D01*
X134730583Y-103834086D01*
X134819099Y-103620915D01*
X134819301Y-103390097D01*
X134735492Y-103187264D01*
X134781194Y-103077201D01*
X138942671Y-103077201D01*
X138865901Y-103262085D01*
X138865699Y-103492903D01*
X138953843Y-103706228D01*
X138988800Y-103741246D01*
X138988800Y-108602591D01*
X138954417Y-108636914D01*
X138865901Y-108850085D01*
X138865699Y-109080903D01*
X138953843Y-109294228D01*
X139116914Y-109457583D01*
X139330085Y-109546099D01*
X139560903Y-109546301D01*
X139774228Y-109458157D01*
X139937583Y-109295086D01*
X140026099Y-109081915D01*
X140026301Y-108851097D01*
X139938157Y-108637772D01*
X139903200Y-108602754D01*
X139903200Y-103741409D01*
X139937583Y-103707086D01*
X140026099Y-103493915D01*
X140026301Y-103263097D01*
X139949490Y-103077201D01*
X146944123Y-103077201D01*
X147565242Y-103698320D01*
X147565199Y-103746903D01*
X147653343Y-103960228D01*
X147674222Y-103981144D01*
X147653917Y-104001414D01*
X147565401Y-104214585D01*
X147565199Y-104445403D01*
X147653343Y-104658728D01*
X147816414Y-104822083D01*
X148029585Y-104910599D01*
X148260403Y-104910801D01*
X148336000Y-104879565D01*
X148336000Y-137033000D01*
X118354379Y-137033000D01*
X118686757Y-136701201D01*
X118904951Y-136175732D01*
X118905447Y-135606764D01*
X118688171Y-135080915D01*
X118286201Y-134678243D01*
X117760732Y-134460049D01*
X117191764Y-134459553D01*
X116665915Y-134676829D01*
X116263243Y-135078799D01*
X116153000Y-135344293D01*
X116153000Y-109651800D01*
X116881279Y-109651800D01*
X116971116Y-110103443D01*
X117226952Y-110486327D01*
X117609836Y-110742163D01*
X118061479Y-110832000D01*
X118107721Y-110832000D01*
X118559364Y-110742163D01*
X118942248Y-110486327D01*
X119198084Y-110103443D01*
X119287921Y-109651800D01*
X119198084Y-109200157D01*
X118942248Y-108817273D01*
X118559364Y-108561437D01*
X118107721Y-108471600D01*
X118061479Y-108471600D01*
X117609836Y-108561437D01*
X117226952Y-108817273D01*
X116971116Y-109200157D01*
X116881279Y-109651800D01*
X116153000Y-109651800D01*
X116153000Y-90895490D01*
X116599600Y-90895490D01*
X116599600Y-91586050D01*
X116758350Y-91744800D01*
X117957600Y-91744800D01*
X117957600Y-90545550D01*
X117798850Y-90386800D01*
X117108291Y-90386800D01*
X116874902Y-90483473D01*
X116696273Y-90662101D01*
X116599600Y-90895490D01*
X116153000Y-90895490D01*
X116153000Y-59727698D01*
X116261829Y-59991085D01*
X116663799Y-60393757D01*
X117189268Y-60611951D01*
X117758236Y-60612447D01*
X118284085Y-60395171D01*
X118686757Y-59993201D01*
X118778815Y-59771500D01*
X135062179Y-59771500D01*
X135152016Y-60223143D01*
X135407852Y-60606027D01*
X135790736Y-60861863D01*
X136242379Y-60951700D01*
X136288621Y-60951700D01*
X136740264Y-60861863D01*
X137123148Y-60606027D01*
X137378984Y-60223143D01*
X137468821Y-59771500D01*
X142312179Y-59771500D01*
X142402016Y-60223143D01*
X142657852Y-60606027D01*
X143040736Y-60861863D01*
X143492379Y-60951700D01*
X143538621Y-60951700D01*
X143990264Y-60861863D01*
X144373148Y-60606027D01*
X144628984Y-60223143D01*
X144718821Y-59771500D01*
X144628984Y-59319857D01*
X144373148Y-58936973D01*
X143990264Y-58681137D01*
X143538621Y-58591300D01*
X143492379Y-58591300D01*
X143040736Y-58681137D01*
X142657852Y-58936973D01*
X142402016Y-59319857D01*
X142312179Y-59771500D01*
X137468821Y-59771500D01*
X137378984Y-59319857D01*
X137123148Y-58936973D01*
X136740264Y-58681137D01*
X136288621Y-58591300D01*
X136242379Y-58591300D01*
X135790736Y-58681137D01*
X135407852Y-58936973D01*
X135152016Y-59319857D01*
X135062179Y-59771500D01*
X118778815Y-59771500D01*
X118904951Y-59467732D01*
X118905447Y-58898764D01*
X118688171Y-58372915D01*
X118286201Y-57970243D01*
X117898367Y-57809200D01*
X148336000Y-57809200D01*
X148336000Y-83244697D01*
X148336000Y-83244697D01*
G37*
X148336000Y-83244697D02*
X148203851Y-83299300D01*
X144030481Y-83299300D01*
X143045306Y-82314124D01*
X142986157Y-82170972D01*
X142823086Y-82007617D01*
X142609915Y-81919101D01*
X142379097Y-81918899D01*
X142165772Y-82007043D01*
X142002417Y-82170114D01*
X141913901Y-82383285D01*
X141913699Y-82614103D01*
X142001843Y-82827428D01*
X142164914Y-82990783D01*
X142309052Y-83050634D01*
X143154719Y-83896300D01*
X141435065Y-83896300D01*
X141375286Y-83836417D01*
X141162115Y-83747901D01*
X140931297Y-83747699D01*
X140717972Y-83835843D01*
X140554617Y-83998914D01*
X140466101Y-84212085D01*
X140465899Y-84442903D01*
X140554043Y-84656228D01*
X140717114Y-84819583D01*
X140930285Y-84908099D01*
X141161103Y-84908301D01*
X141374428Y-84820157D01*
X141434990Y-84759700D01*
X147852764Y-84759700D01*
X148336000Y-85242936D01*
X148336000Y-97277922D01*
X142469798Y-97277922D01*
X142341600Y-97252422D01*
X142146210Y-97252422D01*
X142111886Y-97218038D01*
X141898715Y-97129522D01*
X141667897Y-97129320D01*
X141454572Y-97217464D01*
X141299973Y-97371795D01*
X140585058Y-96656880D01*
X140585101Y-96608297D01*
X140496957Y-96394972D01*
X140333886Y-96231617D01*
X140120715Y-96143101D01*
X139889897Y-96142899D01*
X139877800Y-96147897D01*
X139877800Y-91541600D01*
X139842998Y-91366637D01*
X139743890Y-91218311D01*
X139391258Y-90865680D01*
X139391301Y-90817097D01*
X139376959Y-90782387D01*
X140078461Y-91483889D01*
X140226787Y-91582998D01*
X140401750Y-91617800D01*
X142587791Y-91617800D01*
X142622114Y-91652183D01*
X142835285Y-91740699D01*
X143066103Y-91740901D01*
X143279428Y-91652757D01*
X143442783Y-91489686D01*
X143531299Y-91276515D01*
X143531501Y-91045697D01*
X143443357Y-90832372D01*
X143280286Y-90669017D01*
X143067115Y-90580501D01*
X142836297Y-90580299D01*
X142622972Y-90668443D01*
X142587954Y-90703400D01*
X140591128Y-90703400D01*
X130225800Y-80338072D01*
X130225800Y-79636692D01*
X133659271Y-76203221D01*
X133758380Y-76054895D01*
X133793182Y-75879932D01*
X133793182Y-66948191D01*
X133827565Y-66913868D01*
X133916081Y-66700697D01*
X133916283Y-66469879D01*
X133828139Y-66256554D01*
X133665068Y-66093199D01*
X133451897Y-66004683D01*
X133221079Y-66004481D01*
X133007754Y-66092625D01*
X132844399Y-66255696D01*
X132755883Y-66468867D01*
X132755681Y-66699685D01*
X132843825Y-66913010D01*
X132878782Y-66948028D01*
X132878782Y-75690554D01*
X131491872Y-77077464D01*
X131342286Y-76927617D01*
X131129115Y-76839101D01*
X130898297Y-76838899D01*
X130684972Y-76927043D01*
X130521617Y-77090114D01*
X130433101Y-77303285D01*
X130433058Y-77352764D01*
X129910431Y-77875391D01*
X129901167Y-77852972D01*
X129738096Y-77689617D01*
X129524925Y-77601101D01*
X129294107Y-77600899D01*
X129080782Y-77689043D01*
X128930400Y-77839164D01*
X128930400Y-66352609D01*
X128964783Y-66318286D01*
X129053299Y-66105115D01*
X129053501Y-65874297D01*
X128965357Y-65660972D01*
X128802286Y-65497617D01*
X128589115Y-65409101D01*
X128358297Y-65408899D01*
X128144972Y-65497043D01*
X127981617Y-65660114D01*
X127893101Y-65873285D01*
X127892899Y-66104103D01*
X127981043Y-66317428D01*
X128016000Y-66352446D01*
X128016000Y-80633422D01*
X125780800Y-78398222D01*
X125780800Y-77630229D01*
X125815193Y-77595896D01*
X125903709Y-77382725D01*
X125903911Y-77151907D01*
X125815767Y-76938582D01*
X125652696Y-76775227D01*
X125439525Y-76686711D01*
X125208707Y-76686509D01*
X124995382Y-76774653D01*
X124942705Y-76827238D01*
X124941486Y-76826017D01*
X124728315Y-76737501D01*
X124540199Y-76737336D01*
X124540199Y-76309179D01*
X125596098Y-75253281D01*
X125596101Y-75253277D01*
X125596102Y-75253276D01*
X125695210Y-75104949D01*
X125730010Y-74929985D01*
X125730009Y-74828395D01*
X125730010Y-63144410D01*
X125695208Y-62969447D01*
X125596099Y-62821121D01*
X125380695Y-62605717D01*
X136535139Y-62605717D01*
X136676455Y-62947728D01*
X136937896Y-63209626D01*
X137279660Y-63351538D01*
X137649717Y-63351861D01*
X137991728Y-63210545D01*
X138253626Y-62949104D01*
X138395538Y-62607340D01*
X138395539Y-62605717D01*
X141385139Y-62605717D01*
X141526455Y-62947728D01*
X141787896Y-63209626D01*
X142129660Y-63351538D01*
X142499717Y-63351861D01*
X142841728Y-63210545D01*
X143103626Y-62949104D01*
X143245538Y-62607340D01*
X143245861Y-62237283D01*
X143104545Y-61895272D01*
X142843104Y-61633374D01*
X142501340Y-61491462D01*
X142131283Y-61491139D01*
X141789272Y-61632455D01*
X141527374Y-61893896D01*
X141385462Y-62235660D01*
X141385139Y-62605717D01*
X138395539Y-62605717D01*
X138395861Y-62237283D01*
X138254545Y-61895272D01*
X137993104Y-61633374D01*
X137651340Y-61491462D01*
X137281283Y-61491139D01*
X136939272Y-61632455D01*
X136677374Y-61893896D01*
X136535462Y-62235660D01*
X136535139Y-62605717D01*
X125380695Y-62605717D01*
X124735458Y-61960480D01*
X124735501Y-61911897D01*
X124647357Y-61698572D01*
X124484286Y-61535217D01*
X124271115Y-61446701D01*
X124040297Y-61446499D01*
X123826972Y-61534643D01*
X123663617Y-61697714D01*
X123575101Y-61910885D01*
X123574899Y-62141703D01*
X123663043Y-62355028D01*
X123826114Y-62518383D01*
X124039285Y-62606899D01*
X124088764Y-62606942D01*
X124815610Y-63333788D01*
X124815610Y-67222232D01*
X124684658Y-67091280D01*
X124684701Y-67042697D01*
X124596557Y-66829372D01*
X124433486Y-66666017D01*
X124220315Y-66577501D01*
X123989497Y-66577299D01*
X123776172Y-66665443D01*
X123612817Y-66828514D01*
X123524301Y-67041685D01*
X123524099Y-67272503D01*
X123612243Y-67485828D01*
X123775314Y-67649183D01*
X123988485Y-67737699D01*
X124037964Y-67737742D01*
X124409200Y-68108978D01*
X124409200Y-71888333D01*
X124220315Y-71809901D01*
X123989497Y-71809699D01*
X123776172Y-71897843D01*
X123612817Y-72060914D01*
X123524301Y-72274085D01*
X123524099Y-72504903D01*
X123612243Y-72718228D01*
X123647200Y-72753246D01*
X123647200Y-74759522D01*
X122946890Y-75459832D01*
X122847781Y-75608158D01*
X122812979Y-75783121D01*
X122812979Y-79342000D01*
X119500089Y-76029111D01*
X119380000Y-75909022D01*
X119380000Y-72245409D01*
X119414383Y-72211086D01*
X119502899Y-71997915D01*
X119503101Y-71767097D01*
X119414957Y-71553772D01*
X119380000Y-71518754D01*
X119380000Y-67063809D01*
X119414383Y-67029486D01*
X119502899Y-66816315D01*
X119503101Y-66585497D01*
X119414957Y-66372172D01*
X119380000Y-66337154D01*
X119380000Y-62034609D01*
X119414383Y-62000286D01*
X119502899Y-61787115D01*
X119503101Y-61556297D01*
X119414957Y-61342972D01*
X119251886Y-61179617D01*
X119038715Y-61091101D01*
X118807897Y-61090899D01*
X118594572Y-61179043D01*
X118431217Y-61342114D01*
X118342701Y-61555285D01*
X118342499Y-61786103D01*
X118430643Y-61999428D01*
X118465600Y-62034446D01*
X118465600Y-66336991D01*
X118431217Y-66371314D01*
X118342701Y-66584485D01*
X118342499Y-66815303D01*
X118430643Y-67028628D01*
X118465600Y-67063646D01*
X118465600Y-71518591D01*
X118431217Y-71552914D01*
X118342701Y-71766085D01*
X118342499Y-71996903D01*
X118430643Y-72210228D01*
X118465600Y-72245246D01*
X118465600Y-76098400D01*
X118500402Y-76273363D01*
X118599511Y-76421689D01*
X123371742Y-81193920D01*
X123371699Y-81242503D01*
X123459843Y-81455828D01*
X123622914Y-81619183D01*
X123836085Y-81707699D01*
X123885564Y-81707742D01*
X124960415Y-82782593D01*
X124853097Y-82782499D01*
X124708851Y-82842100D01*
X121869205Y-82842100D01*
X121869200Y-82842099D01*
X121669937Y-82881736D01*
X121501009Y-82994609D01*
X121501007Y-82994612D01*
X119389999Y-85105619D01*
X119277126Y-85274547D01*
X119237489Y-85473810D01*
X119237490Y-85473815D01*
X119237490Y-90459942D01*
X119060909Y-90386800D01*
X118370350Y-90386800D01*
X118211600Y-90545550D01*
X118211600Y-91744800D01*
X118231600Y-91744800D01*
X118231600Y-91998800D01*
X118211600Y-91998800D01*
X118211600Y-92018800D01*
X117957600Y-92018800D01*
X117957600Y-91998800D01*
X116758350Y-91998800D01*
X116599600Y-92157550D01*
X116599600Y-92848110D01*
X116696273Y-93081499D01*
X116874902Y-93260127D01*
X117108291Y-93356800D01*
X117556912Y-93356800D01*
X117226952Y-93577273D01*
X116971116Y-93960157D01*
X116881279Y-94411800D01*
X116971116Y-94863443D01*
X117226952Y-95246327D01*
X117609836Y-95502163D01*
X118061479Y-95592000D01*
X118107721Y-95592000D01*
X118559364Y-95502163D01*
X118942248Y-95246327D01*
X119198084Y-94863443D01*
X119237490Y-94665335D01*
X119237490Y-95062529D01*
X118458620Y-95841398D01*
X118107721Y-95771600D01*
X118061479Y-95771600D01*
X117609836Y-95861437D01*
X117226952Y-96117273D01*
X116971116Y-96500157D01*
X116881279Y-96951800D01*
X116971116Y-97403443D01*
X117226952Y-97786327D01*
X117609836Y-98042163D01*
X118061479Y-98132000D01*
X118107721Y-98132000D01*
X118559364Y-98042163D01*
X118942248Y-97786327D01*
X119198084Y-97403443D01*
X119287921Y-96951800D01*
X119210451Y-96562331D01*
X120126378Y-95646403D01*
X120126381Y-95646401D01*
X120239254Y-95477473D01*
X120252806Y-95409341D01*
X121275976Y-96432510D01*
X120686690Y-96432510D01*
X120511727Y-96467312D01*
X120363401Y-96566421D01*
X118533525Y-98396297D01*
X118107721Y-98311600D01*
X118061479Y-98311600D01*
X117609836Y-98401437D01*
X117226952Y-98657273D01*
X116971116Y-99040157D01*
X116881279Y-99491800D01*
X116971116Y-99943443D01*
X117226952Y-100326327D01*
X117609836Y-100582163D01*
X118061479Y-100672000D01*
X118107721Y-100672000D01*
X118559364Y-100582163D01*
X118942248Y-100326327D01*
X119198084Y-99943443D01*
X119287921Y-99491800D01*
X119198084Y-99040157D01*
X119191970Y-99031008D01*
X120876068Y-97346910D01*
X122122912Y-97346910D01*
X118533525Y-100936297D01*
X118107721Y-100851600D01*
X118061479Y-100851600D01*
X117609836Y-100941437D01*
X117226952Y-101197273D01*
X116971116Y-101580157D01*
X116881279Y-102031800D01*
X116971116Y-102483443D01*
X117226952Y-102866327D01*
X117609836Y-103122163D01*
X118061479Y-103212000D01*
X118107721Y-103212000D01*
X118559364Y-103122163D01*
X118942248Y-102866327D01*
X119198084Y-102483443D01*
X119287921Y-102031800D01*
X119198084Y-101580157D01*
X119191970Y-101571008D01*
X122224790Y-98538188D01*
X122224790Y-99255367D01*
X122198286Y-99228817D01*
X121985115Y-99140301D01*
X121754297Y-99140099D01*
X121540972Y-99228243D01*
X121377617Y-99391314D01*
X121289101Y-99604485D01*
X121288899Y-99835303D01*
X121377043Y-100048628D01*
X121414408Y-100086058D01*
X121446802Y-100248916D01*
X121545911Y-100397242D01*
X121564400Y-100415731D01*
X121564400Y-100628651D01*
X121527915Y-100613501D01*
X121297097Y-100613299D01*
X121083772Y-100701443D01*
X120920417Y-100864514D01*
X120831901Y-101077685D01*
X120831813Y-101178009D01*
X118533525Y-103476297D01*
X118107721Y-103391600D01*
X118061479Y-103391600D01*
X117609836Y-103481437D01*
X117226952Y-103737273D01*
X116971116Y-104120157D01*
X116881279Y-104571800D01*
X116971116Y-105023443D01*
X117226952Y-105406327D01*
X117609836Y-105662163D01*
X118061479Y-105752000D01*
X118107721Y-105752000D01*
X118559364Y-105662163D01*
X118942248Y-105406327D01*
X119198084Y-105023443D01*
X119287921Y-104571800D01*
X119198084Y-104120157D01*
X119191970Y-104111008D01*
X121530608Y-101772370D01*
X121564400Y-101758408D01*
X121564400Y-102985422D01*
X118533525Y-106016297D01*
X118107721Y-105931600D01*
X118061479Y-105931600D01*
X117609836Y-106021437D01*
X117226952Y-106277273D01*
X116971116Y-106660157D01*
X116881279Y-107111800D01*
X116971116Y-107563443D01*
X117226952Y-107946327D01*
X117609836Y-108202163D01*
X118061479Y-108292000D01*
X118107721Y-108292000D01*
X118559364Y-108202163D01*
X118942248Y-107946327D01*
X119198084Y-107563443D01*
X119287921Y-107111800D01*
X119198084Y-106660157D01*
X119191970Y-106651008D01*
X122224790Y-103618188D01*
X122224790Y-107405032D01*
X118533525Y-111096297D01*
X118107721Y-111011600D01*
X118061479Y-111011600D01*
X117609836Y-111101437D01*
X117226952Y-111357273D01*
X116971116Y-111740157D01*
X116881279Y-112191800D01*
X116971116Y-112643443D01*
X117226952Y-113026327D01*
X117609836Y-113282163D01*
X118061479Y-113372000D01*
X118107721Y-113372000D01*
X118559364Y-113282163D01*
X118942248Y-113026327D01*
X119198084Y-112643443D01*
X119287921Y-112191800D01*
X119198084Y-111740157D01*
X119191970Y-111731008D01*
X120054387Y-110868591D01*
X120107043Y-110996028D01*
X120270114Y-111159383D01*
X120483285Y-111247899D01*
X120714103Y-111248101D01*
X120927428Y-111159957D01*
X121090783Y-110996886D01*
X121179299Y-110783715D01*
X121179342Y-110734236D01*
X123411689Y-108501890D01*
X123510798Y-108353563D01*
X123545600Y-108178600D01*
X123545600Y-105565996D01*
X128474106Y-105565996D01*
X128562250Y-105779321D01*
X128725321Y-105942676D01*
X128938492Y-106031192D01*
X129169310Y-106031394D01*
X129382635Y-105943250D01*
X129545990Y-105780179D01*
X129634506Y-105567008D01*
X129634708Y-105336190D01*
X129546564Y-105122865D01*
X129486107Y-105062303D01*
X129486107Y-103597909D01*
X130395789Y-102688227D01*
X130480403Y-102688301D01*
X130693728Y-102600157D01*
X130857083Y-102437086D01*
X130945599Y-102223915D01*
X130945801Y-101993097D01*
X130857657Y-101779772D01*
X130694586Y-101616417D01*
X130481415Y-101527901D01*
X130250597Y-101527699D01*
X130037272Y-101615843D01*
X129873917Y-101778914D01*
X129785401Y-101992085D01*
X129785326Y-102077658D01*
X128749149Y-103113835D01*
X128655568Y-103253888D01*
X128634146Y-103361583D01*
X128622707Y-103419093D01*
X128622707Y-105062228D01*
X128562824Y-105122007D01*
X128474308Y-105335178D01*
X128474106Y-105565996D01*
X123545600Y-105565996D01*
X123545600Y-100214578D01*
X125194038Y-98566140D01*
X136083698Y-98566140D01*
X136900847Y-99383289D01*
X137049173Y-99482398D01*
X137224136Y-99517200D01*
X137857864Y-99517200D01*
X138032827Y-99482398D01*
X138181153Y-99383289D01*
X139580969Y-97983473D01*
X139675714Y-98078383D01*
X139888885Y-98166899D01*
X139938364Y-98166942D01*
X141230910Y-99459489D01*
X141265196Y-99482398D01*
X141379237Y-99558598D01*
X141554200Y-99593400D01*
X148336000Y-99593400D01*
X148336000Y-103082871D01*
X148261415Y-103051901D01*
X148211936Y-103051858D01*
X147456790Y-102296712D01*
X147308464Y-102197603D01*
X147133501Y-102162801D01*
X134488999Y-102162801D01*
X134314036Y-102197603D01*
X134176137Y-102289745D01*
X134124097Y-102289699D01*
X133910772Y-102377843D01*
X133747417Y-102540914D01*
X133658901Y-102754085D01*
X133658699Y-102984903D01*
X133742508Y-103187736D01*
X133658901Y-103389085D01*
X133658699Y-103619903D01*
X133746843Y-103833228D01*
X133909914Y-103996583D01*
X134123085Y-104085099D01*
X134353903Y-104085301D01*
X134567228Y-103997157D01*
X134730583Y-103834086D01*
X134819099Y-103620915D01*
X134819301Y-103390097D01*
X134735492Y-103187264D01*
X134781194Y-103077201D01*
X138942671Y-103077201D01*
X138865901Y-103262085D01*
X138865699Y-103492903D01*
X138953843Y-103706228D01*
X138988800Y-103741246D01*
X138988800Y-108602591D01*
X138954417Y-108636914D01*
X138865901Y-108850085D01*
X138865699Y-109080903D01*
X138953843Y-109294228D01*
X139116914Y-109457583D01*
X139330085Y-109546099D01*
X139560903Y-109546301D01*
X139774228Y-109458157D01*
X139937583Y-109295086D01*
X140026099Y-109081915D01*
X140026301Y-108851097D01*
X139938157Y-108637772D01*
X139903200Y-108602754D01*
X139903200Y-103741409D01*
X139937583Y-103707086D01*
X140026099Y-103493915D01*
X140026301Y-103263097D01*
X139949490Y-103077201D01*
X146944123Y-103077201D01*
X147565242Y-103698320D01*
X147565199Y-103746903D01*
X147653343Y-103960228D01*
X147674222Y-103981144D01*
X147653917Y-104001414D01*
X147565401Y-104214585D01*
X147565199Y-104445403D01*
X147653343Y-104658728D01*
X147816414Y-104822083D01*
X148029585Y-104910599D01*
X148260403Y-104910801D01*
X148336000Y-104879565D01*
X148336000Y-137033000D01*
X118354379Y-137033000D01*
X118686757Y-136701201D01*
X118904951Y-136175732D01*
X118905447Y-135606764D01*
X118688171Y-135080915D01*
X118286201Y-134678243D01*
X117760732Y-134460049D01*
X117191764Y-134459553D01*
X116665915Y-134676829D01*
X116263243Y-135078799D01*
X116153000Y-135344293D01*
X116153000Y-109651800D01*
X116881279Y-109651800D01*
X116971116Y-110103443D01*
X117226952Y-110486327D01*
X117609836Y-110742163D01*
X118061479Y-110832000D01*
X118107721Y-110832000D01*
X118559364Y-110742163D01*
X118942248Y-110486327D01*
X119198084Y-110103443D01*
X119287921Y-109651800D01*
X119198084Y-109200157D01*
X118942248Y-108817273D01*
X118559364Y-108561437D01*
X118107721Y-108471600D01*
X118061479Y-108471600D01*
X117609836Y-108561437D01*
X117226952Y-108817273D01*
X116971116Y-109200157D01*
X116881279Y-109651800D01*
X116153000Y-109651800D01*
X116153000Y-90895490D01*
X116599600Y-90895490D01*
X116599600Y-91586050D01*
X116758350Y-91744800D01*
X117957600Y-91744800D01*
X117957600Y-90545550D01*
X117798850Y-90386800D01*
X117108291Y-90386800D01*
X116874902Y-90483473D01*
X116696273Y-90662101D01*
X116599600Y-90895490D01*
X116153000Y-90895490D01*
X116153000Y-59727698D01*
X116261829Y-59991085D01*
X116663799Y-60393757D01*
X117189268Y-60611951D01*
X117758236Y-60612447D01*
X118284085Y-60395171D01*
X118686757Y-59993201D01*
X118778815Y-59771500D01*
X135062179Y-59771500D01*
X135152016Y-60223143D01*
X135407852Y-60606027D01*
X135790736Y-60861863D01*
X136242379Y-60951700D01*
X136288621Y-60951700D01*
X136740264Y-60861863D01*
X137123148Y-60606027D01*
X137378984Y-60223143D01*
X137468821Y-59771500D01*
X142312179Y-59771500D01*
X142402016Y-60223143D01*
X142657852Y-60606027D01*
X143040736Y-60861863D01*
X143492379Y-60951700D01*
X143538621Y-60951700D01*
X143990264Y-60861863D01*
X144373148Y-60606027D01*
X144628984Y-60223143D01*
X144718821Y-59771500D01*
X144628984Y-59319857D01*
X144373148Y-58936973D01*
X143990264Y-58681137D01*
X143538621Y-58591300D01*
X143492379Y-58591300D01*
X143040736Y-58681137D01*
X142657852Y-58936973D01*
X142402016Y-59319857D01*
X142312179Y-59771500D01*
X137468821Y-59771500D01*
X137378984Y-59319857D01*
X137123148Y-58936973D01*
X136740264Y-58681137D01*
X136288621Y-58591300D01*
X136242379Y-58591300D01*
X135790736Y-58681137D01*
X135407852Y-58936973D01*
X135152016Y-59319857D01*
X135062179Y-59771500D01*
X118778815Y-59771500D01*
X118904951Y-59467732D01*
X118905447Y-58898764D01*
X118688171Y-58372915D01*
X118286201Y-57970243D01*
X117898367Y-57809200D01*
X148336000Y-57809200D01*
X148336000Y-83244697D01*
G36*
X186515915Y-57968829D02*
X186113243Y-58370799D01*
X185895049Y-58896268D01*
X185894553Y-59465236D01*
X186111829Y-59991085D01*
X186513799Y-60393757D01*
X187039268Y-60611951D01*
X187608236Y-60612447D01*
X188134085Y-60395171D01*
X188536757Y-59993201D01*
X188754951Y-59467732D01*
X188755447Y-58898764D01*
X188538171Y-58372915D01*
X188136201Y-57970243D01*
X187748367Y-57809200D01*
X192913000Y-57809200D01*
X192913000Y-66929000D01*
X185837071Y-66929000D01*
X185724864Y-66761070D01*
X185355079Y-66513988D01*
X185724864Y-66266906D01*
X185983647Y-65879609D01*
X186056287Y-65514420D01*
X189226493Y-65514420D01*
X189407855Y-65953350D01*
X189743384Y-66289464D01*
X190181997Y-66471592D01*
X190656920Y-66472007D01*
X191095850Y-66290645D01*
X191431964Y-65955116D01*
X191614092Y-65516503D01*
X191614507Y-65041580D01*
X191433145Y-64602650D01*
X191097616Y-64266536D01*
X190887445Y-64179265D01*
X191212759Y-64044516D01*
X191294700Y-63791805D01*
X190420500Y-62917605D01*
X189546300Y-63791805D01*
X189628241Y-64044516D01*
X189974715Y-64170501D01*
X189745150Y-64265355D01*
X189409036Y-64600884D01*
X189226908Y-65039497D01*
X189226493Y-65514420D01*
X186056287Y-65514420D01*
X186074520Y-65422762D01*
X186074520Y-65065214D01*
X185983647Y-64608367D01*
X185724864Y-64221070D01*
X185604449Y-64140611D01*
X185782756Y-64054720D01*
X186172674Y-63618308D01*
X186365904Y-63065901D01*
X186221644Y-62830988D01*
X185007720Y-62830988D01*
X185007720Y-62850988D01*
X184753720Y-62850988D01*
X184753720Y-62830988D01*
X183539796Y-62830988D01*
X183395536Y-63065901D01*
X183588766Y-63618308D01*
X183978684Y-64054720D01*
X184156991Y-64140611D01*
X184036576Y-64221070D01*
X183777793Y-64608367D01*
X183686920Y-65065214D01*
X183686920Y-65422762D01*
X183777793Y-65879609D01*
X184036576Y-66266906D01*
X184406361Y-66513988D01*
X184036576Y-66761070D01*
X183924369Y-66929000D01*
X177927000Y-66929000D01*
X177927000Y-62342075D01*
X183395536Y-62342075D01*
X183539796Y-62576988D01*
X184753720Y-62576988D01*
X184753720Y-61217771D01*
X185007720Y-61217771D01*
X185007720Y-62576988D01*
X186221644Y-62576988D01*
X186265219Y-62506030D01*
X188910252Y-62506030D01*
X188936442Y-63101635D01*
X189113984Y-63530259D01*
X189366695Y-63612200D01*
X190240895Y-62738000D01*
X190600105Y-62738000D01*
X191474305Y-63612200D01*
X191727016Y-63530259D01*
X191930748Y-62969970D01*
X191904558Y-62374365D01*
X191727016Y-61945741D01*
X191474305Y-61863800D01*
X190600105Y-62738000D01*
X190240895Y-62738000D01*
X189366695Y-61863800D01*
X189113984Y-61945741D01*
X188910252Y-62506030D01*
X186265219Y-62506030D01*
X186365904Y-62342075D01*
X186172674Y-61789668D01*
X186078438Y-61684195D01*
X189546300Y-61684195D01*
X190420500Y-62558395D01*
X191294700Y-61684195D01*
X191212759Y-61431484D01*
X190652470Y-61227752D01*
X190056865Y-61253942D01*
X189628241Y-61431484D01*
X189546300Y-61684195D01*
X186078438Y-61684195D01*
X185782756Y-61353256D01*
X185255511Y-61099279D01*
X185239746Y-61096630D01*
X185007720Y-61217771D01*
X184753720Y-61217771D01*
X184521694Y-61096630D01*
X184505929Y-61099279D01*
X183978684Y-61353256D01*
X183588766Y-61789668D01*
X183395536Y-62342075D01*
X177927000Y-62342075D01*
X177927000Y-57809200D01*
X186902247Y-57809200D01*
X186515915Y-57968829D01*
X186515915Y-57968829D01*
G37*
X186515915Y-57968829D02*
X186113243Y-58370799D01*
X185895049Y-58896268D01*
X185894553Y-59465236D01*
X186111829Y-59991085D01*
X186513799Y-60393757D01*
X187039268Y-60611951D01*
X187608236Y-60612447D01*
X188134085Y-60395171D01*
X188536757Y-59993201D01*
X188754951Y-59467732D01*
X188755447Y-58898764D01*
X188538171Y-58372915D01*
X188136201Y-57970243D01*
X187748367Y-57809200D01*
X192913000Y-57809200D01*
X192913000Y-66929000D01*
X185837071Y-66929000D01*
X185724864Y-66761070D01*
X185355079Y-66513988D01*
X185724864Y-66266906D01*
X185983647Y-65879609D01*
X186056287Y-65514420D01*
X189226493Y-65514420D01*
X189407855Y-65953350D01*
X189743384Y-66289464D01*
X190181997Y-66471592D01*
X190656920Y-66472007D01*
X191095850Y-66290645D01*
X191431964Y-65955116D01*
X191614092Y-65516503D01*
X191614507Y-65041580D01*
X191433145Y-64602650D01*
X191097616Y-64266536D01*
X190887445Y-64179265D01*
X191212759Y-64044516D01*
X191294700Y-63791805D01*
X190420500Y-62917605D01*
X189546300Y-63791805D01*
X189628241Y-64044516D01*
X189974715Y-64170501D01*
X189745150Y-64265355D01*
X189409036Y-64600884D01*
X189226908Y-65039497D01*
X189226493Y-65514420D01*
X186056287Y-65514420D01*
X186074520Y-65422762D01*
X186074520Y-65065214D01*
X185983647Y-64608367D01*
X185724864Y-64221070D01*
X185604449Y-64140611D01*
X185782756Y-64054720D01*
X186172674Y-63618308D01*
X186365904Y-63065901D01*
X186221644Y-62830988D01*
X185007720Y-62830988D01*
X185007720Y-62850988D01*
X184753720Y-62850988D01*
X184753720Y-62830988D01*
X183539796Y-62830988D01*
X183395536Y-63065901D01*
X183588766Y-63618308D01*
X183978684Y-64054720D01*
X184156991Y-64140611D01*
X184036576Y-64221070D01*
X183777793Y-64608367D01*
X183686920Y-65065214D01*
X183686920Y-65422762D01*
X183777793Y-65879609D01*
X184036576Y-66266906D01*
X184406361Y-66513988D01*
X184036576Y-66761070D01*
X183924369Y-66929000D01*
X177927000Y-66929000D01*
X177927000Y-62342075D01*
X183395536Y-62342075D01*
X183539796Y-62576988D01*
X184753720Y-62576988D01*
X184753720Y-61217771D01*
X185007720Y-61217771D01*
X185007720Y-62576988D01*
X186221644Y-62576988D01*
X186265219Y-62506030D01*
X188910252Y-62506030D01*
X188936442Y-63101635D01*
X189113984Y-63530259D01*
X189366695Y-63612200D01*
X190240895Y-62738000D01*
X190600105Y-62738000D01*
X191474305Y-63612200D01*
X191727016Y-63530259D01*
X191930748Y-62969970D01*
X191904558Y-62374365D01*
X191727016Y-61945741D01*
X191474305Y-61863800D01*
X190600105Y-62738000D01*
X190240895Y-62738000D01*
X189366695Y-61863800D01*
X189113984Y-61945741D01*
X188910252Y-62506030D01*
X186265219Y-62506030D01*
X186365904Y-62342075D01*
X186172674Y-61789668D01*
X186078438Y-61684195D01*
X189546300Y-61684195D01*
X190420500Y-62558395D01*
X191294700Y-61684195D01*
X191212759Y-61431484D01*
X190652470Y-61227752D01*
X190056865Y-61253942D01*
X189628241Y-61431484D01*
X189546300Y-61684195D01*
X186078438Y-61684195D01*
X185782756Y-61353256D01*
X185255511Y-61099279D01*
X185239746Y-61096630D01*
X185007720Y-61217771D01*
X184753720Y-61217771D01*
X184521694Y-61096630D01*
X184505929Y-61099279D01*
X183978684Y-61353256D01*
X183588766Y-61789668D01*
X183395536Y-62342075D01*
X177927000Y-62342075D01*
X177927000Y-57809200D01*
X186902247Y-57809200D01*
X186515915Y-57968829D01*
G36*
X192918785Y-82916488D02*
X185818020Y-82916488D01*
X185724864Y-82777070D01*
X185355079Y-82529988D01*
X185724864Y-82282906D01*
X185983647Y-81895609D01*
X186059072Y-81516420D01*
X189289993Y-81516420D01*
X189471355Y-81955350D01*
X189806884Y-82291464D01*
X190245497Y-82473592D01*
X190720420Y-82474007D01*
X191159350Y-82292645D01*
X191495464Y-81957116D01*
X191677592Y-81518503D01*
X191678007Y-81043580D01*
X191496645Y-80604650D01*
X191161116Y-80268536D01*
X190950945Y-80181265D01*
X191276259Y-80046516D01*
X191358200Y-79793805D01*
X190484000Y-78919605D01*
X189609800Y-79793805D01*
X189691741Y-80046516D01*
X190038215Y-80172501D01*
X189808650Y-80267355D01*
X189472536Y-80602884D01*
X189290408Y-81041497D01*
X189289993Y-81516420D01*
X186059072Y-81516420D01*
X186074520Y-81438762D01*
X186074520Y-81081214D01*
X185983647Y-80624367D01*
X185724864Y-80237070D01*
X185604449Y-80156611D01*
X185782756Y-80070720D01*
X186172674Y-79634308D01*
X186365904Y-79081901D01*
X186221644Y-78846988D01*
X185007720Y-78846988D01*
X185007720Y-78866988D01*
X184753720Y-78866988D01*
X184753720Y-78846988D01*
X183539796Y-78846988D01*
X183395536Y-79081901D01*
X183588766Y-79634308D01*
X183978684Y-80070720D01*
X184156991Y-80156611D01*
X184036576Y-80237070D01*
X183777793Y-80624367D01*
X183686920Y-81081214D01*
X183686920Y-81438762D01*
X183777793Y-81895609D01*
X184036576Y-82282906D01*
X184406361Y-82529988D01*
X184036576Y-82777070D01*
X183943420Y-82916488D01*
X177932785Y-82916488D01*
X177928357Y-78358075D01*
X183395536Y-78358075D01*
X183539796Y-78592988D01*
X184753720Y-78592988D01*
X184753720Y-77233771D01*
X185007720Y-77233771D01*
X185007720Y-78592988D01*
X186221644Y-78592988D01*
X186273816Y-78508030D01*
X188973752Y-78508030D01*
X188999942Y-79103635D01*
X189177484Y-79532259D01*
X189430195Y-79614200D01*
X190304395Y-78740000D01*
X190663605Y-78740000D01*
X191537805Y-79614200D01*
X191790516Y-79532259D01*
X191994248Y-78971970D01*
X191968058Y-78376365D01*
X191790516Y-77947741D01*
X191537805Y-77865800D01*
X190663605Y-78740000D01*
X190304395Y-78740000D01*
X189430195Y-77865800D01*
X189177484Y-77947741D01*
X188973752Y-78508030D01*
X186273816Y-78508030D01*
X186365904Y-78358075D01*
X186172674Y-77805668D01*
X186065930Y-77686195D01*
X189609800Y-77686195D01*
X190484000Y-78560395D01*
X191358200Y-77686195D01*
X191276259Y-77433484D01*
X190715970Y-77229752D01*
X190120365Y-77255942D01*
X189691741Y-77433484D01*
X189609800Y-77686195D01*
X186065930Y-77686195D01*
X185782756Y-77369256D01*
X185255511Y-77115279D01*
X185239746Y-77112630D01*
X185007720Y-77233771D01*
X184753720Y-77233771D01*
X184521694Y-77112630D01*
X184505929Y-77115279D01*
X183978684Y-77369256D01*
X183588766Y-77805668D01*
X183395536Y-78358075D01*
X177928357Y-78358075D01*
X177923531Y-73391488D01*
X192909531Y-73391488D01*
X192918785Y-82916488D01*
X192918785Y-82916488D01*
G37*
X192918785Y-82916488D02*
X185818020Y-82916488D01*
X185724864Y-82777070D01*
X185355079Y-82529988D01*
X185724864Y-82282906D01*
X185983647Y-81895609D01*
X186059072Y-81516420D01*
X189289993Y-81516420D01*
X189471355Y-81955350D01*
X189806884Y-82291464D01*
X190245497Y-82473592D01*
X190720420Y-82474007D01*
X191159350Y-82292645D01*
X191495464Y-81957116D01*
X191677592Y-81518503D01*
X191678007Y-81043580D01*
X191496645Y-80604650D01*
X191161116Y-80268536D01*
X190950945Y-80181265D01*
X191276259Y-80046516D01*
X191358200Y-79793805D01*
X190484000Y-78919605D01*
X189609800Y-79793805D01*
X189691741Y-80046516D01*
X190038215Y-80172501D01*
X189808650Y-80267355D01*
X189472536Y-80602884D01*
X189290408Y-81041497D01*
X189289993Y-81516420D01*
X186059072Y-81516420D01*
X186074520Y-81438762D01*
X186074520Y-81081214D01*
X185983647Y-80624367D01*
X185724864Y-80237070D01*
X185604449Y-80156611D01*
X185782756Y-80070720D01*
X186172674Y-79634308D01*
X186365904Y-79081901D01*
X186221644Y-78846988D01*
X185007720Y-78846988D01*
X185007720Y-78866988D01*
X184753720Y-78866988D01*
X184753720Y-78846988D01*
X183539796Y-78846988D01*
X183395536Y-79081901D01*
X183588766Y-79634308D01*
X183978684Y-80070720D01*
X184156991Y-80156611D01*
X184036576Y-80237070D01*
X183777793Y-80624367D01*
X183686920Y-81081214D01*
X183686920Y-81438762D01*
X183777793Y-81895609D01*
X184036576Y-82282906D01*
X184406361Y-82529988D01*
X184036576Y-82777070D01*
X183943420Y-82916488D01*
X177932785Y-82916488D01*
X177928357Y-78358075D01*
X183395536Y-78358075D01*
X183539796Y-78592988D01*
X184753720Y-78592988D01*
X184753720Y-77233771D01*
X185007720Y-77233771D01*
X185007720Y-78592988D01*
X186221644Y-78592988D01*
X186273816Y-78508030D01*
X188973752Y-78508030D01*
X188999942Y-79103635D01*
X189177484Y-79532259D01*
X189430195Y-79614200D01*
X190304395Y-78740000D01*
X190663605Y-78740000D01*
X191537805Y-79614200D01*
X191790516Y-79532259D01*
X191994248Y-78971970D01*
X191968058Y-78376365D01*
X191790516Y-77947741D01*
X191537805Y-77865800D01*
X190663605Y-78740000D01*
X190304395Y-78740000D01*
X189430195Y-77865800D01*
X189177484Y-77947741D01*
X188973752Y-78508030D01*
X186273816Y-78508030D01*
X186365904Y-78358075D01*
X186172674Y-77805668D01*
X186065930Y-77686195D01*
X189609800Y-77686195D01*
X190484000Y-78560395D01*
X191358200Y-77686195D01*
X191276259Y-77433484D01*
X190715970Y-77229752D01*
X190120365Y-77255942D01*
X189691741Y-77433484D01*
X189609800Y-77686195D01*
X186065930Y-77686195D01*
X185782756Y-77369256D01*
X185255511Y-77115279D01*
X185239746Y-77112630D01*
X185007720Y-77233771D01*
X184753720Y-77233771D01*
X184521694Y-77112630D01*
X184505929Y-77115279D01*
X183978684Y-77369256D01*
X183588766Y-77805668D01*
X183395536Y-78358075D01*
X177928357Y-78358075D01*
X177923531Y-73391488D01*
X192909531Y-73391488D01*
X192918785Y-82916488D01*
G36*
X192886347Y-98933000D02*
X185809008Y-98933000D01*
X185724864Y-98807070D01*
X185355079Y-98559988D01*
X185724864Y-98312906D01*
X185983647Y-97925609D01*
X186065438Y-97514420D01*
X189289993Y-97514420D01*
X189471355Y-97953350D01*
X189806884Y-98289464D01*
X190245497Y-98471592D01*
X190720420Y-98472007D01*
X191159350Y-98290645D01*
X191495464Y-97955116D01*
X191677592Y-97516503D01*
X191678007Y-97041580D01*
X191496645Y-96602650D01*
X191161116Y-96266536D01*
X190950945Y-96179265D01*
X191276259Y-96044516D01*
X191358200Y-95791805D01*
X190484000Y-94917605D01*
X189609800Y-95791805D01*
X189691741Y-96044516D01*
X190038215Y-96170501D01*
X189808650Y-96265355D01*
X189472536Y-96600884D01*
X189290408Y-97039497D01*
X189289993Y-97514420D01*
X186065438Y-97514420D01*
X186074520Y-97468762D01*
X186074520Y-97111214D01*
X185983647Y-96654367D01*
X185724864Y-96267070D01*
X185604449Y-96186611D01*
X185782756Y-96100720D01*
X186172674Y-95664308D01*
X186365904Y-95111901D01*
X186221644Y-94876988D01*
X185007720Y-94876988D01*
X185007720Y-94896988D01*
X184753720Y-94896988D01*
X184753720Y-94876988D01*
X183539796Y-94876988D01*
X183395536Y-95111901D01*
X183588766Y-95664308D01*
X183978684Y-96100720D01*
X184156991Y-96186611D01*
X184036576Y-96267070D01*
X183777793Y-96654367D01*
X183686920Y-97111214D01*
X183686920Y-97468762D01*
X183777793Y-97925609D01*
X184036576Y-98312906D01*
X184406361Y-98559988D01*
X184036576Y-98807070D01*
X183952432Y-98933000D01*
X177900349Y-98933000D01*
X177912898Y-94388075D01*
X183395536Y-94388075D01*
X183539796Y-94622988D01*
X184753720Y-94622988D01*
X184753720Y-93263771D01*
X185007720Y-93263771D01*
X185007720Y-94622988D01*
X186221644Y-94622988D01*
X186293467Y-94506030D01*
X188973752Y-94506030D01*
X188999942Y-95101635D01*
X189177484Y-95530259D01*
X189430195Y-95612200D01*
X190304395Y-94738000D01*
X190663605Y-94738000D01*
X191537805Y-95612200D01*
X191790516Y-95530259D01*
X191994248Y-94969970D01*
X191968058Y-94374365D01*
X191790516Y-93945741D01*
X191537805Y-93863800D01*
X190663605Y-94738000D01*
X190304395Y-94738000D01*
X189430195Y-93863800D01*
X189177484Y-93945741D01*
X188973752Y-94506030D01*
X186293467Y-94506030D01*
X186365904Y-94388075D01*
X186172674Y-93835668D01*
X186037339Y-93684195D01*
X189609800Y-93684195D01*
X190484000Y-94558395D01*
X191358200Y-93684195D01*
X191276259Y-93431484D01*
X190715970Y-93227752D01*
X190120365Y-93253942D01*
X189691741Y-93431484D01*
X189609800Y-93684195D01*
X186037339Y-93684195D01*
X185782756Y-93399256D01*
X185255511Y-93145279D01*
X185239746Y-93142630D01*
X185007720Y-93263771D01*
X184753720Y-93263771D01*
X184521694Y-93142630D01*
X184505929Y-93145279D01*
X183978684Y-93399256D01*
X183588766Y-93835668D01*
X183395536Y-94388075D01*
X177912898Y-94388075D01*
X177926650Y-89408000D01*
X192912648Y-89408000D01*
X192886347Y-98933000D01*
X192886347Y-98933000D01*
G37*
X192886347Y-98933000D02*
X185809008Y-98933000D01*
X185724864Y-98807070D01*
X185355079Y-98559988D01*
X185724864Y-98312906D01*
X185983647Y-97925609D01*
X186065438Y-97514420D01*
X189289993Y-97514420D01*
X189471355Y-97953350D01*
X189806884Y-98289464D01*
X190245497Y-98471592D01*
X190720420Y-98472007D01*
X191159350Y-98290645D01*
X191495464Y-97955116D01*
X191677592Y-97516503D01*
X191678007Y-97041580D01*
X191496645Y-96602650D01*
X191161116Y-96266536D01*
X190950945Y-96179265D01*
X191276259Y-96044516D01*
X191358200Y-95791805D01*
X190484000Y-94917605D01*
X189609800Y-95791805D01*
X189691741Y-96044516D01*
X190038215Y-96170501D01*
X189808650Y-96265355D01*
X189472536Y-96600884D01*
X189290408Y-97039497D01*
X189289993Y-97514420D01*
X186065438Y-97514420D01*
X186074520Y-97468762D01*
X186074520Y-97111214D01*
X185983647Y-96654367D01*
X185724864Y-96267070D01*
X185604449Y-96186611D01*
X185782756Y-96100720D01*
X186172674Y-95664308D01*
X186365904Y-95111901D01*
X186221644Y-94876988D01*
X185007720Y-94876988D01*
X185007720Y-94896988D01*
X184753720Y-94896988D01*
X184753720Y-94876988D01*
X183539796Y-94876988D01*
X183395536Y-95111901D01*
X183588766Y-95664308D01*
X183978684Y-96100720D01*
X184156991Y-96186611D01*
X184036576Y-96267070D01*
X183777793Y-96654367D01*
X183686920Y-97111214D01*
X183686920Y-97468762D01*
X183777793Y-97925609D01*
X184036576Y-98312906D01*
X184406361Y-98559988D01*
X184036576Y-98807070D01*
X183952432Y-98933000D01*
X177900349Y-98933000D01*
X177912898Y-94388075D01*
X183395536Y-94388075D01*
X183539796Y-94622988D01*
X184753720Y-94622988D01*
X184753720Y-93263771D01*
X185007720Y-93263771D01*
X185007720Y-94622988D01*
X186221644Y-94622988D01*
X186293467Y-94506030D01*
X188973752Y-94506030D01*
X188999942Y-95101635D01*
X189177484Y-95530259D01*
X189430195Y-95612200D01*
X190304395Y-94738000D01*
X190663605Y-94738000D01*
X191537805Y-95612200D01*
X191790516Y-95530259D01*
X191994248Y-94969970D01*
X191968058Y-94374365D01*
X191790516Y-93945741D01*
X191537805Y-93863800D01*
X190663605Y-94738000D01*
X190304395Y-94738000D01*
X189430195Y-93863800D01*
X189177484Y-93945741D01*
X188973752Y-94506030D01*
X186293467Y-94506030D01*
X186365904Y-94388075D01*
X186172674Y-93835668D01*
X186037339Y-93684195D01*
X189609800Y-93684195D01*
X190484000Y-94558395D01*
X191358200Y-93684195D01*
X191276259Y-93431484D01*
X190715970Y-93227752D01*
X190120365Y-93253942D01*
X189691741Y-93431484D01*
X189609800Y-93684195D01*
X186037339Y-93684195D01*
X185782756Y-93399256D01*
X185255511Y-93145279D01*
X185239746Y-93142630D01*
X185007720Y-93263771D01*
X184753720Y-93263771D01*
X184521694Y-93142630D01*
X184505929Y-93145279D01*
X183978684Y-93399256D01*
X183588766Y-93835668D01*
X183395536Y-94388075D01*
X177912898Y-94388075D01*
X177926650Y-89408000D01*
X192912648Y-89408000D01*
X192886347Y-98933000D01*
G36*
X192924963Y-114935000D02*
X185813764Y-114935000D01*
X185719264Y-114793570D01*
X185349479Y-114546488D01*
X185719264Y-114299406D01*
X185978047Y-113912109D01*
X186055959Y-113520420D01*
X189289993Y-113520420D01*
X189471355Y-113959350D01*
X189806884Y-114295464D01*
X190245497Y-114477592D01*
X190720420Y-114478007D01*
X191159350Y-114296645D01*
X191495464Y-113961116D01*
X191677592Y-113522503D01*
X191678007Y-113047580D01*
X191496645Y-112608650D01*
X191161116Y-112272536D01*
X190950945Y-112185265D01*
X191276259Y-112050516D01*
X191358200Y-111797805D01*
X190484000Y-110923605D01*
X189609800Y-111797805D01*
X189691741Y-112050516D01*
X190038215Y-112176501D01*
X189808650Y-112271355D01*
X189472536Y-112606884D01*
X189290408Y-113045497D01*
X189289993Y-113520420D01*
X186055959Y-113520420D01*
X186068920Y-113455262D01*
X186068920Y-113097714D01*
X185978047Y-112640867D01*
X185719264Y-112253570D01*
X185598849Y-112173111D01*
X185777156Y-112087220D01*
X186167074Y-111650808D01*
X186360304Y-111098401D01*
X186216044Y-110863488D01*
X185002120Y-110863488D01*
X185002120Y-110883488D01*
X184748120Y-110883488D01*
X184748120Y-110863488D01*
X183534196Y-110863488D01*
X183389936Y-111098401D01*
X183583166Y-111650808D01*
X183973084Y-112087220D01*
X184151391Y-112173111D01*
X184030976Y-112253570D01*
X183772193Y-112640867D01*
X183681320Y-113097714D01*
X183681320Y-113455262D01*
X183772193Y-113912109D01*
X184030976Y-114299406D01*
X184400761Y-114546488D01*
X184030976Y-114793570D01*
X183936476Y-114935000D01*
X177938963Y-114935000D01*
X177938963Y-110374575D01*
X183389936Y-110374575D01*
X183534196Y-110609488D01*
X184748120Y-110609488D01*
X184748120Y-109250271D01*
X185002120Y-109250271D01*
X185002120Y-110609488D01*
X186216044Y-110609488D01*
X186275892Y-110512030D01*
X188973752Y-110512030D01*
X188999942Y-111107635D01*
X189177484Y-111536259D01*
X189430195Y-111618200D01*
X190304395Y-110744000D01*
X190663605Y-110744000D01*
X191537805Y-111618200D01*
X191790516Y-111536259D01*
X191994248Y-110975970D01*
X191968058Y-110380365D01*
X191790516Y-109951741D01*
X191537805Y-109869800D01*
X190663605Y-110744000D01*
X190304395Y-110744000D01*
X189430195Y-109869800D01*
X189177484Y-109951741D01*
X188973752Y-110512030D01*
X186275892Y-110512030D01*
X186360304Y-110374575D01*
X186167074Y-109822168D01*
X186049161Y-109690195D01*
X189609800Y-109690195D01*
X190484000Y-110564395D01*
X191358200Y-109690195D01*
X191276259Y-109437484D01*
X190715970Y-109233752D01*
X190120365Y-109259942D01*
X189691741Y-109437484D01*
X189609800Y-109690195D01*
X186049161Y-109690195D01*
X185777156Y-109385756D01*
X185249911Y-109131779D01*
X185234146Y-109129130D01*
X185002120Y-109250271D01*
X184748120Y-109250271D01*
X184516094Y-109129130D01*
X184500329Y-109131779D01*
X183973084Y-109385756D01*
X183583166Y-109822168D01*
X183389936Y-110374575D01*
X177938963Y-110374575D01*
X177938963Y-105537000D01*
X192924963Y-105537000D01*
X192924963Y-114935000D01*
X192924963Y-114935000D01*
G37*
X192924963Y-114935000D02*
X185813764Y-114935000D01*
X185719264Y-114793570D01*
X185349479Y-114546488D01*
X185719264Y-114299406D01*
X185978047Y-113912109D01*
X186055959Y-113520420D01*
X189289993Y-113520420D01*
X189471355Y-113959350D01*
X189806884Y-114295464D01*
X190245497Y-114477592D01*
X190720420Y-114478007D01*
X191159350Y-114296645D01*
X191495464Y-113961116D01*
X191677592Y-113522503D01*
X191678007Y-113047580D01*
X191496645Y-112608650D01*
X191161116Y-112272536D01*
X190950945Y-112185265D01*
X191276259Y-112050516D01*
X191358200Y-111797805D01*
X190484000Y-110923605D01*
X189609800Y-111797805D01*
X189691741Y-112050516D01*
X190038215Y-112176501D01*
X189808650Y-112271355D01*
X189472536Y-112606884D01*
X189290408Y-113045497D01*
X189289993Y-113520420D01*
X186055959Y-113520420D01*
X186068920Y-113455262D01*
X186068920Y-113097714D01*
X185978047Y-112640867D01*
X185719264Y-112253570D01*
X185598849Y-112173111D01*
X185777156Y-112087220D01*
X186167074Y-111650808D01*
X186360304Y-111098401D01*
X186216044Y-110863488D01*
X185002120Y-110863488D01*
X185002120Y-110883488D01*
X184748120Y-110883488D01*
X184748120Y-110863488D01*
X183534196Y-110863488D01*
X183389936Y-111098401D01*
X183583166Y-111650808D01*
X183973084Y-112087220D01*
X184151391Y-112173111D01*
X184030976Y-112253570D01*
X183772193Y-112640867D01*
X183681320Y-113097714D01*
X183681320Y-113455262D01*
X183772193Y-113912109D01*
X184030976Y-114299406D01*
X184400761Y-114546488D01*
X184030976Y-114793570D01*
X183936476Y-114935000D01*
X177938963Y-114935000D01*
X177938963Y-110374575D01*
X183389936Y-110374575D01*
X183534196Y-110609488D01*
X184748120Y-110609488D01*
X184748120Y-109250271D01*
X185002120Y-109250271D01*
X185002120Y-110609488D01*
X186216044Y-110609488D01*
X186275892Y-110512030D01*
X188973752Y-110512030D01*
X188999942Y-111107635D01*
X189177484Y-111536259D01*
X189430195Y-111618200D01*
X190304395Y-110744000D01*
X190663605Y-110744000D01*
X191537805Y-111618200D01*
X191790516Y-111536259D01*
X191994248Y-110975970D01*
X191968058Y-110380365D01*
X191790516Y-109951741D01*
X191537805Y-109869800D01*
X190663605Y-110744000D01*
X190304395Y-110744000D01*
X189430195Y-109869800D01*
X189177484Y-109951741D01*
X188973752Y-110512030D01*
X186275892Y-110512030D01*
X186360304Y-110374575D01*
X186167074Y-109822168D01*
X186049161Y-109690195D01*
X189609800Y-109690195D01*
X190484000Y-110564395D01*
X191358200Y-109690195D01*
X191276259Y-109437484D01*
X190715970Y-109233752D01*
X190120365Y-109259942D01*
X189691741Y-109437484D01*
X189609800Y-109690195D01*
X186049161Y-109690195D01*
X185777156Y-109385756D01*
X185249911Y-109131779D01*
X185234146Y-109129130D01*
X185002120Y-109250271D01*
X184748120Y-109250271D01*
X184516094Y-109129130D01*
X184500329Y-109131779D01*
X183973084Y-109385756D01*
X183583166Y-109822168D01*
X183389936Y-110374575D01*
X177938963Y-110374575D01*
X177938963Y-105537000D01*
X192924963Y-105537000D01*
X192924963Y-114935000D01*
G36*
X192913000Y-130937000D02*
X185803408Y-130937000D01*
X185719264Y-130811070D01*
X185349479Y-130563988D01*
X185719264Y-130316906D01*
X185978047Y-129929609D01*
X186059042Y-129522420D01*
X189289993Y-129522420D01*
X189471355Y-129961350D01*
X189806884Y-130297464D01*
X190245497Y-130479592D01*
X190720420Y-130480007D01*
X191159350Y-130298645D01*
X191495464Y-129963116D01*
X191677592Y-129524503D01*
X191678007Y-129049580D01*
X191496645Y-128610650D01*
X191161116Y-128274536D01*
X190950945Y-128187265D01*
X191276259Y-128052516D01*
X191358200Y-127799805D01*
X190484000Y-126925605D01*
X189609800Y-127799805D01*
X189691741Y-128052516D01*
X190038215Y-128178501D01*
X189808650Y-128273355D01*
X189472536Y-128608884D01*
X189290408Y-129047497D01*
X189289993Y-129522420D01*
X186059042Y-129522420D01*
X186068920Y-129472762D01*
X186068920Y-129115214D01*
X185978047Y-128658367D01*
X185719264Y-128271070D01*
X185598849Y-128190611D01*
X185777156Y-128104720D01*
X186167074Y-127668308D01*
X186360304Y-127115901D01*
X186216044Y-126880988D01*
X185002120Y-126880988D01*
X185002120Y-126900988D01*
X184748120Y-126900988D01*
X184748120Y-126880988D01*
X183534196Y-126880988D01*
X183389936Y-127115901D01*
X183583166Y-127668308D01*
X183973084Y-128104720D01*
X184151391Y-128190611D01*
X184030976Y-128271070D01*
X183772193Y-128658367D01*
X183681320Y-129115214D01*
X183681320Y-129472762D01*
X183772193Y-129929609D01*
X184030976Y-130316906D01*
X184400761Y-130563988D01*
X184030976Y-130811070D01*
X183946832Y-130937000D01*
X177927000Y-130937000D01*
X177927000Y-126392075D01*
X183389936Y-126392075D01*
X183534196Y-126626988D01*
X184748120Y-126626988D01*
X184748120Y-125267771D01*
X185002120Y-125267771D01*
X185002120Y-126626988D01*
X186216044Y-126626988D01*
X186285411Y-126514030D01*
X188973752Y-126514030D01*
X188999942Y-127109635D01*
X189177484Y-127538259D01*
X189430195Y-127620200D01*
X190304395Y-126746000D01*
X190663605Y-126746000D01*
X191537805Y-127620200D01*
X191790516Y-127538259D01*
X191994248Y-126977970D01*
X191968058Y-126382365D01*
X191790516Y-125953741D01*
X191537805Y-125871800D01*
X190663605Y-126746000D01*
X190304395Y-126746000D01*
X189430195Y-125871800D01*
X189177484Y-125953741D01*
X188973752Y-126514030D01*
X186285411Y-126514030D01*
X186360304Y-126392075D01*
X186167074Y-125839668D01*
X186035313Y-125692195D01*
X189609800Y-125692195D01*
X190484000Y-126566395D01*
X191358200Y-125692195D01*
X191276259Y-125439484D01*
X190715970Y-125235752D01*
X190120365Y-125261942D01*
X189691741Y-125439484D01*
X189609800Y-125692195D01*
X186035313Y-125692195D01*
X185777156Y-125403256D01*
X185249911Y-125149279D01*
X185234146Y-125146630D01*
X185002120Y-125267771D01*
X184748120Y-125267771D01*
X184516094Y-125146630D01*
X184500329Y-125149279D01*
X183973084Y-125403256D01*
X183583166Y-125839668D01*
X183389936Y-126392075D01*
X177927000Y-126392075D01*
X177927000Y-121412000D01*
X192913000Y-121412000D01*
X192913000Y-130937000D01*
X192913000Y-130937000D01*
G37*
X192913000Y-130937000D02*
X185803408Y-130937000D01*
X185719264Y-130811070D01*
X185349479Y-130563988D01*
X185719264Y-130316906D01*
X185978047Y-129929609D01*
X186059042Y-129522420D01*
X189289993Y-129522420D01*
X189471355Y-129961350D01*
X189806884Y-130297464D01*
X190245497Y-130479592D01*
X190720420Y-130480007D01*
X191159350Y-130298645D01*
X191495464Y-129963116D01*
X191677592Y-129524503D01*
X191678007Y-129049580D01*
X191496645Y-128610650D01*
X191161116Y-128274536D01*
X190950945Y-128187265D01*
X191276259Y-128052516D01*
X191358200Y-127799805D01*
X190484000Y-126925605D01*
X189609800Y-127799805D01*
X189691741Y-128052516D01*
X190038215Y-128178501D01*
X189808650Y-128273355D01*
X189472536Y-128608884D01*
X189290408Y-129047497D01*
X189289993Y-129522420D01*
X186059042Y-129522420D01*
X186068920Y-129472762D01*
X186068920Y-129115214D01*
X185978047Y-128658367D01*
X185719264Y-128271070D01*
X185598849Y-128190611D01*
X185777156Y-128104720D01*
X186167074Y-127668308D01*
X186360304Y-127115901D01*
X186216044Y-126880988D01*
X185002120Y-126880988D01*
X185002120Y-126900988D01*
X184748120Y-126900988D01*
X184748120Y-126880988D01*
X183534196Y-126880988D01*
X183389936Y-127115901D01*
X183583166Y-127668308D01*
X183973084Y-128104720D01*
X184151391Y-128190611D01*
X184030976Y-128271070D01*
X183772193Y-128658367D01*
X183681320Y-129115214D01*
X183681320Y-129472762D01*
X183772193Y-129929609D01*
X184030976Y-130316906D01*
X184400761Y-130563988D01*
X184030976Y-130811070D01*
X183946832Y-130937000D01*
X177927000Y-130937000D01*
X177927000Y-126392075D01*
X183389936Y-126392075D01*
X183534196Y-126626988D01*
X184748120Y-126626988D01*
X184748120Y-125267771D01*
X185002120Y-125267771D01*
X185002120Y-126626988D01*
X186216044Y-126626988D01*
X186285411Y-126514030D01*
X188973752Y-126514030D01*
X188999942Y-127109635D01*
X189177484Y-127538259D01*
X189430195Y-127620200D01*
X190304395Y-126746000D01*
X190663605Y-126746000D01*
X191537805Y-127620200D01*
X191790516Y-127538259D01*
X191994248Y-126977970D01*
X191968058Y-126382365D01*
X191790516Y-125953741D01*
X191537805Y-125871800D01*
X190663605Y-126746000D01*
X190304395Y-126746000D01*
X189430195Y-125871800D01*
X189177484Y-125953741D01*
X188973752Y-126514030D01*
X186285411Y-126514030D01*
X186360304Y-126392075D01*
X186167074Y-125839668D01*
X186035313Y-125692195D01*
X189609800Y-125692195D01*
X190484000Y-126566395D01*
X191358200Y-125692195D01*
X191276259Y-125439484D01*
X190715970Y-125235752D01*
X190120365Y-125261942D01*
X189691741Y-125439484D01*
X189609800Y-125692195D01*
X186035313Y-125692195D01*
X185777156Y-125403256D01*
X185249911Y-125149279D01*
X185234146Y-125146630D01*
X185002120Y-125267771D01*
X184748120Y-125267771D01*
X184516094Y-125146630D01*
X184500329Y-125149279D01*
X183973084Y-125403256D01*
X183583166Y-125839668D01*
X183389936Y-126392075D01*
X177927000Y-126392075D01*
X177927000Y-121412000D01*
X192913000Y-121412000D01*
X192913000Y-130937000D01*
M02*
