G04 #@! TF.FileFunction,Legend,Top*
%FSLAX46Y46*%
G04 Gerber Fmt 4.6, Leading zero omitted, Abs format (unit mm)*
G04 Created by KiCad (PCBNEW 4.0.7-e2-6376~58~ubuntu16.04.1) date Mon Jun 18 12:44:58 2018*
%MOMM*%
%LPD*%
G01*
G04 APERTURE LIST*
%ADD10C,0.100000*%
%ADD11C,0.200000*%
%ADD12C,0.250000*%
%ADD13C,0.150000*%
%ADD14C,0.120000*%
%ADD15C,0.300000*%
%ADD16C,0.010000*%
%ADD17C,0.152400*%
G04 APERTURE END LIST*
D10*
D11*
X144073714Y-105405181D02*
X144073714Y-104405181D01*
X144311809Y-104405181D01*
X144454667Y-104452800D01*
X144549905Y-104548038D01*
X144597524Y-104643276D01*
X144645143Y-104833752D01*
X144645143Y-104976610D01*
X144597524Y-105167086D01*
X144549905Y-105262324D01*
X144454667Y-105357562D01*
X144311809Y-105405181D01*
X144073714Y-105405181D01*
X145597524Y-105405181D02*
X145026095Y-105405181D01*
X145311809Y-105405181D02*
X145311809Y-104405181D01*
X145216571Y-104548038D01*
X145121333Y-104643276D01*
X145026095Y-104690895D01*
X145930857Y-104405181D02*
X146549905Y-104405181D01*
X146216571Y-104786133D01*
X146359429Y-104786133D01*
X146454667Y-104833752D01*
X146502286Y-104881371D01*
X146549905Y-104976610D01*
X146549905Y-105214705D01*
X146502286Y-105309943D01*
X146454667Y-105357562D01*
X146359429Y-105405181D01*
X146073714Y-105405181D01*
X145978476Y-105357562D01*
X145930857Y-105309943D01*
X116379714Y-61431467D02*
X116855905Y-61431467D01*
X116284476Y-61717181D02*
X116617809Y-60717181D01*
X116951143Y-61717181D01*
X117760667Y-60717181D02*
X117284476Y-60717181D01*
X117236857Y-61193371D01*
X117284476Y-61145752D01*
X117379714Y-61098133D01*
X117617810Y-61098133D01*
X117713048Y-61145752D01*
X117760667Y-61193371D01*
X117808286Y-61288610D01*
X117808286Y-61526705D01*
X117760667Y-61621943D01*
X117713048Y-61669562D01*
X117617810Y-61717181D01*
X117379714Y-61717181D01*
X117284476Y-61669562D01*
X117236857Y-61621943D01*
X116405114Y-66460667D02*
X116881305Y-66460667D01*
X116309876Y-66746381D02*
X116643209Y-65746381D01*
X116976543Y-66746381D01*
X117738448Y-66079714D02*
X117738448Y-66746381D01*
X117500352Y-65698762D02*
X117262257Y-66413048D01*
X117881305Y-66413048D01*
X116405114Y-71616867D02*
X116881305Y-71616867D01*
X116309876Y-71902581D02*
X116643209Y-70902581D01*
X116976543Y-71902581D01*
X117214638Y-70902581D02*
X117833686Y-70902581D01*
X117500352Y-71283533D01*
X117643210Y-71283533D01*
X117738448Y-71331152D01*
X117786067Y-71378771D01*
X117833686Y-71474010D01*
X117833686Y-71712105D01*
X117786067Y-71807343D01*
X117738448Y-71854962D01*
X117643210Y-71902581D01*
X117357495Y-71902581D01*
X117262257Y-71854962D01*
X117214638Y-71807343D01*
X119771486Y-112765619D02*
X119771486Y-111665619D01*
X120033391Y-111665619D01*
X120190533Y-111718000D01*
X120295295Y-111822762D01*
X120347676Y-111927524D01*
X120400057Y-112137048D01*
X120400057Y-112294190D01*
X120347676Y-112503714D01*
X120295295Y-112608476D01*
X120190533Y-112713238D01*
X120033391Y-112765619D01*
X119771486Y-112765619D01*
X120766724Y-111665619D02*
X121447676Y-111665619D01*
X121081010Y-112084667D01*
X121238152Y-112084667D01*
X121342914Y-112137048D01*
X121395295Y-112189429D01*
X121447676Y-112294190D01*
X121447676Y-112556095D01*
X121395295Y-112660857D01*
X121342914Y-112713238D01*
X121238152Y-112765619D01*
X120923867Y-112765619D01*
X120819105Y-112713238D01*
X120766724Y-112660857D01*
X122495295Y-112765619D02*
X121866724Y-112765619D01*
X122181010Y-112765619D02*
X122181010Y-111665619D01*
X122076248Y-111822762D01*
X121971486Y-111927524D01*
X121866724Y-111979905D01*
X119822286Y-110174819D02*
X119822286Y-109074819D01*
X120084191Y-109074819D01*
X120241333Y-109127200D01*
X120346095Y-109231962D01*
X120398476Y-109336724D01*
X120450857Y-109546248D01*
X120450857Y-109703390D01*
X120398476Y-109912914D01*
X120346095Y-110017676D01*
X120241333Y-110122438D01*
X120084191Y-110174819D01*
X119822286Y-110174819D01*
X120817524Y-109074819D02*
X121498476Y-109074819D01*
X121131810Y-109493867D01*
X121288952Y-109493867D01*
X121393714Y-109546248D01*
X121446095Y-109598629D01*
X121498476Y-109703390D01*
X121498476Y-109965295D01*
X121446095Y-110070057D01*
X121393714Y-110122438D01*
X121288952Y-110174819D01*
X120974667Y-110174819D01*
X120869905Y-110122438D01*
X120817524Y-110070057D01*
X122179429Y-109074819D02*
X122284190Y-109074819D01*
X122388952Y-109127200D01*
X122441333Y-109179581D01*
X122493714Y-109284343D01*
X122546095Y-109493867D01*
X122546095Y-109755771D01*
X122493714Y-109965295D01*
X122441333Y-110070057D01*
X122388952Y-110122438D01*
X122284190Y-110174819D01*
X122179429Y-110174819D01*
X122074667Y-110122438D01*
X122022286Y-110070057D01*
X121969905Y-109965295D01*
X121917524Y-109755771D01*
X121917524Y-109493867D01*
X121969905Y-109284343D01*
X122022286Y-109179581D01*
X122074667Y-109127200D01*
X122179429Y-109074819D01*
X120319905Y-91398000D02*
X120215143Y-91345619D01*
X120058000Y-91345619D01*
X119900858Y-91398000D01*
X119796096Y-91502762D01*
X119743715Y-91607524D01*
X119691334Y-91817048D01*
X119691334Y-91974190D01*
X119743715Y-92183714D01*
X119796096Y-92288476D01*
X119900858Y-92393238D01*
X120058000Y-92445619D01*
X120162762Y-92445619D01*
X120319905Y-92393238D01*
X120372286Y-92340857D01*
X120372286Y-91974190D01*
X120162762Y-91974190D01*
X120843715Y-92445619D02*
X120843715Y-91345619D01*
X121472286Y-92445619D01*
X121472286Y-91345619D01*
X121996096Y-92445619D02*
X121996096Y-91345619D01*
X122258001Y-91345619D01*
X122415143Y-91398000D01*
X122519905Y-91502762D01*
X122572286Y-91607524D01*
X122624667Y-91817048D01*
X122624667Y-91974190D01*
X122572286Y-92183714D01*
X122519905Y-92288476D01*
X122415143Y-92393238D01*
X122258001Y-92445619D01*
X121996096Y-92445619D01*
X119796096Y-93885619D02*
X120477048Y-93885619D01*
X120110382Y-94304667D01*
X120267524Y-94304667D01*
X120372286Y-94357048D01*
X120424667Y-94409429D01*
X120477048Y-94514190D01*
X120477048Y-94776095D01*
X120424667Y-94880857D01*
X120372286Y-94933238D01*
X120267524Y-94985619D01*
X119953239Y-94985619D01*
X119848477Y-94933238D01*
X119796096Y-94880857D01*
X120791334Y-93885619D02*
X121158001Y-94985619D01*
X121524667Y-93885619D01*
X121786572Y-93885619D02*
X122467524Y-93885619D01*
X122100858Y-94304667D01*
X122258000Y-94304667D01*
X122362762Y-94357048D01*
X122415143Y-94409429D01*
X122467524Y-94514190D01*
X122467524Y-94776095D01*
X122415143Y-94880857D01*
X122362762Y-94933238D01*
X122258000Y-94985619D01*
X121943715Y-94985619D01*
X121838953Y-94933238D01*
X121786572Y-94880857D01*
X119756467Y-99962438D02*
X119913610Y-100014819D01*
X120175514Y-100014819D01*
X120280276Y-99962438D01*
X120332657Y-99910057D01*
X120385038Y-99805295D01*
X120385038Y-99700533D01*
X120332657Y-99595771D01*
X120280276Y-99543390D01*
X120175514Y-99491010D01*
X119965991Y-99438629D01*
X119861229Y-99386248D01*
X119808848Y-99333867D01*
X119756467Y-99229105D01*
X119756467Y-99124343D01*
X119808848Y-99019581D01*
X119861229Y-98967200D01*
X119965991Y-98914819D01*
X120227895Y-98914819D01*
X120385038Y-98967200D01*
X121485038Y-99910057D02*
X121432657Y-99962438D01*
X121275514Y-100014819D01*
X121170752Y-100014819D01*
X121013610Y-99962438D01*
X120908848Y-99857676D01*
X120856467Y-99752914D01*
X120804086Y-99543390D01*
X120804086Y-99386248D01*
X120856467Y-99176724D01*
X120908848Y-99071962D01*
X121013610Y-98967200D01*
X121170752Y-98914819D01*
X121275514Y-98914819D01*
X121432657Y-98967200D01*
X121485038Y-99019581D01*
X122480276Y-100014819D02*
X121956467Y-100014819D01*
X121956467Y-98914819D01*
X123423133Y-100014819D02*
X122794562Y-100014819D01*
X123108848Y-100014819D02*
X123108848Y-98914819D01*
X123004086Y-99071962D01*
X122899324Y-99176724D01*
X122794562Y-99229105D01*
X119679477Y-102502438D02*
X119836620Y-102554819D01*
X120098524Y-102554819D01*
X120203286Y-102502438D01*
X120255667Y-102450057D01*
X120308048Y-102345295D01*
X120308048Y-102240533D01*
X120255667Y-102135771D01*
X120203286Y-102083390D01*
X120098524Y-102031010D01*
X119889001Y-101978629D01*
X119784239Y-101926248D01*
X119731858Y-101873867D01*
X119679477Y-101769105D01*
X119679477Y-101664343D01*
X119731858Y-101559581D01*
X119784239Y-101507200D01*
X119889001Y-101454819D01*
X120150905Y-101454819D01*
X120308048Y-101507200D01*
X120779477Y-102554819D02*
X120779477Y-101454819D01*
X121041382Y-101454819D01*
X121198524Y-101507200D01*
X121303286Y-101611962D01*
X121355667Y-101716724D01*
X121408048Y-101926248D01*
X121408048Y-102083390D01*
X121355667Y-102292914D01*
X121303286Y-102397676D01*
X121198524Y-102502438D01*
X121041382Y-102554819D01*
X120779477Y-102554819D01*
X121827096Y-102240533D02*
X122350905Y-102240533D01*
X121722334Y-102554819D02*
X122089001Y-101454819D01*
X122455667Y-102554819D01*
X123398524Y-102554819D02*
X122769953Y-102554819D01*
X123084239Y-102554819D02*
X123084239Y-101454819D01*
X122979477Y-101611962D01*
X122874715Y-101716724D01*
X122769953Y-101769105D01*
X119705667Y-105067838D02*
X119862810Y-105120219D01*
X120124714Y-105120219D01*
X120229476Y-105067838D01*
X120281857Y-105015457D01*
X120334238Y-104910695D01*
X120334238Y-104805933D01*
X120281857Y-104701171D01*
X120229476Y-104648790D01*
X120124714Y-104596410D01*
X119915191Y-104544029D01*
X119810429Y-104491648D01*
X119758048Y-104439267D01*
X119705667Y-104334505D01*
X119705667Y-104229743D01*
X119758048Y-104124981D01*
X119810429Y-104072600D01*
X119915191Y-104020219D01*
X120177095Y-104020219D01*
X120334238Y-104072600D01*
X121434238Y-105015457D02*
X121381857Y-105067838D01*
X121224714Y-105120219D01*
X121119952Y-105120219D01*
X120962810Y-105067838D01*
X120858048Y-104963076D01*
X120805667Y-104858314D01*
X120753286Y-104648790D01*
X120753286Y-104491648D01*
X120805667Y-104282124D01*
X120858048Y-104177362D01*
X120962810Y-104072600D01*
X121119952Y-104020219D01*
X121224714Y-104020219D01*
X121381857Y-104072600D01*
X121434238Y-104124981D01*
X122429476Y-105120219D02*
X121905667Y-105120219D01*
X121905667Y-104020219D01*
X122691381Y-104020219D02*
X123372333Y-104020219D01*
X123005667Y-104439267D01*
X123162809Y-104439267D01*
X123267571Y-104491648D01*
X123319952Y-104544029D01*
X123372333Y-104648790D01*
X123372333Y-104910695D01*
X123319952Y-105015457D01*
X123267571Y-105067838D01*
X123162809Y-105120219D01*
X122848524Y-105120219D01*
X122743762Y-105067838D01*
X122691381Y-105015457D01*
X119755677Y-107582438D02*
X119912820Y-107634819D01*
X120174724Y-107634819D01*
X120279486Y-107582438D01*
X120331867Y-107530057D01*
X120384248Y-107425295D01*
X120384248Y-107320533D01*
X120331867Y-107215771D01*
X120279486Y-107163390D01*
X120174724Y-107111010D01*
X119965201Y-107058629D01*
X119860439Y-107006248D01*
X119808058Y-106953867D01*
X119755677Y-106849105D01*
X119755677Y-106744343D01*
X119808058Y-106639581D01*
X119860439Y-106587200D01*
X119965201Y-106534819D01*
X120227105Y-106534819D01*
X120384248Y-106587200D01*
X120855677Y-107634819D02*
X120855677Y-106534819D01*
X121117582Y-106534819D01*
X121274724Y-106587200D01*
X121379486Y-106691962D01*
X121431867Y-106796724D01*
X121484248Y-107006248D01*
X121484248Y-107163390D01*
X121431867Y-107372914D01*
X121379486Y-107477676D01*
X121274724Y-107582438D01*
X121117582Y-107634819D01*
X120855677Y-107634819D01*
X121903296Y-107320533D02*
X122427105Y-107320533D01*
X121798534Y-107634819D02*
X122165201Y-106534819D01*
X122531867Y-107634819D01*
X122793772Y-106534819D02*
X123474724Y-106534819D01*
X123108058Y-106953867D01*
X123265200Y-106953867D01*
X123369962Y-107006248D01*
X123422343Y-107058629D01*
X123474724Y-107163390D01*
X123474724Y-107425295D01*
X123422343Y-107530057D01*
X123369962Y-107582438D01*
X123265200Y-107634819D01*
X122950915Y-107634819D01*
X122846153Y-107582438D01*
X122793772Y-107530057D01*
X149349268Y-68681600D02*
G75*
G03X149349268Y-68681600I-352868J0D01*
G01*
X149349268Y-84709000D02*
G75*
G03X149349268Y-84709000I-352868J0D01*
G01*
X149374668Y-100634800D02*
G75*
G03X149374668Y-100634800I-352868J0D01*
G01*
X149349268Y-116662200D02*
G75*
G03X149349268Y-116662200I-352868J0D01*
G01*
X149400068Y-132892800D02*
G75*
G03X149400068Y-132892800I-352868J0D01*
G01*
D12*
X165032429Y-127770143D02*
X165032429Y-128055857D01*
X164961000Y-128198715D01*
X164818143Y-128341572D01*
X164532429Y-128413000D01*
X164032429Y-128413000D01*
X163746714Y-128341572D01*
X163603857Y-128198715D01*
X163532429Y-128055857D01*
X163532429Y-127770143D01*
X163603857Y-127627286D01*
X163746714Y-127484429D01*
X164032429Y-127413000D01*
X164532429Y-127413000D01*
X164818143Y-127484429D01*
X164961000Y-127627286D01*
X165032429Y-127770143D01*
X163532429Y-129913001D02*
X164246714Y-129413001D01*
X163532429Y-129055858D02*
X165032429Y-129055858D01*
X165032429Y-129627286D01*
X164961000Y-129770144D01*
X164889571Y-129841572D01*
X164746714Y-129913001D01*
X164532429Y-129913001D01*
X164389571Y-129841572D01*
X164318143Y-129770144D01*
X164246714Y-129627286D01*
X164246714Y-129055858D01*
X163532429Y-130555858D02*
X165032429Y-130555858D01*
X165032429Y-131127286D01*
X164961000Y-131270144D01*
X164889571Y-131341572D01*
X164746714Y-131413001D01*
X164532429Y-131413001D01*
X164389571Y-131341572D01*
X164318143Y-131270144D01*
X164246714Y-131127286D01*
X164246714Y-130555858D01*
X163532429Y-112105429D02*
X165032429Y-112105429D01*
X165032429Y-112462572D01*
X164961000Y-112676857D01*
X164818143Y-112819715D01*
X164675286Y-112891143D01*
X164389571Y-112962572D01*
X164175286Y-112962572D01*
X163889571Y-112891143D01*
X163746714Y-112819715D01*
X163603857Y-112676857D01*
X163532429Y-112462572D01*
X163532429Y-112105429D01*
X165032429Y-113891143D02*
X165032429Y-114176857D01*
X164961000Y-114319715D01*
X164818143Y-114462572D01*
X164532429Y-114534000D01*
X164032429Y-114534000D01*
X163746714Y-114462572D01*
X163603857Y-114319715D01*
X163532429Y-114176857D01*
X163532429Y-113891143D01*
X163603857Y-113748286D01*
X163746714Y-113605429D01*
X164032429Y-113534000D01*
X164532429Y-113534000D01*
X164818143Y-113605429D01*
X164961000Y-113748286D01*
X165032429Y-113891143D01*
X163532429Y-95976429D02*
X165032429Y-95976429D01*
X165032429Y-96547857D01*
X164961000Y-96690715D01*
X164889571Y-96762143D01*
X164746714Y-96833572D01*
X164532429Y-96833572D01*
X164389571Y-96762143D01*
X164318143Y-96690715D01*
X164246714Y-96547857D01*
X164246714Y-95976429D01*
X163532429Y-97476429D02*
X165032429Y-97476429D01*
X164318143Y-97476429D02*
X164318143Y-98333572D01*
X163532429Y-98333572D02*
X165032429Y-98333572D01*
X165032429Y-78819714D02*
X165032429Y-79676857D01*
X163532429Y-79248286D02*
X165032429Y-79248286D01*
X164318143Y-80176857D02*
X164318143Y-80676857D01*
X163532429Y-80891143D02*
X163532429Y-80176857D01*
X165032429Y-80176857D01*
X165032429Y-80891143D01*
X163532429Y-81534000D02*
X165032429Y-81534000D01*
X163961000Y-82034000D01*
X165032429Y-82534000D01*
X163532429Y-82534000D01*
X163532429Y-83248286D02*
X165032429Y-83248286D01*
X165032429Y-83819714D01*
X164961000Y-83962572D01*
X164889571Y-84034000D01*
X164746714Y-84105429D01*
X164532429Y-84105429D01*
X164389571Y-84034000D01*
X164318143Y-83962572D01*
X164246714Y-83819714D01*
X164246714Y-83248286D01*
X164318143Y-64333572D02*
X164318143Y-64833572D01*
X163532429Y-65047858D02*
X163532429Y-64333572D01*
X165032429Y-64333572D01*
X165032429Y-65047858D01*
X163675286Y-66547858D02*
X163603857Y-66476429D01*
X163532429Y-66262143D01*
X163532429Y-66119286D01*
X163603857Y-65905001D01*
X163746714Y-65762143D01*
X163889571Y-65690715D01*
X164175286Y-65619286D01*
X164389571Y-65619286D01*
X164675286Y-65690715D01*
X164818143Y-65762143D01*
X164961000Y-65905001D01*
X165032429Y-66119286D01*
X165032429Y-66262143D01*
X164961000Y-66476429D01*
X164889571Y-66547858D01*
D11*
X116952686Y-86557029D02*
X116286019Y-86795124D01*
X116952686Y-87033220D01*
X117286019Y-87604648D02*
X117286019Y-87699887D01*
X117238400Y-87795125D01*
X117190781Y-87842744D01*
X117095543Y-87890363D01*
X116905067Y-87937982D01*
X116666971Y-87937982D01*
X116476495Y-87890363D01*
X116381257Y-87842744D01*
X116333638Y-87795125D01*
X116286019Y-87699887D01*
X116286019Y-87604648D01*
X116333638Y-87509410D01*
X116381257Y-87461791D01*
X116476495Y-87414172D01*
X116666971Y-87366553D01*
X116905067Y-87366553D01*
X117095543Y-87414172D01*
X117190781Y-87461791D01*
X117238400Y-87509410D01*
X117286019Y-87604648D01*
X116381257Y-88366553D02*
X116333638Y-88414172D01*
X116286019Y-88366553D01*
X116333638Y-88318934D01*
X116381257Y-88366553D01*
X116286019Y-88366553D01*
X117286019Y-89271315D02*
X117286019Y-89080838D01*
X117238400Y-88985600D01*
X117190781Y-88937981D01*
X117047924Y-88842743D01*
X116857448Y-88795124D01*
X116476495Y-88795124D01*
X116381257Y-88842743D01*
X116333638Y-88890362D01*
X116286019Y-88985600D01*
X116286019Y-89176077D01*
X116333638Y-89271315D01*
X116381257Y-89318934D01*
X116476495Y-89366553D01*
X116714590Y-89366553D01*
X116809829Y-89318934D01*
X116857448Y-89271315D01*
X116905067Y-89176077D01*
X116905067Y-88985600D01*
X116857448Y-88890362D01*
X116809829Y-88842743D01*
X116714590Y-88795124D01*
D13*
X120572400Y-67493600D02*
X120572400Y-68893600D01*
X121472400Y-68893600D02*
X120572400Y-68893600D01*
X123572400Y-68893600D02*
X122572400Y-68893600D01*
X123572400Y-67493600D02*
X123572400Y-68893600D01*
X122472400Y-67493600D02*
X121672400Y-67493600D01*
D14*
X141433000Y-85996400D02*
X141433000Y-84996400D01*
X142793000Y-84996400D02*
X142793000Y-85996400D01*
X151546000Y-123993200D02*
X150846000Y-123993200D01*
X150846000Y-122793200D02*
X151546000Y-122793200D01*
D15*
X141707211Y-63504500D02*
G75*
G03X141707211Y-63504500I-70711J0D01*
G01*
D13*
X136090500Y-60896500D02*
X136090500Y-62446500D01*
X136090500Y-62446500D02*
X136640500Y-62446500D01*
X143690500Y-60896500D02*
X143690500Y-62446500D01*
X143690500Y-62446500D02*
X143140500Y-62446500D01*
X136090500Y-58696500D02*
X136090500Y-57596500D01*
X143690500Y-57596500D02*
X143690500Y-58696500D01*
X143690500Y-57596500D02*
X136090500Y-57596500D01*
D14*
X160753500Y-72308000D02*
X159753500Y-72308000D01*
X159753500Y-70948000D02*
X160753500Y-70948000D01*
X141288469Y-101424303D02*
X141288469Y-102424303D01*
X139928469Y-102424303D02*
X139928469Y-101424303D01*
X142942283Y-101424303D02*
X142942283Y-102424303D01*
X141582283Y-102424303D02*
X141582283Y-101424303D01*
X160753500Y-70530000D02*
X159753500Y-70530000D01*
X159753500Y-69170000D02*
X160753500Y-69170000D01*
X159690000Y-58303836D02*
X160690000Y-58303836D01*
X160690000Y-59663836D02*
X159690000Y-59663836D01*
X160753500Y-68371000D02*
X159753500Y-68371000D01*
X159753500Y-67011000D02*
X160753500Y-67011000D01*
X159690000Y-60081836D02*
X160690000Y-60081836D01*
X160690000Y-61441836D02*
X159690000Y-61441836D01*
X160753500Y-88308000D02*
X159753500Y-88308000D01*
X159753500Y-86948000D02*
X160753500Y-86948000D01*
X160753500Y-86530000D02*
X159753500Y-86530000D01*
X159753500Y-85170000D02*
X160753500Y-85170000D01*
X159690000Y-74303836D02*
X160690000Y-74303836D01*
X160690000Y-75663836D02*
X159690000Y-75663836D01*
X160753500Y-84371000D02*
X159753500Y-84371000D01*
X159753500Y-83011000D02*
X160753500Y-83011000D01*
X159690000Y-76081836D02*
X160690000Y-76081836D01*
X160690000Y-77441836D02*
X159690000Y-77441836D01*
X160753500Y-104308000D02*
X159753500Y-104308000D01*
X159753500Y-102948000D02*
X160753500Y-102948000D01*
X160753500Y-102530000D02*
X159753500Y-102530000D01*
X159753500Y-101170000D02*
X160753500Y-101170000D01*
X159690000Y-90303836D02*
X160690000Y-90303836D01*
X160690000Y-91663836D02*
X159690000Y-91663836D01*
X160753500Y-100371000D02*
X159753500Y-100371000D01*
X159753500Y-99011000D02*
X160753500Y-99011000D01*
X159690000Y-92081836D02*
X160690000Y-92081836D01*
X160690000Y-93441836D02*
X159690000Y-93441836D01*
X160753500Y-120308000D02*
X159753500Y-120308000D01*
X159753500Y-118948000D02*
X160753500Y-118948000D01*
X160753500Y-118530000D02*
X159753500Y-118530000D01*
X159753500Y-117170000D02*
X160753500Y-117170000D01*
X159690000Y-106303836D02*
X160690000Y-106303836D01*
X160690000Y-107663836D02*
X159690000Y-107663836D01*
X160753500Y-116371000D02*
X159753500Y-116371000D01*
X159753500Y-115011000D02*
X160753500Y-115011000D01*
X159690000Y-108081836D02*
X160690000Y-108081836D01*
X160690000Y-109441836D02*
X159690000Y-109441836D01*
X160753500Y-136308000D02*
X159753500Y-136308000D01*
X159753500Y-134948000D02*
X160753500Y-134948000D01*
X160753500Y-134530000D02*
X159753500Y-134530000D01*
X159753500Y-133170000D02*
X160753500Y-133170000D01*
X159690000Y-122303836D02*
X160690000Y-122303836D01*
X160690000Y-123663836D02*
X159690000Y-123663836D01*
X160753500Y-132371000D02*
X159753500Y-132371000D01*
X159753500Y-131011000D02*
X160753500Y-131011000D01*
X159690000Y-124081836D02*
X160690000Y-124081836D01*
X160690000Y-125441836D02*
X159690000Y-125441836D01*
D16*
G36*
X132717470Y-116029527D02*
X132756560Y-116069460D01*
X132789719Y-116104342D01*
X132818561Y-116136047D01*
X132844700Y-116166445D01*
X132869751Y-116197413D01*
X132895325Y-116230822D01*
X132923039Y-116268546D01*
X132952325Y-116309392D01*
X133047998Y-116454637D01*
X133132778Y-116605904D01*
X133206539Y-116762484D01*
X133269157Y-116923671D01*
X133320508Y-117088754D01*
X133360467Y-117257025D01*
X133388911Y-117427775D01*
X133405712Y-117600296D01*
X133410748Y-117773878D01*
X133403894Y-117947813D01*
X133385025Y-118121391D01*
X133354016Y-118293906D01*
X133323266Y-118420152D01*
X133270472Y-118591182D01*
X133206577Y-118756084D01*
X133131556Y-118914904D01*
X133045381Y-119067688D01*
X132948022Y-119214480D01*
X132839452Y-119355328D01*
X132719643Y-119490279D01*
X132595249Y-119613190D01*
X132462567Y-119727825D01*
X132322416Y-119832406D01*
X132175428Y-119926658D01*
X132022233Y-120010310D01*
X131863462Y-120083087D01*
X131699746Y-120144718D01*
X131531716Y-120194929D01*
X131360004Y-120233446D01*
X131185239Y-120259998D01*
X131076698Y-120270253D01*
X131021014Y-120273160D01*
X130956539Y-120274630D01*
X130886803Y-120274726D01*
X130815340Y-120273509D01*
X130745679Y-120271043D01*
X130681351Y-120267389D01*
X130625890Y-120262611D01*
X130622268Y-120262218D01*
X130445437Y-120236506D01*
X130271778Y-120198818D01*
X130102046Y-120149375D01*
X129936994Y-120088390D01*
X129789762Y-120022196D01*
X129631106Y-119937485D01*
X129479739Y-119842526D01*
X129336047Y-119737618D01*
X129200421Y-119623057D01*
X129073252Y-119499140D01*
X128998338Y-119417190D01*
X128886011Y-119279148D01*
X128784230Y-119134302D01*
X128693217Y-118983252D01*
X128613199Y-118826596D01*
X128544399Y-118664933D01*
X128487041Y-118498861D01*
X128441352Y-118328978D01*
X128407553Y-118155883D01*
X128385871Y-117980175D01*
X128376530Y-117802450D01*
X128376149Y-117758514D01*
X128382390Y-117581020D01*
X128400917Y-117405795D01*
X128431431Y-117233389D01*
X128473634Y-117064351D01*
X128527229Y-116899230D01*
X128591917Y-116738574D01*
X128648339Y-116622238D01*
X128823511Y-116797411D01*
X128818183Y-116804512D01*
X128809241Y-116821695D01*
X128797480Y-116847127D01*
X128783690Y-116878981D01*
X128768664Y-116915425D01*
X128753196Y-116954628D01*
X128738114Y-116994661D01*
X128725267Y-117032389D01*
X128710885Y-117079189D01*
X128695884Y-117131668D01*
X128681180Y-117186439D01*
X128667688Y-117240108D01*
X128656328Y-117289288D01*
X128649531Y-117322366D01*
X128627003Y-117468237D01*
X128613721Y-117618157D01*
X128609688Y-117769480D01*
X128614910Y-117919559D01*
X128629390Y-118065747D01*
X128647910Y-118179475D01*
X128665999Y-118247244D01*
X128694811Y-118320300D01*
X128733914Y-118397861D01*
X128782873Y-118479142D01*
X128841259Y-118563360D01*
X128904386Y-118644547D01*
X128926375Y-118669573D01*
X128955274Y-118699802D01*
X128988169Y-118732381D01*
X129022145Y-118764465D01*
X129054287Y-118793205D01*
X129070521Y-118806876D01*
X129138130Y-118857544D01*
X129205842Y-118899353D01*
X129272292Y-118931640D01*
X129336110Y-118953738D01*
X129395539Y-118964945D01*
X129440389Y-118966456D01*
X129480689Y-118960794D01*
X129519814Y-118946972D01*
X129561139Y-118924005D01*
X129580740Y-118910853D01*
X129633508Y-118877601D01*
X129682172Y-118855055D01*
X129728593Y-118842709D01*
X129774629Y-118840057D01*
X129819311Y-118845972D01*
X129856717Y-118856094D01*
X129894856Y-118870836D01*
X129934568Y-118890819D01*
X129976693Y-118916662D01*
X130022071Y-118948985D01*
X130071540Y-118988405D01*
X130125942Y-119035544D01*
X130186114Y-119091022D01*
X130252899Y-119155455D01*
X130293707Y-119195889D01*
X130400354Y-119300079D01*
X130500773Y-119393400D01*
X130594938Y-119475824D01*
X130682817Y-119547328D01*
X130764383Y-119607886D01*
X130821404Y-119646113D01*
X130933763Y-119711231D01*
X131048678Y-119765475D01*
X131165208Y-119808571D01*
X131282414Y-119840248D01*
X131399356Y-119860234D01*
X131515094Y-119868260D01*
X131586424Y-119867079D01*
X131621056Y-119865322D01*
X131550398Y-119841886D01*
X131514819Y-119829489D01*
X131476612Y-119815212D01*
X131441452Y-119801215D01*
X131424142Y-119793835D01*
X131380556Y-119772768D01*
X131330435Y-119745624D01*
X131277061Y-119714387D01*
X131223714Y-119681034D01*
X131173675Y-119647550D01*
X131132633Y-119617761D01*
X131097773Y-119589456D01*
X131057086Y-119553662D01*
X131012877Y-119512645D01*
X130967451Y-119468670D01*
X130923112Y-119424005D01*
X130882166Y-119380915D01*
X130846916Y-119341666D01*
X130824727Y-119315011D01*
X130723643Y-119178410D01*
X130628839Y-119031788D01*
X130541172Y-118876605D01*
X130461499Y-118714322D01*
X130427652Y-118637417D01*
X130416586Y-118611188D01*
X130406302Y-118586391D01*
X130396228Y-118561527D01*
X130385791Y-118535092D01*
X130374414Y-118505584D01*
X130361526Y-118471499D01*
X130346551Y-118431337D01*
X130328916Y-118383593D01*
X130308048Y-118326765D01*
X130285983Y-118266493D01*
X130218448Y-118096026D01*
X130143847Y-117934361D01*
X130062431Y-117781782D01*
X129974449Y-117638571D01*
X129880149Y-117505012D01*
X129779780Y-117381392D01*
X129673592Y-117267993D01*
X129561833Y-117165100D01*
X129444752Y-117072996D01*
X129322598Y-116991965D01*
X129195620Y-116922294D01*
X129064067Y-116864265D01*
X129054386Y-116860528D01*
X129022287Y-116848933D01*
X128986668Y-116837182D01*
X128949754Y-116825882D01*
X128913765Y-116815643D01*
X128880922Y-116807069D01*
X128853448Y-116800769D01*
X128833563Y-116797351D01*
X128823511Y-116797411D01*
X128648339Y-116622238D01*
X128667401Y-116582933D01*
X128753382Y-116432857D01*
X128849564Y-116288893D01*
X128955647Y-116151592D01*
X129071335Y-116021501D01*
X129162800Y-115931983D01*
X129325998Y-116095181D01*
X129272924Y-116148304D01*
X129219749Y-116204031D01*
X129168685Y-116260018D01*
X129121950Y-116313916D01*
X129081757Y-116363378D01*
X129064546Y-116386065D01*
X129039126Y-116421348D01*
X129012847Y-116459175D01*
X128986580Y-116498153D01*
X128961191Y-116536891D01*
X128937550Y-116573995D01*
X128916524Y-116608077D01*
X128898983Y-116637743D01*
X128885797Y-116661602D01*
X128877832Y-116678261D01*
X128875957Y-116686330D01*
X128876801Y-116686870D01*
X128883310Y-116684947D01*
X128901109Y-116679348D01*
X128929409Y-116670325D01*
X128967424Y-116658135D01*
X129014368Y-116643029D01*
X129069453Y-116625263D01*
X129131892Y-116605091D01*
X129200898Y-116582767D01*
X129275683Y-116558544D01*
X129355462Y-116532678D01*
X129439446Y-116505421D01*
X129526848Y-116477030D01*
X129529755Y-116476085D01*
X129617250Y-116447685D01*
X129701356Y-116420456D01*
X129781287Y-116394650D01*
X129856254Y-116370517D01*
X129925472Y-116348307D01*
X129988153Y-116328274D01*
X130043510Y-116310666D01*
X130090756Y-116295735D01*
X130129103Y-116283731D01*
X130157766Y-116274907D01*
X130175955Y-116269514D01*
X130182886Y-116267800D01*
X130182914Y-116267810D01*
X130181909Y-116274154D01*
X130177466Y-116291616D01*
X130169883Y-116319178D01*
X130159455Y-116355820D01*
X130146479Y-116400522D01*
X130131253Y-116452265D01*
X130114073Y-116510030D01*
X130095235Y-116572796D01*
X130075036Y-116639545D01*
X130068064Y-116662466D01*
X130047451Y-116730340D01*
X130028058Y-116794586D01*
X130010185Y-116854184D01*
X129994136Y-116908107D01*
X129980208Y-116955337D01*
X129968705Y-116994851D01*
X129959926Y-117025627D01*
X129954172Y-117046643D01*
X129951745Y-117056878D01*
X129951724Y-117057716D01*
X129958073Y-117056260D01*
X129975722Y-117051194D01*
X130003871Y-117042765D01*
X130041720Y-117031223D01*
X130088469Y-117016817D01*
X130143320Y-116999794D01*
X130205471Y-116980404D01*
X130274124Y-116958895D01*
X130348478Y-116935518D01*
X130427734Y-116910519D01*
X130511093Y-116884149D01*
X130583591Y-116861154D01*
X130669855Y-116833777D01*
X130752735Y-116807507D01*
X130831427Y-116782598D01*
X130905126Y-116759303D01*
X130973025Y-116737875D01*
X131034321Y-116718567D01*
X131088210Y-116701633D01*
X131133884Y-116687326D01*
X131170541Y-116675899D01*
X131197374Y-116667606D01*
X131213579Y-116662700D01*
X131218383Y-116661382D01*
X131217458Y-116667297D01*
X131213065Y-116684512D01*
X131205451Y-116712180D01*
X131194865Y-116749455D01*
X131181555Y-116795492D01*
X131165767Y-116849445D01*
X131147749Y-116910469D01*
X131127749Y-116977718D01*
X131106016Y-117050346D01*
X131082795Y-117127508D01*
X131058336Y-117208357D01*
X131054137Y-117222197D01*
X131029440Y-117303655D01*
X131005867Y-117381608D01*
X130983673Y-117455205D01*
X130963109Y-117523595D01*
X130944431Y-117585929D01*
X130927892Y-117641354D01*
X130913745Y-117689021D01*
X130902245Y-117728078D01*
X130893645Y-117757676D01*
X130888200Y-117776962D01*
X130886162Y-117785088D01*
X130886169Y-117785296D01*
X130892492Y-117783865D01*
X130909726Y-117778919D01*
X130936687Y-117770824D01*
X130972192Y-117759944D01*
X131015059Y-117746644D01*
X131064105Y-117731289D01*
X131118147Y-117714245D01*
X131176002Y-117695876D01*
X131177755Y-117695317D01*
X131235728Y-117676928D01*
X131289949Y-117659887D01*
X131339232Y-117644554D01*
X131382389Y-117631292D01*
X131418236Y-117620461D01*
X131445585Y-117612423D01*
X131463250Y-117607541D01*
X131470046Y-117606176D01*
X131470068Y-117606192D01*
X131468717Y-117612579D01*
X131463919Y-117630244D01*
X131455931Y-117658317D01*
X131445011Y-117695930D01*
X131431417Y-117742213D01*
X131415406Y-117796294D01*
X131397234Y-117857307D01*
X131377161Y-117924380D01*
X131355442Y-117996645D01*
X131332336Y-118073231D01*
X131309575Y-118148404D01*
X131285162Y-118228921D01*
X131261687Y-118306396D01*
X131239428Y-118379905D01*
X131218665Y-118448527D01*
X131199675Y-118511341D01*
X131182736Y-118567423D01*
X131168127Y-118615856D01*
X131156126Y-118655716D01*
X131147011Y-118686081D01*
X131141061Y-118706031D01*
X131138659Y-118714258D01*
X131131271Y-118740936D01*
X131402347Y-118654656D01*
X131458405Y-118636921D01*
X131510671Y-118620594D01*
X131557921Y-118606041D01*
X131598928Y-118593630D01*
X131632469Y-118583730D01*
X131657320Y-118576707D01*
X131672253Y-118572929D01*
X131676226Y-118572465D01*
X131675087Y-118579269D01*
X131670612Y-118596833D01*
X131663192Y-118623776D01*
X131653223Y-118658720D01*
X131641098Y-118700284D01*
X131627209Y-118747088D01*
X131611984Y-118797649D01*
X131596827Y-118848090D01*
X131583154Y-118894489D01*
X131571341Y-118935499D01*
X131561762Y-118969776D01*
X131554796Y-118995972D01*
X131550817Y-119012743D01*
X131550201Y-119018743D01*
X131550217Y-119018743D01*
X131556977Y-119016862D01*
X131574883Y-119011416D01*
X131602984Y-119002707D01*
X131640328Y-118991033D01*
X131685966Y-118976695D01*
X131738944Y-118959990D01*
X131798312Y-118941220D01*
X131863118Y-118920682D01*
X131932410Y-118898678D01*
X132005238Y-118875506D01*
X132007571Y-118874764D01*
X132080391Y-118851611D01*
X132149635Y-118829672D01*
X132214360Y-118809240D01*
X132273627Y-118790610D01*
X132326488Y-118774075D01*
X132372004Y-118759930D01*
X132409232Y-118748467D01*
X132437230Y-118739981D01*
X132455055Y-118734767D01*
X132461763Y-118733118D01*
X132461787Y-118733130D01*
X132460537Y-118739493D01*
X132456235Y-118757135D01*
X132449138Y-118785077D01*
X132439504Y-118822335D01*
X132427589Y-118867931D01*
X132413651Y-118920881D01*
X132397948Y-118980206D01*
X132380736Y-119044923D01*
X132362272Y-119114051D01*
X132347110Y-119170614D01*
X132327923Y-119242414D01*
X132309900Y-119310512D01*
X132293286Y-119373937D01*
X132278329Y-119431714D01*
X132265274Y-119482871D01*
X132254369Y-119526434D01*
X132245861Y-119561431D01*
X132239994Y-119586890D01*
X132237018Y-119601836D01*
X132236873Y-119605570D01*
X132247278Y-119601139D01*
X132265483Y-119588910D01*
X132290219Y-119569973D01*
X132320215Y-119545417D01*
X132354199Y-119516333D01*
X132390903Y-119483811D01*
X132429054Y-119448940D01*
X132467382Y-119412810D01*
X132504616Y-119376510D01*
X132508810Y-119372335D01*
X132584865Y-119293937D01*
X132652130Y-119218925D01*
X132712881Y-119144455D01*
X132769392Y-119067677D01*
X132823938Y-118985749D01*
X132845901Y-118950595D01*
X132928513Y-118804856D01*
X132999191Y-118655715D01*
X133058320Y-118502184D01*
X133106286Y-118343275D01*
X133139592Y-118198086D01*
X133154073Y-118119254D01*
X133165041Y-118045797D01*
X133172851Y-117973934D01*
X133177853Y-117899886D01*
X133180400Y-117819871D01*
X133180910Y-117754084D01*
X133178705Y-117637452D01*
X133171887Y-117529068D01*
X133160010Y-117425186D01*
X133142635Y-117322056D01*
X133119314Y-117215932D01*
X133115326Y-117199721D01*
X133068602Y-117037969D01*
X133010614Y-116881508D01*
X132941844Y-116730791D01*
X132862769Y-116586273D01*
X132773871Y-116448410D01*
X132675627Y-116317652D01*
X132568520Y-116194458D01*
X132453028Y-116079280D01*
X132329632Y-115972573D01*
X132198810Y-115874792D01*
X132061044Y-115786390D01*
X131916812Y-115707823D01*
X131766594Y-115639543D01*
X131610872Y-115582006D01*
X131450123Y-115535668D01*
X131330249Y-115509244D01*
X131162739Y-115483383D01*
X130995002Y-115470011D01*
X130827682Y-115468962D01*
X130661423Y-115480066D01*
X130496869Y-115503158D01*
X130334663Y-115538068D01*
X130175452Y-115584628D01*
X130019876Y-115642671D01*
X129868582Y-115712030D01*
X129722213Y-115792536D01*
X129581414Y-115884022D01*
X129446827Y-115986318D01*
X129422981Y-116006145D01*
X129376755Y-116047013D01*
X129325998Y-116095181D01*
X129162800Y-115931983D01*
X129196328Y-115899171D01*
X129330331Y-115785150D01*
X129473043Y-115679987D01*
X129521266Y-115647799D01*
X129672285Y-115556878D01*
X129827924Y-115477486D01*
X129987551Y-115409612D01*
X130150534Y-115353244D01*
X130316243Y-115308369D01*
X130484044Y-115274977D01*
X130653308Y-115253055D01*
X130823403Y-115242593D01*
X130993697Y-115243577D01*
X131163559Y-115255997D01*
X131332358Y-115279840D01*
X131499462Y-115315096D01*
X131664240Y-115361751D01*
X131826060Y-115419796D01*
X131984291Y-115489218D01*
X132138301Y-115570004D01*
X132287460Y-115662144D01*
X132342724Y-115700124D01*
X132385834Y-115730881D01*
X132423153Y-115758271D01*
X132456537Y-115783890D01*
X132487835Y-115809333D01*
X132518900Y-115836193D01*
X132551585Y-115866067D01*
X132587741Y-115900548D01*
X132629221Y-115941232D01*
X132670835Y-115982669D01*
X132717470Y-116029527D01*
X132717470Y-116029527D01*
G37*
X132717470Y-116029527D02*
X132756560Y-116069460D01*
X132789719Y-116104342D01*
X132818561Y-116136047D01*
X132844700Y-116166445D01*
X132869751Y-116197413D01*
X132895325Y-116230822D01*
X132923039Y-116268546D01*
X132952325Y-116309392D01*
X133047998Y-116454637D01*
X133132778Y-116605904D01*
X133206539Y-116762484D01*
X133269157Y-116923671D01*
X133320508Y-117088754D01*
X133360467Y-117257025D01*
X133388911Y-117427775D01*
X133405712Y-117600296D01*
X133410748Y-117773878D01*
X133403894Y-117947813D01*
X133385025Y-118121391D01*
X133354016Y-118293906D01*
X133323266Y-118420152D01*
X133270472Y-118591182D01*
X133206577Y-118756084D01*
X133131556Y-118914904D01*
X133045381Y-119067688D01*
X132948022Y-119214480D01*
X132839452Y-119355328D01*
X132719643Y-119490279D01*
X132595249Y-119613190D01*
X132462567Y-119727825D01*
X132322416Y-119832406D01*
X132175428Y-119926658D01*
X132022233Y-120010310D01*
X131863462Y-120083087D01*
X131699746Y-120144718D01*
X131531716Y-120194929D01*
X131360004Y-120233446D01*
X131185239Y-120259998D01*
X131076698Y-120270253D01*
X131021014Y-120273160D01*
X130956539Y-120274630D01*
X130886803Y-120274726D01*
X130815340Y-120273509D01*
X130745679Y-120271043D01*
X130681351Y-120267389D01*
X130625890Y-120262611D01*
X130622268Y-120262218D01*
X130445437Y-120236506D01*
X130271778Y-120198818D01*
X130102046Y-120149375D01*
X129936994Y-120088390D01*
X129789762Y-120022196D01*
X129631106Y-119937485D01*
X129479739Y-119842526D01*
X129336047Y-119737618D01*
X129200421Y-119623057D01*
X129073252Y-119499140D01*
X128998338Y-119417190D01*
X128886011Y-119279148D01*
X128784230Y-119134302D01*
X128693217Y-118983252D01*
X128613199Y-118826596D01*
X128544399Y-118664933D01*
X128487041Y-118498861D01*
X128441352Y-118328978D01*
X128407553Y-118155883D01*
X128385871Y-117980175D01*
X128376530Y-117802450D01*
X128376149Y-117758514D01*
X128382390Y-117581020D01*
X128400917Y-117405795D01*
X128431431Y-117233389D01*
X128473634Y-117064351D01*
X128527229Y-116899230D01*
X128591917Y-116738574D01*
X128648339Y-116622238D01*
X128823511Y-116797411D01*
X128818183Y-116804512D01*
X128809241Y-116821695D01*
X128797480Y-116847127D01*
X128783690Y-116878981D01*
X128768664Y-116915425D01*
X128753196Y-116954628D01*
X128738114Y-116994661D01*
X128725267Y-117032389D01*
X128710885Y-117079189D01*
X128695884Y-117131668D01*
X128681180Y-117186439D01*
X128667688Y-117240108D01*
X128656328Y-117289288D01*
X128649531Y-117322366D01*
X128627003Y-117468237D01*
X128613721Y-117618157D01*
X128609688Y-117769480D01*
X128614910Y-117919559D01*
X128629390Y-118065747D01*
X128647910Y-118179475D01*
X128665999Y-118247244D01*
X128694811Y-118320300D01*
X128733914Y-118397861D01*
X128782873Y-118479142D01*
X128841259Y-118563360D01*
X128904386Y-118644547D01*
X128926375Y-118669573D01*
X128955274Y-118699802D01*
X128988169Y-118732381D01*
X129022145Y-118764465D01*
X129054287Y-118793205D01*
X129070521Y-118806876D01*
X129138130Y-118857544D01*
X129205842Y-118899353D01*
X129272292Y-118931640D01*
X129336110Y-118953738D01*
X129395539Y-118964945D01*
X129440389Y-118966456D01*
X129480689Y-118960794D01*
X129519814Y-118946972D01*
X129561139Y-118924005D01*
X129580740Y-118910853D01*
X129633508Y-118877601D01*
X129682172Y-118855055D01*
X129728593Y-118842709D01*
X129774629Y-118840057D01*
X129819311Y-118845972D01*
X129856717Y-118856094D01*
X129894856Y-118870836D01*
X129934568Y-118890819D01*
X129976693Y-118916662D01*
X130022071Y-118948985D01*
X130071540Y-118988405D01*
X130125942Y-119035544D01*
X130186114Y-119091022D01*
X130252899Y-119155455D01*
X130293707Y-119195889D01*
X130400354Y-119300079D01*
X130500773Y-119393400D01*
X130594938Y-119475824D01*
X130682817Y-119547328D01*
X130764383Y-119607886D01*
X130821404Y-119646113D01*
X130933763Y-119711231D01*
X131048678Y-119765475D01*
X131165208Y-119808571D01*
X131282414Y-119840248D01*
X131399356Y-119860234D01*
X131515094Y-119868260D01*
X131586424Y-119867079D01*
X131621056Y-119865322D01*
X131550398Y-119841886D01*
X131514819Y-119829489D01*
X131476612Y-119815212D01*
X131441452Y-119801215D01*
X131424142Y-119793835D01*
X131380556Y-119772768D01*
X131330435Y-119745624D01*
X131277061Y-119714387D01*
X131223714Y-119681034D01*
X131173675Y-119647550D01*
X131132633Y-119617761D01*
X131097773Y-119589456D01*
X131057086Y-119553662D01*
X131012877Y-119512645D01*
X130967451Y-119468670D01*
X130923112Y-119424005D01*
X130882166Y-119380915D01*
X130846916Y-119341666D01*
X130824727Y-119315011D01*
X130723643Y-119178410D01*
X130628839Y-119031788D01*
X130541172Y-118876605D01*
X130461499Y-118714322D01*
X130427652Y-118637417D01*
X130416586Y-118611188D01*
X130406302Y-118586391D01*
X130396228Y-118561527D01*
X130385791Y-118535092D01*
X130374414Y-118505584D01*
X130361526Y-118471499D01*
X130346551Y-118431337D01*
X130328916Y-118383593D01*
X130308048Y-118326765D01*
X130285983Y-118266493D01*
X130218448Y-118096026D01*
X130143847Y-117934361D01*
X130062431Y-117781782D01*
X129974449Y-117638571D01*
X129880149Y-117505012D01*
X129779780Y-117381392D01*
X129673592Y-117267993D01*
X129561833Y-117165100D01*
X129444752Y-117072996D01*
X129322598Y-116991965D01*
X129195620Y-116922294D01*
X129064067Y-116864265D01*
X129054386Y-116860528D01*
X129022287Y-116848933D01*
X128986668Y-116837182D01*
X128949754Y-116825882D01*
X128913765Y-116815643D01*
X128880922Y-116807069D01*
X128853448Y-116800769D01*
X128833563Y-116797351D01*
X128823511Y-116797411D01*
X128648339Y-116622238D01*
X128667401Y-116582933D01*
X128753382Y-116432857D01*
X128849564Y-116288893D01*
X128955647Y-116151592D01*
X129071335Y-116021501D01*
X129162800Y-115931983D01*
X129325998Y-116095181D01*
X129272924Y-116148304D01*
X129219749Y-116204031D01*
X129168685Y-116260018D01*
X129121950Y-116313916D01*
X129081757Y-116363378D01*
X129064546Y-116386065D01*
X129039126Y-116421348D01*
X129012847Y-116459175D01*
X128986580Y-116498153D01*
X128961191Y-116536891D01*
X128937550Y-116573995D01*
X128916524Y-116608077D01*
X128898983Y-116637743D01*
X128885797Y-116661602D01*
X128877832Y-116678261D01*
X128875957Y-116686330D01*
X128876801Y-116686870D01*
X128883310Y-116684947D01*
X128901109Y-116679348D01*
X128929409Y-116670325D01*
X128967424Y-116658135D01*
X129014368Y-116643029D01*
X129069453Y-116625263D01*
X129131892Y-116605091D01*
X129200898Y-116582767D01*
X129275683Y-116558544D01*
X129355462Y-116532678D01*
X129439446Y-116505421D01*
X129526848Y-116477030D01*
X129529755Y-116476085D01*
X129617250Y-116447685D01*
X129701356Y-116420456D01*
X129781287Y-116394650D01*
X129856254Y-116370517D01*
X129925472Y-116348307D01*
X129988153Y-116328274D01*
X130043510Y-116310666D01*
X130090756Y-116295735D01*
X130129103Y-116283731D01*
X130157766Y-116274907D01*
X130175955Y-116269514D01*
X130182886Y-116267800D01*
X130182914Y-116267810D01*
X130181909Y-116274154D01*
X130177466Y-116291616D01*
X130169883Y-116319178D01*
X130159455Y-116355820D01*
X130146479Y-116400522D01*
X130131253Y-116452265D01*
X130114073Y-116510030D01*
X130095235Y-116572796D01*
X130075036Y-116639545D01*
X130068064Y-116662466D01*
X130047451Y-116730340D01*
X130028058Y-116794586D01*
X130010185Y-116854184D01*
X129994136Y-116908107D01*
X129980208Y-116955337D01*
X129968705Y-116994851D01*
X129959926Y-117025627D01*
X129954172Y-117046643D01*
X129951745Y-117056878D01*
X129951724Y-117057716D01*
X129958073Y-117056260D01*
X129975722Y-117051194D01*
X130003871Y-117042765D01*
X130041720Y-117031223D01*
X130088469Y-117016817D01*
X130143320Y-116999794D01*
X130205471Y-116980404D01*
X130274124Y-116958895D01*
X130348478Y-116935518D01*
X130427734Y-116910519D01*
X130511093Y-116884149D01*
X130583591Y-116861154D01*
X130669855Y-116833777D01*
X130752735Y-116807507D01*
X130831427Y-116782598D01*
X130905126Y-116759303D01*
X130973025Y-116737875D01*
X131034321Y-116718567D01*
X131088210Y-116701633D01*
X131133884Y-116687326D01*
X131170541Y-116675899D01*
X131197374Y-116667606D01*
X131213579Y-116662700D01*
X131218383Y-116661382D01*
X131217458Y-116667297D01*
X131213065Y-116684512D01*
X131205451Y-116712180D01*
X131194865Y-116749455D01*
X131181555Y-116795492D01*
X131165767Y-116849445D01*
X131147749Y-116910469D01*
X131127749Y-116977718D01*
X131106016Y-117050346D01*
X131082795Y-117127508D01*
X131058336Y-117208357D01*
X131054137Y-117222197D01*
X131029440Y-117303655D01*
X131005867Y-117381608D01*
X130983673Y-117455205D01*
X130963109Y-117523595D01*
X130944431Y-117585929D01*
X130927892Y-117641354D01*
X130913745Y-117689021D01*
X130902245Y-117728078D01*
X130893645Y-117757676D01*
X130888200Y-117776962D01*
X130886162Y-117785088D01*
X130886169Y-117785296D01*
X130892492Y-117783865D01*
X130909726Y-117778919D01*
X130936687Y-117770824D01*
X130972192Y-117759944D01*
X131015059Y-117746644D01*
X131064105Y-117731289D01*
X131118147Y-117714245D01*
X131176002Y-117695876D01*
X131177755Y-117695317D01*
X131235728Y-117676928D01*
X131289949Y-117659887D01*
X131339232Y-117644554D01*
X131382389Y-117631292D01*
X131418236Y-117620461D01*
X131445585Y-117612423D01*
X131463250Y-117607541D01*
X131470046Y-117606176D01*
X131470068Y-117606192D01*
X131468717Y-117612579D01*
X131463919Y-117630244D01*
X131455931Y-117658317D01*
X131445011Y-117695930D01*
X131431417Y-117742213D01*
X131415406Y-117796294D01*
X131397234Y-117857307D01*
X131377161Y-117924380D01*
X131355442Y-117996645D01*
X131332336Y-118073231D01*
X131309575Y-118148404D01*
X131285162Y-118228921D01*
X131261687Y-118306396D01*
X131239428Y-118379905D01*
X131218665Y-118448527D01*
X131199675Y-118511341D01*
X131182736Y-118567423D01*
X131168127Y-118615856D01*
X131156126Y-118655716D01*
X131147011Y-118686081D01*
X131141061Y-118706031D01*
X131138659Y-118714258D01*
X131131271Y-118740936D01*
X131402347Y-118654656D01*
X131458405Y-118636921D01*
X131510671Y-118620594D01*
X131557921Y-118606041D01*
X131598928Y-118593630D01*
X131632469Y-118583730D01*
X131657320Y-118576707D01*
X131672253Y-118572929D01*
X131676226Y-118572465D01*
X131675087Y-118579269D01*
X131670612Y-118596833D01*
X131663192Y-118623776D01*
X131653223Y-118658720D01*
X131641098Y-118700284D01*
X131627209Y-118747088D01*
X131611984Y-118797649D01*
X131596827Y-118848090D01*
X131583154Y-118894489D01*
X131571341Y-118935499D01*
X131561762Y-118969776D01*
X131554796Y-118995972D01*
X131550817Y-119012743D01*
X131550201Y-119018743D01*
X131550217Y-119018743D01*
X131556977Y-119016862D01*
X131574883Y-119011416D01*
X131602984Y-119002707D01*
X131640328Y-118991033D01*
X131685966Y-118976695D01*
X131738944Y-118959990D01*
X131798312Y-118941220D01*
X131863118Y-118920682D01*
X131932410Y-118898678D01*
X132005238Y-118875506D01*
X132007571Y-118874764D01*
X132080391Y-118851611D01*
X132149635Y-118829672D01*
X132214360Y-118809240D01*
X132273627Y-118790610D01*
X132326488Y-118774075D01*
X132372004Y-118759930D01*
X132409232Y-118748467D01*
X132437230Y-118739981D01*
X132455055Y-118734767D01*
X132461763Y-118733118D01*
X132461787Y-118733130D01*
X132460537Y-118739493D01*
X132456235Y-118757135D01*
X132449138Y-118785077D01*
X132439504Y-118822335D01*
X132427589Y-118867931D01*
X132413651Y-118920881D01*
X132397948Y-118980206D01*
X132380736Y-119044923D01*
X132362272Y-119114051D01*
X132347110Y-119170614D01*
X132327923Y-119242414D01*
X132309900Y-119310512D01*
X132293286Y-119373937D01*
X132278329Y-119431714D01*
X132265274Y-119482871D01*
X132254369Y-119526434D01*
X132245861Y-119561431D01*
X132239994Y-119586890D01*
X132237018Y-119601836D01*
X132236873Y-119605570D01*
X132247278Y-119601139D01*
X132265483Y-119588910D01*
X132290219Y-119569973D01*
X132320215Y-119545417D01*
X132354199Y-119516333D01*
X132390903Y-119483811D01*
X132429054Y-119448940D01*
X132467382Y-119412810D01*
X132504616Y-119376510D01*
X132508810Y-119372335D01*
X132584865Y-119293937D01*
X132652130Y-119218925D01*
X132712881Y-119144455D01*
X132769392Y-119067677D01*
X132823938Y-118985749D01*
X132845901Y-118950595D01*
X132928513Y-118804856D01*
X132999191Y-118655715D01*
X133058320Y-118502184D01*
X133106286Y-118343275D01*
X133139592Y-118198086D01*
X133154073Y-118119254D01*
X133165041Y-118045797D01*
X133172851Y-117973934D01*
X133177853Y-117899886D01*
X133180400Y-117819871D01*
X133180910Y-117754084D01*
X133178705Y-117637452D01*
X133171887Y-117529068D01*
X133160010Y-117425186D01*
X133142635Y-117322056D01*
X133119314Y-117215932D01*
X133115326Y-117199721D01*
X133068602Y-117037969D01*
X133010614Y-116881508D01*
X132941844Y-116730791D01*
X132862769Y-116586273D01*
X132773871Y-116448410D01*
X132675627Y-116317652D01*
X132568520Y-116194458D01*
X132453028Y-116079280D01*
X132329632Y-115972573D01*
X132198810Y-115874792D01*
X132061044Y-115786390D01*
X131916812Y-115707823D01*
X131766594Y-115639543D01*
X131610872Y-115582006D01*
X131450123Y-115535668D01*
X131330249Y-115509244D01*
X131162739Y-115483383D01*
X130995002Y-115470011D01*
X130827682Y-115468962D01*
X130661423Y-115480066D01*
X130496869Y-115503158D01*
X130334663Y-115538068D01*
X130175452Y-115584628D01*
X130019876Y-115642671D01*
X129868582Y-115712030D01*
X129722213Y-115792536D01*
X129581414Y-115884022D01*
X129446827Y-115986318D01*
X129422981Y-116006145D01*
X129376755Y-116047013D01*
X129325998Y-116095181D01*
X129162800Y-115931983D01*
X129196328Y-115899171D01*
X129330331Y-115785150D01*
X129473043Y-115679987D01*
X129521266Y-115647799D01*
X129672285Y-115556878D01*
X129827924Y-115477486D01*
X129987551Y-115409612D01*
X130150534Y-115353244D01*
X130316243Y-115308369D01*
X130484044Y-115274977D01*
X130653308Y-115253055D01*
X130823403Y-115242593D01*
X130993697Y-115243577D01*
X131163559Y-115255997D01*
X131332358Y-115279840D01*
X131499462Y-115315096D01*
X131664240Y-115361751D01*
X131826060Y-115419796D01*
X131984291Y-115489218D01*
X132138301Y-115570004D01*
X132287460Y-115662144D01*
X132342724Y-115700124D01*
X132385834Y-115730881D01*
X132423153Y-115758271D01*
X132456537Y-115783890D01*
X132487835Y-115809333D01*
X132518900Y-115836193D01*
X132551585Y-115866067D01*
X132587741Y-115900548D01*
X132629221Y-115941232D01*
X132670835Y-115982669D01*
X132717470Y-116029527D01*
G36*
X142194463Y-128258851D02*
X142226314Y-128291000D01*
X142253969Y-128319122D01*
X142276383Y-128342145D01*
X142292512Y-128358998D01*
X142301310Y-128368611D01*
X142302635Y-128370458D01*
X142295955Y-128374002D01*
X142278523Y-128382340D01*
X142251181Y-128395092D01*
X142214776Y-128411878D01*
X142170152Y-128432320D01*
X142118153Y-128456034D01*
X142059627Y-128482643D01*
X141995415Y-128511767D01*
X141926363Y-128543025D01*
X141853317Y-128576038D01*
X141777122Y-128610426D01*
X141698621Y-128645809D01*
X141618661Y-128681807D01*
X141538085Y-128718039D01*
X141457739Y-128754127D01*
X141378468Y-128789691D01*
X141301116Y-128824351D01*
X141226528Y-128857726D01*
X141155550Y-128889436D01*
X141089026Y-128919102D01*
X141027801Y-128946345D01*
X140972719Y-128970783D01*
X140924626Y-128992038D01*
X140884366Y-129009729D01*
X140852785Y-129023476D01*
X140830727Y-129032901D01*
X140819037Y-129037621D01*
X140818325Y-129037869D01*
X140740402Y-129059284D01*
X140668433Y-129069736D01*
X140601918Y-129069197D01*
X140540357Y-129057643D01*
X140483251Y-129035047D01*
X140455244Y-129018984D01*
X140417500Y-128991916D01*
X140377087Y-128957942D01*
X140338173Y-128920856D01*
X140304928Y-128884453D01*
X140297851Y-128875726D01*
X140259259Y-128820633D01*
X140226363Y-128759847D01*
X140217447Y-128740417D01*
X140206258Y-128713706D01*
X140195924Y-128686434D01*
X140187338Y-128661312D01*
X140181398Y-128641050D01*
X140179002Y-128628359D01*
X140179469Y-128625635D01*
X140186879Y-128621867D01*
X140204046Y-128614875D01*
X140228973Y-128605362D01*
X140259664Y-128594030D01*
X140294125Y-128581583D01*
X140330359Y-128568724D01*
X140366370Y-128556157D01*
X140400162Y-128544585D01*
X140429739Y-128534711D01*
X140453105Y-128527239D01*
X140468264Y-128522871D01*
X140473211Y-128522131D01*
X140477274Y-128529982D01*
X140483478Y-128545937D01*
X140488185Y-128559628D01*
X140509686Y-128611053D01*
X140537434Y-128654335D01*
X140570273Y-128687883D01*
X140591943Y-128702680D01*
X140613411Y-128710466D01*
X140640253Y-128714320D01*
X140667386Y-128714055D01*
X140689725Y-128709485D01*
X140696023Y-128706507D01*
X140700842Y-128699238D01*
X140710622Y-128680280D01*
X140725363Y-128649633D01*
X140745065Y-128607301D01*
X140769727Y-128553282D01*
X140799349Y-128487580D01*
X140833928Y-128410195D01*
X140873468Y-128321128D01*
X140917964Y-128220380D01*
X140967419Y-128107953D01*
X140999407Y-128035037D01*
X141037531Y-127948098D01*
X141074269Y-127864412D01*
X141109296Y-127784712D01*
X141142286Y-127709733D01*
X141172917Y-127640212D01*
X141200860Y-127576882D01*
X141225794Y-127520481D01*
X141247391Y-127471740D01*
X141265330Y-127431398D01*
X141279283Y-127400188D01*
X141288926Y-127378847D01*
X141293935Y-127368108D01*
X141294570Y-127366945D01*
X141300038Y-127370217D01*
X141313557Y-127381973D01*
X141334402Y-127401512D01*
X141361845Y-127428140D01*
X141395162Y-127461160D01*
X141433626Y-127499875D01*
X141444234Y-127510638D01*
X141589729Y-127658501D01*
X141159324Y-128519302D01*
X141461233Y-128364193D01*
X141523722Y-128332077D01*
X141586935Y-128299568D01*
X141649173Y-128267542D01*
X141708743Y-128236869D01*
X141763949Y-128208423D01*
X141813097Y-128183079D01*
X141854492Y-128161707D01*
X141886438Y-128145182D01*
X141888831Y-128143943D01*
X142014519Y-128078802D01*
X142159462Y-128223744D01*
X142194463Y-128258851D01*
X142194463Y-128258851D01*
G37*
X142194463Y-128258851D02*
X142226314Y-128291000D01*
X142253969Y-128319122D01*
X142276383Y-128342145D01*
X142292512Y-128358998D01*
X142301310Y-128368611D01*
X142302635Y-128370458D01*
X142295955Y-128374002D01*
X142278523Y-128382340D01*
X142251181Y-128395092D01*
X142214776Y-128411878D01*
X142170152Y-128432320D01*
X142118153Y-128456034D01*
X142059627Y-128482643D01*
X141995415Y-128511767D01*
X141926363Y-128543025D01*
X141853317Y-128576038D01*
X141777122Y-128610426D01*
X141698621Y-128645809D01*
X141618661Y-128681807D01*
X141538085Y-128718039D01*
X141457739Y-128754127D01*
X141378468Y-128789691D01*
X141301116Y-128824351D01*
X141226528Y-128857726D01*
X141155550Y-128889436D01*
X141089026Y-128919102D01*
X141027801Y-128946345D01*
X140972719Y-128970783D01*
X140924626Y-128992038D01*
X140884366Y-129009729D01*
X140852785Y-129023476D01*
X140830727Y-129032901D01*
X140819037Y-129037621D01*
X140818325Y-129037869D01*
X140740402Y-129059284D01*
X140668433Y-129069736D01*
X140601918Y-129069197D01*
X140540357Y-129057643D01*
X140483251Y-129035047D01*
X140455244Y-129018984D01*
X140417500Y-128991916D01*
X140377087Y-128957942D01*
X140338173Y-128920856D01*
X140304928Y-128884453D01*
X140297851Y-128875726D01*
X140259259Y-128820633D01*
X140226363Y-128759847D01*
X140217447Y-128740417D01*
X140206258Y-128713706D01*
X140195924Y-128686434D01*
X140187338Y-128661312D01*
X140181398Y-128641050D01*
X140179002Y-128628359D01*
X140179469Y-128625635D01*
X140186879Y-128621867D01*
X140204046Y-128614875D01*
X140228973Y-128605362D01*
X140259664Y-128594030D01*
X140294125Y-128581583D01*
X140330359Y-128568724D01*
X140366370Y-128556157D01*
X140400162Y-128544585D01*
X140429739Y-128534711D01*
X140453105Y-128527239D01*
X140468264Y-128522871D01*
X140473211Y-128522131D01*
X140477274Y-128529982D01*
X140483478Y-128545937D01*
X140488185Y-128559628D01*
X140509686Y-128611053D01*
X140537434Y-128654335D01*
X140570273Y-128687883D01*
X140591943Y-128702680D01*
X140613411Y-128710466D01*
X140640253Y-128714320D01*
X140667386Y-128714055D01*
X140689725Y-128709485D01*
X140696023Y-128706507D01*
X140700842Y-128699238D01*
X140710622Y-128680280D01*
X140725363Y-128649633D01*
X140745065Y-128607301D01*
X140769727Y-128553282D01*
X140799349Y-128487580D01*
X140833928Y-128410195D01*
X140873468Y-128321128D01*
X140917964Y-128220380D01*
X140967419Y-128107953D01*
X140999407Y-128035037D01*
X141037531Y-127948098D01*
X141074269Y-127864412D01*
X141109296Y-127784712D01*
X141142286Y-127709733D01*
X141172917Y-127640212D01*
X141200860Y-127576882D01*
X141225794Y-127520481D01*
X141247391Y-127471740D01*
X141265330Y-127431398D01*
X141279283Y-127400188D01*
X141288926Y-127378847D01*
X141293935Y-127368108D01*
X141294570Y-127366945D01*
X141300038Y-127370217D01*
X141313557Y-127381973D01*
X141334402Y-127401512D01*
X141361845Y-127428140D01*
X141395162Y-127461160D01*
X141433626Y-127499875D01*
X141444234Y-127510638D01*
X141589729Y-127658501D01*
X141159324Y-128519302D01*
X141461233Y-128364193D01*
X141523722Y-128332077D01*
X141586935Y-128299568D01*
X141649173Y-128267542D01*
X141708743Y-128236869D01*
X141763949Y-128208423D01*
X141813097Y-128183079D01*
X141854492Y-128161707D01*
X141886438Y-128145182D01*
X141888831Y-128143943D01*
X142014519Y-128078802D01*
X142159462Y-128223744D01*
X142194463Y-128258851D01*
G36*
X133934802Y-119968419D02*
X133987428Y-120038973D01*
X134028610Y-120110566D01*
X134058925Y-120184487D01*
X134078955Y-120262029D01*
X134089280Y-120344482D01*
X134091001Y-120389292D01*
X134091663Y-120445606D01*
X134037672Y-120446596D01*
X134013577Y-120447143D01*
X133980015Y-120448052D01*
X133940211Y-120449226D01*
X133897390Y-120450573D01*
X133860122Y-120451813D01*
X133736564Y-120456043D01*
X133733684Y-120397391D01*
X133727801Y-120334140D01*
X133716239Y-120279945D01*
X133698010Y-120232062D01*
X133672126Y-120187744D01*
X133646117Y-120154036D01*
X133600263Y-120108950D01*
X133549086Y-120075391D01*
X133492698Y-120053411D01*
X133431216Y-120043060D01*
X133395080Y-120042347D01*
X133329123Y-120049878D01*
X133267358Y-120068740D01*
X133208958Y-120099311D01*
X133153100Y-120141969D01*
X133129815Y-120163965D01*
X133082941Y-120218666D01*
X133047315Y-120277468D01*
X133023344Y-120339446D01*
X133011436Y-120403672D01*
X133010126Y-120435291D01*
X133015242Y-120494818D01*
X133030430Y-120549158D01*
X133056448Y-120600010D01*
X133094051Y-120649072D01*
X133114973Y-120671038D01*
X133161637Y-120710392D01*
X133213565Y-120740525D01*
X133272375Y-120762136D01*
X133339684Y-120775924D01*
X133364961Y-120778971D01*
X133389720Y-120781612D01*
X133410497Y-120784041D01*
X133423205Y-120785778D01*
X133423986Y-120785916D01*
X133427459Y-120789167D01*
X133430070Y-120798269D01*
X133431884Y-120814438D01*
X133432965Y-120838892D01*
X133433378Y-120872846D01*
X133433188Y-120917516D01*
X133432793Y-120951296D01*
X133430564Y-121114621D01*
X133378202Y-121115031D01*
X133307030Y-121112027D01*
X133234633Y-121102426D01*
X133164555Y-121086970D01*
X133100339Y-121066405D01*
X133057334Y-121047665D01*
X133009405Y-121019916D01*
X132958035Y-120983712D01*
X132906138Y-120941596D01*
X132856628Y-120896110D01*
X132812418Y-120849796D01*
X132776422Y-120805194D01*
X132771696Y-120798499D01*
X132723314Y-120718125D01*
X132685697Y-120633376D01*
X132659205Y-120545676D01*
X132644193Y-120456452D01*
X132641017Y-120367130D01*
X132646800Y-120299633D01*
X132665650Y-120209015D01*
X132695543Y-120123027D01*
X132735587Y-120042389D01*
X132784889Y-119967819D01*
X132842555Y-119900035D01*
X132907692Y-119839756D01*
X132979407Y-119787700D01*
X133056805Y-119744586D01*
X133138994Y-119711131D01*
X133225080Y-119688055D01*
X133314171Y-119676076D01*
X133405371Y-119675912D01*
X133420936Y-119677104D01*
X133511519Y-119690878D01*
X133597467Y-119715985D01*
X133679305Y-119752682D01*
X133757560Y-119801228D01*
X133832757Y-119861881D01*
X133870151Y-119897610D01*
X133934802Y-119968419D01*
X133934802Y-119968419D01*
G37*
X133934802Y-119968419D02*
X133987428Y-120038973D01*
X134028610Y-120110566D01*
X134058925Y-120184487D01*
X134078955Y-120262029D01*
X134089280Y-120344482D01*
X134091001Y-120389292D01*
X134091663Y-120445606D01*
X134037672Y-120446596D01*
X134013577Y-120447143D01*
X133980015Y-120448052D01*
X133940211Y-120449226D01*
X133897390Y-120450573D01*
X133860122Y-120451813D01*
X133736564Y-120456043D01*
X133733684Y-120397391D01*
X133727801Y-120334140D01*
X133716239Y-120279945D01*
X133698010Y-120232062D01*
X133672126Y-120187744D01*
X133646117Y-120154036D01*
X133600263Y-120108950D01*
X133549086Y-120075391D01*
X133492698Y-120053411D01*
X133431216Y-120043060D01*
X133395080Y-120042347D01*
X133329123Y-120049878D01*
X133267358Y-120068740D01*
X133208958Y-120099311D01*
X133153100Y-120141969D01*
X133129815Y-120163965D01*
X133082941Y-120218666D01*
X133047315Y-120277468D01*
X133023344Y-120339446D01*
X133011436Y-120403672D01*
X133010126Y-120435291D01*
X133015242Y-120494818D01*
X133030430Y-120549158D01*
X133056448Y-120600010D01*
X133094051Y-120649072D01*
X133114973Y-120671038D01*
X133161637Y-120710392D01*
X133213565Y-120740525D01*
X133272375Y-120762136D01*
X133339684Y-120775924D01*
X133364961Y-120778971D01*
X133389720Y-120781612D01*
X133410497Y-120784041D01*
X133423205Y-120785778D01*
X133423986Y-120785916D01*
X133427459Y-120789167D01*
X133430070Y-120798269D01*
X133431884Y-120814438D01*
X133432965Y-120838892D01*
X133433378Y-120872846D01*
X133433188Y-120917516D01*
X133432793Y-120951296D01*
X133430564Y-121114621D01*
X133378202Y-121115031D01*
X133307030Y-121112027D01*
X133234633Y-121102426D01*
X133164555Y-121086970D01*
X133100339Y-121066405D01*
X133057334Y-121047665D01*
X133009405Y-121019916D01*
X132958035Y-120983712D01*
X132906138Y-120941596D01*
X132856628Y-120896110D01*
X132812418Y-120849796D01*
X132776422Y-120805194D01*
X132771696Y-120798499D01*
X132723314Y-120718125D01*
X132685697Y-120633376D01*
X132659205Y-120545676D01*
X132644193Y-120456452D01*
X132641017Y-120367130D01*
X132646800Y-120299633D01*
X132665650Y-120209015D01*
X132695543Y-120123027D01*
X132735587Y-120042389D01*
X132784889Y-119967819D01*
X132842555Y-119900035D01*
X132907692Y-119839756D01*
X132979407Y-119787700D01*
X133056805Y-119744586D01*
X133138994Y-119711131D01*
X133225080Y-119688055D01*
X133314171Y-119676076D01*
X133405371Y-119675912D01*
X133420936Y-119677104D01*
X133511519Y-119690878D01*
X133597467Y-119715985D01*
X133679305Y-119752682D01*
X133757560Y-119801228D01*
X133832757Y-119861881D01*
X133870151Y-119897610D01*
X133934802Y-119968419D01*
G36*
X134861312Y-120890522D02*
X134893654Y-120928485D01*
X134914481Y-120956381D01*
X134965227Y-121040749D01*
X135004273Y-121127956D01*
X135031544Y-121217148D01*
X135046966Y-121307470D01*
X135050462Y-121398063D01*
X135041959Y-121488073D01*
X135021380Y-121576644D01*
X134988651Y-121662918D01*
X134978260Y-121684631D01*
X134933462Y-121761090D01*
X134878773Y-121832109D01*
X134815735Y-121896346D01*
X134745890Y-121952458D01*
X134670777Y-121999102D01*
X134591938Y-122034936D01*
X134565913Y-122043985D01*
X134472213Y-122067710D01*
X134378409Y-122078798D01*
X134284923Y-122077298D01*
X134192178Y-122063262D01*
X134100599Y-122036739D01*
X134010609Y-121997781D01*
X133963190Y-121971807D01*
X133938093Y-121956455D01*
X133916014Y-121941373D01*
X133894227Y-121924387D01*
X133870006Y-121903328D01*
X133840624Y-121876025D01*
X133829034Y-121864991D01*
X133787701Y-121824315D01*
X133755409Y-121789841D01*
X133730955Y-121760257D01*
X133723150Y-121749571D01*
X133671816Y-121666070D01*
X133632266Y-121579574D01*
X133604481Y-121490981D01*
X133588440Y-121401191D01*
X133584119Y-121311104D01*
X133591500Y-121221618D01*
X133610558Y-121133632D01*
X133641274Y-121048047D01*
X133683626Y-120965758D01*
X133737592Y-120887670D01*
X133743848Y-120879853D01*
X133789024Y-120831255D01*
X134064006Y-121106237D01*
X134022372Y-121157611D01*
X133989819Y-121214142D01*
X133967470Y-121274399D01*
X133956457Y-121336941D01*
X133955710Y-121349681D01*
X133956350Y-121403052D01*
X133963334Y-121450088D01*
X133977523Y-121495905D01*
X133982404Y-121508022D01*
X134005303Y-121550193D01*
X134037468Y-121592378D01*
X134075855Y-121631464D01*
X134117421Y-121664337D01*
X134157394Y-121687113D01*
X134219903Y-121708871D01*
X134282622Y-121718294D01*
X134344686Y-121715328D01*
X134399908Y-121701804D01*
X134448544Y-121682434D01*
X134490186Y-121659323D01*
X134529250Y-121629680D01*
X134561179Y-121599820D01*
X134608609Y-121545179D01*
X134643720Y-121488212D01*
X134666776Y-121428322D01*
X134678039Y-121364910D01*
X134679330Y-121331365D01*
X134672996Y-121264632D01*
X134655147Y-121202269D01*
X134626501Y-121145231D01*
X134587776Y-121094475D01*
X134539688Y-121050957D01*
X134482957Y-121015631D01*
X134423949Y-120991256D01*
X134392160Y-120984654D01*
X134352797Y-120982068D01*
X134310286Y-120983352D01*
X134269051Y-120988365D01*
X134233521Y-120996964D01*
X134232116Y-120997438D01*
X134170005Y-121024714D01*
X134113593Y-121061460D01*
X134064006Y-121106237D01*
X133789024Y-120831255D01*
X133805457Y-120813576D01*
X133875591Y-120755408D01*
X133952535Y-120706384D01*
X134034571Y-120667538D01*
X134119985Y-120639902D01*
X134155165Y-120632131D01*
X134198737Y-120626059D01*
X134249815Y-120622505D01*
X134303437Y-120621569D01*
X134354639Y-120623358D01*
X134392900Y-120627146D01*
X134467509Y-120642572D01*
X134544747Y-120667607D01*
X134620987Y-120700806D01*
X134692598Y-120740727D01*
X134714242Y-120754890D01*
X134747758Y-120780422D01*
X134785411Y-120813520D01*
X134824247Y-120851210D01*
X134861312Y-120890522D01*
X134861312Y-120890522D01*
G37*
X134861312Y-120890522D02*
X134893654Y-120928485D01*
X134914481Y-120956381D01*
X134965227Y-121040749D01*
X135004273Y-121127956D01*
X135031544Y-121217148D01*
X135046966Y-121307470D01*
X135050462Y-121398063D01*
X135041959Y-121488073D01*
X135021380Y-121576644D01*
X134988651Y-121662918D01*
X134978260Y-121684631D01*
X134933462Y-121761090D01*
X134878773Y-121832109D01*
X134815735Y-121896346D01*
X134745890Y-121952458D01*
X134670777Y-121999102D01*
X134591938Y-122034936D01*
X134565913Y-122043985D01*
X134472213Y-122067710D01*
X134378409Y-122078798D01*
X134284923Y-122077298D01*
X134192178Y-122063262D01*
X134100599Y-122036739D01*
X134010609Y-121997781D01*
X133963190Y-121971807D01*
X133938093Y-121956455D01*
X133916014Y-121941373D01*
X133894227Y-121924387D01*
X133870006Y-121903328D01*
X133840624Y-121876025D01*
X133829034Y-121864991D01*
X133787701Y-121824315D01*
X133755409Y-121789841D01*
X133730955Y-121760257D01*
X133723150Y-121749571D01*
X133671816Y-121666070D01*
X133632266Y-121579574D01*
X133604481Y-121490981D01*
X133588440Y-121401191D01*
X133584119Y-121311104D01*
X133591500Y-121221618D01*
X133610558Y-121133632D01*
X133641274Y-121048047D01*
X133683626Y-120965758D01*
X133737592Y-120887670D01*
X133743848Y-120879853D01*
X133789024Y-120831255D01*
X134064006Y-121106237D01*
X134022372Y-121157611D01*
X133989819Y-121214142D01*
X133967470Y-121274399D01*
X133956457Y-121336941D01*
X133955710Y-121349681D01*
X133956350Y-121403052D01*
X133963334Y-121450088D01*
X133977523Y-121495905D01*
X133982404Y-121508022D01*
X134005303Y-121550193D01*
X134037468Y-121592378D01*
X134075855Y-121631464D01*
X134117421Y-121664337D01*
X134157394Y-121687113D01*
X134219903Y-121708871D01*
X134282622Y-121718294D01*
X134344686Y-121715328D01*
X134399908Y-121701804D01*
X134448544Y-121682434D01*
X134490186Y-121659323D01*
X134529250Y-121629680D01*
X134561179Y-121599820D01*
X134608609Y-121545179D01*
X134643720Y-121488212D01*
X134666776Y-121428322D01*
X134678039Y-121364910D01*
X134679330Y-121331365D01*
X134672996Y-121264632D01*
X134655147Y-121202269D01*
X134626501Y-121145231D01*
X134587776Y-121094475D01*
X134539688Y-121050957D01*
X134482957Y-121015631D01*
X134423949Y-120991256D01*
X134392160Y-120984654D01*
X134352797Y-120982068D01*
X134310286Y-120983352D01*
X134269051Y-120988365D01*
X134233521Y-120996964D01*
X134232116Y-120997438D01*
X134170005Y-121024714D01*
X134113593Y-121061460D01*
X134064006Y-121106237D01*
X133789024Y-120831255D01*
X133805457Y-120813576D01*
X133875591Y-120755408D01*
X133952535Y-120706384D01*
X134034571Y-120667538D01*
X134119985Y-120639902D01*
X134155165Y-120632131D01*
X134198737Y-120626059D01*
X134249815Y-120622505D01*
X134303437Y-120621569D01*
X134354639Y-120623358D01*
X134392900Y-120627146D01*
X134467509Y-120642572D01*
X134544747Y-120667607D01*
X134620987Y-120700806D01*
X134692598Y-120740727D01*
X134714242Y-120754890D01*
X134747758Y-120780422D01*
X134785411Y-120813520D01*
X134824247Y-120851210D01*
X134861312Y-120890522D01*
G36*
X137861723Y-123892916D02*
X137895429Y-123931893D01*
X137923700Y-123968277D01*
X137942711Y-123997083D01*
X137981539Y-124076052D01*
X138008103Y-124157628D01*
X138022438Y-124241263D01*
X138024580Y-124326411D01*
X138014568Y-124412523D01*
X137992436Y-124499051D01*
X137958223Y-124585449D01*
X137911962Y-124671167D01*
X137895973Y-124696317D01*
X137881586Y-124716316D01*
X137861694Y-124741411D01*
X137837923Y-124769807D01*
X137811899Y-124799704D01*
X137785251Y-124829305D01*
X137759604Y-124856811D01*
X137736588Y-124880426D01*
X137717827Y-124898350D01*
X137704950Y-124908785D01*
X137702390Y-124910227D01*
X137699914Y-124910559D01*
X137696235Y-124909316D01*
X137690740Y-124905907D01*
X137682819Y-124899751D01*
X137671859Y-124890260D01*
X137657246Y-124876849D01*
X137638369Y-124858932D01*
X137614615Y-124835922D01*
X137585373Y-124807236D01*
X137550030Y-124772286D01*
X137507974Y-124730486D01*
X137458592Y-124681252D01*
X137401273Y-124623997D01*
X137358048Y-124580784D01*
X137304152Y-124526916D01*
X137252922Y-124475771D01*
X137205055Y-124428041D01*
X137161254Y-124384422D01*
X137122216Y-124345608D01*
X137088640Y-124312293D01*
X137061226Y-124285172D01*
X137040673Y-124264940D01*
X137027680Y-124252291D01*
X137022947Y-124247918D01*
X137022940Y-124247920D01*
X137015847Y-124259056D01*
X137006211Y-124278481D01*
X136995668Y-124302493D01*
X136985853Y-124327386D01*
X136978966Y-124347567D01*
X136967462Y-124406104D01*
X136968432Y-124464333D01*
X136981657Y-124521610D01*
X137006912Y-124577294D01*
X137043977Y-124630742D01*
X137092633Y-124681313D01*
X137094650Y-124683118D01*
X137150329Y-124725466D01*
X137211196Y-124757542D01*
X137278631Y-124779923D01*
X137354013Y-124793185D01*
X137360254Y-124793850D01*
X137406182Y-124798543D01*
X137415712Y-124945522D01*
X137418236Y-124987515D01*
X137420125Y-125025273D01*
X137421318Y-125056953D01*
X137421756Y-125080713D01*
X137421374Y-125094708D01*
X137420761Y-125097620D01*
X137412198Y-125100109D01*
X137393592Y-125101521D01*
X137367545Y-125101939D01*
X137336660Y-125101439D01*
X137303542Y-125100104D01*
X137270793Y-125098013D01*
X137241017Y-125095246D01*
X137216817Y-125091883D01*
X137213326Y-125091234D01*
X137128278Y-125068251D01*
X137045208Y-125033105D01*
X136965233Y-124986308D01*
X136932124Y-124962769D01*
X136903112Y-124938852D01*
X136869575Y-124907838D01*
X136834540Y-124872835D01*
X136801039Y-124836953D01*
X136772101Y-124803303D01*
X136754589Y-124780527D01*
X136703952Y-124699572D01*
X136665670Y-124616069D01*
X136639557Y-124529468D01*
X136625428Y-124439217D01*
X136622754Y-124390618D01*
X136626939Y-124298469D01*
X136643541Y-124208783D01*
X136672458Y-124121893D01*
X136713585Y-124038132D01*
X136749682Y-123981398D01*
X136773151Y-123951247D01*
X136803984Y-123916524D01*
X136839368Y-123879993D01*
X136876491Y-123844418D01*
X136912539Y-123812560D01*
X136927919Y-123800424D01*
X137195479Y-124067985D01*
X137397115Y-124269621D01*
X137445002Y-124317472D01*
X137484731Y-124357057D01*
X137517101Y-124389112D01*
X137542908Y-124414375D01*
X137562951Y-124433586D01*
X137578028Y-124447481D01*
X137588936Y-124456798D01*
X137596473Y-124462274D01*
X137601438Y-124464649D01*
X137604626Y-124464661D01*
X137606555Y-124463345D01*
X137617864Y-124448458D01*
X137631525Y-124425508D01*
X137645475Y-124398340D01*
X137657649Y-124370796D01*
X137661172Y-124361603D01*
X137676914Y-124303566D01*
X137680528Y-124248468D01*
X137671981Y-124195382D01*
X137653748Y-124148321D01*
X137642681Y-124127914D01*
X137630364Y-124110250D01*
X137614036Y-124091909D01*
X137590931Y-124069474D01*
X137587292Y-124066084D01*
X137563833Y-124044876D01*
X137545639Y-124030390D01*
X137529077Y-124020276D01*
X137510522Y-124012190D01*
X137495931Y-124006996D01*
X137442069Y-123995271D01*
X137384792Y-123995171D01*
X137325270Y-124006482D01*
X137264679Y-124028986D01*
X137207830Y-124060129D01*
X137195479Y-124067985D01*
X136927919Y-123800424D01*
X136944700Y-123787184D01*
X136953959Y-123780718D01*
X137037762Y-123731507D01*
X137123946Y-123694111D01*
X137211676Y-123668548D01*
X137300121Y-123654835D01*
X137388448Y-123652995D01*
X137475823Y-123663043D01*
X137561416Y-123685000D01*
X137644392Y-123718884D01*
X137722004Y-123763438D01*
X137752723Y-123786609D01*
X137787898Y-123817657D01*
X137825055Y-123853964D01*
X137861723Y-123892916D01*
X137861723Y-123892916D01*
G37*
X137861723Y-123892916D02*
X137895429Y-123931893D01*
X137923700Y-123968277D01*
X137942711Y-123997083D01*
X137981539Y-124076052D01*
X138008103Y-124157628D01*
X138022438Y-124241263D01*
X138024580Y-124326411D01*
X138014568Y-124412523D01*
X137992436Y-124499051D01*
X137958223Y-124585449D01*
X137911962Y-124671167D01*
X137895973Y-124696317D01*
X137881586Y-124716316D01*
X137861694Y-124741411D01*
X137837923Y-124769807D01*
X137811899Y-124799704D01*
X137785251Y-124829305D01*
X137759604Y-124856811D01*
X137736588Y-124880426D01*
X137717827Y-124898350D01*
X137704950Y-124908785D01*
X137702390Y-124910227D01*
X137699914Y-124910559D01*
X137696235Y-124909316D01*
X137690740Y-124905907D01*
X137682819Y-124899751D01*
X137671859Y-124890260D01*
X137657246Y-124876849D01*
X137638369Y-124858932D01*
X137614615Y-124835922D01*
X137585373Y-124807236D01*
X137550030Y-124772286D01*
X137507974Y-124730486D01*
X137458592Y-124681252D01*
X137401273Y-124623997D01*
X137358048Y-124580784D01*
X137304152Y-124526916D01*
X137252922Y-124475771D01*
X137205055Y-124428041D01*
X137161254Y-124384422D01*
X137122216Y-124345608D01*
X137088640Y-124312293D01*
X137061226Y-124285172D01*
X137040673Y-124264940D01*
X137027680Y-124252291D01*
X137022947Y-124247918D01*
X137022940Y-124247920D01*
X137015847Y-124259056D01*
X137006211Y-124278481D01*
X136995668Y-124302493D01*
X136985853Y-124327386D01*
X136978966Y-124347567D01*
X136967462Y-124406104D01*
X136968432Y-124464333D01*
X136981657Y-124521610D01*
X137006912Y-124577294D01*
X137043977Y-124630742D01*
X137092633Y-124681313D01*
X137094650Y-124683118D01*
X137150329Y-124725466D01*
X137211196Y-124757542D01*
X137278631Y-124779923D01*
X137354013Y-124793185D01*
X137360254Y-124793850D01*
X137406182Y-124798543D01*
X137415712Y-124945522D01*
X137418236Y-124987515D01*
X137420125Y-125025273D01*
X137421318Y-125056953D01*
X137421756Y-125080713D01*
X137421374Y-125094708D01*
X137420761Y-125097620D01*
X137412198Y-125100109D01*
X137393592Y-125101521D01*
X137367545Y-125101939D01*
X137336660Y-125101439D01*
X137303542Y-125100104D01*
X137270793Y-125098013D01*
X137241017Y-125095246D01*
X137216817Y-125091883D01*
X137213326Y-125091234D01*
X137128278Y-125068251D01*
X137045208Y-125033105D01*
X136965233Y-124986308D01*
X136932124Y-124962769D01*
X136903112Y-124938852D01*
X136869575Y-124907838D01*
X136834540Y-124872835D01*
X136801039Y-124836953D01*
X136772101Y-124803303D01*
X136754589Y-124780527D01*
X136703952Y-124699572D01*
X136665670Y-124616069D01*
X136639557Y-124529468D01*
X136625428Y-124439217D01*
X136622754Y-124390618D01*
X136626939Y-124298469D01*
X136643541Y-124208783D01*
X136672458Y-124121893D01*
X136713585Y-124038132D01*
X136749682Y-123981398D01*
X136773151Y-123951247D01*
X136803984Y-123916524D01*
X136839368Y-123879993D01*
X136876491Y-123844418D01*
X136912539Y-123812560D01*
X136927919Y-123800424D01*
X137195479Y-124067985D01*
X137397115Y-124269621D01*
X137445002Y-124317472D01*
X137484731Y-124357057D01*
X137517101Y-124389112D01*
X137542908Y-124414375D01*
X137562951Y-124433586D01*
X137578028Y-124447481D01*
X137588936Y-124456798D01*
X137596473Y-124462274D01*
X137601438Y-124464649D01*
X137604626Y-124464661D01*
X137606555Y-124463345D01*
X137617864Y-124448458D01*
X137631525Y-124425508D01*
X137645475Y-124398340D01*
X137657649Y-124370796D01*
X137661172Y-124361603D01*
X137676914Y-124303566D01*
X137680528Y-124248468D01*
X137671981Y-124195382D01*
X137653748Y-124148321D01*
X137642681Y-124127914D01*
X137630364Y-124110250D01*
X137614036Y-124091909D01*
X137590931Y-124069474D01*
X137587292Y-124066084D01*
X137563833Y-124044876D01*
X137545639Y-124030390D01*
X137529077Y-124020276D01*
X137510522Y-124012190D01*
X137495931Y-124006996D01*
X137442069Y-123995271D01*
X137384792Y-123995171D01*
X137325270Y-124006482D01*
X137264679Y-124028986D01*
X137207830Y-124060129D01*
X137195479Y-124067985D01*
X136927919Y-123800424D01*
X136944700Y-123787184D01*
X136953959Y-123780718D01*
X137037762Y-123731507D01*
X137123946Y-123694111D01*
X137211676Y-123668548D01*
X137300121Y-123654835D01*
X137388448Y-123652995D01*
X137475823Y-123663043D01*
X137561416Y-123685000D01*
X137644392Y-123718884D01*
X137722004Y-123763438D01*
X137752723Y-123786609D01*
X137787898Y-123817657D01*
X137825055Y-123853964D01*
X137861723Y-123892916D01*
G36*
X136907501Y-122941296D02*
X136962889Y-123010276D01*
X137013529Y-123088118D01*
X137058740Y-123174404D01*
X137060294Y-123177741D01*
X137071632Y-123204198D01*
X137083557Y-123235401D01*
X137095264Y-123268796D01*
X137105943Y-123301831D01*
X137114787Y-123331956D01*
X137120989Y-123356619D01*
X137123742Y-123373268D01*
X137123586Y-123377732D01*
X137117624Y-123382896D01*
X137101280Y-123390274D01*
X137074072Y-123400038D01*
X137035520Y-123412357D01*
X136985145Y-123427404D01*
X136978718Y-123429275D01*
X136938247Y-123441003D01*
X136901952Y-123451474D01*
X136871572Y-123460191D01*
X136848851Y-123466654D01*
X136835531Y-123470365D01*
X136832771Y-123471065D01*
X136829611Y-123465543D01*
X136823125Y-123450061D01*
X136814113Y-123426670D01*
X136803378Y-123397418D01*
X136797235Y-123380158D01*
X136783842Y-123343532D01*
X136769562Y-123306814D01*
X136755895Y-123273727D01*
X136744345Y-123247992D01*
X136741851Y-123242918D01*
X136712649Y-123191603D01*
X136681288Y-123148108D01*
X136648677Y-123113014D01*
X136615726Y-123086899D01*
X136583346Y-123070346D01*
X136552446Y-123063932D01*
X136523937Y-123068239D01*
X136498730Y-123083847D01*
X136496163Y-123086313D01*
X136480741Y-123106915D01*
X136474800Y-123130048D01*
X136476485Y-123156350D01*
X136485292Y-123192264D01*
X136501281Y-123237956D01*
X136524516Y-123293601D01*
X136555056Y-123359366D01*
X136563984Y-123377702D01*
X136598837Y-123451264D01*
X136626659Y-123515880D01*
X136647921Y-123572851D01*
X136663092Y-123623481D01*
X136672642Y-123669071D01*
X136674829Y-123684783D01*
X136678149Y-123750499D01*
X136671201Y-123810165D01*
X136653425Y-123865357D01*
X136624257Y-123917650D01*
X136583140Y-123968621D01*
X136568414Y-123983866D01*
X136510226Y-124034315D01*
X136449242Y-124072435D01*
X136385766Y-124098212D01*
X136320106Y-124111635D01*
X136252569Y-124112689D01*
X136183458Y-124101361D01*
X136113083Y-124077636D01*
X136041750Y-124041503D01*
X135991935Y-124009191D01*
X135968470Y-123990924D01*
X135939530Y-123965889D01*
X135907920Y-123936769D01*
X135876444Y-123906251D01*
X135847910Y-123877019D01*
X135825121Y-123851757D01*
X135817017Y-123841792D01*
X135773159Y-123779082D01*
X135731754Y-123708937D01*
X135695492Y-123636291D01*
X135667746Y-123568019D01*
X135659262Y-123541770D01*
X135650356Y-123510390D01*
X135641633Y-123476520D01*
X135633701Y-123442807D01*
X135627165Y-123411894D01*
X135622631Y-123386427D01*
X135620705Y-123369050D01*
X135620980Y-123363888D01*
X135627249Y-123361021D01*
X135643869Y-123356098D01*
X135668739Y-123349591D01*
X135699763Y-123341972D01*
X135734843Y-123333713D01*
X135771885Y-123325287D01*
X135808788Y-123317168D01*
X135843456Y-123309824D01*
X135873792Y-123303730D01*
X135897700Y-123299358D01*
X135913081Y-123297180D01*
X135917409Y-123297138D01*
X135920946Y-123303486D01*
X135926356Y-123319749D01*
X135932887Y-123343418D01*
X135939354Y-123370100D01*
X135962394Y-123453112D01*
X135992284Y-123531932D01*
X136027528Y-123602611D01*
X136027618Y-123602767D01*
X136042714Y-123627280D01*
X136059343Y-123649982D01*
X136080078Y-123674054D01*
X136107497Y-123702680D01*
X136112617Y-123707836D01*
X136137421Y-123732418D01*
X136155732Y-123749525D01*
X136169808Y-123760888D01*
X136181902Y-123768239D01*
X136194271Y-123773310D01*
X136200433Y-123775281D01*
X136235487Y-123780275D01*
X136267260Y-123773372D01*
X136294577Y-123754833D01*
X136295130Y-123754286D01*
X136308840Y-123735777D01*
X136315562Y-123713663D01*
X136315107Y-123686723D01*
X136307285Y-123653739D01*
X136291908Y-123613496D01*
X136268786Y-123564773D01*
X136264351Y-123556102D01*
X136235068Y-123499247D01*
X136211014Y-123452350D01*
X136191552Y-123414102D01*
X136176043Y-123383200D01*
X136163849Y-123358337D01*
X136154331Y-123338206D01*
X136146851Y-123321502D01*
X136140770Y-123306918D01*
X136135451Y-123293148D01*
X136134268Y-123289958D01*
X136112107Y-123214357D01*
X136102349Y-123141452D01*
X136102330Y-123101227D01*
X136109124Y-123044625D01*
X136124230Y-122993457D01*
X136148734Y-122945452D01*
X136183723Y-122898341D01*
X136215678Y-122864035D01*
X136262142Y-122821915D01*
X136307415Y-122790030D01*
X136354273Y-122766550D01*
X136375459Y-122758630D01*
X136444239Y-122741671D01*
X136513734Y-122736917D01*
X136583263Y-122743950D01*
X136652141Y-122762352D01*
X136719687Y-122791705D01*
X136785217Y-122831592D01*
X136848050Y-122881595D01*
X136907501Y-122941296D01*
X136907501Y-122941296D01*
G37*
X136907501Y-122941296D02*
X136962889Y-123010276D01*
X137013529Y-123088118D01*
X137058740Y-123174404D01*
X137060294Y-123177741D01*
X137071632Y-123204198D01*
X137083557Y-123235401D01*
X137095264Y-123268796D01*
X137105943Y-123301831D01*
X137114787Y-123331956D01*
X137120989Y-123356619D01*
X137123742Y-123373268D01*
X137123586Y-123377732D01*
X137117624Y-123382896D01*
X137101280Y-123390274D01*
X137074072Y-123400038D01*
X137035520Y-123412357D01*
X136985145Y-123427404D01*
X136978718Y-123429275D01*
X136938247Y-123441003D01*
X136901952Y-123451474D01*
X136871572Y-123460191D01*
X136848851Y-123466654D01*
X136835531Y-123470365D01*
X136832771Y-123471065D01*
X136829611Y-123465543D01*
X136823125Y-123450061D01*
X136814113Y-123426670D01*
X136803378Y-123397418D01*
X136797235Y-123380158D01*
X136783842Y-123343532D01*
X136769562Y-123306814D01*
X136755895Y-123273727D01*
X136744345Y-123247992D01*
X136741851Y-123242918D01*
X136712649Y-123191603D01*
X136681288Y-123148108D01*
X136648677Y-123113014D01*
X136615726Y-123086899D01*
X136583346Y-123070346D01*
X136552446Y-123063932D01*
X136523937Y-123068239D01*
X136498730Y-123083847D01*
X136496163Y-123086313D01*
X136480741Y-123106915D01*
X136474800Y-123130048D01*
X136476485Y-123156350D01*
X136485292Y-123192264D01*
X136501281Y-123237956D01*
X136524516Y-123293601D01*
X136555056Y-123359366D01*
X136563984Y-123377702D01*
X136598837Y-123451264D01*
X136626659Y-123515880D01*
X136647921Y-123572851D01*
X136663092Y-123623481D01*
X136672642Y-123669071D01*
X136674829Y-123684783D01*
X136678149Y-123750499D01*
X136671201Y-123810165D01*
X136653425Y-123865357D01*
X136624257Y-123917650D01*
X136583140Y-123968621D01*
X136568414Y-123983866D01*
X136510226Y-124034315D01*
X136449242Y-124072435D01*
X136385766Y-124098212D01*
X136320106Y-124111635D01*
X136252569Y-124112689D01*
X136183458Y-124101361D01*
X136113083Y-124077636D01*
X136041750Y-124041503D01*
X135991935Y-124009191D01*
X135968470Y-123990924D01*
X135939530Y-123965889D01*
X135907920Y-123936769D01*
X135876444Y-123906251D01*
X135847910Y-123877019D01*
X135825121Y-123851757D01*
X135817017Y-123841792D01*
X135773159Y-123779082D01*
X135731754Y-123708937D01*
X135695492Y-123636291D01*
X135667746Y-123568019D01*
X135659262Y-123541770D01*
X135650356Y-123510390D01*
X135641633Y-123476520D01*
X135633701Y-123442807D01*
X135627165Y-123411894D01*
X135622631Y-123386427D01*
X135620705Y-123369050D01*
X135620980Y-123363888D01*
X135627249Y-123361021D01*
X135643869Y-123356098D01*
X135668739Y-123349591D01*
X135699763Y-123341972D01*
X135734843Y-123333713D01*
X135771885Y-123325287D01*
X135808788Y-123317168D01*
X135843456Y-123309824D01*
X135873792Y-123303730D01*
X135897700Y-123299358D01*
X135913081Y-123297180D01*
X135917409Y-123297138D01*
X135920946Y-123303486D01*
X135926356Y-123319749D01*
X135932887Y-123343418D01*
X135939354Y-123370100D01*
X135962394Y-123453112D01*
X135992284Y-123531932D01*
X136027528Y-123602611D01*
X136027618Y-123602767D01*
X136042714Y-123627280D01*
X136059343Y-123649982D01*
X136080078Y-123674054D01*
X136107497Y-123702680D01*
X136112617Y-123707836D01*
X136137421Y-123732418D01*
X136155732Y-123749525D01*
X136169808Y-123760888D01*
X136181902Y-123768239D01*
X136194271Y-123773310D01*
X136200433Y-123775281D01*
X136235487Y-123780275D01*
X136267260Y-123773372D01*
X136294577Y-123754833D01*
X136295130Y-123754286D01*
X136308840Y-123735777D01*
X136315562Y-123713663D01*
X136315107Y-123686723D01*
X136307285Y-123653739D01*
X136291908Y-123613496D01*
X136268786Y-123564773D01*
X136264351Y-123556102D01*
X136235068Y-123499247D01*
X136211014Y-123452350D01*
X136191552Y-123414102D01*
X136176043Y-123383200D01*
X136163849Y-123358337D01*
X136154331Y-123338206D01*
X136146851Y-123321502D01*
X136140770Y-123306918D01*
X136135451Y-123293148D01*
X136134268Y-123289958D01*
X136112107Y-123214357D01*
X136102349Y-123141452D01*
X136102330Y-123101227D01*
X136109124Y-123044625D01*
X136124230Y-122993457D01*
X136148734Y-122945452D01*
X136183723Y-122898341D01*
X136215678Y-122864035D01*
X136262142Y-122821915D01*
X136307415Y-122790030D01*
X136354273Y-122766550D01*
X136375459Y-122758630D01*
X136444239Y-122741671D01*
X136513734Y-122736917D01*
X136583263Y-122743950D01*
X136652141Y-122762352D01*
X136719687Y-122791705D01*
X136785217Y-122831592D01*
X136848050Y-122881595D01*
X136907501Y-122941296D01*
G36*
X140054784Y-126170703D02*
X140044240Y-126175366D01*
X140022861Y-126184773D01*
X139991447Y-126198575D01*
X139950794Y-126216421D01*
X139901703Y-126237961D01*
X139844970Y-126262846D01*
X139781396Y-126290724D01*
X139711778Y-126321246D01*
X139636915Y-126354061D01*
X139557606Y-126388820D01*
X139474649Y-126425171D01*
X139388843Y-126462766D01*
X139379031Y-126467063D01*
X138738961Y-126747469D01*
X138610949Y-126621842D01*
X138573466Y-126584990D01*
X138544153Y-126555944D01*
X138522074Y-126533661D01*
X138506288Y-126517100D01*
X138495854Y-126505217D01*
X138489836Y-126496971D01*
X138487293Y-126491321D01*
X138487286Y-126487223D01*
X138487962Y-126485384D01*
X138491127Y-126478246D01*
X138499061Y-126460224D01*
X138511439Y-126432062D01*
X138527932Y-126394509D01*
X138548212Y-126348309D01*
X138571952Y-126294210D01*
X138598825Y-126232959D01*
X138628503Y-126165301D01*
X138660658Y-126091983D01*
X138694963Y-126013753D01*
X138731089Y-125931357D01*
X138768711Y-125845540D01*
X138782641Y-125813762D01*
X138820678Y-125727034D01*
X138857328Y-125643558D01*
X138892265Y-125564073D01*
X138925164Y-125489314D01*
X138955698Y-125420018D01*
X138983543Y-125356923D01*
X139008372Y-125300765D01*
X139029861Y-125252281D01*
X139047683Y-125212210D01*
X139061513Y-125181285D01*
X139071026Y-125160247D01*
X139075894Y-125149829D01*
X139076456Y-125148813D01*
X139081915Y-125152089D01*
X139095417Y-125163834D01*
X139116220Y-125183337D01*
X139143587Y-125209890D01*
X139176781Y-125242781D01*
X139215062Y-125281305D01*
X139226111Y-125292515D01*
X139371605Y-125440378D01*
X139160891Y-125861803D01*
X139122714Y-125938369D01*
X139087802Y-126008811D01*
X139056451Y-126072520D01*
X139028954Y-126128881D01*
X139005604Y-126177287D01*
X138986695Y-126217125D01*
X138972519Y-126247786D01*
X138963372Y-126268658D01*
X138959545Y-126279132D01*
X138959727Y-126280277D01*
X138966849Y-126277030D01*
X138984422Y-126268576D01*
X139011528Y-126255364D01*
X139047251Y-126237850D01*
X139090670Y-126216483D01*
X139140871Y-126191717D01*
X139196934Y-126164003D01*
X139257942Y-126133794D01*
X139322978Y-126101541D01*
X139384717Y-126070882D01*
X139800157Y-125864439D01*
X140090466Y-126154748D01*
X140054784Y-126170703D01*
X140054784Y-126170703D01*
G37*
X140054784Y-126170703D02*
X140044240Y-126175366D01*
X140022861Y-126184773D01*
X139991447Y-126198575D01*
X139950794Y-126216421D01*
X139901703Y-126237961D01*
X139844970Y-126262846D01*
X139781396Y-126290724D01*
X139711778Y-126321246D01*
X139636915Y-126354061D01*
X139557606Y-126388820D01*
X139474649Y-126425171D01*
X139388843Y-126462766D01*
X139379031Y-126467063D01*
X138738961Y-126747469D01*
X138610949Y-126621842D01*
X138573466Y-126584990D01*
X138544153Y-126555944D01*
X138522074Y-126533661D01*
X138506288Y-126517100D01*
X138495854Y-126505217D01*
X138489836Y-126496971D01*
X138487293Y-126491321D01*
X138487286Y-126487223D01*
X138487962Y-126485384D01*
X138491127Y-126478246D01*
X138499061Y-126460224D01*
X138511439Y-126432062D01*
X138527932Y-126394509D01*
X138548212Y-126348309D01*
X138571952Y-126294210D01*
X138598825Y-126232959D01*
X138628503Y-126165301D01*
X138660658Y-126091983D01*
X138694963Y-126013753D01*
X138731089Y-125931357D01*
X138768711Y-125845540D01*
X138782641Y-125813762D01*
X138820678Y-125727034D01*
X138857328Y-125643558D01*
X138892265Y-125564073D01*
X138925164Y-125489314D01*
X138955698Y-125420018D01*
X138983543Y-125356923D01*
X139008372Y-125300765D01*
X139029861Y-125252281D01*
X139047683Y-125212210D01*
X139061513Y-125181285D01*
X139071026Y-125160247D01*
X139075894Y-125149829D01*
X139076456Y-125148813D01*
X139081915Y-125152089D01*
X139095417Y-125163834D01*
X139116220Y-125183337D01*
X139143587Y-125209890D01*
X139176781Y-125242781D01*
X139215062Y-125281305D01*
X139226111Y-125292515D01*
X139371605Y-125440378D01*
X139160891Y-125861803D01*
X139122714Y-125938369D01*
X139087802Y-126008811D01*
X139056451Y-126072520D01*
X139028954Y-126128881D01*
X139005604Y-126177287D01*
X138986695Y-126217125D01*
X138972519Y-126247786D01*
X138963372Y-126268658D01*
X138959545Y-126279132D01*
X138959727Y-126280277D01*
X138966849Y-126277030D01*
X138984422Y-126268576D01*
X139011528Y-126255364D01*
X139047251Y-126237850D01*
X139090670Y-126216483D01*
X139140871Y-126191717D01*
X139196934Y-126164003D01*
X139257942Y-126133794D01*
X139322978Y-126101541D01*
X139384717Y-126070882D01*
X139800157Y-125864439D01*
X140090466Y-126154748D01*
X140054784Y-126170703D01*
G36*
X136060883Y-122093996D02*
X136082650Y-122116800D01*
X136098761Y-122135093D01*
X136110973Y-122151005D01*
X136121050Y-122166670D01*
X136130750Y-122184221D01*
X136131194Y-122185066D01*
X136156457Y-122240460D01*
X136172154Y-122293523D01*
X136179442Y-122348727D01*
X136180281Y-122374778D01*
X136174431Y-122447209D01*
X136156000Y-122518629D01*
X136125083Y-122588758D01*
X136084581Y-122653444D01*
X136075214Y-122664642D01*
X136057181Y-122684331D01*
X136030881Y-122712106D01*
X135996711Y-122747557D01*
X135955066Y-122790281D01*
X135906344Y-122839868D01*
X135850943Y-122895911D01*
X135789258Y-122958005D01*
X135721686Y-123025741D01*
X135719690Y-123027738D01*
X135378518Y-123369066D01*
X135238071Y-123230990D01*
X135097622Y-123092915D01*
X135390846Y-122799691D01*
X135452049Y-122738461D01*
X135504920Y-122685454D01*
X135550118Y-122639921D01*
X135588303Y-122601118D01*
X135620134Y-122568297D01*
X135646271Y-122540712D01*
X135667373Y-122517615D01*
X135684099Y-122498260D01*
X135697110Y-122481901D01*
X135707065Y-122467791D01*
X135714622Y-122455183D01*
X135720443Y-122443331D01*
X135725186Y-122431488D01*
X135729510Y-122418908D01*
X135730867Y-122414750D01*
X135738735Y-122371606D01*
X135736392Y-122325199D01*
X135726215Y-122285493D01*
X135718939Y-122267260D01*
X135710624Y-122251997D01*
X135699012Y-122236566D01*
X135681845Y-122217832D01*
X135665744Y-122201504D01*
X135642920Y-122179216D01*
X135625547Y-122164036D01*
X135610499Y-122153710D01*
X135594649Y-122145981D01*
X135582021Y-122141133D01*
X135533817Y-122128459D01*
X135488825Y-122126978D01*
X135452350Y-122134078D01*
X135438211Y-122138341D01*
X135425324Y-122142703D01*
X135412933Y-122147823D01*
X135400279Y-122154359D01*
X135386605Y-122162969D01*
X135371152Y-122174311D01*
X135353165Y-122189043D01*
X135331885Y-122207823D01*
X135306553Y-122231308D01*
X135276413Y-122260159D01*
X135240707Y-122295031D01*
X135198678Y-122336585D01*
X135149568Y-122385475D01*
X135092618Y-122442363D01*
X135060885Y-122474093D01*
X134769970Y-122765008D01*
X134491582Y-122486620D01*
X135456960Y-121521242D01*
X135735348Y-121799630D01*
X135673600Y-121861361D01*
X135611853Y-121923093D01*
X135698475Y-121924402D01*
X135753310Y-121926574D01*
X135799387Y-121931769D01*
X135840451Y-121940743D01*
X135880239Y-121954255D01*
X135910400Y-121967312D01*
X135927573Y-121975588D01*
X135942023Y-121983649D01*
X135955829Y-121993161D01*
X135971071Y-122005792D01*
X135989825Y-122023206D01*
X136014170Y-122047070D01*
X136031696Y-122064548D01*
X136060883Y-122093996D01*
X136060883Y-122093996D01*
G37*
X136060883Y-122093996D02*
X136082650Y-122116800D01*
X136098761Y-122135093D01*
X136110973Y-122151005D01*
X136121050Y-122166670D01*
X136130750Y-122184221D01*
X136131194Y-122185066D01*
X136156457Y-122240460D01*
X136172154Y-122293523D01*
X136179442Y-122348727D01*
X136180281Y-122374778D01*
X136174431Y-122447209D01*
X136156000Y-122518629D01*
X136125083Y-122588758D01*
X136084581Y-122653444D01*
X136075214Y-122664642D01*
X136057181Y-122684331D01*
X136030881Y-122712106D01*
X135996711Y-122747557D01*
X135955066Y-122790281D01*
X135906344Y-122839868D01*
X135850943Y-122895911D01*
X135789258Y-122958005D01*
X135721686Y-123025741D01*
X135719690Y-123027738D01*
X135378518Y-123369066D01*
X135238071Y-123230990D01*
X135097622Y-123092915D01*
X135390846Y-122799691D01*
X135452049Y-122738461D01*
X135504920Y-122685454D01*
X135550118Y-122639921D01*
X135588303Y-122601118D01*
X135620134Y-122568297D01*
X135646271Y-122540712D01*
X135667373Y-122517615D01*
X135684099Y-122498260D01*
X135697110Y-122481901D01*
X135707065Y-122467791D01*
X135714622Y-122455183D01*
X135720443Y-122443331D01*
X135725186Y-122431488D01*
X135729510Y-122418908D01*
X135730867Y-122414750D01*
X135738735Y-122371606D01*
X135736392Y-122325199D01*
X135726215Y-122285493D01*
X135718939Y-122267260D01*
X135710624Y-122251997D01*
X135699012Y-122236566D01*
X135681845Y-122217832D01*
X135665744Y-122201504D01*
X135642920Y-122179216D01*
X135625547Y-122164036D01*
X135610499Y-122153710D01*
X135594649Y-122145981D01*
X135582021Y-122141133D01*
X135533817Y-122128459D01*
X135488825Y-122126978D01*
X135452350Y-122134078D01*
X135438211Y-122138341D01*
X135425324Y-122142703D01*
X135412933Y-122147823D01*
X135400279Y-122154359D01*
X135386605Y-122162969D01*
X135371152Y-122174311D01*
X135353165Y-122189043D01*
X135331885Y-122207823D01*
X135306553Y-122231308D01*
X135276413Y-122260159D01*
X135240707Y-122295031D01*
X135198678Y-122336585D01*
X135149568Y-122385475D01*
X135092618Y-122442363D01*
X135060885Y-122474093D01*
X134769970Y-122765008D01*
X134491582Y-122486620D01*
X135456960Y-121521242D01*
X135735348Y-121799630D01*
X135673600Y-121861361D01*
X135611853Y-121923093D01*
X135698475Y-121924402D01*
X135753310Y-121926574D01*
X135799387Y-121931769D01*
X135840451Y-121940743D01*
X135880239Y-121954255D01*
X135910400Y-121967312D01*
X135927573Y-121975588D01*
X135942023Y-121983649D01*
X135955829Y-121993161D01*
X135971071Y-122005792D01*
X135989825Y-122023206D01*
X136014170Y-122047070D01*
X136031696Y-122064548D01*
X136060883Y-122093996D01*
G36*
X139017149Y-125041767D02*
X139025639Y-125055946D01*
X138740479Y-125341106D01*
X138699501Y-125306279D01*
X138637855Y-125260414D01*
X138575670Y-125227227D01*
X138512792Y-125206701D01*
X138449065Y-125198821D01*
X138384329Y-125203570D01*
X138318430Y-125220933D01*
X138251210Y-125250891D01*
X138237670Y-125258350D01*
X138226983Y-125264560D01*
X138216819Y-125270959D01*
X138206288Y-125278363D01*
X138194496Y-125287589D01*
X138180552Y-125299456D01*
X138163564Y-125314779D01*
X138142640Y-125334376D01*
X138116886Y-125359064D01*
X138085413Y-125389661D01*
X138047326Y-125426981D01*
X138001734Y-125471844D01*
X137964634Y-125508413D01*
X137737416Y-125732454D01*
X137459557Y-125454595D01*
X138424934Y-124489217D01*
X138703322Y-124767605D01*
X138614744Y-124856386D01*
X138526166Y-124945169D01*
X138568592Y-124932462D01*
X138637312Y-124916316D01*
X138704865Y-124908953D01*
X138769303Y-124910297D01*
X138828675Y-124920273D01*
X138881031Y-124938805D01*
X138893217Y-124944996D01*
X138916468Y-124959058D01*
X138942439Y-124976933D01*
X138968347Y-124996447D01*
X138991410Y-125015428D01*
X139008843Y-125031701D01*
X139017149Y-125041767D01*
X139017149Y-125041767D01*
G37*
X139017149Y-125041767D02*
X139025639Y-125055946D01*
X138740479Y-125341106D01*
X138699501Y-125306279D01*
X138637855Y-125260414D01*
X138575670Y-125227227D01*
X138512792Y-125206701D01*
X138449065Y-125198821D01*
X138384329Y-125203570D01*
X138318430Y-125220933D01*
X138251210Y-125250891D01*
X138237670Y-125258350D01*
X138226983Y-125264560D01*
X138216819Y-125270959D01*
X138206288Y-125278363D01*
X138194496Y-125287589D01*
X138180552Y-125299456D01*
X138163564Y-125314779D01*
X138142640Y-125334376D01*
X138116886Y-125359064D01*
X138085413Y-125389661D01*
X138047326Y-125426981D01*
X138001734Y-125471844D01*
X137964634Y-125508413D01*
X137737416Y-125732454D01*
X137459557Y-125454595D01*
X138424934Y-124489217D01*
X138703322Y-124767605D01*
X138614744Y-124856386D01*
X138526166Y-124945169D01*
X138568592Y-124932462D01*
X138637312Y-124916316D01*
X138704865Y-124908953D01*
X138769303Y-124910297D01*
X138828675Y-124920273D01*
X138881031Y-124938805D01*
X138893217Y-124944996D01*
X138916468Y-124959058D01*
X138942439Y-124976933D01*
X138968347Y-124996447D01*
X138991410Y-125015428D01*
X139008843Y-125031701D01*
X139017149Y-125041767D01*
G36*
X139987541Y-127014955D02*
X139504894Y-127495441D01*
X139364472Y-127357391D01*
X139224050Y-127219342D01*
X140189555Y-126253837D01*
X140329872Y-126394153D01*
X140470188Y-126534470D01*
X139987541Y-127014955D01*
X139987541Y-127014955D01*
G37*
X139987541Y-127014955D02*
X139504894Y-127495441D01*
X139364472Y-127357391D01*
X139224050Y-127219342D01*
X140189555Y-126253837D01*
X140329872Y-126394153D01*
X140470188Y-126534470D01*
X139987541Y-127014955D01*
G36*
X141398999Y-126741661D02*
X141433621Y-126776879D01*
X141460986Y-126806201D01*
X141483209Y-126832301D01*
X141502404Y-126857853D01*
X141520687Y-126885532D01*
X141540172Y-126918010D01*
X141544753Y-126925931D01*
X141558698Y-126950153D01*
X141441647Y-127067204D01*
X141406184Y-127102600D01*
X141378613Y-127129884D01*
X141357892Y-127149964D01*
X141342972Y-127163749D01*
X141332812Y-127172150D01*
X141326366Y-127176076D01*
X141322590Y-127176436D01*
X141320438Y-127174141D01*
X141319985Y-127173150D01*
X141304273Y-127141920D01*
X141282197Y-127106687D01*
X141256817Y-127071962D01*
X141231465Y-127042544D01*
X141196935Y-127011479D01*
X141163947Y-126992605D01*
X141131343Y-126985884D01*
X141097968Y-126991276D01*
X141062665Y-127008742D01*
X141027193Y-127035697D01*
X140987840Y-127069764D01*
X141097373Y-127181701D01*
X141206905Y-127293639D01*
X140982399Y-127518145D01*
X140764132Y-127304686D01*
X140036890Y-128031928D01*
X139758502Y-127753540D01*
X140485903Y-127026139D01*
X140373650Y-126913886D01*
X140602646Y-126684890D01*
X140713679Y-126795922D01*
X140782240Y-126732023D01*
X140812724Y-126704576D01*
X140843274Y-126678769D01*
X140870865Y-126657071D01*
X140892171Y-126642145D01*
X140954974Y-126609014D01*
X141017764Y-126588577D01*
X141080709Y-126580826D01*
X141143976Y-126585761D01*
X141207732Y-126603376D01*
X141272145Y-126633668D01*
X141272190Y-126633694D01*
X141289634Y-126644083D01*
X141305868Y-126655222D01*
X141322876Y-126668797D01*
X141342637Y-126686496D01*
X141367136Y-126710005D01*
X141398353Y-126741013D01*
X141398999Y-126741661D01*
X141398999Y-126741661D01*
G37*
X141398999Y-126741661D02*
X141433621Y-126776879D01*
X141460986Y-126806201D01*
X141483209Y-126832301D01*
X141502404Y-126857853D01*
X141520687Y-126885532D01*
X141540172Y-126918010D01*
X141544753Y-126925931D01*
X141558698Y-126950153D01*
X141441647Y-127067204D01*
X141406184Y-127102600D01*
X141378613Y-127129884D01*
X141357892Y-127149964D01*
X141342972Y-127163749D01*
X141332812Y-127172150D01*
X141326366Y-127176076D01*
X141322590Y-127176436D01*
X141320438Y-127174141D01*
X141319985Y-127173150D01*
X141304273Y-127141920D01*
X141282197Y-127106687D01*
X141256817Y-127071962D01*
X141231465Y-127042544D01*
X141196935Y-127011479D01*
X141163947Y-126992605D01*
X141131343Y-126985884D01*
X141097968Y-126991276D01*
X141062665Y-127008742D01*
X141027193Y-127035697D01*
X140987840Y-127069764D01*
X141097373Y-127181701D01*
X141206905Y-127293639D01*
X140982399Y-127518145D01*
X140764132Y-127304686D01*
X140036890Y-128031928D01*
X139758502Y-127753540D01*
X140485903Y-127026139D01*
X140373650Y-126913886D01*
X140602646Y-126684890D01*
X140713679Y-126795922D01*
X140782240Y-126732023D01*
X140812724Y-126704576D01*
X140843274Y-126678769D01*
X140870865Y-126657071D01*
X140892171Y-126642145D01*
X140954974Y-126609014D01*
X141017764Y-126588577D01*
X141080709Y-126580826D01*
X141143976Y-126585761D01*
X141207732Y-126603376D01*
X141272145Y-126633668D01*
X141272190Y-126633694D01*
X141289634Y-126644083D01*
X141305868Y-126655222D01*
X141322876Y-126668797D01*
X141342637Y-126686496D01*
X141367136Y-126710005D01*
X141398353Y-126741013D01*
X141398999Y-126741661D01*
G36*
X140580196Y-126437933D02*
X140288338Y-126146074D01*
X140535295Y-125899117D01*
X140827153Y-126190976D01*
X140580196Y-126437933D01*
X140580196Y-126437933D01*
G37*
X140580196Y-126437933D02*
X140288338Y-126146074D01*
X140535295Y-125899117D01*
X140827153Y-126190976D01*
X140580196Y-126437933D01*
G36*
X132194276Y-116531960D02*
X132232619Y-116591337D01*
X132263651Y-116660378D01*
X132270129Y-116678509D01*
X132280535Y-116711764D01*
X132287027Y-116741069D01*
X132290420Y-116771656D01*
X132291528Y-116808755D01*
X132291547Y-116816056D01*
X132290899Y-116852952D01*
X132288369Y-116882418D01*
X132283081Y-116909682D01*
X132274157Y-116939976D01*
X132267500Y-116959485D01*
X132250758Y-117004148D01*
X132234313Y-117039974D01*
X132215922Y-117070569D01*
X132193348Y-117099541D01*
X132164348Y-117130497D01*
X132156322Y-117138484D01*
X132140953Y-117153312D01*
X132126045Y-117166680D01*
X132110652Y-117178977D01*
X132093828Y-117190597D01*
X132074628Y-117201931D01*
X132052108Y-117213371D01*
X132025318Y-117225310D01*
X131993317Y-117238139D01*
X131955155Y-117252249D01*
X131909888Y-117268035D01*
X131856571Y-117285887D01*
X131794256Y-117306198D01*
X131722000Y-117329359D01*
X131638855Y-117355763D01*
X131610328Y-117364792D01*
X131543059Y-117386016D01*
X131479106Y-117406087D01*
X131419541Y-117424673D01*
X131365435Y-117441446D01*
X131317862Y-117456076D01*
X131277894Y-117468233D01*
X131246604Y-117477589D01*
X131225063Y-117483813D01*
X131214343Y-117486576D01*
X131213610Y-117486683D01*
X131196723Y-117482365D01*
X131182080Y-117469970D01*
X131174336Y-117453804D01*
X131174020Y-117450051D01*
X131175894Y-117439807D01*
X131181262Y-117418728D01*
X131189733Y-117388070D01*
X131200919Y-117349092D01*
X131214431Y-117303049D01*
X131229881Y-117251200D01*
X131246881Y-117194800D01*
X131265042Y-117135108D01*
X131283975Y-117073380D01*
X131303293Y-117010874D01*
X131322606Y-116948847D01*
X131341526Y-116888556D01*
X131359665Y-116831258D01*
X131376634Y-116778209D01*
X131392044Y-116730668D01*
X131405508Y-116689893D01*
X131416636Y-116657138D01*
X131425041Y-116633662D01*
X131430245Y-116620901D01*
X131470059Y-116552670D01*
X131517915Y-116493656D01*
X131526732Y-116485795D01*
X131623437Y-116582500D01*
X131583693Y-116626594D01*
X131553744Y-116675865D01*
X131533588Y-116728860D01*
X131523224Y-116784128D01*
X131522650Y-116840215D01*
X131531868Y-116895669D01*
X131550875Y-116949038D01*
X131579670Y-116998867D01*
X131618252Y-117043707D01*
X131666621Y-117082101D01*
X131673334Y-117086361D01*
X131730449Y-117114728D01*
X131789353Y-117130787D01*
X131848923Y-117134590D01*
X131908033Y-117126192D01*
X131965566Y-117105646D01*
X132020395Y-117073004D01*
X132024955Y-117069628D01*
X132070299Y-117028236D01*
X132105650Y-116980852D01*
X132131040Y-116928989D01*
X132146503Y-116874163D01*
X132152071Y-116817888D01*
X132147777Y-116761682D01*
X132133653Y-116707058D01*
X132109734Y-116655533D01*
X132076051Y-116608622D01*
X132032637Y-116567841D01*
X132013795Y-116554397D01*
X131955711Y-116522804D01*
X131896564Y-116503638D01*
X131837023Y-116496917D01*
X131777758Y-116502659D01*
X131719437Y-116520883D01*
X131672975Y-116545036D01*
X131623437Y-116582500D01*
X131526732Y-116485795D01*
X131573171Y-116444398D01*
X131635191Y-116405439D01*
X131703333Y-116377315D01*
X131726641Y-116370612D01*
X131799023Y-116358182D01*
X131871638Y-116357861D01*
X131942795Y-116369486D01*
X132010796Y-116392895D01*
X132024276Y-116399174D01*
X132091217Y-116437143D01*
X132147514Y-116480983D01*
X132194276Y-116531960D01*
X132194276Y-116531960D01*
G37*
X132194276Y-116531960D02*
X132232619Y-116591337D01*
X132263651Y-116660378D01*
X132270129Y-116678509D01*
X132280535Y-116711764D01*
X132287027Y-116741069D01*
X132290420Y-116771656D01*
X132291528Y-116808755D01*
X132291547Y-116816056D01*
X132290899Y-116852952D01*
X132288369Y-116882418D01*
X132283081Y-116909682D01*
X132274157Y-116939976D01*
X132267500Y-116959485D01*
X132250758Y-117004148D01*
X132234313Y-117039974D01*
X132215922Y-117070569D01*
X132193348Y-117099541D01*
X132164348Y-117130497D01*
X132156322Y-117138484D01*
X132140953Y-117153312D01*
X132126045Y-117166680D01*
X132110652Y-117178977D01*
X132093828Y-117190597D01*
X132074628Y-117201931D01*
X132052108Y-117213371D01*
X132025318Y-117225310D01*
X131993317Y-117238139D01*
X131955155Y-117252249D01*
X131909888Y-117268035D01*
X131856571Y-117285887D01*
X131794256Y-117306198D01*
X131722000Y-117329359D01*
X131638855Y-117355763D01*
X131610328Y-117364792D01*
X131543059Y-117386016D01*
X131479106Y-117406087D01*
X131419541Y-117424673D01*
X131365435Y-117441446D01*
X131317862Y-117456076D01*
X131277894Y-117468233D01*
X131246604Y-117477589D01*
X131225063Y-117483813D01*
X131214343Y-117486576D01*
X131213610Y-117486683D01*
X131196723Y-117482365D01*
X131182080Y-117469970D01*
X131174336Y-117453804D01*
X131174020Y-117450051D01*
X131175894Y-117439807D01*
X131181262Y-117418728D01*
X131189733Y-117388070D01*
X131200919Y-117349092D01*
X131214431Y-117303049D01*
X131229881Y-117251200D01*
X131246881Y-117194800D01*
X131265042Y-117135108D01*
X131283975Y-117073380D01*
X131303293Y-117010874D01*
X131322606Y-116948847D01*
X131341526Y-116888556D01*
X131359665Y-116831258D01*
X131376634Y-116778209D01*
X131392044Y-116730668D01*
X131405508Y-116689893D01*
X131416636Y-116657138D01*
X131425041Y-116633662D01*
X131430245Y-116620901D01*
X131470059Y-116552670D01*
X131517915Y-116493656D01*
X131526732Y-116485795D01*
X131623437Y-116582500D01*
X131583693Y-116626594D01*
X131553744Y-116675865D01*
X131533588Y-116728860D01*
X131523224Y-116784128D01*
X131522650Y-116840215D01*
X131531868Y-116895669D01*
X131550875Y-116949038D01*
X131579670Y-116998867D01*
X131618252Y-117043707D01*
X131666621Y-117082101D01*
X131673334Y-117086361D01*
X131730449Y-117114728D01*
X131789353Y-117130787D01*
X131848923Y-117134590D01*
X131908033Y-117126192D01*
X131965566Y-117105646D01*
X132020395Y-117073004D01*
X132024955Y-117069628D01*
X132070299Y-117028236D01*
X132105650Y-116980852D01*
X132131040Y-116928989D01*
X132146503Y-116874163D01*
X132152071Y-116817888D01*
X132147777Y-116761682D01*
X132133653Y-116707058D01*
X132109734Y-116655533D01*
X132076051Y-116608622D01*
X132032637Y-116567841D01*
X132013795Y-116554397D01*
X131955711Y-116522804D01*
X131896564Y-116503638D01*
X131837023Y-116496917D01*
X131777758Y-116502659D01*
X131719437Y-116520883D01*
X131672975Y-116545036D01*
X131623437Y-116582500D01*
X131526732Y-116485795D01*
X131573171Y-116444398D01*
X131635191Y-116405439D01*
X131703333Y-116377315D01*
X131726641Y-116370612D01*
X131799023Y-116358182D01*
X131871638Y-116357861D01*
X131942795Y-116369486D01*
X132010796Y-116392895D01*
X132024276Y-116399174D01*
X132091217Y-116437143D01*
X132147514Y-116480983D01*
X132194276Y-116531960D01*
G36*
X133356859Y-123580426D02*
X133392523Y-123621742D01*
X133421335Y-123660135D01*
X133435100Y-123682291D01*
X133472509Y-123764112D01*
X133495776Y-123847986D01*
X133504858Y-123932999D01*
X133499720Y-124018238D01*
X133480320Y-124102786D01*
X133455820Y-124166447D01*
X133427721Y-124222664D01*
X133395772Y-124275018D01*
X133357374Y-124327323D01*
X133309929Y-124383395D01*
X133302161Y-124392046D01*
X133238432Y-124462570D01*
X132691792Y-123915930D01*
X132681153Y-123933515D01*
X132663553Y-123974754D01*
X132654775Y-124022778D01*
X132655207Y-124072563D01*
X132665235Y-124119080D01*
X132666603Y-124122886D01*
X132694064Y-124176272D01*
X132733261Y-124222859D01*
X132782569Y-124261515D01*
X132840362Y-124291108D01*
X132905015Y-124310506D01*
X132944910Y-124316629D01*
X132996083Y-124321858D01*
X133008489Y-124463481D01*
X133012124Y-124507242D01*
X133014954Y-124545897D01*
X133016846Y-124577182D01*
X133017665Y-124598835D01*
X133017277Y-124608590D01*
X133017133Y-124608865D01*
X133007752Y-124610990D01*
X132987253Y-124612026D01*
X132958984Y-124612074D01*
X132926289Y-124611243D01*
X132892515Y-124609636D01*
X132861010Y-124607357D01*
X132835121Y-124604512D01*
X132824953Y-124602837D01*
X132755593Y-124583594D01*
X132683560Y-124553249D01*
X132635752Y-124527457D01*
X132599018Y-124502740D01*
X132557351Y-124469819D01*
X132514501Y-124432096D01*
X132474218Y-124392975D01*
X132440252Y-124355861D01*
X132423928Y-124335234D01*
X132373159Y-124254390D01*
X132335454Y-124169699D01*
X132311109Y-124082409D01*
X132300416Y-123993767D01*
X132303671Y-123905020D01*
X132311354Y-123857384D01*
X132335333Y-123775305D01*
X132371628Y-123697839D01*
X132418819Y-123626008D01*
X132475485Y-123560841D01*
X132540204Y-123503362D01*
X132555879Y-123492649D01*
X132830174Y-123766944D01*
X133108562Y-124045332D01*
X133121198Y-124032696D01*
X133136620Y-124011282D01*
X133151366Y-123980691D01*
X133163358Y-123946190D01*
X133170523Y-123913048D01*
X133171325Y-123905486D01*
X133169607Y-123859412D01*
X133156033Y-123818501D01*
X133129515Y-123780010D01*
X133115809Y-123765437D01*
X133077890Y-123733991D01*
X133039419Y-123715565D01*
X132997438Y-123708866D01*
X132986309Y-123708865D01*
X132954393Y-123713264D01*
X132916775Y-123723617D01*
X132879826Y-123737823D01*
X132849918Y-123753781D01*
X132849801Y-123753859D01*
X132830174Y-123766944D01*
X132555879Y-123492649D01*
X132611555Y-123454596D01*
X132688115Y-123415572D01*
X132768466Y-123387312D01*
X132851183Y-123370845D01*
X132934848Y-123367194D01*
X132984548Y-123371533D01*
X133041110Y-123382969D01*
X133102016Y-123401310D01*
X133160690Y-123424322D01*
X133204670Y-123446329D01*
X133238248Y-123469136D01*
X133276772Y-123501102D01*
X133317293Y-123539206D01*
X133356859Y-123580426D01*
X133356859Y-123580426D01*
G37*
X133356859Y-123580426D02*
X133392523Y-123621742D01*
X133421335Y-123660135D01*
X133435100Y-123682291D01*
X133472509Y-123764112D01*
X133495776Y-123847986D01*
X133504858Y-123932999D01*
X133499720Y-124018238D01*
X133480320Y-124102786D01*
X133455820Y-124166447D01*
X133427721Y-124222664D01*
X133395772Y-124275018D01*
X133357374Y-124327323D01*
X133309929Y-124383395D01*
X133302161Y-124392046D01*
X133238432Y-124462570D01*
X132691792Y-123915930D01*
X132681153Y-123933515D01*
X132663553Y-123974754D01*
X132654775Y-124022778D01*
X132655207Y-124072563D01*
X132665235Y-124119080D01*
X132666603Y-124122886D01*
X132694064Y-124176272D01*
X132733261Y-124222859D01*
X132782569Y-124261515D01*
X132840362Y-124291108D01*
X132905015Y-124310506D01*
X132944910Y-124316629D01*
X132996083Y-124321858D01*
X133008489Y-124463481D01*
X133012124Y-124507242D01*
X133014954Y-124545897D01*
X133016846Y-124577182D01*
X133017665Y-124598835D01*
X133017277Y-124608590D01*
X133017133Y-124608865D01*
X133007752Y-124610990D01*
X132987253Y-124612026D01*
X132958984Y-124612074D01*
X132926289Y-124611243D01*
X132892515Y-124609636D01*
X132861010Y-124607357D01*
X132835121Y-124604512D01*
X132824953Y-124602837D01*
X132755593Y-124583594D01*
X132683560Y-124553249D01*
X132635752Y-124527457D01*
X132599018Y-124502740D01*
X132557351Y-124469819D01*
X132514501Y-124432096D01*
X132474218Y-124392975D01*
X132440252Y-124355861D01*
X132423928Y-124335234D01*
X132373159Y-124254390D01*
X132335454Y-124169699D01*
X132311109Y-124082409D01*
X132300416Y-123993767D01*
X132303671Y-123905020D01*
X132311354Y-123857384D01*
X132335333Y-123775305D01*
X132371628Y-123697839D01*
X132418819Y-123626008D01*
X132475485Y-123560841D01*
X132540204Y-123503362D01*
X132555879Y-123492649D01*
X132830174Y-123766944D01*
X133108562Y-124045332D01*
X133121198Y-124032696D01*
X133136620Y-124011282D01*
X133151366Y-123980691D01*
X133163358Y-123946190D01*
X133170523Y-123913048D01*
X133171325Y-123905486D01*
X133169607Y-123859412D01*
X133156033Y-123818501D01*
X133129515Y-123780010D01*
X133115809Y-123765437D01*
X133077890Y-123733991D01*
X133039419Y-123715565D01*
X132997438Y-123708866D01*
X132986309Y-123708865D01*
X132954393Y-123713264D01*
X132916775Y-123723617D01*
X132879826Y-123737823D01*
X132849918Y-123753781D01*
X132849801Y-123753859D01*
X132830174Y-123766944D01*
X132555879Y-123492649D01*
X132611555Y-123454596D01*
X132688115Y-123415572D01*
X132768466Y-123387312D01*
X132851183Y-123370845D01*
X132934848Y-123367194D01*
X132984548Y-123371533D01*
X133041110Y-123382969D01*
X133102016Y-123401310D01*
X133160690Y-123424322D01*
X133204670Y-123446329D01*
X133238248Y-123469136D01*
X133276772Y-123501102D01*
X133317293Y-123539206D01*
X133356859Y-123580426D01*
G36*
X134800725Y-125583548D02*
X134255521Y-126131370D01*
X134110681Y-125983656D01*
X133965842Y-125835944D01*
X134064278Y-125737508D01*
X133994538Y-125735475D01*
X133957968Y-125733281D01*
X133921163Y-125729201D01*
X133890403Y-125723986D01*
X133882252Y-125722038D01*
X133815831Y-125697222D01*
X133752574Y-125660183D01*
X133695672Y-125613215D01*
X133648314Y-125558608D01*
X133641827Y-125549302D01*
X133599677Y-125474537D01*
X133571416Y-125396368D01*
X133557026Y-125315536D01*
X133556485Y-125232785D01*
X133569774Y-125148858D01*
X133596874Y-125064496D01*
X133637765Y-124980442D01*
X133657825Y-124947313D01*
X133692534Y-124900003D01*
X133736616Y-124850341D01*
X133786271Y-124801983D01*
X133837697Y-124758583D01*
X133887093Y-124723793D01*
X133895852Y-124718507D01*
X133925641Y-124702200D01*
X133958670Y-124685935D01*
X133992213Y-124670833D01*
X134023544Y-124658014D01*
X134049937Y-124648598D01*
X134068664Y-124643707D01*
X134076768Y-124644154D01*
X134076339Y-124651812D01*
X134073664Y-124671966D01*
X134069045Y-124702827D01*
X134062787Y-124742601D01*
X134055190Y-124789499D01*
X134046559Y-124841727D01*
X134037197Y-124897495D01*
X134027402Y-124955010D01*
X134017482Y-125012481D01*
X134007739Y-125068117D01*
X133998473Y-125120126D01*
X133989989Y-125166718D01*
X133982588Y-125206099D01*
X133977199Y-125233436D01*
X133967410Y-125281403D01*
X134107542Y-125690538D01*
X134132796Y-125764099D01*
X134156705Y-125833415D01*
X134178851Y-125897295D01*
X134198816Y-125954547D01*
X134216179Y-126003978D01*
X134230525Y-126044397D01*
X134241433Y-126074612D01*
X134248485Y-126093432D01*
X134251242Y-126099672D01*
X134253221Y-126092752D01*
X134257660Y-126072823D01*
X134264311Y-126041138D01*
X134272920Y-125998946D01*
X134283237Y-125947499D01*
X134295012Y-125888048D01*
X134307992Y-125821843D01*
X134321927Y-125750136D01*
X134334573Y-125684548D01*
X134414336Y-125269424D01*
X134313635Y-124952986D01*
X134292951Y-124888150D01*
X134273544Y-124827631D01*
X134255868Y-124772819D01*
X134240376Y-124725104D01*
X134227520Y-124685877D01*
X134217753Y-124656528D01*
X134211531Y-124638447D01*
X134209366Y-124632979D01*
X134198560Y-124630759D01*
X134174964Y-124632004D01*
X134139855Y-124636622D01*
X134125349Y-124638975D01*
X134104056Y-124641253D01*
X134089680Y-124640308D01*
X134086115Y-124637983D01*
X134086693Y-124628539D01*
X134089456Y-124607585D01*
X134093996Y-124577891D01*
X134099904Y-124542227D01*
X134102323Y-124528255D01*
X134109208Y-124488521D01*
X134115536Y-124451256D01*
X134120694Y-124420098D01*
X134124077Y-124398682D01*
X134124574Y-124395273D01*
X134126244Y-124385235D01*
X134128271Y-124380247D01*
X134131305Y-124381691D01*
X134135997Y-124390951D01*
X134142998Y-124409410D01*
X134152959Y-124438450D01*
X134166530Y-124479455D01*
X134171944Y-124495943D01*
X134214996Y-124627185D01*
X134244957Y-124628013D01*
X134291128Y-124633230D01*
X134343751Y-124645693D01*
X134397591Y-124664044D01*
X134420096Y-124673533D01*
X134442341Y-124683948D01*
X134460504Y-124693973D01*
X134477513Y-124705849D01*
X134496299Y-124721819D01*
X134519791Y-124744122D01*
X134545097Y-124769189D01*
X134575460Y-124799947D01*
X134597454Y-124823623D01*
X134613332Y-124843030D01*
X134625340Y-124860984D01*
X134635729Y-124880298D01*
X134638555Y-124886126D01*
X134659120Y-124939239D01*
X134673765Y-124997646D01*
X134680937Y-125054546D01*
X134681384Y-125074294D01*
X134680885Y-125115769D01*
X134869723Y-124932064D01*
X135058560Y-124748357D01*
X135345928Y-125035725D01*
X134800725Y-125583548D01*
X134800725Y-125583548D01*
G37*
X134800725Y-125583548D02*
X134255521Y-126131370D01*
X134110681Y-125983656D01*
X133965842Y-125835944D01*
X134064278Y-125737508D01*
X133994538Y-125735475D01*
X133957968Y-125733281D01*
X133921163Y-125729201D01*
X133890403Y-125723986D01*
X133882252Y-125722038D01*
X133815831Y-125697222D01*
X133752574Y-125660183D01*
X133695672Y-125613215D01*
X133648314Y-125558608D01*
X133641827Y-125549302D01*
X133599677Y-125474537D01*
X133571416Y-125396368D01*
X133557026Y-125315536D01*
X133556485Y-125232785D01*
X133569774Y-125148858D01*
X133596874Y-125064496D01*
X133637765Y-124980442D01*
X133657825Y-124947313D01*
X133692534Y-124900003D01*
X133736616Y-124850341D01*
X133786271Y-124801983D01*
X133837697Y-124758583D01*
X133887093Y-124723793D01*
X133895852Y-124718507D01*
X133925641Y-124702200D01*
X133958670Y-124685935D01*
X133992213Y-124670833D01*
X134023544Y-124658014D01*
X134049937Y-124648598D01*
X134068664Y-124643707D01*
X134076768Y-124644154D01*
X134076339Y-124651812D01*
X134073664Y-124671966D01*
X134069045Y-124702827D01*
X134062787Y-124742601D01*
X134055190Y-124789499D01*
X134046559Y-124841727D01*
X134037197Y-124897495D01*
X134027402Y-124955010D01*
X134017482Y-125012481D01*
X134007739Y-125068117D01*
X133998473Y-125120126D01*
X133989989Y-125166718D01*
X133982588Y-125206099D01*
X133977199Y-125233436D01*
X133967410Y-125281403D01*
X134107542Y-125690538D01*
X134132796Y-125764099D01*
X134156705Y-125833415D01*
X134178851Y-125897295D01*
X134198816Y-125954547D01*
X134216179Y-126003978D01*
X134230525Y-126044397D01*
X134241433Y-126074612D01*
X134248485Y-126093432D01*
X134251242Y-126099672D01*
X134253221Y-126092752D01*
X134257660Y-126072823D01*
X134264311Y-126041138D01*
X134272920Y-125998946D01*
X134283237Y-125947499D01*
X134295012Y-125888048D01*
X134307992Y-125821843D01*
X134321927Y-125750136D01*
X134334573Y-125684548D01*
X134414336Y-125269424D01*
X134313635Y-124952986D01*
X134292951Y-124888150D01*
X134273544Y-124827631D01*
X134255868Y-124772819D01*
X134240376Y-124725104D01*
X134227520Y-124685877D01*
X134217753Y-124656528D01*
X134211531Y-124638447D01*
X134209366Y-124632979D01*
X134198560Y-124630759D01*
X134174964Y-124632004D01*
X134139855Y-124636622D01*
X134125349Y-124638975D01*
X134104056Y-124641253D01*
X134089680Y-124640308D01*
X134086115Y-124637983D01*
X134086693Y-124628539D01*
X134089456Y-124607585D01*
X134093996Y-124577891D01*
X134099904Y-124542227D01*
X134102323Y-124528255D01*
X134109208Y-124488521D01*
X134115536Y-124451256D01*
X134120694Y-124420098D01*
X134124077Y-124398682D01*
X134124574Y-124395273D01*
X134126244Y-124385235D01*
X134128271Y-124380247D01*
X134131305Y-124381691D01*
X134135997Y-124390951D01*
X134142998Y-124409410D01*
X134152959Y-124438450D01*
X134166530Y-124479455D01*
X134171944Y-124495943D01*
X134214996Y-124627185D01*
X134244957Y-124628013D01*
X134291128Y-124633230D01*
X134343751Y-124645693D01*
X134397591Y-124664044D01*
X134420096Y-124673533D01*
X134442341Y-124683948D01*
X134460504Y-124693973D01*
X134477513Y-124705849D01*
X134496299Y-124721819D01*
X134519791Y-124744122D01*
X134545097Y-124769189D01*
X134575460Y-124799947D01*
X134597454Y-124823623D01*
X134613332Y-124843030D01*
X134625340Y-124860984D01*
X134635729Y-124880298D01*
X134638555Y-124886126D01*
X134659120Y-124939239D01*
X134673765Y-124997646D01*
X134680937Y-125054546D01*
X134681384Y-125074294D01*
X134680885Y-125115769D01*
X134869723Y-124932064D01*
X135058560Y-124748357D01*
X135345928Y-125035725D01*
X134800725Y-125583548D01*
G36*
X136988138Y-127039712D02*
X136885613Y-127145016D01*
X137080593Y-127339995D01*
X136962470Y-127455360D01*
X136844348Y-127570724D01*
X136746735Y-127475903D01*
X136649122Y-127381083D01*
X136500165Y-127530040D01*
X136453709Y-127576644D01*
X136416663Y-127614380D01*
X136388085Y-127644562D01*
X136367034Y-127668496D01*
X136352570Y-127687492D01*
X136343753Y-127702861D01*
X136339642Y-127715911D01*
X136339293Y-127727952D01*
X136341769Y-127740294D01*
X136343939Y-127747508D01*
X136355746Y-127769447D01*
X136376966Y-127795284D01*
X136404362Y-127821804D01*
X136434695Y-127845792D01*
X136457399Y-127860174D01*
X136480226Y-127873008D01*
X136499745Y-127884241D01*
X136507969Y-127889142D01*
X136522255Y-127897948D01*
X136299836Y-128120367D01*
X136259890Y-128104919D01*
X136220964Y-128088520D01*
X136186630Y-128070571D01*
X136153659Y-128048874D01*
X136118828Y-128021229D01*
X136078912Y-127985439D01*
X136063968Y-127971367D01*
X136022545Y-127930843D01*
X135991380Y-127897594D01*
X135969147Y-127870160D01*
X135960729Y-127857794D01*
X135927862Y-127794302D01*
X135909475Y-127730928D01*
X135905557Y-127667294D01*
X135916098Y-127603024D01*
X135941089Y-127537744D01*
X135951737Y-127517298D01*
X135958886Y-127505561D01*
X135968632Y-127492002D01*
X135982004Y-127475493D01*
X136000029Y-127454903D01*
X136023732Y-127429103D01*
X136054142Y-127396961D01*
X136092286Y-127357350D01*
X136139190Y-127309137D01*
X136164399Y-127283341D01*
X136355996Y-127087502D01*
X136269612Y-127001119D01*
X136505664Y-126765067D01*
X136592688Y-126852091D01*
X136697991Y-126749566D01*
X136803295Y-126647041D01*
X137090663Y-126934409D01*
X136988138Y-127039712D01*
X136988138Y-127039712D01*
G37*
X136988138Y-127039712D02*
X136885613Y-127145016D01*
X137080593Y-127339995D01*
X136962470Y-127455360D01*
X136844348Y-127570724D01*
X136746735Y-127475903D01*
X136649122Y-127381083D01*
X136500165Y-127530040D01*
X136453709Y-127576644D01*
X136416663Y-127614380D01*
X136388085Y-127644562D01*
X136367034Y-127668496D01*
X136352570Y-127687492D01*
X136343753Y-127702861D01*
X136339642Y-127715911D01*
X136339293Y-127727952D01*
X136341769Y-127740294D01*
X136343939Y-127747508D01*
X136355746Y-127769447D01*
X136376966Y-127795284D01*
X136404362Y-127821804D01*
X136434695Y-127845792D01*
X136457399Y-127860174D01*
X136480226Y-127873008D01*
X136499745Y-127884241D01*
X136507969Y-127889142D01*
X136522255Y-127897948D01*
X136299836Y-128120367D01*
X136259890Y-128104919D01*
X136220964Y-128088520D01*
X136186630Y-128070571D01*
X136153659Y-128048874D01*
X136118828Y-128021229D01*
X136078912Y-127985439D01*
X136063968Y-127971367D01*
X136022545Y-127930843D01*
X135991380Y-127897594D01*
X135969147Y-127870160D01*
X135960729Y-127857794D01*
X135927862Y-127794302D01*
X135909475Y-127730928D01*
X135905557Y-127667294D01*
X135916098Y-127603024D01*
X135941089Y-127537744D01*
X135951737Y-127517298D01*
X135958886Y-127505561D01*
X135968632Y-127492002D01*
X135982004Y-127475493D01*
X136000029Y-127454903D01*
X136023732Y-127429103D01*
X136054142Y-127396961D01*
X136092286Y-127357350D01*
X136139190Y-127309137D01*
X136164399Y-127283341D01*
X136355996Y-127087502D01*
X136269612Y-127001119D01*
X136505664Y-126765067D01*
X136592688Y-126852091D01*
X136697991Y-126749566D01*
X136803295Y-126647041D01*
X137090663Y-126934409D01*
X136988138Y-127039712D01*
G36*
X132539697Y-122206823D02*
X132574068Y-122245702D01*
X132604665Y-122283251D01*
X132629486Y-122317239D01*
X132646527Y-122345429D01*
X132652340Y-122359120D01*
X132652964Y-122364820D01*
X132650525Y-122371913D01*
X132643732Y-122381937D01*
X132631299Y-122396432D01*
X132611937Y-122416938D01*
X132584357Y-122444994D01*
X132560157Y-122469264D01*
X132529610Y-122499542D01*
X132502478Y-122525926D01*
X132480448Y-122546818D01*
X132465205Y-122560617D01*
X132458439Y-122565725D01*
X132458398Y-122565727D01*
X132452075Y-122559993D01*
X132441485Y-122545252D01*
X132433332Y-122532110D01*
X132412904Y-122502532D01*
X132387135Y-122472601D01*
X132359341Y-122445569D01*
X132332837Y-122424686D01*
X132312664Y-122413778D01*
X132284147Y-122410869D01*
X132252643Y-122419804D01*
X132221559Y-122439392D01*
X132210550Y-122449397D01*
X132190246Y-122469701D01*
X132279930Y-122562188D01*
X132369615Y-122654676D01*
X132267089Y-122759979D01*
X132164564Y-122865282D01*
X131979615Y-122680333D01*
X131394616Y-123265332D01*
X131107247Y-122977964D01*
X131692247Y-122392965D01*
X131599879Y-122300597D01*
X131820536Y-122079939D01*
X131911397Y-122170800D01*
X131961859Y-122126327D01*
X132025083Y-122078408D01*
X132089572Y-122044783D01*
X132154977Y-122025488D01*
X132220948Y-122020557D01*
X132287134Y-122030025D01*
X132353189Y-122053926D01*
X132404534Y-122082703D01*
X132433971Y-122104555D01*
X132467647Y-122134016D01*
X132503556Y-122168850D01*
X132539697Y-122206823D01*
X132539697Y-122206823D01*
G37*
X132539697Y-122206823D02*
X132574068Y-122245702D01*
X132604665Y-122283251D01*
X132629486Y-122317239D01*
X132646527Y-122345429D01*
X132652340Y-122359120D01*
X132652964Y-122364820D01*
X132650525Y-122371913D01*
X132643732Y-122381937D01*
X132631299Y-122396432D01*
X132611937Y-122416938D01*
X132584357Y-122444994D01*
X132560157Y-122469264D01*
X132529610Y-122499542D01*
X132502478Y-122525926D01*
X132480448Y-122546818D01*
X132465205Y-122560617D01*
X132458439Y-122565725D01*
X132458398Y-122565727D01*
X132452075Y-122559993D01*
X132441485Y-122545252D01*
X132433332Y-122532110D01*
X132412904Y-122502532D01*
X132387135Y-122472601D01*
X132359341Y-122445569D01*
X132332837Y-122424686D01*
X132312664Y-122413778D01*
X132284147Y-122410869D01*
X132252643Y-122419804D01*
X132221559Y-122439392D01*
X132210550Y-122449397D01*
X132190246Y-122469701D01*
X132279930Y-122562188D01*
X132369615Y-122654676D01*
X132267089Y-122759979D01*
X132164564Y-122865282D01*
X131979615Y-122680333D01*
X131394616Y-123265332D01*
X131107247Y-122977964D01*
X131692247Y-122392965D01*
X131599879Y-122300597D01*
X131820536Y-122079939D01*
X131911397Y-122170800D01*
X131961859Y-122126327D01*
X132025083Y-122078408D01*
X132089572Y-122044783D01*
X132154977Y-122025488D01*
X132220948Y-122020557D01*
X132287134Y-122030025D01*
X132353189Y-122053926D01*
X132404534Y-122082703D01*
X132433971Y-122104555D01*
X132467647Y-122134016D01*
X132503556Y-122168850D01*
X132539697Y-122206823D01*
G36*
X131979615Y-123850332D02*
X131692247Y-123562963D01*
X132497904Y-122757306D01*
X132785272Y-123044675D01*
X131979615Y-123850332D01*
X131979615Y-123850332D01*
G37*
X131979615Y-123850332D02*
X131692247Y-123562963D01*
X132497904Y-122757306D01*
X132785272Y-123044675D01*
X131979615Y-123850332D01*
G36*
X133827005Y-124607263D02*
X133283082Y-125153799D01*
X132990489Y-124861206D01*
X133537025Y-124317282D01*
X134083561Y-123773358D01*
X134370929Y-124060726D01*
X133827005Y-124607263D01*
X133827005Y-124607263D01*
G37*
X133827005Y-124607263D02*
X133283082Y-125153799D01*
X132990489Y-124861206D01*
X133537025Y-124317282D01*
X134083561Y-123773358D01*
X134370929Y-124060726D01*
X133827005Y-124607263D01*
G36*
X135493138Y-125727440D02*
X135219647Y-126003585D01*
X135707328Y-125966730D01*
X135867878Y-126127280D01*
X135907210Y-126166781D01*
X135942877Y-126202927D01*
X135973674Y-126234470D01*
X135998392Y-126260161D01*
X136015826Y-126278750D01*
X136024766Y-126288986D01*
X136025676Y-126290583D01*
X136018250Y-126291536D01*
X135998220Y-126293315D01*
X135967463Y-126295785D01*
X135927858Y-126298815D01*
X135881281Y-126302273D01*
X135829611Y-126306026D01*
X135774727Y-126309941D01*
X135718505Y-126313885D01*
X135662824Y-126317727D01*
X135609562Y-126321333D01*
X135560597Y-126324571D01*
X135517805Y-126327309D01*
X135483067Y-126329413D01*
X135458258Y-126330753D01*
X135453491Y-126330966D01*
X135426667Y-126332083D01*
X135334574Y-126699548D01*
X135316744Y-126770741D01*
X135299894Y-126838109D01*
X135284372Y-126900256D01*
X135270525Y-126955786D01*
X135258701Y-127003305D01*
X135249247Y-127041417D01*
X135242512Y-127068726D01*
X135238841Y-127083836D01*
X135238348Y-127085973D01*
X135234214Y-127104931D01*
X134916567Y-126787283D01*
X134969182Y-126568215D01*
X135021799Y-126349145D01*
X134941471Y-126353200D01*
X134861144Y-126357256D01*
X134767418Y-126450832D01*
X134673692Y-126544408D01*
X134386323Y-126257040D01*
X135479349Y-125164015D01*
X135766628Y-125451294D01*
X135493138Y-125727440D01*
X135493138Y-125727440D01*
G37*
X135493138Y-125727440D02*
X135219647Y-126003585D01*
X135707328Y-125966730D01*
X135867878Y-126127280D01*
X135907210Y-126166781D01*
X135942877Y-126202927D01*
X135973674Y-126234470D01*
X135998392Y-126260161D01*
X136015826Y-126278750D01*
X136024766Y-126288986D01*
X136025676Y-126290583D01*
X136018250Y-126291536D01*
X135998220Y-126293315D01*
X135967463Y-126295785D01*
X135927858Y-126298815D01*
X135881281Y-126302273D01*
X135829611Y-126306026D01*
X135774727Y-126309941D01*
X135718505Y-126313885D01*
X135662824Y-126317727D01*
X135609562Y-126321333D01*
X135560597Y-126324571D01*
X135517805Y-126327309D01*
X135483067Y-126329413D01*
X135458258Y-126330753D01*
X135453491Y-126330966D01*
X135426667Y-126332083D01*
X135334574Y-126699548D01*
X135316744Y-126770741D01*
X135299894Y-126838109D01*
X135284372Y-126900256D01*
X135270525Y-126955786D01*
X135258701Y-127003305D01*
X135249247Y-127041417D01*
X135242512Y-127068726D01*
X135238841Y-127083836D01*
X135238348Y-127085973D01*
X135234214Y-127104931D01*
X134916567Y-126787283D01*
X134969182Y-126568215D01*
X135021799Y-126349145D01*
X134941471Y-126353200D01*
X134861144Y-126357256D01*
X134767418Y-126450832D01*
X134673692Y-126544408D01*
X134386323Y-126257040D01*
X135479349Y-125164015D01*
X135766628Y-125451294D01*
X135493138Y-125727440D01*
G36*
X135571717Y-127442434D02*
X135279218Y-127149934D01*
X136084875Y-126344277D01*
X136377374Y-126636777D01*
X135571717Y-127442434D01*
X135571717Y-127442434D01*
G37*
X135571717Y-127442434D02*
X135279218Y-127149934D01*
X136084875Y-126344277D01*
X136377374Y-126636777D01*
X135571717Y-127442434D01*
G36*
X134307950Y-125222298D02*
X134320735Y-125260386D01*
X134321466Y-125288093D01*
X134311449Y-125329356D01*
X134290561Y-125363765D01*
X134261144Y-125389758D01*
X134225534Y-125405777D01*
X134186068Y-125410261D01*
X134149055Y-125403103D01*
X134112175Y-125384601D01*
X134086100Y-125357500D01*
X134069777Y-125323210D01*
X134062810Y-125282068D01*
X134068794Y-125242849D01*
X134086171Y-125207869D01*
X134113383Y-125179445D01*
X134148873Y-125159892D01*
X134184993Y-125151924D01*
X134225245Y-125154229D01*
X134259845Y-125169369D01*
X134281036Y-125187017D01*
X134307950Y-125222298D01*
X134307950Y-125222298D01*
G37*
X134307950Y-125222298D02*
X134320735Y-125260386D01*
X134321466Y-125288093D01*
X134311449Y-125329356D01*
X134290561Y-125363765D01*
X134261144Y-125389758D01*
X134225534Y-125405777D01*
X134186068Y-125410261D01*
X134149055Y-125403103D01*
X134112175Y-125384601D01*
X134086100Y-125357500D01*
X134069777Y-125323210D01*
X134062810Y-125282068D01*
X134068794Y-125242849D01*
X134086171Y-125207869D01*
X134113383Y-125179445D01*
X134148873Y-125159892D01*
X134184993Y-125151924D01*
X134225245Y-125154229D01*
X134259845Y-125169369D01*
X134281036Y-125187017D01*
X134307950Y-125222298D01*
G36*
X132862245Y-122967701D02*
X132559270Y-122664726D01*
X132664574Y-122562201D01*
X132769878Y-122459675D01*
X132921337Y-122608413D01*
X133072795Y-122757152D01*
X132862245Y-122967701D01*
X132862245Y-122967701D01*
G37*
X132862245Y-122967701D02*
X132559270Y-122664726D01*
X132664574Y-122562201D01*
X132769878Y-122459675D01*
X132921337Y-122608413D01*
X133072795Y-122757152D01*
X132862245Y-122967701D01*
G36*
X136464611Y-126570067D02*
X136161636Y-126267092D01*
X136266939Y-126164566D01*
X136372243Y-126062041D01*
X136523702Y-126210778D01*
X136675161Y-126359518D01*
X136464611Y-126570067D01*
X136464611Y-126570067D01*
G37*
X136464611Y-126570067D02*
X136161636Y-126267092D01*
X136266939Y-126164566D01*
X136372243Y-126062041D01*
X136523702Y-126210778D01*
X136675161Y-126359518D01*
X136464611Y-126570067D01*
D13*
X129642711Y-72226000D02*
G75*
G03X129642711Y-72226000I-70711J0D01*
G01*
X129922000Y-73676000D02*
X129922000Y-74126000D01*
X131222000Y-73276000D02*
X131222000Y-74176000D01*
X131222000Y-75176000D02*
X129922000Y-75176000D01*
X131222000Y-72276000D02*
X129922000Y-72276000D01*
X137229900Y-69826500D02*
X138029900Y-69826500D01*
X137229900Y-68476500D02*
X138029900Y-68476500D01*
D14*
X118964400Y-76083800D02*
X118964400Y-76063800D01*
X118964400Y-76063800D02*
X121624400Y-76063800D01*
X121624400Y-76063800D02*
X121624400Y-76083800D01*
X118964400Y-82513800D02*
X118964400Y-82533800D01*
X118964400Y-82533800D02*
X121624400Y-82533800D01*
X121624400Y-82533800D02*
X121624400Y-82513800D01*
X123929400Y-76083800D02*
X121624400Y-76083800D01*
D13*
X121778800Y-88163200D02*
X123178800Y-88163200D01*
X121778800Y-84963200D02*
X123178800Y-84963200D01*
X121778800Y-88163200D02*
X121778800Y-84963200D01*
X123178800Y-84963200D02*
X123178800Y-88163200D01*
X135825000Y-73583600D02*
X137225000Y-73583600D01*
X135825000Y-70383600D02*
X137225000Y-70383600D01*
X135825000Y-73583600D02*
X135825000Y-70383600D01*
X137225000Y-70383600D02*
X137225000Y-73583600D01*
X120572400Y-72726000D02*
X120572400Y-74126000D01*
X121472400Y-74126000D02*
X120572400Y-74126000D01*
X123572400Y-74126000D02*
X122572400Y-74126000D01*
X123572400Y-72726000D02*
X123572400Y-74126000D01*
X122472400Y-72726000D02*
X121672400Y-72726000D01*
X120623200Y-62413600D02*
X120623200Y-63813600D01*
X121523200Y-63813600D02*
X120623200Y-63813600D01*
X123623200Y-63813600D02*
X122623200Y-63813600D01*
X123623200Y-62413600D02*
X123623200Y-63813600D01*
X122523200Y-62413600D02*
X121723200Y-62413600D01*
D14*
X133514000Y-57749500D02*
X133514000Y-57849500D01*
X133514000Y-61249500D02*
X133514000Y-61149500D01*
X128614000Y-61149500D02*
X128614000Y-61249500D01*
X128614000Y-57749500D02*
X128614000Y-57849500D01*
X128614000Y-59149500D02*
X128614000Y-59849500D01*
X133514000Y-59149500D02*
X133514000Y-59849500D01*
X133514000Y-57749500D02*
X128614000Y-57749500D01*
X128614000Y-61249500D02*
X133514000Y-61249500D01*
D15*
X131528038Y-88958844D02*
G75*
G03X131528038Y-88958844I-70711J0D01*
G01*
D13*
X132270500Y-99247247D02*
X137220247Y-94297500D01*
X127320753Y-94297500D02*
X132270500Y-89347753D01*
X132270500Y-89347753D02*
X137220247Y-94297500D01*
X127320753Y-94297500D02*
X132270500Y-99247247D01*
X138381100Y-74076300D02*
X138381100Y-80076300D01*
X138381100Y-74076300D02*
X143381100Y-74076300D01*
X143381100Y-74076300D02*
X143381100Y-80076300D01*
X143381100Y-80076300D02*
X138381100Y-80076300D01*
X130629734Y-86605394D02*
X131336840Y-87312500D01*
X131690394Y-85544734D02*
X132397500Y-86251840D01*
X136978459Y-107293393D02*
X138378459Y-107293393D01*
X138378459Y-106393393D02*
X138378459Y-107293393D01*
X138378459Y-104293393D02*
X138378459Y-105293393D01*
X136978459Y-104293393D02*
X138378459Y-104293393D01*
X136978459Y-105393393D02*
X136978459Y-106193393D01*
D14*
X125409400Y-87319600D02*
X125409400Y-86619600D01*
X126609400Y-86619600D02*
X126609400Y-87319600D01*
X127187400Y-87319600D02*
X127187400Y-86619600D01*
X128387400Y-86619600D02*
X128387400Y-87319600D01*
X133513751Y-83488777D02*
X133018777Y-83983751D01*
X132170249Y-83135223D02*
X132665223Y-82640249D01*
X135291751Y-85266777D02*
X134796777Y-85761751D01*
X133948249Y-84913223D02*
X134443223Y-84418249D01*
X135925000Y-87665000D02*
X135925000Y-86965000D01*
X137125000Y-86965000D02*
X137125000Y-87665000D01*
X137398200Y-87665000D02*
X137398200Y-86965000D01*
X138598200Y-86965000D02*
X138598200Y-87665000D01*
X123656800Y-86913200D02*
X123656800Y-86213200D01*
X124856800Y-86213200D02*
X124856800Y-86913200D01*
X125622800Y-98186800D02*
X124922800Y-98186800D01*
X124922800Y-96986800D02*
X125622800Y-96986800D01*
X141534400Y-94980200D02*
X142234400Y-94980200D01*
X142234400Y-96180200D02*
X141534400Y-96180200D01*
X134248600Y-72232000D02*
X134248600Y-71532000D01*
X135448600Y-71532000D02*
X135448600Y-72232000D01*
X142041400Y-70246800D02*
X141341400Y-70246800D01*
X141341400Y-69046800D02*
X142041400Y-69046800D01*
X141343900Y-72310700D02*
X142043900Y-72310700D01*
X142043900Y-73510700D02*
X141343900Y-73510700D01*
X141432800Y-67065600D02*
X142132800Y-67065600D01*
X142132800Y-68265600D02*
X141432800Y-68265600D01*
X141343900Y-70634300D02*
X142043900Y-70634300D01*
X142043900Y-71834300D02*
X141343900Y-71834300D01*
X141891500Y-81943500D02*
X141191500Y-81943500D01*
X141191500Y-80743500D02*
X141891500Y-80743500D01*
X155099500Y-72228000D02*
X154399500Y-72228000D01*
X154399500Y-71028000D02*
X155099500Y-71028000D01*
X150697500Y-72228000D02*
X149997500Y-72228000D01*
X149997500Y-71028000D02*
X150697500Y-71028000D01*
X151520600Y-60061400D02*
X150820600Y-60061400D01*
X150820600Y-58861400D02*
X151520600Y-58861400D01*
X154742400Y-58861400D02*
X155442400Y-58861400D01*
X155442400Y-60061400D02*
X154742400Y-60061400D01*
X147558200Y-60964600D02*
X147558200Y-60264600D01*
X148758200Y-60264600D02*
X148758200Y-60964600D01*
X158340500Y-64528000D02*
X158340500Y-63828000D01*
X159540500Y-63828000D02*
X159540500Y-64528000D01*
X155099500Y-88228000D02*
X154399500Y-88228000D01*
X154399500Y-87028000D02*
X155099500Y-87028000D01*
X150697500Y-88228000D02*
X149997500Y-88228000D01*
X149997500Y-87028000D02*
X150697500Y-87028000D01*
X151495200Y-75809400D02*
X150795200Y-75809400D01*
X150795200Y-74609400D02*
X151495200Y-74609400D01*
X154767800Y-74609400D02*
X155467800Y-74609400D01*
X155467800Y-75809400D02*
X154767800Y-75809400D01*
X147304200Y-76712600D02*
X147304200Y-76012600D01*
X148504200Y-76012600D02*
X148504200Y-76712600D01*
X158340500Y-80528000D02*
X158340500Y-79828000D01*
X159540500Y-79828000D02*
X159540500Y-80528000D01*
X155099500Y-104228000D02*
X154399500Y-104228000D01*
X154399500Y-103028000D02*
X155099500Y-103028000D01*
X150697500Y-104228000D02*
X149997500Y-104228000D01*
X149997500Y-103028000D02*
X150697500Y-103028000D01*
X151556200Y-91913000D02*
X150856200Y-91913000D01*
X150856200Y-90713000D02*
X151556200Y-90713000D01*
X154742400Y-90713000D02*
X155442400Y-90713000D01*
X155442400Y-91913000D02*
X154742400Y-91913000D01*
X147304200Y-92816200D02*
X147304200Y-92116200D01*
X148504200Y-92116200D02*
X148504200Y-92816200D01*
X158340500Y-96528000D02*
X158340500Y-95828000D01*
X159540500Y-95828000D02*
X159540500Y-96528000D01*
X155099500Y-120228000D02*
X154399500Y-120228000D01*
X154399500Y-119028000D02*
X155099500Y-119028000D01*
X150697500Y-120228000D02*
X149997500Y-120228000D01*
X149997500Y-119028000D02*
X150697500Y-119028000D01*
X151546000Y-107915000D02*
X150846000Y-107915000D01*
X150846000Y-106715000D02*
X151546000Y-106715000D01*
X154752600Y-106715000D02*
X155452600Y-106715000D01*
X155452600Y-107915000D02*
X154752600Y-107915000D01*
X147405800Y-108818200D02*
X147405800Y-108118200D01*
X148605800Y-108118200D02*
X148605800Y-108818200D01*
X158340500Y-112528000D02*
X158340500Y-111828000D01*
X159540500Y-111828000D02*
X159540500Y-112528000D01*
X155099500Y-136228000D02*
X154399500Y-136228000D01*
X154399500Y-135028000D02*
X155099500Y-135028000D01*
X150697500Y-136228000D02*
X149997500Y-136228000D01*
X149997500Y-135028000D02*
X150697500Y-135028000D01*
X154752600Y-122793200D02*
X155452600Y-122793200D01*
X155452600Y-123993200D02*
X154752600Y-123993200D01*
X147431200Y-124896400D02*
X147431200Y-124196400D01*
X148631200Y-124196400D02*
X148631200Y-124896400D01*
X158340500Y-128528000D02*
X158340500Y-127828000D01*
X159540500Y-127828000D02*
X159540500Y-128528000D01*
X129901200Y-63672000D02*
X128901200Y-63672000D01*
X128901200Y-62312000D02*
X129901200Y-62312000D01*
X129887600Y-65551600D02*
X128887600Y-65551600D01*
X128887600Y-64191600D02*
X129887600Y-64191600D01*
X118570194Y-75365050D02*
X117570194Y-75365050D01*
X117570194Y-74005050D02*
X118570194Y-74005050D01*
X118577375Y-70225200D02*
X117577375Y-70225200D01*
X117577375Y-68865200D02*
X118577375Y-68865200D01*
X118559200Y-65170600D02*
X117559200Y-65170600D01*
X117559200Y-63810600D02*
X118559200Y-63810600D01*
X141373648Y-93300000D02*
X142373648Y-93300000D01*
X142373648Y-94660000D02*
X141373648Y-94660000D01*
X141373648Y-91617298D02*
X142373648Y-91617298D01*
X142373648Y-92977298D02*
X141373648Y-92977298D01*
X142333600Y-66770800D02*
X141333600Y-66770800D01*
X141333600Y-65410800D02*
X142333600Y-65410800D01*
X141384400Y-105873000D02*
X142384400Y-105873000D01*
X142384400Y-107233000D02*
X141384400Y-107233000D01*
D13*
X180527600Y-69950000D02*
G75*
G03X180527600Y-69950000I-500000J0D01*
G01*
X183527600Y-59450000D02*
X183527600Y-70950000D01*
X168527600Y-59450000D02*
X183527600Y-59450000D01*
X168527600Y-70950000D02*
X168527600Y-59450000D01*
X183527600Y-70950000D02*
X168527600Y-70950000D01*
X180527600Y-85966000D02*
G75*
G03X180527600Y-85966000I-500000J0D01*
G01*
X183527600Y-75466000D02*
X183527600Y-86966000D01*
X168527600Y-75466000D02*
X183527600Y-75466000D01*
X168527600Y-86966000D02*
X168527600Y-75466000D01*
X183527600Y-86966000D02*
X168527600Y-86966000D01*
X180527600Y-101996000D02*
G75*
G03X180527600Y-101996000I-500000J0D01*
G01*
X183527600Y-91496000D02*
X183527600Y-102996000D01*
X168527600Y-91496000D02*
X183527600Y-91496000D01*
X168527600Y-102996000D02*
X168527600Y-91496000D01*
X183527600Y-102996000D02*
X168527600Y-102996000D01*
X180522000Y-117982500D02*
G75*
G03X180522000Y-117982500I-500000J0D01*
G01*
X183522000Y-107482500D02*
X183522000Y-118982500D01*
X168522000Y-107482500D02*
X183522000Y-107482500D01*
X168522000Y-118982500D02*
X168522000Y-107482500D01*
X183522000Y-118982500D02*
X168522000Y-118982500D01*
X180522000Y-134000000D02*
G75*
G03X180522000Y-134000000I-500000J0D01*
G01*
X183522000Y-123500000D02*
X183522000Y-135000000D01*
X168522000Y-123500000D02*
X183522000Y-123500000D01*
X168522000Y-135000000D02*
X168522000Y-123500000D01*
X183522000Y-135000000D02*
X168522000Y-135000000D01*
X223504000Y-134366000D02*
X212074000Y-134366000D01*
X223504000Y-124206000D02*
X223504000Y-134366000D01*
X212074000Y-124206000D02*
X223504000Y-124206000D01*
X212074000Y-135636000D02*
X203184000Y-135636000D01*
X212074000Y-122936000D02*
X212074000Y-135636000D01*
X203184000Y-122936000D02*
X212074000Y-122936000D01*
X203184000Y-121666000D02*
X189214000Y-121666000D01*
X203184000Y-136906000D02*
X203184000Y-121666000D01*
X189214000Y-136906000D02*
X203184000Y-136906000D01*
X189214000Y-121666000D02*
X189214000Y-136906000D01*
X223504000Y-118364000D02*
X212074000Y-118364000D01*
X223504000Y-108204000D02*
X223504000Y-118364000D01*
X212074000Y-108204000D02*
X223504000Y-108204000D01*
X212074000Y-119634000D02*
X203184000Y-119634000D01*
X212074000Y-106934000D02*
X212074000Y-119634000D01*
X203184000Y-106934000D02*
X212074000Y-106934000D01*
X203184000Y-105664000D02*
X189214000Y-105664000D01*
X203184000Y-120904000D02*
X203184000Y-105664000D01*
X189214000Y-120904000D02*
X203184000Y-120904000D01*
X189214000Y-105664000D02*
X189214000Y-120904000D01*
X223504000Y-86360000D02*
X212074000Y-86360000D01*
X223504000Y-76200000D02*
X223504000Y-86360000D01*
X212074000Y-76200000D02*
X223504000Y-76200000D01*
X212074000Y-87630000D02*
X203184000Y-87630000D01*
X212074000Y-74930000D02*
X212074000Y-87630000D01*
X203184000Y-74930000D02*
X212074000Y-74930000D01*
X203184000Y-73660000D02*
X189214000Y-73660000D01*
X203184000Y-88900000D02*
X203184000Y-73660000D01*
X189214000Y-88900000D02*
X203184000Y-88900000D01*
X189214000Y-73660000D02*
X189214000Y-88900000D01*
X223504000Y-102358000D02*
X212074000Y-102358000D01*
X223504000Y-92198000D02*
X223504000Y-102358000D01*
X212074000Y-92198000D02*
X223504000Y-92198000D01*
X212074000Y-103628000D02*
X203184000Y-103628000D01*
X212074000Y-90928000D02*
X212074000Y-103628000D01*
X203184000Y-90928000D02*
X212074000Y-90928000D01*
X203184000Y-89658000D02*
X189214000Y-89658000D01*
X203184000Y-104898000D02*
X203184000Y-89658000D01*
X189214000Y-104898000D02*
X203184000Y-104898000D01*
X189214000Y-89658000D02*
X189214000Y-104898000D01*
X223440500Y-70358000D02*
X212010500Y-70358000D01*
X223440500Y-60198000D02*
X223440500Y-70358000D01*
X212010500Y-60198000D02*
X223440500Y-60198000D01*
X212010500Y-71628000D02*
X203120500Y-71628000D01*
X212010500Y-58928000D02*
X212010500Y-71628000D01*
X203120500Y-58928000D02*
X212010500Y-58928000D01*
X203120500Y-57658000D02*
X189150500Y-57658000D01*
X203120500Y-72898000D02*
X203120500Y-57658000D01*
X189150500Y-72898000D02*
X203120500Y-72898000D01*
X189150500Y-57658000D02*
X189150500Y-72898000D01*
X144303200Y-86844000D02*
X145703200Y-86844000D01*
X145703200Y-85944000D02*
X145703200Y-86844000D01*
X145703200Y-83844000D02*
X145703200Y-84844000D01*
X144303200Y-83844000D02*
X145703200Y-83844000D01*
X144303200Y-84944000D02*
X144303200Y-85744000D01*
D17*
X144729200Y-89687400D02*
X141935200Y-89687400D01*
X144983200Y-87909400D02*
G75*
G03X144729200Y-87655400I-254000J0D01*
G01*
X141935200Y-87655400D02*
G75*
G03X141681200Y-87909400I0J-254000D01*
G01*
X141935200Y-89687400D02*
G75*
G02X141681200Y-89433400I0J254000D01*
G01*
X144983200Y-89433400D02*
G75*
G02X144729200Y-89687400I-254000J0D01*
G01*
X144983200Y-89433400D02*
X144983200Y-87909400D01*
X141681200Y-89433400D02*
X141681200Y-87909400D01*
X141935200Y-87655400D02*
X144729200Y-87655400D01*
D14*
X132432500Y-104553500D02*
X132432500Y-103853500D01*
X133632500Y-103853500D02*
X133632500Y-104553500D01*
D15*
X130913711Y-107656000D02*
G75*
G03X130913711Y-107656000I-70711J0D01*
G01*
D13*
X129643000Y-107606000D02*
X129643000Y-102706000D01*
X129643000Y-102706000D02*
X126643000Y-102706000D01*
X126643000Y-102706000D02*
X126643000Y-107606000D01*
X126643000Y-107606000D02*
X129643000Y-107606000D01*
D14*
X116754600Y-93141800D02*
X116754600Y-113521800D01*
X116754600Y-113521800D02*
X119414600Y-113521800D01*
X119414600Y-113521800D02*
X119414600Y-93141800D01*
X119414600Y-93141800D02*
X116754600Y-93141800D01*
X116754600Y-91871800D02*
X116754600Y-90541800D01*
X116754600Y-90541800D02*
X118084600Y-90541800D01*
D13*
X137489000Y-74733200D02*
X137489000Y-74133200D01*
X135489000Y-76133200D02*
X137489000Y-76133200D01*
X135489000Y-74883200D02*
X135489000Y-75383200D01*
X137489000Y-74133200D02*
X135489000Y-74133200D01*
X137489000Y-76133200D02*
X137489000Y-75533200D01*
X116470194Y-72257850D02*
X119670194Y-72257850D01*
X119670194Y-72257850D02*
X119670194Y-73657850D01*
X119670194Y-73657850D02*
X116470194Y-73657850D01*
X116470194Y-73657850D02*
X116470194Y-72257850D01*
X116470194Y-72257850D02*
X116270194Y-72257850D01*
X116270194Y-72257850D02*
X116270194Y-73657850D01*
X116270194Y-73657850D02*
X116470194Y-73657850D01*
X116477375Y-67067200D02*
X119677375Y-67067200D01*
X119677375Y-67067200D02*
X119677375Y-68467200D01*
X119677375Y-68467200D02*
X116477375Y-68467200D01*
X116477375Y-68467200D02*
X116477375Y-67067200D01*
X116477375Y-67067200D02*
X116277375Y-67067200D01*
X116277375Y-67067200D02*
X116277375Y-68467200D01*
X116277375Y-68467200D02*
X116477375Y-68467200D01*
X116459200Y-62012600D02*
X119659200Y-62012600D01*
X119659200Y-62012600D02*
X119659200Y-63412600D01*
X119659200Y-63412600D02*
X116459200Y-63412600D01*
X116459200Y-63412600D02*
X116459200Y-62012600D01*
X116459200Y-62012600D02*
X116259200Y-62012600D01*
X116259200Y-62012600D02*
X116259200Y-63412600D01*
X116259200Y-63412600D02*
X116459200Y-63412600D01*
X143484400Y-105602000D02*
X140284400Y-105602000D01*
X140284400Y-105602000D02*
X140284400Y-104202000D01*
X140284400Y-104202000D02*
X143484400Y-104202000D01*
X143484400Y-104202000D02*
X143484400Y-105602000D01*
X143484400Y-105602000D02*
X143684400Y-105602000D01*
X143684400Y-105602000D02*
X143684400Y-104202000D01*
X143684400Y-104202000D02*
X143484400Y-104202000D01*
D14*
X120554400Y-125204400D02*
X122354400Y-125204400D01*
X122354400Y-125204400D02*
X122354400Y-123354400D01*
X122354400Y-123354400D02*
X123094400Y-123354400D01*
X120554400Y-115384400D02*
X122354400Y-115384400D01*
X122354400Y-115384400D02*
X122354400Y-117234400D01*
X117234400Y-125204400D02*
X116684400Y-125204400D01*
X116684400Y-125204400D02*
X116684400Y-115384400D01*
X116684400Y-115384400D02*
X117234400Y-115384400D01*
M02*
