G04 #@! TF.FileFunction,Legend,Top*
%FSLAX46Y46*%
G04 Gerber Fmt 4.6, Leading zero omitted, Abs format (unit mm)*
G04 Created by KiCad (PCBNEW 4.0.7-e1-6374~58~ubuntu16.04.1) date Tue Sep 26 15:10:51 2017*
%MOMM*%
%LPD*%
G01*
G04 APERTURE LIST*
%ADD10C,0.100000*%
%ADD11C,0.250000*%
%ADD12C,0.150000*%
%ADD13C,0.120000*%
%ADD14C,0.010000*%
%ADD15C,0.300000*%
G04 APERTURE END LIST*
D10*
D11*
X165032429Y-127770143D02*
X165032429Y-128055857D01*
X164961000Y-128198715D01*
X164818143Y-128341572D01*
X164532429Y-128413000D01*
X164032429Y-128413000D01*
X163746714Y-128341572D01*
X163603857Y-128198715D01*
X163532429Y-128055857D01*
X163532429Y-127770143D01*
X163603857Y-127627286D01*
X163746714Y-127484429D01*
X164032429Y-127413000D01*
X164532429Y-127413000D01*
X164818143Y-127484429D01*
X164961000Y-127627286D01*
X165032429Y-127770143D01*
X163532429Y-129913001D02*
X164246714Y-129413001D01*
X163532429Y-129055858D02*
X165032429Y-129055858D01*
X165032429Y-129627286D01*
X164961000Y-129770144D01*
X164889571Y-129841572D01*
X164746714Y-129913001D01*
X164532429Y-129913001D01*
X164389571Y-129841572D01*
X164318143Y-129770144D01*
X164246714Y-129627286D01*
X164246714Y-129055858D01*
X163532429Y-130555858D02*
X165032429Y-130555858D01*
X165032429Y-131127286D01*
X164961000Y-131270144D01*
X164889571Y-131341572D01*
X164746714Y-131413001D01*
X164532429Y-131413001D01*
X164389571Y-131341572D01*
X164318143Y-131270144D01*
X164246714Y-131127286D01*
X164246714Y-130555858D01*
X163532429Y-112105429D02*
X165032429Y-112105429D01*
X165032429Y-112462572D01*
X164961000Y-112676857D01*
X164818143Y-112819715D01*
X164675286Y-112891143D01*
X164389571Y-112962572D01*
X164175286Y-112962572D01*
X163889571Y-112891143D01*
X163746714Y-112819715D01*
X163603857Y-112676857D01*
X163532429Y-112462572D01*
X163532429Y-112105429D01*
X165032429Y-113891143D02*
X165032429Y-114176857D01*
X164961000Y-114319715D01*
X164818143Y-114462572D01*
X164532429Y-114534000D01*
X164032429Y-114534000D01*
X163746714Y-114462572D01*
X163603857Y-114319715D01*
X163532429Y-114176857D01*
X163532429Y-113891143D01*
X163603857Y-113748286D01*
X163746714Y-113605429D01*
X164032429Y-113534000D01*
X164532429Y-113534000D01*
X164818143Y-113605429D01*
X164961000Y-113748286D01*
X165032429Y-113891143D01*
X163532429Y-95976429D02*
X165032429Y-95976429D01*
X165032429Y-96547857D01*
X164961000Y-96690715D01*
X164889571Y-96762143D01*
X164746714Y-96833572D01*
X164532429Y-96833572D01*
X164389571Y-96762143D01*
X164318143Y-96690715D01*
X164246714Y-96547857D01*
X164246714Y-95976429D01*
X163532429Y-97476429D02*
X165032429Y-97476429D01*
X164318143Y-97476429D02*
X164318143Y-98333572D01*
X163532429Y-98333572D02*
X165032429Y-98333572D01*
X165032429Y-78819714D02*
X165032429Y-79676857D01*
X163532429Y-79248286D02*
X165032429Y-79248286D01*
X164318143Y-80176857D02*
X164318143Y-80676857D01*
X163532429Y-80891143D02*
X163532429Y-80176857D01*
X165032429Y-80176857D01*
X165032429Y-80891143D01*
X163532429Y-81534000D02*
X165032429Y-81534000D01*
X163961000Y-82034000D01*
X165032429Y-82534000D01*
X163532429Y-82534000D01*
X163532429Y-83248286D02*
X165032429Y-83248286D01*
X165032429Y-83819714D01*
X164961000Y-83962572D01*
X164889571Y-84034000D01*
X164746714Y-84105429D01*
X164532429Y-84105429D01*
X164389571Y-84034000D01*
X164318143Y-83962572D01*
X164246714Y-83819714D01*
X164246714Y-83248286D01*
X164318143Y-64333572D02*
X164318143Y-64833572D01*
X163532429Y-65047858D02*
X163532429Y-64333572D01*
X165032429Y-64333572D01*
X165032429Y-65047858D01*
X163675286Y-66547858D02*
X163603857Y-66476429D01*
X163532429Y-66262143D01*
X163532429Y-66119286D01*
X163603857Y-65905001D01*
X163746714Y-65762143D01*
X163889571Y-65690715D01*
X164175286Y-65619286D01*
X164389571Y-65619286D01*
X164675286Y-65690715D01*
X164818143Y-65762143D01*
X164961000Y-65905001D01*
X165032429Y-66119286D01*
X165032429Y-66262143D01*
X164961000Y-66476429D01*
X164889571Y-66547858D01*
X112990286Y-72104429D02*
X112323619Y-72342524D01*
X112990286Y-72580620D01*
X113323619Y-73152048D02*
X113323619Y-73247287D01*
X113276000Y-73342525D01*
X113228381Y-73390144D01*
X113133143Y-73437763D01*
X112942667Y-73485382D01*
X112704571Y-73485382D01*
X112514095Y-73437763D01*
X112418857Y-73390144D01*
X112371238Y-73342525D01*
X112323619Y-73247287D01*
X112323619Y-73152048D01*
X112371238Y-73056810D01*
X112418857Y-73009191D01*
X112514095Y-72961572D01*
X112704571Y-72913953D01*
X112942667Y-72913953D01*
X113133143Y-72961572D01*
X113228381Y-73009191D01*
X113276000Y-73056810D01*
X113323619Y-73152048D01*
X112418857Y-73913953D02*
X112371238Y-73961572D01*
X112323619Y-73913953D01*
X112371238Y-73866334D01*
X112418857Y-73913953D01*
X112323619Y-73913953D01*
X113228381Y-74342524D02*
X113276000Y-74390143D01*
X113323619Y-74485381D01*
X113323619Y-74723477D01*
X113276000Y-74818715D01*
X113228381Y-74866334D01*
X113133143Y-74913953D01*
X113037905Y-74913953D01*
X112895048Y-74866334D01*
X112323619Y-74294905D01*
X112323619Y-74913953D01*
D12*
X223504000Y-102358000D02*
X212074000Y-102358000D01*
X223504000Y-92198000D02*
X223504000Y-102358000D01*
X212074000Y-92198000D02*
X223504000Y-92198000D01*
X212074000Y-103628000D02*
X203184000Y-103628000D01*
X212074000Y-90928000D02*
X212074000Y-103628000D01*
X203184000Y-90928000D02*
X212074000Y-90928000D01*
X203184000Y-89658000D02*
X189214000Y-89658000D01*
X203184000Y-104898000D02*
X203184000Y-89658000D01*
X189214000Y-104898000D02*
X203184000Y-104898000D01*
X189214000Y-89658000D02*
X189214000Y-104898000D01*
D13*
X160753500Y-72308000D02*
X159753500Y-72308000D01*
X159753500Y-70948000D02*
X160753500Y-70948000D01*
X154249500Y-70948000D02*
X155249500Y-70948000D01*
X155249500Y-72308000D02*
X154249500Y-72308000D01*
X149847500Y-70948000D02*
X150847500Y-70948000D01*
X150847500Y-72308000D02*
X149847500Y-72308000D01*
X147983500Y-58502000D02*
X148983500Y-58502000D01*
X148983500Y-59862000D02*
X147983500Y-59862000D01*
X154110252Y-59879762D02*
X153110252Y-59879762D01*
X153110252Y-58519762D02*
X154110252Y-58519762D01*
X147936500Y-61750500D02*
X147936500Y-62750500D01*
X146576500Y-62750500D02*
X146576500Y-61750500D01*
X159620500Y-63678000D02*
X159620500Y-64678000D01*
X158260500Y-64678000D02*
X158260500Y-63678000D01*
X112436516Y-60732536D02*
X112436516Y-70952536D01*
X112436516Y-70952536D02*
X115096516Y-70952536D01*
X115096516Y-70952536D02*
X115096516Y-60732536D01*
X115096516Y-60732536D02*
X112436516Y-60732536D01*
X112436516Y-59462536D02*
X112436516Y-58132536D01*
X112436516Y-58132536D02*
X113766516Y-58132536D01*
X142121000Y-131400000D02*
X143121000Y-131400000D01*
X143121000Y-132760000D02*
X142121000Y-132760000D01*
X142121000Y-133432000D02*
X143121000Y-133432000D01*
X143121000Y-134792000D02*
X142121000Y-134792000D01*
X160753500Y-70530000D02*
X159753500Y-70530000D01*
X159753500Y-69170000D02*
X160753500Y-69170000D01*
X159690000Y-58303836D02*
X160690000Y-58303836D01*
X160690000Y-59663836D02*
X159690000Y-59663836D01*
X160753500Y-68371000D02*
X159753500Y-68371000D01*
X159753500Y-67011000D02*
X160753500Y-67011000D01*
X159690000Y-60081836D02*
X160690000Y-60081836D01*
X160690000Y-61441836D02*
X159690000Y-61441836D01*
D12*
X116937000Y-86276000D02*
X116937000Y-136906000D01*
X139857000Y-136906000D02*
X139857000Y-86276000D01*
X116937000Y-136906000D02*
X139857000Y-136906000D01*
X139857000Y-86276000D02*
X131950333Y-86276000D01*
X131950333Y-86276000D02*
X131950333Y-86726000D01*
X131950333Y-86726000D02*
X124443667Y-86726000D01*
X124443667Y-86726000D02*
X124443667Y-86276000D01*
X124443667Y-86276000D02*
X116937000Y-86276000D01*
X165925500Y-71628000D02*
X165925500Y-58928000D01*
X186245500Y-71628000D02*
X165925500Y-71628000D01*
X186245500Y-58928000D02*
X186245500Y-71628000D01*
X165925500Y-58928000D02*
X186245500Y-58928000D01*
D13*
X154249500Y-86948000D02*
X155249500Y-86948000D01*
X155249500Y-88308000D02*
X154249500Y-88308000D01*
X149847500Y-86948000D02*
X150847500Y-86948000D01*
X150847500Y-88308000D02*
X149847500Y-88308000D01*
X147983500Y-74502000D02*
X148983500Y-74502000D01*
X148983500Y-75862000D02*
X147983500Y-75862000D01*
X154110252Y-75879762D02*
X153110252Y-75879762D01*
X153110252Y-74519762D02*
X154110252Y-74519762D01*
X147936500Y-77750500D02*
X147936500Y-78750500D01*
X146576500Y-78750500D02*
X146576500Y-77750500D01*
X159620500Y-79678000D02*
X159620500Y-80678000D01*
X158260500Y-80678000D02*
X158260500Y-79678000D01*
X154249500Y-102948000D02*
X155249500Y-102948000D01*
X155249500Y-104308000D02*
X154249500Y-104308000D01*
X149847500Y-102948000D02*
X150847500Y-102948000D01*
X150847500Y-104308000D02*
X149847500Y-104308000D01*
X147983500Y-90502000D02*
X148983500Y-90502000D01*
X148983500Y-91862000D02*
X147983500Y-91862000D01*
X154110252Y-91879762D02*
X153110252Y-91879762D01*
X153110252Y-90519762D02*
X154110252Y-90519762D01*
X147936500Y-93750500D02*
X147936500Y-94750500D01*
X146576500Y-94750500D02*
X146576500Y-93750500D01*
X159620500Y-95678000D02*
X159620500Y-96678000D01*
X158260500Y-96678000D02*
X158260500Y-95678000D01*
X154249500Y-118948000D02*
X155249500Y-118948000D01*
X155249500Y-120308000D02*
X154249500Y-120308000D01*
X149847500Y-118948000D02*
X150847500Y-118948000D01*
X150847500Y-120308000D02*
X149847500Y-120308000D01*
X147983500Y-106502000D02*
X148983500Y-106502000D01*
X148983500Y-107862000D02*
X147983500Y-107862000D01*
X154110252Y-107879762D02*
X153110252Y-107879762D01*
X153110252Y-106519762D02*
X154110252Y-106519762D01*
X147936500Y-109750500D02*
X147936500Y-110750500D01*
X146576500Y-110750500D02*
X146576500Y-109750500D01*
X159620500Y-111678000D02*
X159620500Y-112678000D01*
X158260500Y-112678000D02*
X158260500Y-111678000D01*
X154249500Y-134948000D02*
X155249500Y-134948000D01*
X155249500Y-136308000D02*
X154249500Y-136308000D01*
X149847500Y-134948000D02*
X150847500Y-134948000D01*
X150847500Y-136308000D02*
X149847500Y-136308000D01*
X147983500Y-122502000D02*
X148983500Y-122502000D01*
X148983500Y-123862000D02*
X147983500Y-123862000D01*
X154110252Y-123879762D02*
X153110252Y-123879762D01*
X153110252Y-122519762D02*
X154110252Y-122519762D01*
X147936500Y-125750500D02*
X147936500Y-126750500D01*
X146576500Y-126750500D02*
X146576500Y-125750500D01*
X159620500Y-127678000D02*
X159620500Y-128678000D01*
X158260500Y-128678000D02*
X158260500Y-127678000D01*
X160753500Y-88308000D02*
X159753500Y-88308000D01*
X159753500Y-86948000D02*
X160753500Y-86948000D01*
X160753500Y-86530000D02*
X159753500Y-86530000D01*
X159753500Y-85170000D02*
X160753500Y-85170000D01*
X159690000Y-74303836D02*
X160690000Y-74303836D01*
X160690000Y-75663836D02*
X159690000Y-75663836D01*
X160753500Y-84371000D02*
X159753500Y-84371000D01*
X159753500Y-83011000D02*
X160753500Y-83011000D01*
X159690000Y-76081836D02*
X160690000Y-76081836D01*
X160690000Y-77441836D02*
X159690000Y-77441836D01*
X160753500Y-104308000D02*
X159753500Y-104308000D01*
X159753500Y-102948000D02*
X160753500Y-102948000D01*
X160753500Y-102530000D02*
X159753500Y-102530000D01*
X159753500Y-101170000D02*
X160753500Y-101170000D01*
X159690000Y-90303836D02*
X160690000Y-90303836D01*
X160690000Y-91663836D02*
X159690000Y-91663836D01*
X160753500Y-100371000D02*
X159753500Y-100371000D01*
X159753500Y-99011000D02*
X160753500Y-99011000D01*
X159690000Y-92081836D02*
X160690000Y-92081836D01*
X160690000Y-93441836D02*
X159690000Y-93441836D01*
X160753500Y-120308000D02*
X159753500Y-120308000D01*
X159753500Y-118948000D02*
X160753500Y-118948000D01*
X160753500Y-118530000D02*
X159753500Y-118530000D01*
X159753500Y-117170000D02*
X160753500Y-117170000D01*
X159690000Y-106303836D02*
X160690000Y-106303836D01*
X160690000Y-107663836D02*
X159690000Y-107663836D01*
X160753500Y-116371000D02*
X159753500Y-116371000D01*
X159753500Y-115011000D02*
X160753500Y-115011000D01*
X159690000Y-108081836D02*
X160690000Y-108081836D01*
X160690000Y-109441836D02*
X159690000Y-109441836D01*
X160753500Y-136308000D02*
X159753500Y-136308000D01*
X159753500Y-134948000D02*
X160753500Y-134948000D01*
X160753500Y-134530000D02*
X159753500Y-134530000D01*
X159753500Y-133170000D02*
X160753500Y-133170000D01*
X159690000Y-122303836D02*
X160690000Y-122303836D01*
X160690000Y-123663836D02*
X159690000Y-123663836D01*
X160753500Y-132371000D02*
X159753500Y-132371000D01*
X159753500Y-131011000D02*
X160753500Y-131011000D01*
X159690000Y-124081836D02*
X160690000Y-124081836D01*
X160690000Y-125441836D02*
X159690000Y-125441836D01*
D12*
X165925500Y-87628000D02*
X165925500Y-74928000D01*
X186245500Y-87628000D02*
X165925500Y-87628000D01*
X186245500Y-74928000D02*
X186245500Y-87628000D01*
X165925500Y-74928000D02*
X186245500Y-74928000D01*
X165925500Y-103628000D02*
X165925500Y-90928000D01*
X186245500Y-103628000D02*
X165925500Y-103628000D01*
X186245500Y-90928000D02*
X186245500Y-103628000D01*
X165925500Y-90928000D02*
X186245500Y-90928000D01*
X165925500Y-119628000D02*
X165925500Y-106928000D01*
X186245500Y-119628000D02*
X165925500Y-119628000D01*
X186245500Y-106928000D02*
X186245500Y-119628000D01*
X165925500Y-106928000D02*
X186245500Y-106928000D01*
X165925500Y-135628000D02*
X165925500Y-122928000D01*
X186245500Y-135628000D02*
X165925500Y-135628000D01*
X186245500Y-122928000D02*
X186245500Y-135628000D01*
X165925500Y-122928000D02*
X186245500Y-122928000D01*
X223440500Y-70358000D02*
X212010500Y-70358000D01*
X223440500Y-60198000D02*
X223440500Y-70358000D01*
X212010500Y-60198000D02*
X223440500Y-60198000D01*
X212010500Y-71628000D02*
X203120500Y-71628000D01*
X212010500Y-58928000D02*
X212010500Y-71628000D01*
X203120500Y-58928000D02*
X212010500Y-58928000D01*
X203120500Y-57658000D02*
X189150500Y-57658000D01*
X203120500Y-72898000D02*
X203120500Y-57658000D01*
X189150500Y-72898000D02*
X203120500Y-72898000D01*
X189150500Y-57658000D02*
X189150500Y-72898000D01*
X223504000Y-86360000D02*
X212074000Y-86360000D01*
X223504000Y-76200000D02*
X223504000Y-86360000D01*
X212074000Y-76200000D02*
X223504000Y-76200000D01*
X212074000Y-87630000D02*
X203184000Y-87630000D01*
X212074000Y-74930000D02*
X212074000Y-87630000D01*
X203184000Y-74930000D02*
X212074000Y-74930000D01*
X203184000Y-73660000D02*
X189214000Y-73660000D01*
X203184000Y-88900000D02*
X203184000Y-73660000D01*
X189214000Y-88900000D02*
X203184000Y-88900000D01*
X189214000Y-73660000D02*
X189214000Y-88900000D01*
X223504000Y-118364000D02*
X212074000Y-118364000D01*
X223504000Y-108204000D02*
X223504000Y-118364000D01*
X212074000Y-108204000D02*
X223504000Y-108204000D01*
X212074000Y-119634000D02*
X203184000Y-119634000D01*
X212074000Y-106934000D02*
X212074000Y-119634000D01*
X203184000Y-106934000D02*
X212074000Y-106934000D01*
X203184000Y-105664000D02*
X189214000Y-105664000D01*
X203184000Y-120904000D02*
X203184000Y-105664000D01*
X189214000Y-120904000D02*
X203184000Y-120904000D01*
X189214000Y-105664000D02*
X189214000Y-120904000D01*
X223504000Y-134366000D02*
X212074000Y-134366000D01*
X223504000Y-124206000D02*
X223504000Y-134366000D01*
X212074000Y-124206000D02*
X223504000Y-124206000D01*
X212074000Y-135636000D02*
X203184000Y-135636000D01*
X212074000Y-122936000D02*
X212074000Y-135636000D01*
X203184000Y-122936000D02*
X212074000Y-122936000D01*
X203184000Y-121666000D02*
X189214000Y-121666000D01*
X203184000Y-136906000D02*
X203184000Y-121666000D01*
X189214000Y-136906000D02*
X203184000Y-136906000D01*
X189214000Y-121666000D02*
X189214000Y-136906000D01*
D14*
G36*
X145341823Y-61110105D02*
X145341227Y-61165983D01*
X145340009Y-61214095D01*
X145337985Y-61256908D01*
X145334973Y-61296886D01*
X145330789Y-61336497D01*
X145325249Y-61378205D01*
X145318171Y-61424476D01*
X145309996Y-61474067D01*
X145274944Y-61644422D01*
X145227930Y-61811332D01*
X145169368Y-61974208D01*
X145099670Y-62132462D01*
X145019249Y-62285504D01*
X144928519Y-62432745D01*
X144827893Y-62573596D01*
X144717783Y-62707467D01*
X144598603Y-62833769D01*
X144470766Y-62951913D01*
X144334685Y-63061309D01*
X144190772Y-63161369D01*
X144079759Y-63228895D01*
X143921491Y-63312500D01*
X143759707Y-63383923D01*
X143594357Y-63443178D01*
X143425387Y-63490277D01*
X143252746Y-63525232D01*
X143076381Y-63548056D01*
X142896239Y-63558763D01*
X142721368Y-63557714D01*
X142546488Y-63544953D01*
X142373437Y-63519801D01*
X142202854Y-63482511D01*
X142035378Y-63433337D01*
X141871649Y-63372530D01*
X141712305Y-63300345D01*
X141557985Y-63217034D01*
X141409330Y-63122851D01*
X141266978Y-63018049D01*
X141182976Y-62948550D01*
X141141546Y-62911231D01*
X141094916Y-62866680D01*
X141045538Y-62817437D01*
X140995866Y-62766045D01*
X140948352Y-62715043D01*
X140905449Y-62666973D01*
X140869611Y-62624377D01*
X140867327Y-62621538D01*
X140760470Y-62478319D01*
X140664324Y-62328874D01*
X140579267Y-62173893D01*
X140505681Y-62014061D01*
X140448378Y-61863146D01*
X140396091Y-61691060D01*
X140356204Y-61516881D01*
X140328780Y-61341094D01*
X140313885Y-61164185D01*
X140311585Y-60986641D01*
X140316560Y-60875721D01*
X140334744Y-60698683D01*
X140365195Y-60524292D01*
X140407648Y-60353128D01*
X140461839Y-60185774D01*
X140527503Y-60022812D01*
X140604376Y-59864823D01*
X140692194Y-59712390D01*
X140790691Y-59566094D01*
X140899604Y-59426518D01*
X141018669Y-59294243D01*
X141049467Y-59262906D01*
X141179388Y-59141812D01*
X141316391Y-59031010D01*
X141459877Y-58930677D01*
X141609247Y-58840991D01*
X141763903Y-58762130D01*
X141923245Y-58694271D01*
X142045403Y-58651905D01*
X142045403Y-58899636D01*
X142036614Y-58900890D01*
X142018141Y-58906717D01*
X141991841Y-58916384D01*
X141959566Y-58929157D01*
X141923172Y-58944302D01*
X141884513Y-58961085D01*
X141845541Y-58978728D01*
X141809779Y-58996322D01*
X141766517Y-59019245D01*
X141718801Y-59045746D01*
X141669675Y-59074077D01*
X141622185Y-59102487D01*
X141579377Y-59129229D01*
X141551181Y-59147813D01*
X141432105Y-59235030D01*
X141316704Y-59331647D01*
X141206850Y-59435797D01*
X141104421Y-59545611D01*
X141011290Y-59659221D01*
X140943967Y-59752734D01*
X140908838Y-59813445D01*
X140877553Y-59885477D01*
X140850359Y-59967970D01*
X140827504Y-60060064D01*
X140809238Y-60160900D01*
X140796468Y-60262946D01*
X140794320Y-60296191D01*
X140793380Y-60338000D01*
X140793603Y-60384298D01*
X140794941Y-60431009D01*
X140797347Y-60474059D01*
X140799159Y-60495205D01*
X140811138Y-60578839D01*
X140829454Y-60656283D01*
X140853611Y-60726100D01*
X140883111Y-60786852D01*
X140917210Y-60836799D01*
X140947855Y-60869581D01*
X140980355Y-60894074D01*
X141017794Y-60911966D01*
X141063256Y-60924947D01*
X141086415Y-60929507D01*
X141147241Y-60943307D01*
X141197594Y-60961775D01*
X141239148Y-60985870D01*
X141273576Y-61016547D01*
X141300988Y-61052325D01*
X141320281Y-61085932D01*
X141336825Y-61123324D01*
X141350776Y-61165535D01*
X141362289Y-61213596D01*
X141371520Y-61268538D01*
X141378626Y-61331393D01*
X141383761Y-61403193D01*
X141387081Y-61484970D01*
X141388744Y-61577755D01*
X141389008Y-61635202D01*
X141390745Y-61784286D01*
X141395765Y-61921281D01*
X141404067Y-62046148D01*
X141415646Y-62158849D01*
X141430500Y-62259346D01*
X141443790Y-62326696D01*
X141477194Y-62452192D01*
X141520095Y-62571805D01*
X141572021Y-62684678D01*
X141632499Y-62789954D01*
X141701057Y-62886777D01*
X141777221Y-62974291D01*
X141828494Y-63023894D01*
X141854225Y-63047140D01*
X141820834Y-62980605D01*
X141804442Y-62946681D01*
X141787521Y-62909569D01*
X141772556Y-62874810D01*
X141765535Y-62857352D01*
X141749611Y-62811635D01*
X141733364Y-62757001D01*
X141717711Y-62697171D01*
X141703573Y-62635865D01*
X141691867Y-62576806D01*
X141683910Y-62526721D01*
X141679275Y-62482056D01*
X141675815Y-62427976D01*
X141673558Y-62367712D01*
X141672532Y-62304496D01*
X141672762Y-62241561D01*
X141674278Y-62182138D01*
X141677106Y-62129460D01*
X141680264Y-62094921D01*
X141705378Y-61926853D01*
X141742019Y-61756139D01*
X141789760Y-61584418D01*
X141848174Y-61413329D01*
X141878621Y-61335016D01*
X141889343Y-61308644D01*
X141899605Y-61283839D01*
X141910063Y-61259134D01*
X141921375Y-61233061D01*
X141934196Y-61204151D01*
X141949184Y-61170936D01*
X141966994Y-61131948D01*
X141988285Y-61085718D01*
X142013712Y-61030779D01*
X142040729Y-60972558D01*
X142113512Y-60804265D01*
X142175076Y-60637200D01*
X142225396Y-60471740D01*
X142264449Y-60308262D01*
X142292209Y-60147142D01*
X142308650Y-59988758D01*
X142313749Y-59833486D01*
X142307480Y-59681704D01*
X142289819Y-59533788D01*
X142260740Y-59390115D01*
X142220218Y-59251063D01*
X142168229Y-59117008D01*
X142164025Y-59107520D01*
X142149527Y-59076623D01*
X142132650Y-59043128D01*
X142114538Y-59009036D01*
X142096330Y-58976347D01*
X142079169Y-58947061D01*
X142064197Y-58923179D01*
X142052553Y-58906701D01*
X142045403Y-58899636D01*
X142045403Y-58651905D01*
X142086675Y-58637591D01*
X142253593Y-58592269D01*
X142423401Y-58558482D01*
X142595500Y-58536407D01*
X142769292Y-58526223D01*
X142897266Y-58527600D01*
X142897266Y-58758397D01*
X142822174Y-58758431D01*
X142745168Y-58760236D01*
X142669472Y-58763717D01*
X142598314Y-58768782D01*
X142534918Y-58775336D01*
X142506706Y-58779208D01*
X142463782Y-58786182D01*
X142418453Y-58794348D01*
X142372317Y-58803336D01*
X142326973Y-58812775D01*
X142284019Y-58822295D01*
X142245052Y-58831527D01*
X142211672Y-58840101D01*
X142185477Y-58847647D01*
X142168065Y-58853795D01*
X142161034Y-58858175D01*
X142161249Y-58859154D01*
X142167211Y-58862397D01*
X142183756Y-58871023D01*
X142210147Y-58884654D01*
X142245648Y-58902915D01*
X142289524Y-58925428D01*
X142341037Y-58951817D01*
X142399452Y-58981704D01*
X142464032Y-59014713D01*
X142534041Y-59050466D01*
X142608743Y-59088588D01*
X142687402Y-59128700D01*
X142769281Y-59170427D01*
X142772004Y-59171814D01*
X142853954Y-59213601D01*
X142932680Y-59253819D01*
X143007447Y-59292091D01*
X143077522Y-59328036D01*
X143142171Y-59361276D01*
X143200659Y-59391432D01*
X143252253Y-59418125D01*
X143296219Y-59440975D01*
X143331822Y-59459603D01*
X143358329Y-59473631D01*
X143375005Y-59482679D01*
X143381117Y-59486368D01*
X143381130Y-59486395D01*
X143375934Y-59490170D01*
X143360445Y-59499376D01*
X143335593Y-59513503D01*
X143302310Y-59532039D01*
X143261525Y-59554473D01*
X143214171Y-59580294D01*
X143161177Y-59608992D01*
X143103474Y-59640054D01*
X143041993Y-59672970D01*
X143020855Y-59684247D01*
X142958285Y-59717666D01*
X142899143Y-59749382D01*
X142844364Y-59778886D01*
X142794885Y-59805667D01*
X142751641Y-59829215D01*
X142715566Y-59849022D01*
X142687596Y-59864576D01*
X142668667Y-59875368D01*
X142659713Y-59880889D01*
X142659106Y-59881467D01*
X142664625Y-59884927D01*
X142680687Y-59893824D01*
X142706552Y-59907768D01*
X142741476Y-59926370D01*
X142784720Y-59949240D01*
X142835542Y-59975988D01*
X142893200Y-60006225D01*
X142956954Y-60039561D01*
X143026061Y-60075607D01*
X143099780Y-60113973D01*
X143177370Y-60154270D01*
X143244894Y-60189274D01*
X143325250Y-60230913D01*
X143402431Y-60270943D01*
X143475688Y-60308973D01*
X143544273Y-60344614D01*
X143607437Y-60377474D01*
X143664433Y-60407164D01*
X143714512Y-60433295D01*
X143756925Y-60455475D01*
X143790925Y-60473315D01*
X143815763Y-60486425D01*
X143830691Y-60494415D01*
X143835020Y-60496879D01*
X143830183Y-60500408D01*
X143814904Y-60509474D01*
X143789956Y-60523655D01*
X143756113Y-60542527D01*
X143714148Y-60565668D01*
X143664834Y-60592655D01*
X143608943Y-60623065D01*
X143547249Y-60656475D01*
X143480525Y-60692463D01*
X143409544Y-60730605D01*
X143335080Y-60770479D01*
X143322325Y-60777296D01*
X143247262Y-60817432D01*
X143175472Y-60855885D01*
X143107737Y-60892232D01*
X143044837Y-60926050D01*
X142987553Y-60956919D01*
X142936667Y-60984416D01*
X142892958Y-61008118D01*
X142857209Y-61027604D01*
X142830199Y-61042452D01*
X142812711Y-61052239D01*
X142805524Y-61056544D01*
X142805382Y-61056696D01*
X142810865Y-61060155D01*
X142826548Y-61068844D01*
X142851337Y-61082184D01*
X142884136Y-61099597D01*
X142923852Y-61120504D01*
X142969390Y-61144327D01*
X143019656Y-61170488D01*
X143073554Y-61198409D01*
X143075189Y-61199254D01*
X143129185Y-61227244D01*
X143179575Y-61253534D01*
X143225265Y-61277540D01*
X143265160Y-61298679D01*
X143298166Y-61316368D01*
X143323188Y-61330023D01*
X143339132Y-61339062D01*
X143344902Y-61342902D01*
X143344906Y-61342929D01*
X143339435Y-61346490D01*
X143323551Y-61355588D01*
X143298052Y-61369791D01*
X143263734Y-61388666D01*
X143221395Y-61411780D01*
X143171832Y-61438700D01*
X143115840Y-61468993D01*
X143054218Y-61502227D01*
X142987762Y-61537968D01*
X142917269Y-61575784D01*
X142848019Y-61612845D01*
X142773822Y-61652517D01*
X142702440Y-61690701D01*
X142634722Y-61726940D01*
X142571517Y-61760781D01*
X142513673Y-61791769D01*
X142462039Y-61819448D01*
X142417462Y-61843365D01*
X142380791Y-61863064D01*
X142352874Y-61878090D01*
X142334560Y-61887990D01*
X142327044Y-61892109D01*
X142302956Y-61905749D01*
X142555644Y-62036419D01*
X142607824Y-62063518D01*
X142656327Y-62088930D01*
X142700028Y-62112050D01*
X142737800Y-62132271D01*
X142768518Y-62148988D01*
X142791056Y-62161594D01*
X142804287Y-62169482D01*
X142807424Y-62171963D01*
X142801807Y-62175969D01*
X142786223Y-62185224D01*
X142761925Y-62199029D01*
X142730167Y-62216689D01*
X142692203Y-62237505D01*
X142649287Y-62260780D01*
X142602769Y-62285766D01*
X142556384Y-62310716D01*
X142513907Y-62333856D01*
X142476555Y-62354502D01*
X142445545Y-62371966D01*
X142422095Y-62385564D01*
X142407423Y-62394609D01*
X142402745Y-62398416D01*
X142402756Y-62398428D01*
X142408866Y-62401877D01*
X142425378Y-62410688D01*
X142451407Y-62424400D01*
X142486068Y-62442552D01*
X142528478Y-62464684D01*
X142577751Y-62490333D01*
X142633003Y-62519040D01*
X142693350Y-62550342D01*
X142757906Y-62583780D01*
X142825788Y-62618892D01*
X142827962Y-62620017D01*
X142895826Y-62655137D01*
X142960302Y-62688586D01*
X143020517Y-62719907D01*
X143075598Y-62748641D01*
X143124669Y-62774328D01*
X143166856Y-62796510D01*
X143201285Y-62814729D01*
X143227083Y-62828526D01*
X143243374Y-62837443D01*
X143249284Y-62841020D01*
X143249292Y-62841046D01*
X143243909Y-62844661D01*
X143228392Y-62854094D01*
X143203616Y-62868834D01*
X143170458Y-62888367D01*
X143129792Y-62912183D01*
X143082495Y-62939769D01*
X143029442Y-62970614D01*
X142971510Y-63004205D01*
X142909573Y-63040030D01*
X142858855Y-63069305D01*
X142794518Y-63106508D01*
X142733621Y-63141916D01*
X142677025Y-63175017D01*
X142625594Y-63205295D01*
X142580190Y-63232237D01*
X142541675Y-63255330D01*
X142510912Y-63274060D01*
X142488762Y-63287914D01*
X142476089Y-63296378D01*
X142473346Y-63298916D01*
X142483836Y-63303140D01*
X142505357Y-63307366D01*
X142536238Y-63311466D01*
X142574812Y-63315313D01*
X142619408Y-63318778D01*
X142668358Y-63321735D01*
X142719992Y-63324054D01*
X142772642Y-63325608D01*
X142824638Y-63326269D01*
X142830556Y-63326282D01*
X142939771Y-63324626D01*
X143040376Y-63319148D01*
X143135992Y-63309447D01*
X143230241Y-63295116D01*
X143326743Y-63275754D01*
X143367131Y-63266427D01*
X143528600Y-63221789D01*
X143684035Y-63166307D01*
X143834408Y-63099555D01*
X143980691Y-63021107D01*
X144106906Y-62941993D01*
X144172888Y-62896490D01*
X144232586Y-62852304D01*
X144288923Y-62807012D01*
X144344820Y-62758189D01*
X144403200Y-62703410D01*
X144450079Y-62657252D01*
X144530991Y-62573222D01*
X144602809Y-62491762D01*
X144667867Y-62409908D01*
X144728504Y-62324698D01*
X144787055Y-62233167D01*
X144795698Y-62218884D01*
X144877035Y-62071469D01*
X144946666Y-61919831D01*
X145004611Y-61764630D01*
X145050886Y-61606526D01*
X145085510Y-61446181D01*
X145108501Y-61284253D01*
X145119876Y-61121405D01*
X145119654Y-60958297D01*
X145107853Y-60795590D01*
X145084490Y-60633943D01*
X145049584Y-60474018D01*
X145003152Y-60316475D01*
X144945213Y-60161974D01*
X144875785Y-60011177D01*
X144794885Y-59864744D01*
X144728806Y-59761296D01*
X144628645Y-59624562D01*
X144519492Y-59496499D01*
X144401921Y-59377444D01*
X144276506Y-59267733D01*
X144143820Y-59167704D01*
X144004439Y-59077692D01*
X143858936Y-58998036D01*
X143707885Y-58929070D01*
X143551860Y-58871133D01*
X143391435Y-58824561D01*
X143227185Y-58789691D01*
X143059683Y-58766858D01*
X143028801Y-58764016D01*
X142967217Y-58760227D01*
X142897266Y-58758397D01*
X142897266Y-58527600D01*
X142944176Y-58528106D01*
X143119555Y-58542235D01*
X143294829Y-58568787D01*
X143351689Y-58580125D01*
X143522766Y-58622621D01*
X143688958Y-58676536D01*
X143849825Y-58741415D01*
X144004930Y-58816803D01*
X144153835Y-58902245D01*
X144296100Y-58997287D01*
X144431289Y-59101474D01*
X144558962Y-59214351D01*
X144678683Y-59335463D01*
X144790011Y-59464356D01*
X144892510Y-59600574D01*
X144985741Y-59743664D01*
X145069266Y-59893170D01*
X145142646Y-60048638D01*
X145205444Y-60209613D01*
X145257221Y-60375639D01*
X145297539Y-60546263D01*
X145309761Y-60612196D01*
X145318496Y-60664428D01*
X145325517Y-60710185D01*
X145331007Y-60751906D01*
X145335148Y-60792028D01*
X145338121Y-60832987D01*
X145340109Y-60877223D01*
X145341293Y-60927171D01*
X145341856Y-60985269D01*
X145341981Y-61043996D01*
X145341823Y-61110105D01*
X145341823Y-61110105D01*
G37*
X145341823Y-61110105D02*
X145341227Y-61165983D01*
X145340009Y-61214095D01*
X145337985Y-61256908D01*
X145334973Y-61296886D01*
X145330789Y-61336497D01*
X145325249Y-61378205D01*
X145318171Y-61424476D01*
X145309996Y-61474067D01*
X145274944Y-61644422D01*
X145227930Y-61811332D01*
X145169368Y-61974208D01*
X145099670Y-62132462D01*
X145019249Y-62285504D01*
X144928519Y-62432745D01*
X144827893Y-62573596D01*
X144717783Y-62707467D01*
X144598603Y-62833769D01*
X144470766Y-62951913D01*
X144334685Y-63061309D01*
X144190772Y-63161369D01*
X144079759Y-63228895D01*
X143921491Y-63312500D01*
X143759707Y-63383923D01*
X143594357Y-63443178D01*
X143425387Y-63490277D01*
X143252746Y-63525232D01*
X143076381Y-63548056D01*
X142896239Y-63558763D01*
X142721368Y-63557714D01*
X142546488Y-63544953D01*
X142373437Y-63519801D01*
X142202854Y-63482511D01*
X142035378Y-63433337D01*
X141871649Y-63372530D01*
X141712305Y-63300345D01*
X141557985Y-63217034D01*
X141409330Y-63122851D01*
X141266978Y-63018049D01*
X141182976Y-62948550D01*
X141141546Y-62911231D01*
X141094916Y-62866680D01*
X141045538Y-62817437D01*
X140995866Y-62766045D01*
X140948352Y-62715043D01*
X140905449Y-62666973D01*
X140869611Y-62624377D01*
X140867327Y-62621538D01*
X140760470Y-62478319D01*
X140664324Y-62328874D01*
X140579267Y-62173893D01*
X140505681Y-62014061D01*
X140448378Y-61863146D01*
X140396091Y-61691060D01*
X140356204Y-61516881D01*
X140328780Y-61341094D01*
X140313885Y-61164185D01*
X140311585Y-60986641D01*
X140316560Y-60875721D01*
X140334744Y-60698683D01*
X140365195Y-60524292D01*
X140407648Y-60353128D01*
X140461839Y-60185774D01*
X140527503Y-60022812D01*
X140604376Y-59864823D01*
X140692194Y-59712390D01*
X140790691Y-59566094D01*
X140899604Y-59426518D01*
X141018669Y-59294243D01*
X141049467Y-59262906D01*
X141179388Y-59141812D01*
X141316391Y-59031010D01*
X141459877Y-58930677D01*
X141609247Y-58840991D01*
X141763903Y-58762130D01*
X141923245Y-58694271D01*
X142045403Y-58651905D01*
X142045403Y-58899636D01*
X142036614Y-58900890D01*
X142018141Y-58906717D01*
X141991841Y-58916384D01*
X141959566Y-58929157D01*
X141923172Y-58944302D01*
X141884513Y-58961085D01*
X141845541Y-58978728D01*
X141809779Y-58996322D01*
X141766517Y-59019245D01*
X141718801Y-59045746D01*
X141669675Y-59074077D01*
X141622185Y-59102487D01*
X141579377Y-59129229D01*
X141551181Y-59147813D01*
X141432105Y-59235030D01*
X141316704Y-59331647D01*
X141206850Y-59435797D01*
X141104421Y-59545611D01*
X141011290Y-59659221D01*
X140943967Y-59752734D01*
X140908838Y-59813445D01*
X140877553Y-59885477D01*
X140850359Y-59967970D01*
X140827504Y-60060064D01*
X140809238Y-60160900D01*
X140796468Y-60262946D01*
X140794320Y-60296191D01*
X140793380Y-60338000D01*
X140793603Y-60384298D01*
X140794941Y-60431009D01*
X140797347Y-60474059D01*
X140799159Y-60495205D01*
X140811138Y-60578839D01*
X140829454Y-60656283D01*
X140853611Y-60726100D01*
X140883111Y-60786852D01*
X140917210Y-60836799D01*
X140947855Y-60869581D01*
X140980355Y-60894074D01*
X141017794Y-60911966D01*
X141063256Y-60924947D01*
X141086415Y-60929507D01*
X141147241Y-60943307D01*
X141197594Y-60961775D01*
X141239148Y-60985870D01*
X141273576Y-61016547D01*
X141300988Y-61052325D01*
X141320281Y-61085932D01*
X141336825Y-61123324D01*
X141350776Y-61165535D01*
X141362289Y-61213596D01*
X141371520Y-61268538D01*
X141378626Y-61331393D01*
X141383761Y-61403193D01*
X141387081Y-61484970D01*
X141388744Y-61577755D01*
X141389008Y-61635202D01*
X141390745Y-61784286D01*
X141395765Y-61921281D01*
X141404067Y-62046148D01*
X141415646Y-62158849D01*
X141430500Y-62259346D01*
X141443790Y-62326696D01*
X141477194Y-62452192D01*
X141520095Y-62571805D01*
X141572021Y-62684678D01*
X141632499Y-62789954D01*
X141701057Y-62886777D01*
X141777221Y-62974291D01*
X141828494Y-63023894D01*
X141854225Y-63047140D01*
X141820834Y-62980605D01*
X141804442Y-62946681D01*
X141787521Y-62909569D01*
X141772556Y-62874810D01*
X141765535Y-62857352D01*
X141749611Y-62811635D01*
X141733364Y-62757001D01*
X141717711Y-62697171D01*
X141703573Y-62635865D01*
X141691867Y-62576806D01*
X141683910Y-62526721D01*
X141679275Y-62482056D01*
X141675815Y-62427976D01*
X141673558Y-62367712D01*
X141672532Y-62304496D01*
X141672762Y-62241561D01*
X141674278Y-62182138D01*
X141677106Y-62129460D01*
X141680264Y-62094921D01*
X141705378Y-61926853D01*
X141742019Y-61756139D01*
X141789760Y-61584418D01*
X141848174Y-61413329D01*
X141878621Y-61335016D01*
X141889343Y-61308644D01*
X141899605Y-61283839D01*
X141910063Y-61259134D01*
X141921375Y-61233061D01*
X141934196Y-61204151D01*
X141949184Y-61170936D01*
X141966994Y-61131948D01*
X141988285Y-61085718D01*
X142013712Y-61030779D01*
X142040729Y-60972558D01*
X142113512Y-60804265D01*
X142175076Y-60637200D01*
X142225396Y-60471740D01*
X142264449Y-60308262D01*
X142292209Y-60147142D01*
X142308650Y-59988758D01*
X142313749Y-59833486D01*
X142307480Y-59681704D01*
X142289819Y-59533788D01*
X142260740Y-59390115D01*
X142220218Y-59251063D01*
X142168229Y-59117008D01*
X142164025Y-59107520D01*
X142149527Y-59076623D01*
X142132650Y-59043128D01*
X142114538Y-59009036D01*
X142096330Y-58976347D01*
X142079169Y-58947061D01*
X142064197Y-58923179D01*
X142052553Y-58906701D01*
X142045403Y-58899636D01*
X142045403Y-58651905D01*
X142086675Y-58637591D01*
X142253593Y-58592269D01*
X142423401Y-58558482D01*
X142595500Y-58536407D01*
X142769292Y-58526223D01*
X142897266Y-58527600D01*
X142897266Y-58758397D01*
X142822174Y-58758431D01*
X142745168Y-58760236D01*
X142669472Y-58763717D01*
X142598314Y-58768782D01*
X142534918Y-58775336D01*
X142506706Y-58779208D01*
X142463782Y-58786182D01*
X142418453Y-58794348D01*
X142372317Y-58803336D01*
X142326973Y-58812775D01*
X142284019Y-58822295D01*
X142245052Y-58831527D01*
X142211672Y-58840101D01*
X142185477Y-58847647D01*
X142168065Y-58853795D01*
X142161034Y-58858175D01*
X142161249Y-58859154D01*
X142167211Y-58862397D01*
X142183756Y-58871023D01*
X142210147Y-58884654D01*
X142245648Y-58902915D01*
X142289524Y-58925428D01*
X142341037Y-58951817D01*
X142399452Y-58981704D01*
X142464032Y-59014713D01*
X142534041Y-59050466D01*
X142608743Y-59088588D01*
X142687402Y-59128700D01*
X142769281Y-59170427D01*
X142772004Y-59171814D01*
X142853954Y-59213601D01*
X142932680Y-59253819D01*
X143007447Y-59292091D01*
X143077522Y-59328036D01*
X143142171Y-59361276D01*
X143200659Y-59391432D01*
X143252253Y-59418125D01*
X143296219Y-59440975D01*
X143331822Y-59459603D01*
X143358329Y-59473631D01*
X143375005Y-59482679D01*
X143381117Y-59486368D01*
X143381130Y-59486395D01*
X143375934Y-59490170D01*
X143360445Y-59499376D01*
X143335593Y-59513503D01*
X143302310Y-59532039D01*
X143261525Y-59554473D01*
X143214171Y-59580294D01*
X143161177Y-59608992D01*
X143103474Y-59640054D01*
X143041993Y-59672970D01*
X143020855Y-59684247D01*
X142958285Y-59717666D01*
X142899143Y-59749382D01*
X142844364Y-59778886D01*
X142794885Y-59805667D01*
X142751641Y-59829215D01*
X142715566Y-59849022D01*
X142687596Y-59864576D01*
X142668667Y-59875368D01*
X142659713Y-59880889D01*
X142659106Y-59881467D01*
X142664625Y-59884927D01*
X142680687Y-59893824D01*
X142706552Y-59907768D01*
X142741476Y-59926370D01*
X142784720Y-59949240D01*
X142835542Y-59975988D01*
X142893200Y-60006225D01*
X142956954Y-60039561D01*
X143026061Y-60075607D01*
X143099780Y-60113973D01*
X143177370Y-60154270D01*
X143244894Y-60189274D01*
X143325250Y-60230913D01*
X143402431Y-60270943D01*
X143475688Y-60308973D01*
X143544273Y-60344614D01*
X143607437Y-60377474D01*
X143664433Y-60407164D01*
X143714512Y-60433295D01*
X143756925Y-60455475D01*
X143790925Y-60473315D01*
X143815763Y-60486425D01*
X143830691Y-60494415D01*
X143835020Y-60496879D01*
X143830183Y-60500408D01*
X143814904Y-60509474D01*
X143789956Y-60523655D01*
X143756113Y-60542527D01*
X143714148Y-60565668D01*
X143664834Y-60592655D01*
X143608943Y-60623065D01*
X143547249Y-60656475D01*
X143480525Y-60692463D01*
X143409544Y-60730605D01*
X143335080Y-60770479D01*
X143322325Y-60777296D01*
X143247262Y-60817432D01*
X143175472Y-60855885D01*
X143107737Y-60892232D01*
X143044837Y-60926050D01*
X142987553Y-60956919D01*
X142936667Y-60984416D01*
X142892958Y-61008118D01*
X142857209Y-61027604D01*
X142830199Y-61042452D01*
X142812711Y-61052239D01*
X142805524Y-61056544D01*
X142805382Y-61056696D01*
X142810865Y-61060155D01*
X142826548Y-61068844D01*
X142851337Y-61082184D01*
X142884136Y-61099597D01*
X142923852Y-61120504D01*
X142969390Y-61144327D01*
X143019656Y-61170488D01*
X143073554Y-61198409D01*
X143075189Y-61199254D01*
X143129185Y-61227244D01*
X143179575Y-61253534D01*
X143225265Y-61277540D01*
X143265160Y-61298679D01*
X143298166Y-61316368D01*
X143323188Y-61330023D01*
X143339132Y-61339062D01*
X143344902Y-61342902D01*
X143344906Y-61342929D01*
X143339435Y-61346490D01*
X143323551Y-61355588D01*
X143298052Y-61369791D01*
X143263734Y-61388666D01*
X143221395Y-61411780D01*
X143171832Y-61438700D01*
X143115840Y-61468993D01*
X143054218Y-61502227D01*
X142987762Y-61537968D01*
X142917269Y-61575784D01*
X142848019Y-61612845D01*
X142773822Y-61652517D01*
X142702440Y-61690701D01*
X142634722Y-61726940D01*
X142571517Y-61760781D01*
X142513673Y-61791769D01*
X142462039Y-61819448D01*
X142417462Y-61843365D01*
X142380791Y-61863064D01*
X142352874Y-61878090D01*
X142334560Y-61887990D01*
X142327044Y-61892109D01*
X142302956Y-61905749D01*
X142555644Y-62036419D01*
X142607824Y-62063518D01*
X142656327Y-62088930D01*
X142700028Y-62112050D01*
X142737800Y-62132271D01*
X142768518Y-62148988D01*
X142791056Y-62161594D01*
X142804287Y-62169482D01*
X142807424Y-62171963D01*
X142801807Y-62175969D01*
X142786223Y-62185224D01*
X142761925Y-62199029D01*
X142730167Y-62216689D01*
X142692203Y-62237505D01*
X142649287Y-62260780D01*
X142602769Y-62285766D01*
X142556384Y-62310716D01*
X142513907Y-62333856D01*
X142476555Y-62354502D01*
X142445545Y-62371966D01*
X142422095Y-62385564D01*
X142407423Y-62394609D01*
X142402745Y-62398416D01*
X142402756Y-62398428D01*
X142408866Y-62401877D01*
X142425378Y-62410688D01*
X142451407Y-62424400D01*
X142486068Y-62442552D01*
X142528478Y-62464684D01*
X142577751Y-62490333D01*
X142633003Y-62519040D01*
X142693350Y-62550342D01*
X142757906Y-62583780D01*
X142825788Y-62618892D01*
X142827962Y-62620017D01*
X142895826Y-62655137D01*
X142960302Y-62688586D01*
X143020517Y-62719907D01*
X143075598Y-62748641D01*
X143124669Y-62774328D01*
X143166856Y-62796510D01*
X143201285Y-62814729D01*
X143227083Y-62828526D01*
X143243374Y-62837443D01*
X143249284Y-62841020D01*
X143249292Y-62841046D01*
X143243909Y-62844661D01*
X143228392Y-62854094D01*
X143203616Y-62868834D01*
X143170458Y-62888367D01*
X143129792Y-62912183D01*
X143082495Y-62939769D01*
X143029442Y-62970614D01*
X142971510Y-63004205D01*
X142909573Y-63040030D01*
X142858855Y-63069305D01*
X142794518Y-63106508D01*
X142733621Y-63141916D01*
X142677025Y-63175017D01*
X142625594Y-63205295D01*
X142580190Y-63232237D01*
X142541675Y-63255330D01*
X142510912Y-63274060D01*
X142488762Y-63287914D01*
X142476089Y-63296378D01*
X142473346Y-63298916D01*
X142483836Y-63303140D01*
X142505357Y-63307366D01*
X142536238Y-63311466D01*
X142574812Y-63315313D01*
X142619408Y-63318778D01*
X142668358Y-63321735D01*
X142719992Y-63324054D01*
X142772642Y-63325608D01*
X142824638Y-63326269D01*
X142830556Y-63326282D01*
X142939771Y-63324626D01*
X143040376Y-63319148D01*
X143135992Y-63309447D01*
X143230241Y-63295116D01*
X143326743Y-63275754D01*
X143367131Y-63266427D01*
X143528600Y-63221789D01*
X143684035Y-63166307D01*
X143834408Y-63099555D01*
X143980691Y-63021107D01*
X144106906Y-62941993D01*
X144172888Y-62896490D01*
X144232586Y-62852304D01*
X144288923Y-62807012D01*
X144344820Y-62758189D01*
X144403200Y-62703410D01*
X144450079Y-62657252D01*
X144530991Y-62573222D01*
X144602809Y-62491762D01*
X144667867Y-62409908D01*
X144728504Y-62324698D01*
X144787055Y-62233167D01*
X144795698Y-62218884D01*
X144877035Y-62071469D01*
X144946666Y-61919831D01*
X145004611Y-61764630D01*
X145050886Y-61606526D01*
X145085510Y-61446181D01*
X145108501Y-61284253D01*
X145119876Y-61121405D01*
X145119654Y-60958297D01*
X145107853Y-60795590D01*
X145084490Y-60633943D01*
X145049584Y-60474018D01*
X145003152Y-60316475D01*
X144945213Y-60161974D01*
X144875785Y-60011177D01*
X144794885Y-59864744D01*
X144728806Y-59761296D01*
X144628645Y-59624562D01*
X144519492Y-59496499D01*
X144401921Y-59377444D01*
X144276506Y-59267733D01*
X144143820Y-59167704D01*
X144004439Y-59077692D01*
X143858936Y-58998036D01*
X143707885Y-58929070D01*
X143551860Y-58871133D01*
X143391435Y-58824561D01*
X143227185Y-58789691D01*
X143059683Y-58766858D01*
X143028801Y-58764016D01*
X142967217Y-58760227D01*
X142897266Y-58758397D01*
X142897266Y-58527600D01*
X142944176Y-58528106D01*
X143119555Y-58542235D01*
X143294829Y-58568787D01*
X143351689Y-58580125D01*
X143522766Y-58622621D01*
X143688958Y-58676536D01*
X143849825Y-58741415D01*
X144004930Y-58816803D01*
X144153835Y-58902245D01*
X144296100Y-58997287D01*
X144431289Y-59101474D01*
X144558962Y-59214351D01*
X144678683Y-59335463D01*
X144790011Y-59464356D01*
X144892510Y-59600574D01*
X144985741Y-59743664D01*
X145069266Y-59893170D01*
X145142646Y-60048638D01*
X145205444Y-60209613D01*
X145257221Y-60375639D01*
X145297539Y-60546263D01*
X145309761Y-60612196D01*
X145318496Y-60664428D01*
X145325517Y-60710185D01*
X145331007Y-60751906D01*
X145335148Y-60792028D01*
X145338121Y-60832987D01*
X145340109Y-60877223D01*
X145341293Y-60927171D01*
X145341856Y-60985269D01*
X145341981Y-61043996D01*
X145341823Y-61110105D01*
G36*
X143395632Y-76458789D02*
X143395421Y-76504044D01*
X143395091Y-76543484D01*
X143394660Y-76575613D01*
X143394148Y-76598935D01*
X143393572Y-76611953D01*
X143393203Y-76614196D01*
X143385973Y-76611979D01*
X143367751Y-76605548D01*
X143339400Y-76595232D01*
X143301788Y-76581359D01*
X143255780Y-76564259D01*
X143202243Y-76544259D01*
X143142043Y-76521690D01*
X143076045Y-76496879D01*
X143005115Y-76470155D01*
X142930120Y-76441847D01*
X142851926Y-76412285D01*
X142771398Y-76381796D01*
X142689403Y-76350710D01*
X142606807Y-76319355D01*
X142524476Y-76288060D01*
X142443275Y-76257154D01*
X142364071Y-76226966D01*
X142287730Y-76197824D01*
X142215118Y-76170058D01*
X142147101Y-76143995D01*
X142084545Y-76119966D01*
X142028316Y-76098298D01*
X141979280Y-76079320D01*
X141938302Y-76063362D01*
X141906250Y-76050751D01*
X141883989Y-76041818D01*
X141872385Y-76036890D01*
X141871706Y-76036561D01*
X141801464Y-75996604D01*
X141743183Y-75953105D01*
X141696531Y-75905691D01*
X141661171Y-75853991D01*
X141636769Y-75797633D01*
X141628323Y-75766471D01*
X141620774Y-75720642D01*
X141616221Y-75668042D01*
X141614928Y-75614302D01*
X141617161Y-75565053D01*
X141618328Y-75553878D01*
X141629996Y-75487633D01*
X141649717Y-75421390D01*
X141657151Y-75401346D01*
X141668127Y-75374547D01*
X141680104Y-75347955D01*
X141691797Y-75324120D01*
X141701924Y-75305593D01*
X141709204Y-75294924D01*
X141711460Y-75293329D01*
X141719364Y-75295904D01*
X141736447Y-75303099D01*
X141760800Y-75313998D01*
X141790515Y-75327687D01*
X141823684Y-75343253D01*
X141858398Y-75359782D01*
X141892748Y-75376359D01*
X141924825Y-75392071D01*
X141952721Y-75406003D01*
X141974527Y-75417242D01*
X141988334Y-75424872D01*
X141992356Y-75427847D01*
X141989677Y-75436272D01*
X141982782Y-75451940D01*
X141976429Y-75464950D01*
X141955270Y-75516516D01*
X141944286Y-75566742D01*
X141943784Y-75613685D01*
X141948644Y-75639471D01*
X141958319Y-75660156D01*
X141974574Y-75681862D01*
X141993947Y-75700860D01*
X142012975Y-75713425D01*
X142019534Y-75715772D01*
X142028081Y-75714040D01*
X142048402Y-75707550D01*
X142080496Y-75696303D01*
X142124361Y-75680301D01*
X142179997Y-75659543D01*
X142247401Y-75634030D01*
X142326572Y-75603762D01*
X142417511Y-75568741D01*
X142520214Y-75528965D01*
X142634681Y-75484437D01*
X142708860Y-75455496D01*
X142797292Y-75420979D01*
X142882445Y-75387782D01*
X142963569Y-75356193D01*
X143039915Y-75326503D01*
X143110733Y-75299003D01*
X143175273Y-75273981D01*
X143232786Y-75251730D01*
X143282522Y-75232537D01*
X143323733Y-75216695D01*
X143355668Y-75204493D01*
X143377577Y-75196221D01*
X143388712Y-75192169D01*
X143389984Y-75191796D01*
X143391537Y-75197976D01*
X143392784Y-75215848D01*
X143393707Y-75244404D01*
X143394283Y-75282638D01*
X143394493Y-75329545D01*
X143394316Y-75384119D01*
X143394206Y-75399231D01*
X143392531Y-75606666D01*
X142479511Y-75911002D01*
X142802671Y-76014805D01*
X142869568Y-76036282D01*
X142937253Y-76057993D01*
X143003908Y-76079356D01*
X143067719Y-76099789D01*
X143126870Y-76118712D01*
X143179544Y-76135543D01*
X143223927Y-76149702D01*
X143258201Y-76160606D01*
X143260769Y-76161422D01*
X143395706Y-76204235D01*
X143395706Y-76409215D01*
X143395632Y-76458789D01*
X143395632Y-76458789D01*
G37*
X143395632Y-76458789D02*
X143395421Y-76504044D01*
X143395091Y-76543484D01*
X143394660Y-76575613D01*
X143394148Y-76598935D01*
X143393572Y-76611953D01*
X143393203Y-76614196D01*
X143385973Y-76611979D01*
X143367751Y-76605548D01*
X143339400Y-76595232D01*
X143301788Y-76581359D01*
X143255780Y-76564259D01*
X143202243Y-76544259D01*
X143142043Y-76521690D01*
X143076045Y-76496879D01*
X143005115Y-76470155D01*
X142930120Y-76441847D01*
X142851926Y-76412285D01*
X142771398Y-76381796D01*
X142689403Y-76350710D01*
X142606807Y-76319355D01*
X142524476Y-76288060D01*
X142443275Y-76257154D01*
X142364071Y-76226966D01*
X142287730Y-76197824D01*
X142215118Y-76170058D01*
X142147101Y-76143995D01*
X142084545Y-76119966D01*
X142028316Y-76098298D01*
X141979280Y-76079320D01*
X141938302Y-76063362D01*
X141906250Y-76050751D01*
X141883989Y-76041818D01*
X141872385Y-76036890D01*
X141871706Y-76036561D01*
X141801464Y-75996604D01*
X141743183Y-75953105D01*
X141696531Y-75905691D01*
X141661171Y-75853991D01*
X141636769Y-75797633D01*
X141628323Y-75766471D01*
X141620774Y-75720642D01*
X141616221Y-75668042D01*
X141614928Y-75614302D01*
X141617161Y-75565053D01*
X141618328Y-75553878D01*
X141629996Y-75487633D01*
X141649717Y-75421390D01*
X141657151Y-75401346D01*
X141668127Y-75374547D01*
X141680104Y-75347955D01*
X141691797Y-75324120D01*
X141701924Y-75305593D01*
X141709204Y-75294924D01*
X141711460Y-75293329D01*
X141719364Y-75295904D01*
X141736447Y-75303099D01*
X141760800Y-75313998D01*
X141790515Y-75327687D01*
X141823684Y-75343253D01*
X141858398Y-75359782D01*
X141892748Y-75376359D01*
X141924825Y-75392071D01*
X141952721Y-75406003D01*
X141974527Y-75417242D01*
X141988334Y-75424872D01*
X141992356Y-75427847D01*
X141989677Y-75436272D01*
X141982782Y-75451940D01*
X141976429Y-75464950D01*
X141955270Y-75516516D01*
X141944286Y-75566742D01*
X141943784Y-75613685D01*
X141948644Y-75639471D01*
X141958319Y-75660156D01*
X141974574Y-75681862D01*
X141993947Y-75700860D01*
X142012975Y-75713425D01*
X142019534Y-75715772D01*
X142028081Y-75714040D01*
X142048402Y-75707550D01*
X142080496Y-75696303D01*
X142124361Y-75680301D01*
X142179997Y-75659543D01*
X142247401Y-75634030D01*
X142326572Y-75603762D01*
X142417511Y-75568741D01*
X142520214Y-75528965D01*
X142634681Y-75484437D01*
X142708860Y-75455496D01*
X142797292Y-75420979D01*
X142882445Y-75387782D01*
X142963569Y-75356193D01*
X143039915Y-75326503D01*
X143110733Y-75299003D01*
X143175273Y-75273981D01*
X143232786Y-75251730D01*
X143282522Y-75232537D01*
X143323733Y-75216695D01*
X143355668Y-75204493D01*
X143377577Y-75196221D01*
X143388712Y-75192169D01*
X143389984Y-75191796D01*
X143391537Y-75197976D01*
X143392784Y-75215848D01*
X143393707Y-75244404D01*
X143394283Y-75282638D01*
X143394493Y-75329545D01*
X143394316Y-75384119D01*
X143394206Y-75399231D01*
X143392531Y-75606666D01*
X142479511Y-75911002D01*
X142802671Y-76014805D01*
X142869568Y-76036282D01*
X142937253Y-76057993D01*
X143003908Y-76079356D01*
X143067719Y-76099789D01*
X143126870Y-76118712D01*
X143179544Y-76135543D01*
X143223927Y-76149702D01*
X143258201Y-76160606D01*
X143260769Y-76161422D01*
X143395706Y-76204235D01*
X143395706Y-76409215D01*
X143395632Y-76458789D01*
G36*
X143417390Y-64756106D02*
X143404713Y-64843208D01*
X143383209Y-64922951D01*
X143352375Y-64996657D01*
X143311708Y-65065651D01*
X143260706Y-65131255D01*
X143230237Y-65164158D01*
X143190885Y-65204446D01*
X143152008Y-65166968D01*
X143134583Y-65150317D01*
X143110209Y-65127228D01*
X143081233Y-65099913D01*
X143050001Y-65070586D01*
X143022772Y-65045111D01*
X142932412Y-64960733D01*
X142971849Y-64917223D01*
X143012414Y-64868338D01*
X143042560Y-64821841D01*
X143063529Y-64775092D01*
X143076564Y-64725452D01*
X143082008Y-64683226D01*
X143081465Y-64618922D01*
X143069007Y-64559004D01*
X143044677Y-64503590D01*
X143008522Y-64452796D01*
X142983474Y-64426740D01*
X142931510Y-64385427D01*
X142874498Y-64355090D01*
X142811586Y-64335412D01*
X142741925Y-64326078D01*
X142709906Y-64325166D01*
X142638082Y-64330701D01*
X142571311Y-64347089D01*
X142510536Y-64373963D01*
X142456701Y-64410958D01*
X142433417Y-64432390D01*
X142394942Y-64478099D01*
X142367258Y-64527263D01*
X142349698Y-64581618D01*
X142341595Y-64642900D01*
X142340856Y-64673226D01*
X142346025Y-64734050D01*
X142361437Y-64792076D01*
X142387740Y-64848942D01*
X142425586Y-64906286D01*
X142441305Y-64926314D01*
X142456945Y-64945689D01*
X142469918Y-64962098D01*
X142477676Y-64972312D01*
X142478131Y-64972962D01*
X142478288Y-64977717D01*
X142473698Y-64985999D01*
X142463547Y-64998715D01*
X142447020Y-65016771D01*
X142423303Y-65041072D01*
X142391582Y-65072524D01*
X142367417Y-65096131D01*
X142250352Y-65210043D01*
X142213037Y-65173307D01*
X142164835Y-65120857D01*
X142120432Y-65062876D01*
X142081808Y-65002394D01*
X142050942Y-64942445D01*
X142033784Y-64898785D01*
X142019515Y-64845272D01*
X142008791Y-64783348D01*
X142001875Y-64716871D01*
X141999029Y-64649698D01*
X142000517Y-64585688D01*
X142006602Y-64528697D01*
X142007995Y-64520621D01*
X142030616Y-64429577D01*
X142063944Y-64343051D01*
X142107224Y-64262305D01*
X142159700Y-64188599D01*
X142220615Y-64123193D01*
X142272431Y-64079555D01*
X142349837Y-64028807D01*
X142431777Y-63989142D01*
X142517112Y-63960438D01*
X142604703Y-63942571D01*
X142693410Y-63935416D01*
X142782092Y-63938851D01*
X142869611Y-63952752D01*
X142954826Y-63976994D01*
X143036599Y-64011455D01*
X143113788Y-64056010D01*
X143185255Y-64110536D01*
X143249859Y-64174908D01*
X143260023Y-64186757D01*
X143314335Y-64260549D01*
X143357356Y-64339076D01*
X143389275Y-64422893D01*
X143410283Y-64512555D01*
X143420567Y-64608615D01*
X143421744Y-64660321D01*
X143417390Y-64756106D01*
X143417390Y-64756106D01*
G37*
X143417390Y-64756106D02*
X143404713Y-64843208D01*
X143383209Y-64922951D01*
X143352375Y-64996657D01*
X143311708Y-65065651D01*
X143260706Y-65131255D01*
X143230237Y-65164158D01*
X143190885Y-65204446D01*
X143152008Y-65166968D01*
X143134583Y-65150317D01*
X143110209Y-65127228D01*
X143081233Y-65099913D01*
X143050001Y-65070586D01*
X143022772Y-65045111D01*
X142932412Y-64960733D01*
X142971849Y-64917223D01*
X143012414Y-64868338D01*
X143042560Y-64821841D01*
X143063529Y-64775092D01*
X143076564Y-64725452D01*
X143082008Y-64683226D01*
X143081465Y-64618922D01*
X143069007Y-64559004D01*
X143044677Y-64503590D01*
X143008522Y-64452796D01*
X142983474Y-64426740D01*
X142931510Y-64385427D01*
X142874498Y-64355090D01*
X142811586Y-64335412D01*
X142741925Y-64326078D01*
X142709906Y-64325166D01*
X142638082Y-64330701D01*
X142571311Y-64347089D01*
X142510536Y-64373963D01*
X142456701Y-64410958D01*
X142433417Y-64432390D01*
X142394942Y-64478099D01*
X142367258Y-64527263D01*
X142349698Y-64581618D01*
X142341595Y-64642900D01*
X142340856Y-64673226D01*
X142346025Y-64734050D01*
X142361437Y-64792076D01*
X142387740Y-64848942D01*
X142425586Y-64906286D01*
X142441305Y-64926314D01*
X142456945Y-64945689D01*
X142469918Y-64962098D01*
X142477676Y-64972312D01*
X142478131Y-64972962D01*
X142478288Y-64977717D01*
X142473698Y-64985999D01*
X142463547Y-64998715D01*
X142447020Y-65016771D01*
X142423303Y-65041072D01*
X142391582Y-65072524D01*
X142367417Y-65096131D01*
X142250352Y-65210043D01*
X142213037Y-65173307D01*
X142164835Y-65120857D01*
X142120432Y-65062876D01*
X142081808Y-65002394D01*
X142050942Y-64942445D01*
X142033784Y-64898785D01*
X142019515Y-64845272D01*
X142008791Y-64783348D01*
X142001875Y-64716871D01*
X141999029Y-64649698D01*
X142000517Y-64585688D01*
X142006602Y-64528697D01*
X142007995Y-64520621D01*
X142030616Y-64429577D01*
X142063944Y-64343051D01*
X142107224Y-64262305D01*
X142159700Y-64188599D01*
X142220615Y-64123193D01*
X142272431Y-64079555D01*
X142349837Y-64028807D01*
X142431777Y-63989142D01*
X142517112Y-63960438D01*
X142604703Y-63942571D01*
X142693410Y-63935416D01*
X142782092Y-63938851D01*
X142869611Y-63952752D01*
X142954826Y-63976994D01*
X143036599Y-64011455D01*
X143113788Y-64056010D01*
X143185255Y-64110536D01*
X143249859Y-64174908D01*
X143260023Y-64186757D01*
X143314335Y-64260549D01*
X143357356Y-64339076D01*
X143389275Y-64422893D01*
X143410283Y-64512555D01*
X143420567Y-64608615D01*
X143421744Y-64660321D01*
X143417390Y-64756106D01*
G36*
X143420506Y-66063273D02*
X143416531Y-66112986D01*
X143411533Y-66147438D01*
X143387759Y-66242978D01*
X143353704Y-66332253D01*
X143309919Y-66414605D01*
X143256957Y-66489377D01*
X143195370Y-66555908D01*
X143125710Y-66613542D01*
X143048530Y-66661619D01*
X142964382Y-66699482D01*
X142941681Y-66707488D01*
X142855939Y-66729875D01*
X142767050Y-66741422D01*
X142677053Y-66742270D01*
X142587988Y-66732559D01*
X142501893Y-66712429D01*
X142420807Y-66682019D01*
X142396006Y-66670015D01*
X142312974Y-66620536D01*
X142238804Y-66562047D01*
X142173760Y-66494882D01*
X142118105Y-66419376D01*
X142072103Y-66335865D01*
X142036018Y-66244685D01*
X142020854Y-66192788D01*
X142013963Y-66164187D01*
X142009016Y-66137910D01*
X142005621Y-66110493D01*
X142003385Y-66078475D01*
X142001915Y-66038393D01*
X142001522Y-66022396D01*
X142001057Y-65964407D01*
X142002600Y-65917196D01*
X142006228Y-65878985D01*
X142008265Y-65865910D01*
X142031010Y-65770567D01*
X142064206Y-65681439D01*
X142107204Y-65599148D01*
X142159352Y-65524314D01*
X142219998Y-65457557D01*
X142288493Y-65399500D01*
X142364185Y-65350761D01*
X142446422Y-65311962D01*
X142534556Y-65283723D01*
X142627933Y-65266666D01*
X142637884Y-65265562D01*
X142704192Y-65263142D01*
X142704192Y-65652026D01*
X142638426Y-65658913D01*
X142575433Y-65675868D01*
X142517023Y-65702673D01*
X142465011Y-65739109D01*
X142455474Y-65747590D01*
X142418188Y-65785782D01*
X142389867Y-65823979D01*
X142367503Y-65866410D01*
X142362386Y-65878429D01*
X142348759Y-65924441D01*
X142341673Y-65977014D01*
X142341179Y-66031796D01*
X142347326Y-66084432D01*
X142359486Y-66128802D01*
X142388301Y-66188388D01*
X142425987Y-66239400D01*
X142471971Y-66281189D01*
X142520581Y-66310674D01*
X142568669Y-66331368D01*
X142614456Y-66344471D01*
X142663039Y-66351133D01*
X142706731Y-66352596D01*
X142778906Y-66347497D01*
X142844015Y-66332043D01*
X142902667Y-66305997D01*
X142955470Y-66269122D01*
X142980102Y-66246315D01*
X143022811Y-66194649D01*
X143054287Y-66137930D01*
X143074363Y-66077343D01*
X143082870Y-66014070D01*
X143079639Y-65949295D01*
X143064503Y-65884201D01*
X143040014Y-65825240D01*
X143022204Y-65798094D01*
X142996199Y-65768431D01*
X142965231Y-65739279D01*
X142932529Y-65713667D01*
X142901325Y-65694624D01*
X142899996Y-65693965D01*
X142836790Y-65669333D01*
X142770917Y-65655427D01*
X142704192Y-65652026D01*
X142704192Y-65263142D01*
X142728313Y-65262261D01*
X142819036Y-65270723D01*
X142908109Y-65290465D01*
X142993586Y-65321005D01*
X143073524Y-65361860D01*
X143103895Y-65381241D01*
X143138998Y-65407758D01*
X143177629Y-65441362D01*
X143216207Y-65478617D01*
X143251148Y-65516087D01*
X143275524Y-65545821D01*
X143317372Y-65609485D01*
X143354286Y-65681803D01*
X143384720Y-65759188D01*
X143407128Y-65838053D01*
X143412418Y-65863372D01*
X143418064Y-65905126D01*
X143421285Y-65955154D01*
X143422095Y-66009266D01*
X143420506Y-66063273D01*
X143420506Y-66063273D01*
G37*
X143420506Y-66063273D02*
X143416531Y-66112986D01*
X143411533Y-66147438D01*
X143387759Y-66242978D01*
X143353704Y-66332253D01*
X143309919Y-66414605D01*
X143256957Y-66489377D01*
X143195370Y-66555908D01*
X143125710Y-66613542D01*
X143048530Y-66661619D01*
X142964382Y-66699482D01*
X142941681Y-66707488D01*
X142855939Y-66729875D01*
X142767050Y-66741422D01*
X142677053Y-66742270D01*
X142587988Y-66732559D01*
X142501893Y-66712429D01*
X142420807Y-66682019D01*
X142396006Y-66670015D01*
X142312974Y-66620536D01*
X142238804Y-66562047D01*
X142173760Y-66494882D01*
X142118105Y-66419376D01*
X142072103Y-66335865D01*
X142036018Y-66244685D01*
X142020854Y-66192788D01*
X142013963Y-66164187D01*
X142009016Y-66137910D01*
X142005621Y-66110493D01*
X142003385Y-66078475D01*
X142001915Y-66038393D01*
X142001522Y-66022396D01*
X142001057Y-65964407D01*
X142002600Y-65917196D01*
X142006228Y-65878985D01*
X142008265Y-65865910D01*
X142031010Y-65770567D01*
X142064206Y-65681439D01*
X142107204Y-65599148D01*
X142159352Y-65524314D01*
X142219998Y-65457557D01*
X142288493Y-65399500D01*
X142364185Y-65350761D01*
X142446422Y-65311962D01*
X142534556Y-65283723D01*
X142627933Y-65266666D01*
X142637884Y-65265562D01*
X142704192Y-65263142D01*
X142704192Y-65652026D01*
X142638426Y-65658913D01*
X142575433Y-65675868D01*
X142517023Y-65702673D01*
X142465011Y-65739109D01*
X142455474Y-65747590D01*
X142418188Y-65785782D01*
X142389867Y-65823979D01*
X142367503Y-65866410D01*
X142362386Y-65878429D01*
X142348759Y-65924441D01*
X142341673Y-65977014D01*
X142341179Y-66031796D01*
X142347326Y-66084432D01*
X142359486Y-66128802D01*
X142388301Y-66188388D01*
X142425987Y-66239400D01*
X142471971Y-66281189D01*
X142520581Y-66310674D01*
X142568669Y-66331368D01*
X142614456Y-66344471D01*
X142663039Y-66351133D01*
X142706731Y-66352596D01*
X142778906Y-66347497D01*
X142844015Y-66332043D01*
X142902667Y-66305997D01*
X142955470Y-66269122D01*
X142980102Y-66246315D01*
X143022811Y-66194649D01*
X143054287Y-66137930D01*
X143074363Y-66077343D01*
X143082870Y-66014070D01*
X143079639Y-65949295D01*
X143064503Y-65884201D01*
X143040014Y-65825240D01*
X143022204Y-65798094D01*
X142996199Y-65768431D01*
X142965231Y-65739279D01*
X142932529Y-65713667D01*
X142901325Y-65694624D01*
X142899996Y-65693965D01*
X142836790Y-65669333D01*
X142770917Y-65655427D01*
X142704192Y-65652026D01*
X142704192Y-65263142D01*
X142728313Y-65262261D01*
X142819036Y-65270723D01*
X142908109Y-65290465D01*
X142993586Y-65321005D01*
X143073524Y-65361860D01*
X143103895Y-65381241D01*
X143138998Y-65407758D01*
X143177629Y-65441362D01*
X143216207Y-65478617D01*
X143251148Y-65516087D01*
X143275524Y-65545821D01*
X143317372Y-65609485D01*
X143354286Y-65681803D01*
X143384720Y-65759188D01*
X143407128Y-65838053D01*
X143412418Y-65863372D01*
X143418064Y-65905126D01*
X143421285Y-65955154D01*
X143422095Y-66009266D01*
X143420506Y-66063273D01*
G36*
X143419104Y-70307897D02*
X143415377Y-70359292D01*
X143409640Y-70405010D01*
X143402714Y-70438821D01*
X143374330Y-70522116D01*
X143335431Y-70598583D01*
X143286428Y-70667858D01*
X143227734Y-70729582D01*
X143159764Y-70783392D01*
X143082930Y-70828927D01*
X142997645Y-70865827D01*
X142904322Y-70893728D01*
X142875232Y-70900205D01*
X142850918Y-70904174D01*
X142819107Y-70907853D01*
X142782219Y-70911123D01*
X142742677Y-70913862D01*
X142702903Y-70915950D01*
X142665318Y-70917265D01*
X142632345Y-70917688D01*
X142606405Y-70917096D01*
X142589921Y-70915370D01*
X142587091Y-70914579D01*
X142585105Y-70913063D01*
X142583383Y-70909582D01*
X142581908Y-70903287D01*
X142580660Y-70893333D01*
X142579621Y-70878871D01*
X142578771Y-70859055D01*
X142578092Y-70833038D01*
X142577566Y-70799971D01*
X142577173Y-70759010D01*
X142576895Y-70709305D01*
X142576714Y-70650010D01*
X142576609Y-70580278D01*
X142576564Y-70499262D01*
X142576556Y-70438141D01*
X142576536Y-70361941D01*
X142576476Y-70289550D01*
X142576379Y-70221953D01*
X142576250Y-70160138D01*
X142576092Y-70105088D01*
X142575908Y-70057789D01*
X142575700Y-70019227D01*
X142575473Y-69990388D01*
X142575230Y-69972256D01*
X142574975Y-69965817D01*
X142574969Y-69965814D01*
X142562079Y-69968672D01*
X142541530Y-69975594D01*
X142517096Y-69985118D01*
X142492554Y-69995780D01*
X142473414Y-70005180D01*
X142423887Y-70038438D01*
X142383399Y-70080298D01*
X142352249Y-70130150D01*
X142330733Y-70187382D01*
X142319149Y-70251385D01*
X142317795Y-70321549D01*
X142317944Y-70324252D01*
X142327371Y-70393567D01*
X142347729Y-70459288D01*
X142379587Y-70522797D01*
X142423513Y-70585478D01*
X142427455Y-70590361D01*
X142456613Y-70626156D01*
X142359422Y-70736824D01*
X142331513Y-70768302D01*
X142306150Y-70796337D01*
X142284592Y-70819582D01*
X142268101Y-70836692D01*
X142257935Y-70846319D01*
X142255443Y-70847944D01*
X142247628Y-70843649D01*
X142233472Y-70831491D01*
X142214759Y-70813368D01*
X142193273Y-70791176D01*
X142170799Y-70766814D01*
X142149121Y-70742178D01*
X142130023Y-70719167D01*
X142115289Y-70699677D01*
X142113279Y-70696750D01*
X142069393Y-70620360D01*
X142035505Y-70536769D01*
X142012045Y-70447128D01*
X142005278Y-70407071D01*
X142001675Y-70369645D01*
X141999891Y-70324000D01*
X141999869Y-70274476D01*
X142001552Y-70225415D01*
X142004884Y-70181158D01*
X142008606Y-70152671D01*
X142030044Y-70059621D01*
X142062020Y-69973506D01*
X142104792Y-69893805D01*
X142158618Y-69819997D01*
X142191092Y-69783742D01*
X142259211Y-69721542D01*
X142334368Y-69669864D01*
X142416255Y-69628871D01*
X142504565Y-69598724D01*
X142570206Y-69584131D01*
X142608121Y-69579406D01*
X142654476Y-69576656D01*
X142705328Y-69575845D01*
X142756733Y-69576939D01*
X142804750Y-69579902D01*
X142824206Y-69582196D01*
X142824206Y-69960584D01*
X142824206Y-70245740D01*
X142824231Y-70313437D01*
X142824333Y-70369520D01*
X142824556Y-70415076D01*
X142824940Y-70451188D01*
X142825529Y-70478945D01*
X142826365Y-70499431D01*
X142827490Y-70513732D01*
X142828947Y-70522934D01*
X142830778Y-70528124D01*
X142833024Y-70530387D01*
X142835319Y-70530820D01*
X142853842Y-70528290D01*
X142879730Y-70521722D01*
X142908805Y-70512375D01*
X142936889Y-70501507D01*
X142945881Y-70497498D01*
X142998051Y-70467591D01*
X143039566Y-70431186D01*
X143071060Y-70387605D01*
X143091445Y-70341435D01*
X143098049Y-70319180D01*
X143101830Y-70297980D01*
X143103253Y-70273465D01*
X143102780Y-70241263D01*
X143102604Y-70236293D01*
X143101012Y-70204709D01*
X143098390Y-70181600D01*
X143093831Y-70162738D01*
X143086428Y-70143900D01*
X143079783Y-70129910D01*
X143049988Y-70083533D01*
X143009557Y-70042961D01*
X142959471Y-70008871D01*
X142900714Y-69981939D01*
X142838494Y-69963762D01*
X142824206Y-69960584D01*
X142824206Y-69582196D01*
X142845434Y-69584700D01*
X142856554Y-69586675D01*
X142950609Y-69611135D01*
X143037993Y-69645633D01*
X143118104Y-69689592D01*
X143190340Y-69742436D01*
X143254098Y-69803591D01*
X143308776Y-69872480D01*
X143353773Y-69948529D01*
X143388487Y-70031162D01*
X143411863Y-70117546D01*
X143417200Y-70155652D01*
X143420118Y-70202478D01*
X143420719Y-70254426D01*
X143419104Y-70307897D01*
X143419104Y-70307897D01*
G37*
X143419104Y-70307897D02*
X143415377Y-70359292D01*
X143409640Y-70405010D01*
X143402714Y-70438821D01*
X143374330Y-70522116D01*
X143335431Y-70598583D01*
X143286428Y-70667858D01*
X143227734Y-70729582D01*
X143159764Y-70783392D01*
X143082930Y-70828927D01*
X142997645Y-70865827D01*
X142904322Y-70893728D01*
X142875232Y-70900205D01*
X142850918Y-70904174D01*
X142819107Y-70907853D01*
X142782219Y-70911123D01*
X142742677Y-70913862D01*
X142702903Y-70915950D01*
X142665318Y-70917265D01*
X142632345Y-70917688D01*
X142606405Y-70917096D01*
X142589921Y-70915370D01*
X142587091Y-70914579D01*
X142585105Y-70913063D01*
X142583383Y-70909582D01*
X142581908Y-70903287D01*
X142580660Y-70893333D01*
X142579621Y-70878871D01*
X142578771Y-70859055D01*
X142578092Y-70833038D01*
X142577566Y-70799971D01*
X142577173Y-70759010D01*
X142576895Y-70709305D01*
X142576714Y-70650010D01*
X142576609Y-70580278D01*
X142576564Y-70499262D01*
X142576556Y-70438141D01*
X142576536Y-70361941D01*
X142576476Y-70289550D01*
X142576379Y-70221953D01*
X142576250Y-70160138D01*
X142576092Y-70105088D01*
X142575908Y-70057789D01*
X142575700Y-70019227D01*
X142575473Y-69990388D01*
X142575230Y-69972256D01*
X142574975Y-69965817D01*
X142574969Y-69965814D01*
X142562079Y-69968672D01*
X142541530Y-69975594D01*
X142517096Y-69985118D01*
X142492554Y-69995780D01*
X142473414Y-70005180D01*
X142423887Y-70038438D01*
X142383399Y-70080298D01*
X142352249Y-70130150D01*
X142330733Y-70187382D01*
X142319149Y-70251385D01*
X142317795Y-70321549D01*
X142317944Y-70324252D01*
X142327371Y-70393567D01*
X142347729Y-70459288D01*
X142379587Y-70522797D01*
X142423513Y-70585478D01*
X142427455Y-70590361D01*
X142456613Y-70626156D01*
X142359422Y-70736824D01*
X142331513Y-70768302D01*
X142306150Y-70796337D01*
X142284592Y-70819582D01*
X142268101Y-70836692D01*
X142257935Y-70846319D01*
X142255443Y-70847944D01*
X142247628Y-70843649D01*
X142233472Y-70831491D01*
X142214759Y-70813368D01*
X142193273Y-70791176D01*
X142170799Y-70766814D01*
X142149121Y-70742178D01*
X142130023Y-70719167D01*
X142115289Y-70699677D01*
X142113279Y-70696750D01*
X142069393Y-70620360D01*
X142035505Y-70536769D01*
X142012045Y-70447128D01*
X142005278Y-70407071D01*
X142001675Y-70369645D01*
X141999891Y-70324000D01*
X141999869Y-70274476D01*
X142001552Y-70225415D01*
X142004884Y-70181158D01*
X142008606Y-70152671D01*
X142030044Y-70059621D01*
X142062020Y-69973506D01*
X142104792Y-69893805D01*
X142158618Y-69819997D01*
X142191092Y-69783742D01*
X142259211Y-69721542D01*
X142334368Y-69669864D01*
X142416255Y-69628871D01*
X142504565Y-69598724D01*
X142570206Y-69584131D01*
X142608121Y-69579406D01*
X142654476Y-69576656D01*
X142705328Y-69575845D01*
X142756733Y-69576939D01*
X142804750Y-69579902D01*
X142824206Y-69582196D01*
X142824206Y-69960584D01*
X142824206Y-70245740D01*
X142824231Y-70313437D01*
X142824333Y-70369520D01*
X142824556Y-70415076D01*
X142824940Y-70451188D01*
X142825529Y-70478945D01*
X142826365Y-70499431D01*
X142827490Y-70513732D01*
X142828947Y-70522934D01*
X142830778Y-70528124D01*
X142833024Y-70530387D01*
X142835319Y-70530820D01*
X142853842Y-70528290D01*
X142879730Y-70521722D01*
X142908805Y-70512375D01*
X142936889Y-70501507D01*
X142945881Y-70497498D01*
X142998051Y-70467591D01*
X143039566Y-70431186D01*
X143071060Y-70387605D01*
X143091445Y-70341435D01*
X143098049Y-70319180D01*
X143101830Y-70297980D01*
X143103253Y-70273465D01*
X143102780Y-70241263D01*
X143102604Y-70236293D01*
X143101012Y-70204709D01*
X143098390Y-70181600D01*
X143093831Y-70162738D01*
X143086428Y-70143900D01*
X143079783Y-70129910D01*
X143049988Y-70083533D01*
X143009557Y-70042961D01*
X142959471Y-70008871D01*
X142900714Y-69981939D01*
X142838494Y-69963762D01*
X142824206Y-69960584D01*
X142824206Y-69582196D01*
X142845434Y-69584700D01*
X142856554Y-69586675D01*
X142950609Y-69611135D01*
X143037993Y-69645633D01*
X143118104Y-69689592D01*
X143190340Y-69742436D01*
X143254098Y-69803591D01*
X143308776Y-69872480D01*
X143353773Y-69948529D01*
X143388487Y-70031162D01*
X143411863Y-70117546D01*
X143417200Y-70155652D01*
X143420118Y-70202478D01*
X143420719Y-70254426D01*
X143419104Y-70307897D01*
G36*
X143417264Y-68960263D02*
X143407653Y-69048204D01*
X143388418Y-69139055D01*
X143359374Y-69232038D01*
X143358113Y-69235496D01*
X143347422Y-69262221D01*
X143333791Y-69292717D01*
X143318455Y-69324609D01*
X143302647Y-69355519D01*
X143287599Y-69383075D01*
X143274545Y-69404900D01*
X143264719Y-69418619D01*
X143261452Y-69421665D01*
X143253585Y-69421101D01*
X143236811Y-69414761D01*
X143210668Y-69402426D01*
X143174697Y-69383877D01*
X143128436Y-69358896D01*
X143122569Y-69355674D01*
X143085659Y-69335350D01*
X143052590Y-69317090D01*
X143024944Y-69301772D01*
X143004308Y-69290276D01*
X142992265Y-69283481D01*
X142989819Y-69282024D01*
X142991489Y-69275885D01*
X142997850Y-69260351D01*
X143008018Y-69237439D01*
X143021111Y-69209164D01*
X143028972Y-69192616D01*
X143045400Y-69157247D01*
X143061266Y-69121186D01*
X143074998Y-69088126D01*
X143085029Y-69061761D01*
X143086853Y-69056410D01*
X143102489Y-68999476D01*
X143111069Y-68946545D01*
X143112825Y-68898670D01*
X143107991Y-68856904D01*
X143096800Y-68822303D01*
X143079486Y-68795918D01*
X143056281Y-68778805D01*
X143027420Y-68772017D01*
X143023862Y-68771946D01*
X142998389Y-68775608D01*
X142977830Y-68787765D01*
X142960423Y-68807555D01*
X142941256Y-68839177D01*
X142920253Y-68882793D01*
X142897335Y-68938569D01*
X142872427Y-69006667D01*
X142865775Y-69025946D01*
X142838404Y-69102606D01*
X142812387Y-69167970D01*
X142787136Y-69223289D01*
X142762063Y-69269817D01*
X142736579Y-69308807D01*
X142727015Y-69321464D01*
X142682895Y-69370280D01*
X142635792Y-69407557D01*
X142584195Y-69434014D01*
X142526594Y-69450366D01*
X142461478Y-69457334D01*
X142440285Y-69457701D01*
X142363467Y-69452228D01*
X142293390Y-69436061D01*
X142230278Y-69409404D01*
X142174358Y-69372467D01*
X142125857Y-69325456D01*
X142084999Y-69268577D01*
X142052012Y-69202039D01*
X142027122Y-69126048D01*
X142014745Y-69067976D01*
X142011070Y-69038467D01*
X142008309Y-69000301D01*
X142006548Y-68957358D01*
X142005871Y-68913522D01*
X142006364Y-68872675D01*
X142008112Y-68838698D01*
X142009429Y-68825921D01*
X142022759Y-68750567D01*
X142043081Y-68671689D01*
X142068808Y-68594679D01*
X142097465Y-68526784D01*
X142110026Y-68502224D01*
X142125918Y-68473737D01*
X142143700Y-68443620D01*
X142161930Y-68414172D01*
X142179167Y-68387692D01*
X142193969Y-68366478D01*
X142204894Y-68352829D01*
X142208739Y-68349373D01*
X142215199Y-68351779D01*
X142230432Y-68360049D01*
X142252619Y-68373034D01*
X142279944Y-68389584D01*
X142310589Y-68408550D01*
X142342739Y-68428784D01*
X142374575Y-68449137D01*
X142404282Y-68468458D01*
X142430042Y-68485600D01*
X142450039Y-68499414D01*
X142462455Y-68508750D01*
X142465545Y-68511780D01*
X142463557Y-68518770D01*
X142455883Y-68534096D01*
X142443765Y-68555450D01*
X142429471Y-68578890D01*
X142387064Y-68653880D01*
X142352465Y-68730750D01*
X142327409Y-68805648D01*
X142327362Y-68805822D01*
X142320703Y-68833830D01*
X142316409Y-68861641D01*
X142314050Y-68893325D01*
X142313196Y-68932954D01*
X142313171Y-68940221D01*
X142313327Y-68975142D01*
X142314179Y-69000186D01*
X142316097Y-69018174D01*
X142319451Y-69031924D01*
X142324611Y-69044256D01*
X142327575Y-69050007D01*
X142348831Y-69078325D01*
X142376179Y-69095911D01*
X142408604Y-69102118D01*
X142409382Y-69102122D01*
X142432164Y-69098729D01*
X142452554Y-69087845D01*
X142471282Y-69068474D01*
X142489074Y-69039620D01*
X142506657Y-69000290D01*
X142524760Y-68949488D01*
X142527755Y-68940221D01*
X142547251Y-68879312D01*
X142563404Y-68829142D01*
X142576687Y-68788335D01*
X142587572Y-68755517D01*
X142596530Y-68729314D01*
X142604035Y-68708349D01*
X142610557Y-68691248D01*
X142616570Y-68676636D01*
X142622545Y-68663138D01*
X142623964Y-68660046D01*
X142661752Y-68590918D01*
X142706404Y-68532466D01*
X142734834Y-68504010D01*
X142779661Y-68468790D01*
X142826524Y-68443290D01*
X142877796Y-68426673D01*
X142935849Y-68418101D01*
X142982703Y-68416439D01*
X143045341Y-68419510D01*
X143099900Y-68428977D01*
X143149637Y-68445508D01*
X143170218Y-68454888D01*
X143230845Y-68491531D01*
X143283347Y-68537310D01*
X143327538Y-68591447D01*
X143363230Y-68653164D01*
X143390236Y-68721682D01*
X143408369Y-68796223D01*
X143417441Y-68876010D01*
X143417264Y-68960263D01*
X143417264Y-68960263D01*
G37*
X143417264Y-68960263D02*
X143407653Y-69048204D01*
X143388418Y-69139055D01*
X143359374Y-69232038D01*
X143358113Y-69235496D01*
X143347422Y-69262221D01*
X143333791Y-69292717D01*
X143318455Y-69324609D01*
X143302647Y-69355519D01*
X143287599Y-69383075D01*
X143274545Y-69404900D01*
X143264719Y-69418619D01*
X143261452Y-69421665D01*
X143253585Y-69421101D01*
X143236811Y-69414761D01*
X143210668Y-69402426D01*
X143174697Y-69383877D01*
X143128436Y-69358896D01*
X143122569Y-69355674D01*
X143085659Y-69335350D01*
X143052590Y-69317090D01*
X143024944Y-69301772D01*
X143004308Y-69290276D01*
X142992265Y-69283481D01*
X142989819Y-69282024D01*
X142991489Y-69275885D01*
X142997850Y-69260351D01*
X143008018Y-69237439D01*
X143021111Y-69209164D01*
X143028972Y-69192616D01*
X143045400Y-69157247D01*
X143061266Y-69121186D01*
X143074998Y-69088126D01*
X143085029Y-69061761D01*
X143086853Y-69056410D01*
X143102489Y-68999476D01*
X143111069Y-68946545D01*
X143112825Y-68898670D01*
X143107991Y-68856904D01*
X143096800Y-68822303D01*
X143079486Y-68795918D01*
X143056281Y-68778805D01*
X143027420Y-68772017D01*
X143023862Y-68771946D01*
X142998389Y-68775608D01*
X142977830Y-68787765D01*
X142960423Y-68807555D01*
X142941256Y-68839177D01*
X142920253Y-68882793D01*
X142897335Y-68938569D01*
X142872427Y-69006667D01*
X142865775Y-69025946D01*
X142838404Y-69102606D01*
X142812387Y-69167970D01*
X142787136Y-69223289D01*
X142762063Y-69269817D01*
X142736579Y-69308807D01*
X142727015Y-69321464D01*
X142682895Y-69370280D01*
X142635792Y-69407557D01*
X142584195Y-69434014D01*
X142526594Y-69450366D01*
X142461478Y-69457334D01*
X142440285Y-69457701D01*
X142363467Y-69452228D01*
X142293390Y-69436061D01*
X142230278Y-69409404D01*
X142174358Y-69372467D01*
X142125857Y-69325456D01*
X142084999Y-69268577D01*
X142052012Y-69202039D01*
X142027122Y-69126048D01*
X142014745Y-69067976D01*
X142011070Y-69038467D01*
X142008309Y-69000301D01*
X142006548Y-68957358D01*
X142005871Y-68913522D01*
X142006364Y-68872675D01*
X142008112Y-68838698D01*
X142009429Y-68825921D01*
X142022759Y-68750567D01*
X142043081Y-68671689D01*
X142068808Y-68594679D01*
X142097465Y-68526784D01*
X142110026Y-68502224D01*
X142125918Y-68473737D01*
X142143700Y-68443620D01*
X142161930Y-68414172D01*
X142179167Y-68387692D01*
X142193969Y-68366478D01*
X142204894Y-68352829D01*
X142208739Y-68349373D01*
X142215199Y-68351779D01*
X142230432Y-68360049D01*
X142252619Y-68373034D01*
X142279944Y-68389584D01*
X142310589Y-68408550D01*
X142342739Y-68428784D01*
X142374575Y-68449137D01*
X142404282Y-68468458D01*
X142430042Y-68485600D01*
X142450039Y-68499414D01*
X142462455Y-68508750D01*
X142465545Y-68511780D01*
X142463557Y-68518770D01*
X142455883Y-68534096D01*
X142443765Y-68555450D01*
X142429471Y-68578890D01*
X142387064Y-68653880D01*
X142352465Y-68730750D01*
X142327409Y-68805648D01*
X142327362Y-68805822D01*
X142320703Y-68833830D01*
X142316409Y-68861641D01*
X142314050Y-68893325D01*
X142313196Y-68932954D01*
X142313171Y-68940221D01*
X142313327Y-68975142D01*
X142314179Y-69000186D01*
X142316097Y-69018174D01*
X142319451Y-69031924D01*
X142324611Y-69044256D01*
X142327575Y-69050007D01*
X142348831Y-69078325D01*
X142376179Y-69095911D01*
X142408604Y-69102118D01*
X142409382Y-69102122D01*
X142432164Y-69098729D01*
X142452554Y-69087845D01*
X142471282Y-69068474D01*
X142489074Y-69039620D01*
X142506657Y-69000290D01*
X142524760Y-68949488D01*
X142527755Y-68940221D01*
X142547251Y-68879312D01*
X142563404Y-68829142D01*
X142576687Y-68788335D01*
X142587572Y-68755517D01*
X142596530Y-68729314D01*
X142604035Y-68708349D01*
X142610557Y-68691248D01*
X142616570Y-68676636D01*
X142622545Y-68663138D01*
X142623964Y-68660046D01*
X142661752Y-68590918D01*
X142706404Y-68532466D01*
X142734834Y-68504010D01*
X142779661Y-68468790D01*
X142826524Y-68443290D01*
X142877796Y-68426673D01*
X142935849Y-68418101D01*
X142982703Y-68416439D01*
X143045341Y-68419510D01*
X143099900Y-68428977D01*
X143149637Y-68445508D01*
X143170218Y-68454888D01*
X143230845Y-68491531D01*
X143283347Y-68537310D01*
X143327538Y-68591447D01*
X143363230Y-68653164D01*
X143390236Y-68721682D01*
X143408369Y-68796223D01*
X143417441Y-68876010D01*
X143417264Y-68960263D01*
G36*
X143359194Y-73469264D02*
X143348441Y-73465105D01*
X143326672Y-73456640D01*
X143294699Y-73444186D01*
X143253334Y-73428059D01*
X143203390Y-73408578D01*
X143145678Y-73386058D01*
X143081011Y-73360817D01*
X143010202Y-73333172D01*
X142934062Y-73303440D01*
X142853404Y-73271938D01*
X142769040Y-73238983D01*
X142681783Y-73204892D01*
X142671806Y-73200993D01*
X142020931Y-72946672D01*
X142019245Y-72767322D01*
X142018798Y-72714759D01*
X142018610Y-72673493D01*
X142018754Y-72642124D01*
X142019302Y-72619251D01*
X142020327Y-72603471D01*
X142021902Y-72593385D01*
X142024099Y-72587592D01*
X142026992Y-72584689D01*
X142028770Y-72583866D01*
X142036055Y-72581057D01*
X142054409Y-72573924D01*
X142083075Y-72562763D01*
X142121292Y-72547871D01*
X142168300Y-72529543D01*
X142223341Y-72508076D01*
X142285654Y-72483767D01*
X142354480Y-72456911D01*
X142429061Y-72427805D01*
X142508635Y-72396745D01*
X142592443Y-72364027D01*
X142679727Y-72329948D01*
X142712048Y-72317328D01*
X142800270Y-72282898D01*
X142885212Y-72249787D01*
X142966121Y-72218287D01*
X143042247Y-72188687D01*
X143112837Y-72161278D01*
X143177141Y-72136353D01*
X143234408Y-72114200D01*
X143283886Y-72095112D01*
X143324823Y-72079379D01*
X143356469Y-72067291D01*
X143378072Y-72059141D01*
X143388881Y-72055217D01*
X143389997Y-72054896D01*
X143391540Y-72061073D01*
X143392782Y-72078925D01*
X143393702Y-72107426D01*
X143394278Y-72145553D01*
X143394491Y-72192282D01*
X143394320Y-72246591D01*
X143394206Y-72262331D01*
X143392531Y-72469766D01*
X142945541Y-72618761D01*
X142864405Y-72645906D01*
X142789909Y-72671030D01*
X142722692Y-72693910D01*
X142663395Y-72714320D01*
X142612656Y-72732037D01*
X142571115Y-72746836D01*
X142539411Y-72758493D01*
X142518184Y-72766784D01*
X142508072Y-72771484D01*
X142507391Y-72772422D01*
X142514723Y-72775162D01*
X142533127Y-72781610D01*
X142561636Y-72791435D01*
X142599280Y-72804310D01*
X142645091Y-72819904D01*
X142698101Y-72837889D01*
X142757340Y-72857935D01*
X142821840Y-72879713D01*
X142890633Y-72902894D01*
X142955969Y-72924871D01*
X143395706Y-73072654D01*
X143395706Y-73483213D01*
X143359194Y-73469264D01*
X143359194Y-73469264D01*
G37*
X143359194Y-73469264D02*
X143348441Y-73465105D01*
X143326672Y-73456640D01*
X143294699Y-73444186D01*
X143253334Y-73428059D01*
X143203390Y-73408578D01*
X143145678Y-73386058D01*
X143081011Y-73360817D01*
X143010202Y-73333172D01*
X142934062Y-73303440D01*
X142853404Y-73271938D01*
X142769040Y-73238983D01*
X142681783Y-73204892D01*
X142671806Y-73200993D01*
X142020931Y-72946672D01*
X142019245Y-72767322D01*
X142018798Y-72714759D01*
X142018610Y-72673493D01*
X142018754Y-72642124D01*
X142019302Y-72619251D01*
X142020327Y-72603471D01*
X142021902Y-72593385D01*
X142024099Y-72587592D01*
X142026992Y-72584689D01*
X142028770Y-72583866D01*
X142036055Y-72581057D01*
X142054409Y-72573924D01*
X142083075Y-72562763D01*
X142121292Y-72547871D01*
X142168300Y-72529543D01*
X142223341Y-72508076D01*
X142285654Y-72483767D01*
X142354480Y-72456911D01*
X142429061Y-72427805D01*
X142508635Y-72396745D01*
X142592443Y-72364027D01*
X142679727Y-72329948D01*
X142712048Y-72317328D01*
X142800270Y-72282898D01*
X142885212Y-72249787D01*
X142966121Y-72218287D01*
X143042247Y-72188687D01*
X143112837Y-72161278D01*
X143177141Y-72136353D01*
X143234408Y-72114200D01*
X143283886Y-72095112D01*
X143324823Y-72079379D01*
X143356469Y-72067291D01*
X143378072Y-72059141D01*
X143388881Y-72055217D01*
X143389997Y-72054896D01*
X143391540Y-72061073D01*
X143392782Y-72078925D01*
X143393702Y-72107426D01*
X143394278Y-72145553D01*
X143394491Y-72192282D01*
X143394320Y-72246591D01*
X143394206Y-72262331D01*
X143392531Y-72469766D01*
X142945541Y-72618761D01*
X142864405Y-72645906D01*
X142789909Y-72671030D01*
X142722692Y-72693910D01*
X142663395Y-72714320D01*
X142612656Y-72732037D01*
X142571115Y-72746836D01*
X142539411Y-72758493D01*
X142518184Y-72766784D01*
X142508072Y-72771484D01*
X142507391Y-72772422D01*
X142514723Y-72775162D01*
X142533127Y-72781610D01*
X142561636Y-72791435D01*
X142599280Y-72804310D01*
X142645091Y-72819904D01*
X142698101Y-72837889D01*
X142757340Y-72857935D01*
X142821840Y-72879713D01*
X142890633Y-72902894D01*
X142955969Y-72924871D01*
X143395706Y-73072654D01*
X143395706Y-73483213D01*
X143359194Y-73469264D01*
G36*
X143417746Y-67762482D02*
X143417013Y-67793999D01*
X143415470Y-67818326D01*
X143412854Y-67838213D01*
X143408902Y-67856415D01*
X143403351Y-67875685D01*
X143403067Y-67876596D01*
X143381762Y-67933629D01*
X143355340Y-67982249D01*
X143321458Y-68026438D01*
X143303631Y-68045452D01*
X143248278Y-68092532D01*
X143184743Y-68130001D01*
X143113293Y-68157728D01*
X143038914Y-68174829D01*
X143024372Y-68176123D01*
X142997699Y-68177294D01*
X142959462Y-68178337D01*
X142910232Y-68179243D01*
X142850575Y-68180006D01*
X142781060Y-68180618D01*
X142702257Y-68181072D01*
X142614732Y-68181361D01*
X142519054Y-68181477D01*
X142516231Y-68181478D01*
X142033631Y-68181588D01*
X142031954Y-67984642D01*
X142030276Y-67787696D01*
X142444957Y-67787696D01*
X142531530Y-67787677D01*
X142606397Y-67787581D01*
X142670553Y-67787344D01*
X142724992Y-67786907D01*
X142770708Y-67786207D01*
X142808695Y-67785183D01*
X142839949Y-67783772D01*
X142865462Y-67781914D01*
X142886230Y-67779546D01*
X142903246Y-67776608D01*
X142917505Y-67773037D01*
X142930002Y-67768772D01*
X142941730Y-67763751D01*
X142953683Y-67757914D01*
X142957582Y-67755933D01*
X142993653Y-67730989D01*
X143024811Y-67696518D01*
X143045691Y-67661245D01*
X143053439Y-67643207D01*
X143058352Y-67626535D01*
X143061053Y-67607413D01*
X143062161Y-67582027D01*
X143062321Y-67559096D01*
X143061942Y-67527197D01*
X143060391Y-67504179D01*
X143057053Y-67486237D01*
X143051310Y-67469564D01*
X143045809Y-67457206D01*
X143020685Y-67414159D01*
X142989919Y-67381298D01*
X142959106Y-67360527D01*
X142946094Y-67353543D01*
X142933897Y-67347515D01*
X142921515Y-67342374D01*
X142907946Y-67338048D01*
X142892188Y-67334467D01*
X142873242Y-67331560D01*
X142850106Y-67329258D01*
X142821779Y-67327490D01*
X142787260Y-67326185D01*
X142745547Y-67325273D01*
X142695641Y-67324684D01*
X142636539Y-67324347D01*
X142567242Y-67324192D01*
X142486747Y-67324148D01*
X142441872Y-67324146D01*
X142030456Y-67324146D01*
X142030456Y-66930446D01*
X143395706Y-66930446D01*
X143395706Y-67324146D01*
X143308394Y-67324134D01*
X143221081Y-67324123D01*
X143281406Y-67386300D01*
X143318644Y-67426610D01*
X143347553Y-67462865D01*
X143370243Y-67498247D01*
X143388824Y-67535936D01*
X143400918Y-67566496D01*
X143407209Y-67584490D01*
X143411727Y-67600408D01*
X143414763Y-67616897D01*
X143416609Y-67636606D01*
X143417557Y-67662181D01*
X143417897Y-67696270D01*
X143417931Y-67721021D01*
X143417746Y-67762482D01*
X143417746Y-67762482D01*
G37*
X143417746Y-67762482D02*
X143417013Y-67793999D01*
X143415470Y-67818326D01*
X143412854Y-67838213D01*
X143408902Y-67856415D01*
X143403351Y-67875685D01*
X143403067Y-67876596D01*
X143381762Y-67933629D01*
X143355340Y-67982249D01*
X143321458Y-68026438D01*
X143303631Y-68045452D01*
X143248278Y-68092532D01*
X143184743Y-68130001D01*
X143113293Y-68157728D01*
X143038914Y-68174829D01*
X143024372Y-68176123D01*
X142997699Y-68177294D01*
X142959462Y-68178337D01*
X142910232Y-68179243D01*
X142850575Y-68180006D01*
X142781060Y-68180618D01*
X142702257Y-68181072D01*
X142614732Y-68181361D01*
X142519054Y-68181477D01*
X142516231Y-68181478D01*
X142033631Y-68181588D01*
X142031954Y-67984642D01*
X142030276Y-67787696D01*
X142444957Y-67787696D01*
X142531530Y-67787677D01*
X142606397Y-67787581D01*
X142670553Y-67787344D01*
X142724992Y-67786907D01*
X142770708Y-67786207D01*
X142808695Y-67785183D01*
X142839949Y-67783772D01*
X142865462Y-67781914D01*
X142886230Y-67779546D01*
X142903246Y-67776608D01*
X142917505Y-67773037D01*
X142930002Y-67768772D01*
X142941730Y-67763751D01*
X142953683Y-67757914D01*
X142957582Y-67755933D01*
X142993653Y-67730989D01*
X143024811Y-67696518D01*
X143045691Y-67661245D01*
X143053439Y-67643207D01*
X143058352Y-67626535D01*
X143061053Y-67607413D01*
X143062161Y-67582027D01*
X143062321Y-67559096D01*
X143061942Y-67527197D01*
X143060391Y-67504179D01*
X143057053Y-67486237D01*
X143051310Y-67469564D01*
X143045809Y-67457206D01*
X143020685Y-67414159D01*
X142989919Y-67381298D01*
X142959106Y-67360527D01*
X142946094Y-67353543D01*
X142933897Y-67347515D01*
X142921515Y-67342374D01*
X142907946Y-67338048D01*
X142892188Y-67334467D01*
X142873242Y-67331560D01*
X142850106Y-67329258D01*
X142821779Y-67327490D01*
X142787260Y-67326185D01*
X142745547Y-67325273D01*
X142695641Y-67324684D01*
X142636539Y-67324347D01*
X142567242Y-67324192D01*
X142486747Y-67324148D01*
X142441872Y-67324146D01*
X142030456Y-67324146D01*
X142030456Y-66930446D01*
X143395706Y-66930446D01*
X143395706Y-67324146D01*
X143308394Y-67324134D01*
X143221081Y-67324123D01*
X143281406Y-67386300D01*
X143318644Y-67426610D01*
X143347553Y-67462865D01*
X143370243Y-67498247D01*
X143388824Y-67535936D01*
X143400918Y-67566496D01*
X143407209Y-67584490D01*
X143411727Y-67600408D01*
X143414763Y-67616897D01*
X143416609Y-67636606D01*
X143417557Y-67662181D01*
X143417897Y-67696270D01*
X143417931Y-67721021D01*
X143417746Y-67762482D01*
G36*
X143423753Y-71937267D02*
X143419730Y-71953296D01*
X143016453Y-71953296D01*
X143012104Y-71899694D01*
X143000945Y-71823672D01*
X142980441Y-71756234D01*
X142950493Y-71697259D01*
X142911003Y-71646625D01*
X142861870Y-71604208D01*
X142802995Y-71569887D01*
X142734279Y-71543539D01*
X142719431Y-71539239D01*
X142707483Y-71536073D01*
X142695771Y-71533411D01*
X142683089Y-71531200D01*
X142668227Y-71529386D01*
X142649976Y-71527917D01*
X142627129Y-71526740D01*
X142598476Y-71525801D01*
X142562808Y-71525048D01*
X142518918Y-71524428D01*
X142465597Y-71523886D01*
X142401636Y-71523371D01*
X142349544Y-71522995D01*
X142030456Y-71520748D01*
X142030456Y-71127796D01*
X143395706Y-71127796D01*
X143395706Y-71521496D01*
X143270294Y-71521640D01*
X143144881Y-71521784D01*
X143183866Y-71542799D01*
X143243875Y-71579974D01*
X143296849Y-71622535D01*
X143341463Y-71669050D01*
X143376391Y-71718086D01*
X143400308Y-71768212D01*
X143404547Y-71781206D01*
X143411045Y-71807590D01*
X143416770Y-71838594D01*
X143421291Y-71870713D01*
X143424178Y-71900442D01*
X143424998Y-71924276D01*
X143423753Y-71937267D01*
X143423753Y-71937267D01*
G37*
X143423753Y-71937267D02*
X143419730Y-71953296D01*
X143016453Y-71953296D01*
X143012104Y-71899694D01*
X143000945Y-71823672D01*
X142980441Y-71756234D01*
X142950493Y-71697259D01*
X142911003Y-71646625D01*
X142861870Y-71604208D01*
X142802995Y-71569887D01*
X142734279Y-71543539D01*
X142719431Y-71539239D01*
X142707483Y-71536073D01*
X142695771Y-71533411D01*
X142683089Y-71531200D01*
X142668227Y-71529386D01*
X142649976Y-71527917D01*
X142627129Y-71526740D01*
X142598476Y-71525801D01*
X142562808Y-71525048D01*
X142518918Y-71524428D01*
X142465597Y-71523886D01*
X142401636Y-71523371D01*
X142349544Y-71522995D01*
X142030456Y-71520748D01*
X142030456Y-71127796D01*
X143395706Y-71127796D01*
X143395706Y-71521496D01*
X143270294Y-71521640D01*
X143144881Y-71521784D01*
X143183866Y-71542799D01*
X143243875Y-71579974D01*
X143296849Y-71622535D01*
X143341463Y-71669050D01*
X143376391Y-71718086D01*
X143400308Y-71768212D01*
X143404547Y-71781206D01*
X143411045Y-71807590D01*
X143416770Y-71838594D01*
X143421291Y-71870713D01*
X143424178Y-71900442D01*
X143424998Y-71924276D01*
X143423753Y-71937267D01*
G36*
X142714669Y-74018692D02*
X142033631Y-74017164D01*
X142031954Y-73820255D01*
X142030276Y-73623346D01*
X143395706Y-73623346D01*
X143395707Y-73821783D01*
X143395707Y-74020221D01*
X142714669Y-74018692D01*
X142714669Y-74018692D01*
G37*
X142714669Y-74018692D02*
X142033631Y-74017164D01*
X142031954Y-73820255D01*
X142030276Y-73623346D01*
X143395706Y-73623346D01*
X143395707Y-73821783D01*
X143395707Y-74020221D01*
X142714669Y-74018692D01*
G36*
X143905969Y-74823496D02*
X143905548Y-74872880D01*
X143904164Y-74912964D01*
X143901422Y-74947133D01*
X143896927Y-74978774D01*
X143890283Y-75011274D01*
X143881096Y-75048018D01*
X143878734Y-75056858D01*
X143871467Y-75083846D01*
X143705932Y-75083846D01*
X143655827Y-75083799D01*
X143617039Y-75083596D01*
X143588188Y-75083142D01*
X143567891Y-75082340D01*
X143554766Y-75081096D01*
X143547432Y-75079314D01*
X143544507Y-75076899D01*
X143544608Y-75073754D01*
X143544989Y-75072733D01*
X143555962Y-75039540D01*
X143565265Y-74999016D01*
X143571873Y-74956516D01*
X143574748Y-74917787D01*
X143572298Y-74871405D01*
X143562318Y-74834733D01*
X143544016Y-74806926D01*
X143516604Y-74787139D01*
X143479290Y-74774527D01*
X143435147Y-74768504D01*
X143383232Y-74764766D01*
X143381532Y-74921369D01*
X143379831Y-75077972D01*
X143062331Y-75077972D01*
X143058931Y-74772696D01*
X142030456Y-74772696D01*
X142030456Y-74378996D01*
X143059156Y-74378996D01*
X143059156Y-74220246D01*
X143383006Y-74220246D01*
X143383006Y-74377270D01*
X143476669Y-74380566D01*
X143517633Y-74382714D01*
X143557483Y-74386067D01*
X143592336Y-74390234D01*
X143617956Y-74394746D01*
X143685791Y-74415727D01*
X143744642Y-74445675D01*
X143794631Y-74484703D01*
X143835878Y-74532929D01*
X143868505Y-74590467D01*
X143892632Y-74657434D01*
X143892646Y-74657484D01*
X143897634Y-74677165D01*
X143901237Y-74696521D01*
X143903664Y-74718146D01*
X143905123Y-74744634D01*
X143905822Y-74778581D01*
X143905970Y-74822581D01*
X143905969Y-74823496D01*
X143905969Y-74823496D01*
G37*
X143905969Y-74823496D02*
X143905548Y-74872880D01*
X143904164Y-74912964D01*
X143901422Y-74947133D01*
X143896927Y-74978774D01*
X143890283Y-75011274D01*
X143881096Y-75048018D01*
X143878734Y-75056858D01*
X143871467Y-75083846D01*
X143705932Y-75083846D01*
X143655827Y-75083799D01*
X143617039Y-75083596D01*
X143588188Y-75083142D01*
X143567891Y-75082340D01*
X143554766Y-75081096D01*
X143547432Y-75079314D01*
X143544507Y-75076899D01*
X143544608Y-75073754D01*
X143544989Y-75072733D01*
X143555962Y-75039540D01*
X143565265Y-74999016D01*
X143571873Y-74956516D01*
X143574748Y-74917787D01*
X143572298Y-74871405D01*
X143562318Y-74834733D01*
X143544016Y-74806926D01*
X143516604Y-74787139D01*
X143479290Y-74774527D01*
X143435147Y-74768504D01*
X143383232Y-74764766D01*
X143381532Y-74921369D01*
X143379831Y-75077972D01*
X143062331Y-75077972D01*
X143058931Y-74772696D01*
X142030456Y-74772696D01*
X142030456Y-74378996D01*
X143059156Y-74378996D01*
X143059156Y-74220246D01*
X143383006Y-74220246D01*
X143383006Y-74377270D01*
X143476669Y-74380566D01*
X143517633Y-74382714D01*
X143557483Y-74386067D01*
X143592336Y-74390234D01*
X143617956Y-74394746D01*
X143685791Y-74415727D01*
X143744642Y-74445675D01*
X143794631Y-74484703D01*
X143835878Y-74532929D01*
X143868505Y-74590467D01*
X143892632Y-74657434D01*
X143892646Y-74657484D01*
X143897634Y-74677165D01*
X143901237Y-74696521D01*
X143903664Y-74718146D01*
X143905123Y-74744634D01*
X143905822Y-74778581D01*
X143905970Y-74822581D01*
X143905969Y-74823496D01*
G36*
X143541756Y-74029746D02*
X143541756Y-73616996D01*
X143891006Y-73616996D01*
X143891006Y-74029746D01*
X143541756Y-74029746D01*
X143541756Y-74029746D01*
G37*
X143541756Y-74029746D02*
X143541756Y-73616996D01*
X143891006Y-73616996D01*
X143891006Y-74029746D01*
X143541756Y-74029746D01*
G36*
X144616596Y-61095425D02*
X144601722Y-61164523D01*
X144574846Y-61235286D01*
X144566606Y-61252687D01*
X144550449Y-61283560D01*
X144534318Y-61308872D01*
X144515089Y-61332899D01*
X144489639Y-61359916D01*
X144484491Y-61365092D01*
X144457943Y-61390723D01*
X144435318Y-61409770D01*
X144412300Y-61425309D01*
X144384569Y-61440420D01*
X144366067Y-61449508D01*
X144322647Y-61469251D01*
X144285686Y-61482955D01*
X144251048Y-61491585D01*
X144214599Y-61496109D01*
X144172204Y-61497492D01*
X144160881Y-61497465D01*
X144139528Y-61497082D01*
X144119534Y-61495993D01*
X144099954Y-61493804D01*
X144079841Y-61490124D01*
X144058251Y-61484562D01*
X144034237Y-61476727D01*
X144006852Y-61466226D01*
X143975152Y-61452669D01*
X143938190Y-61435662D01*
X143895019Y-61414816D01*
X143844695Y-61389738D01*
X143786270Y-61360037D01*
X143718800Y-61325321D01*
X143641337Y-61285199D01*
X143614781Y-61271412D01*
X143552207Y-61238854D01*
X143492793Y-61207824D01*
X143437532Y-61178848D01*
X143387413Y-61152449D01*
X143343429Y-61129155D01*
X143306571Y-61109490D01*
X143277830Y-61093980D01*
X143258197Y-61083149D01*
X143248663Y-61077523D01*
X143248069Y-61077080D01*
X143239181Y-61062086D01*
X143237592Y-61042967D01*
X143243547Y-61026060D01*
X143245977Y-61023183D01*
X143254546Y-61017265D01*
X143273247Y-61006155D01*
X143300915Y-60990467D01*
X143336386Y-60970815D01*
X143378498Y-60947812D01*
X143426086Y-60922074D01*
X143477988Y-60894214D01*
X143533038Y-60864847D01*
X143590074Y-60834587D01*
X143647932Y-60804048D01*
X143705448Y-60773845D01*
X143761459Y-60744591D01*
X143814801Y-60716901D01*
X143864311Y-60691389D01*
X143908824Y-60668669D01*
X143947177Y-60649357D01*
X143978207Y-60634065D01*
X144000750Y-60623408D01*
X144013453Y-60618064D01*
X144089853Y-60597970D01*
X144165421Y-60590080D01*
X144177214Y-60590756D01*
X144177214Y-60727518D01*
X144117932Y-60730594D01*
X144061915Y-60744256D01*
X144010189Y-60767477D01*
X143963780Y-60799229D01*
X143923715Y-60838483D01*
X143891021Y-60884213D01*
X143866724Y-60935390D01*
X143851850Y-60990986D01*
X143847426Y-61049974D01*
X143854479Y-61111325D01*
X143856213Y-61119084D01*
X143876541Y-61179529D01*
X143906837Y-61232536D01*
X143946270Y-61277347D01*
X143994006Y-61313206D01*
X144049216Y-61339359D01*
X144111067Y-61355048D01*
X144116679Y-61355885D01*
X144178010Y-61358680D01*
X144236513Y-61350171D01*
X144291139Y-61331452D01*
X144340841Y-61303618D01*
X144384570Y-61267763D01*
X144421278Y-61224983D01*
X144449916Y-61176371D01*
X144469436Y-61123024D01*
X144478790Y-61066035D01*
X144476928Y-61006500D01*
X144473111Y-60983671D01*
X144454379Y-60920260D01*
X144426108Y-60864884D01*
X144388759Y-60818030D01*
X144342792Y-60780183D01*
X144288666Y-60751830D01*
X144238734Y-60736056D01*
X144177214Y-60727518D01*
X144177214Y-60590756D01*
X144239324Y-60594322D01*
X144310727Y-60610628D01*
X144378797Y-60638925D01*
X144400018Y-60650667D01*
X144459989Y-60693059D01*
X144511563Y-60744179D01*
X144553658Y-60802714D01*
X144585190Y-60867351D01*
X144590281Y-60881323D01*
X144610768Y-60955505D01*
X144619576Y-61026313D01*
X144616596Y-61095425D01*
X144616596Y-61095425D01*
G37*
X144616596Y-61095425D02*
X144601722Y-61164523D01*
X144574846Y-61235286D01*
X144566606Y-61252687D01*
X144550449Y-61283560D01*
X144534318Y-61308872D01*
X144515089Y-61332899D01*
X144489639Y-61359916D01*
X144484491Y-61365092D01*
X144457943Y-61390723D01*
X144435318Y-61409770D01*
X144412300Y-61425309D01*
X144384569Y-61440420D01*
X144366067Y-61449508D01*
X144322647Y-61469251D01*
X144285686Y-61482955D01*
X144251048Y-61491585D01*
X144214599Y-61496109D01*
X144172204Y-61497492D01*
X144160881Y-61497465D01*
X144139528Y-61497082D01*
X144119534Y-61495993D01*
X144099954Y-61493804D01*
X144079841Y-61490124D01*
X144058251Y-61484562D01*
X144034237Y-61476727D01*
X144006852Y-61466226D01*
X143975152Y-61452669D01*
X143938190Y-61435662D01*
X143895019Y-61414816D01*
X143844695Y-61389738D01*
X143786270Y-61360037D01*
X143718800Y-61325321D01*
X143641337Y-61285199D01*
X143614781Y-61271412D01*
X143552207Y-61238854D01*
X143492793Y-61207824D01*
X143437532Y-61178848D01*
X143387413Y-61152449D01*
X143343429Y-61129155D01*
X143306571Y-61109490D01*
X143277830Y-61093980D01*
X143258197Y-61083149D01*
X143248663Y-61077523D01*
X143248069Y-61077080D01*
X143239181Y-61062086D01*
X143237592Y-61042967D01*
X143243547Y-61026060D01*
X143245977Y-61023183D01*
X143254546Y-61017265D01*
X143273247Y-61006155D01*
X143300915Y-60990467D01*
X143336386Y-60970815D01*
X143378498Y-60947812D01*
X143426086Y-60922074D01*
X143477988Y-60894214D01*
X143533038Y-60864847D01*
X143590074Y-60834587D01*
X143647932Y-60804048D01*
X143705448Y-60773845D01*
X143761459Y-60744591D01*
X143814801Y-60716901D01*
X143864311Y-60691389D01*
X143908824Y-60668669D01*
X143947177Y-60649357D01*
X143978207Y-60634065D01*
X144000750Y-60623408D01*
X144013453Y-60618064D01*
X144089853Y-60597970D01*
X144165421Y-60590080D01*
X144177214Y-60590756D01*
X144177214Y-60727518D01*
X144117932Y-60730594D01*
X144061915Y-60744256D01*
X144010189Y-60767477D01*
X143963780Y-60799229D01*
X143923715Y-60838483D01*
X143891021Y-60884213D01*
X143866724Y-60935390D01*
X143851850Y-60990986D01*
X143847426Y-61049974D01*
X143854479Y-61111325D01*
X143856213Y-61119084D01*
X143876541Y-61179529D01*
X143906837Y-61232536D01*
X143946270Y-61277347D01*
X143994006Y-61313206D01*
X144049216Y-61339359D01*
X144111067Y-61355048D01*
X144116679Y-61355885D01*
X144178010Y-61358680D01*
X144236513Y-61350171D01*
X144291139Y-61331452D01*
X144340841Y-61303618D01*
X144384570Y-61267763D01*
X144421278Y-61224983D01*
X144449916Y-61176371D01*
X144469436Y-61123024D01*
X144478790Y-61066035D01*
X144476928Y-61006500D01*
X144473111Y-60983671D01*
X144454379Y-60920260D01*
X144426108Y-60864884D01*
X144388759Y-60818030D01*
X144342792Y-60780183D01*
X144288666Y-60751830D01*
X144238734Y-60736056D01*
X144177214Y-60727518D01*
X144177214Y-60590756D01*
X144239324Y-60594322D01*
X144310727Y-60610628D01*
X144378797Y-60638925D01*
X144400018Y-60650667D01*
X144459989Y-60693059D01*
X144511563Y-60744179D01*
X144553658Y-60802714D01*
X144585190Y-60867351D01*
X144590281Y-60881323D01*
X144610768Y-60955505D01*
X144619576Y-61026313D01*
X144616596Y-61095425D01*
G36*
X140807567Y-67146488D02*
X140803570Y-67200921D01*
X140796795Y-67248442D01*
X140790862Y-67273842D01*
X140759458Y-67358150D01*
X140716602Y-67433910D01*
X140662911Y-67500446D01*
X140599005Y-67557086D01*
X140525503Y-67603152D01*
X140463164Y-67630843D01*
X140403543Y-67650726D01*
X140343932Y-67665154D01*
X140279795Y-67674988D01*
X140206598Y-67681088D01*
X140194987Y-67681712D01*
X140100056Y-67686517D01*
X140100056Y-66913451D01*
X140080099Y-66918363D01*
X140038493Y-66935078D01*
X139998328Y-66962829D01*
X139963431Y-66998338D01*
X139937629Y-67038322D01*
X139935905Y-67041980D01*
X139917573Y-67099148D01*
X139912348Y-67159806D01*
X139919880Y-67222006D01*
X139939820Y-67283797D01*
X139971820Y-67343230D01*
X139995701Y-67375770D01*
X140028188Y-67415652D01*
X139936818Y-67524567D01*
X139908444Y-67558081D01*
X139883112Y-67587415D01*
X139862328Y-67610875D01*
X139847597Y-67626765D01*
X139840424Y-67633389D01*
X139840128Y-67633481D01*
X139831992Y-67628351D01*
X139816765Y-67614588D01*
X139796741Y-67594633D01*
X139774210Y-67570926D01*
X139751465Y-67545908D01*
X139730799Y-67522019D01*
X139714504Y-67501701D01*
X139708498Y-67493327D01*
X139673061Y-67430675D01*
X139643583Y-67358283D01*
X139628015Y-67306240D01*
X139619518Y-67262788D01*
X139613334Y-67210046D01*
X139609708Y-67153072D01*
X139608886Y-67096925D01*
X139611113Y-67046664D01*
X139614155Y-67020535D01*
X139635421Y-66927471D01*
X139668645Y-66840924D01*
X139713154Y-66761986D01*
X139768273Y-66691746D01*
X139833328Y-66631294D01*
X139872444Y-66603043D01*
X139947438Y-66561960D01*
X140027880Y-66532848D01*
X140112041Y-66515425D01*
X140198190Y-66509413D01*
X140284597Y-66514533D01*
X140303256Y-66518041D01*
X140303256Y-66905953D01*
X140303256Y-67299653D01*
X140321126Y-67299653D01*
X140347173Y-67295416D01*
X140379231Y-67284212D01*
X140412107Y-67268296D01*
X140440608Y-67249928D01*
X140446522Y-67245147D01*
X140477887Y-67211353D01*
X140497217Y-67172827D01*
X140505683Y-67126858D01*
X140506296Y-67106862D01*
X140501719Y-67057813D01*
X140487545Y-67017581D01*
X140462597Y-66983159D01*
X140454728Y-66975289D01*
X140429050Y-66955832D01*
X140395129Y-66936553D01*
X140358957Y-66920471D01*
X140326525Y-66910607D01*
X140326387Y-66910579D01*
X140303256Y-66905953D01*
X140303256Y-66518041D01*
X140369532Y-66530503D01*
X140451263Y-66557045D01*
X140528062Y-66593879D01*
X140598196Y-66640725D01*
X140659938Y-66697303D01*
X140692013Y-66735514D01*
X140723922Y-66783596D01*
X140754020Y-66839632D01*
X140779236Y-66897393D01*
X140794774Y-66944053D01*
X140802390Y-66983923D01*
X140807027Y-67033767D01*
X140808736Y-67089363D01*
X140807567Y-67146488D01*
X140807567Y-67146488D01*
G37*
X140807567Y-67146488D02*
X140803570Y-67200921D01*
X140796795Y-67248442D01*
X140790862Y-67273842D01*
X140759458Y-67358150D01*
X140716602Y-67433910D01*
X140662911Y-67500446D01*
X140599005Y-67557086D01*
X140525503Y-67603152D01*
X140463164Y-67630843D01*
X140403543Y-67650726D01*
X140343932Y-67665154D01*
X140279795Y-67674988D01*
X140206598Y-67681088D01*
X140194987Y-67681712D01*
X140100056Y-67686517D01*
X140100056Y-66913451D01*
X140080099Y-66918363D01*
X140038493Y-66935078D01*
X139998328Y-66962829D01*
X139963431Y-66998338D01*
X139937629Y-67038322D01*
X139935905Y-67041980D01*
X139917573Y-67099148D01*
X139912348Y-67159806D01*
X139919880Y-67222006D01*
X139939820Y-67283797D01*
X139971820Y-67343230D01*
X139995701Y-67375770D01*
X140028188Y-67415652D01*
X139936818Y-67524567D01*
X139908444Y-67558081D01*
X139883112Y-67587415D01*
X139862328Y-67610875D01*
X139847597Y-67626765D01*
X139840424Y-67633389D01*
X139840128Y-67633481D01*
X139831992Y-67628351D01*
X139816765Y-67614588D01*
X139796741Y-67594633D01*
X139774210Y-67570926D01*
X139751465Y-67545908D01*
X139730799Y-67522019D01*
X139714504Y-67501701D01*
X139708498Y-67493327D01*
X139673061Y-67430675D01*
X139643583Y-67358283D01*
X139628015Y-67306240D01*
X139619518Y-67262788D01*
X139613334Y-67210046D01*
X139609708Y-67153072D01*
X139608886Y-67096925D01*
X139611113Y-67046664D01*
X139614155Y-67020535D01*
X139635421Y-66927471D01*
X139668645Y-66840924D01*
X139713154Y-66761986D01*
X139768273Y-66691746D01*
X139833328Y-66631294D01*
X139872444Y-66603043D01*
X139947438Y-66561960D01*
X140027880Y-66532848D01*
X140112041Y-66515425D01*
X140198190Y-66509413D01*
X140284597Y-66514533D01*
X140303256Y-66518041D01*
X140303256Y-66905953D01*
X140303256Y-67299653D01*
X140321126Y-67299653D01*
X140347173Y-67295416D01*
X140379231Y-67284212D01*
X140412107Y-67268296D01*
X140440608Y-67249928D01*
X140446522Y-67245147D01*
X140477887Y-67211353D01*
X140497217Y-67172827D01*
X140505683Y-67126858D01*
X140506296Y-67106862D01*
X140501719Y-67057813D01*
X140487545Y-67017581D01*
X140462597Y-66983159D01*
X140454728Y-66975289D01*
X140429050Y-66955832D01*
X140395129Y-66936553D01*
X140358957Y-66920471D01*
X140326525Y-66910607D01*
X140326387Y-66910579D01*
X140303256Y-66905953D01*
X140303256Y-66518041D01*
X140369532Y-66530503D01*
X140451263Y-66557045D01*
X140528062Y-66593879D01*
X140598196Y-66640725D01*
X140659938Y-66697303D01*
X140692013Y-66735514D01*
X140723922Y-66783596D01*
X140754020Y-66839632D01*
X140779236Y-66897393D01*
X140794774Y-66944053D01*
X140802390Y-66983923D01*
X140807027Y-67033767D01*
X140808736Y-67089363D01*
X140807567Y-67146488D01*
G36*
X140412113Y-69583876D02*
X139639227Y-69585727D01*
X139641259Y-69378861D01*
X139643291Y-69171996D01*
X139782500Y-69171996D01*
X139734624Y-69121245D01*
X139710317Y-69093834D01*
X139687177Y-69064924D01*
X139669114Y-69039486D01*
X139664727Y-69032345D01*
X139635308Y-68967831D01*
X139616769Y-68896911D01*
X139609745Y-68823463D01*
X139614871Y-68751363D01*
X139616864Y-68740196D01*
X139639926Y-68657525D01*
X139675217Y-68582267D01*
X139722198Y-68514935D01*
X139780329Y-68456039D01*
X139849072Y-68406090D01*
X139927887Y-68365600D01*
X140016236Y-68335079D01*
X140053847Y-68325838D01*
X140111843Y-68316927D01*
X140178130Y-68312982D01*
X140247435Y-68313899D01*
X140314488Y-68319574D01*
X140374016Y-68329902D01*
X140383947Y-68332358D01*
X140416542Y-68341891D01*
X140451399Y-68353745D01*
X140485796Y-68366785D01*
X140517015Y-68379875D01*
X140542335Y-68391879D01*
X140559036Y-68401663D01*
X140564450Y-68407709D01*
X140558732Y-68412821D01*
X140542589Y-68425181D01*
X140517501Y-68443737D01*
X140484951Y-68467436D01*
X140446418Y-68495226D01*
X140403384Y-68526054D01*
X140357330Y-68558867D01*
X140309735Y-68592611D01*
X140262082Y-68626235D01*
X140215852Y-68658686D01*
X140172524Y-68688910D01*
X140133579Y-68715856D01*
X140100500Y-68738469D01*
X140077359Y-68753989D01*
X140036519Y-68780985D01*
X139846305Y-69169375D01*
X139812147Y-69239248D01*
X139780039Y-69305168D01*
X139750529Y-69365998D01*
X139724163Y-69420598D01*
X139701488Y-69467829D01*
X139683051Y-69506553D01*
X139669399Y-69535632D01*
X139661078Y-69553926D01*
X139658615Y-69560288D01*
X139664908Y-69556794D01*
X139682139Y-69545841D01*
X139709246Y-69528139D01*
X139745168Y-69504392D01*
X139788842Y-69475309D01*
X139839206Y-69441597D01*
X139895198Y-69403961D01*
X139955756Y-69363110D01*
X140011076Y-69325675D01*
X140361014Y-69088539D01*
X140513563Y-68793577D01*
X140544783Y-68733105D01*
X140573854Y-68676589D01*
X140600113Y-68625332D01*
X140622898Y-68580638D01*
X140641545Y-68543810D01*
X140655392Y-68516151D01*
X140663777Y-68498966D01*
X140666113Y-68493569D01*
X140660042Y-68484358D01*
X140642476Y-68468553D01*
X140614385Y-68446993D01*
X140602464Y-68438399D01*
X140585797Y-68424954D01*
X140576300Y-68414120D01*
X140575423Y-68409955D01*
X140582509Y-68403686D01*
X140599280Y-68390823D01*
X140623487Y-68373036D01*
X140652883Y-68351996D01*
X140664473Y-68343827D01*
X140697438Y-68320599D01*
X140728262Y-68298723D01*
X140753942Y-68280338D01*
X140771477Y-68267587D01*
X140774239Y-68265528D01*
X140782518Y-68259611D01*
X140787479Y-68257517D01*
X140788603Y-68260683D01*
X140785373Y-68270549D01*
X140777271Y-68288552D01*
X140763780Y-68316130D01*
X140744381Y-68354721D01*
X140736550Y-68370208D01*
X140674191Y-68493453D01*
X140694791Y-68515224D01*
X140723750Y-68551560D01*
X140752147Y-68597583D01*
X140777242Y-68648630D01*
X140786445Y-68671253D01*
X140794811Y-68694347D01*
X140800565Y-68714279D01*
X140804195Y-68734704D01*
X140806186Y-68759280D01*
X140807026Y-68791662D01*
X140807196Y-68827281D01*
X140806916Y-68870500D01*
X140805727Y-68902794D01*
X140803231Y-68927744D01*
X140799027Y-68948930D01*
X140792716Y-68969934D01*
X140790593Y-68976053D01*
X140767579Y-69028151D01*
X140736634Y-69079806D01*
X140701471Y-69125113D01*
X140687823Y-69139392D01*
X140658143Y-69168367D01*
X140921571Y-69171996D01*
X141184999Y-69175624D01*
X141184999Y-69582024D01*
X140412113Y-69583876D01*
X140412113Y-69583876D01*
G37*
X140412113Y-69583876D02*
X139639227Y-69585727D01*
X139641259Y-69378861D01*
X139643291Y-69171996D01*
X139782500Y-69171996D01*
X139734624Y-69121245D01*
X139710317Y-69093834D01*
X139687177Y-69064924D01*
X139669114Y-69039486D01*
X139664727Y-69032345D01*
X139635308Y-68967831D01*
X139616769Y-68896911D01*
X139609745Y-68823463D01*
X139614871Y-68751363D01*
X139616864Y-68740196D01*
X139639926Y-68657525D01*
X139675217Y-68582267D01*
X139722198Y-68514935D01*
X139780329Y-68456039D01*
X139849072Y-68406090D01*
X139927887Y-68365600D01*
X140016236Y-68335079D01*
X140053847Y-68325838D01*
X140111843Y-68316927D01*
X140178130Y-68312982D01*
X140247435Y-68313899D01*
X140314488Y-68319574D01*
X140374016Y-68329902D01*
X140383947Y-68332358D01*
X140416542Y-68341891D01*
X140451399Y-68353745D01*
X140485796Y-68366785D01*
X140517015Y-68379875D01*
X140542335Y-68391879D01*
X140559036Y-68401663D01*
X140564450Y-68407709D01*
X140558732Y-68412821D01*
X140542589Y-68425181D01*
X140517501Y-68443737D01*
X140484951Y-68467436D01*
X140446418Y-68495226D01*
X140403384Y-68526054D01*
X140357330Y-68558867D01*
X140309735Y-68592611D01*
X140262082Y-68626235D01*
X140215852Y-68658686D01*
X140172524Y-68688910D01*
X140133579Y-68715856D01*
X140100500Y-68738469D01*
X140077359Y-68753989D01*
X140036519Y-68780985D01*
X139846305Y-69169375D01*
X139812147Y-69239248D01*
X139780039Y-69305168D01*
X139750529Y-69365998D01*
X139724163Y-69420598D01*
X139701488Y-69467829D01*
X139683051Y-69506553D01*
X139669399Y-69535632D01*
X139661078Y-69553926D01*
X139658615Y-69560288D01*
X139664908Y-69556794D01*
X139682139Y-69545841D01*
X139709246Y-69528139D01*
X139745168Y-69504392D01*
X139788842Y-69475309D01*
X139839206Y-69441597D01*
X139895198Y-69403961D01*
X139955756Y-69363110D01*
X140011076Y-69325675D01*
X140361014Y-69088539D01*
X140513563Y-68793577D01*
X140544783Y-68733105D01*
X140573854Y-68676589D01*
X140600113Y-68625332D01*
X140622898Y-68580638D01*
X140641545Y-68543810D01*
X140655392Y-68516151D01*
X140663777Y-68498966D01*
X140666113Y-68493569D01*
X140660042Y-68484358D01*
X140642476Y-68468553D01*
X140614385Y-68446993D01*
X140602464Y-68438399D01*
X140585797Y-68424954D01*
X140576300Y-68414120D01*
X140575423Y-68409955D01*
X140582509Y-68403686D01*
X140599280Y-68390823D01*
X140623487Y-68373036D01*
X140652883Y-68351996D01*
X140664473Y-68343827D01*
X140697438Y-68320599D01*
X140728262Y-68298723D01*
X140753942Y-68280338D01*
X140771477Y-68267587D01*
X140774239Y-68265528D01*
X140782518Y-68259611D01*
X140787479Y-68257517D01*
X140788603Y-68260683D01*
X140785373Y-68270549D01*
X140777271Y-68288552D01*
X140763780Y-68316130D01*
X140744381Y-68354721D01*
X140736550Y-68370208D01*
X140674191Y-68493453D01*
X140694791Y-68515224D01*
X140723750Y-68551560D01*
X140752147Y-68597583D01*
X140777242Y-68648630D01*
X140786445Y-68671253D01*
X140794811Y-68694347D01*
X140800565Y-68714279D01*
X140804195Y-68734704D01*
X140806186Y-68759280D01*
X140807026Y-68791662D01*
X140807196Y-68827281D01*
X140806916Y-68870500D01*
X140805727Y-68902794D01*
X140803231Y-68927744D01*
X140799027Y-68948930D01*
X140792716Y-68969934D01*
X140790593Y-68976053D01*
X140767579Y-69028151D01*
X140736634Y-69079806D01*
X140701471Y-69125113D01*
X140687823Y-69139392D01*
X140658143Y-69168367D01*
X140921571Y-69171996D01*
X141184999Y-69175624D01*
X141184999Y-69582024D01*
X140412113Y-69583876D01*
G36*
X140929184Y-72160274D02*
X140782227Y-72162239D01*
X140782227Y-72437982D01*
X140617127Y-72436032D01*
X140452027Y-72434081D01*
X140450053Y-72298010D01*
X140448078Y-72161939D01*
X140237421Y-72161939D01*
X140171618Y-72162044D01*
X140118738Y-72162532D01*
X140077189Y-72163666D01*
X140045380Y-72165705D01*
X140021720Y-72168910D01*
X140004618Y-72173543D01*
X139992483Y-72179863D01*
X139983722Y-72188131D01*
X139976746Y-72198609D01*
X139973179Y-72205244D01*
X139966015Y-72229106D01*
X139962750Y-72262380D01*
X139963370Y-72300505D01*
X139967856Y-72338916D01*
X139973741Y-72365139D01*
X139980807Y-72390356D01*
X139986666Y-72412100D01*
X139989016Y-72421381D01*
X139992891Y-72437710D01*
X139678343Y-72437710D01*
X139661020Y-72398540D01*
X139645091Y-72359420D01*
X139633505Y-72322450D01*
X139625533Y-72283794D01*
X139620452Y-72239617D01*
X139617534Y-72186084D01*
X139616918Y-72165567D01*
X139616282Y-72107621D01*
X139617756Y-72062074D01*
X139621433Y-72026954D01*
X139624225Y-72012257D01*
X139645880Y-71944122D01*
X139677691Y-71886308D01*
X139719916Y-71838541D01*
X139772816Y-71800549D01*
X139836647Y-71772060D01*
X139858634Y-71765132D01*
X139871988Y-71761888D01*
X139888467Y-71759192D01*
X139909596Y-71756974D01*
X139936901Y-71755160D01*
X139971905Y-71753677D01*
X140016136Y-71752453D01*
X140071117Y-71751415D01*
X140138375Y-71750489D01*
X140174441Y-71750075D01*
X140448399Y-71747075D01*
X140448399Y-71624910D01*
X140782227Y-71624910D01*
X140782227Y-71747981D01*
X140929184Y-71749945D01*
X141076141Y-71751910D01*
X141076141Y-72158310D01*
X140929184Y-72160274D01*
X140929184Y-72160274D01*
G37*
X140929184Y-72160274D02*
X140782227Y-72162239D01*
X140782227Y-72437982D01*
X140617127Y-72436032D01*
X140452027Y-72434081D01*
X140450053Y-72298010D01*
X140448078Y-72161939D01*
X140237421Y-72161939D01*
X140171618Y-72162044D01*
X140118738Y-72162532D01*
X140077189Y-72163666D01*
X140045380Y-72165705D01*
X140021720Y-72168910D01*
X140004618Y-72173543D01*
X139992483Y-72179863D01*
X139983722Y-72188131D01*
X139976746Y-72198609D01*
X139973179Y-72205244D01*
X139966015Y-72229106D01*
X139962750Y-72262380D01*
X139963370Y-72300505D01*
X139967856Y-72338916D01*
X139973741Y-72365139D01*
X139980807Y-72390356D01*
X139986666Y-72412100D01*
X139989016Y-72421381D01*
X139992891Y-72437710D01*
X139678343Y-72437710D01*
X139661020Y-72398540D01*
X139645091Y-72359420D01*
X139633505Y-72322450D01*
X139625533Y-72283794D01*
X139620452Y-72239617D01*
X139617534Y-72186084D01*
X139616918Y-72165567D01*
X139616282Y-72107621D01*
X139617756Y-72062074D01*
X139621433Y-72026954D01*
X139624225Y-72012257D01*
X139645880Y-71944122D01*
X139677691Y-71886308D01*
X139719916Y-71838541D01*
X139772816Y-71800549D01*
X139836647Y-71772060D01*
X139858634Y-71765132D01*
X139871988Y-71761888D01*
X139888467Y-71759192D01*
X139909596Y-71756974D01*
X139936901Y-71755160D01*
X139971905Y-71753677D01*
X140016136Y-71752453D01*
X140071117Y-71751415D01*
X140138375Y-71750489D01*
X140174441Y-71750075D01*
X140448399Y-71747075D01*
X140448399Y-71624910D01*
X140782227Y-71624910D01*
X140782227Y-71747981D01*
X140929184Y-71749945D01*
X141076141Y-71751910D01*
X141076141Y-72158310D01*
X140929184Y-72160274D01*
G36*
X141201030Y-65597383D02*
X141197842Y-65649178D01*
X141192926Y-65697365D01*
X141186444Y-65738949D01*
X141178561Y-65770932D01*
X141172990Y-65784724D01*
X141169401Y-65789196D01*
X141162661Y-65792486D01*
X141150770Y-65794771D01*
X141131728Y-65796229D01*
X141103537Y-65797038D01*
X141064197Y-65797374D01*
X141029924Y-65797424D01*
X140986914Y-65797234D01*
X140949072Y-65796705D01*
X140918722Y-65795900D01*
X140898186Y-65794879D01*
X140889790Y-65793707D01*
X140889759Y-65793679D01*
X140889343Y-65785154D01*
X140892278Y-65767242D01*
X140895806Y-65752184D01*
X140902276Y-65716825D01*
X140905219Y-65677439D01*
X140904680Y-65638671D01*
X140900705Y-65605163D01*
X140894154Y-65583185D01*
X140876046Y-65560964D01*
X140847452Y-65545005D01*
X140811621Y-65536876D01*
X140796762Y-65536167D01*
X140768048Y-65536167D01*
X140766066Y-65664981D01*
X140764084Y-65793796D01*
X140617127Y-65795760D01*
X140470170Y-65797725D01*
X140470170Y-65536167D01*
X139642856Y-65536167D01*
X139642856Y-65129767D01*
X140470170Y-65129767D01*
X140470170Y-64999139D01*
X140782227Y-64999139D01*
X140782227Y-65127635D01*
X140849356Y-65131871D01*
X140927946Y-65142692D01*
X140997323Y-65164517D01*
X141057215Y-65197121D01*
X141107350Y-65240283D01*
X141147456Y-65293779D01*
X141177263Y-65357387D01*
X141193222Y-65414042D01*
X141198585Y-65450309D01*
X141201565Y-65494953D01*
X141202325Y-65544976D01*
X141201030Y-65597383D01*
X141201030Y-65597383D01*
G37*
X141201030Y-65597383D02*
X141197842Y-65649178D01*
X141192926Y-65697365D01*
X141186444Y-65738949D01*
X141178561Y-65770932D01*
X141172990Y-65784724D01*
X141169401Y-65789196D01*
X141162661Y-65792486D01*
X141150770Y-65794771D01*
X141131728Y-65796229D01*
X141103537Y-65797038D01*
X141064197Y-65797374D01*
X141029924Y-65797424D01*
X140986914Y-65797234D01*
X140949072Y-65796705D01*
X140918722Y-65795900D01*
X140898186Y-65794879D01*
X140889790Y-65793707D01*
X140889759Y-65793679D01*
X140889343Y-65785154D01*
X140892278Y-65767242D01*
X140895806Y-65752184D01*
X140902276Y-65716825D01*
X140905219Y-65677439D01*
X140904680Y-65638671D01*
X140900705Y-65605163D01*
X140894154Y-65583185D01*
X140876046Y-65560964D01*
X140847452Y-65545005D01*
X140811621Y-65536876D01*
X140796762Y-65536167D01*
X140768048Y-65536167D01*
X140766066Y-65664981D01*
X140764084Y-65793796D01*
X140617127Y-65795760D01*
X140470170Y-65797725D01*
X140470170Y-65536167D01*
X139642856Y-65536167D01*
X139642856Y-65129767D01*
X140470170Y-65129767D01*
X140470170Y-64999139D01*
X140782227Y-64999139D01*
X140782227Y-65127635D01*
X140849356Y-65131871D01*
X140927946Y-65142692D01*
X140997323Y-65164517D01*
X141057215Y-65197121D01*
X141107350Y-65240283D01*
X141147456Y-65293779D01*
X141177263Y-65357387D01*
X141193222Y-65414042D01*
X141198585Y-65450309D01*
X141201565Y-65494953D01*
X141202325Y-65544976D01*
X141201030Y-65597383D01*
G36*
X139642856Y-66363481D02*
X139642856Y-65957081D01*
X140782227Y-65957081D01*
X140782227Y-66363481D01*
X139642856Y-66363481D01*
X139642856Y-66363481D01*
G37*
X139642856Y-66363481D02*
X139642856Y-65957081D01*
X140782227Y-65957081D01*
X140782227Y-66363481D01*
X139642856Y-66363481D01*
G36*
X140413927Y-68205014D02*
X139642856Y-68206862D01*
X139642856Y-67793073D01*
X140413927Y-67794920D01*
X141184999Y-67796767D01*
X141184999Y-68203167D01*
X140413927Y-68205014D01*
X140413927Y-68205014D01*
G37*
X140413927Y-68205014D02*
X139642856Y-68206862D01*
X139642856Y-67793073D01*
X140413927Y-67794920D01*
X141184999Y-67796767D01*
X141184999Y-68203167D01*
X140413927Y-68205014D01*
G36*
X140799976Y-70175233D02*
X140411325Y-70177110D01*
X140782227Y-70495892D01*
X140782227Y-70722944D01*
X140782108Y-70778687D01*
X140781769Y-70829467D01*
X140781242Y-70873548D01*
X140780554Y-70909192D01*
X140779737Y-70934664D01*
X140778821Y-70948224D01*
X140778335Y-70949996D01*
X140772410Y-70945419D01*
X140756989Y-70932514D01*
X140733494Y-70912512D01*
X140703346Y-70886650D01*
X140667966Y-70856160D01*
X140628776Y-70822278D01*
X140587199Y-70786237D01*
X140544655Y-70749271D01*
X140502566Y-70712615D01*
X140462354Y-70677503D01*
X140425441Y-70645169D01*
X140393247Y-70616847D01*
X140367195Y-70593771D01*
X140348706Y-70577176D01*
X140345184Y-70573956D01*
X140325427Y-70555778D01*
X140000470Y-70750496D01*
X139937521Y-70788229D01*
X139877970Y-70823951D01*
X139823050Y-70856919D01*
X139773993Y-70886394D01*
X139732031Y-70911634D01*
X139698397Y-70931898D01*
X139674324Y-70946446D01*
X139661044Y-70954535D01*
X139659184Y-70955697D01*
X139642856Y-70966179D01*
X139642856Y-70516958D01*
X139834966Y-70399258D01*
X140027077Y-70281558D01*
X139967409Y-70227625D01*
X139907741Y-70173693D01*
X139775299Y-70173587D01*
X139642856Y-70173481D01*
X139642856Y-69767081D01*
X141188627Y-69767081D01*
X141188627Y-70173355D01*
X140799976Y-70175233D01*
X140799976Y-70175233D01*
G37*
X140799976Y-70175233D02*
X140411325Y-70177110D01*
X140782227Y-70495892D01*
X140782227Y-70722944D01*
X140782108Y-70778687D01*
X140781769Y-70829467D01*
X140781242Y-70873548D01*
X140780554Y-70909192D01*
X140779737Y-70934664D01*
X140778821Y-70948224D01*
X140778335Y-70949996D01*
X140772410Y-70945419D01*
X140756989Y-70932514D01*
X140733494Y-70912512D01*
X140703346Y-70886650D01*
X140667966Y-70856160D01*
X140628776Y-70822278D01*
X140587199Y-70786237D01*
X140544655Y-70749271D01*
X140502566Y-70712615D01*
X140462354Y-70677503D01*
X140425441Y-70645169D01*
X140393247Y-70616847D01*
X140367195Y-70593771D01*
X140348706Y-70577176D01*
X140345184Y-70573956D01*
X140325427Y-70555778D01*
X140000470Y-70750496D01*
X139937521Y-70788229D01*
X139877970Y-70823951D01*
X139823050Y-70856919D01*
X139773993Y-70886394D01*
X139732031Y-70911634D01*
X139698397Y-70931898D01*
X139674324Y-70946446D01*
X139661044Y-70954535D01*
X139659184Y-70955697D01*
X139642856Y-70966179D01*
X139642856Y-70516958D01*
X139834966Y-70399258D01*
X140027077Y-70281558D01*
X139967409Y-70227625D01*
X139907741Y-70173693D01*
X139775299Y-70173587D01*
X139642856Y-70173481D01*
X139642856Y-69767081D01*
X141188627Y-69767081D01*
X141188627Y-70173355D01*
X140799976Y-70175233D01*
G36*
X139642856Y-71443481D02*
X139642856Y-71029824D01*
X140782227Y-71029824D01*
X140782227Y-71443481D01*
X139642856Y-71443481D01*
X139642856Y-71443481D01*
G37*
X139642856Y-71443481D02*
X139642856Y-71029824D01*
X140782227Y-71029824D01*
X140782227Y-71443481D01*
X139642856Y-71443481D01*
G36*
X140319111Y-68979989D02*
X140301219Y-69015962D01*
X140282144Y-69036070D01*
X140245883Y-69058165D01*
X140206783Y-69067726D01*
X140167602Y-69065305D01*
X140131095Y-69051452D01*
X140100017Y-69026716D01*
X140078907Y-68995482D01*
X140065911Y-68956321D01*
X140066637Y-68918720D01*
X140079342Y-68882931D01*
X140103507Y-68848913D01*
X140135470Y-68825412D01*
X140172492Y-68812965D01*
X140211833Y-68812108D01*
X140250754Y-68823377D01*
X140281929Y-68843284D01*
X140308762Y-68873376D01*
X140322522Y-68908548D01*
X140325027Y-68936011D01*
X140319111Y-68979989D01*
X140319111Y-68979989D01*
G37*
X140319111Y-68979989D02*
X140301219Y-69015962D01*
X140282144Y-69036070D01*
X140245883Y-69058165D01*
X140206783Y-69067726D01*
X140167602Y-69065305D01*
X140131095Y-69051452D01*
X140100017Y-69026716D01*
X140078907Y-68995482D01*
X140065911Y-68956321D01*
X140066637Y-68918720D01*
X140079342Y-68882931D01*
X140103507Y-68848913D01*
X140135470Y-68825412D01*
X140172492Y-68812965D01*
X140211833Y-68812108D01*
X140250754Y-68823377D01*
X140281929Y-68843284D01*
X140308762Y-68873376D01*
X140322522Y-68908548D01*
X140325027Y-68936011D01*
X140319111Y-68979989D01*
G36*
X140891084Y-66363481D02*
X140891084Y-65935009D01*
X141038041Y-65936974D01*
X141184999Y-65938939D01*
X141186923Y-66151210D01*
X141188846Y-66363481D01*
X140891084Y-66363481D01*
X140891084Y-66363481D01*
G37*
X140891084Y-66363481D02*
X140891084Y-65935009D01*
X141038041Y-65936974D01*
X141184999Y-65938939D01*
X141186923Y-66151210D01*
X141188846Y-66363481D01*
X140891084Y-66363481D01*
G36*
X140891084Y-71457996D02*
X140891084Y-71029524D01*
X141038041Y-71031488D01*
X141184999Y-71033453D01*
X141186923Y-71245724D01*
X141188846Y-71457996D01*
X140891084Y-71457996D01*
X140891084Y-71457996D01*
G37*
X140891084Y-71457996D02*
X140891084Y-71029524D01*
X141038041Y-71031488D01*
X141184999Y-71033453D01*
X141186923Y-71245724D01*
X141188846Y-71457996D01*
X140891084Y-71457996D01*
D12*
X124903000Y-86385200D02*
X126303000Y-86385200D01*
X124903000Y-83185200D02*
X126303000Y-83185200D01*
X124903000Y-86385200D02*
X124903000Y-83185200D01*
X126303000Y-83185200D02*
X126303000Y-86385200D01*
X126681000Y-86385200D02*
X128081000Y-86385200D01*
X126681000Y-83185200D02*
X128081000Y-83185200D01*
X126681000Y-86385200D02*
X126681000Y-83185200D01*
X128081000Y-83185200D02*
X128081000Y-86385200D01*
X134404846Y-82739104D02*
X133414896Y-81749154D01*
X132142104Y-85001846D02*
X131152154Y-84011896D01*
X134404846Y-82739104D02*
X132142104Y-85001846D01*
X131152154Y-84011896D02*
X133414896Y-81749154D01*
X136182846Y-84517104D02*
X135192896Y-83527154D01*
X133920104Y-86779846D02*
X132930154Y-85789896D01*
X136182846Y-84517104D02*
X133920104Y-86779846D01*
X132930154Y-85789896D02*
X135192896Y-83527154D01*
X136053600Y-89788800D02*
X137453600Y-89788800D01*
X136053600Y-86588800D02*
X137453600Y-86588800D01*
X136053600Y-89788800D02*
X136053600Y-86588800D01*
X137453600Y-86588800D02*
X137453600Y-89788800D01*
X137831600Y-89788800D02*
X139231600Y-89788800D01*
X137831600Y-86588800D02*
X139231600Y-86588800D01*
X137831600Y-89788800D02*
X137831600Y-86588800D01*
X139231600Y-86588800D02*
X139231600Y-89788800D01*
X123150400Y-85978800D02*
X124550400Y-85978800D01*
X123150400Y-82778800D02*
X124550400Y-82778800D01*
X123150400Y-85978800D02*
X123150400Y-82778800D01*
X124550400Y-82778800D02*
X124550400Y-85978800D01*
X124398000Y-97206000D02*
X122998000Y-97206000D01*
X124398000Y-100406000D02*
X122998000Y-100406000D01*
X124398000Y-97206000D02*
X124398000Y-100406000D01*
X122998000Y-100406000D02*
X122998000Y-97206000D01*
X139333200Y-97206000D02*
X137933200Y-97206000D01*
X139333200Y-100406000D02*
X137933200Y-100406000D01*
X139333200Y-97206000D02*
X139333200Y-100406000D01*
X137933200Y-100406000D02*
X137933200Y-97206000D01*
X124383600Y-128970000D02*
X124383600Y-127570000D01*
X121183600Y-128970000D02*
X121183600Y-127570000D01*
X124383600Y-128970000D02*
X121183600Y-128970000D01*
X121183600Y-127570000D02*
X124383600Y-127570000D01*
X128701600Y-125414000D02*
X128701600Y-124014000D01*
X125501600Y-125414000D02*
X125501600Y-124014000D01*
X128701600Y-125414000D02*
X125501600Y-125414000D01*
X125501600Y-124014000D02*
X128701600Y-124014000D01*
X124383600Y-125464800D02*
X124383600Y-124064800D01*
X121183600Y-125464800D02*
X121183600Y-124064800D01*
X124383600Y-125464800D02*
X121183600Y-125464800D01*
X121183600Y-124064800D02*
X124383600Y-124064800D01*
X117983200Y-133361200D02*
X117983200Y-134761200D01*
X121183200Y-133361200D02*
X121183200Y-134761200D01*
X117983200Y-133361200D02*
X121183200Y-133361200D01*
X121183200Y-134761200D02*
X117983200Y-134761200D01*
X124383600Y-127141200D02*
X124383600Y-125741200D01*
X121183600Y-127141200D02*
X121183600Y-125741200D01*
X124383600Y-127141200D02*
X121183600Y-127141200D01*
X121183600Y-125741200D02*
X124383600Y-125741200D01*
X121336000Y-115632000D02*
X121336000Y-117032000D01*
X124536000Y-115632000D02*
X124536000Y-117032000D01*
X121336000Y-115632000D02*
X124536000Y-115632000D01*
X124536000Y-117032000D02*
X121336000Y-117032000D01*
X133947511Y-127976800D02*
G75*
G03X133947511Y-127976800I-70711J0D01*
G01*
X133526800Y-126526800D02*
X133526800Y-126076800D01*
X132226800Y-126926800D02*
X132226800Y-126026800D01*
X132226800Y-125026800D02*
X133526800Y-125026800D01*
X132226800Y-127926800D02*
X133526800Y-127926800D01*
X127247600Y-127849000D02*
X126447600Y-127849000D01*
X127247600Y-129199000D02*
X126447600Y-129199000D01*
D13*
X121499000Y-77660400D02*
X121479000Y-77660400D01*
X121479000Y-77660400D02*
X121479000Y-75000400D01*
X121479000Y-75000400D02*
X121499000Y-75000400D01*
X127929000Y-77660400D02*
X127949000Y-77660400D01*
X127949000Y-77660400D02*
X127949000Y-75000400D01*
X127949000Y-75000400D02*
X127929000Y-75000400D01*
X121499000Y-72695400D02*
X121499000Y-75000400D01*
D15*
X124562711Y-131504000D02*
G75*
G03X124562711Y-131504000I-70711J0D01*
G01*
D12*
X130038000Y-134112000D02*
X130038000Y-132562000D01*
X130038000Y-132562000D02*
X129488000Y-132562000D01*
X122438000Y-134112000D02*
X122438000Y-132562000D01*
X122438000Y-132562000D02*
X122988000Y-132562000D01*
X130038000Y-136312000D02*
X130038000Y-137412000D01*
X122438000Y-137412000D02*
X122438000Y-136312000D01*
X122438000Y-137412000D02*
X130038000Y-137412000D01*
X121372400Y-85978800D02*
X122772400Y-85978800D01*
X121372400Y-82778800D02*
X122772400Y-82778800D01*
X121372400Y-85978800D02*
X121372400Y-82778800D01*
X122772400Y-82778800D02*
X122772400Y-85978800D01*
X125501600Y-125741200D02*
X125501600Y-127141200D01*
X128701600Y-125741200D02*
X128701600Y-127141200D01*
X125501600Y-125741200D02*
X128701600Y-125741200D01*
X128701600Y-127141200D02*
X125501600Y-127141200D01*
X119635400Y-68846600D02*
X119635400Y-67446600D01*
X118735400Y-67446600D02*
X119635400Y-67446600D01*
X116635400Y-67446600D02*
X117635400Y-67446600D01*
X116635400Y-68846600D02*
X116635400Y-67446600D01*
X117735400Y-68846600D02*
X118535400Y-68846600D01*
X119635400Y-64655600D02*
X119635400Y-63255600D01*
X118735400Y-63255600D02*
X119635400Y-63255600D01*
X116635400Y-63255600D02*
X117635400Y-63255600D01*
X116635400Y-64655600D02*
X116635400Y-63255600D01*
X117735400Y-64655600D02*
X118535400Y-64655600D01*
X119632900Y-60426500D02*
X119632900Y-59026500D01*
X118732900Y-59026500D02*
X119632900Y-59026500D01*
X116632900Y-59026500D02*
X117632900Y-59026500D01*
X116632900Y-60426500D02*
X116632900Y-59026500D01*
X117732900Y-60426500D02*
X118532900Y-60426500D01*
X123354900Y-63412600D02*
X123354900Y-62012600D01*
X120154900Y-63412600D02*
X120154900Y-62012600D01*
X123354900Y-63412600D02*
X120154900Y-63412600D01*
X120154900Y-62012600D02*
X123354900Y-62012600D01*
X123418400Y-59183500D02*
X123418400Y-57783500D01*
X120218400Y-59183500D02*
X120218400Y-57783500D01*
X123418400Y-59183500D02*
X120218400Y-59183500D01*
X120218400Y-57783500D02*
X123418400Y-57783500D01*
X143473648Y-94680000D02*
X143473648Y-93280000D01*
X140273648Y-94680000D02*
X140273648Y-93280000D01*
X143473648Y-94680000D02*
X140273648Y-94680000D01*
X140273648Y-93280000D02*
X143473648Y-93280000D01*
X143473648Y-92997298D02*
X143473648Y-91597298D01*
X140273648Y-92997298D02*
X140273648Y-91597298D01*
X143473648Y-92997298D02*
X140273648Y-92997298D01*
X140273648Y-91597298D02*
X143473648Y-91597298D01*
X117983200Y-135037600D02*
X117983200Y-136437600D01*
X121183200Y-135037600D02*
X121183200Y-136437600D01*
X117983200Y-135037600D02*
X121183200Y-135037600D01*
X121183200Y-136437600D02*
X117983200Y-136437600D01*
D13*
X133514000Y-57749500D02*
X133514000Y-57849500D01*
X133514000Y-61249500D02*
X133514000Y-61149500D01*
X128614000Y-61149500D02*
X128614000Y-61249500D01*
X128614000Y-57749500D02*
X128614000Y-57849500D01*
X128614000Y-59149500D02*
X128614000Y-59849500D01*
X133514000Y-59149500D02*
X133514000Y-59849500D01*
X133514000Y-57749500D02*
X128614000Y-57749500D01*
X128614000Y-61249500D02*
X133514000Y-61249500D01*
D15*
X131528038Y-88958844D02*
G75*
G03X131528038Y-88958844I-70711J0D01*
G01*
D12*
X132270500Y-99247247D02*
X137220247Y-94297500D01*
X127320753Y-94297500D02*
X132270500Y-89347753D01*
X132270500Y-89347753D02*
X137220247Y-94297500D01*
X127320753Y-94297500D02*
X132270500Y-99247247D01*
X126096400Y-123599200D02*
X126096400Y-117599200D01*
X126096400Y-123599200D02*
X121096400Y-123599200D01*
X121096400Y-123599200D02*
X121096400Y-117599200D01*
X121096400Y-117599200D02*
X126096400Y-117599200D01*
X130629734Y-86605394D02*
X131336840Y-87312500D01*
X131690394Y-85544734D02*
X132397500Y-86251840D01*
X123418400Y-69318100D02*
X120218400Y-69318100D01*
X120218400Y-69318100D02*
X120218400Y-67918100D01*
X120218400Y-67918100D02*
X123418400Y-67918100D01*
X123418400Y-67918100D02*
X123418400Y-69318100D01*
X123418400Y-69318100D02*
X123618400Y-69318100D01*
X123618400Y-69318100D02*
X123618400Y-67918100D01*
X123618400Y-67918100D02*
X123418400Y-67918100D01*
X123354900Y-65127100D02*
X120154900Y-65127100D01*
X120154900Y-65127100D02*
X120154900Y-63727100D01*
X120154900Y-63727100D02*
X123354900Y-63727100D01*
X123354900Y-63727100D02*
X123354900Y-65127100D01*
X123354900Y-65127100D02*
X123554900Y-65127100D01*
X123554900Y-65127100D02*
X123554900Y-63727100D01*
X123554900Y-63727100D02*
X123354900Y-63727100D01*
X123418400Y-60898000D02*
X120218400Y-60898000D01*
X120218400Y-60898000D02*
X120218400Y-59498000D01*
X120218400Y-59498000D02*
X123418400Y-59498000D01*
X123418400Y-59498000D02*
X123418400Y-60898000D01*
X123418400Y-60898000D02*
X123618400Y-60898000D01*
X123618400Y-60898000D02*
X123618400Y-59498000D01*
X123618400Y-59498000D02*
X123418400Y-59498000D01*
X127801200Y-62292000D02*
X127801200Y-63692000D01*
X131001200Y-62292000D02*
X131001200Y-63692000D01*
X127801200Y-62292000D02*
X131001200Y-62292000D01*
X131001200Y-63692000D02*
X127801200Y-63692000D01*
X127787600Y-64171600D02*
X127787600Y-65571600D01*
X130987600Y-64171600D02*
X130987600Y-65571600D01*
X127787600Y-64171600D02*
X130987600Y-64171600D01*
X130987600Y-65571600D02*
X127787600Y-65571600D01*
X123418400Y-67603600D02*
X123418400Y-66203600D01*
X120218400Y-67603600D02*
X120218400Y-66203600D01*
X123418400Y-67603600D02*
X120218400Y-67603600D01*
X120218400Y-66203600D02*
X123418400Y-66203600D01*
M02*
