G04 #@! TF.FileFunction,Paste,Top*
%FSLAX46Y46*%
G04 Gerber Fmt 4.6, Leading zero omitted, Abs format (unit mm)*
G04 Created by KiCad (PCBNEW 4.0.7-e1-6374~58~ubuntu16.04.1) date Tue Sep 26 15:10:51 2017*
%MOMM*%
%LPD*%
G01*
G04 APERTURE LIST*
%ADD10C,0.100000*%
%ADD11R,1.200000X0.900000*%
%ADD12R,0.900000X1.200000*%
%ADD13R,1.000000X1.100000*%
%ADD14R,1.100000X1.000000*%
%ADD15R,0.700000X1.000000*%
%ADD16R,0.700000X0.600000*%
%ADD17R,1.000000X1.500000*%
%ADD18R,0.750000X2.100000*%
%ADD19R,0.400000X1.350000*%
%ADD20R,0.650000X1.050000*%
%ADD21R,1.450000X0.700000*%
%ADD22R,0.800000X1.200000*%
%ADD23R,0.800000X2.200000*%
%ADD24R,2.000000X2.500000*%
%ADD25R,0.450000X1.750000*%
%ADD26R,0.460000X1.750000*%
G04 APERTURE END LIST*
D10*
D11*
X159153500Y-71628000D03*
X161353500Y-71628000D03*
X155849500Y-71628000D03*
X153649500Y-71628000D03*
X151447500Y-71628000D03*
X149247500Y-71628000D03*
X149583500Y-59182000D03*
X147383500Y-59182000D03*
X152510252Y-59199762D03*
X154710252Y-59199762D03*
D12*
X147256500Y-63350500D03*
X147256500Y-61150500D03*
X158940500Y-65278000D03*
X158940500Y-63078000D03*
D11*
X143721000Y-132080000D03*
X141521000Y-132080000D03*
X143721000Y-134112000D03*
X141521000Y-134112000D03*
X159153500Y-69850000D03*
X161353500Y-69850000D03*
X161290000Y-58983836D03*
X159090000Y-58983836D03*
X159153500Y-67691000D03*
X161353500Y-67691000D03*
X161290000Y-60761836D03*
X159090000Y-60761836D03*
X155849500Y-87628000D03*
X153649500Y-87628000D03*
X151447500Y-87628000D03*
X149247500Y-87628000D03*
X149583500Y-75182000D03*
X147383500Y-75182000D03*
X152510252Y-75199762D03*
X154710252Y-75199762D03*
D12*
X147256500Y-79350500D03*
X147256500Y-77150500D03*
X158940500Y-81278000D03*
X158940500Y-79078000D03*
D11*
X155849500Y-103628000D03*
X153649500Y-103628000D03*
X151447500Y-103628000D03*
X149247500Y-103628000D03*
X149583500Y-91182000D03*
X147383500Y-91182000D03*
X152510252Y-91199762D03*
X154710252Y-91199762D03*
D12*
X147256500Y-95350500D03*
X147256500Y-93150500D03*
X158940500Y-97278000D03*
X158940500Y-95078000D03*
D11*
X155849500Y-119628000D03*
X153649500Y-119628000D03*
X151447500Y-119628000D03*
X149247500Y-119628000D03*
X149583500Y-107182000D03*
X147383500Y-107182000D03*
X152510252Y-107199762D03*
X154710252Y-107199762D03*
D12*
X147256500Y-111350500D03*
X147256500Y-109150500D03*
X158940500Y-113278000D03*
X158940500Y-111078000D03*
D11*
X155849500Y-135628000D03*
X153649500Y-135628000D03*
X151447500Y-135628000D03*
X149247500Y-135628000D03*
X149583500Y-123182000D03*
X147383500Y-123182000D03*
X152510252Y-123199762D03*
X154710252Y-123199762D03*
D12*
X147256500Y-127350500D03*
X147256500Y-125150500D03*
X158940500Y-129278000D03*
X158940500Y-127078000D03*
D11*
X159153500Y-87628000D03*
X161353500Y-87628000D03*
X159153500Y-85850000D03*
X161353500Y-85850000D03*
X161290000Y-74983836D03*
X159090000Y-74983836D03*
X159153500Y-83691000D03*
X161353500Y-83691000D03*
X161290000Y-76761836D03*
X159090000Y-76761836D03*
X159153500Y-103628000D03*
X161353500Y-103628000D03*
X159153500Y-101850000D03*
X161353500Y-101850000D03*
X161290000Y-90983836D03*
X159090000Y-90983836D03*
X159153500Y-99691000D03*
X161353500Y-99691000D03*
X161290000Y-92761836D03*
X159090000Y-92761836D03*
X159153500Y-119628000D03*
X161353500Y-119628000D03*
X159153500Y-117850000D03*
X161353500Y-117850000D03*
X161290000Y-106983836D03*
X159090000Y-106983836D03*
X159153500Y-115691000D03*
X161353500Y-115691000D03*
X161290000Y-108761836D03*
X159090000Y-108761836D03*
X159153500Y-135628000D03*
X161353500Y-135628000D03*
X159153500Y-133850000D03*
X161353500Y-133850000D03*
X161290000Y-122983836D03*
X159090000Y-122983836D03*
X159153500Y-131691000D03*
X161353500Y-131691000D03*
X161290000Y-124761836D03*
X159090000Y-124761836D03*
D13*
X125603000Y-85635200D03*
X125603000Y-83935200D03*
X127381000Y-85635200D03*
X127381000Y-83935200D03*
D10*
G36*
X133414896Y-82031997D02*
X134122003Y-82739104D01*
X133344186Y-83516921D01*
X132637079Y-82809814D01*
X133414896Y-82031997D01*
X133414896Y-82031997D01*
G37*
G36*
X132212814Y-83234079D02*
X132919921Y-83941186D01*
X132142104Y-84719003D01*
X131434997Y-84011896D01*
X132212814Y-83234079D01*
X132212814Y-83234079D01*
G37*
G36*
X135192896Y-83809997D02*
X135900003Y-84517104D01*
X135122186Y-85294921D01*
X134415079Y-84587814D01*
X135192896Y-83809997D01*
X135192896Y-83809997D01*
G37*
G36*
X133990814Y-85012079D02*
X134697921Y-85719186D01*
X133920104Y-86497003D01*
X133212997Y-85789896D01*
X133990814Y-85012079D01*
X133990814Y-85012079D01*
G37*
D13*
X136753600Y-89038800D03*
X136753600Y-87338800D03*
X138531600Y-89038800D03*
X138531600Y-87338800D03*
X123850400Y-85228800D03*
X123850400Y-83528800D03*
X123698000Y-97956000D03*
X123698000Y-99656000D03*
X138633200Y-97956000D03*
X138633200Y-99656000D03*
D14*
X123633600Y-128270000D03*
X121933600Y-128270000D03*
X127951600Y-124714000D03*
X126251600Y-124714000D03*
X123633600Y-124764800D03*
X121933600Y-124764800D03*
X118733200Y-134061200D03*
X120433200Y-134061200D03*
X123633600Y-126441200D03*
X121933600Y-126441200D03*
X122086000Y-116332000D03*
X123786000Y-116332000D03*
D15*
X133876800Y-127226800D03*
D16*
X133876800Y-125526800D03*
X131876800Y-125526800D03*
X131876800Y-127426800D03*
D17*
X127947600Y-128524000D03*
X125747600Y-128524000D03*
D18*
X122174000Y-74530400D03*
X122174000Y-78130400D03*
X123444000Y-74530400D03*
X123444000Y-78130400D03*
X124714000Y-74530400D03*
X124714000Y-78130400D03*
X125984000Y-74530400D03*
X125984000Y-78130400D03*
X127254000Y-74530400D03*
X127254000Y-78130400D03*
D19*
X124938000Y-132662000D03*
X125588000Y-132662000D03*
X126238000Y-132662000D03*
X126888000Y-132662000D03*
X127538000Y-132662000D03*
D13*
X122072400Y-85228800D03*
X122072400Y-83528800D03*
D14*
X126251600Y-126441200D03*
X127951600Y-126441200D03*
D20*
X117185400Y-69196600D03*
X119085400Y-69196600D03*
X118135400Y-66896600D03*
X117185400Y-65005600D03*
X119085400Y-65005600D03*
X118135400Y-62705600D03*
X117182900Y-60776500D03*
X119082900Y-60776500D03*
X118132900Y-58476500D03*
D14*
X122604900Y-62712600D03*
X120904900Y-62712600D03*
X122668400Y-58483500D03*
X120968400Y-58483500D03*
X142723648Y-93980000D03*
X141023648Y-93980000D03*
X142723648Y-92297298D03*
X141023648Y-92297298D03*
X118733200Y-135737600D03*
X120433200Y-135737600D03*
D21*
X133644000Y-58499500D03*
X128484000Y-58499500D03*
X128484000Y-60499500D03*
X133644000Y-60499500D03*
D10*
G36*
X130591121Y-88905811D02*
X130767898Y-88729034D01*
X131687137Y-89648273D01*
X131510360Y-89825050D01*
X130591121Y-88905811D01*
X130591121Y-88905811D01*
G37*
G36*
X130237568Y-89259364D02*
X130414345Y-89082587D01*
X131333584Y-90001826D01*
X131156807Y-90178603D01*
X130237568Y-89259364D01*
X130237568Y-89259364D01*
G37*
G36*
X129884014Y-89612918D02*
X130060791Y-89436141D01*
X130980030Y-90355380D01*
X130803253Y-90532157D01*
X129884014Y-89612918D01*
X129884014Y-89612918D01*
G37*
G36*
X129530461Y-89966471D02*
X129707238Y-89789694D01*
X130626477Y-90708933D01*
X130449700Y-90885710D01*
X129530461Y-89966471D01*
X129530461Y-89966471D01*
G37*
G36*
X129176908Y-90320024D02*
X129353685Y-90143247D01*
X130272924Y-91062486D01*
X130096147Y-91239263D01*
X129176908Y-90320024D01*
X129176908Y-90320024D01*
G37*
G36*
X128823354Y-90673578D02*
X129000131Y-90496801D01*
X129919370Y-91416040D01*
X129742593Y-91592817D01*
X128823354Y-90673578D01*
X128823354Y-90673578D01*
G37*
G36*
X128469801Y-91027131D02*
X128646578Y-90850354D01*
X129565817Y-91769593D01*
X129389040Y-91946370D01*
X128469801Y-91027131D01*
X128469801Y-91027131D01*
G37*
G36*
X128116247Y-91380685D02*
X128293024Y-91203908D01*
X129212263Y-92123147D01*
X129035486Y-92299924D01*
X128116247Y-91380685D01*
X128116247Y-91380685D01*
G37*
G36*
X127762694Y-91734238D02*
X127939471Y-91557461D01*
X128858710Y-92476700D01*
X128681933Y-92653477D01*
X127762694Y-91734238D01*
X127762694Y-91734238D01*
G37*
G36*
X127409141Y-92087791D02*
X127585918Y-91911014D01*
X128505157Y-92830253D01*
X128328380Y-93007030D01*
X127409141Y-92087791D01*
X127409141Y-92087791D01*
G37*
G36*
X127055587Y-92441345D02*
X127232364Y-92264568D01*
X128151603Y-93183807D01*
X127974826Y-93360584D01*
X127055587Y-92441345D01*
X127055587Y-92441345D01*
G37*
G36*
X126702034Y-92794898D02*
X126878811Y-92618121D01*
X127798050Y-93537360D01*
X127621273Y-93714137D01*
X126702034Y-92794898D01*
X126702034Y-92794898D01*
G37*
G36*
X126878811Y-95976879D02*
X126702034Y-95800102D01*
X127621273Y-94880863D01*
X127798050Y-95057640D01*
X126878811Y-95976879D01*
X126878811Y-95976879D01*
G37*
G36*
X127232364Y-96330432D02*
X127055587Y-96153655D01*
X127974826Y-95234416D01*
X128151603Y-95411193D01*
X127232364Y-96330432D01*
X127232364Y-96330432D01*
G37*
G36*
X127585918Y-96683986D02*
X127409141Y-96507209D01*
X128328380Y-95587970D01*
X128505157Y-95764747D01*
X127585918Y-96683986D01*
X127585918Y-96683986D01*
G37*
G36*
X127939471Y-97037539D02*
X127762694Y-96860762D01*
X128681933Y-95941523D01*
X128858710Y-96118300D01*
X127939471Y-97037539D01*
X127939471Y-97037539D01*
G37*
G36*
X128293024Y-97391092D02*
X128116247Y-97214315D01*
X129035486Y-96295076D01*
X129212263Y-96471853D01*
X128293024Y-97391092D01*
X128293024Y-97391092D01*
G37*
G36*
X128646578Y-97744646D02*
X128469801Y-97567869D01*
X129389040Y-96648630D01*
X129565817Y-96825407D01*
X128646578Y-97744646D01*
X128646578Y-97744646D01*
G37*
G36*
X129000131Y-98098199D02*
X128823354Y-97921422D01*
X129742593Y-97002183D01*
X129919370Y-97178960D01*
X129000131Y-98098199D01*
X129000131Y-98098199D01*
G37*
G36*
X129353685Y-98451753D02*
X129176908Y-98274976D01*
X130096147Y-97355737D01*
X130272924Y-97532514D01*
X129353685Y-98451753D01*
X129353685Y-98451753D01*
G37*
G36*
X129707238Y-98805306D02*
X129530461Y-98628529D01*
X130449700Y-97709290D01*
X130626477Y-97886067D01*
X129707238Y-98805306D01*
X129707238Y-98805306D01*
G37*
G36*
X130060791Y-99158859D02*
X129884014Y-98982082D01*
X130803253Y-98062843D01*
X130980030Y-98239620D01*
X130060791Y-99158859D01*
X130060791Y-99158859D01*
G37*
G36*
X130414345Y-99512413D02*
X130237568Y-99335636D01*
X131156807Y-98416397D01*
X131333584Y-98593174D01*
X130414345Y-99512413D01*
X130414345Y-99512413D01*
G37*
G36*
X130767898Y-99865966D02*
X130591121Y-99689189D01*
X131510360Y-98769950D01*
X131687137Y-98946727D01*
X130767898Y-99865966D01*
X130767898Y-99865966D01*
G37*
G36*
X132853863Y-98946727D02*
X133030640Y-98769950D01*
X133949879Y-99689189D01*
X133773102Y-99865966D01*
X132853863Y-98946727D01*
X132853863Y-98946727D01*
G37*
G36*
X133207416Y-98593174D02*
X133384193Y-98416397D01*
X134303432Y-99335636D01*
X134126655Y-99512413D01*
X133207416Y-98593174D01*
X133207416Y-98593174D01*
G37*
G36*
X133560970Y-98239620D02*
X133737747Y-98062843D01*
X134656986Y-98982082D01*
X134480209Y-99158859D01*
X133560970Y-98239620D01*
X133560970Y-98239620D01*
G37*
G36*
X133914523Y-97886067D02*
X134091300Y-97709290D01*
X135010539Y-98628529D01*
X134833762Y-98805306D01*
X133914523Y-97886067D01*
X133914523Y-97886067D01*
G37*
G36*
X134268076Y-97532514D02*
X134444853Y-97355737D01*
X135364092Y-98274976D01*
X135187315Y-98451753D01*
X134268076Y-97532514D01*
X134268076Y-97532514D01*
G37*
G36*
X134621630Y-97178960D02*
X134798407Y-97002183D01*
X135717646Y-97921422D01*
X135540869Y-98098199D01*
X134621630Y-97178960D01*
X134621630Y-97178960D01*
G37*
G36*
X134975183Y-96825407D02*
X135151960Y-96648630D01*
X136071199Y-97567869D01*
X135894422Y-97744646D01*
X134975183Y-96825407D01*
X134975183Y-96825407D01*
G37*
G36*
X135328737Y-96471853D02*
X135505514Y-96295076D01*
X136424753Y-97214315D01*
X136247976Y-97391092D01*
X135328737Y-96471853D01*
X135328737Y-96471853D01*
G37*
G36*
X135682290Y-96118300D02*
X135859067Y-95941523D01*
X136778306Y-96860762D01*
X136601529Y-97037539D01*
X135682290Y-96118300D01*
X135682290Y-96118300D01*
G37*
G36*
X136035843Y-95764747D02*
X136212620Y-95587970D01*
X137131859Y-96507209D01*
X136955082Y-96683986D01*
X136035843Y-95764747D01*
X136035843Y-95764747D01*
G37*
G36*
X136389397Y-95411193D02*
X136566174Y-95234416D01*
X137485413Y-96153655D01*
X137308636Y-96330432D01*
X136389397Y-95411193D01*
X136389397Y-95411193D01*
G37*
G36*
X136742950Y-95057640D02*
X136919727Y-94880863D01*
X137838966Y-95800102D01*
X137662189Y-95976879D01*
X136742950Y-95057640D01*
X136742950Y-95057640D01*
G37*
G36*
X136919727Y-93714137D02*
X136742950Y-93537360D01*
X137662189Y-92618121D01*
X137838966Y-92794898D01*
X136919727Y-93714137D01*
X136919727Y-93714137D01*
G37*
G36*
X136566174Y-93360584D02*
X136389397Y-93183807D01*
X137308636Y-92264568D01*
X137485413Y-92441345D01*
X136566174Y-93360584D01*
X136566174Y-93360584D01*
G37*
G36*
X136212620Y-93007030D02*
X136035843Y-92830253D01*
X136955082Y-91911014D01*
X137131859Y-92087791D01*
X136212620Y-93007030D01*
X136212620Y-93007030D01*
G37*
G36*
X135859067Y-92653477D02*
X135682290Y-92476700D01*
X136601529Y-91557461D01*
X136778306Y-91734238D01*
X135859067Y-92653477D01*
X135859067Y-92653477D01*
G37*
G36*
X135505514Y-92299924D02*
X135328737Y-92123147D01*
X136247976Y-91203908D01*
X136424753Y-91380685D01*
X135505514Y-92299924D01*
X135505514Y-92299924D01*
G37*
G36*
X135151960Y-91946370D02*
X134975183Y-91769593D01*
X135894422Y-90850354D01*
X136071199Y-91027131D01*
X135151960Y-91946370D01*
X135151960Y-91946370D01*
G37*
G36*
X134798407Y-91592817D02*
X134621630Y-91416040D01*
X135540869Y-90496801D01*
X135717646Y-90673578D01*
X134798407Y-91592817D01*
X134798407Y-91592817D01*
G37*
G36*
X134444853Y-91239263D02*
X134268076Y-91062486D01*
X135187315Y-90143247D01*
X135364092Y-90320024D01*
X134444853Y-91239263D01*
X134444853Y-91239263D01*
G37*
G36*
X134091300Y-90885710D02*
X133914523Y-90708933D01*
X134833762Y-89789694D01*
X135010539Y-89966471D01*
X134091300Y-90885710D01*
X134091300Y-90885710D01*
G37*
G36*
X133737747Y-90532157D02*
X133560970Y-90355380D01*
X134480209Y-89436141D01*
X134656986Y-89612918D01*
X133737747Y-90532157D01*
X133737747Y-90532157D01*
G37*
G36*
X133384193Y-90178603D02*
X133207416Y-90001826D01*
X134126655Y-89082587D01*
X134303432Y-89259364D01*
X133384193Y-90178603D01*
X133384193Y-90178603D01*
G37*
G36*
X133030640Y-89825050D02*
X132853863Y-89648273D01*
X133773102Y-88729034D01*
X133949879Y-88905811D01*
X133030640Y-89825050D01*
X133030640Y-89825050D01*
G37*
D22*
X125096400Y-118849200D03*
D23*
X123596400Y-119349200D03*
D22*
X122096400Y-118849200D03*
D24*
X123596400Y-121699200D03*
D10*
G36*
X129569074Y-85827577D02*
X130912577Y-84484074D01*
X131690394Y-85261891D01*
X130346891Y-86605394D01*
X129569074Y-85827577D01*
X129569074Y-85827577D01*
G37*
G36*
X131336840Y-87595343D02*
X132680343Y-86251840D01*
X133458160Y-87029657D01*
X132114657Y-88373160D01*
X131336840Y-87595343D01*
X131336840Y-87595343D01*
G37*
D14*
X120968400Y-68618100D03*
X122668400Y-68618100D03*
X120904900Y-64427100D03*
X122604900Y-64427100D03*
X120968400Y-60198000D03*
X122668400Y-60198000D03*
X128551200Y-62992000D03*
X130251200Y-62992000D03*
X128537600Y-64871600D03*
X130237600Y-64871600D03*
X122668400Y-66903600D03*
X120968400Y-66903600D03*
D25*
X149906200Y-68986400D03*
X150556200Y-68986400D03*
X151206200Y-68986400D03*
X151856200Y-68986400D03*
X152506200Y-68986400D03*
X153156200Y-68986400D03*
X153806200Y-68986400D03*
X154456200Y-68986400D03*
X155106200Y-68986400D03*
X155756200Y-68986400D03*
X155756200Y-61786400D03*
X155106200Y-61786400D03*
X154456200Y-61786400D03*
X153806200Y-61786400D03*
X153156200Y-61786400D03*
X152506200Y-61786400D03*
X151856200Y-61786400D03*
X151206200Y-61786400D03*
D26*
X150556200Y-61786400D03*
D25*
X149906200Y-61786400D03*
X149912000Y-85013800D03*
X150562000Y-85013800D03*
X151212000Y-85013800D03*
X151862000Y-85013800D03*
X152512000Y-85013800D03*
X153162000Y-85013800D03*
X153812000Y-85013800D03*
X154462000Y-85013800D03*
X155112000Y-85013800D03*
X155762000Y-85013800D03*
X155762000Y-77813800D03*
X155112000Y-77813800D03*
X154462000Y-77813800D03*
X153812000Y-77813800D03*
X153162000Y-77813800D03*
X152512000Y-77813800D03*
X151862000Y-77813800D03*
X151212000Y-77813800D03*
D26*
X150562000Y-77813800D03*
D25*
X149912000Y-77813800D03*
X149906200Y-100965000D03*
X150556200Y-100965000D03*
X151206200Y-100965000D03*
X151856200Y-100965000D03*
X152506200Y-100965000D03*
X153156200Y-100965000D03*
X153806200Y-100965000D03*
X154456200Y-100965000D03*
X155106200Y-100965000D03*
X155756200Y-100965000D03*
X155756200Y-93765000D03*
X155106200Y-93765000D03*
X154456200Y-93765000D03*
X153806200Y-93765000D03*
X153156200Y-93765000D03*
X152506200Y-93765000D03*
X151856200Y-93765000D03*
X151206200Y-93765000D03*
D26*
X150556200Y-93765000D03*
D25*
X149906200Y-93765000D03*
X149901600Y-116967000D03*
X150551600Y-116967000D03*
X151201600Y-116967000D03*
X151851600Y-116967000D03*
X152501600Y-116967000D03*
X153151600Y-116967000D03*
X153801600Y-116967000D03*
X154451600Y-116967000D03*
X155101600Y-116967000D03*
X155751600Y-116967000D03*
X155751600Y-109767000D03*
X155101600Y-109767000D03*
X154451600Y-109767000D03*
X153801600Y-109767000D03*
X153151600Y-109767000D03*
X152501600Y-109767000D03*
X151851600Y-109767000D03*
X151201600Y-109767000D03*
D26*
X150551600Y-109767000D03*
D25*
X149901600Y-109767000D03*
X149901600Y-133107800D03*
X150551600Y-133107800D03*
X151201600Y-133107800D03*
X151851600Y-133107800D03*
X152501600Y-133107800D03*
X153151600Y-133107800D03*
X153801600Y-133107800D03*
X154451600Y-133107800D03*
X155101600Y-133107800D03*
X155751600Y-133107800D03*
X155751600Y-125907800D03*
X155101600Y-125907800D03*
X154451600Y-125907800D03*
X153801600Y-125907800D03*
X153151600Y-125907800D03*
X152501600Y-125907800D03*
X151851600Y-125907800D03*
X151201600Y-125907800D03*
D26*
X150551600Y-125907800D03*
D25*
X149901600Y-125907800D03*
M02*
