M48
;DRILL file {KiCad 4.0.6} date 06/26/17 12:46:46
;FORMAT={-:-/ absolute / inch / decimal}
FMAT,2
INCH,TZ
T1C0.012
T2C0.030
T3C0.039
T4C0.040
T5C0.075
%
G90
G05
M72
T1
X5.375Y-4.95
X5.51Y-5.39
X5.9088Y-5.3875
X5.9275Y-5.1202
X5.9331Y-3.8588
X5.9331Y-4.4888
X5.9333Y-3.2286
X5.9338Y-2.5938
X5.935Y-4.035
X5.935Y-4.665
X5.94Y-2.775
X5.94Y-3.405
X5.96Y-3.23
X5.96Y-3.86
X5.96Y-4.49
X5.96Y-5.12
X5.9607Y-2.595
X5.98Y-3.15
X5.98Y-3.775
X5.98Y-4.4025
X5.9825Y-2.5175
X5.985Y-5.035
X6.01Y-3.15
X6.01Y-3.775
X6.01Y-4.4025
X6.0125Y-2.5175
X6.015Y-5.035
X6.0821Y-5.3875
X6.16Y-2.775
X6.16Y-3.405
X6.16Y-4.665
X6.165Y-4.035
T2
X6.5825Y-2.47
X6.5825Y-2.57
X6.5825Y-2.67
X6.5825Y-3.0999
X6.5825Y-3.1999
X6.5825Y-3.2999
X6.5825Y-3.7298
X6.5825Y-3.8298
X6.5825Y-3.9298
X6.5825Y-4.3598
X6.5825Y-4.4598
X6.5825Y-4.5598
X6.5825Y-4.9897
X6.5825Y-5.0897
X6.5825Y-5.1897
X7.2825Y-2.47
X7.2825Y-2.57
X7.2825Y-2.67
X7.2825Y-3.0999
X7.2825Y-3.1999
X7.2825Y-3.2999
X7.2825Y-3.7298
X7.2825Y-3.8298
X7.2825Y-3.9298
X7.2825Y-4.3598
X7.2825Y-4.4598
X7.2825Y-4.5598
X7.2825Y-4.9897
X7.2825Y-5.0897
X7.2825Y-5.1897
X7.4575Y-2.47
X7.4575Y-2.57
X7.46Y-3.1
X7.46Y-3.2
X7.46Y-3.7298
X7.46Y-3.8298
X7.46Y-4.36
X7.46Y-4.46
X7.46Y-4.99
X7.46Y-5.09
T3
X4.479Y-2.341
X4.479Y-2.441
X4.479Y-2.541
X4.479Y-2.641
X4.479Y-2.741
X5.379Y-2.3379
X5.379Y-2.4379
X5.379Y-2.5379
X5.379Y-2.6379
X5.379Y-2.7379
X5.379Y-2.8379
T4
X4.479Y-3.2529
X4.479Y-3.3529
X4.479Y-3.4529
X4.479Y-3.5529
X4.479Y-3.6529
X4.479Y-3.7529
X4.479Y-3.8529
X4.479Y-3.9529
X4.479Y-4.0529
X4.479Y-4.1529
X4.479Y-4.2529
X4.479Y-4.3529
X4.479Y-4.4529
X4.479Y-4.5529
X4.479Y-4.6529
X4.479Y-4.7529
X4.479Y-4.8529
X4.479Y-4.9529
X4.479Y-5.0529
X4.655Y-3.64
X4.655Y-3.74
X4.655Y-3.84
X4.655Y-3.94
X4.655Y-4.04
X4.655Y-4.14
X4.655Y-4.24
X4.655Y-4.34
X4.655Y-4.44
X4.655Y-4.54
X4.655Y-4.64
X4.655Y-4.74
X4.655Y-4.84
X4.655Y-4.94
X4.655Y-5.04
X4.655Y-5.14
X5.455Y-4.04
X5.455Y-4.14
X5.455Y-4.24
X5.455Y-4.34
X5.455Y-4.44
X5.455Y-4.54
X5.455Y-4.64
X5.455Y-4.74
X5.455Y-4.84
X5.455Y-4.94
X5.455Y-5.04
X5.455Y-5.14
T5
X7.6575Y-2.37
X7.6575Y-2.77
X7.66Y-3.
X7.66Y-3.4
X7.66Y-3.6298
X7.66Y-4.0298
X7.66Y-4.26
X7.66Y-4.66
X7.66Y-4.89
X7.66Y-5.29
T0
M30
