G04 #@! TF.FileFunction,Soldermask,Top*
%FSLAX46Y46*%
G04 Gerber Fmt 4.6, Leading zero omitted, Abs format (unit mm)*
G04 Created by KiCad (PCBNEW 4.0.7-e2-6376~58~ubuntu16.04.1) date Tue Jul 10 13:57:19 2018*
%MOMM*%
%LPD*%
G01*
G04 APERTURE LIST*
%ADD10C,0.100000*%
%ADD11R,0.850000X1.250000*%
%ADD12R,1.400000X0.950000*%
%ADD13R,0.600000X1.550000*%
%ADD14C,1.400000*%
%ADD15O,1.900000X1.900000*%
%ADD16R,1.400000X1.100000*%
%ADD17R,1.100000X1.400000*%
%ADD18R,0.900000X1.200000*%
%ADD19R,0.900000X0.800000*%
%ADD20R,1.200000X1.700000*%
%ADD21R,2.300000X0.950000*%
%ADD22R,1.200000X1.300000*%
%ADD23R,1.650000X0.900000*%
%ADD24R,1.000000X1.400000*%
%ADD25R,1.000000X2.400000*%
%ADD26R,2.200000X2.700000*%
%ADD27R,1.250000X0.850000*%
%ADD28R,0.950000X1.400000*%
%ADD29R,2.700000X1.600000*%
%ADD30O,1.927200X2.232000*%
%ADD31R,0.450000X1.700000*%
%ADD32C,1.927200*%
%ADD33C,2.400000*%
%ADD34R,2.200000X0.800000*%
%ADD35R,1.900000X1.900000*%
%ADD36R,0.700000X0.600000*%
%ADD37R,1.300000X1.800000*%
%ADD38R,0.450000X0.600000*%
%ADD39R,1.300000X1.200000*%
%ADD40C,2.000000*%
%ADD41R,1.900000X0.800000*%
%ADD42R,3.000000X1.200000*%
%ADD43R,1.760000X0.850000*%
%ADD44R,0.800000X1.900000*%
%ADD45R,1.200000X3.000000*%
G04 APERTURE END LIST*
D10*
D11*
X123022400Y-67143600D03*
X121122400Y-67143600D03*
X122072400Y-69443600D03*
D12*
X152146000Y-123393200D03*
X150246000Y-123393200D03*
D13*
X141190500Y-62346500D03*
X140540500Y-62346500D03*
X139890500Y-62346500D03*
X139240500Y-62346500D03*
X138590500Y-62346500D03*
D14*
X142315500Y-62421500D03*
X137465500Y-62421500D03*
D15*
X143515500Y-59771500D03*
X136265500Y-59771500D03*
D16*
X159153500Y-71628000D03*
X161353500Y-71628000D03*
D17*
X140608469Y-103024303D03*
X140608469Y-100824303D03*
X142262283Y-103024303D03*
X142262283Y-100824303D03*
D16*
X159153500Y-69850000D03*
X161353500Y-69850000D03*
X161290000Y-58983836D03*
X159090000Y-58983836D03*
X159153500Y-67691000D03*
X161353500Y-67691000D03*
X161290000Y-60761836D03*
X159090000Y-60761836D03*
X159153500Y-87628000D03*
X161353500Y-87628000D03*
X159153500Y-85850000D03*
X161353500Y-85850000D03*
X161290000Y-74983836D03*
X159090000Y-74983836D03*
X159153500Y-83691000D03*
X161353500Y-83691000D03*
X161290000Y-76761836D03*
X159090000Y-76761836D03*
X159153500Y-103628000D03*
X161353500Y-103628000D03*
X159153500Y-101850000D03*
X161353500Y-101850000D03*
X161290000Y-90983836D03*
X159090000Y-90983836D03*
X159153500Y-99691000D03*
X161353500Y-99691000D03*
X161290000Y-92761836D03*
X159090000Y-92761836D03*
X159153500Y-119628000D03*
X161353500Y-119628000D03*
X159153500Y-117850000D03*
X161353500Y-117850000D03*
X161290000Y-106983836D03*
X159090000Y-106983836D03*
X159153500Y-115691000D03*
X161353500Y-115691000D03*
X161290000Y-108761836D03*
X159090000Y-108761836D03*
X159153500Y-135628000D03*
X161353500Y-135628000D03*
X159153500Y-133850000D03*
X161353500Y-133850000D03*
X161290000Y-122983836D03*
X159090000Y-122983836D03*
X159153500Y-131691000D03*
X161353500Y-131691000D03*
X161290000Y-124761836D03*
X159090000Y-124761836D03*
D18*
X129572000Y-72976000D03*
D19*
X129572000Y-74676000D03*
X131572000Y-74676000D03*
X131572000Y-72776000D03*
D20*
X136529900Y-69151500D03*
X138729900Y-69151500D03*
D21*
X122094400Y-76758800D03*
X118494400Y-76758800D03*
X122094400Y-78028800D03*
X118494400Y-78028800D03*
X122094400Y-79298800D03*
X118494400Y-79298800D03*
X122094400Y-80568800D03*
X118494400Y-80568800D03*
X122094400Y-81838800D03*
X118494400Y-81838800D03*
D22*
X122478800Y-87413200D03*
X122478800Y-85713200D03*
X136525000Y-72833600D03*
X136525000Y-71133600D03*
D11*
X123022400Y-72376000D03*
X121122400Y-72376000D03*
X122072400Y-74676000D03*
X123073200Y-62063600D03*
X121173200Y-62063600D03*
X122123200Y-64363600D03*
D23*
X133644000Y-58499500D03*
X128484000Y-58499500D03*
X128484000Y-60499500D03*
X133644000Y-60499500D03*
D10*
G36*
X130449700Y-88905811D02*
X130767898Y-88587613D01*
X131828558Y-89648273D01*
X131510360Y-89966471D01*
X130449700Y-88905811D01*
X130449700Y-88905811D01*
G37*
G36*
X130096147Y-89259364D02*
X130414345Y-88941166D01*
X131475005Y-90001826D01*
X131156807Y-90320024D01*
X130096147Y-89259364D01*
X130096147Y-89259364D01*
G37*
G36*
X129742593Y-89612918D02*
X130060791Y-89294720D01*
X131121451Y-90355380D01*
X130803253Y-90673578D01*
X129742593Y-89612918D01*
X129742593Y-89612918D01*
G37*
G36*
X129389040Y-89966471D02*
X129707238Y-89648273D01*
X130767898Y-90708933D01*
X130449700Y-91027131D01*
X129389040Y-89966471D01*
X129389040Y-89966471D01*
G37*
G36*
X129035487Y-90320024D02*
X129353685Y-90001826D01*
X130414345Y-91062486D01*
X130096147Y-91380684D01*
X129035487Y-90320024D01*
X129035487Y-90320024D01*
G37*
G36*
X128681933Y-90673578D02*
X129000131Y-90355380D01*
X130060791Y-91416040D01*
X129742593Y-91734238D01*
X128681933Y-90673578D01*
X128681933Y-90673578D01*
G37*
G36*
X128328380Y-91027131D02*
X128646578Y-90708933D01*
X129707238Y-91769593D01*
X129389040Y-92087791D01*
X128328380Y-91027131D01*
X128328380Y-91027131D01*
G37*
G36*
X127974826Y-91380685D02*
X128293024Y-91062487D01*
X129353684Y-92123147D01*
X129035486Y-92441345D01*
X127974826Y-91380685D01*
X127974826Y-91380685D01*
G37*
G36*
X127621273Y-91734238D02*
X127939471Y-91416040D01*
X129000131Y-92476700D01*
X128681933Y-92794898D01*
X127621273Y-91734238D01*
X127621273Y-91734238D01*
G37*
G36*
X127267720Y-92087791D02*
X127585918Y-91769593D01*
X128646578Y-92830253D01*
X128328380Y-93148451D01*
X127267720Y-92087791D01*
X127267720Y-92087791D01*
G37*
G36*
X126914166Y-92441345D02*
X127232364Y-92123147D01*
X128293024Y-93183807D01*
X127974826Y-93502005D01*
X126914166Y-92441345D01*
X126914166Y-92441345D01*
G37*
G36*
X126560613Y-92794898D02*
X126878811Y-92476700D01*
X127939471Y-93537360D01*
X127621273Y-93855558D01*
X126560613Y-92794898D01*
X126560613Y-92794898D01*
G37*
G36*
X126878811Y-96118300D02*
X126560613Y-95800102D01*
X127621273Y-94739442D01*
X127939471Y-95057640D01*
X126878811Y-96118300D01*
X126878811Y-96118300D01*
G37*
G36*
X127232364Y-96471853D02*
X126914166Y-96153655D01*
X127974826Y-95092995D01*
X128293024Y-95411193D01*
X127232364Y-96471853D01*
X127232364Y-96471853D01*
G37*
G36*
X127585918Y-96825407D02*
X127267720Y-96507209D01*
X128328380Y-95446549D01*
X128646578Y-95764747D01*
X127585918Y-96825407D01*
X127585918Y-96825407D01*
G37*
G36*
X127939471Y-97178960D02*
X127621273Y-96860762D01*
X128681933Y-95800102D01*
X129000131Y-96118300D01*
X127939471Y-97178960D01*
X127939471Y-97178960D01*
G37*
G36*
X128293024Y-97532513D02*
X127974826Y-97214315D01*
X129035486Y-96153655D01*
X129353684Y-96471853D01*
X128293024Y-97532513D01*
X128293024Y-97532513D01*
G37*
G36*
X128646578Y-97886067D02*
X128328380Y-97567869D01*
X129389040Y-96507209D01*
X129707238Y-96825407D01*
X128646578Y-97886067D01*
X128646578Y-97886067D01*
G37*
G36*
X129000131Y-98239620D02*
X128681933Y-97921422D01*
X129742593Y-96860762D01*
X130060791Y-97178960D01*
X129000131Y-98239620D01*
X129000131Y-98239620D01*
G37*
G36*
X129353685Y-98593174D02*
X129035487Y-98274976D01*
X130096147Y-97214316D01*
X130414345Y-97532514D01*
X129353685Y-98593174D01*
X129353685Y-98593174D01*
G37*
G36*
X129707238Y-98946727D02*
X129389040Y-98628529D01*
X130449700Y-97567869D01*
X130767898Y-97886067D01*
X129707238Y-98946727D01*
X129707238Y-98946727D01*
G37*
G36*
X130060791Y-99300280D02*
X129742593Y-98982082D01*
X130803253Y-97921422D01*
X131121451Y-98239620D01*
X130060791Y-99300280D01*
X130060791Y-99300280D01*
G37*
G36*
X130414345Y-99653834D02*
X130096147Y-99335636D01*
X131156807Y-98274976D01*
X131475005Y-98593174D01*
X130414345Y-99653834D01*
X130414345Y-99653834D01*
G37*
G36*
X130767898Y-100007387D02*
X130449700Y-99689189D01*
X131510360Y-98628529D01*
X131828558Y-98946727D01*
X130767898Y-100007387D01*
X130767898Y-100007387D01*
G37*
G36*
X132712442Y-98946727D02*
X133030640Y-98628529D01*
X134091300Y-99689189D01*
X133773102Y-100007387D01*
X132712442Y-98946727D01*
X132712442Y-98946727D01*
G37*
G36*
X133065995Y-98593174D02*
X133384193Y-98274976D01*
X134444853Y-99335636D01*
X134126655Y-99653834D01*
X133065995Y-98593174D01*
X133065995Y-98593174D01*
G37*
G36*
X133419549Y-98239620D02*
X133737747Y-97921422D01*
X134798407Y-98982082D01*
X134480209Y-99300280D01*
X133419549Y-98239620D01*
X133419549Y-98239620D01*
G37*
G36*
X133773102Y-97886067D02*
X134091300Y-97567869D01*
X135151960Y-98628529D01*
X134833762Y-98946727D01*
X133773102Y-97886067D01*
X133773102Y-97886067D01*
G37*
G36*
X134126655Y-97532514D02*
X134444853Y-97214316D01*
X135505513Y-98274976D01*
X135187315Y-98593174D01*
X134126655Y-97532514D01*
X134126655Y-97532514D01*
G37*
G36*
X134480209Y-97178960D02*
X134798407Y-96860762D01*
X135859067Y-97921422D01*
X135540869Y-98239620D01*
X134480209Y-97178960D01*
X134480209Y-97178960D01*
G37*
G36*
X134833762Y-96825407D02*
X135151960Y-96507209D01*
X136212620Y-97567869D01*
X135894422Y-97886067D01*
X134833762Y-96825407D01*
X134833762Y-96825407D01*
G37*
G36*
X135187316Y-96471853D02*
X135505514Y-96153655D01*
X136566174Y-97214315D01*
X136247976Y-97532513D01*
X135187316Y-96471853D01*
X135187316Y-96471853D01*
G37*
G36*
X135540869Y-96118300D02*
X135859067Y-95800102D01*
X136919727Y-96860762D01*
X136601529Y-97178960D01*
X135540869Y-96118300D01*
X135540869Y-96118300D01*
G37*
G36*
X135894422Y-95764747D02*
X136212620Y-95446549D01*
X137273280Y-96507209D01*
X136955082Y-96825407D01*
X135894422Y-95764747D01*
X135894422Y-95764747D01*
G37*
G36*
X136247976Y-95411193D02*
X136566174Y-95092995D01*
X137626834Y-96153655D01*
X137308636Y-96471853D01*
X136247976Y-95411193D01*
X136247976Y-95411193D01*
G37*
G36*
X136601529Y-95057640D02*
X136919727Y-94739442D01*
X137980387Y-95800102D01*
X137662189Y-96118300D01*
X136601529Y-95057640D01*
X136601529Y-95057640D01*
G37*
G36*
X136919727Y-93855558D02*
X136601529Y-93537360D01*
X137662189Y-92476700D01*
X137980387Y-92794898D01*
X136919727Y-93855558D01*
X136919727Y-93855558D01*
G37*
G36*
X136566174Y-93502005D02*
X136247976Y-93183807D01*
X137308636Y-92123147D01*
X137626834Y-92441345D01*
X136566174Y-93502005D01*
X136566174Y-93502005D01*
G37*
G36*
X136212620Y-93148451D02*
X135894422Y-92830253D01*
X136955082Y-91769593D01*
X137273280Y-92087791D01*
X136212620Y-93148451D01*
X136212620Y-93148451D01*
G37*
G36*
X135859067Y-92794898D02*
X135540869Y-92476700D01*
X136601529Y-91416040D01*
X136919727Y-91734238D01*
X135859067Y-92794898D01*
X135859067Y-92794898D01*
G37*
G36*
X135505514Y-92441345D02*
X135187316Y-92123147D01*
X136247976Y-91062487D01*
X136566174Y-91380685D01*
X135505514Y-92441345D01*
X135505514Y-92441345D01*
G37*
G36*
X135151960Y-92087791D02*
X134833762Y-91769593D01*
X135894422Y-90708933D01*
X136212620Y-91027131D01*
X135151960Y-92087791D01*
X135151960Y-92087791D01*
G37*
G36*
X134798407Y-91734238D02*
X134480209Y-91416040D01*
X135540869Y-90355380D01*
X135859067Y-90673578D01*
X134798407Y-91734238D01*
X134798407Y-91734238D01*
G37*
G36*
X134444853Y-91380684D02*
X134126655Y-91062486D01*
X135187315Y-90001826D01*
X135505513Y-90320024D01*
X134444853Y-91380684D01*
X134444853Y-91380684D01*
G37*
G36*
X134091300Y-91027131D02*
X133773102Y-90708933D01*
X134833762Y-89648273D01*
X135151960Y-89966471D01*
X134091300Y-91027131D01*
X134091300Y-91027131D01*
G37*
G36*
X133737747Y-90673578D02*
X133419549Y-90355380D01*
X134480209Y-89294720D01*
X134798407Y-89612918D01*
X133737747Y-90673578D01*
X133737747Y-90673578D01*
G37*
G36*
X133384193Y-90320024D02*
X133065995Y-90001826D01*
X134126655Y-88941166D01*
X134444853Y-89259364D01*
X133384193Y-90320024D01*
X133384193Y-90320024D01*
G37*
G36*
X133030640Y-89966471D02*
X132712442Y-89648273D01*
X133773102Y-88587613D01*
X134091300Y-88905811D01*
X133030640Y-89966471D01*
X133030640Y-89966471D01*
G37*
D24*
X139381100Y-78826300D03*
D25*
X140881100Y-78326300D03*
D24*
X142381100Y-78826300D03*
D26*
X140881100Y-75976300D03*
D10*
G36*
X129427652Y-85827577D02*
X130912577Y-84342652D01*
X131831816Y-85261891D01*
X130346891Y-86746816D01*
X129427652Y-85827577D01*
X129427652Y-85827577D01*
G37*
G36*
X131195418Y-87595343D02*
X132680343Y-86110418D01*
X133599582Y-87029657D01*
X132114657Y-88514582D01*
X131195418Y-87595343D01*
X131195418Y-87595343D01*
G37*
D27*
X136628459Y-104843393D03*
X136628459Y-106743393D03*
X138928459Y-105793393D03*
D28*
X126009400Y-87919600D03*
X126009400Y-86019600D03*
X127787400Y-87919600D03*
X127787400Y-86019600D03*
D10*
G36*
X133672850Y-81809399D02*
X134344601Y-82481150D01*
X133354652Y-83471099D01*
X132682901Y-82799348D01*
X133672850Y-81809399D01*
X133672850Y-81809399D01*
G37*
G36*
X132329348Y-83152901D02*
X133001099Y-83824652D01*
X132011150Y-84814601D01*
X131339399Y-84142850D01*
X132329348Y-83152901D01*
X132329348Y-83152901D01*
G37*
G36*
X135450850Y-83587399D02*
X136122601Y-84259150D01*
X135132652Y-85249099D01*
X134460901Y-84577348D01*
X135450850Y-83587399D01*
X135450850Y-83587399D01*
G37*
G36*
X134107348Y-84930901D02*
X134779099Y-85602652D01*
X133789150Y-86592601D01*
X133117399Y-85920850D01*
X134107348Y-84930901D01*
X134107348Y-84930901D01*
G37*
D28*
X136525000Y-88265000D03*
X136525000Y-86365000D03*
X137998200Y-88265000D03*
X137998200Y-86365000D03*
X124256800Y-87513200D03*
X124256800Y-85613200D03*
D12*
X126222800Y-97586800D03*
X124322800Y-97586800D03*
X140934400Y-95580200D03*
X142834400Y-95580200D03*
D28*
X134848600Y-72832000D03*
X134848600Y-70932000D03*
D12*
X142641400Y-69646800D03*
X140741400Y-69646800D03*
X140743900Y-72910700D03*
X142643900Y-72910700D03*
X140832800Y-67665600D03*
X142732800Y-67665600D03*
X140743900Y-71234300D03*
X142643900Y-71234300D03*
X142491500Y-81343500D03*
X140591500Y-81343500D03*
X155699500Y-71628000D03*
X153799500Y-71628000D03*
X151297500Y-71628000D03*
X149397500Y-71628000D03*
X152120600Y-59461400D03*
X150220600Y-59461400D03*
X154142400Y-59461400D03*
X156042400Y-59461400D03*
D28*
X148158200Y-61564600D03*
X148158200Y-59664600D03*
X158940500Y-65128000D03*
X158940500Y-63228000D03*
D12*
X155699500Y-87628000D03*
X153799500Y-87628000D03*
X151297500Y-87628000D03*
X149397500Y-87628000D03*
X152095200Y-75209400D03*
X150195200Y-75209400D03*
X154167800Y-75209400D03*
X156067800Y-75209400D03*
D28*
X147904200Y-77312600D03*
X147904200Y-75412600D03*
X158940500Y-81128000D03*
X158940500Y-79228000D03*
D12*
X155699500Y-103628000D03*
X153799500Y-103628000D03*
X151297500Y-103628000D03*
X149397500Y-103628000D03*
X152156200Y-91313000D03*
X150256200Y-91313000D03*
X154142400Y-91313000D03*
X156042400Y-91313000D03*
D28*
X147904200Y-93416200D03*
X147904200Y-91516200D03*
X158940500Y-97128000D03*
X158940500Y-95228000D03*
D12*
X155699500Y-119628000D03*
X153799500Y-119628000D03*
X151297500Y-119628000D03*
X149397500Y-119628000D03*
X152146000Y-107315000D03*
X150246000Y-107315000D03*
X154152600Y-107315000D03*
X156052600Y-107315000D03*
D28*
X148005800Y-109418200D03*
X148005800Y-107518200D03*
X158940500Y-113128000D03*
X158940500Y-111228000D03*
D12*
X155699500Y-135628000D03*
X153799500Y-135628000D03*
X151297500Y-135628000D03*
X149397500Y-135628000D03*
X154152600Y-123393200D03*
X156052600Y-123393200D03*
D28*
X148031200Y-125496400D03*
X148031200Y-123596400D03*
X158940500Y-129128000D03*
X158940500Y-127228000D03*
D16*
X128301200Y-62992000D03*
X130501200Y-62992000D03*
X128287600Y-64871600D03*
X130487600Y-64871600D03*
X116970194Y-74685050D03*
X119170194Y-74685050D03*
X116977375Y-69545200D03*
X119177375Y-69545200D03*
X116959200Y-64490600D03*
X119159200Y-64490600D03*
X142973648Y-93980000D03*
X140773648Y-93980000D03*
X142973648Y-92297298D03*
X140773648Y-92297298D03*
X140733600Y-66090800D03*
X142933600Y-66090800D03*
X142984400Y-106553000D03*
X140784400Y-106553000D03*
D29*
X182027600Y-69850000D03*
X182027600Y-67550000D03*
X182027600Y-65250000D03*
X182027600Y-62950000D03*
X182027600Y-60650000D03*
X170027600Y-60650000D03*
X170027600Y-62950000D03*
X170027600Y-65250000D03*
X170027600Y-67550000D03*
X170027600Y-69850000D03*
D30*
X167100720Y-62703988D03*
X167100720Y-65243988D03*
X167100720Y-67783988D03*
X184880720Y-62703988D03*
X184880720Y-65243988D03*
X184880720Y-67783988D03*
D29*
X182027600Y-85866000D03*
X182027600Y-83566000D03*
X182027600Y-81266000D03*
X182027600Y-78966000D03*
X182027600Y-76666000D03*
X170027600Y-76666000D03*
X170027600Y-78966000D03*
X170027600Y-81266000D03*
X170027600Y-83566000D03*
X170027600Y-85866000D03*
D30*
X167100720Y-78719988D03*
X167100720Y-81259988D03*
X167100720Y-83799988D03*
X184880720Y-78719988D03*
X184880720Y-81259988D03*
X184880720Y-83799988D03*
D29*
X182027600Y-101896000D03*
X182027600Y-99596000D03*
X182027600Y-97296000D03*
X182027600Y-94996000D03*
X182027600Y-92696000D03*
X170027600Y-92696000D03*
X170027600Y-94996000D03*
X170027600Y-97296000D03*
X170027600Y-99596000D03*
X170027600Y-101896000D03*
D30*
X167100720Y-94749988D03*
X167100720Y-97289988D03*
X167100720Y-99829988D03*
X184880720Y-94749988D03*
X184880720Y-97289988D03*
X184880720Y-99829988D03*
D29*
X182022000Y-117882500D03*
X182022000Y-115582500D03*
X182022000Y-113282500D03*
X182022000Y-110982500D03*
X182022000Y-108682500D03*
X170022000Y-108682500D03*
X170022000Y-110982500D03*
X170022000Y-113282500D03*
X170022000Y-115582500D03*
X170022000Y-117882500D03*
D30*
X167095120Y-110736488D03*
X167095120Y-113276488D03*
X167095120Y-115816488D03*
X184875120Y-110736488D03*
X184875120Y-113276488D03*
X184875120Y-115816488D03*
D29*
X182022000Y-133900000D03*
X182022000Y-131600000D03*
X182022000Y-129300000D03*
X182022000Y-127000000D03*
X182022000Y-124700000D03*
X170022000Y-124700000D03*
X170022000Y-127000000D03*
X170022000Y-129300000D03*
X170022000Y-131600000D03*
X170022000Y-133900000D03*
D30*
X167095120Y-126753988D03*
X167095120Y-129293988D03*
X167095120Y-131833988D03*
X184875120Y-126753988D03*
X184875120Y-129293988D03*
X184875120Y-131833988D03*
D31*
X149906200Y-68986400D03*
X150556200Y-68986400D03*
X151206200Y-68986400D03*
X151856200Y-68986400D03*
X152506200Y-68986400D03*
X153156200Y-68986400D03*
X153806200Y-68986400D03*
X154456200Y-68986400D03*
X155106200Y-68986400D03*
X155756200Y-68986400D03*
X155756200Y-61786400D03*
X155106200Y-61786400D03*
X154456200Y-61786400D03*
X153806200Y-61786400D03*
X153156200Y-61786400D03*
X152506200Y-61786400D03*
X151856200Y-61786400D03*
X151206200Y-61786400D03*
X150556200Y-61786400D03*
X149906200Y-61786400D03*
X149912000Y-85013800D03*
X150562000Y-85013800D03*
X151212000Y-85013800D03*
X151862000Y-85013800D03*
X152512000Y-85013800D03*
X153162000Y-85013800D03*
X153812000Y-85013800D03*
X154462000Y-85013800D03*
X155112000Y-85013800D03*
X155762000Y-85013800D03*
X155762000Y-77813800D03*
X155112000Y-77813800D03*
X154462000Y-77813800D03*
X153812000Y-77813800D03*
X153162000Y-77813800D03*
X152512000Y-77813800D03*
X151862000Y-77813800D03*
X151212000Y-77813800D03*
X150562000Y-77813800D03*
X149912000Y-77813800D03*
X149906200Y-100965000D03*
X150556200Y-100965000D03*
X151206200Y-100965000D03*
X151856200Y-100965000D03*
X152506200Y-100965000D03*
X153156200Y-100965000D03*
X153806200Y-100965000D03*
X154456200Y-100965000D03*
X155106200Y-100965000D03*
X155756200Y-100965000D03*
X155756200Y-93765000D03*
X155106200Y-93765000D03*
X154456200Y-93765000D03*
X153806200Y-93765000D03*
X153156200Y-93765000D03*
X152506200Y-93765000D03*
X151856200Y-93765000D03*
X151206200Y-93765000D03*
X150556200Y-93765000D03*
X149906200Y-93765000D03*
X149901600Y-116967000D03*
X150551600Y-116967000D03*
X151201600Y-116967000D03*
X151851600Y-116967000D03*
X152501600Y-116967000D03*
X153151600Y-116967000D03*
X153801600Y-116967000D03*
X154451600Y-116967000D03*
X155101600Y-116967000D03*
X155751600Y-116967000D03*
X155751600Y-109767000D03*
X155101600Y-109767000D03*
X154451600Y-109767000D03*
X153801600Y-109767000D03*
X153151600Y-109767000D03*
X152501600Y-109767000D03*
X151851600Y-109767000D03*
X151201600Y-109767000D03*
X150551600Y-109767000D03*
X149901600Y-109767000D03*
X149901600Y-133107800D03*
X150551600Y-133107800D03*
X151201600Y-133107800D03*
X151851600Y-133107800D03*
X152501600Y-133107800D03*
X153151600Y-133107800D03*
X153801600Y-133107800D03*
X154451600Y-133107800D03*
X155101600Y-133107800D03*
X155751600Y-133107800D03*
X155751600Y-125907800D03*
X155101600Y-125907800D03*
X154451600Y-125907800D03*
X153801600Y-125907800D03*
X153151600Y-125907800D03*
X152501600Y-125907800D03*
X151851600Y-125907800D03*
X151201600Y-125907800D03*
X150551600Y-125907800D03*
X149901600Y-125907800D03*
D32*
X190484000Y-126746000D03*
X190484000Y-129286000D03*
D33*
X196834000Y-124206000D03*
X196834000Y-134366000D03*
D32*
X190484000Y-110744000D03*
X190484000Y-113284000D03*
D33*
X196834000Y-108204000D03*
X196834000Y-118364000D03*
D32*
X190484000Y-78740000D03*
X190484000Y-81280000D03*
D33*
X196834000Y-76200000D03*
X196834000Y-86360000D03*
D32*
X190484000Y-94738000D03*
X190484000Y-97278000D03*
D33*
X196834000Y-92198000D03*
X196834000Y-102358000D03*
D32*
X190420500Y-62738000D03*
X190420500Y-65278000D03*
D33*
X196770500Y-60198000D03*
X196770500Y-70358000D03*
D28*
X133032500Y-105153500D03*
X133032500Y-103253500D03*
D34*
X125443000Y-107061000D03*
X125443000Y-105791000D03*
X125443000Y-104521000D03*
X125443000Y-103251000D03*
X130843000Y-103251000D03*
X130843000Y-104521000D03*
X130843000Y-105791000D03*
X130843000Y-107061000D03*
D35*
X118084600Y-91871800D03*
D15*
X118084600Y-94411800D03*
X118084600Y-96951800D03*
X118084600Y-99491800D03*
X118084600Y-102031800D03*
X118084600Y-104571800D03*
X118084600Y-107111800D03*
X118084600Y-109651800D03*
X118084600Y-112191800D03*
D36*
X135689000Y-74483200D03*
X135689000Y-75783200D03*
D37*
X136739000Y-75133200D03*
D38*
X137414000Y-75133200D03*
D39*
X118920194Y-72957850D03*
X117220194Y-72957850D03*
X118927375Y-67767200D03*
X117227375Y-67767200D03*
X118909200Y-62712600D03*
X117209200Y-62712600D03*
X141034400Y-104902000D03*
X142734400Y-104902000D03*
D33*
X117475000Y-135890000D03*
X117475000Y-59182000D03*
X187325000Y-135890000D03*
X187325000Y-59182000D03*
D40*
X132181600Y-135382000D03*
X126949200Y-77216000D03*
X200863200Y-65328800D03*
D41*
X122244400Y-122794400D03*
X122244400Y-121544400D03*
X122244400Y-120294400D03*
X122244400Y-119044400D03*
X122244400Y-117794400D03*
D42*
X118894400Y-124644400D03*
X118894400Y-115944400D03*
D35*
X137414000Y-135178800D03*
D15*
X139954000Y-135178800D03*
X142494000Y-135178800D03*
D12*
X139888000Y-84328000D03*
X137988000Y-84328000D03*
X143850400Y-89865200D03*
X141950400Y-89865200D03*
D28*
X146710400Y-88046600D03*
X146710400Y-86146600D03*
D16*
X143975000Y-84328000D03*
X141775000Y-84328000D03*
D43*
X143840200Y-88036400D03*
X143840200Y-87086400D03*
X143840200Y-86136400D03*
X141140200Y-86136400D03*
X141140200Y-88036400D03*
D44*
X122417200Y-135046000D03*
X123667200Y-135046000D03*
X124917200Y-135046000D03*
X126167200Y-135046000D03*
X127417200Y-135046000D03*
D45*
X120567200Y-131696000D03*
X129267200Y-131696000D03*
M02*
