G04 #@! TF.FileFunction,Soldermask,Bot*
%FSLAX46Y46*%
G04 Gerber Fmt 4.6, Leading zero omitted, Abs format (unit mm)*
G04 Created by KiCad (PCBNEW 4.0.7-e2-6376~58~ubuntu16.04.1) date Mon Jun 18 12:44:58 2018*
%MOMM*%
%LPD*%
G01*
G04 APERTURE LIST*
%ADD10C,0.100000*%
%ADD11C,1.600000*%
%ADD12O,2.100000X2.100000*%
%ADD13O,2.127200X2.432000*%
%ADD14C,2.127200*%
%ADD15C,2.600000*%
%ADD16R,2.100000X2.100000*%
G04 APERTURE END LIST*
D10*
D11*
X142315500Y-62421500D03*
X137465500Y-62421500D03*
D12*
X143515500Y-59771500D03*
X136265500Y-59771500D03*
D13*
X167100720Y-62703988D03*
X167100720Y-65243988D03*
X167100720Y-67783988D03*
X184880720Y-62703988D03*
X184880720Y-65243988D03*
X184880720Y-67783988D03*
X167100720Y-78719988D03*
X167100720Y-81259988D03*
X167100720Y-83799988D03*
X184880720Y-78719988D03*
X184880720Y-81259988D03*
X184880720Y-83799988D03*
X167100720Y-94749988D03*
X167100720Y-97289988D03*
X167100720Y-99829988D03*
X184880720Y-94749988D03*
X184880720Y-97289988D03*
X184880720Y-99829988D03*
X167095120Y-110736488D03*
X167095120Y-113276488D03*
X167095120Y-115816488D03*
X184875120Y-110736488D03*
X184875120Y-113276488D03*
X184875120Y-115816488D03*
X167095120Y-126753988D03*
X167095120Y-129293988D03*
X167095120Y-131833988D03*
X184875120Y-126753988D03*
X184875120Y-129293988D03*
X184875120Y-131833988D03*
D14*
X190484000Y-126746000D03*
X190484000Y-129286000D03*
D15*
X196834000Y-124206000D03*
X196834000Y-134366000D03*
D14*
X190484000Y-110744000D03*
X190484000Y-113284000D03*
D15*
X196834000Y-108204000D03*
X196834000Y-118364000D03*
D14*
X190484000Y-78740000D03*
X190484000Y-81280000D03*
D15*
X196834000Y-76200000D03*
X196834000Y-86360000D03*
D14*
X190484000Y-94738000D03*
X190484000Y-97278000D03*
D15*
X196834000Y-92198000D03*
X196834000Y-102358000D03*
D14*
X190420500Y-62738000D03*
X190420500Y-65278000D03*
D15*
X196770500Y-60198000D03*
X196770500Y-70358000D03*
D16*
X118084600Y-91871800D03*
D12*
X118084600Y-94411800D03*
X118084600Y-96951800D03*
X118084600Y-99491800D03*
X118084600Y-102031800D03*
X118084600Y-104571800D03*
X118084600Y-107111800D03*
X118084600Y-109651800D03*
X118084600Y-112191800D03*
D15*
X117475000Y-135890000D03*
X117475000Y-59182000D03*
X187325000Y-135890000D03*
X187325000Y-59182000D03*
M02*
