G04 #@! TF.FileFunction,Copper,L2,Bot,Signal*
%FSLAX46Y46*%
G04 Gerber Fmt 4.6, Leading zero omitted, Abs format (unit mm)*
G04 Created by KiCad (PCBNEW 4.0.7-e2-6376~58~ubuntu16.04.1) date Tue Nov 28 16:54:19 2017*
%MOMM*%
%LPD*%
G01*
G04 APERTURE LIST*
%ADD10C,0.100000*%
%ADD11C,1.200000*%
%ADD12O,1.700000X1.700000*%
%ADD13O,1.727200X2.032000*%
%ADD14C,1.727200*%
%ADD15C,2.200000*%
%ADD16R,1.700000X1.700000*%
%ADD17C,0.500000*%
%ADD18C,0.203000*%
%ADD19C,0.254000*%
%ADD20C,0.587000*%
%ADD21C,0.381000*%
G04 APERTURE END LIST*
D10*
D11*
X142315500Y-62421500D03*
X137465500Y-62421500D03*
D12*
X143515500Y-59771500D03*
X136265500Y-59771500D03*
D13*
X167100720Y-62703988D03*
X167100720Y-65243988D03*
X167100720Y-67783988D03*
X184880720Y-62703988D03*
X184880720Y-65243988D03*
X184880720Y-67783988D03*
X167100720Y-78719988D03*
X167100720Y-81259988D03*
X167100720Y-83799988D03*
X184880720Y-78719988D03*
X184880720Y-81259988D03*
X184880720Y-83799988D03*
X167100720Y-94749988D03*
X167100720Y-97289988D03*
X167100720Y-99829988D03*
X184880720Y-94749988D03*
X184880720Y-97289988D03*
X184880720Y-99829988D03*
X167095120Y-110736488D03*
X167095120Y-113276488D03*
X167095120Y-115816488D03*
X184875120Y-110736488D03*
X184875120Y-113276488D03*
X184875120Y-115816488D03*
X167095120Y-126753988D03*
X167095120Y-129293988D03*
X167095120Y-131833988D03*
X184875120Y-126753988D03*
X184875120Y-129293988D03*
X184875120Y-131833988D03*
D14*
X190484000Y-126746000D03*
X190484000Y-129286000D03*
D15*
X196834000Y-124206000D03*
X196834000Y-134366000D03*
D14*
X190484000Y-110744000D03*
X190484000Y-113284000D03*
D15*
X196834000Y-108204000D03*
X196834000Y-118364000D03*
D14*
X190484000Y-78740000D03*
X190484000Y-81280000D03*
D15*
X196834000Y-76200000D03*
X196834000Y-86360000D03*
D14*
X190484000Y-94738000D03*
X190484000Y-97278000D03*
D15*
X196834000Y-92198000D03*
X196834000Y-102358000D03*
D14*
X190420500Y-62738000D03*
X190420500Y-65278000D03*
D15*
X196770500Y-60198000D03*
X196770500Y-70358000D03*
D16*
X118084600Y-91871800D03*
D12*
X118084600Y-94411800D03*
X118084600Y-96951800D03*
X118084600Y-99491800D03*
X118084600Y-102031800D03*
X118084600Y-104571800D03*
X118084600Y-107111800D03*
D17*
X132003800Y-102108000D03*
X143916400Y-70358000D03*
X143916400Y-72034400D03*
X134747000Y-82118200D03*
X135839200Y-83159600D03*
X119100600Y-67640200D03*
X119100600Y-63601600D03*
X119100600Y-59588400D03*
X126809500Y-98679000D03*
X139382500Y-100965000D03*
X133540500Y-101473000D03*
X125730000Y-96316800D03*
X136550400Y-89331800D03*
X120497600Y-94564200D03*
X144780000Y-99034600D03*
X137871200Y-98336801D03*
X150705706Y-82007657D03*
X150718888Y-65882888D03*
X150701475Y-98013888D03*
X150701959Y-114015404D03*
X150558500Y-130052090D03*
X144272000Y-99568000D03*
X136702800Y-98577400D03*
X148717000Y-99136200D03*
X151384000Y-130048000D03*
X151384000Y-114046000D03*
X151384000Y-98044000D03*
X151384000Y-82042000D03*
X151401413Y-65913000D03*
X165100000Y-69723000D03*
X164973000Y-85725000D03*
X164973000Y-101727000D03*
X165100000Y-117729000D03*
X165100000Y-133731000D03*
X150799800Y-63195200D03*
X151587200Y-63241900D03*
X150850600Y-79197200D03*
X151663400Y-79241900D03*
X150749000Y-95097600D03*
X151638000Y-95241900D03*
X150774400Y-111125000D03*
X151536400Y-111125000D03*
X150774400Y-127279400D03*
X151511000Y-127254000D03*
X135331200Y-95402400D03*
X129409010Y-78181200D03*
X134543800Y-96062800D03*
X131013200Y-77419200D03*
X121488200Y-72466200D03*
X132867400Y-90678000D03*
X122301000Y-72440800D03*
X135153400Y-88417400D03*
X133335982Y-66584782D03*
X142951200Y-91160600D03*
X127482600Y-90500200D03*
X117195600Y-70332600D03*
X126746000Y-90525600D03*
X117170200Y-66294000D03*
X131216400Y-88417400D03*
X117170200Y-62103000D03*
X128473200Y-65989200D03*
X135305800Y-93014800D03*
X130365500Y-102108000D03*
X129054407Y-105451093D03*
X150876000Y-86487000D03*
X156464000Y-86487000D03*
X150876000Y-70485000D03*
X156464000Y-70485000D03*
X156591000Y-102489000D03*
X150749000Y-102489000D03*
X156464000Y-118491000D03*
X150749000Y-118491000D03*
X150083000Y-136842500D03*
X148691600Y-83667600D03*
X138734800Y-98196400D03*
D18*
X143916400Y-70358000D02*
X143916400Y-72034400D01*
D19*
X134747000Y-82118200D02*
X134797800Y-82118200D01*
X134797800Y-82118200D02*
X135839200Y-83159600D01*
X119100600Y-67640200D02*
X119100600Y-63601600D01*
X119100600Y-63601600D02*
X119100600Y-63248047D01*
X119100600Y-63248047D02*
X119100600Y-59588400D01*
X126809500Y-98679000D02*
X129603500Y-101473000D01*
X129603500Y-101473000D02*
X133540500Y-101473000D01*
X133540500Y-101473000D02*
X134048500Y-100965000D01*
X134048500Y-100965000D02*
X139382500Y-100965000D01*
D20*
X121896647Y-96316800D02*
X125730000Y-96316800D01*
X125730000Y-96316800D02*
X133033734Y-96316800D01*
X133033734Y-96316800D02*
X136208734Y-93141800D01*
X120497600Y-94564200D02*
X120497600Y-94917753D01*
X120497600Y-94917753D02*
X121896647Y-96316800D01*
X136208734Y-93141800D02*
X136208734Y-89673466D01*
X136208734Y-89673466D02*
X136550400Y-89331800D01*
D18*
X137871200Y-98336801D02*
X137871200Y-98690354D01*
X137871200Y-98690354D02*
X138215446Y-99034600D01*
X144780000Y-99034600D02*
X138215446Y-99034600D01*
X149250590Y-99034600D02*
X149250590Y-97612200D01*
X149250590Y-97612200D02*
X149250590Y-83522997D01*
X144780000Y-99034600D02*
X148072826Y-99034600D01*
X148072826Y-99034600D02*
X149250590Y-97856836D01*
X149250590Y-97856836D02*
X149250590Y-97612200D01*
D19*
X137871200Y-98336801D02*
X136424109Y-96889710D01*
X136424109Y-96889710D02*
X120686690Y-96889710D01*
X120686690Y-96889710D02*
X118084600Y-99491800D01*
D18*
X149250590Y-99464773D02*
X149250590Y-99034600D01*
X149250590Y-98924016D02*
X149250590Y-99034600D01*
X149250590Y-115466773D02*
X149250590Y-101066600D01*
X149250590Y-101066600D02*
X149250590Y-99464773D01*
X148894800Y-100304600D02*
X149250590Y-100660390D01*
X149250590Y-100660390D02*
X149250590Y-101066600D01*
X150749000Y-82024587D02*
X150732070Y-82007657D01*
X149250590Y-83462773D02*
X150455707Y-82257656D01*
X149250590Y-83522997D02*
X149250590Y-83462773D01*
X150732070Y-82007657D02*
X150705706Y-82007657D01*
X150455707Y-82257656D02*
X150705706Y-82007657D01*
X149250590Y-83522997D02*
X149250590Y-67351186D01*
X150468889Y-66132887D02*
X150718888Y-65882888D01*
X149250590Y-67351186D02*
X150468889Y-66132887D01*
X150731587Y-97983776D02*
X150701475Y-98013888D01*
X150451476Y-98263887D02*
X150701475Y-98013888D01*
X149250590Y-99464773D02*
X150451476Y-98263887D01*
X150451960Y-114265403D02*
X150701959Y-114015404D01*
X149250590Y-128744180D02*
X149250590Y-115466773D01*
X149250590Y-115466773D02*
X150451960Y-114265403D01*
X150558500Y-130052090D02*
X149250590Y-128744180D01*
X150731587Y-113985776D02*
X150701959Y-114015404D01*
X144272000Y-99568000D02*
X148285200Y-99568000D01*
X148285200Y-99568000D02*
X148717000Y-99136200D01*
X136702800Y-98577400D02*
X137219558Y-98577400D01*
X143918447Y-99568000D02*
X144272000Y-99568000D01*
X137219558Y-98577400D02*
X138210158Y-99568000D01*
X138210158Y-99568000D02*
X143918447Y-99568000D01*
D19*
X118084600Y-102031800D02*
X119557800Y-100558600D01*
X119557800Y-98593350D02*
X119557800Y-100558600D01*
X120855030Y-97296120D02*
X119557800Y-98593350D01*
X136702800Y-98577400D02*
X135421520Y-97296120D01*
X135421520Y-97296120D02*
X120855030Y-97296120D01*
D18*
X149606000Y-83820000D02*
X151384000Y-82042000D01*
X149606000Y-95912447D02*
X149606000Y-83820000D01*
X151384000Y-98044000D02*
X151384000Y-97690447D01*
X151384000Y-97690447D02*
X149606000Y-95912447D01*
X149606000Y-79910447D02*
X149606000Y-67708413D01*
X149606000Y-67708413D02*
X151401413Y-65913000D01*
X151384000Y-82042000D02*
X151384000Y-81688447D01*
X151384000Y-81688447D02*
X149606000Y-79910447D01*
X149606000Y-111914447D02*
X149606000Y-99822000D01*
X149606000Y-99822000D02*
X151384000Y-98044000D01*
X151384000Y-114046000D02*
X151384000Y-113692447D01*
X151384000Y-113692447D02*
X149606000Y-111914447D01*
X151384000Y-114046000D02*
X149606000Y-115824000D01*
X149606000Y-115824000D02*
X149606000Y-128270000D01*
X149606000Y-128270000D02*
X151384000Y-130048000D01*
X151384000Y-65930413D02*
X151401413Y-65913000D01*
X165100000Y-69723000D02*
X167039012Y-67783988D01*
X167039012Y-67783988D02*
X167100720Y-67783988D01*
X164973000Y-85725000D02*
X166898012Y-83799988D01*
X166898012Y-83799988D02*
X167100720Y-83799988D01*
X164973000Y-101727000D02*
X166870012Y-99829988D01*
X166870012Y-99829988D02*
X167100720Y-99829988D01*
X165100000Y-117729000D02*
X167012512Y-115816488D01*
X167012512Y-115816488D02*
X167095120Y-115816488D01*
X165100000Y-133731000D02*
X166997012Y-131833988D01*
X166997012Y-131833988D02*
X167095120Y-131833988D01*
X152247600Y-62738000D02*
X153416000Y-62738000D01*
X151155400Y-62484000D02*
X151993600Y-62484000D01*
X151993600Y-62484000D02*
X152247600Y-62738000D01*
X150903447Y-62735953D02*
X151155400Y-62484000D01*
X150903447Y-62738000D02*
X150903447Y-62735953D01*
X150799800Y-63195200D02*
X150799800Y-62841647D01*
X150799800Y-62841647D02*
X150903447Y-62738000D01*
X153416000Y-62738000D02*
X167195500Y-62738000D01*
X151587200Y-63241900D02*
X165251032Y-63241900D01*
X165251032Y-63241900D02*
X167100720Y-65091588D01*
X167100720Y-65091588D02*
X167100720Y-65243988D01*
X150850600Y-79197200D02*
X151561800Y-78486000D01*
X151561800Y-78486000D02*
X152376600Y-78486000D01*
X152376600Y-78486000D02*
X152628600Y-78738000D01*
X152628600Y-78738000D02*
X153418000Y-78738000D01*
X153416000Y-78740000D02*
X153418000Y-78738000D01*
X167195500Y-78738000D02*
X153418000Y-78738000D01*
X151663400Y-79241900D02*
X165235032Y-79241900D01*
X165235032Y-79241900D02*
X167100720Y-81107588D01*
X167100720Y-81107588D02*
X167100720Y-81259988D01*
X167195500Y-94738000D02*
X152247600Y-94738000D01*
X152247600Y-94738000D02*
X152048400Y-94538800D01*
X152048400Y-94538800D02*
X151307800Y-94538800D01*
X151307800Y-94538800D02*
X150749000Y-95097600D01*
X151638000Y-95241900D02*
X165205032Y-95241900D01*
X165205032Y-95241900D02*
X167100720Y-97137588D01*
X167100720Y-97137588D02*
X167100720Y-97289988D01*
X150774400Y-111125000D02*
X151278301Y-110621099D01*
X151278301Y-110621099D02*
X152860599Y-110621099D01*
X152860599Y-110621099D02*
X152977500Y-110738000D01*
X152977500Y-110738000D02*
X153168000Y-110738000D01*
X153168000Y-110738000D02*
X167195500Y-110738000D01*
X151536400Y-111125000D02*
X165096032Y-111125000D01*
X165096032Y-111125000D02*
X167095120Y-113124088D01*
X167095120Y-113124088D02*
X167095120Y-113276488D01*
X150774400Y-127279400D02*
X150774400Y-126925847D01*
X150962247Y-126738000D02*
X153289000Y-126738000D01*
X150774400Y-126925847D02*
X150962247Y-126738000D01*
X153289000Y-126738000D02*
X167195500Y-126738000D01*
X151511000Y-127254000D02*
X165207532Y-127254000D01*
X165207532Y-127254000D02*
X167095120Y-129141588D01*
X167095120Y-129141588D02*
X167095120Y-129293988D01*
X151511000Y-127254000D02*
X151892000Y-127254000D01*
D19*
X135331200Y-95402400D02*
X137123309Y-93610291D01*
X137123309Y-93610291D02*
X137123309Y-89050559D01*
X137123309Y-89050559D02*
X128879610Y-80806860D01*
X128879610Y-80806860D02*
X128879610Y-78710600D01*
X128879610Y-78710600D02*
X129409010Y-78181200D01*
X131013200Y-77419200D02*
X129286020Y-79146380D01*
X137529719Y-88863319D02*
X137529719Y-93987395D01*
X129286020Y-79146380D02*
X129286020Y-80619620D01*
X129286020Y-80619620D02*
X137529719Y-88863319D01*
X137529719Y-93987395D02*
X135454314Y-96062800D01*
X135454314Y-96062800D02*
X134543800Y-96062800D01*
X121488200Y-72466200D02*
X123037600Y-74015600D01*
X123037600Y-74015600D02*
X123037600Y-77063600D01*
X123037600Y-77063600D02*
X132867400Y-86893400D01*
X132867400Y-86893400D02*
X132867400Y-87249000D01*
X132867400Y-87249000D02*
X132867400Y-90678000D01*
X123469400Y-73609200D02*
X122301000Y-72440800D01*
X123469400Y-73609200D02*
X123469400Y-76733400D01*
X123469400Y-76733400D02*
X126517400Y-79781400D01*
X135153400Y-88417400D02*
X126517400Y-79781400D01*
X142951200Y-91160600D02*
X140401750Y-91160600D01*
X140401750Y-91160600D02*
X129768600Y-80527450D01*
X129768600Y-80527450D02*
X129768600Y-79447314D01*
X129768600Y-79447314D02*
X133335982Y-75879932D01*
X133335982Y-75879932D02*
X133335982Y-66584782D01*
X130280589Y-87630000D02*
X130280589Y-86448141D01*
X127482600Y-90500200D02*
X130280589Y-87702211D01*
X130280589Y-87702211D02*
X130280589Y-87630000D01*
X121767580Y-77935132D02*
X121767580Y-74904580D01*
X121767580Y-74904580D02*
X119024380Y-72161380D01*
X125501400Y-81668952D02*
X121767580Y-77935132D01*
X119024380Y-72161380D02*
X117195600Y-70332600D01*
X125501400Y-81686400D02*
X125501400Y-81668952D01*
X130280589Y-86448141D02*
X130263141Y-86448141D01*
X130263141Y-86448141D02*
X125501400Y-81686400D01*
X130686999Y-86279801D02*
X130686999Y-87782400D01*
X126746000Y-90525600D02*
X127250001Y-91029601D01*
X127250001Y-91029601D02*
X127736713Y-91029601D01*
X127736713Y-91029601D02*
X130686999Y-88079315D01*
X130686999Y-88079315D02*
X130686999Y-87782400D01*
X117170200Y-66294000D02*
X117170200Y-69523686D01*
X117170200Y-69523686D02*
X122173990Y-74527476D01*
X122173990Y-74527476D02*
X122173990Y-77766792D01*
X122173990Y-77766792D02*
X130686999Y-86279801D01*
X131216400Y-88417400D02*
X131216400Y-86172750D01*
X117690264Y-69469000D02*
X117699601Y-69459663D01*
X131216400Y-86172750D02*
X122580400Y-77536750D01*
X117699601Y-65959801D02*
X117170200Y-65430400D01*
X122580400Y-77536750D02*
X122580400Y-74345800D01*
X117699601Y-69459663D02*
X117699601Y-65959801D01*
X122580400Y-74345800D02*
X117703600Y-69469000D01*
X117703600Y-69469000D02*
X117690264Y-69469000D01*
X117170200Y-65430400D02*
X117170200Y-62103000D01*
X135682801Y-88184801D02*
X128473200Y-80975200D01*
X128473200Y-80975200D02*
X128473200Y-65989200D01*
X135305800Y-93014800D02*
X135305800Y-89048514D01*
X135305800Y-89048514D02*
X135682801Y-88671513D01*
X135682801Y-88671513D02*
X135682801Y-88184801D01*
D18*
X129054407Y-105451093D02*
X129054407Y-103419093D01*
X129054407Y-103419093D02*
X130365500Y-102108000D01*
D21*
X150050410Y-84366190D02*
X150050410Y-86487000D01*
X150050410Y-86487000D02*
X150050410Y-95728367D01*
X150876000Y-86487000D02*
X150522447Y-86487000D01*
X150522447Y-86487000D02*
X150050410Y-86487000D01*
X150050410Y-100255084D02*
X150050410Y-102489000D01*
X150050410Y-102489000D02*
X150050410Y-111721810D01*
X150395447Y-102489000D02*
X150050410Y-102489000D01*
X151976901Y-81652858D02*
X151976901Y-82439699D01*
X151976901Y-82439699D02*
X150050410Y-84366190D01*
X150050410Y-95728367D02*
X151976901Y-97654858D01*
X151976901Y-97654858D02*
X151976901Y-98328593D01*
X151976901Y-98328593D02*
X150050410Y-100255084D01*
X150050410Y-111721810D02*
X151976901Y-113648301D01*
X150876000Y-86487000D02*
X151229553Y-86487000D01*
X151229553Y-86487000D02*
X156464000Y-86487000D01*
X150749000Y-102489000D02*
X150395447Y-102489000D01*
X150050410Y-116319390D02*
X150050410Y-118491000D01*
X150050410Y-118491000D02*
X150050410Y-127836916D01*
X150749000Y-118491000D02*
X150395447Y-118491000D01*
X150395447Y-118491000D02*
X150050410Y-118491000D01*
X150876000Y-70485000D02*
X150522447Y-70485000D01*
X151976901Y-134948599D02*
X150083000Y-136842500D01*
X151976901Y-114392899D02*
X150050410Y-116319390D01*
X150522447Y-70485000D02*
X150050410Y-70957037D01*
X150050410Y-70957037D02*
X150050410Y-79726367D01*
X150050410Y-79726367D02*
X151976901Y-81652858D01*
X150050410Y-127836916D02*
X151976901Y-129763407D01*
X151976901Y-113648301D02*
X151976901Y-114392899D01*
X151976901Y-129763407D02*
X151976901Y-134948599D01*
X150876000Y-70485000D02*
X156464000Y-70485000D01*
X150749000Y-102489000D02*
X156591000Y-102489000D01*
X150749000Y-118491000D02*
X151102553Y-118491000D01*
X151102553Y-118491000D02*
X156464000Y-118491000D01*
D18*
X148895180Y-83871180D02*
X148691600Y-83667600D01*
X138734800Y-98196400D02*
X148408402Y-98196400D01*
X148408402Y-98196400D02*
X148895180Y-97709622D01*
X148895180Y-97709622D02*
X148895180Y-83871180D01*
D19*
G36*
X148336000Y-83202767D02*
X148200017Y-83338514D01*
X148111501Y-83551685D01*
X148111299Y-83782503D01*
X148199443Y-83995828D01*
X148336000Y-84132623D01*
X148336000Y-97658286D01*
X148229586Y-97764700D01*
X139123665Y-97764700D01*
X139063886Y-97704817D01*
X138850715Y-97616301D01*
X138619897Y-97616099D01*
X138406572Y-97704243D01*
X138243217Y-97867314D01*
X138237085Y-97882081D01*
X138200286Y-97845218D01*
X137987115Y-97756702D01*
X137937636Y-97756659D01*
X136747398Y-96566421D01*
X136599072Y-96467312D01*
X136424109Y-96432510D01*
X135708130Y-96432510D01*
X135777603Y-96386089D01*
X137853008Y-94310684D01*
X137952117Y-94162358D01*
X137986919Y-93987395D01*
X137986919Y-89392347D01*
X140078461Y-91483889D01*
X140226787Y-91582998D01*
X140401750Y-91617800D01*
X142587791Y-91617800D01*
X142622114Y-91652183D01*
X142835285Y-91740699D01*
X143066103Y-91740901D01*
X143279428Y-91652757D01*
X143442783Y-91489686D01*
X143531299Y-91276515D01*
X143531501Y-91045697D01*
X143443357Y-90832372D01*
X143280286Y-90669017D01*
X143067115Y-90580501D01*
X142836297Y-90580299D01*
X142622972Y-90668443D01*
X142587954Y-90703400D01*
X140591128Y-90703400D01*
X130225800Y-80338072D01*
X130225800Y-79636692D01*
X133659271Y-76203221D01*
X133758380Y-76054895D01*
X133793182Y-75879932D01*
X133793182Y-66948191D01*
X133827565Y-66913868D01*
X133916081Y-66700697D01*
X133916283Y-66469879D01*
X133828139Y-66256554D01*
X133665068Y-66093199D01*
X133451897Y-66004683D01*
X133221079Y-66004481D01*
X133007754Y-66092625D01*
X132844399Y-66255696D01*
X132755883Y-66468867D01*
X132755681Y-66699685D01*
X132843825Y-66913010D01*
X132878782Y-66948028D01*
X132878782Y-75690554D01*
X131491872Y-77077464D01*
X131342286Y-76927617D01*
X131129115Y-76839101D01*
X130898297Y-76838899D01*
X130684972Y-76927043D01*
X130521617Y-77090114D01*
X130433101Y-77303285D01*
X130433058Y-77352764D01*
X129910431Y-77875391D01*
X129901167Y-77852972D01*
X129738096Y-77689617D01*
X129524925Y-77601101D01*
X129294107Y-77600899D01*
X129080782Y-77689043D01*
X128930400Y-77839164D01*
X128930400Y-66352609D01*
X128964783Y-66318286D01*
X129053299Y-66105115D01*
X129053501Y-65874297D01*
X128965357Y-65660972D01*
X128802286Y-65497617D01*
X128589115Y-65409101D01*
X128358297Y-65408899D01*
X128144972Y-65497043D01*
X127981617Y-65660114D01*
X127893101Y-65873285D01*
X127892899Y-66104103D01*
X127981043Y-66317428D01*
X128016000Y-66352446D01*
X128016000Y-80633422D01*
X123926600Y-76544022D01*
X123926600Y-73609200D01*
X123891798Y-73434237D01*
X123792689Y-73285911D01*
X122881258Y-72374480D01*
X122881301Y-72325897D01*
X122793157Y-72112572D01*
X122630086Y-71949217D01*
X122416915Y-71860701D01*
X122186097Y-71860499D01*
X121972772Y-71948643D01*
X121881907Y-72039350D01*
X121817286Y-71974617D01*
X121604115Y-71886101D01*
X121373297Y-71885899D01*
X121159972Y-71974043D01*
X121007464Y-72126286D01*
X118156801Y-69275623D01*
X118156801Y-65959801D01*
X118121999Y-65784838D01*
X118022890Y-65636512D01*
X117627400Y-65241022D01*
X117627400Y-62605717D01*
X136535139Y-62605717D01*
X136676455Y-62947728D01*
X136937896Y-63209626D01*
X137279660Y-63351538D01*
X137649717Y-63351861D01*
X137991728Y-63210545D01*
X138253626Y-62949104D01*
X138395538Y-62607340D01*
X138395539Y-62605717D01*
X141385139Y-62605717D01*
X141526455Y-62947728D01*
X141787896Y-63209626D01*
X142129660Y-63351538D01*
X142499717Y-63351861D01*
X142841728Y-63210545D01*
X143103626Y-62949104D01*
X143245538Y-62607340D01*
X143245861Y-62237283D01*
X143104545Y-61895272D01*
X142843104Y-61633374D01*
X142501340Y-61491462D01*
X142131283Y-61491139D01*
X141789272Y-61632455D01*
X141527374Y-61893896D01*
X141385462Y-62235660D01*
X141385139Y-62605717D01*
X138395539Y-62605717D01*
X138395861Y-62237283D01*
X138254545Y-61895272D01*
X137993104Y-61633374D01*
X137651340Y-61491462D01*
X137281283Y-61491139D01*
X136939272Y-61632455D01*
X136677374Y-61893896D01*
X136535462Y-62235660D01*
X136535139Y-62605717D01*
X117627400Y-62605717D01*
X117627400Y-62466409D01*
X117661783Y-62432086D01*
X117750299Y-62218915D01*
X117750501Y-61988097D01*
X117662357Y-61774772D01*
X117499286Y-61611417D01*
X117286115Y-61522901D01*
X117055297Y-61522699D01*
X116841972Y-61610843D01*
X116678617Y-61773914D01*
X116590101Y-61987085D01*
X116589899Y-62217903D01*
X116678043Y-62431228D01*
X116713000Y-62466246D01*
X116713000Y-65430400D01*
X116747802Y-65605363D01*
X116846911Y-65753689D01*
X116879542Y-65786320D01*
X116841972Y-65801843D01*
X116678617Y-65964914D01*
X116590101Y-66178085D01*
X116589899Y-66408903D01*
X116678043Y-66622228D01*
X116713000Y-66657246D01*
X116713000Y-69523686D01*
X116747802Y-69698649D01*
X116846911Y-69846975D01*
X116853864Y-69853928D01*
X116704017Y-70003514D01*
X116615501Y-70216685D01*
X116615299Y-70447503D01*
X116703443Y-70660828D01*
X116866514Y-70824183D01*
X117079685Y-70912699D01*
X117129164Y-70912742D01*
X118701090Y-72484669D01*
X118701093Y-72484671D01*
X121310380Y-75093958D01*
X121310380Y-77935132D01*
X121345182Y-78110095D01*
X121444291Y-78258421D01*
X125142976Y-81957106D01*
X125178111Y-82009689D01*
X129823389Y-86654967D01*
X129823389Y-87512833D01*
X127416280Y-89919942D01*
X127367697Y-89919899D01*
X127154372Y-90008043D01*
X127101673Y-90060650D01*
X127075086Y-90034017D01*
X126861915Y-89945501D01*
X126631097Y-89945299D01*
X126417772Y-90033443D01*
X126254417Y-90196514D01*
X126165901Y-90409685D01*
X126165699Y-90640503D01*
X126253843Y-90853828D01*
X126416914Y-91017183D01*
X126630085Y-91105699D01*
X126679564Y-91105742D01*
X126926712Y-91352890D01*
X127075038Y-91451999D01*
X127250001Y-91486801D01*
X127736713Y-91486801D01*
X127911676Y-91451999D01*
X128060002Y-91352890D01*
X130707584Y-88705309D01*
X130724243Y-88745628D01*
X130887314Y-88908983D01*
X131100485Y-88997499D01*
X131331303Y-88997701D01*
X131544628Y-88909557D01*
X131707983Y-88746486D01*
X131796499Y-88533315D01*
X131796701Y-88302497D01*
X131708557Y-88089172D01*
X131673600Y-88054154D01*
X131673600Y-86346179D01*
X132410200Y-87082779D01*
X132410200Y-90314591D01*
X132375817Y-90348914D01*
X132287301Y-90562085D01*
X132287099Y-90792903D01*
X132375243Y-91006228D01*
X132538314Y-91169583D01*
X132751485Y-91258099D01*
X132982303Y-91258301D01*
X133195628Y-91170157D01*
X133358983Y-91007086D01*
X133447499Y-90793915D01*
X133447701Y-90563097D01*
X133359557Y-90349772D01*
X133324600Y-90314754D01*
X133324600Y-87235178D01*
X134573142Y-88483720D01*
X134573099Y-88532303D01*
X134661243Y-88745628D01*
X134824314Y-88908983D01*
X134872384Y-88928943D01*
X134848600Y-89048514D01*
X134848600Y-92651391D01*
X134814217Y-92685714D01*
X134725701Y-92898885D01*
X134725499Y-93129703D01*
X134813643Y-93343028D01*
X134969416Y-93499073D01*
X132775390Y-95693100D01*
X122154992Y-95693100D01*
X121121300Y-94659409D01*
X121121300Y-94564200D01*
X121073824Y-94325520D01*
X120938622Y-94123178D01*
X120736280Y-93987976D01*
X120497600Y-93940500D01*
X120258920Y-93987976D01*
X120056578Y-94123178D01*
X119921376Y-94325520D01*
X119873900Y-94564200D01*
X119873900Y-94917753D01*
X119905996Y-95079111D01*
X119921376Y-95156433D01*
X120056578Y-95358775D01*
X121130312Y-96432510D01*
X120686690Y-96432510D01*
X120511727Y-96467312D01*
X120363401Y-96566421D01*
X118533525Y-98396297D01*
X118107721Y-98311600D01*
X118061479Y-98311600D01*
X117609836Y-98401437D01*
X117226952Y-98657273D01*
X116971116Y-99040157D01*
X116881279Y-99491800D01*
X116971116Y-99943443D01*
X117226952Y-100326327D01*
X117609836Y-100582163D01*
X118061479Y-100672000D01*
X118107721Y-100672000D01*
X118559364Y-100582163D01*
X118942248Y-100326327D01*
X119100600Y-100089337D01*
X119100600Y-100369221D01*
X118533524Y-100936297D01*
X118107721Y-100851600D01*
X118061479Y-100851600D01*
X117609836Y-100941437D01*
X117226952Y-101197273D01*
X116971116Y-101580157D01*
X116881279Y-102031800D01*
X116971116Y-102483443D01*
X117226952Y-102866327D01*
X117609836Y-103122163D01*
X118061479Y-103212000D01*
X118107721Y-103212000D01*
X118559364Y-103122163D01*
X118942248Y-102866327D01*
X119198084Y-102483443D01*
X119287921Y-102031800D01*
X119198084Y-101580157D01*
X119191971Y-101571008D01*
X119881089Y-100881890D01*
X119980198Y-100733563D01*
X120015000Y-100558600D01*
X120015000Y-98793903D01*
X126229199Y-98793903D01*
X126317343Y-99007228D01*
X126480414Y-99170583D01*
X126693585Y-99259099D01*
X126743064Y-99259142D01*
X129280211Y-101796289D01*
X129428537Y-101895398D01*
X129603500Y-101930200D01*
X129811098Y-101930200D01*
X129785401Y-101992085D01*
X129785326Y-102077658D01*
X128749149Y-103113835D01*
X128655568Y-103253888D01*
X128655568Y-103253889D01*
X128622707Y-103419093D01*
X128622707Y-105062228D01*
X128562824Y-105122007D01*
X128474308Y-105335178D01*
X128474106Y-105565996D01*
X128562250Y-105779321D01*
X128725321Y-105942676D01*
X128938492Y-106031192D01*
X129169310Y-106031394D01*
X129382635Y-105943250D01*
X129545990Y-105780179D01*
X129634506Y-105567008D01*
X129634708Y-105336190D01*
X129546564Y-105122865D01*
X129486107Y-105062303D01*
X129486107Y-103597909D01*
X130395789Y-102688227D01*
X130480403Y-102688301D01*
X130693728Y-102600157D01*
X130857083Y-102437086D01*
X130945599Y-102223915D01*
X130945801Y-101993097D01*
X130919813Y-101930200D01*
X133177091Y-101930200D01*
X133211414Y-101964583D01*
X133424585Y-102053099D01*
X133655403Y-102053301D01*
X133868728Y-101965157D01*
X134032083Y-101802086D01*
X134120599Y-101588915D01*
X134120642Y-101539436D01*
X134237879Y-101422200D01*
X139019091Y-101422200D01*
X139053414Y-101456583D01*
X139266585Y-101545099D01*
X139497403Y-101545301D01*
X139710728Y-101457157D01*
X139874083Y-101294086D01*
X139962599Y-101080915D01*
X139962801Y-100850097D01*
X139874657Y-100636772D01*
X139711586Y-100473417D01*
X139498415Y-100384901D01*
X139267597Y-100384699D01*
X139054272Y-100472843D01*
X139019254Y-100507800D01*
X134048500Y-100507800D01*
X133873537Y-100542602D01*
X133725210Y-100641711D01*
X133474180Y-100892742D01*
X133425597Y-100892699D01*
X133212272Y-100980843D01*
X133177254Y-101015800D01*
X129792878Y-101015800D01*
X127389758Y-98612680D01*
X127389801Y-98564097D01*
X127301657Y-98350772D01*
X127138586Y-98187417D01*
X126925415Y-98098901D01*
X126694597Y-98098699D01*
X126481272Y-98186843D01*
X126317917Y-98349914D01*
X126229401Y-98563085D01*
X126229199Y-98793903D01*
X120015000Y-98793903D01*
X120015000Y-98782728D01*
X121044408Y-97753320D01*
X135232142Y-97753320D01*
X136122542Y-98643720D01*
X136122499Y-98692303D01*
X136210643Y-98905628D01*
X136373714Y-99068983D01*
X136586885Y-99157499D01*
X136817703Y-99157701D01*
X137031028Y-99069557D01*
X137066144Y-99034502D01*
X137904900Y-99873258D01*
X138044953Y-99966839D01*
X138210158Y-99999700D01*
X143883135Y-99999700D01*
X143942914Y-100059583D01*
X144156085Y-100148099D01*
X144386903Y-100148301D01*
X144600228Y-100060157D01*
X144660790Y-99999700D01*
X148285200Y-99999700D01*
X148336000Y-99989595D01*
X148336000Y-137033000D01*
X116511190Y-137033000D01*
X116434227Y-136981575D01*
X116231963Y-136678867D01*
X116153000Y-136281893D01*
X116153000Y-107111800D01*
X116881279Y-107111800D01*
X116971116Y-107563443D01*
X117226952Y-107946327D01*
X117609836Y-108202163D01*
X118061479Y-108292000D01*
X118107721Y-108292000D01*
X118559364Y-108202163D01*
X118942248Y-107946327D01*
X119198084Y-107563443D01*
X119287921Y-107111800D01*
X119198084Y-106660157D01*
X118942248Y-106277273D01*
X118559364Y-106021437D01*
X118107721Y-105931600D01*
X118061479Y-105931600D01*
X117609836Y-106021437D01*
X117226952Y-106277273D01*
X116971116Y-106660157D01*
X116881279Y-107111800D01*
X116153000Y-107111800D01*
X116153000Y-104571800D01*
X116881279Y-104571800D01*
X116971116Y-105023443D01*
X117226952Y-105406327D01*
X117609836Y-105662163D01*
X118061479Y-105752000D01*
X118107721Y-105752000D01*
X118559364Y-105662163D01*
X118942248Y-105406327D01*
X119198084Y-105023443D01*
X119287921Y-104571800D01*
X119198084Y-104120157D01*
X118942248Y-103737273D01*
X118559364Y-103481437D01*
X118107721Y-103391600D01*
X118061479Y-103391600D01*
X117609836Y-103481437D01*
X117226952Y-103737273D01*
X116971116Y-104120157D01*
X116881279Y-104571800D01*
X116153000Y-104571800D01*
X116153000Y-96951800D01*
X116881279Y-96951800D01*
X116971116Y-97403443D01*
X117226952Y-97786327D01*
X117609836Y-98042163D01*
X118061479Y-98132000D01*
X118107721Y-98132000D01*
X118559364Y-98042163D01*
X118942248Y-97786327D01*
X119198084Y-97403443D01*
X119287921Y-96951800D01*
X119198084Y-96500157D01*
X118942248Y-96117273D01*
X118559364Y-95861437D01*
X118107721Y-95771600D01*
X118061479Y-95771600D01*
X117609836Y-95861437D01*
X117226952Y-96117273D01*
X116971116Y-96500157D01*
X116881279Y-96951800D01*
X116153000Y-96951800D01*
X116153000Y-92157550D01*
X116599600Y-92157550D01*
X116599600Y-92848110D01*
X116696273Y-93081499D01*
X116874902Y-93260127D01*
X117108291Y-93356800D01*
X117556912Y-93356800D01*
X117226952Y-93577273D01*
X116971116Y-93960157D01*
X116881279Y-94411800D01*
X116971116Y-94863443D01*
X117226952Y-95246327D01*
X117609836Y-95502163D01*
X118061479Y-95592000D01*
X118107721Y-95592000D01*
X118559364Y-95502163D01*
X118942248Y-95246327D01*
X119198084Y-94863443D01*
X119287921Y-94411800D01*
X119198084Y-93960157D01*
X118942248Y-93577273D01*
X118612288Y-93356800D01*
X119060909Y-93356800D01*
X119294298Y-93260127D01*
X119472927Y-93081499D01*
X119569600Y-92848110D01*
X119569600Y-92157550D01*
X119410850Y-91998800D01*
X118211600Y-91998800D01*
X118211600Y-92018800D01*
X117957600Y-92018800D01*
X117957600Y-91998800D01*
X116758350Y-91998800D01*
X116599600Y-92157550D01*
X116153000Y-92157550D01*
X116153000Y-90895490D01*
X116599600Y-90895490D01*
X116599600Y-91586050D01*
X116758350Y-91744800D01*
X117957600Y-91744800D01*
X117957600Y-90545550D01*
X118211600Y-90545550D01*
X118211600Y-91744800D01*
X119410850Y-91744800D01*
X119569600Y-91586050D01*
X119569600Y-90895490D01*
X119472927Y-90662101D01*
X119294298Y-90483473D01*
X119060909Y-90386800D01*
X118370350Y-90386800D01*
X118211600Y-90545550D01*
X117957600Y-90545550D01*
X117798850Y-90386800D01*
X117108291Y-90386800D01*
X116874902Y-90483473D01*
X116696273Y-90662101D01*
X116599600Y-90895490D01*
X116153000Y-90895490D01*
X116153000Y-59771500D01*
X135062179Y-59771500D01*
X135152016Y-60223143D01*
X135407852Y-60606027D01*
X135790736Y-60861863D01*
X136242379Y-60951700D01*
X136288621Y-60951700D01*
X136740264Y-60861863D01*
X137123148Y-60606027D01*
X137378984Y-60223143D01*
X137468821Y-59771500D01*
X142312179Y-59771500D01*
X142402016Y-60223143D01*
X142657852Y-60606027D01*
X143040736Y-60861863D01*
X143492379Y-60951700D01*
X143538621Y-60951700D01*
X143990264Y-60861863D01*
X144373148Y-60606027D01*
X144628984Y-60223143D01*
X144718821Y-59771500D01*
X144628984Y-59319857D01*
X144373148Y-58936973D01*
X143990264Y-58681137D01*
X143538621Y-58591300D01*
X143492379Y-58591300D01*
X143040736Y-58681137D01*
X142657852Y-58936973D01*
X142402016Y-59319857D01*
X142312179Y-59771500D01*
X137468821Y-59771500D01*
X137378984Y-59319857D01*
X137123148Y-58936973D01*
X136740264Y-58681137D01*
X136288621Y-58591300D01*
X136242379Y-58591300D01*
X135790736Y-58681137D01*
X135407852Y-58936973D01*
X135152016Y-59319857D01*
X135062179Y-59771500D01*
X116153000Y-59771500D01*
X116153000Y-58790107D01*
X116231963Y-58393133D01*
X116434227Y-58090425D01*
X116736933Y-57888163D01*
X117133908Y-57809200D01*
X148336000Y-57809200D01*
X148336000Y-83202767D01*
X148336000Y-83202767D01*
G37*
X148336000Y-83202767D02*
X148200017Y-83338514D01*
X148111501Y-83551685D01*
X148111299Y-83782503D01*
X148199443Y-83995828D01*
X148336000Y-84132623D01*
X148336000Y-97658286D01*
X148229586Y-97764700D01*
X139123665Y-97764700D01*
X139063886Y-97704817D01*
X138850715Y-97616301D01*
X138619897Y-97616099D01*
X138406572Y-97704243D01*
X138243217Y-97867314D01*
X138237085Y-97882081D01*
X138200286Y-97845218D01*
X137987115Y-97756702D01*
X137937636Y-97756659D01*
X136747398Y-96566421D01*
X136599072Y-96467312D01*
X136424109Y-96432510D01*
X135708130Y-96432510D01*
X135777603Y-96386089D01*
X137853008Y-94310684D01*
X137952117Y-94162358D01*
X137986919Y-93987395D01*
X137986919Y-89392347D01*
X140078461Y-91483889D01*
X140226787Y-91582998D01*
X140401750Y-91617800D01*
X142587791Y-91617800D01*
X142622114Y-91652183D01*
X142835285Y-91740699D01*
X143066103Y-91740901D01*
X143279428Y-91652757D01*
X143442783Y-91489686D01*
X143531299Y-91276515D01*
X143531501Y-91045697D01*
X143443357Y-90832372D01*
X143280286Y-90669017D01*
X143067115Y-90580501D01*
X142836297Y-90580299D01*
X142622972Y-90668443D01*
X142587954Y-90703400D01*
X140591128Y-90703400D01*
X130225800Y-80338072D01*
X130225800Y-79636692D01*
X133659271Y-76203221D01*
X133758380Y-76054895D01*
X133793182Y-75879932D01*
X133793182Y-66948191D01*
X133827565Y-66913868D01*
X133916081Y-66700697D01*
X133916283Y-66469879D01*
X133828139Y-66256554D01*
X133665068Y-66093199D01*
X133451897Y-66004683D01*
X133221079Y-66004481D01*
X133007754Y-66092625D01*
X132844399Y-66255696D01*
X132755883Y-66468867D01*
X132755681Y-66699685D01*
X132843825Y-66913010D01*
X132878782Y-66948028D01*
X132878782Y-75690554D01*
X131491872Y-77077464D01*
X131342286Y-76927617D01*
X131129115Y-76839101D01*
X130898297Y-76838899D01*
X130684972Y-76927043D01*
X130521617Y-77090114D01*
X130433101Y-77303285D01*
X130433058Y-77352764D01*
X129910431Y-77875391D01*
X129901167Y-77852972D01*
X129738096Y-77689617D01*
X129524925Y-77601101D01*
X129294107Y-77600899D01*
X129080782Y-77689043D01*
X128930400Y-77839164D01*
X128930400Y-66352609D01*
X128964783Y-66318286D01*
X129053299Y-66105115D01*
X129053501Y-65874297D01*
X128965357Y-65660972D01*
X128802286Y-65497617D01*
X128589115Y-65409101D01*
X128358297Y-65408899D01*
X128144972Y-65497043D01*
X127981617Y-65660114D01*
X127893101Y-65873285D01*
X127892899Y-66104103D01*
X127981043Y-66317428D01*
X128016000Y-66352446D01*
X128016000Y-80633422D01*
X123926600Y-76544022D01*
X123926600Y-73609200D01*
X123891798Y-73434237D01*
X123792689Y-73285911D01*
X122881258Y-72374480D01*
X122881301Y-72325897D01*
X122793157Y-72112572D01*
X122630086Y-71949217D01*
X122416915Y-71860701D01*
X122186097Y-71860499D01*
X121972772Y-71948643D01*
X121881907Y-72039350D01*
X121817286Y-71974617D01*
X121604115Y-71886101D01*
X121373297Y-71885899D01*
X121159972Y-71974043D01*
X121007464Y-72126286D01*
X118156801Y-69275623D01*
X118156801Y-65959801D01*
X118121999Y-65784838D01*
X118022890Y-65636512D01*
X117627400Y-65241022D01*
X117627400Y-62605717D01*
X136535139Y-62605717D01*
X136676455Y-62947728D01*
X136937896Y-63209626D01*
X137279660Y-63351538D01*
X137649717Y-63351861D01*
X137991728Y-63210545D01*
X138253626Y-62949104D01*
X138395538Y-62607340D01*
X138395539Y-62605717D01*
X141385139Y-62605717D01*
X141526455Y-62947728D01*
X141787896Y-63209626D01*
X142129660Y-63351538D01*
X142499717Y-63351861D01*
X142841728Y-63210545D01*
X143103626Y-62949104D01*
X143245538Y-62607340D01*
X143245861Y-62237283D01*
X143104545Y-61895272D01*
X142843104Y-61633374D01*
X142501340Y-61491462D01*
X142131283Y-61491139D01*
X141789272Y-61632455D01*
X141527374Y-61893896D01*
X141385462Y-62235660D01*
X141385139Y-62605717D01*
X138395539Y-62605717D01*
X138395861Y-62237283D01*
X138254545Y-61895272D01*
X137993104Y-61633374D01*
X137651340Y-61491462D01*
X137281283Y-61491139D01*
X136939272Y-61632455D01*
X136677374Y-61893896D01*
X136535462Y-62235660D01*
X136535139Y-62605717D01*
X117627400Y-62605717D01*
X117627400Y-62466409D01*
X117661783Y-62432086D01*
X117750299Y-62218915D01*
X117750501Y-61988097D01*
X117662357Y-61774772D01*
X117499286Y-61611417D01*
X117286115Y-61522901D01*
X117055297Y-61522699D01*
X116841972Y-61610843D01*
X116678617Y-61773914D01*
X116590101Y-61987085D01*
X116589899Y-62217903D01*
X116678043Y-62431228D01*
X116713000Y-62466246D01*
X116713000Y-65430400D01*
X116747802Y-65605363D01*
X116846911Y-65753689D01*
X116879542Y-65786320D01*
X116841972Y-65801843D01*
X116678617Y-65964914D01*
X116590101Y-66178085D01*
X116589899Y-66408903D01*
X116678043Y-66622228D01*
X116713000Y-66657246D01*
X116713000Y-69523686D01*
X116747802Y-69698649D01*
X116846911Y-69846975D01*
X116853864Y-69853928D01*
X116704017Y-70003514D01*
X116615501Y-70216685D01*
X116615299Y-70447503D01*
X116703443Y-70660828D01*
X116866514Y-70824183D01*
X117079685Y-70912699D01*
X117129164Y-70912742D01*
X118701090Y-72484669D01*
X118701093Y-72484671D01*
X121310380Y-75093958D01*
X121310380Y-77935132D01*
X121345182Y-78110095D01*
X121444291Y-78258421D01*
X125142976Y-81957106D01*
X125178111Y-82009689D01*
X129823389Y-86654967D01*
X129823389Y-87512833D01*
X127416280Y-89919942D01*
X127367697Y-89919899D01*
X127154372Y-90008043D01*
X127101673Y-90060650D01*
X127075086Y-90034017D01*
X126861915Y-89945501D01*
X126631097Y-89945299D01*
X126417772Y-90033443D01*
X126254417Y-90196514D01*
X126165901Y-90409685D01*
X126165699Y-90640503D01*
X126253843Y-90853828D01*
X126416914Y-91017183D01*
X126630085Y-91105699D01*
X126679564Y-91105742D01*
X126926712Y-91352890D01*
X127075038Y-91451999D01*
X127250001Y-91486801D01*
X127736713Y-91486801D01*
X127911676Y-91451999D01*
X128060002Y-91352890D01*
X130707584Y-88705309D01*
X130724243Y-88745628D01*
X130887314Y-88908983D01*
X131100485Y-88997499D01*
X131331303Y-88997701D01*
X131544628Y-88909557D01*
X131707983Y-88746486D01*
X131796499Y-88533315D01*
X131796701Y-88302497D01*
X131708557Y-88089172D01*
X131673600Y-88054154D01*
X131673600Y-86346179D01*
X132410200Y-87082779D01*
X132410200Y-90314591D01*
X132375817Y-90348914D01*
X132287301Y-90562085D01*
X132287099Y-90792903D01*
X132375243Y-91006228D01*
X132538314Y-91169583D01*
X132751485Y-91258099D01*
X132982303Y-91258301D01*
X133195628Y-91170157D01*
X133358983Y-91007086D01*
X133447499Y-90793915D01*
X133447701Y-90563097D01*
X133359557Y-90349772D01*
X133324600Y-90314754D01*
X133324600Y-87235178D01*
X134573142Y-88483720D01*
X134573099Y-88532303D01*
X134661243Y-88745628D01*
X134824314Y-88908983D01*
X134872384Y-88928943D01*
X134848600Y-89048514D01*
X134848600Y-92651391D01*
X134814217Y-92685714D01*
X134725701Y-92898885D01*
X134725499Y-93129703D01*
X134813643Y-93343028D01*
X134969416Y-93499073D01*
X132775390Y-95693100D01*
X122154992Y-95693100D01*
X121121300Y-94659409D01*
X121121300Y-94564200D01*
X121073824Y-94325520D01*
X120938622Y-94123178D01*
X120736280Y-93987976D01*
X120497600Y-93940500D01*
X120258920Y-93987976D01*
X120056578Y-94123178D01*
X119921376Y-94325520D01*
X119873900Y-94564200D01*
X119873900Y-94917753D01*
X119905996Y-95079111D01*
X119921376Y-95156433D01*
X120056578Y-95358775D01*
X121130312Y-96432510D01*
X120686690Y-96432510D01*
X120511727Y-96467312D01*
X120363401Y-96566421D01*
X118533525Y-98396297D01*
X118107721Y-98311600D01*
X118061479Y-98311600D01*
X117609836Y-98401437D01*
X117226952Y-98657273D01*
X116971116Y-99040157D01*
X116881279Y-99491800D01*
X116971116Y-99943443D01*
X117226952Y-100326327D01*
X117609836Y-100582163D01*
X118061479Y-100672000D01*
X118107721Y-100672000D01*
X118559364Y-100582163D01*
X118942248Y-100326327D01*
X119100600Y-100089337D01*
X119100600Y-100369221D01*
X118533524Y-100936297D01*
X118107721Y-100851600D01*
X118061479Y-100851600D01*
X117609836Y-100941437D01*
X117226952Y-101197273D01*
X116971116Y-101580157D01*
X116881279Y-102031800D01*
X116971116Y-102483443D01*
X117226952Y-102866327D01*
X117609836Y-103122163D01*
X118061479Y-103212000D01*
X118107721Y-103212000D01*
X118559364Y-103122163D01*
X118942248Y-102866327D01*
X119198084Y-102483443D01*
X119287921Y-102031800D01*
X119198084Y-101580157D01*
X119191971Y-101571008D01*
X119881089Y-100881890D01*
X119980198Y-100733563D01*
X120015000Y-100558600D01*
X120015000Y-98793903D01*
X126229199Y-98793903D01*
X126317343Y-99007228D01*
X126480414Y-99170583D01*
X126693585Y-99259099D01*
X126743064Y-99259142D01*
X129280211Y-101796289D01*
X129428537Y-101895398D01*
X129603500Y-101930200D01*
X129811098Y-101930200D01*
X129785401Y-101992085D01*
X129785326Y-102077658D01*
X128749149Y-103113835D01*
X128655568Y-103253888D01*
X128655568Y-103253889D01*
X128622707Y-103419093D01*
X128622707Y-105062228D01*
X128562824Y-105122007D01*
X128474308Y-105335178D01*
X128474106Y-105565996D01*
X128562250Y-105779321D01*
X128725321Y-105942676D01*
X128938492Y-106031192D01*
X129169310Y-106031394D01*
X129382635Y-105943250D01*
X129545990Y-105780179D01*
X129634506Y-105567008D01*
X129634708Y-105336190D01*
X129546564Y-105122865D01*
X129486107Y-105062303D01*
X129486107Y-103597909D01*
X130395789Y-102688227D01*
X130480403Y-102688301D01*
X130693728Y-102600157D01*
X130857083Y-102437086D01*
X130945599Y-102223915D01*
X130945801Y-101993097D01*
X130919813Y-101930200D01*
X133177091Y-101930200D01*
X133211414Y-101964583D01*
X133424585Y-102053099D01*
X133655403Y-102053301D01*
X133868728Y-101965157D01*
X134032083Y-101802086D01*
X134120599Y-101588915D01*
X134120642Y-101539436D01*
X134237879Y-101422200D01*
X139019091Y-101422200D01*
X139053414Y-101456583D01*
X139266585Y-101545099D01*
X139497403Y-101545301D01*
X139710728Y-101457157D01*
X139874083Y-101294086D01*
X139962599Y-101080915D01*
X139962801Y-100850097D01*
X139874657Y-100636772D01*
X139711586Y-100473417D01*
X139498415Y-100384901D01*
X139267597Y-100384699D01*
X139054272Y-100472843D01*
X139019254Y-100507800D01*
X134048500Y-100507800D01*
X133873537Y-100542602D01*
X133725210Y-100641711D01*
X133474180Y-100892742D01*
X133425597Y-100892699D01*
X133212272Y-100980843D01*
X133177254Y-101015800D01*
X129792878Y-101015800D01*
X127389758Y-98612680D01*
X127389801Y-98564097D01*
X127301657Y-98350772D01*
X127138586Y-98187417D01*
X126925415Y-98098901D01*
X126694597Y-98098699D01*
X126481272Y-98186843D01*
X126317917Y-98349914D01*
X126229401Y-98563085D01*
X126229199Y-98793903D01*
X120015000Y-98793903D01*
X120015000Y-98782728D01*
X121044408Y-97753320D01*
X135232142Y-97753320D01*
X136122542Y-98643720D01*
X136122499Y-98692303D01*
X136210643Y-98905628D01*
X136373714Y-99068983D01*
X136586885Y-99157499D01*
X136817703Y-99157701D01*
X137031028Y-99069557D01*
X137066144Y-99034502D01*
X137904900Y-99873258D01*
X138044953Y-99966839D01*
X138210158Y-99999700D01*
X143883135Y-99999700D01*
X143942914Y-100059583D01*
X144156085Y-100148099D01*
X144386903Y-100148301D01*
X144600228Y-100060157D01*
X144660790Y-99999700D01*
X148285200Y-99999700D01*
X148336000Y-99989595D01*
X148336000Y-137033000D01*
X116511190Y-137033000D01*
X116434227Y-136981575D01*
X116231963Y-136678867D01*
X116153000Y-136281893D01*
X116153000Y-107111800D01*
X116881279Y-107111800D01*
X116971116Y-107563443D01*
X117226952Y-107946327D01*
X117609836Y-108202163D01*
X118061479Y-108292000D01*
X118107721Y-108292000D01*
X118559364Y-108202163D01*
X118942248Y-107946327D01*
X119198084Y-107563443D01*
X119287921Y-107111800D01*
X119198084Y-106660157D01*
X118942248Y-106277273D01*
X118559364Y-106021437D01*
X118107721Y-105931600D01*
X118061479Y-105931600D01*
X117609836Y-106021437D01*
X117226952Y-106277273D01*
X116971116Y-106660157D01*
X116881279Y-107111800D01*
X116153000Y-107111800D01*
X116153000Y-104571800D01*
X116881279Y-104571800D01*
X116971116Y-105023443D01*
X117226952Y-105406327D01*
X117609836Y-105662163D01*
X118061479Y-105752000D01*
X118107721Y-105752000D01*
X118559364Y-105662163D01*
X118942248Y-105406327D01*
X119198084Y-105023443D01*
X119287921Y-104571800D01*
X119198084Y-104120157D01*
X118942248Y-103737273D01*
X118559364Y-103481437D01*
X118107721Y-103391600D01*
X118061479Y-103391600D01*
X117609836Y-103481437D01*
X117226952Y-103737273D01*
X116971116Y-104120157D01*
X116881279Y-104571800D01*
X116153000Y-104571800D01*
X116153000Y-96951800D01*
X116881279Y-96951800D01*
X116971116Y-97403443D01*
X117226952Y-97786327D01*
X117609836Y-98042163D01*
X118061479Y-98132000D01*
X118107721Y-98132000D01*
X118559364Y-98042163D01*
X118942248Y-97786327D01*
X119198084Y-97403443D01*
X119287921Y-96951800D01*
X119198084Y-96500157D01*
X118942248Y-96117273D01*
X118559364Y-95861437D01*
X118107721Y-95771600D01*
X118061479Y-95771600D01*
X117609836Y-95861437D01*
X117226952Y-96117273D01*
X116971116Y-96500157D01*
X116881279Y-96951800D01*
X116153000Y-96951800D01*
X116153000Y-92157550D01*
X116599600Y-92157550D01*
X116599600Y-92848110D01*
X116696273Y-93081499D01*
X116874902Y-93260127D01*
X117108291Y-93356800D01*
X117556912Y-93356800D01*
X117226952Y-93577273D01*
X116971116Y-93960157D01*
X116881279Y-94411800D01*
X116971116Y-94863443D01*
X117226952Y-95246327D01*
X117609836Y-95502163D01*
X118061479Y-95592000D01*
X118107721Y-95592000D01*
X118559364Y-95502163D01*
X118942248Y-95246327D01*
X119198084Y-94863443D01*
X119287921Y-94411800D01*
X119198084Y-93960157D01*
X118942248Y-93577273D01*
X118612288Y-93356800D01*
X119060909Y-93356800D01*
X119294298Y-93260127D01*
X119472927Y-93081499D01*
X119569600Y-92848110D01*
X119569600Y-92157550D01*
X119410850Y-91998800D01*
X118211600Y-91998800D01*
X118211600Y-92018800D01*
X117957600Y-92018800D01*
X117957600Y-91998800D01*
X116758350Y-91998800D01*
X116599600Y-92157550D01*
X116153000Y-92157550D01*
X116153000Y-90895490D01*
X116599600Y-90895490D01*
X116599600Y-91586050D01*
X116758350Y-91744800D01*
X117957600Y-91744800D01*
X117957600Y-90545550D01*
X118211600Y-90545550D01*
X118211600Y-91744800D01*
X119410850Y-91744800D01*
X119569600Y-91586050D01*
X119569600Y-90895490D01*
X119472927Y-90662101D01*
X119294298Y-90483473D01*
X119060909Y-90386800D01*
X118370350Y-90386800D01*
X118211600Y-90545550D01*
X117957600Y-90545550D01*
X117798850Y-90386800D01*
X117108291Y-90386800D01*
X116874902Y-90483473D01*
X116696273Y-90662101D01*
X116599600Y-90895490D01*
X116153000Y-90895490D01*
X116153000Y-59771500D01*
X135062179Y-59771500D01*
X135152016Y-60223143D01*
X135407852Y-60606027D01*
X135790736Y-60861863D01*
X136242379Y-60951700D01*
X136288621Y-60951700D01*
X136740264Y-60861863D01*
X137123148Y-60606027D01*
X137378984Y-60223143D01*
X137468821Y-59771500D01*
X142312179Y-59771500D01*
X142402016Y-60223143D01*
X142657852Y-60606027D01*
X143040736Y-60861863D01*
X143492379Y-60951700D01*
X143538621Y-60951700D01*
X143990264Y-60861863D01*
X144373148Y-60606027D01*
X144628984Y-60223143D01*
X144718821Y-59771500D01*
X144628984Y-59319857D01*
X144373148Y-58936973D01*
X143990264Y-58681137D01*
X143538621Y-58591300D01*
X143492379Y-58591300D01*
X143040736Y-58681137D01*
X142657852Y-58936973D01*
X142402016Y-59319857D01*
X142312179Y-59771500D01*
X137468821Y-59771500D01*
X137378984Y-59319857D01*
X137123148Y-58936973D01*
X136740264Y-58681137D01*
X136288621Y-58591300D01*
X136242379Y-58591300D01*
X135790736Y-58681137D01*
X135407852Y-58936973D01*
X135152016Y-59319857D01*
X135062179Y-59771500D01*
X116153000Y-59771500D01*
X116153000Y-58790107D01*
X116231963Y-58393133D01*
X116434227Y-58090425D01*
X116736933Y-57888163D01*
X117133908Y-57809200D01*
X148336000Y-57809200D01*
X148336000Y-83202767D01*
G36*
X192913000Y-66929000D02*
X185837071Y-66929000D01*
X185724864Y-66761070D01*
X185355079Y-66513988D01*
X185724864Y-66266906D01*
X185983647Y-65879609D01*
X186056287Y-65514420D01*
X189226493Y-65514420D01*
X189407855Y-65953350D01*
X189743384Y-66289464D01*
X190181997Y-66471592D01*
X190656920Y-66472007D01*
X191095850Y-66290645D01*
X191431964Y-65955116D01*
X191614092Y-65516503D01*
X191614507Y-65041580D01*
X191433145Y-64602650D01*
X191097616Y-64266536D01*
X190887445Y-64179265D01*
X191212759Y-64044516D01*
X191294700Y-63791805D01*
X190420500Y-62917605D01*
X189546300Y-63791805D01*
X189628241Y-64044516D01*
X189974715Y-64170501D01*
X189745150Y-64265355D01*
X189409036Y-64600884D01*
X189226908Y-65039497D01*
X189226493Y-65514420D01*
X186056287Y-65514420D01*
X186074520Y-65422762D01*
X186074520Y-65065214D01*
X185983647Y-64608367D01*
X185724864Y-64221070D01*
X185604449Y-64140611D01*
X185782756Y-64054720D01*
X186172674Y-63618308D01*
X186365904Y-63065901D01*
X186221644Y-62830988D01*
X185007720Y-62830988D01*
X185007720Y-62850988D01*
X184753720Y-62850988D01*
X184753720Y-62830988D01*
X183539796Y-62830988D01*
X183395536Y-63065901D01*
X183588766Y-63618308D01*
X183978684Y-64054720D01*
X184156991Y-64140611D01*
X184036576Y-64221070D01*
X183777793Y-64608367D01*
X183686920Y-65065214D01*
X183686920Y-65422762D01*
X183777793Y-65879609D01*
X184036576Y-66266906D01*
X184406361Y-66513988D01*
X184036576Y-66761070D01*
X183924369Y-66929000D01*
X177927000Y-66929000D01*
X177927000Y-62342075D01*
X183395536Y-62342075D01*
X183539796Y-62576988D01*
X184753720Y-62576988D01*
X184753720Y-61217771D01*
X185007720Y-61217771D01*
X185007720Y-62576988D01*
X186221644Y-62576988D01*
X186265219Y-62506030D01*
X188910252Y-62506030D01*
X188936442Y-63101635D01*
X189113984Y-63530259D01*
X189366695Y-63612200D01*
X190240895Y-62738000D01*
X190600105Y-62738000D01*
X191474305Y-63612200D01*
X191727016Y-63530259D01*
X191930748Y-62969970D01*
X191904558Y-62374365D01*
X191727016Y-61945741D01*
X191474305Y-61863800D01*
X190600105Y-62738000D01*
X190240895Y-62738000D01*
X189366695Y-61863800D01*
X189113984Y-61945741D01*
X188910252Y-62506030D01*
X186265219Y-62506030D01*
X186365904Y-62342075D01*
X186172674Y-61789668D01*
X186078438Y-61684195D01*
X189546300Y-61684195D01*
X190420500Y-62558395D01*
X191294700Y-61684195D01*
X191212759Y-61431484D01*
X190652470Y-61227752D01*
X190056865Y-61253942D01*
X189628241Y-61431484D01*
X189546300Y-61684195D01*
X186078438Y-61684195D01*
X185782756Y-61353256D01*
X185255511Y-61099279D01*
X185239746Y-61096630D01*
X185007720Y-61217771D01*
X184753720Y-61217771D01*
X184521694Y-61096630D01*
X184505929Y-61099279D01*
X183978684Y-61353256D01*
X183588766Y-61789668D01*
X183395536Y-62342075D01*
X177927000Y-62342075D01*
X177927000Y-57809200D01*
X192913000Y-57809200D01*
X192913000Y-66929000D01*
X192913000Y-66929000D01*
G37*
X192913000Y-66929000D02*
X185837071Y-66929000D01*
X185724864Y-66761070D01*
X185355079Y-66513988D01*
X185724864Y-66266906D01*
X185983647Y-65879609D01*
X186056287Y-65514420D01*
X189226493Y-65514420D01*
X189407855Y-65953350D01*
X189743384Y-66289464D01*
X190181997Y-66471592D01*
X190656920Y-66472007D01*
X191095850Y-66290645D01*
X191431964Y-65955116D01*
X191614092Y-65516503D01*
X191614507Y-65041580D01*
X191433145Y-64602650D01*
X191097616Y-64266536D01*
X190887445Y-64179265D01*
X191212759Y-64044516D01*
X191294700Y-63791805D01*
X190420500Y-62917605D01*
X189546300Y-63791805D01*
X189628241Y-64044516D01*
X189974715Y-64170501D01*
X189745150Y-64265355D01*
X189409036Y-64600884D01*
X189226908Y-65039497D01*
X189226493Y-65514420D01*
X186056287Y-65514420D01*
X186074520Y-65422762D01*
X186074520Y-65065214D01*
X185983647Y-64608367D01*
X185724864Y-64221070D01*
X185604449Y-64140611D01*
X185782756Y-64054720D01*
X186172674Y-63618308D01*
X186365904Y-63065901D01*
X186221644Y-62830988D01*
X185007720Y-62830988D01*
X185007720Y-62850988D01*
X184753720Y-62850988D01*
X184753720Y-62830988D01*
X183539796Y-62830988D01*
X183395536Y-63065901D01*
X183588766Y-63618308D01*
X183978684Y-64054720D01*
X184156991Y-64140611D01*
X184036576Y-64221070D01*
X183777793Y-64608367D01*
X183686920Y-65065214D01*
X183686920Y-65422762D01*
X183777793Y-65879609D01*
X184036576Y-66266906D01*
X184406361Y-66513988D01*
X184036576Y-66761070D01*
X183924369Y-66929000D01*
X177927000Y-66929000D01*
X177927000Y-62342075D01*
X183395536Y-62342075D01*
X183539796Y-62576988D01*
X184753720Y-62576988D01*
X184753720Y-61217771D01*
X185007720Y-61217771D01*
X185007720Y-62576988D01*
X186221644Y-62576988D01*
X186265219Y-62506030D01*
X188910252Y-62506030D01*
X188936442Y-63101635D01*
X189113984Y-63530259D01*
X189366695Y-63612200D01*
X190240895Y-62738000D01*
X190600105Y-62738000D01*
X191474305Y-63612200D01*
X191727016Y-63530259D01*
X191930748Y-62969970D01*
X191904558Y-62374365D01*
X191727016Y-61945741D01*
X191474305Y-61863800D01*
X190600105Y-62738000D01*
X190240895Y-62738000D01*
X189366695Y-61863800D01*
X189113984Y-61945741D01*
X188910252Y-62506030D01*
X186265219Y-62506030D01*
X186365904Y-62342075D01*
X186172674Y-61789668D01*
X186078438Y-61684195D01*
X189546300Y-61684195D01*
X190420500Y-62558395D01*
X191294700Y-61684195D01*
X191212759Y-61431484D01*
X190652470Y-61227752D01*
X190056865Y-61253942D01*
X189628241Y-61431484D01*
X189546300Y-61684195D01*
X186078438Y-61684195D01*
X185782756Y-61353256D01*
X185255511Y-61099279D01*
X185239746Y-61096630D01*
X185007720Y-61217771D01*
X184753720Y-61217771D01*
X184521694Y-61096630D01*
X184505929Y-61099279D01*
X183978684Y-61353256D01*
X183588766Y-61789668D01*
X183395536Y-62342075D01*
X177927000Y-62342075D01*
X177927000Y-57809200D01*
X192913000Y-57809200D01*
X192913000Y-66929000D01*
G36*
X192918785Y-82916488D02*
X185818020Y-82916488D01*
X185724864Y-82777070D01*
X185355079Y-82529988D01*
X185724864Y-82282906D01*
X185983647Y-81895609D01*
X186059072Y-81516420D01*
X189289993Y-81516420D01*
X189471355Y-81955350D01*
X189806884Y-82291464D01*
X190245497Y-82473592D01*
X190720420Y-82474007D01*
X191159350Y-82292645D01*
X191495464Y-81957116D01*
X191677592Y-81518503D01*
X191678007Y-81043580D01*
X191496645Y-80604650D01*
X191161116Y-80268536D01*
X190950945Y-80181265D01*
X191276259Y-80046516D01*
X191358200Y-79793805D01*
X190484000Y-78919605D01*
X189609800Y-79793805D01*
X189691741Y-80046516D01*
X190038215Y-80172501D01*
X189808650Y-80267355D01*
X189472536Y-80602884D01*
X189290408Y-81041497D01*
X189289993Y-81516420D01*
X186059072Y-81516420D01*
X186074520Y-81438762D01*
X186074520Y-81081214D01*
X185983647Y-80624367D01*
X185724864Y-80237070D01*
X185604449Y-80156611D01*
X185782756Y-80070720D01*
X186172674Y-79634308D01*
X186365904Y-79081901D01*
X186221644Y-78846988D01*
X185007720Y-78846988D01*
X185007720Y-78866988D01*
X184753720Y-78866988D01*
X184753720Y-78846988D01*
X183539796Y-78846988D01*
X183395536Y-79081901D01*
X183588766Y-79634308D01*
X183978684Y-80070720D01*
X184156991Y-80156611D01*
X184036576Y-80237070D01*
X183777793Y-80624367D01*
X183686920Y-81081214D01*
X183686920Y-81438762D01*
X183777793Y-81895609D01*
X184036576Y-82282906D01*
X184406361Y-82529988D01*
X184036576Y-82777070D01*
X183943420Y-82916488D01*
X177932785Y-82916488D01*
X177928357Y-78358075D01*
X183395536Y-78358075D01*
X183539796Y-78592988D01*
X184753720Y-78592988D01*
X184753720Y-77233771D01*
X185007720Y-77233771D01*
X185007720Y-78592988D01*
X186221644Y-78592988D01*
X186273816Y-78508030D01*
X188973752Y-78508030D01*
X188999942Y-79103635D01*
X189177484Y-79532259D01*
X189430195Y-79614200D01*
X190304395Y-78740000D01*
X190663605Y-78740000D01*
X191537805Y-79614200D01*
X191790516Y-79532259D01*
X191994248Y-78971970D01*
X191968058Y-78376365D01*
X191790516Y-77947741D01*
X191537805Y-77865800D01*
X190663605Y-78740000D01*
X190304395Y-78740000D01*
X189430195Y-77865800D01*
X189177484Y-77947741D01*
X188973752Y-78508030D01*
X186273816Y-78508030D01*
X186365904Y-78358075D01*
X186172674Y-77805668D01*
X186065930Y-77686195D01*
X189609800Y-77686195D01*
X190484000Y-78560395D01*
X191358200Y-77686195D01*
X191276259Y-77433484D01*
X190715970Y-77229752D01*
X190120365Y-77255942D01*
X189691741Y-77433484D01*
X189609800Y-77686195D01*
X186065930Y-77686195D01*
X185782756Y-77369256D01*
X185255511Y-77115279D01*
X185239746Y-77112630D01*
X185007720Y-77233771D01*
X184753720Y-77233771D01*
X184521694Y-77112630D01*
X184505929Y-77115279D01*
X183978684Y-77369256D01*
X183588766Y-77805668D01*
X183395536Y-78358075D01*
X177928357Y-78358075D01*
X177923531Y-73391488D01*
X192909531Y-73391488D01*
X192918785Y-82916488D01*
X192918785Y-82916488D01*
G37*
X192918785Y-82916488D02*
X185818020Y-82916488D01*
X185724864Y-82777070D01*
X185355079Y-82529988D01*
X185724864Y-82282906D01*
X185983647Y-81895609D01*
X186059072Y-81516420D01*
X189289993Y-81516420D01*
X189471355Y-81955350D01*
X189806884Y-82291464D01*
X190245497Y-82473592D01*
X190720420Y-82474007D01*
X191159350Y-82292645D01*
X191495464Y-81957116D01*
X191677592Y-81518503D01*
X191678007Y-81043580D01*
X191496645Y-80604650D01*
X191161116Y-80268536D01*
X190950945Y-80181265D01*
X191276259Y-80046516D01*
X191358200Y-79793805D01*
X190484000Y-78919605D01*
X189609800Y-79793805D01*
X189691741Y-80046516D01*
X190038215Y-80172501D01*
X189808650Y-80267355D01*
X189472536Y-80602884D01*
X189290408Y-81041497D01*
X189289993Y-81516420D01*
X186059072Y-81516420D01*
X186074520Y-81438762D01*
X186074520Y-81081214D01*
X185983647Y-80624367D01*
X185724864Y-80237070D01*
X185604449Y-80156611D01*
X185782756Y-80070720D01*
X186172674Y-79634308D01*
X186365904Y-79081901D01*
X186221644Y-78846988D01*
X185007720Y-78846988D01*
X185007720Y-78866988D01*
X184753720Y-78866988D01*
X184753720Y-78846988D01*
X183539796Y-78846988D01*
X183395536Y-79081901D01*
X183588766Y-79634308D01*
X183978684Y-80070720D01*
X184156991Y-80156611D01*
X184036576Y-80237070D01*
X183777793Y-80624367D01*
X183686920Y-81081214D01*
X183686920Y-81438762D01*
X183777793Y-81895609D01*
X184036576Y-82282906D01*
X184406361Y-82529988D01*
X184036576Y-82777070D01*
X183943420Y-82916488D01*
X177932785Y-82916488D01*
X177928357Y-78358075D01*
X183395536Y-78358075D01*
X183539796Y-78592988D01*
X184753720Y-78592988D01*
X184753720Y-77233771D01*
X185007720Y-77233771D01*
X185007720Y-78592988D01*
X186221644Y-78592988D01*
X186273816Y-78508030D01*
X188973752Y-78508030D01*
X188999942Y-79103635D01*
X189177484Y-79532259D01*
X189430195Y-79614200D01*
X190304395Y-78740000D01*
X190663605Y-78740000D01*
X191537805Y-79614200D01*
X191790516Y-79532259D01*
X191994248Y-78971970D01*
X191968058Y-78376365D01*
X191790516Y-77947741D01*
X191537805Y-77865800D01*
X190663605Y-78740000D01*
X190304395Y-78740000D01*
X189430195Y-77865800D01*
X189177484Y-77947741D01*
X188973752Y-78508030D01*
X186273816Y-78508030D01*
X186365904Y-78358075D01*
X186172674Y-77805668D01*
X186065930Y-77686195D01*
X189609800Y-77686195D01*
X190484000Y-78560395D01*
X191358200Y-77686195D01*
X191276259Y-77433484D01*
X190715970Y-77229752D01*
X190120365Y-77255942D01*
X189691741Y-77433484D01*
X189609800Y-77686195D01*
X186065930Y-77686195D01*
X185782756Y-77369256D01*
X185255511Y-77115279D01*
X185239746Y-77112630D01*
X185007720Y-77233771D01*
X184753720Y-77233771D01*
X184521694Y-77112630D01*
X184505929Y-77115279D01*
X183978684Y-77369256D01*
X183588766Y-77805668D01*
X183395536Y-78358075D01*
X177928357Y-78358075D01*
X177923531Y-73391488D01*
X192909531Y-73391488D01*
X192918785Y-82916488D01*
G36*
X192886347Y-98933000D02*
X185809008Y-98933000D01*
X185724864Y-98807070D01*
X185355079Y-98559988D01*
X185724864Y-98312906D01*
X185983647Y-97925609D01*
X186065438Y-97514420D01*
X189289993Y-97514420D01*
X189471355Y-97953350D01*
X189806884Y-98289464D01*
X190245497Y-98471592D01*
X190720420Y-98472007D01*
X191159350Y-98290645D01*
X191495464Y-97955116D01*
X191677592Y-97516503D01*
X191678007Y-97041580D01*
X191496645Y-96602650D01*
X191161116Y-96266536D01*
X190950945Y-96179265D01*
X191276259Y-96044516D01*
X191358200Y-95791805D01*
X190484000Y-94917605D01*
X189609800Y-95791805D01*
X189691741Y-96044516D01*
X190038215Y-96170501D01*
X189808650Y-96265355D01*
X189472536Y-96600884D01*
X189290408Y-97039497D01*
X189289993Y-97514420D01*
X186065438Y-97514420D01*
X186074520Y-97468762D01*
X186074520Y-97111214D01*
X185983647Y-96654367D01*
X185724864Y-96267070D01*
X185604449Y-96186611D01*
X185782756Y-96100720D01*
X186172674Y-95664308D01*
X186365904Y-95111901D01*
X186221644Y-94876988D01*
X185007720Y-94876988D01*
X185007720Y-94896988D01*
X184753720Y-94896988D01*
X184753720Y-94876988D01*
X183539796Y-94876988D01*
X183395536Y-95111901D01*
X183588766Y-95664308D01*
X183978684Y-96100720D01*
X184156991Y-96186611D01*
X184036576Y-96267070D01*
X183777793Y-96654367D01*
X183686920Y-97111214D01*
X183686920Y-97468762D01*
X183777793Y-97925609D01*
X184036576Y-98312906D01*
X184406361Y-98559988D01*
X184036576Y-98807070D01*
X183952432Y-98933000D01*
X177900349Y-98933000D01*
X177912898Y-94388075D01*
X183395536Y-94388075D01*
X183539796Y-94622988D01*
X184753720Y-94622988D01*
X184753720Y-93263771D01*
X185007720Y-93263771D01*
X185007720Y-94622988D01*
X186221644Y-94622988D01*
X186293467Y-94506030D01*
X188973752Y-94506030D01*
X188999942Y-95101635D01*
X189177484Y-95530259D01*
X189430195Y-95612200D01*
X190304395Y-94738000D01*
X190663605Y-94738000D01*
X191537805Y-95612200D01*
X191790516Y-95530259D01*
X191994248Y-94969970D01*
X191968058Y-94374365D01*
X191790516Y-93945741D01*
X191537805Y-93863800D01*
X190663605Y-94738000D01*
X190304395Y-94738000D01*
X189430195Y-93863800D01*
X189177484Y-93945741D01*
X188973752Y-94506030D01*
X186293467Y-94506030D01*
X186365904Y-94388075D01*
X186172674Y-93835668D01*
X186037339Y-93684195D01*
X189609800Y-93684195D01*
X190484000Y-94558395D01*
X191358200Y-93684195D01*
X191276259Y-93431484D01*
X190715970Y-93227752D01*
X190120365Y-93253942D01*
X189691741Y-93431484D01*
X189609800Y-93684195D01*
X186037339Y-93684195D01*
X185782756Y-93399256D01*
X185255511Y-93145279D01*
X185239746Y-93142630D01*
X185007720Y-93263771D01*
X184753720Y-93263771D01*
X184521694Y-93142630D01*
X184505929Y-93145279D01*
X183978684Y-93399256D01*
X183588766Y-93835668D01*
X183395536Y-94388075D01*
X177912898Y-94388075D01*
X177926650Y-89408000D01*
X192912648Y-89408000D01*
X192886347Y-98933000D01*
X192886347Y-98933000D01*
G37*
X192886347Y-98933000D02*
X185809008Y-98933000D01*
X185724864Y-98807070D01*
X185355079Y-98559988D01*
X185724864Y-98312906D01*
X185983647Y-97925609D01*
X186065438Y-97514420D01*
X189289993Y-97514420D01*
X189471355Y-97953350D01*
X189806884Y-98289464D01*
X190245497Y-98471592D01*
X190720420Y-98472007D01*
X191159350Y-98290645D01*
X191495464Y-97955116D01*
X191677592Y-97516503D01*
X191678007Y-97041580D01*
X191496645Y-96602650D01*
X191161116Y-96266536D01*
X190950945Y-96179265D01*
X191276259Y-96044516D01*
X191358200Y-95791805D01*
X190484000Y-94917605D01*
X189609800Y-95791805D01*
X189691741Y-96044516D01*
X190038215Y-96170501D01*
X189808650Y-96265355D01*
X189472536Y-96600884D01*
X189290408Y-97039497D01*
X189289993Y-97514420D01*
X186065438Y-97514420D01*
X186074520Y-97468762D01*
X186074520Y-97111214D01*
X185983647Y-96654367D01*
X185724864Y-96267070D01*
X185604449Y-96186611D01*
X185782756Y-96100720D01*
X186172674Y-95664308D01*
X186365904Y-95111901D01*
X186221644Y-94876988D01*
X185007720Y-94876988D01*
X185007720Y-94896988D01*
X184753720Y-94896988D01*
X184753720Y-94876988D01*
X183539796Y-94876988D01*
X183395536Y-95111901D01*
X183588766Y-95664308D01*
X183978684Y-96100720D01*
X184156991Y-96186611D01*
X184036576Y-96267070D01*
X183777793Y-96654367D01*
X183686920Y-97111214D01*
X183686920Y-97468762D01*
X183777793Y-97925609D01*
X184036576Y-98312906D01*
X184406361Y-98559988D01*
X184036576Y-98807070D01*
X183952432Y-98933000D01*
X177900349Y-98933000D01*
X177912898Y-94388075D01*
X183395536Y-94388075D01*
X183539796Y-94622988D01*
X184753720Y-94622988D01*
X184753720Y-93263771D01*
X185007720Y-93263771D01*
X185007720Y-94622988D01*
X186221644Y-94622988D01*
X186293467Y-94506030D01*
X188973752Y-94506030D01*
X188999942Y-95101635D01*
X189177484Y-95530259D01*
X189430195Y-95612200D01*
X190304395Y-94738000D01*
X190663605Y-94738000D01*
X191537805Y-95612200D01*
X191790516Y-95530259D01*
X191994248Y-94969970D01*
X191968058Y-94374365D01*
X191790516Y-93945741D01*
X191537805Y-93863800D01*
X190663605Y-94738000D01*
X190304395Y-94738000D01*
X189430195Y-93863800D01*
X189177484Y-93945741D01*
X188973752Y-94506030D01*
X186293467Y-94506030D01*
X186365904Y-94388075D01*
X186172674Y-93835668D01*
X186037339Y-93684195D01*
X189609800Y-93684195D01*
X190484000Y-94558395D01*
X191358200Y-93684195D01*
X191276259Y-93431484D01*
X190715970Y-93227752D01*
X190120365Y-93253942D01*
X189691741Y-93431484D01*
X189609800Y-93684195D01*
X186037339Y-93684195D01*
X185782756Y-93399256D01*
X185255511Y-93145279D01*
X185239746Y-93142630D01*
X185007720Y-93263771D01*
X184753720Y-93263771D01*
X184521694Y-93142630D01*
X184505929Y-93145279D01*
X183978684Y-93399256D01*
X183588766Y-93835668D01*
X183395536Y-94388075D01*
X177912898Y-94388075D01*
X177926650Y-89408000D01*
X192912648Y-89408000D01*
X192886347Y-98933000D01*
G36*
X192924963Y-114935000D02*
X185813764Y-114935000D01*
X185719264Y-114793570D01*
X185349479Y-114546488D01*
X185719264Y-114299406D01*
X185978047Y-113912109D01*
X186055959Y-113520420D01*
X189289993Y-113520420D01*
X189471355Y-113959350D01*
X189806884Y-114295464D01*
X190245497Y-114477592D01*
X190720420Y-114478007D01*
X191159350Y-114296645D01*
X191495464Y-113961116D01*
X191677592Y-113522503D01*
X191678007Y-113047580D01*
X191496645Y-112608650D01*
X191161116Y-112272536D01*
X190950945Y-112185265D01*
X191276259Y-112050516D01*
X191358200Y-111797805D01*
X190484000Y-110923605D01*
X189609800Y-111797805D01*
X189691741Y-112050516D01*
X190038215Y-112176501D01*
X189808650Y-112271355D01*
X189472536Y-112606884D01*
X189290408Y-113045497D01*
X189289993Y-113520420D01*
X186055959Y-113520420D01*
X186068920Y-113455262D01*
X186068920Y-113097714D01*
X185978047Y-112640867D01*
X185719264Y-112253570D01*
X185598849Y-112173111D01*
X185777156Y-112087220D01*
X186167074Y-111650808D01*
X186360304Y-111098401D01*
X186216044Y-110863488D01*
X185002120Y-110863488D01*
X185002120Y-110883488D01*
X184748120Y-110883488D01*
X184748120Y-110863488D01*
X183534196Y-110863488D01*
X183389936Y-111098401D01*
X183583166Y-111650808D01*
X183973084Y-112087220D01*
X184151391Y-112173111D01*
X184030976Y-112253570D01*
X183772193Y-112640867D01*
X183681320Y-113097714D01*
X183681320Y-113455262D01*
X183772193Y-113912109D01*
X184030976Y-114299406D01*
X184400761Y-114546488D01*
X184030976Y-114793570D01*
X183936476Y-114935000D01*
X177938963Y-114935000D01*
X177938963Y-110374575D01*
X183389936Y-110374575D01*
X183534196Y-110609488D01*
X184748120Y-110609488D01*
X184748120Y-109250271D01*
X185002120Y-109250271D01*
X185002120Y-110609488D01*
X186216044Y-110609488D01*
X186275892Y-110512030D01*
X188973752Y-110512030D01*
X188999942Y-111107635D01*
X189177484Y-111536259D01*
X189430195Y-111618200D01*
X190304395Y-110744000D01*
X190663605Y-110744000D01*
X191537805Y-111618200D01*
X191790516Y-111536259D01*
X191994248Y-110975970D01*
X191968058Y-110380365D01*
X191790516Y-109951741D01*
X191537805Y-109869800D01*
X190663605Y-110744000D01*
X190304395Y-110744000D01*
X189430195Y-109869800D01*
X189177484Y-109951741D01*
X188973752Y-110512030D01*
X186275892Y-110512030D01*
X186360304Y-110374575D01*
X186167074Y-109822168D01*
X186049161Y-109690195D01*
X189609800Y-109690195D01*
X190484000Y-110564395D01*
X191358200Y-109690195D01*
X191276259Y-109437484D01*
X190715970Y-109233752D01*
X190120365Y-109259942D01*
X189691741Y-109437484D01*
X189609800Y-109690195D01*
X186049161Y-109690195D01*
X185777156Y-109385756D01*
X185249911Y-109131779D01*
X185234146Y-109129130D01*
X185002120Y-109250271D01*
X184748120Y-109250271D01*
X184516094Y-109129130D01*
X184500329Y-109131779D01*
X183973084Y-109385756D01*
X183583166Y-109822168D01*
X183389936Y-110374575D01*
X177938963Y-110374575D01*
X177938963Y-105537000D01*
X192924963Y-105537000D01*
X192924963Y-114935000D01*
X192924963Y-114935000D01*
G37*
X192924963Y-114935000D02*
X185813764Y-114935000D01*
X185719264Y-114793570D01*
X185349479Y-114546488D01*
X185719264Y-114299406D01*
X185978047Y-113912109D01*
X186055959Y-113520420D01*
X189289993Y-113520420D01*
X189471355Y-113959350D01*
X189806884Y-114295464D01*
X190245497Y-114477592D01*
X190720420Y-114478007D01*
X191159350Y-114296645D01*
X191495464Y-113961116D01*
X191677592Y-113522503D01*
X191678007Y-113047580D01*
X191496645Y-112608650D01*
X191161116Y-112272536D01*
X190950945Y-112185265D01*
X191276259Y-112050516D01*
X191358200Y-111797805D01*
X190484000Y-110923605D01*
X189609800Y-111797805D01*
X189691741Y-112050516D01*
X190038215Y-112176501D01*
X189808650Y-112271355D01*
X189472536Y-112606884D01*
X189290408Y-113045497D01*
X189289993Y-113520420D01*
X186055959Y-113520420D01*
X186068920Y-113455262D01*
X186068920Y-113097714D01*
X185978047Y-112640867D01*
X185719264Y-112253570D01*
X185598849Y-112173111D01*
X185777156Y-112087220D01*
X186167074Y-111650808D01*
X186360304Y-111098401D01*
X186216044Y-110863488D01*
X185002120Y-110863488D01*
X185002120Y-110883488D01*
X184748120Y-110883488D01*
X184748120Y-110863488D01*
X183534196Y-110863488D01*
X183389936Y-111098401D01*
X183583166Y-111650808D01*
X183973084Y-112087220D01*
X184151391Y-112173111D01*
X184030976Y-112253570D01*
X183772193Y-112640867D01*
X183681320Y-113097714D01*
X183681320Y-113455262D01*
X183772193Y-113912109D01*
X184030976Y-114299406D01*
X184400761Y-114546488D01*
X184030976Y-114793570D01*
X183936476Y-114935000D01*
X177938963Y-114935000D01*
X177938963Y-110374575D01*
X183389936Y-110374575D01*
X183534196Y-110609488D01*
X184748120Y-110609488D01*
X184748120Y-109250271D01*
X185002120Y-109250271D01*
X185002120Y-110609488D01*
X186216044Y-110609488D01*
X186275892Y-110512030D01*
X188973752Y-110512030D01*
X188999942Y-111107635D01*
X189177484Y-111536259D01*
X189430195Y-111618200D01*
X190304395Y-110744000D01*
X190663605Y-110744000D01*
X191537805Y-111618200D01*
X191790516Y-111536259D01*
X191994248Y-110975970D01*
X191968058Y-110380365D01*
X191790516Y-109951741D01*
X191537805Y-109869800D01*
X190663605Y-110744000D01*
X190304395Y-110744000D01*
X189430195Y-109869800D01*
X189177484Y-109951741D01*
X188973752Y-110512030D01*
X186275892Y-110512030D01*
X186360304Y-110374575D01*
X186167074Y-109822168D01*
X186049161Y-109690195D01*
X189609800Y-109690195D01*
X190484000Y-110564395D01*
X191358200Y-109690195D01*
X191276259Y-109437484D01*
X190715970Y-109233752D01*
X190120365Y-109259942D01*
X189691741Y-109437484D01*
X189609800Y-109690195D01*
X186049161Y-109690195D01*
X185777156Y-109385756D01*
X185249911Y-109131779D01*
X185234146Y-109129130D01*
X185002120Y-109250271D01*
X184748120Y-109250271D01*
X184516094Y-109129130D01*
X184500329Y-109131779D01*
X183973084Y-109385756D01*
X183583166Y-109822168D01*
X183389936Y-110374575D01*
X177938963Y-110374575D01*
X177938963Y-105537000D01*
X192924963Y-105537000D01*
X192924963Y-114935000D01*
G36*
X192913000Y-130937000D02*
X185803408Y-130937000D01*
X185719264Y-130811070D01*
X185349479Y-130563988D01*
X185719264Y-130316906D01*
X185978047Y-129929609D01*
X186059042Y-129522420D01*
X189289993Y-129522420D01*
X189471355Y-129961350D01*
X189806884Y-130297464D01*
X190245497Y-130479592D01*
X190720420Y-130480007D01*
X191159350Y-130298645D01*
X191495464Y-129963116D01*
X191677592Y-129524503D01*
X191678007Y-129049580D01*
X191496645Y-128610650D01*
X191161116Y-128274536D01*
X190950945Y-128187265D01*
X191276259Y-128052516D01*
X191358200Y-127799805D01*
X190484000Y-126925605D01*
X189609800Y-127799805D01*
X189691741Y-128052516D01*
X190038215Y-128178501D01*
X189808650Y-128273355D01*
X189472536Y-128608884D01*
X189290408Y-129047497D01*
X189289993Y-129522420D01*
X186059042Y-129522420D01*
X186068920Y-129472762D01*
X186068920Y-129115214D01*
X185978047Y-128658367D01*
X185719264Y-128271070D01*
X185598849Y-128190611D01*
X185777156Y-128104720D01*
X186167074Y-127668308D01*
X186360304Y-127115901D01*
X186216044Y-126880988D01*
X185002120Y-126880988D01*
X185002120Y-126900988D01*
X184748120Y-126900988D01*
X184748120Y-126880988D01*
X183534196Y-126880988D01*
X183389936Y-127115901D01*
X183583166Y-127668308D01*
X183973084Y-128104720D01*
X184151391Y-128190611D01*
X184030976Y-128271070D01*
X183772193Y-128658367D01*
X183681320Y-129115214D01*
X183681320Y-129472762D01*
X183772193Y-129929609D01*
X184030976Y-130316906D01*
X184400761Y-130563988D01*
X184030976Y-130811070D01*
X183946832Y-130937000D01*
X177927000Y-130937000D01*
X177927000Y-126392075D01*
X183389936Y-126392075D01*
X183534196Y-126626988D01*
X184748120Y-126626988D01*
X184748120Y-125267771D01*
X185002120Y-125267771D01*
X185002120Y-126626988D01*
X186216044Y-126626988D01*
X186285411Y-126514030D01*
X188973752Y-126514030D01*
X188999942Y-127109635D01*
X189177484Y-127538259D01*
X189430195Y-127620200D01*
X190304395Y-126746000D01*
X190663605Y-126746000D01*
X191537805Y-127620200D01*
X191790516Y-127538259D01*
X191994248Y-126977970D01*
X191968058Y-126382365D01*
X191790516Y-125953741D01*
X191537805Y-125871800D01*
X190663605Y-126746000D01*
X190304395Y-126746000D01*
X189430195Y-125871800D01*
X189177484Y-125953741D01*
X188973752Y-126514030D01*
X186285411Y-126514030D01*
X186360304Y-126392075D01*
X186167074Y-125839668D01*
X186035313Y-125692195D01*
X189609800Y-125692195D01*
X190484000Y-126566395D01*
X191358200Y-125692195D01*
X191276259Y-125439484D01*
X190715970Y-125235752D01*
X190120365Y-125261942D01*
X189691741Y-125439484D01*
X189609800Y-125692195D01*
X186035313Y-125692195D01*
X185777156Y-125403256D01*
X185249911Y-125149279D01*
X185234146Y-125146630D01*
X185002120Y-125267771D01*
X184748120Y-125267771D01*
X184516094Y-125146630D01*
X184500329Y-125149279D01*
X183973084Y-125403256D01*
X183583166Y-125839668D01*
X183389936Y-126392075D01*
X177927000Y-126392075D01*
X177927000Y-121412000D01*
X192913000Y-121412000D01*
X192913000Y-130937000D01*
X192913000Y-130937000D01*
G37*
X192913000Y-130937000D02*
X185803408Y-130937000D01*
X185719264Y-130811070D01*
X185349479Y-130563988D01*
X185719264Y-130316906D01*
X185978047Y-129929609D01*
X186059042Y-129522420D01*
X189289993Y-129522420D01*
X189471355Y-129961350D01*
X189806884Y-130297464D01*
X190245497Y-130479592D01*
X190720420Y-130480007D01*
X191159350Y-130298645D01*
X191495464Y-129963116D01*
X191677592Y-129524503D01*
X191678007Y-129049580D01*
X191496645Y-128610650D01*
X191161116Y-128274536D01*
X190950945Y-128187265D01*
X191276259Y-128052516D01*
X191358200Y-127799805D01*
X190484000Y-126925605D01*
X189609800Y-127799805D01*
X189691741Y-128052516D01*
X190038215Y-128178501D01*
X189808650Y-128273355D01*
X189472536Y-128608884D01*
X189290408Y-129047497D01*
X189289993Y-129522420D01*
X186059042Y-129522420D01*
X186068920Y-129472762D01*
X186068920Y-129115214D01*
X185978047Y-128658367D01*
X185719264Y-128271070D01*
X185598849Y-128190611D01*
X185777156Y-128104720D01*
X186167074Y-127668308D01*
X186360304Y-127115901D01*
X186216044Y-126880988D01*
X185002120Y-126880988D01*
X185002120Y-126900988D01*
X184748120Y-126900988D01*
X184748120Y-126880988D01*
X183534196Y-126880988D01*
X183389936Y-127115901D01*
X183583166Y-127668308D01*
X183973084Y-128104720D01*
X184151391Y-128190611D01*
X184030976Y-128271070D01*
X183772193Y-128658367D01*
X183681320Y-129115214D01*
X183681320Y-129472762D01*
X183772193Y-129929609D01*
X184030976Y-130316906D01*
X184400761Y-130563988D01*
X184030976Y-130811070D01*
X183946832Y-130937000D01*
X177927000Y-130937000D01*
X177927000Y-126392075D01*
X183389936Y-126392075D01*
X183534196Y-126626988D01*
X184748120Y-126626988D01*
X184748120Y-125267771D01*
X185002120Y-125267771D01*
X185002120Y-126626988D01*
X186216044Y-126626988D01*
X186285411Y-126514030D01*
X188973752Y-126514030D01*
X188999942Y-127109635D01*
X189177484Y-127538259D01*
X189430195Y-127620200D01*
X190304395Y-126746000D01*
X190663605Y-126746000D01*
X191537805Y-127620200D01*
X191790516Y-127538259D01*
X191994248Y-126977970D01*
X191968058Y-126382365D01*
X191790516Y-125953741D01*
X191537805Y-125871800D01*
X190663605Y-126746000D01*
X190304395Y-126746000D01*
X189430195Y-125871800D01*
X189177484Y-125953741D01*
X188973752Y-126514030D01*
X186285411Y-126514030D01*
X186360304Y-126392075D01*
X186167074Y-125839668D01*
X186035313Y-125692195D01*
X189609800Y-125692195D01*
X190484000Y-126566395D01*
X191358200Y-125692195D01*
X191276259Y-125439484D01*
X190715970Y-125235752D01*
X190120365Y-125261942D01*
X189691741Y-125439484D01*
X189609800Y-125692195D01*
X186035313Y-125692195D01*
X185777156Y-125403256D01*
X185249911Y-125149279D01*
X185234146Y-125146630D01*
X185002120Y-125267771D01*
X184748120Y-125267771D01*
X184516094Y-125146630D01*
X184500329Y-125149279D01*
X183973084Y-125403256D01*
X183583166Y-125839668D01*
X183389936Y-126392075D01*
X177927000Y-126392075D01*
X177927000Y-121412000D01*
X192913000Y-121412000D01*
X192913000Y-130937000D01*
M02*
