G04 #@! TF.FileFunction,Soldermask,Top*
%FSLAX46Y46*%
G04 Gerber Fmt 4.6, Leading zero omitted, Abs format (unit mm)*
G04 Created by KiCad (PCBNEW 4.0.7-e1-6374~58~ubuntu16.04.1) date Wed Sep 27 13:53:11 2017*
%MOMM*%
%LPD*%
G01*
G04 APERTURE LIST*
%ADD10C,0.100000*%
%ADD11C,2.127200*%
%ADD12C,2.600000*%
%ADD13R,1.600000X1.300000*%
%ADD14R,1.300000X1.600000*%
%ADD15R,2.100000X2.100000*%
%ADD16O,2.100000X2.100000*%
%ADD17O,2.432000X2.127200*%
%ADD18R,1.400000X1.500000*%
%ADD19R,1.500000X1.400000*%
%ADD20R,1.100000X1.400000*%
%ADD21R,1.100000X1.000000*%
%ADD22R,1.400000X1.900000*%
%ADD23R,1.150000X2.500000*%
%ADD24R,0.800000X1.750000*%
%ADD25C,1.600000*%
%ADD26O,1.700000X2.100000*%
%ADD27R,1.050000X1.450000*%
%ADD28R,1.850000X1.100000*%
%ADD29R,1.200000X1.600000*%
%ADD30R,1.200000X2.600000*%
%ADD31R,2.400000X2.900000*%
%ADD32R,0.850000X2.150000*%
%ADD33R,0.860000X2.150000*%
%ADD34R,1.450000X1.050000*%
G04 APERTURE END LIST*
D10*
D11*
X190484000Y-94738000D03*
X190484000Y-97278000D03*
D12*
X195564000Y-92198000D03*
X195564000Y-102358000D03*
D13*
X159153500Y-71628000D03*
X161353500Y-71628000D03*
X155849500Y-71628000D03*
X153649500Y-71628000D03*
X151447500Y-71628000D03*
X149247500Y-71628000D03*
X149583500Y-59182000D03*
X147383500Y-59182000D03*
X152510252Y-59199762D03*
X154710252Y-59199762D03*
D14*
X147256500Y-63350500D03*
X147256500Y-61150500D03*
X158940500Y-65278000D03*
X158940500Y-63078000D03*
D15*
X113766516Y-59462536D03*
D16*
X113766516Y-62002536D03*
X113766516Y-64542536D03*
X113766516Y-67082536D03*
X113766516Y-69622536D03*
D13*
X143721000Y-132080000D03*
X141521000Y-132080000D03*
X143721000Y-134112000D03*
X141521000Y-134112000D03*
X159153500Y-69850000D03*
X161353500Y-69850000D03*
X161290000Y-58983836D03*
X159090000Y-58983836D03*
X159153500Y-67691000D03*
X161353500Y-67691000D03*
X161290000Y-60761836D03*
X159090000Y-60761836D03*
D17*
X118237000Y-92456000D03*
X118237000Y-94996000D03*
X118237000Y-97536000D03*
X118237000Y-100076000D03*
X138557000Y-102616000D03*
X118237000Y-102616000D03*
X138557000Y-105156000D03*
X118237000Y-105156000D03*
X138557000Y-107696000D03*
X118237000Y-107696000D03*
X138557000Y-110236000D03*
X118237000Y-110236000D03*
X138557000Y-112776000D03*
X118237000Y-112776000D03*
X138557000Y-115316000D03*
X118237000Y-115316000D03*
X138557000Y-117856000D03*
X118237000Y-117856000D03*
X138557000Y-120396000D03*
X118237000Y-120396000D03*
X138557000Y-122936000D03*
X118237000Y-122936000D03*
X138557000Y-125476000D03*
X118237000Y-125476000D03*
X138557000Y-128016000D03*
X118237000Y-128016000D03*
X138557000Y-130556000D03*
X118237000Y-130556000D03*
D11*
X167195500Y-62738000D03*
X167195500Y-65278000D03*
X167195500Y-67818000D03*
X184975500Y-62738000D03*
X184975500Y-65278000D03*
X184975500Y-67818000D03*
D13*
X155849500Y-87628000D03*
X153649500Y-87628000D03*
X151447500Y-87628000D03*
X149247500Y-87628000D03*
X149583500Y-75182000D03*
X147383500Y-75182000D03*
X152510252Y-75199762D03*
X154710252Y-75199762D03*
D14*
X147256500Y-79350500D03*
X147256500Y-77150500D03*
X158940500Y-81278000D03*
X158940500Y-79078000D03*
D13*
X155849500Y-103628000D03*
X153649500Y-103628000D03*
X151447500Y-103628000D03*
X149247500Y-103628000D03*
X149583500Y-91182000D03*
X147383500Y-91182000D03*
X152510252Y-91199762D03*
X154710252Y-91199762D03*
D14*
X147256500Y-95350500D03*
X147256500Y-93150500D03*
X158940500Y-97278000D03*
X158940500Y-95078000D03*
D13*
X155849500Y-119628000D03*
X153649500Y-119628000D03*
X151447500Y-119628000D03*
X149247500Y-119628000D03*
X149583500Y-107182000D03*
X147383500Y-107182000D03*
X152510252Y-107199762D03*
X154710252Y-107199762D03*
D14*
X147256500Y-111350500D03*
X147256500Y-109150500D03*
X158940500Y-113278000D03*
X158940500Y-111078000D03*
D13*
X155849500Y-135628000D03*
X153649500Y-135628000D03*
X151447500Y-135628000D03*
X149247500Y-135628000D03*
X149583500Y-123182000D03*
X147383500Y-123182000D03*
X152510252Y-123199762D03*
X154710252Y-123199762D03*
D14*
X147256500Y-127350500D03*
X147256500Y-125150500D03*
X158940500Y-129278000D03*
X158940500Y-127078000D03*
D13*
X159153500Y-87628000D03*
X161353500Y-87628000D03*
X159153500Y-85850000D03*
X161353500Y-85850000D03*
X161290000Y-74983836D03*
X159090000Y-74983836D03*
X159153500Y-83691000D03*
X161353500Y-83691000D03*
X161290000Y-76761836D03*
X159090000Y-76761836D03*
X159153500Y-103628000D03*
X161353500Y-103628000D03*
X159153500Y-101850000D03*
X161353500Y-101850000D03*
X161290000Y-90983836D03*
X159090000Y-90983836D03*
X159153500Y-99691000D03*
X161353500Y-99691000D03*
X161290000Y-92761836D03*
X159090000Y-92761836D03*
X159153500Y-119628000D03*
X161353500Y-119628000D03*
X159153500Y-117850000D03*
X161353500Y-117850000D03*
X161290000Y-106983836D03*
X159090000Y-106983836D03*
X159153500Y-115691000D03*
X161353500Y-115691000D03*
X161290000Y-108761836D03*
X159090000Y-108761836D03*
X159153500Y-135628000D03*
X161353500Y-135628000D03*
X159153500Y-133850000D03*
X161353500Y-133850000D03*
X161290000Y-122983836D03*
X159090000Y-122983836D03*
X159153500Y-131691000D03*
X161353500Y-131691000D03*
X161290000Y-124761836D03*
X159090000Y-124761836D03*
D11*
X167195500Y-78738000D03*
X167195500Y-81278000D03*
X167195500Y-83818000D03*
X184975500Y-78738000D03*
X184975500Y-81278000D03*
X184975500Y-83818000D03*
X167195500Y-94738000D03*
X167195500Y-97278000D03*
X167195500Y-99818000D03*
X184975500Y-94738000D03*
X184975500Y-97278000D03*
X184975500Y-99818000D03*
X167195500Y-110738000D03*
X167195500Y-113278000D03*
X167195500Y-115818000D03*
X184975500Y-110738000D03*
X184975500Y-113278000D03*
X184975500Y-115818000D03*
X167195500Y-126738000D03*
X167195500Y-129278000D03*
X167195500Y-131818000D03*
X184975500Y-126738000D03*
X184975500Y-129278000D03*
X184975500Y-131818000D03*
X190420500Y-62738000D03*
X190420500Y-65278000D03*
D12*
X195500500Y-60198000D03*
X195500500Y-70358000D03*
D11*
X190484000Y-78740000D03*
X190484000Y-81280000D03*
D12*
X195564000Y-76200000D03*
X195564000Y-86360000D03*
D11*
X190484000Y-110744000D03*
X190484000Y-113284000D03*
D12*
X195564000Y-108204000D03*
X195564000Y-118364000D03*
D11*
X190484000Y-126746000D03*
X190484000Y-129286000D03*
D12*
X195564000Y-124206000D03*
X195564000Y-134366000D03*
D15*
X136626516Y-59382536D03*
D16*
X136626516Y-61922536D03*
X136626516Y-64462536D03*
X136626516Y-67002536D03*
X136626516Y-69542536D03*
X136626516Y-72082536D03*
D18*
X125603000Y-85635200D03*
X125603000Y-83935200D03*
X127381000Y-85635200D03*
X127381000Y-83935200D03*
D10*
G36*
X133414896Y-81749154D02*
X134404846Y-82739104D01*
X133344186Y-83799764D01*
X132354236Y-82809814D01*
X133414896Y-81749154D01*
X133414896Y-81749154D01*
G37*
G36*
X132212814Y-82951236D02*
X133202764Y-83941186D01*
X132142104Y-85001846D01*
X131152154Y-84011896D01*
X132212814Y-82951236D01*
X132212814Y-82951236D01*
G37*
G36*
X135192896Y-83527154D02*
X136182846Y-84517104D01*
X135122186Y-85577764D01*
X134132236Y-84587814D01*
X135192896Y-83527154D01*
X135192896Y-83527154D01*
G37*
G36*
X133990814Y-84729236D02*
X134980764Y-85719186D01*
X133920104Y-86779846D01*
X132930154Y-85789896D01*
X133990814Y-84729236D01*
X133990814Y-84729236D01*
G37*
D18*
X136753600Y-89038800D03*
X136753600Y-87338800D03*
X138531600Y-89038800D03*
X138531600Y-87338800D03*
X123850400Y-85228800D03*
X123850400Y-83528800D03*
X123698000Y-97956000D03*
X123698000Y-99656000D03*
X138633200Y-97956000D03*
X138633200Y-99656000D03*
D19*
X123633600Y-128270000D03*
X121933600Y-128270000D03*
X127951600Y-124714000D03*
X126251600Y-124714000D03*
X123633600Y-124764800D03*
X121933600Y-124764800D03*
X118733200Y-134061200D03*
X120433200Y-134061200D03*
X123633600Y-126441200D03*
X121933600Y-126441200D03*
X122086000Y-116332000D03*
X123786000Y-116332000D03*
D20*
X133876800Y-127226800D03*
D21*
X133876800Y-125526800D03*
X131876800Y-125526800D03*
X131876800Y-127426800D03*
D22*
X127947600Y-128524000D03*
X125747600Y-128524000D03*
D23*
X122174000Y-74530400D03*
X122174000Y-78130400D03*
X123444000Y-74530400D03*
X123444000Y-78130400D03*
X124714000Y-74530400D03*
X124714000Y-78130400D03*
X125984000Y-74530400D03*
X125984000Y-78130400D03*
X127254000Y-74530400D03*
X127254000Y-78130400D03*
D24*
X124938000Y-132662000D03*
X125588000Y-132662000D03*
X126238000Y-132662000D03*
X126888000Y-132662000D03*
X127538000Y-132662000D03*
D25*
X123813000Y-132587000D03*
X128663000Y-132587000D03*
D26*
X122613000Y-135237000D03*
X129863000Y-135237000D03*
D18*
X122072400Y-85228800D03*
X122072400Y-83528800D03*
D19*
X126251600Y-126441200D03*
X127951600Y-126441200D03*
D27*
X117185400Y-69196600D03*
X119085400Y-69196600D03*
X118135400Y-66896600D03*
X117185400Y-65005600D03*
X119085400Y-65005600D03*
X118135400Y-62705600D03*
X117182900Y-60776500D03*
X119082900Y-60776500D03*
X118132900Y-58476500D03*
D19*
X122604900Y-62712600D03*
X120904900Y-62712600D03*
X122668400Y-58483500D03*
X120968400Y-58483500D03*
X142723648Y-93980000D03*
X141023648Y-93980000D03*
X142723648Y-92297298D03*
X141023648Y-92297298D03*
X118733200Y-135737600D03*
X120433200Y-135737600D03*
D28*
X133644000Y-58499500D03*
X128484000Y-58499500D03*
X128484000Y-60499500D03*
X133644000Y-60499500D03*
D10*
G36*
X130308279Y-88905811D02*
X130767898Y-88446192D01*
X131969979Y-89648273D01*
X131510360Y-90107892D01*
X130308279Y-88905811D01*
X130308279Y-88905811D01*
G37*
G36*
X129954726Y-89259364D02*
X130414345Y-88799745D01*
X131616426Y-90001826D01*
X131156807Y-90461445D01*
X129954726Y-89259364D01*
X129954726Y-89259364D01*
G37*
G36*
X129601172Y-89612918D02*
X130060791Y-89153299D01*
X131262872Y-90355380D01*
X130803253Y-90814999D01*
X129601172Y-89612918D01*
X129601172Y-89612918D01*
G37*
G36*
X129247619Y-89966471D02*
X129707238Y-89506852D01*
X130909319Y-90708933D01*
X130449700Y-91168552D01*
X129247619Y-89966471D01*
X129247619Y-89966471D01*
G37*
G36*
X128894066Y-90320024D02*
X129353685Y-89860405D01*
X130555766Y-91062486D01*
X130096147Y-91522105D01*
X128894066Y-90320024D01*
X128894066Y-90320024D01*
G37*
G36*
X128540512Y-90673578D02*
X129000131Y-90213959D01*
X130202212Y-91416040D01*
X129742593Y-91875659D01*
X128540512Y-90673578D01*
X128540512Y-90673578D01*
G37*
G36*
X128186959Y-91027131D02*
X128646578Y-90567512D01*
X129848659Y-91769593D01*
X129389040Y-92229212D01*
X128186959Y-91027131D01*
X128186959Y-91027131D01*
G37*
G36*
X127833405Y-91380685D02*
X128293024Y-90921066D01*
X129495105Y-92123147D01*
X129035486Y-92582766D01*
X127833405Y-91380685D01*
X127833405Y-91380685D01*
G37*
G36*
X127479852Y-91734238D02*
X127939471Y-91274619D01*
X129141552Y-92476700D01*
X128681933Y-92936319D01*
X127479852Y-91734238D01*
X127479852Y-91734238D01*
G37*
G36*
X127126299Y-92087791D02*
X127585918Y-91628172D01*
X128787999Y-92830253D01*
X128328380Y-93289872D01*
X127126299Y-92087791D01*
X127126299Y-92087791D01*
G37*
G36*
X126772745Y-92441345D02*
X127232364Y-91981726D01*
X128434445Y-93183807D01*
X127974826Y-93643426D01*
X126772745Y-92441345D01*
X126772745Y-92441345D01*
G37*
G36*
X126419192Y-92794898D02*
X126878811Y-92335279D01*
X128080892Y-93537360D01*
X127621273Y-93996979D01*
X126419192Y-92794898D01*
X126419192Y-92794898D01*
G37*
G36*
X126878811Y-96259721D02*
X126419192Y-95800102D01*
X127621273Y-94598021D01*
X128080892Y-95057640D01*
X126878811Y-96259721D01*
X126878811Y-96259721D01*
G37*
G36*
X127232364Y-96613274D02*
X126772745Y-96153655D01*
X127974826Y-94951574D01*
X128434445Y-95411193D01*
X127232364Y-96613274D01*
X127232364Y-96613274D01*
G37*
G36*
X127585918Y-96966828D02*
X127126299Y-96507209D01*
X128328380Y-95305128D01*
X128787999Y-95764747D01*
X127585918Y-96966828D01*
X127585918Y-96966828D01*
G37*
G36*
X127939471Y-97320381D02*
X127479852Y-96860762D01*
X128681933Y-95658681D01*
X129141552Y-96118300D01*
X127939471Y-97320381D01*
X127939471Y-97320381D01*
G37*
G36*
X128293024Y-97673934D02*
X127833405Y-97214315D01*
X129035486Y-96012234D01*
X129495105Y-96471853D01*
X128293024Y-97673934D01*
X128293024Y-97673934D01*
G37*
G36*
X128646578Y-98027488D02*
X128186959Y-97567869D01*
X129389040Y-96365788D01*
X129848659Y-96825407D01*
X128646578Y-98027488D01*
X128646578Y-98027488D01*
G37*
G36*
X129000131Y-98381041D02*
X128540512Y-97921422D01*
X129742593Y-96719341D01*
X130202212Y-97178960D01*
X129000131Y-98381041D01*
X129000131Y-98381041D01*
G37*
G36*
X129353685Y-98734595D02*
X128894066Y-98274976D01*
X130096147Y-97072895D01*
X130555766Y-97532514D01*
X129353685Y-98734595D01*
X129353685Y-98734595D01*
G37*
G36*
X129707238Y-99088148D02*
X129247619Y-98628529D01*
X130449700Y-97426448D01*
X130909319Y-97886067D01*
X129707238Y-99088148D01*
X129707238Y-99088148D01*
G37*
G36*
X130060791Y-99441701D02*
X129601172Y-98982082D01*
X130803253Y-97780001D01*
X131262872Y-98239620D01*
X130060791Y-99441701D01*
X130060791Y-99441701D01*
G37*
G36*
X130414345Y-99795255D02*
X129954726Y-99335636D01*
X131156807Y-98133555D01*
X131616426Y-98593174D01*
X130414345Y-99795255D01*
X130414345Y-99795255D01*
G37*
G36*
X130767898Y-100148808D02*
X130308279Y-99689189D01*
X131510360Y-98487108D01*
X131969979Y-98946727D01*
X130767898Y-100148808D01*
X130767898Y-100148808D01*
G37*
G36*
X132571021Y-98946727D02*
X133030640Y-98487108D01*
X134232721Y-99689189D01*
X133773102Y-100148808D01*
X132571021Y-98946727D01*
X132571021Y-98946727D01*
G37*
G36*
X132924574Y-98593174D02*
X133384193Y-98133555D01*
X134586274Y-99335636D01*
X134126655Y-99795255D01*
X132924574Y-98593174D01*
X132924574Y-98593174D01*
G37*
G36*
X133278128Y-98239620D02*
X133737747Y-97780001D01*
X134939828Y-98982082D01*
X134480209Y-99441701D01*
X133278128Y-98239620D01*
X133278128Y-98239620D01*
G37*
G36*
X133631681Y-97886067D02*
X134091300Y-97426448D01*
X135293381Y-98628529D01*
X134833762Y-99088148D01*
X133631681Y-97886067D01*
X133631681Y-97886067D01*
G37*
G36*
X133985234Y-97532514D02*
X134444853Y-97072895D01*
X135646934Y-98274976D01*
X135187315Y-98734595D01*
X133985234Y-97532514D01*
X133985234Y-97532514D01*
G37*
G36*
X134338788Y-97178960D02*
X134798407Y-96719341D01*
X136000488Y-97921422D01*
X135540869Y-98381041D01*
X134338788Y-97178960D01*
X134338788Y-97178960D01*
G37*
G36*
X134692341Y-96825407D02*
X135151960Y-96365788D01*
X136354041Y-97567869D01*
X135894422Y-98027488D01*
X134692341Y-96825407D01*
X134692341Y-96825407D01*
G37*
G36*
X135045895Y-96471853D02*
X135505514Y-96012234D01*
X136707595Y-97214315D01*
X136247976Y-97673934D01*
X135045895Y-96471853D01*
X135045895Y-96471853D01*
G37*
G36*
X135399448Y-96118300D02*
X135859067Y-95658681D01*
X137061148Y-96860762D01*
X136601529Y-97320381D01*
X135399448Y-96118300D01*
X135399448Y-96118300D01*
G37*
G36*
X135753001Y-95764747D02*
X136212620Y-95305128D01*
X137414701Y-96507209D01*
X136955082Y-96966828D01*
X135753001Y-95764747D01*
X135753001Y-95764747D01*
G37*
G36*
X136106555Y-95411193D02*
X136566174Y-94951574D01*
X137768255Y-96153655D01*
X137308636Y-96613274D01*
X136106555Y-95411193D01*
X136106555Y-95411193D01*
G37*
G36*
X136460108Y-95057640D02*
X136919727Y-94598021D01*
X138121808Y-95800102D01*
X137662189Y-96259721D01*
X136460108Y-95057640D01*
X136460108Y-95057640D01*
G37*
G36*
X136919727Y-93996979D02*
X136460108Y-93537360D01*
X137662189Y-92335279D01*
X138121808Y-92794898D01*
X136919727Y-93996979D01*
X136919727Y-93996979D01*
G37*
G36*
X136566174Y-93643426D02*
X136106555Y-93183807D01*
X137308636Y-91981726D01*
X137768255Y-92441345D01*
X136566174Y-93643426D01*
X136566174Y-93643426D01*
G37*
G36*
X136212620Y-93289872D02*
X135753001Y-92830253D01*
X136955082Y-91628172D01*
X137414701Y-92087791D01*
X136212620Y-93289872D01*
X136212620Y-93289872D01*
G37*
G36*
X135859067Y-92936319D02*
X135399448Y-92476700D01*
X136601529Y-91274619D01*
X137061148Y-91734238D01*
X135859067Y-92936319D01*
X135859067Y-92936319D01*
G37*
G36*
X135505514Y-92582766D02*
X135045895Y-92123147D01*
X136247976Y-90921066D01*
X136707595Y-91380685D01*
X135505514Y-92582766D01*
X135505514Y-92582766D01*
G37*
G36*
X135151960Y-92229212D02*
X134692341Y-91769593D01*
X135894422Y-90567512D01*
X136354041Y-91027131D01*
X135151960Y-92229212D01*
X135151960Y-92229212D01*
G37*
G36*
X134798407Y-91875659D02*
X134338788Y-91416040D01*
X135540869Y-90213959D01*
X136000488Y-90673578D01*
X134798407Y-91875659D01*
X134798407Y-91875659D01*
G37*
G36*
X134444853Y-91522105D02*
X133985234Y-91062486D01*
X135187315Y-89860405D01*
X135646934Y-90320024D01*
X134444853Y-91522105D01*
X134444853Y-91522105D01*
G37*
G36*
X134091300Y-91168552D02*
X133631681Y-90708933D01*
X134833762Y-89506852D01*
X135293381Y-89966471D01*
X134091300Y-91168552D01*
X134091300Y-91168552D01*
G37*
G36*
X133737747Y-90814999D02*
X133278128Y-90355380D01*
X134480209Y-89153299D01*
X134939828Y-89612918D01*
X133737747Y-90814999D01*
X133737747Y-90814999D01*
G37*
G36*
X133384193Y-90461445D02*
X132924574Y-90001826D01*
X134126655Y-88799745D01*
X134586274Y-89259364D01*
X133384193Y-90461445D01*
X133384193Y-90461445D01*
G37*
G36*
X133030640Y-90107892D02*
X132571021Y-89648273D01*
X133773102Y-88446192D01*
X134232721Y-88905811D01*
X133030640Y-90107892D01*
X133030640Y-90107892D01*
G37*
D29*
X125096400Y-118849200D03*
D30*
X123596400Y-119349200D03*
D29*
X122096400Y-118849200D03*
D31*
X123596400Y-121699200D03*
D10*
G36*
X129286231Y-85827577D02*
X130912577Y-84201231D01*
X131973237Y-85261891D01*
X130346891Y-86888237D01*
X129286231Y-85827577D01*
X129286231Y-85827577D01*
G37*
G36*
X131053997Y-87595343D02*
X132680343Y-85968997D01*
X133741003Y-87029657D01*
X132114657Y-88656003D01*
X131053997Y-87595343D01*
X131053997Y-87595343D01*
G37*
D19*
X120968400Y-68618100D03*
X122668400Y-68618100D03*
X120904900Y-64427100D03*
X122604900Y-64427100D03*
X120968400Y-60198000D03*
X122668400Y-60198000D03*
X128551200Y-62992000D03*
X130251200Y-62992000D03*
X128537600Y-64871600D03*
X130237600Y-64871600D03*
X122668400Y-66903600D03*
X120968400Y-66903600D03*
D32*
X149906200Y-68986400D03*
X150556200Y-68986400D03*
X151206200Y-68986400D03*
X151856200Y-68986400D03*
X152506200Y-68986400D03*
X153156200Y-68986400D03*
X153806200Y-68986400D03*
X154456200Y-68986400D03*
X155106200Y-68986400D03*
X155756200Y-68986400D03*
X155756200Y-61786400D03*
X155106200Y-61786400D03*
X154456200Y-61786400D03*
X153806200Y-61786400D03*
X153156200Y-61786400D03*
X152506200Y-61786400D03*
X151856200Y-61786400D03*
X151206200Y-61786400D03*
D33*
X150556200Y-61786400D03*
D32*
X149906200Y-61786400D03*
X149912000Y-85013800D03*
X150562000Y-85013800D03*
X151212000Y-85013800D03*
X151862000Y-85013800D03*
X152512000Y-85013800D03*
X153162000Y-85013800D03*
X153812000Y-85013800D03*
X154462000Y-85013800D03*
X155112000Y-85013800D03*
X155762000Y-85013800D03*
X155762000Y-77813800D03*
X155112000Y-77813800D03*
X154462000Y-77813800D03*
X153812000Y-77813800D03*
X153162000Y-77813800D03*
X152512000Y-77813800D03*
X151862000Y-77813800D03*
X151212000Y-77813800D03*
D33*
X150562000Y-77813800D03*
D32*
X149912000Y-77813800D03*
X149906200Y-100965000D03*
X150556200Y-100965000D03*
X151206200Y-100965000D03*
X151856200Y-100965000D03*
X152506200Y-100965000D03*
X153156200Y-100965000D03*
X153806200Y-100965000D03*
X154456200Y-100965000D03*
X155106200Y-100965000D03*
X155756200Y-100965000D03*
X155756200Y-93765000D03*
X155106200Y-93765000D03*
X154456200Y-93765000D03*
X153806200Y-93765000D03*
X153156200Y-93765000D03*
X152506200Y-93765000D03*
X151856200Y-93765000D03*
X151206200Y-93765000D03*
D33*
X150556200Y-93765000D03*
D32*
X149906200Y-93765000D03*
X149901600Y-116967000D03*
X150551600Y-116967000D03*
X151201600Y-116967000D03*
X151851600Y-116967000D03*
X152501600Y-116967000D03*
X153151600Y-116967000D03*
X153801600Y-116967000D03*
X154451600Y-116967000D03*
X155101600Y-116967000D03*
X155751600Y-116967000D03*
X155751600Y-109767000D03*
X155101600Y-109767000D03*
X154451600Y-109767000D03*
X153801600Y-109767000D03*
X153151600Y-109767000D03*
X152501600Y-109767000D03*
X151851600Y-109767000D03*
X151201600Y-109767000D03*
D33*
X150551600Y-109767000D03*
D32*
X149901600Y-109767000D03*
X149901600Y-133107800D03*
X150551600Y-133107800D03*
X151201600Y-133107800D03*
X151851600Y-133107800D03*
X152501600Y-133107800D03*
X153151600Y-133107800D03*
X153801600Y-133107800D03*
X154451600Y-133107800D03*
X155101600Y-133107800D03*
X155751600Y-133107800D03*
X155751600Y-125907800D03*
X155101600Y-125907800D03*
X154451600Y-125907800D03*
X153801600Y-125907800D03*
X153151600Y-125907800D03*
X152501600Y-125907800D03*
X151851600Y-125907800D03*
X151201600Y-125907800D03*
D33*
X150551600Y-125907800D03*
D32*
X149901600Y-125907800D03*
D19*
X125386201Y-105156799D03*
X123686201Y-105156799D03*
D34*
X129521601Y-106937999D03*
X129521601Y-105037999D03*
X127221601Y-105987999D03*
D19*
X123686201Y-106833199D03*
X125386201Y-106833199D03*
M02*
