G04 #@! TF.GenerationSoftware,KiCad,Pcbnew,5.0.1-33cea8e~67~ubuntu18.04.1*
G04 #@! TF.CreationDate,2018-11-30T10:12:15-08:00*
G04 #@! TF.ProjectId,fk-atlas,666B2D61746C61732E6B696361645F70,rev?*
G04 #@! TF.SameCoordinates,Original*
G04 #@! TF.FileFunction,Soldermask,Bot*
G04 #@! TF.FilePolarity,Negative*
%FSLAX46Y46*%
G04 Gerber Fmt 4.6, Leading zero omitted, Abs format (unit mm)*
G04 Created by KiCad (PCBNEW 5.0.1-33cea8e~67~ubuntu18.04.1) date Fri 30 Nov 2018 10:12:15 AM PST*
%MOMM*%
%LPD*%
G01*
G04 APERTURE LIST*
%ADD10C,0.100000*%
G04 APERTURE END LIST*
D10*
G36*
X187547947Y-134395722D02*
X187811833Y-134505027D01*
X188049324Y-134663713D01*
X188251287Y-134865676D01*
X188409973Y-135103167D01*
X188519278Y-135367053D01*
X188575000Y-135647186D01*
X188575000Y-135932814D01*
X188519278Y-136212947D01*
X188409973Y-136476833D01*
X188251287Y-136714324D01*
X188049324Y-136916287D01*
X187811833Y-137074973D01*
X187547947Y-137184278D01*
X187267814Y-137240000D01*
X186982186Y-137240000D01*
X186702053Y-137184278D01*
X186438167Y-137074973D01*
X186200676Y-136916287D01*
X185998713Y-136714324D01*
X185840027Y-136476833D01*
X185730722Y-136212947D01*
X185675000Y-135932814D01*
X185675000Y-135647186D01*
X185730722Y-135367053D01*
X185840027Y-135103167D01*
X185998713Y-134865676D01*
X186200676Y-134663713D01*
X186438167Y-134505027D01*
X186702053Y-134395722D01*
X186982186Y-134340000D01*
X187267814Y-134340000D01*
X187547947Y-134395722D01*
X187547947Y-134395722D01*
G37*
G36*
X117997947Y-134395722D02*
X118261833Y-134505027D01*
X118499324Y-134663713D01*
X118701287Y-134865676D01*
X118859973Y-135103167D01*
X118969278Y-135367053D01*
X119025000Y-135647186D01*
X119025000Y-135932814D01*
X118969278Y-136212947D01*
X118859973Y-136476833D01*
X118701287Y-136714324D01*
X118499324Y-136916287D01*
X118261833Y-137074973D01*
X117997947Y-137184278D01*
X117717814Y-137240000D01*
X117432186Y-137240000D01*
X117152053Y-137184278D01*
X116888167Y-137074973D01*
X116650676Y-136916287D01*
X116448713Y-136714324D01*
X116290027Y-136476833D01*
X116180722Y-136212947D01*
X116125000Y-135932814D01*
X116125000Y-135647186D01*
X116180722Y-135367053D01*
X116290027Y-135103167D01*
X116448713Y-134865676D01*
X116650676Y-134663713D01*
X116888167Y-134505027D01*
X117152053Y-134395722D01*
X117432186Y-134340000D01*
X117717814Y-134340000D01*
X117997947Y-134395722D01*
X117997947Y-134395722D01*
G37*
G36*
X197184026Y-133212115D02*
X197402412Y-133302573D01*
X197598958Y-133433901D01*
X197766099Y-133601042D01*
X197897427Y-133797588D01*
X197987885Y-134015974D01*
X198034000Y-134247809D01*
X198034000Y-134484191D01*
X197987885Y-134716026D01*
X197897427Y-134934412D01*
X197766099Y-135130958D01*
X197598958Y-135298099D01*
X197402412Y-135429427D01*
X197184026Y-135519885D01*
X196952191Y-135566000D01*
X196715809Y-135566000D01*
X196483974Y-135519885D01*
X196265588Y-135429427D01*
X196069042Y-135298099D01*
X195901901Y-135130958D01*
X195770573Y-134934412D01*
X195680115Y-134716026D01*
X195634000Y-134484191D01*
X195634000Y-134247809D01*
X195680115Y-134015974D01*
X195770573Y-133797588D01*
X195901901Y-133601042D01*
X196069042Y-133433901D01*
X196265588Y-133302573D01*
X196483974Y-133212115D01*
X196715809Y-133166000D01*
X196952191Y-133166000D01*
X197184026Y-133212115D01*
X197184026Y-133212115D01*
G37*
G36*
X190765072Y-128359431D02*
X190940435Y-128432068D01*
X191098262Y-128537525D01*
X191232475Y-128671738D01*
X191337932Y-128829565D01*
X191410569Y-129004928D01*
X191447600Y-129191094D01*
X191447600Y-129380906D01*
X191410569Y-129567072D01*
X191337932Y-129742435D01*
X191232475Y-129900262D01*
X191098262Y-130034475D01*
X190940435Y-130139932D01*
X190765072Y-130212569D01*
X190578906Y-130249600D01*
X190389094Y-130249600D01*
X190202928Y-130212569D01*
X190027565Y-130139932D01*
X189869738Y-130034475D01*
X189735525Y-129900262D01*
X189630068Y-129742435D01*
X189557431Y-129567072D01*
X189520400Y-129380906D01*
X189520400Y-129191094D01*
X189557431Y-129004928D01*
X189630068Y-128829565D01*
X189735525Y-128671738D01*
X189869738Y-128537525D01*
X190027565Y-128432068D01*
X190202928Y-128359431D01*
X190389094Y-128322400D01*
X190578906Y-128322400D01*
X190765072Y-128359431D01*
X190765072Y-128359431D01*
G37*
G36*
X190765072Y-125819431D02*
X190940435Y-125892068D01*
X191098262Y-125997525D01*
X191232475Y-126131738D01*
X191337932Y-126289565D01*
X191410569Y-126464928D01*
X191447600Y-126651094D01*
X191447600Y-126840906D01*
X191410569Y-127027072D01*
X191337932Y-127202435D01*
X191232475Y-127360262D01*
X191098262Y-127494475D01*
X190940435Y-127599932D01*
X190765072Y-127672569D01*
X190578906Y-127709600D01*
X190389094Y-127709600D01*
X190202928Y-127672569D01*
X190027565Y-127599932D01*
X189869738Y-127494475D01*
X189735525Y-127360262D01*
X189630068Y-127202435D01*
X189557431Y-127027072D01*
X189520400Y-126840906D01*
X189520400Y-126651094D01*
X189557431Y-126464928D01*
X189630068Y-126289565D01*
X189735525Y-126131738D01*
X189869738Y-125997525D01*
X190027565Y-125892068D01*
X190202928Y-125819431D01*
X190389094Y-125782400D01*
X190578906Y-125782400D01*
X190765072Y-125819431D01*
X190765072Y-125819431D01*
G37*
G36*
X197184026Y-123052115D02*
X197402412Y-123142573D01*
X197598958Y-123273901D01*
X197766099Y-123441042D01*
X197897427Y-123637588D01*
X197987885Y-123855974D01*
X198034000Y-124087809D01*
X198034000Y-124324191D01*
X197987885Y-124556026D01*
X197897427Y-124774412D01*
X197766099Y-124970958D01*
X197598958Y-125138099D01*
X197402412Y-125269427D01*
X197184026Y-125359885D01*
X196952191Y-125406000D01*
X196715809Y-125406000D01*
X196483974Y-125359885D01*
X196265588Y-125269427D01*
X196069042Y-125138099D01*
X195901901Y-124970958D01*
X195770573Y-124774412D01*
X195680115Y-124556026D01*
X195634000Y-124324191D01*
X195634000Y-124087809D01*
X195680115Y-123855974D01*
X195770573Y-123637588D01*
X195901901Y-123441042D01*
X196069042Y-123273901D01*
X196265588Y-123142573D01*
X196483974Y-123052115D01*
X196715809Y-123006000D01*
X196952191Y-123006000D01*
X197184026Y-123052115D01*
X197184026Y-123052115D01*
G37*
G36*
X197184026Y-117210115D02*
X197402412Y-117300573D01*
X197598958Y-117431901D01*
X197766099Y-117599042D01*
X197897427Y-117795588D01*
X197987885Y-118013974D01*
X198034000Y-118245809D01*
X198034000Y-118482191D01*
X197987885Y-118714026D01*
X197897427Y-118932412D01*
X197766099Y-119128958D01*
X197598958Y-119296099D01*
X197402412Y-119427427D01*
X197184026Y-119517885D01*
X196952191Y-119564000D01*
X196715809Y-119564000D01*
X196483974Y-119517885D01*
X196265588Y-119427427D01*
X196069042Y-119296099D01*
X195901901Y-119128958D01*
X195770573Y-118932412D01*
X195680115Y-118714026D01*
X195634000Y-118482191D01*
X195634000Y-118245809D01*
X195680115Y-118013974D01*
X195770573Y-117795588D01*
X195901901Y-117599042D01*
X196069042Y-117431901D01*
X196265588Y-117300573D01*
X196483974Y-117210115D01*
X196715809Y-117164000D01*
X196952191Y-117164000D01*
X197184026Y-117210115D01*
X197184026Y-117210115D01*
G37*
G36*
X143178200Y-118375100D02*
X140285800Y-118375100D01*
X140285800Y-116574900D01*
X143178200Y-116574900D01*
X143178200Y-118375100D01*
X143178200Y-118375100D01*
G37*
G36*
X139495200Y-118375100D02*
X136602800Y-118375100D01*
X136602800Y-116574900D01*
X139495200Y-116574900D01*
X139495200Y-118375100D01*
X139495200Y-118375100D01*
G37*
G36*
X190765072Y-112357431D02*
X190940435Y-112430068D01*
X191098262Y-112535525D01*
X191232475Y-112669738D01*
X191337932Y-112827565D01*
X191410569Y-113002928D01*
X191447600Y-113189094D01*
X191447600Y-113378906D01*
X191410569Y-113565072D01*
X191337932Y-113740435D01*
X191232475Y-113898262D01*
X191098262Y-114032475D01*
X190940435Y-114137932D01*
X190765072Y-114210569D01*
X190578906Y-114247600D01*
X190389094Y-114247600D01*
X190202928Y-114210569D01*
X190027565Y-114137932D01*
X189869738Y-114032475D01*
X189735525Y-113898262D01*
X189630068Y-113740435D01*
X189557431Y-113565072D01*
X189520400Y-113378906D01*
X189520400Y-113189094D01*
X189557431Y-113002928D01*
X189630068Y-112827565D01*
X189735525Y-112669738D01*
X189869738Y-112535525D01*
X190027565Y-112430068D01*
X190202928Y-112357431D01*
X190389094Y-112320400D01*
X190578906Y-112320400D01*
X190765072Y-112357431D01*
X190765072Y-112357431D01*
G37*
G36*
X190765072Y-109817431D02*
X190940435Y-109890068D01*
X191098262Y-109995525D01*
X191232475Y-110129738D01*
X191337932Y-110287565D01*
X191410569Y-110462928D01*
X191447600Y-110649094D01*
X191447600Y-110838906D01*
X191410569Y-111025072D01*
X191337932Y-111200435D01*
X191232475Y-111358262D01*
X191098262Y-111492475D01*
X190940435Y-111597932D01*
X190765072Y-111670569D01*
X190578906Y-111707600D01*
X190389094Y-111707600D01*
X190202928Y-111670569D01*
X190027565Y-111597932D01*
X189869738Y-111492475D01*
X189735525Y-111358262D01*
X189630068Y-111200435D01*
X189557431Y-111025072D01*
X189520400Y-110838906D01*
X189520400Y-110649094D01*
X189557431Y-110462928D01*
X189630068Y-110287565D01*
X189735525Y-110129738D01*
X189869738Y-109995525D01*
X190027565Y-109890068D01*
X190202928Y-109817431D01*
X190389094Y-109780400D01*
X190578906Y-109780400D01*
X190765072Y-109817431D01*
X190765072Y-109817431D01*
G37*
G36*
X197184026Y-107050115D02*
X197402412Y-107140573D01*
X197598958Y-107271901D01*
X197766099Y-107439042D01*
X197897427Y-107635588D01*
X197987885Y-107853974D01*
X198034000Y-108085809D01*
X198034000Y-108322191D01*
X197987885Y-108554026D01*
X197897427Y-108772412D01*
X197766099Y-108968958D01*
X197598958Y-109136099D01*
X197402412Y-109267427D01*
X197184026Y-109357885D01*
X196952191Y-109404000D01*
X196715809Y-109404000D01*
X196483974Y-109357885D01*
X196265588Y-109267427D01*
X196069042Y-109136099D01*
X195901901Y-108968958D01*
X195770573Y-108772412D01*
X195680115Y-108554026D01*
X195634000Y-108322191D01*
X195634000Y-108085809D01*
X195680115Y-107853974D01*
X195770573Y-107635588D01*
X195901901Y-107439042D01*
X196069042Y-107271901D01*
X196265588Y-107140573D01*
X196483974Y-107050115D01*
X196715809Y-107004000D01*
X196952191Y-107004000D01*
X197184026Y-107050115D01*
X197184026Y-107050115D01*
G37*
G36*
X197184026Y-101204115D02*
X197402412Y-101294573D01*
X197598958Y-101425901D01*
X197766099Y-101593042D01*
X197897427Y-101789588D01*
X197987885Y-102007974D01*
X198034000Y-102239809D01*
X198034000Y-102476191D01*
X197987885Y-102708026D01*
X197897427Y-102926412D01*
X197766099Y-103122958D01*
X197598958Y-103290099D01*
X197402412Y-103421427D01*
X197184026Y-103511885D01*
X196952191Y-103558000D01*
X196715809Y-103558000D01*
X196483974Y-103511885D01*
X196265588Y-103421427D01*
X196069042Y-103290099D01*
X195901901Y-103122958D01*
X195770573Y-102926412D01*
X195680115Y-102708026D01*
X195634000Y-102476191D01*
X195634000Y-102239809D01*
X195680115Y-102007974D01*
X195770573Y-101789588D01*
X195901901Y-101593042D01*
X196069042Y-101425901D01*
X196265588Y-101294573D01*
X196483974Y-101204115D01*
X196715809Y-101158000D01*
X196952191Y-101158000D01*
X197184026Y-101204115D01*
X197184026Y-101204115D01*
G37*
G36*
X190765072Y-96351431D02*
X190940435Y-96424068D01*
X191098262Y-96529525D01*
X191232475Y-96663738D01*
X191337932Y-96821565D01*
X191410569Y-96996928D01*
X191447600Y-97183094D01*
X191447600Y-97372906D01*
X191410569Y-97559072D01*
X191337932Y-97734435D01*
X191232475Y-97892262D01*
X191098262Y-98026475D01*
X190940435Y-98131932D01*
X190765072Y-98204569D01*
X190578906Y-98241600D01*
X190389094Y-98241600D01*
X190202928Y-98204569D01*
X190027565Y-98131932D01*
X189869738Y-98026475D01*
X189735525Y-97892262D01*
X189630068Y-97734435D01*
X189557431Y-97559072D01*
X189520400Y-97372906D01*
X189520400Y-97183094D01*
X189557431Y-96996928D01*
X189630068Y-96821565D01*
X189735525Y-96663738D01*
X189869738Y-96529525D01*
X190027565Y-96424068D01*
X190202928Y-96351431D01*
X190389094Y-96314400D01*
X190578906Y-96314400D01*
X190765072Y-96351431D01*
X190765072Y-96351431D01*
G37*
G36*
X190765072Y-93811431D02*
X190940435Y-93884068D01*
X191098262Y-93989525D01*
X191232475Y-94123738D01*
X191337932Y-94281565D01*
X191410569Y-94456928D01*
X191447600Y-94643094D01*
X191447600Y-94832906D01*
X191410569Y-95019072D01*
X191337932Y-95194435D01*
X191232475Y-95352262D01*
X191098262Y-95486475D01*
X190940435Y-95591932D01*
X190765072Y-95664569D01*
X190578906Y-95701600D01*
X190389094Y-95701600D01*
X190202928Y-95664569D01*
X190027565Y-95591932D01*
X189869738Y-95486475D01*
X189735525Y-95352262D01*
X189630068Y-95194435D01*
X189557431Y-95019072D01*
X189520400Y-94832906D01*
X189520400Y-94643094D01*
X189557431Y-94456928D01*
X189630068Y-94281565D01*
X189735525Y-94123738D01*
X189869738Y-93989525D01*
X190027565Y-93884068D01*
X190202928Y-93811431D01*
X190389094Y-93774400D01*
X190578906Y-93774400D01*
X190765072Y-93811431D01*
X190765072Y-93811431D01*
G37*
G36*
X197184026Y-91044115D02*
X197402412Y-91134573D01*
X197598958Y-91265901D01*
X197766099Y-91433042D01*
X197897427Y-91629588D01*
X197987885Y-91847974D01*
X198034000Y-92079809D01*
X198034000Y-92316191D01*
X197987885Y-92548026D01*
X197897427Y-92766412D01*
X197766099Y-92962958D01*
X197598958Y-93130099D01*
X197402412Y-93261427D01*
X197184026Y-93351885D01*
X196952191Y-93398000D01*
X196715809Y-93398000D01*
X196483974Y-93351885D01*
X196265588Y-93261427D01*
X196069042Y-93130099D01*
X195901901Y-92962958D01*
X195770573Y-92766412D01*
X195680115Y-92548026D01*
X195634000Y-92316191D01*
X195634000Y-92079809D01*
X195680115Y-91847974D01*
X195770573Y-91629588D01*
X195901901Y-91433042D01*
X196069042Y-91265901D01*
X196265588Y-91134573D01*
X196483974Y-91044115D01*
X196715809Y-90998000D01*
X196952191Y-90998000D01*
X197184026Y-91044115D01*
X197184026Y-91044115D01*
G37*
G36*
X197184026Y-85206115D02*
X197402412Y-85296573D01*
X197598958Y-85427901D01*
X197766099Y-85595042D01*
X197897427Y-85791588D01*
X197987885Y-86009974D01*
X198034000Y-86241809D01*
X198034000Y-86478191D01*
X197987885Y-86710026D01*
X197897427Y-86928412D01*
X197766099Y-87124958D01*
X197598958Y-87292099D01*
X197402412Y-87423427D01*
X197184026Y-87513885D01*
X196952191Y-87560000D01*
X196715809Y-87560000D01*
X196483974Y-87513885D01*
X196265588Y-87423427D01*
X196069042Y-87292099D01*
X195901901Y-87124958D01*
X195770573Y-86928412D01*
X195680115Y-86710026D01*
X195634000Y-86478191D01*
X195634000Y-86241809D01*
X195680115Y-86009974D01*
X195770573Y-85791588D01*
X195901901Y-85595042D01*
X196069042Y-85427901D01*
X196265588Y-85296573D01*
X196483974Y-85206115D01*
X196715809Y-85160000D01*
X196952191Y-85160000D01*
X197184026Y-85206115D01*
X197184026Y-85206115D01*
G37*
G36*
X190765072Y-80353431D02*
X190940435Y-80426068D01*
X191098262Y-80531525D01*
X191232475Y-80665738D01*
X191337932Y-80823565D01*
X191410569Y-80998928D01*
X191447600Y-81185094D01*
X191447600Y-81374906D01*
X191410569Y-81561072D01*
X191337932Y-81736435D01*
X191232475Y-81894262D01*
X191098262Y-82028475D01*
X190940435Y-82133932D01*
X190765072Y-82206569D01*
X190578906Y-82243600D01*
X190389094Y-82243600D01*
X190202928Y-82206569D01*
X190027565Y-82133932D01*
X189869738Y-82028475D01*
X189735525Y-81894262D01*
X189630068Y-81736435D01*
X189557431Y-81561072D01*
X189520400Y-81374906D01*
X189520400Y-81185094D01*
X189557431Y-80998928D01*
X189630068Y-80823565D01*
X189735525Y-80665738D01*
X189869738Y-80531525D01*
X190027565Y-80426068D01*
X190202928Y-80353431D01*
X190389094Y-80316400D01*
X190578906Y-80316400D01*
X190765072Y-80353431D01*
X190765072Y-80353431D01*
G37*
G36*
X190765072Y-77813431D02*
X190940435Y-77886068D01*
X191098262Y-77991525D01*
X191232475Y-78125738D01*
X191337932Y-78283565D01*
X191410569Y-78458928D01*
X191447600Y-78645094D01*
X191447600Y-78834906D01*
X191410569Y-79021072D01*
X191337932Y-79196435D01*
X191232475Y-79354262D01*
X191098262Y-79488475D01*
X190940435Y-79593932D01*
X190765072Y-79666569D01*
X190578906Y-79703600D01*
X190389094Y-79703600D01*
X190202928Y-79666569D01*
X190027565Y-79593932D01*
X189869738Y-79488475D01*
X189735525Y-79354262D01*
X189630068Y-79196435D01*
X189557431Y-79021072D01*
X189520400Y-78834906D01*
X189520400Y-78645094D01*
X189557431Y-78458928D01*
X189630068Y-78283565D01*
X189735525Y-78125738D01*
X189869738Y-77991525D01*
X190027565Y-77886068D01*
X190202928Y-77813431D01*
X190389094Y-77776400D01*
X190578906Y-77776400D01*
X190765072Y-77813431D01*
X190765072Y-77813431D01*
G37*
G36*
X197184026Y-75046115D02*
X197402412Y-75136573D01*
X197598958Y-75267901D01*
X197766099Y-75435042D01*
X197897427Y-75631588D01*
X197987885Y-75849974D01*
X198034000Y-76081809D01*
X198034000Y-76318191D01*
X197987885Y-76550026D01*
X197897427Y-76768412D01*
X197766099Y-76964958D01*
X197598958Y-77132099D01*
X197402412Y-77263427D01*
X197184026Y-77353885D01*
X196952191Y-77400000D01*
X196715809Y-77400000D01*
X196483974Y-77353885D01*
X196265588Y-77263427D01*
X196069042Y-77132099D01*
X195901901Y-76964958D01*
X195770573Y-76768412D01*
X195680115Y-76550026D01*
X195634000Y-76318191D01*
X195634000Y-76081809D01*
X195680115Y-75849974D01*
X195770573Y-75631588D01*
X195901901Y-75435042D01*
X196069042Y-75267901D01*
X196265588Y-75136573D01*
X196483974Y-75046115D01*
X196715809Y-75000000D01*
X196952191Y-75000000D01*
X197184026Y-75046115D01*
X197184026Y-75046115D01*
G37*
G36*
X121179738Y-69355653D02*
X121221598Y-69363979D01*
X121256245Y-69378330D01*
X121339890Y-69412977D01*
X121446354Y-69484114D01*
X121536886Y-69574646D01*
X121608023Y-69681110D01*
X121621646Y-69714000D01*
X121652289Y-69787977D01*
X121657021Y-69799403D01*
X121682000Y-69924979D01*
X121682000Y-70053021D01*
X121665347Y-70136738D01*
X121657856Y-70174402D01*
X121657021Y-70178597D01*
X121608023Y-70296890D01*
X121536886Y-70403354D01*
X121446354Y-70493886D01*
X121339890Y-70565023D01*
X121256245Y-70599670D01*
X121221598Y-70614021D01*
X121215253Y-70615283D01*
X121096021Y-70639000D01*
X120967979Y-70639000D01*
X120848747Y-70615283D01*
X120842402Y-70614021D01*
X120807755Y-70599670D01*
X120724110Y-70565023D01*
X120617646Y-70493886D01*
X120554679Y-70430919D01*
X120535737Y-70415373D01*
X120514126Y-70403822D01*
X120490677Y-70396709D01*
X120466291Y-70394307D01*
X120441905Y-70396709D01*
X120418456Y-70403822D01*
X120396845Y-70415373D01*
X120377903Y-70430919D01*
X120362357Y-70449861D01*
X120350806Y-70471472D01*
X120343693Y-70494920D01*
X120332021Y-70553598D01*
X120283023Y-70671890D01*
X120211886Y-70778354D01*
X120121354Y-70868886D01*
X120014890Y-70940023D01*
X119933325Y-70973808D01*
X119896598Y-70989021D01*
X119854738Y-70997347D01*
X119771021Y-71014000D01*
X119642979Y-71014000D01*
X119517402Y-70989021D01*
X119452785Y-70962256D01*
X119429336Y-70955143D01*
X119404949Y-70952741D01*
X119380563Y-70955143D01*
X119357114Y-70962256D01*
X119335503Y-70973808D01*
X119316561Y-70989353D01*
X119301016Y-71008295D01*
X119289465Y-71029906D01*
X119282352Y-71053355D01*
X119279950Y-71077742D01*
X119282000Y-71098556D01*
X119282000Y-71277644D01*
X119247414Y-71451521D01*
X119179571Y-71615309D01*
X119081074Y-71762720D01*
X118955720Y-71888074D01*
X118808309Y-71986571D01*
X118644521Y-72054414D01*
X118470644Y-72089000D01*
X118293356Y-72089000D01*
X118119479Y-72054414D01*
X117955691Y-71986571D01*
X117808280Y-71888074D01*
X117682926Y-71762720D01*
X117584429Y-71615309D01*
X117516586Y-71451521D01*
X117482000Y-71277644D01*
X117482000Y-71100356D01*
X117516586Y-70926479D01*
X117584429Y-70762691D01*
X117682926Y-70615280D01*
X117808280Y-70489926D01*
X117955691Y-70391429D01*
X118119479Y-70323586D01*
X118293356Y-70289000D01*
X118470644Y-70289000D01*
X118644521Y-70323586D01*
X118808310Y-70391429D01*
X118862554Y-70427674D01*
X118884165Y-70439225D01*
X118907614Y-70446338D01*
X118932000Y-70448740D01*
X118956386Y-70446338D01*
X118979836Y-70439225D01*
X119001446Y-70427674D01*
X119020388Y-70412128D01*
X119035934Y-70393186D01*
X119047485Y-70371575D01*
X119054598Y-70348126D01*
X119057000Y-70323740D01*
X119057000Y-70299979D01*
X119073653Y-70216262D01*
X119081979Y-70174402D01*
X119096330Y-70139755D01*
X119130977Y-70056110D01*
X119202114Y-69949646D01*
X119292646Y-69859114D01*
X119399110Y-69787977D01*
X119482755Y-69753330D01*
X119517402Y-69738979D01*
X119559262Y-69730653D01*
X119642979Y-69714000D01*
X119771021Y-69714000D01*
X119854738Y-69730653D01*
X119896598Y-69738979D01*
X119931245Y-69753330D01*
X120014890Y-69787977D01*
X120121354Y-69859114D01*
X120184321Y-69922081D01*
X120203263Y-69937627D01*
X120224874Y-69949178D01*
X120248323Y-69956291D01*
X120272709Y-69958693D01*
X120297095Y-69956291D01*
X120320544Y-69949178D01*
X120342155Y-69937627D01*
X120361097Y-69922081D01*
X120376643Y-69903139D01*
X120388194Y-69881528D01*
X120395307Y-69858080D01*
X120406979Y-69799402D01*
X120455977Y-69681110D01*
X120527114Y-69574646D01*
X120617646Y-69484114D01*
X120724110Y-69412977D01*
X120807755Y-69378330D01*
X120842402Y-69363979D01*
X120884262Y-69355653D01*
X120967979Y-69339000D01*
X121096021Y-69339000D01*
X121179738Y-69355653D01*
X121179738Y-69355653D01*
G37*
G36*
X197120526Y-69204115D02*
X197338912Y-69294573D01*
X197535458Y-69425901D01*
X197702599Y-69593042D01*
X197833927Y-69789588D01*
X197924385Y-70007974D01*
X197970500Y-70239809D01*
X197970500Y-70476191D01*
X197924385Y-70708026D01*
X197833927Y-70926412D01*
X197702599Y-71122958D01*
X197535458Y-71290099D01*
X197338912Y-71421427D01*
X197120526Y-71511885D01*
X196888691Y-71558000D01*
X196652309Y-71558000D01*
X196420474Y-71511885D01*
X196202088Y-71421427D01*
X196005542Y-71290099D01*
X195838401Y-71122958D01*
X195707073Y-70926412D01*
X195616615Y-70708026D01*
X195570500Y-70476191D01*
X195570500Y-70239809D01*
X195616615Y-70007974D01*
X195707073Y-69789588D01*
X195838401Y-69593042D01*
X196005542Y-69425901D01*
X196202088Y-69294573D01*
X196420474Y-69204115D01*
X196652309Y-69158000D01*
X196888691Y-69158000D01*
X197120526Y-69204115D01*
X197120526Y-69204115D01*
G37*
G36*
X117732888Y-66518470D02*
X117913274Y-66554350D01*
X118104362Y-66633502D01*
X118276336Y-66748411D01*
X118422589Y-66894664D01*
X118537498Y-67066638D01*
X118616650Y-67257726D01*
X118657000Y-67460584D01*
X118657000Y-67667416D01*
X118616650Y-67870274D01*
X118537498Y-68061362D01*
X118422589Y-68233336D01*
X118276336Y-68379589D01*
X118104362Y-68494498D01*
X117913274Y-68573650D01*
X117732888Y-68609530D01*
X117710417Y-68614000D01*
X117503583Y-68614000D01*
X117481112Y-68609530D01*
X117300726Y-68573650D01*
X117109638Y-68494498D01*
X116937664Y-68379589D01*
X116791411Y-68233336D01*
X116676502Y-68061362D01*
X116597350Y-67870274D01*
X116557000Y-67667416D01*
X116557000Y-67460584D01*
X116597350Y-67257726D01*
X116676502Y-67066638D01*
X116791411Y-66894664D01*
X116937664Y-66748411D01*
X117109638Y-66633502D01*
X117300726Y-66554350D01*
X117481112Y-66518470D01*
X117503583Y-66514000D01*
X117710417Y-66514000D01*
X117732888Y-66518470D01*
X117732888Y-66518470D01*
G37*
G36*
X190701572Y-64351431D02*
X190876935Y-64424068D01*
X191034762Y-64529525D01*
X191168975Y-64663738D01*
X191274432Y-64821565D01*
X191347069Y-64996928D01*
X191384100Y-65183094D01*
X191384100Y-65372906D01*
X191347069Y-65559072D01*
X191274432Y-65734435D01*
X191168975Y-65892262D01*
X191034762Y-66026475D01*
X190876935Y-66131932D01*
X190701572Y-66204569D01*
X190515406Y-66241600D01*
X190325594Y-66241600D01*
X190139428Y-66204569D01*
X189964065Y-66131932D01*
X189806238Y-66026475D01*
X189672025Y-65892262D01*
X189566568Y-65734435D01*
X189493931Y-65559072D01*
X189456900Y-65372906D01*
X189456900Y-65183094D01*
X189493931Y-64996928D01*
X189566568Y-64821565D01*
X189672025Y-64663738D01*
X189806238Y-64529525D01*
X189964065Y-64424068D01*
X190139428Y-64351431D01*
X190325594Y-64314400D01*
X190515406Y-64314400D01*
X190701572Y-64351431D01*
X190701572Y-64351431D01*
G37*
G36*
X118644521Y-63073586D02*
X118808309Y-63141429D01*
X118955720Y-63239926D01*
X119081074Y-63365280D01*
X119179571Y-63512691D01*
X119247414Y-63676479D01*
X119282000Y-63850356D01*
X119282000Y-64029444D01*
X119279950Y-64050257D01*
X119282351Y-64074643D01*
X119289464Y-64098092D01*
X119301015Y-64119703D01*
X119316560Y-64138646D01*
X119335502Y-64154191D01*
X119357112Y-64165743D01*
X119380561Y-64172857D01*
X119404948Y-64175259D01*
X119429334Y-64172858D01*
X119452785Y-64165744D01*
X119517402Y-64138979D01*
X119642979Y-64114000D01*
X119771021Y-64114000D01*
X119854738Y-64130653D01*
X119896598Y-64138979D01*
X119931245Y-64153330D01*
X120014890Y-64187977D01*
X120121354Y-64259114D01*
X120211886Y-64349646D01*
X120283023Y-64456110D01*
X120332021Y-64574402D01*
X120343693Y-64633080D01*
X120350806Y-64656529D01*
X120362358Y-64678140D01*
X120377903Y-64697082D01*
X120396846Y-64712627D01*
X120418456Y-64724178D01*
X120441906Y-64731291D01*
X120466292Y-64733693D01*
X120490678Y-64731291D01*
X120514127Y-64724178D01*
X120535738Y-64712626D01*
X120554679Y-64697081D01*
X120617646Y-64634114D01*
X120724110Y-64562977D01*
X120807755Y-64528330D01*
X120842402Y-64513979D01*
X120884262Y-64505653D01*
X120967979Y-64489000D01*
X121096021Y-64489000D01*
X121179738Y-64505653D01*
X121221598Y-64513979D01*
X121256245Y-64528330D01*
X121339890Y-64562977D01*
X121446354Y-64634114D01*
X121536886Y-64724646D01*
X121608023Y-64831110D01*
X121642670Y-64914755D01*
X121657021Y-64949402D01*
X121665347Y-64991262D01*
X121682000Y-65074979D01*
X121682000Y-65203021D01*
X121677656Y-65224860D01*
X121657021Y-65328598D01*
X121642670Y-65363245D01*
X121608023Y-65446890D01*
X121536886Y-65553354D01*
X121446354Y-65643886D01*
X121339890Y-65715023D01*
X121256245Y-65749670D01*
X121221598Y-65764021D01*
X121179738Y-65772347D01*
X121096021Y-65789000D01*
X120967979Y-65789000D01*
X120884262Y-65772347D01*
X120842402Y-65764021D01*
X120807755Y-65749670D01*
X120724110Y-65715023D01*
X120617646Y-65643886D01*
X120527114Y-65553354D01*
X120455977Y-65446890D01*
X120406979Y-65328598D01*
X120395307Y-65269920D01*
X120388194Y-65246471D01*
X120376642Y-65224860D01*
X120361097Y-65205918D01*
X120342154Y-65190373D01*
X120320544Y-65178822D01*
X120297094Y-65171709D01*
X120272708Y-65169307D01*
X120248322Y-65171709D01*
X120224873Y-65178822D01*
X120203262Y-65190374D01*
X120184321Y-65205919D01*
X120121354Y-65268886D01*
X120014890Y-65340023D01*
X119931245Y-65374670D01*
X119896598Y-65389021D01*
X119854738Y-65397347D01*
X119771021Y-65414000D01*
X119642979Y-65414000D01*
X119559262Y-65397347D01*
X119517402Y-65389021D01*
X119482755Y-65374670D01*
X119399110Y-65340023D01*
X119292646Y-65268886D01*
X119202114Y-65178354D01*
X119130977Y-65071890D01*
X119081979Y-64953597D01*
X119081145Y-64949402D01*
X119059184Y-64839000D01*
X119057000Y-64828021D01*
X119057000Y-64804260D01*
X119054598Y-64779874D01*
X119047485Y-64756425D01*
X119035934Y-64734814D01*
X119020388Y-64715872D01*
X119001446Y-64700326D01*
X118979835Y-64688775D01*
X118956386Y-64681662D01*
X118932000Y-64679260D01*
X118907614Y-64681662D01*
X118884165Y-64688775D01*
X118862554Y-64700326D01*
X118808310Y-64736571D01*
X118644521Y-64804414D01*
X118470644Y-64839000D01*
X118293356Y-64839000D01*
X118119479Y-64804414D01*
X117955691Y-64736571D01*
X117808280Y-64638074D01*
X117682926Y-64512720D01*
X117584429Y-64365309D01*
X117516586Y-64201521D01*
X117482000Y-64027644D01*
X117482000Y-63850356D01*
X117516586Y-63676479D01*
X117584429Y-63512691D01*
X117682926Y-63365280D01*
X117808280Y-63239926D01*
X117955691Y-63141429D01*
X118119479Y-63073586D01*
X118293356Y-63039000D01*
X118470644Y-63039000D01*
X118644521Y-63073586D01*
X118644521Y-63073586D01*
G37*
G36*
X190701572Y-61811431D02*
X190876935Y-61884068D01*
X191034762Y-61989525D01*
X191168975Y-62123738D01*
X191274432Y-62281565D01*
X191347069Y-62456928D01*
X191384100Y-62643094D01*
X191384100Y-62832906D01*
X191347069Y-63019072D01*
X191274432Y-63194435D01*
X191168975Y-63352262D01*
X191034762Y-63486475D01*
X190876935Y-63591932D01*
X190701572Y-63664569D01*
X190515406Y-63701600D01*
X190325594Y-63701600D01*
X190139428Y-63664569D01*
X189964065Y-63591932D01*
X189806238Y-63486475D01*
X189672025Y-63352262D01*
X189566568Y-63194435D01*
X189493931Y-63019072D01*
X189456900Y-62832906D01*
X189456900Y-62643094D01*
X189493931Y-62456928D01*
X189566568Y-62281565D01*
X189672025Y-62123738D01*
X189806238Y-61989525D01*
X189964065Y-61884068D01*
X190139428Y-61811431D01*
X190325594Y-61774400D01*
X190515406Y-61774400D01*
X190701572Y-61811431D01*
X190701572Y-61811431D01*
G37*
G36*
X197120526Y-59044115D02*
X197338912Y-59134573D01*
X197535458Y-59265901D01*
X197702599Y-59433042D01*
X197833927Y-59629588D01*
X197924385Y-59847974D01*
X197970500Y-60079809D01*
X197970500Y-60316191D01*
X197924385Y-60548026D01*
X197833927Y-60766412D01*
X197702599Y-60962958D01*
X197535458Y-61130099D01*
X197338912Y-61261427D01*
X197120526Y-61351885D01*
X196888691Y-61398000D01*
X196652309Y-61398000D01*
X196420474Y-61351885D01*
X196202088Y-61261427D01*
X196005542Y-61130099D01*
X195838401Y-60962958D01*
X195707073Y-60766412D01*
X195616615Y-60548026D01*
X195570500Y-60316191D01*
X195570500Y-60079809D01*
X195616615Y-59847974D01*
X195707073Y-59629588D01*
X195838401Y-59433042D01*
X196005542Y-59265901D01*
X196202088Y-59134573D01*
X196420474Y-59044115D01*
X196652309Y-58998000D01*
X196888691Y-58998000D01*
X197120526Y-59044115D01*
X197120526Y-59044115D01*
G37*
G36*
X187547947Y-57887722D02*
X187811833Y-57997027D01*
X188049324Y-58155713D01*
X188251287Y-58357676D01*
X188409973Y-58595167D01*
X188519278Y-58859053D01*
X188575000Y-59139186D01*
X188575000Y-59424814D01*
X188519278Y-59704947D01*
X188409973Y-59968833D01*
X188251287Y-60206324D01*
X188049324Y-60408287D01*
X187811833Y-60566973D01*
X187547947Y-60676278D01*
X187267814Y-60732000D01*
X186982186Y-60732000D01*
X186702053Y-60676278D01*
X186438167Y-60566973D01*
X186200676Y-60408287D01*
X185998713Y-60206324D01*
X185840027Y-59968833D01*
X185730722Y-59704947D01*
X185675000Y-59424814D01*
X185675000Y-59139186D01*
X185730722Y-58859053D01*
X185840027Y-58595167D01*
X185998713Y-58357676D01*
X186200676Y-58155713D01*
X186438167Y-57997027D01*
X186702053Y-57887722D01*
X186982186Y-57832000D01*
X187267814Y-57832000D01*
X187547947Y-57887722D01*
X187547947Y-57887722D01*
G37*
G36*
X117997947Y-57887722D02*
X118261833Y-57997027D01*
X118499324Y-58155713D01*
X118701287Y-58357676D01*
X118859973Y-58595167D01*
X118969278Y-58859053D01*
X119025000Y-59139186D01*
X119025000Y-59424814D01*
X118969278Y-59704947D01*
X118859973Y-59968833D01*
X118701287Y-60206324D01*
X118499324Y-60408287D01*
X118261833Y-60566973D01*
X117997947Y-60676278D01*
X117717814Y-60732000D01*
X117432186Y-60732000D01*
X117152053Y-60676278D01*
X116888167Y-60566973D01*
X116650676Y-60408287D01*
X116448713Y-60206324D01*
X116290027Y-59968833D01*
X116180722Y-59704947D01*
X116125000Y-59424814D01*
X116125000Y-59139186D01*
X116180722Y-58859053D01*
X116290027Y-58595167D01*
X116448713Y-58357676D01*
X116650676Y-58155713D01*
X116888167Y-57997027D01*
X117152053Y-57887722D01*
X117432186Y-57832000D01*
X117717814Y-57832000D01*
X117997947Y-57887722D01*
X117997947Y-57887722D01*
G37*
M02*
