G04 #@! TF.FileFunction,Soldermask,Bot*
%FSLAX46Y46*%
G04 Gerber Fmt 4.6, Leading zero omitted, Abs format (unit mm)*
G04 Created by KiCad (PCBNEW 4.0.7-e1-6374~58~ubuntu16.04.1) date Mon Oct  9 16:18:12 2017*
%MOMM*%
%LPD*%
G01*
G04 APERTURE LIST*
%ADD10C,0.100000*%
%ADD11C,1.600000*%
%ADD12O,2.100000X2.100000*%
%ADD13R,2.100000X2.100000*%
%ADD14O,2.432000X2.127200*%
%ADD15O,2.127200X2.432000*%
%ADD16C,2.127200*%
%ADD17C,2.600000*%
G04 APERTURE END LIST*
D10*
D11*
X123813000Y-132587000D03*
X128663000Y-132587000D03*
D12*
X122613000Y-135237000D03*
X129863000Y-135237000D03*
D13*
X113766516Y-59462536D03*
D12*
X113766516Y-62002536D03*
X113766516Y-64542536D03*
X113766516Y-67082536D03*
X113766516Y-69622536D03*
D14*
X118237000Y-92456000D03*
X118237000Y-94996000D03*
X118237000Y-97536000D03*
X118237000Y-100076000D03*
X138557000Y-102616000D03*
X118237000Y-102616000D03*
X138557000Y-105156000D03*
X118237000Y-105156000D03*
X138557000Y-107696000D03*
X118237000Y-107696000D03*
X138557000Y-110236000D03*
X118237000Y-110236000D03*
X138557000Y-112776000D03*
X118237000Y-112776000D03*
X138557000Y-115316000D03*
X118237000Y-115316000D03*
X138557000Y-117856000D03*
X118237000Y-117856000D03*
X138557000Y-120396000D03*
X118237000Y-120396000D03*
X138557000Y-122936000D03*
X118237000Y-122936000D03*
X138557000Y-125476000D03*
X118237000Y-125476000D03*
X138557000Y-128016000D03*
X118237000Y-128016000D03*
X138557000Y-130556000D03*
X118237000Y-130556000D03*
D13*
X136626516Y-59382536D03*
D12*
X136626516Y-61922536D03*
X136626516Y-64462536D03*
X136626516Y-67002536D03*
X136626516Y-69542536D03*
X136626516Y-72082536D03*
D15*
X167100720Y-62703988D03*
X167100720Y-65243988D03*
X167100720Y-67783988D03*
X184880720Y-62703988D03*
X184880720Y-65243988D03*
X184880720Y-67783988D03*
X167100720Y-78719988D03*
X167100720Y-81259988D03*
X167100720Y-83799988D03*
X184880720Y-78719988D03*
X184880720Y-81259988D03*
X184880720Y-83799988D03*
X167100720Y-94749988D03*
X167100720Y-97289988D03*
X167100720Y-99829988D03*
X184880720Y-94749988D03*
X184880720Y-97289988D03*
X184880720Y-99829988D03*
X167095120Y-110736488D03*
X167095120Y-113276488D03*
X167095120Y-115816488D03*
X184875120Y-110736488D03*
X184875120Y-113276488D03*
X184875120Y-115816488D03*
X167095120Y-126753988D03*
X167095120Y-129293988D03*
X167095120Y-131833988D03*
X184875120Y-126753988D03*
X184875120Y-129293988D03*
X184875120Y-131833988D03*
D16*
X190484000Y-126746000D03*
X190484000Y-129286000D03*
D17*
X196834000Y-124206000D03*
X196834000Y-134366000D03*
D16*
X190484000Y-110744000D03*
X190484000Y-113284000D03*
D17*
X196834000Y-108204000D03*
X196834000Y-118364000D03*
D16*
X190484000Y-78740000D03*
X190484000Y-81280000D03*
D17*
X196834000Y-76200000D03*
X196834000Y-86360000D03*
D16*
X190484000Y-94738000D03*
X190484000Y-97278000D03*
D17*
X196834000Y-92198000D03*
X196834000Y-102358000D03*
D16*
X190420500Y-62738000D03*
X190420500Y-65278000D03*
D17*
X196770500Y-60198000D03*
X196770500Y-70358000D03*
M02*
