M48
;DRILL file {KiCad 5.0.1-33cea8e~67~ubuntu18.04.1} date Fri 30 Nov 2018 10:39:15 AM PST
;FORMAT={-:-/ absolute / inch / decimal}
FMAT,2
INCH,TZ
T1C0.0118
T2C0.0276
T3C0.0315
T4C0.0400
T5C0.0433
T6C0.0551
T7C0.0827
%
G90
G05
M72
T1
X4.6Y-2.97
X4.605Y-3.765
X4.615Y-5.08
X4.62Y-4.71
X4.658Y-3.7585
X4.66Y-3.835
X4.665Y-4.31
X4.69Y-4.0015
X4.69Y-4.7084
X4.715Y-4.61
X4.744Y-3.723
X4.75Y-4.99
X4.775Y-3.875
X4.7842Y-4.475
X4.805Y-3.865
X4.86Y-3.02
X4.86Y-4.56
X4.865Y-4.165
X4.865Y-4.21
X4.87Y-4.95
X4.88Y-3.075
X4.895Y-5.005
X4.9Y-2.725
X4.92Y-3.282
X4.95Y-3.792
X5.06Y-3.21
X5.0948Y-3.078
X5.098Y-3.728
X5.12Y-3.035
X5.121Y-4.2145
X5.126Y-3.728
X5.1325Y-4.02
X5.186Y-3.65
X5.2025Y-4.031
X5.205Y-4.31
X5.206Y-3.976
X5.231Y-3.57
X5.232Y-3.65
X5.297Y-3.782
X5.305Y-3.233
X5.321Y-3.481
X5.327Y-3.662
X5.328Y-3.756
X5.33Y-3.07
X5.33Y-3.11
X5.3315Y-3.698
X5.348Y-3.274
X5.37Y-3.07
X5.37Y-3.11
X5.376Y-3.517
X5.405Y-4.625
X5.41Y-3.07
X5.41Y-3.11
X5.415Y-3.859
X5.436Y-3.58
X5.437Y-3.808
X5.465Y-3.58
X5.4874Y-3.1034
X5.49Y-4.07
X5.512Y-3.808
X5.512Y-3.842
X5.55Y-4.985
X5.585Y-4.705
X5.5862Y-3.8822
X5.61Y-3.248
X5.628Y-3.589
X5.665Y-4.495
X5.68Y-4.53
X5.68Y-4.575
X5.8325Y-4.08
X5.8325Y-4.1075
X5.855Y-3.903
X5.9088Y-5.3875
X5.9275Y-5.1202
X5.9331Y-3.8588
X5.9331Y-4.4888
X5.9333Y-3.2286
X5.9338Y-2.5938
X5.935Y-3.744
X5.935Y-4.035
X5.935Y-4.665
X5.936Y-4.375
X5.936Y-5.011
X5.937Y-2.488
X5.939Y-3.118
X5.94Y-2.775
X5.94Y-3.405
X5.96Y-3.23
X5.96Y-3.86
X5.96Y-4.49
X5.96Y-5.12
X5.9607Y-2.595
X5.965Y-5.01
X5.966Y-4.375
X5.968Y-2.4898
X5.97Y-3.7497
X5.971Y-3.1198
X6.0808Y-5.028
X6.081Y-3.126
X6.081Y-3.747
X6.081Y-4.382
X6.085Y-2.5107
X6.16Y-2.775
X6.16Y-3.405
X6.16Y-4.665
X6.165Y-4.035
X6.355Y-3.074
X6.355Y-3.708
X6.355Y-4.337
X6.355Y-4.97
X6.365Y-2.455
X6.47Y-2.405
X6.471Y-3.0318
X6.472Y-3.675
X6.472Y-4.3043
X6.472Y-4.9468
X6.474Y-4.524
X6.476Y-5.157
X6.481Y-3.262
X6.481Y-3.895
X6.484Y-2.642
X6.536Y-2.9923
X6.5415Y-4.896
X6.542Y-2.355
X6.5475Y-3.6353
X6.5535Y-4.2663
X6.591Y-2.951
X6.597Y-2.315
X6.597Y-4.851
X6.603Y-3.592
X6.609Y-4.225
X6.625Y-3.0318
X6.625Y-3.435
X6.715Y-2.405
X6.715Y-2.805
X6.715Y-3.675
X6.715Y-4.075
X6.715Y-4.3043
X6.715Y-4.705
X6.715Y-4.9468
X6.715Y-5.345
X7.248Y-3.1
X7.259Y-4.989
X7.26Y-3.436
X7.26Y-3.729
X7.261Y-4.076
X7.267Y-4.36
X7.269Y-5.348
X7.27Y-2.471
X7.271Y-4.707
X7.311Y-4.99
X7.312Y-3.1
X7.333Y-2.471
X7.335Y-3.7298
X7.343Y-4.36
X7.386Y-4.99
X7.399Y-4.36
X7.4Y-2.471
X7.401Y-3.1
X7.403Y-3.7298
T2
X4.765Y-2.5645
X4.765Y-2.7555
T3
X4.7129Y-2.5498
X4.7129Y-2.7702
T4
X7.4994Y-4.99
X7.4994Y-5.09
X7.4994Y-3.1
X7.4994Y-3.2
X7.4994Y-4.36
X7.4994Y-4.46
X7.4994Y-3.7298
X7.4994Y-3.8298
X7.4969Y-2.47
X7.4969Y-2.57
T7
X7.7494Y-4.89
X7.7494Y-5.29
X7.7494Y-3.
X7.7494Y-3.4
X7.7494Y-4.26
X7.7494Y-4.66
X7.7494Y-3.6298
X7.7494Y-4.0298
X7.7469Y-2.37
X7.7469Y-2.77
T5
X4.6607Y-2.5173G85X4.6607Y-2.5173
G05
X4.6607Y-2.8027G85X4.6607Y-2.8027
G05
T6
X4.6302Y-2.66G85X4.6302Y-2.66
G05
T0
M30
