G04 #@! TF.FileFunction,Soldermask,Bot*
%FSLAX46Y46*%
G04 Gerber Fmt 4.6, Leading zero omitted, Abs format (unit mm)*
G04 Created by KiCad (PCBNEW 4.0.7-e1-6374~58~ubuntu16.04.1) date Tue Sep 12 09:30:24 2017*
%MOMM*%
%LPD*%
G01*
G04 APERTURE LIST*
%ADD10C,0.100000*%
%ADD11C,1.924000*%
%ADD12C,2.400000*%
%ADD13R,2.100000X2.100000*%
%ADD14O,2.100000X2.100000*%
%ADD15O,2.432000X2.127200*%
%ADD16C,1.600000*%
%ADD17O,1.700000X2.100000*%
G04 APERTURE END LIST*
D10*
D11*
X190484000Y-94738000D03*
X190484000Y-97278000D03*
D12*
X195564000Y-92198000D03*
X195564000Y-102358000D03*
D13*
X113766516Y-59462536D03*
D14*
X113766516Y-62002536D03*
X113766516Y-64542536D03*
X113766516Y-67082536D03*
X113766516Y-69622536D03*
D15*
X118237000Y-92456000D03*
X118237000Y-94996000D03*
X118237000Y-97536000D03*
X118237000Y-100076000D03*
X138557000Y-102616000D03*
X118237000Y-102616000D03*
X138557000Y-105156000D03*
X118237000Y-105156000D03*
X138557000Y-107696000D03*
X118237000Y-107696000D03*
X138557000Y-110236000D03*
X118237000Y-110236000D03*
X138557000Y-112776000D03*
X118237000Y-112776000D03*
X138557000Y-115316000D03*
X118237000Y-115316000D03*
X138557000Y-117856000D03*
X118237000Y-117856000D03*
X138557000Y-120396000D03*
X118237000Y-120396000D03*
X138557000Y-122936000D03*
X118237000Y-122936000D03*
X138557000Y-125476000D03*
X118237000Y-125476000D03*
X138557000Y-128016000D03*
X118237000Y-128016000D03*
X138557000Y-130556000D03*
X118237000Y-130556000D03*
D11*
X167195500Y-62738000D03*
X167195500Y-65278000D03*
X167195500Y-67818000D03*
X184975500Y-62738000D03*
X184975500Y-65278000D03*
X184975500Y-67818000D03*
X167195500Y-78738000D03*
X167195500Y-81278000D03*
X167195500Y-83818000D03*
X184975500Y-78738000D03*
X184975500Y-81278000D03*
X184975500Y-83818000D03*
X167195500Y-94738000D03*
X167195500Y-97278000D03*
X167195500Y-99818000D03*
X184975500Y-94738000D03*
X184975500Y-97278000D03*
X184975500Y-99818000D03*
X167195500Y-110738000D03*
X167195500Y-113278000D03*
X167195500Y-115818000D03*
X184975500Y-110738000D03*
X184975500Y-113278000D03*
X184975500Y-115818000D03*
X167195500Y-126738000D03*
X167195500Y-129278000D03*
X167195500Y-131818000D03*
X184975500Y-126738000D03*
X184975500Y-129278000D03*
X184975500Y-131818000D03*
X190420500Y-62738000D03*
X190420500Y-65278000D03*
D12*
X195500500Y-60198000D03*
X195500500Y-70358000D03*
D11*
X190484000Y-78740000D03*
X190484000Y-81280000D03*
D12*
X195564000Y-76200000D03*
X195564000Y-86360000D03*
D11*
X190484000Y-110744000D03*
X190484000Y-113284000D03*
D12*
X195564000Y-108204000D03*
X195564000Y-118364000D03*
D11*
X190484000Y-126746000D03*
X190484000Y-129286000D03*
D12*
X195564000Y-124206000D03*
X195564000Y-134366000D03*
D13*
X136626516Y-59382536D03*
D14*
X136626516Y-61922536D03*
X136626516Y-64462536D03*
X136626516Y-67002536D03*
X136626516Y-69542536D03*
X136626516Y-72082536D03*
D16*
X123813000Y-132587000D03*
X128663000Y-132587000D03*
D17*
X122613000Y-135237000D03*
X129863000Y-135237000D03*
M02*
