M48
;DRILL file {KiCad 5.0.1-33cea8e~67~ubuntu18.04.1} date Thu 13 Dec 2018 03:36:50 PM PST
;FORMAT={-:-/ absolute / inch / decimal}
FMAT,2
INCH,TZ
T1C0.0118
T2C0.0197
T3C0.0400
T4C0.0472
T5C0.0827
%
G90
G05
M72
T1
X4.6Y-3.65
X4.61Y-3.51
X4.7025Y-2.595
X4.71Y-3.02
X4.71Y-3.07
X4.71Y-3.17
X4.73Y-2.97
X4.73Y-3.4
X4.75Y-3.82
X4.75Y-3.96
X4.7575Y-4.94
X4.775Y-3.875
X4.7842Y-4.475
X4.805Y-3.865
X4.81Y-2.6612
X4.825Y-3.65
X4.83Y-3.35
X4.8336Y-2.7406
X4.84Y-5.04
X4.84Y-5.09
X4.85Y-4.65
X4.85Y-4.71
X4.86Y-2.682
X4.86Y-3.02
X4.86Y-4.28
X4.86Y-4.56
X4.865Y-4.165
X4.865Y-4.21
X4.87Y-5.205
X4.88Y-2.31
X4.88Y-3.075
X4.89Y-2.6356
X4.89Y-3.33
X4.89Y-4.65
X4.89Y-4.71
X4.9Y-3.81
X4.9021Y-2.7271
X4.93Y-4.65
X4.93Y-4.71
X4.94Y-2.57
X4.95Y-2.7
X4.97Y-4.65
X4.97Y-4.71
X5.01Y-4.65
X5.01Y-4.71
X5.01Y-5.205
X5.02Y-3.85
X5.03Y-3.36
X5.05Y-4.65
X5.05Y-4.71
X5.06Y-3.21
X5.07Y-5.03
X5.075Y-5.07
X5.09Y-4.65
X5.09Y-4.71
X5.09Y-4.99
X5.0948Y-3.078
X5.11Y-3.8
X5.12Y-3.035
X5.121Y-4.2145
X5.1325Y-4.02
X5.14Y-3.6
X5.2Y-2.975
X5.2Y-3.025
X5.206Y-3.976
X5.231Y-3.57
X5.25Y-2.975
X5.25Y-3.025
X5.28Y-3.24
X5.28Y-3.6
X5.29Y-2.71
X5.29Y-2.75
X5.297Y-3.782
X5.3Y-2.975
X5.3Y-3.025
X5.3Y-5.2
X5.31Y-3.63
X5.321Y-3.481
X5.325Y-3.71
X5.327Y-3.662
X5.328Y-3.756
X5.34Y-2.52
X5.34Y-2.56
X5.34Y-2.6
X5.34Y-2.65
X5.34Y-2.69
X5.34Y-2.73
X5.34Y-4.0675
X5.34Y-4.5
X5.34Y-4.68
X5.34Y-4.885
X5.35Y-2.975
X5.35Y-3.025
X5.35Y-3.3
X5.36Y-4.63
X5.37Y-3.37
X5.37Y-3.51
X5.38Y-4.2225
X5.4Y-2.975
X5.4Y-3.025
X5.4Y-3.865
X5.4Y-4.9
X5.4064Y-3.7564
X5.436Y-3.58
X5.45Y-4.985
X5.465Y-3.58
X5.465Y-4.6665
X5.52Y-3.7
X5.53Y-4.96
X5.535Y-3.95
X5.535Y-4.35
X5.545Y-4.085
X5.5475Y-4.6675
X5.57Y-4.5025
X5.58Y-3.81
X5.59Y-5.17
X5.6275Y-4.6925
X5.628Y-3.589
X5.645Y-4.96
X5.66Y-4.6275
X5.66Y-4.76
X5.6652Y-4.5389
X5.6652Y-4.5818
X5.68Y-4.855
X5.725Y-5.18
X5.75Y-3.94
X5.75Y-4.535
X5.765Y-2.645
X5.77Y-3.2802
X5.78Y-3.3985
X5.78Y-4.0435
X5.78Y-5.295
X5.785Y-4.6485
X5.795Y-2.805
X5.845Y-4.355
X5.85Y-3.715
X5.865Y-3.955
X5.87Y-2.3529
X5.875Y-2.985
X5.875Y-4.06
X5.88Y-2.4325
X5.88Y-2.81
X5.88Y-3.065
X5.88Y-3.42
X5.88Y-3.615
X5.88Y-4.865
X5.88Y-4.9485
X5.88Y-5.36
X5.885Y-4.24
X5.885Y-4.3215
X5.89Y-3.35
X5.89Y-5.25
X5.895Y-3.725
X5.9Y-2.765
X5.91Y-2.655
X5.91Y-4.715
X5.925Y-3.29
X5.925Y-4.56
X5.925Y-5.185
X5.935Y-3.744
X5.936Y-4.375
X5.936Y-5.011
X5.937Y-2.488
X5.939Y-3.118
X5.95Y-5.37
X5.965Y-5.01
X5.966Y-4.375
X5.968Y-2.4898
X5.97Y-3.7497
X5.97Y-3.92
X5.971Y-3.1198
X5.9785Y-4.7077
X5.98Y-2.67
X5.98Y-3.3
X5.98Y-4.08
X5.98Y-5.19
X5.995Y-4.195
X6.Y-2.81
X6.Y-3.93
X6.003Y-5.2015
X6.005Y-4.565
X6.0052Y-2.675
X6.0052Y-3.305
X6.01Y-3.42
X6.025Y-2.96
X6.025Y-3.61
X6.025Y-4.855
X6.03Y-2.34
X6.05Y-4.08
X6.055Y-3.93
X6.055Y-4.56
X6.055Y-4.71
X6.0554Y-2.765
X6.06Y-2.83
X6.06Y-4.2
X6.06Y-5.37
X6.065Y-3.3
X6.0875Y-3.42
X6.1Y-3.3
X6.1Y-5.2
X6.11Y-2.67
X6.11Y-3.93
X6.12Y-4.705
X6.13Y-5.37
X6.14Y-2.81
X6.14Y-5.24
X6.145Y-2.435
X6.145Y-2.715
X6.145Y-3.06
X6.145Y-3.345
X6.145Y-3.695
X6.145Y-4.325
X6.145Y-4.605
X6.15Y-3.98
X6.15Y-4.06
X6.15Y-4.955
X6.16Y-3.41
X6.16Y-3.61
X6.16Y-4.23
X6.17Y-2.34
X6.17Y-2.96
X6.175Y-4.86
X6.285Y-5.17
X6.29Y-2.64
X6.29Y-3.27
X6.29Y-3.905
X6.295Y-4.52
X6.42Y-4.94
X6.425Y-2.435
X6.425Y-2.65
X6.425Y-3.205
X6.425Y-3.69
X6.425Y-3.895
X6.425Y-5.145
X6.43Y-4.3
X6.43Y-4.52
X6.75Y-3.04
X6.75Y-3.65
X6.75Y-4.92
X6.76Y-2.39
X6.76Y-4.28
X7.09Y-3.23
X7.38Y-2.785
X7.4Y-4.64
X7.4Y-5.25
X7.41Y-3.4
X7.41Y-4.01
T3
X7.4969Y-2.47
X7.4969Y-2.57
X7.4994Y-4.99
X7.4994Y-5.09
X7.4994Y-4.36
X7.4994Y-4.46
X7.4994Y-3.7298
X7.4994Y-3.8298
X7.4994Y-3.1
X7.4994Y-3.2
X6.5785Y-4.3597
X6.5785Y-4.4597
X6.5785Y-4.5597
X7.2785Y-4.3597
X7.2785Y-4.4597
X7.2785Y-4.5597
X6.5785Y-4.9903
X6.5785Y-5.0903
X6.5785Y-5.1903
X7.2785Y-4.9903
X7.2785Y-5.0903
X7.2785Y-5.1903
X6.5788Y-2.4687
X6.5788Y-2.5687
X6.5788Y-2.6687
X7.2788Y-2.4687
X7.2788Y-2.5687
X7.2788Y-2.6687
X6.5698Y-3.1203
X6.5698Y-3.2203
X6.5698Y-3.3203
X7.2698Y-3.1203
X7.2698Y-3.2203
X7.2698Y-3.3203
X6.5788Y-3.7303
X6.5788Y-3.8303
X6.5788Y-3.9303
X7.2788Y-3.7303
X7.2788Y-3.8303
X7.2788Y-3.9303
T5
X7.7469Y-2.37
X7.7469Y-2.77
X7.7494Y-4.89
X7.7494Y-5.29
X7.7494Y-4.26
X7.7494Y-4.66
X7.7494Y-3.6298
X7.7494Y-4.0298
X7.7494Y-3.
X7.7494Y-3.4
T2
X4.6852Y-2.6395G85X4.6852Y-2.6828
G05
X4.7698Y-2.5372G85X4.7698Y-2.5647
G05
X4.7698Y-2.7576G85X4.7698Y-2.7852
G05
T4
X4.6373Y-2.5342G85X4.6373Y-2.5315
G05
X4.6373Y-2.7941G85X4.6373Y-2.7913
G05
T0
M30
