G04 #@! TF.FileFunction,Soldermask,Top*
%FSLAX46Y46*%
G04 Gerber Fmt 4.6, Leading zero omitted, Abs format (unit mm)*
G04 Created by KiCad (PCBNEW 4.0.7-e1-6374~58~ubuntu16.04.1) date Mon Oct  9 16:18:12 2017*
%MOMM*%
%LPD*%
G01*
G04 APERTURE LIST*
%ADD10C,0.100000*%
%ADD11R,1.600000X1.150000*%
%ADD12R,0.800000X1.750000*%
%ADD13C,1.600000*%
%ADD14O,2.100000X2.100000*%
%ADD15R,1.600000X1.300000*%
%ADD16R,2.100000X2.100000*%
%ADD17O,2.432000X2.127200*%
%ADD18R,1.100000X1.400000*%
%ADD19R,1.100000X1.000000*%
%ADD20R,1.400000X1.900000*%
%ADD21R,1.150000X2.500000*%
%ADD22R,1.400000X1.500000*%
%ADD23R,1.500000X1.400000*%
%ADD24R,1.050000X1.450000*%
%ADD25R,1.850000X1.100000*%
%ADD26R,1.200000X1.600000*%
%ADD27R,1.200000X2.600000*%
%ADD28R,2.400000X2.900000*%
%ADD29R,1.450000X1.050000*%
%ADD30R,1.150000X1.600000*%
%ADD31R,2.900000X1.800000*%
%ADD32O,2.127200X2.432000*%
%ADD33R,0.650000X1.900000*%
%ADD34C,2.127200*%
%ADD35C,2.600000*%
G04 APERTURE END LIST*
D10*
D11*
X152146000Y-123393200D03*
X150246000Y-123393200D03*
D12*
X124938000Y-132662000D03*
X125588000Y-132662000D03*
X126238000Y-132662000D03*
X126888000Y-132662000D03*
X127538000Y-132662000D03*
D13*
X123813000Y-132587000D03*
X128663000Y-132587000D03*
D14*
X122613000Y-135237000D03*
X129863000Y-135237000D03*
D15*
X159153500Y-71628000D03*
X161353500Y-71628000D03*
D16*
X113766516Y-59462536D03*
D14*
X113766516Y-62002536D03*
X113766516Y-64542536D03*
X113766516Y-67082536D03*
X113766516Y-69622536D03*
D15*
X143721000Y-132080000D03*
X141521000Y-132080000D03*
X143721000Y-134112000D03*
X141521000Y-134112000D03*
X159153500Y-69850000D03*
X161353500Y-69850000D03*
X161290000Y-58983836D03*
X159090000Y-58983836D03*
X159153500Y-67691000D03*
X161353500Y-67691000D03*
X161290000Y-60761836D03*
X159090000Y-60761836D03*
D17*
X118237000Y-92456000D03*
X118237000Y-94996000D03*
X118237000Y-97536000D03*
X118237000Y-100076000D03*
X138557000Y-102616000D03*
X118237000Y-102616000D03*
X138557000Y-105156000D03*
X118237000Y-105156000D03*
X138557000Y-107696000D03*
X118237000Y-107696000D03*
X138557000Y-110236000D03*
X118237000Y-110236000D03*
X138557000Y-112776000D03*
X118237000Y-112776000D03*
X138557000Y-115316000D03*
X118237000Y-115316000D03*
X138557000Y-117856000D03*
X118237000Y-117856000D03*
X138557000Y-120396000D03*
X118237000Y-120396000D03*
X138557000Y-122936000D03*
X118237000Y-122936000D03*
X138557000Y-125476000D03*
X118237000Y-125476000D03*
X138557000Y-128016000D03*
X118237000Y-128016000D03*
X138557000Y-130556000D03*
X118237000Y-130556000D03*
D15*
X159153500Y-87628000D03*
X161353500Y-87628000D03*
X159153500Y-85850000D03*
X161353500Y-85850000D03*
X161290000Y-74983836D03*
X159090000Y-74983836D03*
X159153500Y-83691000D03*
X161353500Y-83691000D03*
X161290000Y-76761836D03*
X159090000Y-76761836D03*
X159153500Y-103628000D03*
X161353500Y-103628000D03*
X159153500Y-101850000D03*
X161353500Y-101850000D03*
X161290000Y-90983836D03*
X159090000Y-90983836D03*
X159153500Y-99691000D03*
X161353500Y-99691000D03*
X161290000Y-92761836D03*
X159090000Y-92761836D03*
X159153500Y-119628000D03*
X161353500Y-119628000D03*
X159153500Y-117850000D03*
X161353500Y-117850000D03*
X161290000Y-106983836D03*
X159090000Y-106983836D03*
X159153500Y-115691000D03*
X161353500Y-115691000D03*
X161290000Y-108761836D03*
X159090000Y-108761836D03*
X159153500Y-135628000D03*
X161353500Y-135628000D03*
X159153500Y-133850000D03*
X161353500Y-133850000D03*
X161290000Y-122983836D03*
X159090000Y-122983836D03*
X159153500Y-131691000D03*
X161353500Y-131691000D03*
X161290000Y-124761836D03*
X159090000Y-124761836D03*
D16*
X136626516Y-59382536D03*
D14*
X136626516Y-61922536D03*
X136626516Y-64462536D03*
X136626516Y-67002536D03*
X136626516Y-69542536D03*
X136626516Y-72082536D03*
D18*
X133876800Y-127226800D03*
D19*
X133876800Y-125526800D03*
X131876800Y-125526800D03*
X131876800Y-127426800D03*
D20*
X127947600Y-128524000D03*
X125747600Y-128524000D03*
D21*
X122174000Y-74530400D03*
X122174000Y-78130400D03*
X123444000Y-74530400D03*
X123444000Y-78130400D03*
X124714000Y-74530400D03*
X124714000Y-78130400D03*
X125984000Y-74530400D03*
X125984000Y-78130400D03*
X127254000Y-74530400D03*
X127254000Y-78130400D03*
D22*
X122072400Y-85228800D03*
X122072400Y-83528800D03*
D23*
X126251600Y-126441200D03*
X127951600Y-126441200D03*
D24*
X117185400Y-69196600D03*
X119085400Y-69196600D03*
X118135400Y-66896600D03*
X117185400Y-65005600D03*
X119085400Y-65005600D03*
X118135400Y-62705600D03*
X117182900Y-60776500D03*
X119082900Y-60776500D03*
X118132900Y-58476500D03*
D25*
X133644000Y-58499500D03*
X128484000Y-58499500D03*
X128484000Y-60499500D03*
X133644000Y-60499500D03*
D10*
G36*
X130308279Y-88905811D02*
X130767898Y-88446192D01*
X131969979Y-89648273D01*
X131510360Y-90107892D01*
X130308279Y-88905811D01*
X130308279Y-88905811D01*
G37*
G36*
X129954726Y-89259364D02*
X130414345Y-88799745D01*
X131616426Y-90001826D01*
X131156807Y-90461445D01*
X129954726Y-89259364D01*
X129954726Y-89259364D01*
G37*
G36*
X129601172Y-89612918D02*
X130060791Y-89153299D01*
X131262872Y-90355380D01*
X130803253Y-90814999D01*
X129601172Y-89612918D01*
X129601172Y-89612918D01*
G37*
G36*
X129247619Y-89966471D02*
X129707238Y-89506852D01*
X130909319Y-90708933D01*
X130449700Y-91168552D01*
X129247619Y-89966471D01*
X129247619Y-89966471D01*
G37*
G36*
X128894066Y-90320024D02*
X129353685Y-89860405D01*
X130555766Y-91062486D01*
X130096147Y-91522105D01*
X128894066Y-90320024D01*
X128894066Y-90320024D01*
G37*
G36*
X128540512Y-90673578D02*
X129000131Y-90213959D01*
X130202212Y-91416040D01*
X129742593Y-91875659D01*
X128540512Y-90673578D01*
X128540512Y-90673578D01*
G37*
G36*
X128186959Y-91027131D02*
X128646578Y-90567512D01*
X129848659Y-91769593D01*
X129389040Y-92229212D01*
X128186959Y-91027131D01*
X128186959Y-91027131D01*
G37*
G36*
X127833405Y-91380685D02*
X128293024Y-90921066D01*
X129495105Y-92123147D01*
X129035486Y-92582766D01*
X127833405Y-91380685D01*
X127833405Y-91380685D01*
G37*
G36*
X127479852Y-91734238D02*
X127939471Y-91274619D01*
X129141552Y-92476700D01*
X128681933Y-92936319D01*
X127479852Y-91734238D01*
X127479852Y-91734238D01*
G37*
G36*
X127126299Y-92087791D02*
X127585918Y-91628172D01*
X128787999Y-92830253D01*
X128328380Y-93289872D01*
X127126299Y-92087791D01*
X127126299Y-92087791D01*
G37*
G36*
X126772745Y-92441345D02*
X127232364Y-91981726D01*
X128434445Y-93183807D01*
X127974826Y-93643426D01*
X126772745Y-92441345D01*
X126772745Y-92441345D01*
G37*
G36*
X126419192Y-92794898D02*
X126878811Y-92335279D01*
X128080892Y-93537360D01*
X127621273Y-93996979D01*
X126419192Y-92794898D01*
X126419192Y-92794898D01*
G37*
G36*
X126878811Y-96259721D02*
X126419192Y-95800102D01*
X127621273Y-94598021D01*
X128080892Y-95057640D01*
X126878811Y-96259721D01*
X126878811Y-96259721D01*
G37*
G36*
X127232364Y-96613274D02*
X126772745Y-96153655D01*
X127974826Y-94951574D01*
X128434445Y-95411193D01*
X127232364Y-96613274D01*
X127232364Y-96613274D01*
G37*
G36*
X127585918Y-96966828D02*
X127126299Y-96507209D01*
X128328380Y-95305128D01*
X128787999Y-95764747D01*
X127585918Y-96966828D01*
X127585918Y-96966828D01*
G37*
G36*
X127939471Y-97320381D02*
X127479852Y-96860762D01*
X128681933Y-95658681D01*
X129141552Y-96118300D01*
X127939471Y-97320381D01*
X127939471Y-97320381D01*
G37*
G36*
X128293024Y-97673934D02*
X127833405Y-97214315D01*
X129035486Y-96012234D01*
X129495105Y-96471853D01*
X128293024Y-97673934D01*
X128293024Y-97673934D01*
G37*
G36*
X128646578Y-98027488D02*
X128186959Y-97567869D01*
X129389040Y-96365788D01*
X129848659Y-96825407D01*
X128646578Y-98027488D01*
X128646578Y-98027488D01*
G37*
G36*
X129000131Y-98381041D02*
X128540512Y-97921422D01*
X129742593Y-96719341D01*
X130202212Y-97178960D01*
X129000131Y-98381041D01*
X129000131Y-98381041D01*
G37*
G36*
X129353685Y-98734595D02*
X128894066Y-98274976D01*
X130096147Y-97072895D01*
X130555766Y-97532514D01*
X129353685Y-98734595D01*
X129353685Y-98734595D01*
G37*
G36*
X129707238Y-99088148D02*
X129247619Y-98628529D01*
X130449700Y-97426448D01*
X130909319Y-97886067D01*
X129707238Y-99088148D01*
X129707238Y-99088148D01*
G37*
G36*
X130060791Y-99441701D02*
X129601172Y-98982082D01*
X130803253Y-97780001D01*
X131262872Y-98239620D01*
X130060791Y-99441701D01*
X130060791Y-99441701D01*
G37*
G36*
X130414345Y-99795255D02*
X129954726Y-99335636D01*
X131156807Y-98133555D01*
X131616426Y-98593174D01*
X130414345Y-99795255D01*
X130414345Y-99795255D01*
G37*
G36*
X130767898Y-100148808D02*
X130308279Y-99689189D01*
X131510360Y-98487108D01*
X131969979Y-98946727D01*
X130767898Y-100148808D01*
X130767898Y-100148808D01*
G37*
G36*
X132571021Y-98946727D02*
X133030640Y-98487108D01*
X134232721Y-99689189D01*
X133773102Y-100148808D01*
X132571021Y-98946727D01*
X132571021Y-98946727D01*
G37*
G36*
X132924574Y-98593174D02*
X133384193Y-98133555D01*
X134586274Y-99335636D01*
X134126655Y-99795255D01*
X132924574Y-98593174D01*
X132924574Y-98593174D01*
G37*
G36*
X133278128Y-98239620D02*
X133737747Y-97780001D01*
X134939828Y-98982082D01*
X134480209Y-99441701D01*
X133278128Y-98239620D01*
X133278128Y-98239620D01*
G37*
G36*
X133631681Y-97886067D02*
X134091300Y-97426448D01*
X135293381Y-98628529D01*
X134833762Y-99088148D01*
X133631681Y-97886067D01*
X133631681Y-97886067D01*
G37*
G36*
X133985234Y-97532514D02*
X134444853Y-97072895D01*
X135646934Y-98274976D01*
X135187315Y-98734595D01*
X133985234Y-97532514D01*
X133985234Y-97532514D01*
G37*
G36*
X134338788Y-97178960D02*
X134798407Y-96719341D01*
X136000488Y-97921422D01*
X135540869Y-98381041D01*
X134338788Y-97178960D01*
X134338788Y-97178960D01*
G37*
G36*
X134692341Y-96825407D02*
X135151960Y-96365788D01*
X136354041Y-97567869D01*
X135894422Y-98027488D01*
X134692341Y-96825407D01*
X134692341Y-96825407D01*
G37*
G36*
X135045895Y-96471853D02*
X135505514Y-96012234D01*
X136707595Y-97214315D01*
X136247976Y-97673934D01*
X135045895Y-96471853D01*
X135045895Y-96471853D01*
G37*
G36*
X135399448Y-96118300D02*
X135859067Y-95658681D01*
X137061148Y-96860762D01*
X136601529Y-97320381D01*
X135399448Y-96118300D01*
X135399448Y-96118300D01*
G37*
G36*
X135753001Y-95764747D02*
X136212620Y-95305128D01*
X137414701Y-96507209D01*
X136955082Y-96966828D01*
X135753001Y-95764747D01*
X135753001Y-95764747D01*
G37*
G36*
X136106555Y-95411193D02*
X136566174Y-94951574D01*
X137768255Y-96153655D01*
X137308636Y-96613274D01*
X136106555Y-95411193D01*
X136106555Y-95411193D01*
G37*
G36*
X136460108Y-95057640D02*
X136919727Y-94598021D01*
X138121808Y-95800102D01*
X137662189Y-96259721D01*
X136460108Y-95057640D01*
X136460108Y-95057640D01*
G37*
G36*
X136919727Y-93996979D02*
X136460108Y-93537360D01*
X137662189Y-92335279D01*
X138121808Y-92794898D01*
X136919727Y-93996979D01*
X136919727Y-93996979D01*
G37*
G36*
X136566174Y-93643426D02*
X136106555Y-93183807D01*
X137308636Y-91981726D01*
X137768255Y-92441345D01*
X136566174Y-93643426D01*
X136566174Y-93643426D01*
G37*
G36*
X136212620Y-93289872D02*
X135753001Y-92830253D01*
X136955082Y-91628172D01*
X137414701Y-92087791D01*
X136212620Y-93289872D01*
X136212620Y-93289872D01*
G37*
G36*
X135859067Y-92936319D02*
X135399448Y-92476700D01*
X136601529Y-91274619D01*
X137061148Y-91734238D01*
X135859067Y-92936319D01*
X135859067Y-92936319D01*
G37*
G36*
X135505514Y-92582766D02*
X135045895Y-92123147D01*
X136247976Y-90921066D01*
X136707595Y-91380685D01*
X135505514Y-92582766D01*
X135505514Y-92582766D01*
G37*
G36*
X135151960Y-92229212D02*
X134692341Y-91769593D01*
X135894422Y-90567512D01*
X136354041Y-91027131D01*
X135151960Y-92229212D01*
X135151960Y-92229212D01*
G37*
G36*
X134798407Y-91875659D02*
X134338788Y-91416040D01*
X135540869Y-90213959D01*
X136000488Y-90673578D01*
X134798407Y-91875659D01*
X134798407Y-91875659D01*
G37*
G36*
X134444853Y-91522105D02*
X133985234Y-91062486D01*
X135187315Y-89860405D01*
X135646934Y-90320024D01*
X134444853Y-91522105D01*
X134444853Y-91522105D01*
G37*
G36*
X134091300Y-91168552D02*
X133631681Y-90708933D01*
X134833762Y-89506852D01*
X135293381Y-89966471D01*
X134091300Y-91168552D01*
X134091300Y-91168552D01*
G37*
G36*
X133737747Y-90814999D02*
X133278128Y-90355380D01*
X134480209Y-89153299D01*
X134939828Y-89612918D01*
X133737747Y-90814999D01*
X133737747Y-90814999D01*
G37*
G36*
X133384193Y-90461445D02*
X132924574Y-90001826D01*
X134126655Y-88799745D01*
X134586274Y-89259364D01*
X133384193Y-90461445D01*
X133384193Y-90461445D01*
G37*
G36*
X133030640Y-90107892D02*
X132571021Y-89648273D01*
X133773102Y-88446192D01*
X134232721Y-88905811D01*
X133030640Y-90107892D01*
X133030640Y-90107892D01*
G37*
D26*
X125096400Y-118849200D03*
D27*
X123596400Y-119349200D03*
D26*
X122096400Y-118849200D03*
D28*
X123596400Y-121699200D03*
D10*
G36*
X129286231Y-85827577D02*
X130912577Y-84201231D01*
X131973237Y-85261891D01*
X130346891Y-86888237D01*
X129286231Y-85827577D01*
X129286231Y-85827577D01*
G37*
G36*
X131053997Y-87595343D02*
X132680343Y-85968997D01*
X133741003Y-87029657D01*
X132114657Y-88656003D01*
X131053997Y-87595343D01*
X131053997Y-87595343D01*
G37*
D29*
X129521601Y-106937999D03*
X129521601Y-105037999D03*
X127221601Y-105987999D03*
D30*
X125603000Y-85735200D03*
X125603000Y-83835200D03*
X127381000Y-85735200D03*
X127381000Y-83835200D03*
D10*
G36*
X133672850Y-81667977D02*
X134486023Y-82481150D01*
X133354652Y-83612521D01*
X132541479Y-82799348D01*
X133672850Y-81667977D01*
X133672850Y-81667977D01*
G37*
G36*
X132329348Y-83011479D02*
X133142521Y-83824652D01*
X132011150Y-84956023D01*
X131197977Y-84142850D01*
X132329348Y-83011479D01*
X132329348Y-83011479D01*
G37*
G36*
X135450850Y-83445977D02*
X136264023Y-84259150D01*
X135132652Y-85390521D01*
X134319479Y-84577348D01*
X135450850Y-83445977D01*
X135450850Y-83445977D01*
G37*
G36*
X134107348Y-84789479D02*
X134920521Y-85602652D01*
X133789150Y-86734023D01*
X132975977Y-85920850D01*
X134107348Y-84789479D01*
X134107348Y-84789479D01*
G37*
D30*
X136753600Y-89138800D03*
X136753600Y-87238800D03*
X138531600Y-89138800D03*
X138531600Y-87238800D03*
X123850400Y-85328800D03*
X123850400Y-83428800D03*
X123698000Y-97856000D03*
X123698000Y-99756000D03*
X138633200Y-97856000D03*
X138633200Y-99756000D03*
D11*
X123733600Y-128270000D03*
X121833600Y-128270000D03*
X128051600Y-124714000D03*
X126151600Y-124714000D03*
X123733600Y-124764800D03*
X121833600Y-124764800D03*
X118379200Y-134061200D03*
X120279200Y-134061200D03*
X123733600Y-126441200D03*
X121833600Y-126441200D03*
X121986000Y-116332000D03*
X123886000Y-116332000D03*
X155699500Y-71628000D03*
X153799500Y-71628000D03*
X151297500Y-71628000D03*
X149397500Y-71628000D03*
X152120600Y-59461400D03*
X150220600Y-59461400D03*
X154142400Y-59461400D03*
X156042400Y-59461400D03*
D30*
X148158200Y-61564600D03*
X148158200Y-59664600D03*
X158940500Y-65128000D03*
X158940500Y-63228000D03*
D11*
X155699500Y-87628000D03*
X153799500Y-87628000D03*
X151297500Y-87628000D03*
X149397500Y-87628000D03*
X152095200Y-75209400D03*
X150195200Y-75209400D03*
X154167800Y-75209400D03*
X156067800Y-75209400D03*
D30*
X147904200Y-77312600D03*
X147904200Y-75412600D03*
X158940500Y-81128000D03*
X158940500Y-79228000D03*
D11*
X155699500Y-103628000D03*
X153799500Y-103628000D03*
X151297500Y-103628000D03*
X149397500Y-103628000D03*
X152156200Y-91313000D03*
X150256200Y-91313000D03*
X154142400Y-91313000D03*
X156042400Y-91313000D03*
D30*
X147904200Y-93416200D03*
X147904200Y-91516200D03*
X158940500Y-97128000D03*
X158940500Y-95228000D03*
D11*
X155699500Y-119628000D03*
X153799500Y-119628000D03*
X151297500Y-119628000D03*
X149397500Y-119628000D03*
X152146000Y-107315000D03*
X150246000Y-107315000D03*
X154152600Y-107315000D03*
X156052600Y-107315000D03*
D30*
X148005800Y-109418200D03*
X148005800Y-107518200D03*
X158940500Y-113128000D03*
X158940500Y-111228000D03*
D11*
X155699500Y-135628000D03*
X153799500Y-135628000D03*
X151297500Y-135628000D03*
X149397500Y-135628000D03*
X154152600Y-123393200D03*
X156052600Y-123393200D03*
D30*
X148031200Y-125496400D03*
X148031200Y-123596400D03*
X158940500Y-129128000D03*
X158940500Y-127228000D03*
D15*
X123045400Y-68618100D03*
X120845400Y-68618100D03*
X123045400Y-64427100D03*
X120845400Y-64427100D03*
X123045400Y-60134500D03*
X120845400Y-60134500D03*
X123186201Y-105156799D03*
X125386201Y-105156799D03*
X128301200Y-62992000D03*
X130501200Y-62992000D03*
X128287600Y-64871600D03*
X130487600Y-64871600D03*
X123045400Y-66903600D03*
X120845400Y-66903600D03*
X123045400Y-62712600D03*
X120845400Y-62712600D03*
X123045400Y-58420000D03*
X120845400Y-58420000D03*
X142973648Y-93980000D03*
X140773648Y-93980000D03*
X142973648Y-92297298D03*
X140773648Y-92297298D03*
X118229200Y-135737600D03*
X120429200Y-135737600D03*
X123186201Y-106833199D03*
X125386201Y-106833199D03*
D31*
X182027600Y-69850000D03*
X182027600Y-67550000D03*
X182027600Y-65250000D03*
X182027600Y-62950000D03*
X182027600Y-60650000D03*
X170027600Y-60650000D03*
X170027600Y-62950000D03*
X170027600Y-65250000D03*
X170027600Y-67550000D03*
X170027600Y-69850000D03*
D32*
X167100720Y-62703988D03*
X167100720Y-65243988D03*
X167100720Y-67783988D03*
X184880720Y-62703988D03*
X184880720Y-65243988D03*
X184880720Y-67783988D03*
D31*
X182027600Y-85866000D03*
X182027600Y-83566000D03*
X182027600Y-81266000D03*
X182027600Y-78966000D03*
X182027600Y-76666000D03*
X170027600Y-76666000D03*
X170027600Y-78966000D03*
X170027600Y-81266000D03*
X170027600Y-83566000D03*
X170027600Y-85866000D03*
D32*
X167100720Y-78719988D03*
X167100720Y-81259988D03*
X167100720Y-83799988D03*
X184880720Y-78719988D03*
X184880720Y-81259988D03*
X184880720Y-83799988D03*
D31*
X182027600Y-101896000D03*
X182027600Y-99596000D03*
X182027600Y-97296000D03*
X182027600Y-94996000D03*
X182027600Y-92696000D03*
X170027600Y-92696000D03*
X170027600Y-94996000D03*
X170027600Y-97296000D03*
X170027600Y-99596000D03*
X170027600Y-101896000D03*
D32*
X167100720Y-94749988D03*
X167100720Y-97289988D03*
X167100720Y-99829988D03*
X184880720Y-94749988D03*
X184880720Y-97289988D03*
X184880720Y-99829988D03*
D31*
X182022000Y-117882500D03*
X182022000Y-115582500D03*
X182022000Y-113282500D03*
X182022000Y-110982500D03*
X182022000Y-108682500D03*
X170022000Y-108682500D03*
X170022000Y-110982500D03*
X170022000Y-113282500D03*
X170022000Y-115582500D03*
X170022000Y-117882500D03*
D32*
X167095120Y-110736488D03*
X167095120Y-113276488D03*
X167095120Y-115816488D03*
X184875120Y-110736488D03*
X184875120Y-113276488D03*
X184875120Y-115816488D03*
D31*
X182022000Y-133900000D03*
X182022000Y-131600000D03*
X182022000Y-129300000D03*
X182022000Y-127000000D03*
X182022000Y-124700000D03*
X170022000Y-124700000D03*
X170022000Y-127000000D03*
X170022000Y-129300000D03*
X170022000Y-131600000D03*
X170022000Y-133900000D03*
D32*
X167095120Y-126753988D03*
X167095120Y-129293988D03*
X167095120Y-131833988D03*
X184875120Y-126753988D03*
X184875120Y-129293988D03*
X184875120Y-131833988D03*
D33*
X149906200Y-68986400D03*
X150556200Y-68986400D03*
X151206200Y-68986400D03*
X151856200Y-68986400D03*
X152506200Y-68986400D03*
X153156200Y-68986400D03*
X153806200Y-68986400D03*
X154456200Y-68986400D03*
X155106200Y-68986400D03*
X155756200Y-68986400D03*
X155756200Y-61786400D03*
X155106200Y-61786400D03*
X154456200Y-61786400D03*
X153806200Y-61786400D03*
X153156200Y-61786400D03*
X152506200Y-61786400D03*
X151856200Y-61786400D03*
X151206200Y-61786400D03*
X150556200Y-61786400D03*
X149906200Y-61786400D03*
X149912000Y-85013800D03*
X150562000Y-85013800D03*
X151212000Y-85013800D03*
X151862000Y-85013800D03*
X152512000Y-85013800D03*
X153162000Y-85013800D03*
X153812000Y-85013800D03*
X154462000Y-85013800D03*
X155112000Y-85013800D03*
X155762000Y-85013800D03*
X155762000Y-77813800D03*
X155112000Y-77813800D03*
X154462000Y-77813800D03*
X153812000Y-77813800D03*
X153162000Y-77813800D03*
X152512000Y-77813800D03*
X151862000Y-77813800D03*
X151212000Y-77813800D03*
X150562000Y-77813800D03*
X149912000Y-77813800D03*
X149906200Y-100965000D03*
X150556200Y-100965000D03*
X151206200Y-100965000D03*
X151856200Y-100965000D03*
X152506200Y-100965000D03*
X153156200Y-100965000D03*
X153806200Y-100965000D03*
X154456200Y-100965000D03*
X155106200Y-100965000D03*
X155756200Y-100965000D03*
X155756200Y-93765000D03*
X155106200Y-93765000D03*
X154456200Y-93765000D03*
X153806200Y-93765000D03*
X153156200Y-93765000D03*
X152506200Y-93765000D03*
X151856200Y-93765000D03*
X151206200Y-93765000D03*
X150556200Y-93765000D03*
X149906200Y-93765000D03*
X149901600Y-116967000D03*
X150551600Y-116967000D03*
X151201600Y-116967000D03*
X151851600Y-116967000D03*
X152501600Y-116967000D03*
X153151600Y-116967000D03*
X153801600Y-116967000D03*
X154451600Y-116967000D03*
X155101600Y-116967000D03*
X155751600Y-116967000D03*
X155751600Y-109767000D03*
X155101600Y-109767000D03*
X154451600Y-109767000D03*
X153801600Y-109767000D03*
X153151600Y-109767000D03*
X152501600Y-109767000D03*
X151851600Y-109767000D03*
X151201600Y-109767000D03*
X150551600Y-109767000D03*
X149901600Y-109767000D03*
X149901600Y-133107800D03*
X150551600Y-133107800D03*
X151201600Y-133107800D03*
X151851600Y-133107800D03*
X152501600Y-133107800D03*
X153151600Y-133107800D03*
X153801600Y-133107800D03*
X154451600Y-133107800D03*
X155101600Y-133107800D03*
X155751600Y-133107800D03*
X155751600Y-125907800D03*
X155101600Y-125907800D03*
X154451600Y-125907800D03*
X153801600Y-125907800D03*
X153151600Y-125907800D03*
X152501600Y-125907800D03*
X151851600Y-125907800D03*
X151201600Y-125907800D03*
X150551600Y-125907800D03*
X149901600Y-125907800D03*
D34*
X190484000Y-126746000D03*
X190484000Y-129286000D03*
D35*
X196834000Y-124206000D03*
X196834000Y-134366000D03*
D34*
X190484000Y-110744000D03*
X190484000Y-113284000D03*
D35*
X196834000Y-108204000D03*
X196834000Y-118364000D03*
D34*
X190484000Y-78740000D03*
X190484000Y-81280000D03*
D35*
X196834000Y-76200000D03*
X196834000Y-86360000D03*
D34*
X190484000Y-94738000D03*
X190484000Y-97278000D03*
D35*
X196834000Y-92198000D03*
X196834000Y-102358000D03*
D34*
X190420500Y-62738000D03*
X190420500Y-65278000D03*
D35*
X196770500Y-60198000D03*
X196770500Y-70358000D03*
M02*
