G04 #@! TF.GenerationSoftware,KiCad,Pcbnew,5.0.0-fee4fd1~66~ubuntu16.04.1*
G04 #@! TF.CreationDate,2018-09-07T15:40:58-07:00*
G04 #@! TF.ProjectId,fk-atlas,666B2D61746C61732E6B696361645F70,rev?*
G04 #@! TF.SameCoordinates,Original*
G04 #@! TF.FileFunction,Soldermask,Bot*
G04 #@! TF.FilePolarity,Negative*
%FSLAX46Y46*%
G04 Gerber Fmt 4.6, Leading zero omitted, Abs format (unit mm)*
G04 Created by KiCad (PCBNEW 5.0.0-fee4fd1~66~ubuntu16.04.1) date Fri Sep  7 15:40:58 2018*
%MOMM*%
%LPD*%
G01*
G04 APERTURE LIST*
%ADD10R,1.368400X1.800200*%
%ADD11C,2.100000*%
%ADD12C,1.800000*%
%ADD13C,1.300000*%
%ADD14O,1.927200X2.232000*%
%ADD15C,1.927200*%
%ADD16C,2.400000*%
%ADD17C,2.740000*%
G04 APERTURE END LIST*
D10*
G04 #@! TO.C,J3*
X143281400Y-87579200D03*
X141757400Y-87579200D03*
G04 #@! TD*
D11*
G04 #@! TO.C,J2*
X117607000Y-67564000D03*
D12*
X118382000Y-71189000D03*
X118382000Y-63939000D03*
D13*
X121032000Y-69989000D03*
X121032000Y-65139000D03*
X119707000Y-64764000D03*
X119707000Y-70364000D03*
G04 #@! TD*
D14*
G04 #@! TO.C,U202*
X167100720Y-62703988D03*
X167100720Y-65243988D03*
X167100720Y-67783988D03*
X184880720Y-62703988D03*
X184880720Y-65243988D03*
X184880720Y-67783988D03*
G04 #@! TD*
G04 #@! TO.C,U302*
X167100720Y-78719988D03*
X167100720Y-81259988D03*
X167100720Y-83799988D03*
X184880720Y-78719988D03*
X184880720Y-81259988D03*
X184880720Y-83799988D03*
G04 #@! TD*
G04 #@! TO.C,U402*
X167100720Y-94749988D03*
X167100720Y-97289988D03*
X167100720Y-99829988D03*
X184880720Y-94749988D03*
X184880720Y-97289988D03*
X184880720Y-99829988D03*
G04 #@! TD*
G04 #@! TO.C,U502*
X167095120Y-110736488D03*
X167095120Y-113276488D03*
X167095120Y-115816488D03*
X184875120Y-110736488D03*
X184875120Y-113276488D03*
X184875120Y-115816488D03*
G04 #@! TD*
G04 #@! TO.C,U602*
X167095120Y-126753988D03*
X167095120Y-129293988D03*
X167095120Y-131833988D03*
X184875120Y-126753988D03*
X184875120Y-129293988D03*
X184875120Y-131833988D03*
G04 #@! TD*
D15*
G04 #@! TO.C,J601*
X190484000Y-126746000D03*
X190484000Y-129286000D03*
D16*
X196834000Y-124206000D03*
X196834000Y-134366000D03*
G04 #@! TD*
D15*
G04 #@! TO.C,J501*
X190484000Y-110744000D03*
X190484000Y-113284000D03*
D16*
X196834000Y-108204000D03*
X196834000Y-118364000D03*
G04 #@! TD*
D15*
G04 #@! TO.C,J301*
X190484000Y-78740000D03*
X190484000Y-81280000D03*
D16*
X196834000Y-76200000D03*
X196834000Y-86360000D03*
G04 #@! TD*
D15*
G04 #@! TO.C,J401*
X190484000Y-94738000D03*
X190484000Y-97278000D03*
D16*
X196834000Y-92198000D03*
X196834000Y-102358000D03*
G04 #@! TD*
D15*
G04 #@! TO.C,J201*
X190420500Y-62738000D03*
X190420500Y-65278000D03*
D16*
X196770500Y-60198000D03*
X196770500Y-70358000D03*
G04 #@! TD*
D17*
G04 #@! TO.C,M1*
X117475000Y-135890000D03*
G04 #@! TD*
G04 #@! TO.C,M2*
X117475000Y-59182000D03*
G04 #@! TD*
G04 #@! TO.C,M3*
X187325000Y-135890000D03*
G04 #@! TD*
G04 #@! TO.C,M4*
X187325000Y-59182000D03*
G04 #@! TD*
M02*
