M48
;DRILL file {KiCad 5.0.0-fee4fd1~65~ubuntu16.04.1} date Mon Jul 30 15:47:16 2018
;FORMAT={-:-/ absolute / inch / decimal}
FMAT,2
INCH,TZ
T1C0.0118
T2C0.0276
T3C0.0315
T4C0.0400
T5C0.0433
T6C0.0551
T7C0.0827
%
G90
G05
M72
T1
X4.6Y-2.97
X4.6Y-3.77
X4.615Y-5.08
X4.62Y-4.71
X4.665Y-4.31
X4.69Y-4.7084
X4.715Y-4.61
X4.744Y-3.723
X4.75Y-4.99
X4.775Y-3.875
X4.7842Y-4.475
X4.805Y-3.865
X4.86Y-3.02
X4.86Y-4.56
X4.865Y-4.165
X4.865Y-4.21
X4.87Y-4.95
X4.88Y-3.075
X4.895Y-5.005
X4.9Y-2.725
X4.92Y-3.282
X4.95Y-3.792
X5.06Y-3.21
X5.0809Y-4.1516
X5.0948Y-3.078
X5.098Y-3.728
X5.12Y-3.035
X5.126Y-3.728
X5.1325Y-4.02
X5.186Y-3.65
X5.206Y-3.976
X5.231Y-3.57
X5.232Y-3.65
X5.285Y-4.05
X5.285Y-4.075
X5.297Y-3.782
X5.305Y-3.233
X5.321Y-3.481
X5.327Y-3.662
X5.328Y-3.756
X5.33Y-3.07
X5.33Y-3.11
X5.3315Y-3.698
X5.348Y-3.274
X5.37Y-3.07
X5.37Y-3.11
X5.376Y-3.517
X5.41Y-3.07
X5.41Y-3.11
X5.415Y-3.859
X5.436Y-3.58
X5.437Y-3.808
X5.465Y-3.58
X5.4837Y-3.4387
X5.4874Y-3.1034
X5.49Y-4.07
X5.49Y-4.29
X5.507Y-3.409
X5.512Y-3.808
X5.512Y-3.842
X5.582Y-3.8468
X5.5862Y-3.8822
X5.61Y-3.248
X5.628Y-3.589
X5.74Y-3.466
X5.8325Y-4.08
X5.8325Y-4.1075
X5.855Y-3.903
X5.9088Y-5.3875
X5.9275Y-5.1202
X5.9331Y-3.8588
X5.9331Y-4.4888
X5.9333Y-3.2286
X5.9338Y-2.5938
X5.935Y-3.744
X5.935Y-4.035
X5.935Y-4.665
X5.936Y-4.375
X5.936Y-5.011
X5.937Y-2.488
X5.939Y-3.118
X5.94Y-2.775
X5.94Y-3.405
X5.96Y-3.23
X5.96Y-3.86
X5.96Y-4.49
X5.96Y-5.12
X5.9607Y-2.595
X5.965Y-5.01
X5.966Y-4.375
X5.968Y-2.4898
X5.97Y-3.7497
X5.971Y-3.1198
X6.055Y-5.0535
X6.0555Y-3.794
X6.0555Y-4.4235
X6.056Y-3.165
X6.0565Y-2.533
X6.16Y-2.775
X6.16Y-3.405
X6.16Y-4.665
X6.165Y-4.035
X6.242Y-3.178
X6.242Y-3.205
X6.2425Y-3.8125
X6.2425Y-3.84
X6.2425Y-5.078
X6.2425Y-5.107
X6.243Y-2.556
X6.243Y-2.5825
X6.243Y-4.4385
X6.243Y-4.467
X6.495Y-3.375
X6.495Y-4.005
X6.5Y-2.745
X6.5Y-4.635
X6.5Y-5.265
T2
X4.765Y-2.5645
X4.765Y-2.7555
T3
X4.7129Y-2.5498
X4.7129Y-2.7702
T4
X7.4994Y-4.99
X7.4994Y-5.09
X7.4994Y-3.7298
X7.4994Y-3.8298
X6.5785Y-4.3597
X6.5785Y-4.4597
X6.5785Y-4.5597
X7.2785Y-4.3597
X7.2785Y-4.4597
X7.2785Y-4.5597
X6.5788Y-3.7303
X6.5788Y-3.8303
X6.5788Y-3.9303
X7.2788Y-3.7303
X7.2788Y-3.8303
X7.2788Y-3.9303
X6.5788Y-3.0992
X6.5788Y-3.1992
X6.5788Y-3.2992
X7.2788Y-3.0992
X7.2788Y-3.1992
X7.2788Y-3.2992
X7.4994Y-4.36
X7.4994Y-4.46
X7.4994Y-3.1
X7.4994Y-3.2
X6.5788Y-2.4687
X6.5788Y-2.5687
X6.5788Y-2.6687
X7.2788Y-2.4687
X7.2788Y-2.5687
X7.2788Y-2.6687
X6.5785Y-4.9903
X6.5785Y-5.0903
X6.5785Y-5.1903
X7.2785Y-4.9903
X7.2785Y-5.0903
X7.2785Y-5.1903
X7.4969Y-2.47
X7.4969Y-2.57
T7
X7.7494Y-4.89
X7.7494Y-5.29
X7.7494Y-3.6298
X7.7494Y-4.0298
X7.7494Y-4.26
X7.7494Y-4.66
X7.7494Y-3.
X7.7494Y-3.4
X7.7469Y-2.37
X7.7469Y-2.77
T5
X4.6607Y-2.5173G85X4.6607Y-2.5173
G05
X4.6607Y-2.8027G85X4.6607Y-2.8027
G05
T6
X4.6302Y-2.66G85X4.6302Y-2.66
G05
T0
M30
