G04 #@! TF.GenerationSoftware,KiCad,Pcbnew,(5.0.0)*
G04 #@! TF.CreationDate,2019-01-07T10:47:39-06:00*
G04 #@! TF.ProjectId,fk-atlas-v0.11-01x02,666B2D61746C61732D76302E31312D30,0.1*
G04 #@! TF.SameCoordinates,Original*
G04 #@! TF.FileFunction,Copper,L4,Bot,Signal*
G04 #@! TF.FilePolarity,Positive*
%FSLAX46Y46*%
G04 Gerber Fmt 4.6, Leading zero omitted, Abs format (unit mm)*
G04 Created by KiCad (PCBNEW (5.0.0)) date 01/07/19 10:47:39*
%MOMM*%
%LPD*%
G01*
G04 APERTURE LIST*
G04 #@! TA.AperFunction,NonConductor*
%ADD10C,0.300000*%
G04 #@! TD*
G04 #@! TA.AperFunction,BGAPad,CuDef*
%ADD11C,1.000000*%
G04 #@! TD*
G04 #@! TA.AperFunction,SMDPad,CuDef*
%ADD12R,1.168400X1.600200*%
G04 #@! TD*
G04 #@! TA.AperFunction,ComponentPad*
%ADD13C,1.727200*%
G04 #@! TD*
G04 #@! TA.AperFunction,ComponentPad*
%ADD14C,2.200000*%
G04 #@! TD*
G04 #@! TA.AperFunction,ComponentPad*
%ADD15O,1.727200X2.032000*%
G04 #@! TD*
G04 #@! TA.AperFunction,SMDPad,CuDef*
%ADD16R,1.400000X1.600000*%
G04 #@! TD*
G04 #@! TA.AperFunction,SMDPad,CuDef*
%ADD17R,1.350000X0.400000*%
G04 #@! TD*
G04 #@! TA.AperFunction,ComponentPad*
%ADD18O,1.600000X1.651000*%
G04 #@! TD*
G04 #@! TA.AperFunction,SMDPad,CuDef*
%ADD19R,1.400000X1.900000*%
G04 #@! TD*
G04 #@! TA.AperFunction,ComponentPad*
%ADD20O,1.100000X1.800000*%
G04 #@! TD*
G04 #@! TA.AperFunction,ComponentPad*
%ADD21O,1.100000X2.200000*%
G04 #@! TD*
G04 #@! TA.AperFunction,ViaPad*
%ADD22C,0.500000*%
G04 #@! TD*
G04 #@! TA.AperFunction,Conductor*
%ADD23C,0.254000*%
G04 #@! TD*
G04 #@! TA.AperFunction,Conductor*
%ADD24C,0.587000*%
G04 #@! TD*
G04 #@! TA.AperFunction,Conductor*
%ADD25C,0.203000*%
G04 #@! TD*
G04 #@! TA.AperFunction,Conductor*
%ADD26C,0.381000*%
G04 #@! TD*
G04 APERTURE END LIST*
D10*
X240317114Y-274622257D02*
X240102828Y-274693685D01*
X240031400Y-274765114D01*
X239959971Y-274907971D01*
X239959971Y-275122257D01*
X240031400Y-275265114D01*
X240102828Y-275336542D01*
X240245685Y-275407971D01*
X240817114Y-275407971D01*
X240817114Y-273907971D01*
X240317114Y-273907971D01*
X240174257Y-273979400D01*
X240102828Y-274050828D01*
X240031400Y-274193685D01*
X240031400Y-274336542D01*
X240102828Y-274479400D01*
X240174257Y-274550828D01*
X240317114Y-274622257D01*
X240817114Y-274622257D01*
X238674257Y-275407971D02*
X238674257Y-274622257D01*
X238745685Y-274479400D01*
X238888542Y-274407971D01*
X239174257Y-274407971D01*
X239317114Y-274479400D01*
X238674257Y-275336542D02*
X238817114Y-275407971D01*
X239174257Y-275407971D01*
X239317114Y-275336542D01*
X239388542Y-275193685D01*
X239388542Y-275050828D01*
X239317114Y-274907971D01*
X239174257Y-274836542D01*
X238817114Y-274836542D01*
X238674257Y-274765114D01*
X238174257Y-274407971D02*
X237602828Y-274407971D01*
X237959971Y-273907971D02*
X237959971Y-275193685D01*
X237888542Y-275336542D01*
X237745685Y-275407971D01*
X237602828Y-275407971D01*
X236459971Y-275336542D02*
X236602828Y-275407971D01*
X236888542Y-275407971D01*
X237031400Y-275336542D01*
X237102828Y-275265114D01*
X237174257Y-275122257D01*
X237174257Y-274693685D01*
X237102828Y-274550828D01*
X237031400Y-274479400D01*
X236888542Y-274407971D01*
X236602828Y-274407971D01*
X236459971Y-274479400D01*
X235817114Y-275407971D02*
X235817114Y-273907971D01*
X235174257Y-275407971D02*
X235174257Y-274622257D01*
X235245685Y-274479400D01*
X235388542Y-274407971D01*
X235602828Y-274407971D01*
X235745685Y-274479400D01*
X235817114Y-274550828D01*
X232531400Y-275407971D02*
X233388542Y-275407971D01*
X232959971Y-275407971D02*
X232959971Y-273907971D01*
X233102828Y-274122257D01*
X233245685Y-274265114D01*
X233388542Y-274336542D01*
X231817114Y-275336542D02*
X231817114Y-275407971D01*
X231888542Y-275550828D01*
X231959971Y-275622257D01*
X229602828Y-273907971D02*
X229602828Y-274979400D01*
X229674257Y-275193685D01*
X229817114Y-275336542D01*
X230031400Y-275407971D01*
X230174257Y-275407971D01*
X228245685Y-275407971D02*
X228245685Y-274622257D01*
X228317114Y-274479400D01*
X228459971Y-274407971D01*
X228745685Y-274407971D01*
X228888542Y-274479400D01*
X228245685Y-275336542D02*
X228388542Y-275407971D01*
X228745685Y-275407971D01*
X228888542Y-275336542D01*
X228959971Y-275193685D01*
X228959971Y-275050828D01*
X228888542Y-274907971D01*
X228745685Y-274836542D01*
X228388542Y-274836542D01*
X228245685Y-274765114D01*
X227531400Y-274407971D02*
X227531400Y-275407971D01*
X227531400Y-274550828D02*
X227459971Y-274479400D01*
X227317114Y-274407971D01*
X227102828Y-274407971D01*
X226959971Y-274479400D01*
X226888542Y-274622257D01*
X226888542Y-275407971D01*
X225531400Y-274407971D02*
X225531400Y-275407971D01*
X226174257Y-274407971D02*
X226174257Y-275193685D01*
X226102828Y-275336542D01*
X225959971Y-275407971D01*
X225745685Y-275407971D01*
X225602828Y-275336542D01*
X225531400Y-275265114D01*
X224174257Y-275407971D02*
X224174257Y-274622257D01*
X224245685Y-274479400D01*
X224388542Y-274407971D01*
X224674257Y-274407971D01*
X224817114Y-274479400D01*
X224174257Y-275336542D02*
X224317114Y-275407971D01*
X224674257Y-275407971D01*
X224817114Y-275336542D01*
X224888542Y-275193685D01*
X224888542Y-275050828D01*
X224817114Y-274907971D01*
X224674257Y-274836542D01*
X224317114Y-274836542D01*
X224174257Y-274765114D01*
X223459971Y-275407971D02*
X223459971Y-274407971D01*
X223459971Y-274693685D02*
X223388542Y-274550828D01*
X223317114Y-274479400D01*
X223174257Y-274407971D01*
X223031400Y-274407971D01*
X222674257Y-274407971D02*
X222317114Y-275407971D01*
X221959971Y-274407971D02*
X222317114Y-275407971D01*
X222459971Y-275765114D01*
X222531400Y-275836542D01*
X222674257Y-275907971D01*
X220317114Y-274050828D02*
X220245685Y-273979400D01*
X220102828Y-273907971D01*
X219745685Y-273907971D01*
X219602828Y-273979400D01*
X219531400Y-274050828D01*
X219459971Y-274193685D01*
X219459971Y-274336542D01*
X219531400Y-274550828D01*
X220388542Y-275407971D01*
X219459971Y-275407971D01*
X218531400Y-273907971D02*
X218388542Y-273907971D01*
X218245685Y-273979400D01*
X218174257Y-274050828D01*
X218102828Y-274193685D01*
X218031400Y-274479400D01*
X218031400Y-274836542D01*
X218102828Y-275122257D01*
X218174257Y-275265114D01*
X218245685Y-275336542D01*
X218388542Y-275407971D01*
X218531400Y-275407971D01*
X218674257Y-275336542D01*
X218745685Y-275265114D01*
X218817114Y-275122257D01*
X218888542Y-274836542D01*
X218888542Y-274479400D01*
X218817114Y-274193685D01*
X218745685Y-274050828D01*
X218674257Y-273979400D01*
X218531400Y-273907971D01*
X216602828Y-275407971D02*
X217459971Y-275407971D01*
X217031400Y-275407971D02*
X217031400Y-273907971D01*
X217174257Y-274122257D01*
X217317114Y-274265114D01*
X217459971Y-274336542D01*
X215888542Y-275407971D02*
X215602828Y-275407971D01*
X215459971Y-275336542D01*
X215388542Y-275265114D01*
X215245685Y-275050828D01*
X215174257Y-274765114D01*
X215174257Y-274193685D01*
X215245685Y-274050828D01*
X215317114Y-273979400D01*
X215459971Y-273907971D01*
X215745685Y-273907971D01*
X215888542Y-273979400D01*
X215959971Y-274050828D01*
X216031400Y-274193685D01*
X216031400Y-274550828D01*
X215959971Y-274693685D01*
X215888542Y-274765114D01*
X215745685Y-274836542D01*
X215459971Y-274836542D01*
X215317114Y-274765114D01*
X215245685Y-274693685D01*
X215174257Y-274550828D01*
X178639971Y-176239400D02*
X178639971Y-176810828D01*
X179639971Y-176453685D02*
X178354257Y-176453685D01*
X178211400Y-176525114D01*
X178139971Y-176667971D01*
X178139971Y-176810828D01*
X179639971Y-177310828D02*
X178139971Y-177310828D01*
X179068542Y-177453685D02*
X179639971Y-177882257D01*
X178639971Y-177882257D02*
X179211400Y-177310828D01*
X179068542Y-178525114D02*
X179068542Y-179667971D01*
X179639971Y-181025114D02*
X178854257Y-181025114D01*
X178711400Y-180953685D01*
X178639971Y-180810828D01*
X178639971Y-180525114D01*
X178711400Y-180382257D01*
X179568542Y-181025114D02*
X179639971Y-180882257D01*
X179639971Y-180525114D01*
X179568542Y-180382257D01*
X179425685Y-180310828D01*
X179282828Y-180310828D01*
X179139971Y-180382257D01*
X179068542Y-180525114D01*
X179068542Y-180882257D01*
X178997114Y-181025114D01*
X178639971Y-181525114D02*
X178639971Y-182096542D01*
X178139971Y-181739400D02*
X179425685Y-181739400D01*
X179568542Y-181810828D01*
X179639971Y-181953685D01*
X179639971Y-182096542D01*
X179639971Y-182810828D02*
X179568542Y-182667971D01*
X179425685Y-182596542D01*
X178139971Y-182596542D01*
X179639971Y-184025114D02*
X178854257Y-184025114D01*
X178711400Y-183953685D01*
X178639971Y-183810828D01*
X178639971Y-183525114D01*
X178711400Y-183382257D01*
X179568542Y-184025114D02*
X179639971Y-183882257D01*
X179639971Y-183525114D01*
X179568542Y-183382257D01*
X179425685Y-183310828D01*
X179282828Y-183310828D01*
X179139971Y-183382257D01*
X179068542Y-183525114D01*
X179068542Y-183882257D01*
X178997114Y-184025114D01*
X179568542Y-184667971D02*
X179639971Y-184810828D01*
X179639971Y-185096542D01*
X179568542Y-185239400D01*
X179425685Y-185310828D01*
X179354257Y-185310828D01*
X179211400Y-185239400D01*
X179139971Y-185096542D01*
X179139971Y-184882257D01*
X179068542Y-184739400D01*
X178925685Y-184667971D01*
X178854257Y-184667971D01*
X178711400Y-184739400D01*
X178639971Y-184882257D01*
X178639971Y-185096542D01*
X178711400Y-185239400D01*
X178639971Y-186953685D02*
X179639971Y-187310828D01*
X178639971Y-187667971D01*
X178139971Y-188525114D02*
X178139971Y-188667971D01*
X178211400Y-188810828D01*
X178282828Y-188882257D01*
X178425685Y-188953685D01*
X178711400Y-189025114D01*
X179068542Y-189025114D01*
X179354257Y-188953685D01*
X179497114Y-188882257D01*
X179568542Y-188810828D01*
X179639971Y-188667971D01*
X179639971Y-188525114D01*
X179568542Y-188382257D01*
X179497114Y-188310828D01*
X179354257Y-188239400D01*
X179068542Y-188167971D01*
X178711400Y-188167971D01*
X178425685Y-188239400D01*
X178282828Y-188310828D01*
X178211400Y-188382257D01*
X178139971Y-188525114D01*
X179497114Y-189667971D02*
X179568542Y-189739400D01*
X179639971Y-189667971D01*
X179568542Y-189596542D01*
X179497114Y-189667971D01*
X179639971Y-189667971D01*
X179639971Y-191167971D02*
X179639971Y-190310828D01*
X179639971Y-190739400D02*
X178139971Y-190739400D01*
X178354257Y-190596542D01*
X178497114Y-190453685D01*
X178568542Y-190310828D01*
X179639971Y-192596542D02*
X179639971Y-191739400D01*
X179639971Y-192167971D02*
X178139971Y-192167971D01*
X178354257Y-192025114D01*
X178497114Y-191882257D01*
X178568542Y-191739400D01*
D11*
G04 #@! TO.P,REF\002A\002A,~*
G04 #@! TO.N,N/C*
X183361400Y-274609400D03*
G04 #@! TD*
D12*
G04 #@! TO.P,J8,2*
G04 #@! TO.N,VCC*
X211205400Y-248334400D03*
G04 #@! TO.P,J8,1*
G04 #@! TO.N,3V3*
X209681400Y-248334400D03*
G04 #@! TD*
D13*
G04 #@! TO.P,J201,1*
G04 #@! TO.N,/isolated_atlas0/EC_PGND*
X259131900Y-193597400D03*
G04 #@! TO.P,J201,2*
G04 #@! TO.N,Net-(J201-Pad2)*
X259131900Y-196137400D03*
D14*
G04 #@! TO.P,J201,3*
G04 #@! TO.N,N/C*
X265481900Y-191057400D03*
G04 #@! TO.P,J201,4*
X265481900Y-201217400D03*
G04 #@! TD*
D13*
G04 #@! TO.P,J601,1*
G04 #@! TO.N,/isolated_atlas4/ORP_PGND*
X259195400Y-257605400D03*
G04 #@! TO.P,J601,2*
G04 #@! TO.N,Net-(J601-Pad2)*
X259195400Y-260145400D03*
D14*
G04 #@! TO.P,J601,3*
G04 #@! TO.N,N/C*
X265545400Y-255065400D03*
G04 #@! TO.P,J601,4*
X265545400Y-265225400D03*
G04 #@! TD*
D15*
G04 #@! TO.P,U502,1*
G04 #@! TO.N,/isolated_atlas3/ISO_SCL*
X235806520Y-241595888D03*
G04 #@! TO.P,U502,2*
G04 #@! TO.N,/isolated_atlas3/ISO_SDA*
X235806520Y-244135888D03*
G04 #@! TO.P,U502,4*
G04 #@! TO.N,/isolated_atlas3/ISO_GND*
X235806520Y-246675888D03*
G04 #@! TO.P,U502,6*
G04 #@! TO.N,/isolated_atlas3/DO_PGND*
X253586520Y-241595888D03*
G04 #@! TO.P,U502,5*
G04 #@! TO.N,Net-(J501-Pad2)*
X253586520Y-244135888D03*
G04 #@! TO.P,U502,3*
G04 #@! TO.N,/isolated_atlas3/ISO_VCC*
X253586520Y-246675888D03*
G04 #@! TD*
D12*
G04 #@! TO.P,J3,1*
G04 #@! TO.N,3V3*
X207522400Y-248334400D03*
G04 #@! TO.P,J3,2*
G04 #@! TO.N,/PERIPH_3V3*
X205998400Y-248334400D03*
G04 #@! TD*
D13*
G04 #@! TO.P,J501,1*
G04 #@! TO.N,/isolated_atlas3/DO_PGND*
X259195400Y-241603400D03*
G04 #@! TO.P,J501,2*
G04 #@! TO.N,Net-(J501-Pad2)*
X259195400Y-244143400D03*
D14*
G04 #@! TO.P,J501,3*
G04 #@! TO.N,N/C*
X265545400Y-239063400D03*
G04 #@! TO.P,J501,4*
X265545400Y-249223400D03*
G04 #@! TD*
D15*
G04 #@! TO.P,U602,1*
G04 #@! TO.N,/isolated_atlas4/ISO_SCL*
X235806520Y-257613388D03*
G04 #@! TO.P,U602,2*
G04 #@! TO.N,/isolated_atlas4/ISO_SDA*
X235806520Y-260153388D03*
G04 #@! TO.P,U602,4*
G04 #@! TO.N,/isolated_atlas4/ISO_GND*
X235806520Y-262693388D03*
G04 #@! TO.P,U602,6*
G04 #@! TO.N,/isolated_atlas4/ORP_PGND*
X253586520Y-257613388D03*
G04 #@! TO.P,U602,5*
G04 #@! TO.N,Net-(J601-Pad2)*
X253586520Y-260153388D03*
G04 #@! TO.P,U602,3*
G04 #@! TO.N,/isolated_atlas4/ISO_VCC*
X253586520Y-262693388D03*
G04 #@! TD*
G04 #@! TO.P,U202,1*
G04 #@! TO.N,/isolated_atlas0/ISO_SCL*
X235812120Y-193563388D03*
G04 #@! TO.P,U202,2*
G04 #@! TO.N,/isolated_atlas0/ISO_SDA*
X235812120Y-196103388D03*
G04 #@! TO.P,U202,4*
G04 #@! TO.N,/isolated_atlas0/ISO_GND*
X235812120Y-198643388D03*
G04 #@! TO.P,U202,6*
G04 #@! TO.N,/isolated_atlas0/EC_PGND*
X253592120Y-193563388D03*
G04 #@! TO.P,U202,5*
G04 #@! TO.N,Net-(J201-Pad2)*
X253592120Y-196103388D03*
G04 #@! TO.P,U202,3*
G04 #@! TO.N,/isolated_atlas0/ISO_VCC*
X253592120Y-198643388D03*
G04 #@! TD*
D13*
G04 #@! TO.P,J301,1*
G04 #@! TO.N,/isolated_atlas1/RTD_PGND*
X259195400Y-209599400D03*
G04 #@! TO.P,J301,2*
G04 #@! TO.N,Net-(J301-Pad2)*
X259195400Y-212139400D03*
D14*
G04 #@! TO.P,J301,3*
G04 #@! TO.N,N/C*
X265545400Y-207059400D03*
G04 #@! TO.P,J301,4*
X265545400Y-217219400D03*
G04 #@! TD*
D15*
G04 #@! TO.P,U402,1*
G04 #@! TO.N,/isolated_atlas2/ISO_SCL*
X235812120Y-225609388D03*
G04 #@! TO.P,U402,2*
G04 #@! TO.N,/isolated_atlas2/ISO_SDA*
X235812120Y-228149388D03*
G04 #@! TO.P,U402,4*
G04 #@! TO.N,/isolated_atlas2/ISO_GND*
X235812120Y-230689388D03*
G04 #@! TO.P,U402,6*
G04 #@! TO.N,/isolated_atlas2/PH_PGND*
X253592120Y-225609388D03*
G04 #@! TO.P,U402,5*
G04 #@! TO.N,Net-(J401-Pad2)*
X253592120Y-228149388D03*
G04 #@! TO.P,U402,3*
G04 #@! TO.N,/isolated_atlas2/ISO_VCC*
X253592120Y-230689388D03*
G04 #@! TD*
D16*
G04 #@! TO.P,J9,6*
G04 #@! TO.N,Net-(J9-Pad6)*
X188249900Y-201693400D03*
D17*
G04 #@! TO.P,J9,5*
G04 #@! TO.N,GND*
X189169900Y-197193400D03*
G04 #@! TO.P,J9,4*
G04 #@! TO.N,Net-(J2-Pad4)*
X189169900Y-197843400D03*
G04 #@! TO.P,J9,1*
G04 #@! TO.N,VUSB*
X189169900Y-199793400D03*
G04 #@! TO.P,J9,2*
G04 #@! TO.N,/USB-*
X189169900Y-199143400D03*
D18*
G04 #@! TO.P,J9,*
G04 #@! TO.N,*
X186499900Y-195193400D03*
D19*
G04 #@! TO.P,J9,8*
G04 #@! TO.N,Net-(J9-Pad8)*
X186249900Y-199693400D03*
D18*
G04 #@! TO.P,J9,*
G04 #@! TO.N,*
X186499900Y-201793400D03*
D19*
G04 #@! TO.P,J9,9*
G04 #@! TO.N,Net-(J9-Pad9)*
X186249900Y-197293400D03*
D17*
G04 #@! TO.P,J9,3*
G04 #@! TO.N,/USB+*
X189169900Y-198493400D03*
D16*
G04 #@! TO.P,J9,7*
G04 #@! TO.N,Net-(C13-Pad1)*
X188249900Y-195293400D03*
G04 #@! TD*
D13*
G04 #@! TO.P,J401,1*
G04 #@! TO.N,/isolated_atlas2/PH_PGND*
X259195400Y-225597400D03*
G04 #@! TO.P,J401,2*
G04 #@! TO.N,Net-(J401-Pad2)*
X259195400Y-228137400D03*
D14*
G04 #@! TO.P,J401,3*
G04 #@! TO.N,N/C*
X265545400Y-223057400D03*
G04 #@! TO.P,J401,4*
X265545400Y-233217400D03*
G04 #@! TD*
D15*
G04 #@! TO.P,U302,3*
G04 #@! TO.N,/isolated_atlas1/ISO_VCC*
X253363520Y-215195388D03*
G04 #@! TO.P,U302,5*
G04 #@! TO.N,Net-(J301-Pad2)*
X253363520Y-212655388D03*
G04 #@! TO.P,U302,6*
G04 #@! TO.N,/isolated_atlas1/RTD_PGND*
X253363520Y-210115388D03*
G04 #@! TO.P,U302,4*
G04 #@! TO.N,/isolated_atlas1/ISO_GND*
X235583520Y-215195388D03*
G04 #@! TO.P,U302,2*
G04 #@! TO.N,/isolated_atlas1/ISO_SDA*
X235583520Y-212655388D03*
G04 #@! TO.P,U302,1*
G04 #@! TO.N,/isolated_atlas1/ISO_SCL*
X235583520Y-210115388D03*
G04 #@! TD*
D20*
G04 #@! TO.P,J2,6*
G04 #@! TO.N,Net-(C13-Pad1)*
X189865400Y-195653400D03*
G04 #@! TO.P,J2,7*
G04 #@! TO.N,Net-(J2-Pad7)*
X189865400Y-201253400D03*
D21*
G04 #@! TO.P,J2,8*
G04 #@! TO.N,Net-(J2-Pad8)*
X187715400Y-198453400D03*
G04 #@! TD*
D11*
G04 #@! TO.P,REF\002A\002A,~*
G04 #@! TO.N,N/C*
X273851400Y-99009400D03*
G04 #@! TD*
G04 #@! TO.P,REF\002A\002A,~*
G04 #@! TO.N,N/C*
X178350000Y-104000000D03*
G04 #@! TD*
D16*
G04 #@! TO.P,J9,7*
G04 #@! TO.N,Net-(C13-Pad1)*
X188249900Y-112023400D03*
D17*
G04 #@! TO.P,J9,3*
G04 #@! TO.N,/USB+*
X189169900Y-115223400D03*
D19*
G04 #@! TO.P,J9,9*
G04 #@! TO.N,Net-(J9-Pad9)*
X186249900Y-114023400D03*
D18*
G04 #@! TO.P,J9,*
G04 #@! TO.N,*
X186499900Y-118523400D03*
D19*
G04 #@! TO.P,J9,8*
G04 #@! TO.N,Net-(J9-Pad8)*
X186249900Y-116423400D03*
D18*
G04 #@! TO.P,J9,*
G04 #@! TO.N,*
X186499900Y-111923400D03*
D17*
G04 #@! TO.P,J9,2*
G04 #@! TO.N,/USB-*
X189169900Y-115873400D03*
G04 #@! TO.P,J9,1*
G04 #@! TO.N,VUSB*
X189169900Y-116523400D03*
G04 #@! TO.P,J9,4*
G04 #@! TO.N,Net-(J2-Pad4)*
X189169900Y-114573400D03*
G04 #@! TO.P,J9,5*
G04 #@! TO.N,GND*
X189169900Y-113923400D03*
D16*
G04 #@! TO.P,J9,6*
G04 #@! TO.N,Net-(J9-Pad6)*
X188249900Y-118423400D03*
G04 #@! TD*
D21*
G04 #@! TO.P,J2,8*
G04 #@! TO.N,Net-(J2-Pad8)*
X187715400Y-115183400D03*
D20*
G04 #@! TO.P,J2,7*
G04 #@! TO.N,Net-(J2-Pad7)*
X189865400Y-117983400D03*
G04 #@! TO.P,J2,6*
G04 #@! TO.N,Net-(C13-Pad1)*
X189865400Y-112383400D03*
G04 #@! TD*
D15*
G04 #@! TO.P,U302,1*
G04 #@! TO.N,/isolated_atlas1/ISO_SCL*
X235583520Y-126845388D03*
G04 #@! TO.P,U302,2*
G04 #@! TO.N,/isolated_atlas1/ISO_SDA*
X235583520Y-129385388D03*
G04 #@! TO.P,U302,4*
G04 #@! TO.N,/isolated_atlas1/ISO_GND*
X235583520Y-131925388D03*
G04 #@! TO.P,U302,6*
G04 #@! TO.N,/isolated_atlas1/RTD_PGND*
X253363520Y-126845388D03*
G04 #@! TO.P,U302,5*
G04 #@! TO.N,Net-(J301-Pad2)*
X253363520Y-129385388D03*
G04 #@! TO.P,U302,3*
G04 #@! TO.N,/isolated_atlas1/ISO_VCC*
X253363520Y-131925388D03*
G04 #@! TD*
D12*
G04 #@! TO.P,J3,2*
G04 #@! TO.N,/PERIPH_3V3*
X205998400Y-165064400D03*
G04 #@! TO.P,J3,1*
G04 #@! TO.N,3V3*
X207522400Y-165064400D03*
G04 #@! TD*
D15*
G04 #@! TO.P,U202,3*
G04 #@! TO.N,/isolated_atlas0/ISO_VCC*
X253592120Y-115373388D03*
G04 #@! TO.P,U202,5*
G04 #@! TO.N,Net-(J201-Pad2)*
X253592120Y-112833388D03*
G04 #@! TO.P,U202,6*
G04 #@! TO.N,/isolated_atlas0/EC_PGND*
X253592120Y-110293388D03*
G04 #@! TO.P,U202,4*
G04 #@! TO.N,/isolated_atlas0/ISO_GND*
X235812120Y-115373388D03*
G04 #@! TO.P,U202,2*
G04 #@! TO.N,/isolated_atlas0/ISO_SDA*
X235812120Y-112833388D03*
G04 #@! TO.P,U202,1*
G04 #@! TO.N,/isolated_atlas0/ISO_SCL*
X235812120Y-110293388D03*
G04 #@! TD*
G04 #@! TO.P,U402,3*
G04 #@! TO.N,/isolated_atlas2/ISO_VCC*
X253592120Y-147419388D03*
G04 #@! TO.P,U402,5*
G04 #@! TO.N,Net-(J401-Pad2)*
X253592120Y-144879388D03*
G04 #@! TO.P,U402,6*
G04 #@! TO.N,/isolated_atlas2/PH_PGND*
X253592120Y-142339388D03*
G04 #@! TO.P,U402,4*
G04 #@! TO.N,/isolated_atlas2/ISO_GND*
X235812120Y-147419388D03*
G04 #@! TO.P,U402,2*
G04 #@! TO.N,/isolated_atlas2/ISO_SDA*
X235812120Y-144879388D03*
G04 #@! TO.P,U402,1*
G04 #@! TO.N,/isolated_atlas2/ISO_SCL*
X235812120Y-142339388D03*
G04 #@! TD*
G04 #@! TO.P,U502,3*
G04 #@! TO.N,/isolated_atlas3/ISO_VCC*
X253586520Y-163405888D03*
G04 #@! TO.P,U502,5*
G04 #@! TO.N,Net-(J501-Pad2)*
X253586520Y-160865888D03*
G04 #@! TO.P,U502,6*
G04 #@! TO.N,/isolated_atlas3/DO_PGND*
X253586520Y-158325888D03*
G04 #@! TO.P,U502,4*
G04 #@! TO.N,/isolated_atlas3/ISO_GND*
X235806520Y-163405888D03*
G04 #@! TO.P,U502,2*
G04 #@! TO.N,/isolated_atlas3/ISO_SDA*
X235806520Y-160865888D03*
G04 #@! TO.P,U502,1*
G04 #@! TO.N,/isolated_atlas3/ISO_SCL*
X235806520Y-158325888D03*
G04 #@! TD*
G04 #@! TO.P,U602,3*
G04 #@! TO.N,/isolated_atlas4/ISO_VCC*
X253586520Y-179423388D03*
G04 #@! TO.P,U602,5*
G04 #@! TO.N,Net-(J601-Pad2)*
X253586520Y-176883388D03*
G04 #@! TO.P,U602,6*
G04 #@! TO.N,/isolated_atlas4/ORP_PGND*
X253586520Y-174343388D03*
G04 #@! TO.P,U602,4*
G04 #@! TO.N,/isolated_atlas4/ISO_GND*
X235806520Y-179423388D03*
G04 #@! TO.P,U602,2*
G04 #@! TO.N,/isolated_atlas4/ISO_SDA*
X235806520Y-176883388D03*
G04 #@! TO.P,U602,1*
G04 #@! TO.N,/isolated_atlas4/ISO_SCL*
X235806520Y-174343388D03*
G04 #@! TD*
D14*
G04 #@! TO.P,J601,4*
G04 #@! TO.N,N/C*
X265545400Y-181955400D03*
G04 #@! TO.P,J601,3*
X265545400Y-171795400D03*
D13*
G04 #@! TO.P,J601,2*
G04 #@! TO.N,Net-(J601-Pad2)*
X259195400Y-176875400D03*
G04 #@! TO.P,J601,1*
G04 #@! TO.N,/isolated_atlas4/ORP_PGND*
X259195400Y-174335400D03*
G04 #@! TD*
D14*
G04 #@! TO.P,J501,4*
G04 #@! TO.N,N/C*
X265545400Y-165953400D03*
G04 #@! TO.P,J501,3*
X265545400Y-155793400D03*
D13*
G04 #@! TO.P,J501,2*
G04 #@! TO.N,Net-(J501-Pad2)*
X259195400Y-160873400D03*
G04 #@! TO.P,J501,1*
G04 #@! TO.N,/isolated_atlas3/DO_PGND*
X259195400Y-158333400D03*
G04 #@! TD*
D14*
G04 #@! TO.P,J301,4*
G04 #@! TO.N,N/C*
X265545400Y-133949400D03*
G04 #@! TO.P,J301,3*
X265545400Y-123789400D03*
D13*
G04 #@! TO.P,J301,2*
G04 #@! TO.N,Net-(J301-Pad2)*
X259195400Y-128869400D03*
G04 #@! TO.P,J301,1*
G04 #@! TO.N,/isolated_atlas1/RTD_PGND*
X259195400Y-126329400D03*
G04 #@! TD*
D14*
G04 #@! TO.P,J401,4*
G04 #@! TO.N,N/C*
X265545400Y-149947400D03*
G04 #@! TO.P,J401,3*
X265545400Y-139787400D03*
D13*
G04 #@! TO.P,J401,2*
G04 #@! TO.N,Net-(J401-Pad2)*
X259195400Y-144867400D03*
G04 #@! TO.P,J401,1*
G04 #@! TO.N,/isolated_atlas2/PH_PGND*
X259195400Y-142327400D03*
G04 #@! TD*
D14*
G04 #@! TO.P,J201,4*
G04 #@! TO.N,N/C*
X265481900Y-117947400D03*
G04 #@! TO.P,J201,3*
X265481900Y-107787400D03*
D13*
G04 #@! TO.P,J201,2*
G04 #@! TO.N,Net-(J201-Pad2)*
X259131900Y-112867400D03*
G04 #@! TO.P,J201,1*
G04 #@! TO.N,/isolated_atlas0/EC_PGND*
X259131900Y-110327400D03*
G04 #@! TD*
D12*
G04 #@! TO.P,J8,1*
G04 #@! TO.N,3V3*
X209681400Y-165064400D03*
G04 #@! TO.P,J8,2*
G04 #@! TO.N,VCC*
X211205400Y-165064400D03*
G04 #@! TD*
D22*
G04 #@! TO.N,GND*
X204347400Y-166461400D03*
X222635400Y-183987400D03*
X218063400Y-183733400D03*
X224667400Y-180685400D03*
X204347400Y-161889400D03*
X191647400Y-175605400D03*
X188345400Y-124297400D03*
X188345400Y-125567400D03*
X188345400Y-128107400D03*
X189361400Y-144617400D03*
X185551400Y-140299400D03*
X185805400Y-136743400D03*
X193171400Y-144363400D03*
X224921400Y-148681400D03*
X221111400Y-147411400D03*
X198505400Y-144109400D03*
X199267400Y-139029400D03*
X203585400Y-139791400D03*
X205109400Y-133187400D03*
X202823400Y-129885400D03*
X204601400Y-131409400D03*
X192663400Y-106263400D03*
X192917400Y-132171400D03*
X196473400Y-132933400D03*
X204347400Y-111597400D03*
X204347400Y-112613400D03*
X204347400Y-113629400D03*
X204347400Y-114899400D03*
X204347400Y-115915400D03*
X204347400Y-116931400D03*
X203077400Y-116423400D03*
X203077400Y-117439400D03*
X194441400Y-116169400D03*
X224794400Y-116550400D03*
X222517600Y-117820400D03*
X218571400Y-117820400D03*
X222762400Y-131409400D03*
X224794400Y-132552400D03*
X218317400Y-132679400D03*
X217936400Y-150713400D03*
X222508400Y-147411400D03*
X222508400Y-163413400D03*
X221238400Y-163540400D03*
X222508400Y-167223400D03*
X218825400Y-167350400D03*
X224794400Y-164556400D03*
X212606490Y-163967849D03*
X212606490Y-162878689D03*
X203966400Y-141823400D03*
X210443400Y-144363400D03*
X191484268Y-117200965D03*
X188154900Y-113502400D03*
X209300400Y-158079400D03*
X205363400Y-154840900D03*
X204347400Y-150903900D03*
X192155400Y-156301400D03*
X196981400Y-165699400D03*
X195965400Y-165699400D03*
X194949400Y-165699400D03*
X193933400Y-165699400D03*
X191901400Y-165699400D03*
X192917400Y-165699400D03*
X197997400Y-165699400D03*
X204347400Y-171668400D03*
X221243143Y-115535348D03*
X221243143Y-131537348D03*
X222381400Y-151221400D03*
X218063400Y-134457400D03*
X223333998Y-134457400D03*
X222635400Y-119471400D03*
X218063400Y-118963400D03*
X221186935Y-179707167D03*
X218317400Y-180939400D03*
X212094400Y-173573400D03*
X209173400Y-173573400D03*
X197616400Y-176367400D03*
X195965400Y-179796400D03*
X191266400Y-140299400D03*
X217936400Y-233983400D03*
X188345400Y-208837400D03*
X199267400Y-222299400D03*
X204347400Y-194867400D03*
X203077400Y-200709400D03*
X210443400Y-227633400D03*
X191484268Y-200470965D03*
X188154900Y-196772400D03*
X205363400Y-238110900D03*
X221111400Y-230681400D03*
X204347400Y-199185400D03*
X218571400Y-201090400D03*
X191647400Y-258875400D03*
X185805400Y-220013400D03*
X218317400Y-215949400D03*
X218825400Y-250620400D03*
X204347400Y-234173900D03*
X196473400Y-216203400D03*
X221238400Y-246810400D03*
X209300400Y-241349400D03*
X192155400Y-239571400D03*
X204347400Y-195883400D03*
X198505400Y-227379400D03*
X203077400Y-199693400D03*
X195965400Y-248969400D03*
X204347400Y-249731400D03*
X192917400Y-215441400D03*
X205109400Y-216457400D03*
X202823400Y-213155400D03*
X192663400Y-189533400D03*
X196981400Y-248969400D03*
X212606490Y-247237849D03*
X194949400Y-248969400D03*
X218063400Y-267003400D03*
X188345400Y-207567400D03*
X189361400Y-227887400D03*
X204347400Y-245159400D03*
X204347400Y-196899400D03*
X222762400Y-214679400D03*
X188345400Y-211377400D03*
X224794400Y-247826400D03*
X203585400Y-223061400D03*
X185551400Y-223569400D03*
X224667400Y-263955400D03*
X204601400Y-214679400D03*
X204347400Y-200201400D03*
X194441400Y-199439400D03*
X222508400Y-246683400D03*
X224921400Y-231951400D03*
X212606490Y-246148689D03*
X193171400Y-227633400D03*
X204347400Y-198169400D03*
X224794400Y-199820400D03*
X224794400Y-215822400D03*
X222508400Y-250493400D03*
X203966400Y-225093400D03*
X222635400Y-267257400D03*
X222508400Y-230681400D03*
X222517600Y-201090400D03*
X191901400Y-248969400D03*
X221243143Y-214807348D03*
X197997400Y-248969400D03*
X218317400Y-264209400D03*
X222635400Y-202741400D03*
X218063400Y-202233400D03*
X222381400Y-234491400D03*
X209173400Y-256843400D03*
X223333998Y-217727400D03*
X204347400Y-254938400D03*
X218063400Y-217727400D03*
X191266400Y-223569400D03*
X221186935Y-262977167D03*
X193933400Y-248969400D03*
X221243143Y-198805348D03*
X192917400Y-248969400D03*
X212094400Y-256843400D03*
X197616400Y-259637400D03*
X195965400Y-263066400D03*
G04 #@! TO.N,/SWCLK*
X192155400Y-124297400D03*
X203864800Y-136006800D03*
X203864800Y-219276800D03*
X192155400Y-207567400D03*
G04 #@! TO.N,/SWDIO*
X192663400Y-125694400D03*
X201578800Y-138267400D03*
X192663400Y-208964400D03*
X201578800Y-221537400D03*
G04 #@! TO.N,3V3*
X191647400Y-176875400D03*
X189361400Y-148173400D03*
X188853400Y-123027400D03*
X196219400Y-145379400D03*
X191393400Y-132679400D03*
X188853400Y-133949400D03*
X208919400Y-141569400D03*
X202823400Y-139029400D03*
X205109400Y-136743400D03*
X200791400Y-123154400D03*
X202061400Y-123154400D03*
X203331400Y-123154400D03*
X204601400Y-123154400D03*
X205871400Y-123154400D03*
X205871400Y-124424400D03*
X204601400Y-124424400D03*
X203331400Y-124424400D03*
X202061400Y-124424400D03*
X200791400Y-124424400D03*
X209554400Y-151348400D03*
X209617900Y-166143900D03*
X210189400Y-161952900D03*
X191901400Y-167223400D03*
X192917400Y-167223400D03*
X193933400Y-167223400D03*
X194949400Y-167223400D03*
X195965400Y-167223400D03*
X196981400Y-167223400D03*
X197997400Y-167223400D03*
X207141400Y-174208400D03*
X207522400Y-166118500D03*
X192409400Y-179796400D03*
X197489400Y-175351400D03*
X192409400Y-263066400D03*
X188853400Y-206297400D03*
X203331400Y-207694400D03*
X203331400Y-206424400D03*
X196219400Y-228649400D03*
X205109400Y-220013400D03*
X192917400Y-250493400D03*
X193933400Y-250493400D03*
X207522400Y-249388500D03*
X197997400Y-250493400D03*
X188853400Y-217219400D03*
X202061400Y-206424400D03*
X205871400Y-207694400D03*
X200791400Y-207694400D03*
X194949400Y-250493400D03*
X196981400Y-250493400D03*
X204601400Y-207694400D03*
X205871400Y-206424400D03*
X210189400Y-245222900D03*
X191901400Y-250493400D03*
X207141400Y-257478400D03*
X191393400Y-215949400D03*
X208919400Y-224839400D03*
X197489400Y-258621400D03*
X202061400Y-207694400D03*
X189361400Y-231443400D03*
X204601400Y-206424400D03*
X191647400Y-260145400D03*
X202823400Y-222299400D03*
X200791400Y-206424400D03*
X209554400Y-234618400D03*
X209617900Y-249413900D03*
X195965400Y-250493400D03*
X206321402Y-142749400D03*
X206261400Y-226039400D03*
G04 #@! TO.N,/RESET*
X197235400Y-129123400D03*
X204017200Y-140604200D03*
X204017200Y-223874200D03*
X197235400Y-212393400D03*
G04 #@! TO.N,/USB-*
X198759400Y-124678400D03*
X203255200Y-143652200D03*
X192917400Y-114533400D03*
X192917400Y-197803400D03*
X203255200Y-226922200D03*
X198759400Y-207948400D03*
G04 #@! TO.N,/USB+*
X204042600Y-142991800D03*
X198120410Y-125770600D03*
X190885400Y-115183400D03*
X198120410Y-209040600D03*
X190885400Y-198453400D03*
X204042600Y-226261800D03*
G04 #@! TO.N,/D30*
X192282400Y-153380400D03*
X207522400Y-138521400D03*
X207522400Y-221791400D03*
X192282400Y-236650400D03*
G04 #@! TO.N,/D31*
X192282400Y-154523400D03*
X206785800Y-138521400D03*
X192282400Y-237793400D03*
X206785800Y-221791400D03*
G04 #@! TO.N,VUSB*
X194187400Y-112867400D03*
X194187400Y-196137400D03*
G04 #@! TO.N,/SDA2*
X203331400Y-179669400D03*
X189551900Y-173065400D03*
X197997400Y-174335400D03*
X189551900Y-256335400D03*
X203331400Y-262939400D03*
X197997400Y-257605400D03*
G04 #@! TO.N,/PERIPH_3V3*
X204855400Y-165191400D03*
X204855400Y-248461400D03*
G04 #@! TO.N,/SCL1*
X205871400Y-145760400D03*
X209300400Y-147919400D03*
X217682400Y-148046400D03*
X219206400Y-131155400D03*
X219206400Y-163413400D03*
X219206400Y-179288400D03*
X218825400Y-115026400D03*
X210697402Y-178907400D03*
X215142400Y-114772400D03*
X214761400Y-147665400D03*
X214761400Y-162778400D03*
X214126400Y-179161400D03*
X215269400Y-130905401D03*
X205871400Y-229030400D03*
X209300400Y-231189400D03*
X219206400Y-214425400D03*
X219206400Y-246683400D03*
X219206400Y-262558400D03*
X218825400Y-198296400D03*
X215142400Y-198042400D03*
X217682400Y-231316400D03*
X210697402Y-262177400D03*
X214761400Y-230935400D03*
X214761400Y-246048400D03*
X214126400Y-262431400D03*
X215269400Y-214175401D03*
G04 #@! TO.N,/isolated_atlas0/ISO_GND*
X218063400Y-109375800D03*
X221873400Y-107025400D03*
X228477400Y-114645400D03*
X224794400Y-109438400D03*
X240415400Y-108295400D03*
X256163400Y-118328400D03*
X256163400Y-201598400D03*
X221873400Y-190295400D03*
X240415400Y-191565400D03*
X218063400Y-192645800D03*
X228477400Y-197915400D03*
X224794400Y-192708400D03*
G04 #@! TO.N,/isolated_atlas1/ISO_GND*
X218063400Y-125440400D03*
X224794400Y-125313400D03*
X221746400Y-122773400D03*
X228477400Y-130647400D03*
X240161400Y-124805400D03*
X256925400Y-133949400D03*
X224794400Y-208583400D03*
X256925400Y-217219400D03*
X228477400Y-213917400D03*
X221746400Y-206043400D03*
X218063400Y-208710400D03*
X240161400Y-208075400D03*
G04 #@! TO.N,/isolated_atlas2/ISO_GND*
X221746400Y-139283400D03*
X217301400Y-141950400D03*
X218444400Y-142204400D03*
X224794400Y-141442400D03*
X228477400Y-146776400D03*
X256925400Y-149443400D03*
X240161400Y-140299400D03*
X221746400Y-222553400D03*
X240161400Y-223569400D03*
X256925400Y-232713400D03*
X228477400Y-230046400D03*
X224794400Y-224712400D03*
X218444400Y-225474400D03*
X217301400Y-225220400D03*
G04 #@! TO.N,/isolated_atlas3/ISO_GND*
X217174400Y-158206400D03*
X228604400Y-162397400D03*
X240415400Y-156301400D03*
X256671400Y-165445400D03*
X224794400Y-157444400D03*
X218190400Y-157356400D03*
X220984400Y-154142400D03*
X222635400Y-154269400D03*
X256671400Y-248715400D03*
X222635400Y-237539400D03*
X240415400Y-239571400D03*
X218190400Y-240626400D03*
X224794400Y-240714400D03*
X220984400Y-237412400D03*
X228604400Y-245667400D03*
X217174400Y-241476400D03*
G04 #@! TO.N,/isolated_atlas4/ISO_GND*
X228350400Y-178907400D03*
X224921400Y-173446400D03*
X221746400Y-170906400D03*
X218063400Y-173280400D03*
X240161400Y-172557400D03*
X256671400Y-180939400D03*
X224921400Y-256716400D03*
X221746400Y-254176400D03*
X218063400Y-256550400D03*
X240161400Y-255827400D03*
X228350400Y-262177400D03*
X256671400Y-264209400D03*
G04 #@! TO.N,/isolated_atlas0/ISO_VCC*
X217809400Y-107354000D03*
X225429400Y-107025400D03*
X231906400Y-109438400D03*
X231906400Y-114899400D03*
X231906400Y-198169400D03*
X217809400Y-190624000D03*
X225429400Y-190295400D03*
X231906400Y-192708400D03*
G04 #@! TO.N,/isolated_atlas1/ISO_VCC*
X217936400Y-123408400D03*
X231906400Y-128996400D03*
X248797400Y-129631400D03*
X225429400Y-122773400D03*
X231906400Y-212266400D03*
X217936400Y-206678400D03*
X248797400Y-212901400D03*
X225429400Y-206043400D03*
G04 #@! TO.N,/isolated_atlas2/ISO_VCC*
X218063400Y-139410400D03*
X231906400Y-141315400D03*
X231906400Y-146522400D03*
X225175400Y-139283400D03*
X225175400Y-222553400D03*
X231906400Y-229792400D03*
X231906400Y-224585400D03*
X218063400Y-222680400D03*
G04 #@! TO.N,/isolated_atlas3/ISO_VCC*
X218190400Y-155285400D03*
X232033400Y-156809400D03*
X232033400Y-162397400D03*
X225175400Y-155031400D03*
X232033400Y-240079400D03*
X225175400Y-238301400D03*
X218190400Y-238555400D03*
X232033400Y-245667400D03*
G04 #@! TO.N,/isolated_atlas4/ISO_VCC*
X231906400Y-178272400D03*
X231779400Y-173065400D03*
X218063400Y-171160400D03*
X225556400Y-171033400D03*
X218063400Y-254430400D03*
X231906400Y-261542400D03*
X231779400Y-256335400D03*
X225556400Y-254303400D03*
G04 #@! TO.N,/isolated_atlas0/ISO_SCL*
X219511200Y-110784600D03*
X219511200Y-194054600D03*
G04 #@! TO.N,/isolated_atlas0/ISO_SDA*
X220298600Y-110831300D03*
X220298600Y-194101300D03*
G04 #@! TO.N,/isolated_atlas1/ISO_SCL*
X219562000Y-126786600D03*
X219562000Y-210056600D03*
G04 #@! TO.N,/isolated_atlas1/ISO_SDA*
X220374800Y-126831300D03*
X220374800Y-210101300D03*
G04 #@! TO.N,/isolated_atlas2/ISO_SCL*
X219460400Y-142687000D03*
X219460400Y-225957000D03*
G04 #@! TO.N,/isolated_atlas2/ISO_SDA*
X220349400Y-142831300D03*
X220349400Y-226101300D03*
G04 #@! TO.N,/isolated_atlas3/ISO_SCL*
X219485800Y-158714400D03*
X219485800Y-241984400D03*
G04 #@! TO.N,/isolated_atlas3/ISO_SDA*
X220247800Y-158714400D03*
X220247800Y-241984400D03*
G04 #@! TO.N,/isolated_atlas4/ISO_SCL*
X219485800Y-174868800D03*
X219485800Y-258138800D03*
G04 #@! TO.N,/isolated_atlas4/ISO_SDA*
X220222400Y-174843400D03*
X220222400Y-258113400D03*
G04 #@! TO.N,Net-(J2-Pad4)*
X211662600Y-138750000D03*
X193223989Y-116856989D03*
X192155400Y-115712810D03*
X211662600Y-222020000D03*
X193223989Y-200126989D03*
X192155400Y-198982810D03*
G04 #@! TO.N,/SCL3*
X192155400Y-163413400D03*
X190758400Y-145760400D03*
X192155400Y-246683400D03*
X190758400Y-229030400D03*
G04 #@! TO.N,/SDA3*
X190229000Y-161254400D03*
X189996400Y-146014400D03*
X190229000Y-244524400D03*
X189996400Y-229284400D03*
G04 #@! TO.N,VCC*
X224413400Y-183987400D03*
X219841400Y-183987400D03*
X224159400Y-167096400D03*
X220564400Y-167164400D03*
X212475400Y-165127900D03*
X211649900Y-166778900D03*
X212983400Y-170906400D03*
X220603400Y-115407400D03*
X223905400Y-115407400D03*
X224667400Y-118963400D03*
X221111400Y-118963400D03*
X221365400Y-134457400D03*
X225175400Y-134203400D03*
X223651400Y-131409400D03*
X220603400Y-131409400D03*
X224921400Y-150713400D03*
X220603400Y-151221400D03*
X220349400Y-147157400D03*
X223905400Y-147411400D03*
X220603400Y-179415400D03*
X223651400Y-179669400D03*
X215904400Y-118836400D03*
X215523400Y-150293400D03*
X215650400Y-165660400D03*
X215523400Y-182082400D03*
X215523400Y-133910400D03*
X215904400Y-202106400D03*
X220564400Y-250434400D03*
X224413400Y-267257400D03*
X223905400Y-198677400D03*
X220603400Y-234491400D03*
X225175400Y-217473400D03*
X212475400Y-248397900D03*
X223905400Y-230681400D03*
X224667400Y-202233400D03*
X212983400Y-254176400D03*
X220603400Y-214679400D03*
X220349400Y-230427400D03*
X223651400Y-262939400D03*
X215523400Y-233563400D03*
X215523400Y-217180400D03*
X220603400Y-198677400D03*
X221111400Y-202233400D03*
X224921400Y-233983400D03*
X215650400Y-248930400D03*
X224159400Y-250366400D03*
X219841400Y-267257400D03*
X221365400Y-217727400D03*
X220603400Y-262685400D03*
X215523400Y-265352400D03*
X211649900Y-250048900D03*
X223651400Y-214679400D03*
G04 #@! TO.N,Net-(R12-Pad1)*
X205871400Y-172049400D03*
X212475400Y-168493400D03*
X205871400Y-255319400D03*
X212475400Y-251763400D03*
G04 #@! TO.N,/D5_FLASH_CS*
X199076900Y-149697400D03*
X198784800Y-154637700D03*
X199076900Y-232967400D03*
X198784800Y-237907700D03*
G04 #@! TD*
D23*
G04 #@! TO.N,GND*
X212606490Y-162878689D02*
X212606490Y-163967849D01*
D24*
X189169900Y-113923400D02*
X188575900Y-113923400D01*
X188575900Y-113923400D02*
X188154900Y-113502400D01*
X188575900Y-197193400D02*
X188154900Y-196772400D01*
D23*
X212606490Y-246148689D02*
X212606490Y-247237849D01*
D24*
X189169900Y-197193400D02*
X188575900Y-197193400D01*
D23*
G04 #@! TO.N,/SWCLK*
X193425400Y-126202400D02*
X203229800Y-136006800D01*
X193425400Y-125567400D02*
X192155400Y-124297400D01*
X193425400Y-125567400D02*
X193425400Y-126202400D01*
X203864800Y-136006800D02*
X203229800Y-136006800D01*
X203864800Y-219276800D02*
X203229800Y-219276800D01*
X193425400Y-209472400D02*
X203229800Y-219276800D01*
X193425400Y-208837400D02*
X193425400Y-209472400D01*
X193425400Y-208837400D02*
X192155400Y-207567400D01*
G04 #@! TO.N,/SWDIO*
X201578800Y-135092400D02*
X201578800Y-138267400D01*
X201578800Y-134963353D02*
X201578800Y-135092400D01*
X192663400Y-125694400D02*
X192663400Y-126047953D01*
X192663400Y-126047953D02*
X201578800Y-134963353D01*
X201578800Y-218233353D02*
X201578800Y-218362400D01*
X201578800Y-218362400D02*
X201578800Y-221537400D01*
X192663400Y-208964400D02*
X192663400Y-209317953D01*
X192663400Y-209317953D02*
X201578800Y-218233353D01*
D25*
G04 #@! TO.N,3V3*
X209681400Y-165064400D02*
X209681400Y-166080400D01*
X209681400Y-166080400D02*
X209617900Y-166143900D01*
D23*
X207522400Y-165064400D02*
X207522400Y-166118500D01*
X207611300Y-166207400D02*
X207522400Y-166118500D01*
X207522400Y-248334400D02*
X207522400Y-249388500D01*
D25*
X209681400Y-248334400D02*
X209681400Y-249350400D01*
X209681400Y-249350400D02*
X209617900Y-249413900D01*
D23*
X207611300Y-249477400D02*
X207522400Y-249388500D01*
G04 #@! TO.N,/RESET*
X204017200Y-140604200D02*
X204267199Y-140354201D01*
X204267199Y-140354201D02*
X204267199Y-139689685D01*
X197743400Y-129123400D02*
X197588953Y-129123400D01*
X204394201Y-135774201D02*
X197743400Y-129123400D01*
X197588953Y-129123400D02*
X197235400Y-129123400D01*
X204394201Y-136260913D02*
X204394201Y-135774201D01*
X204017200Y-136637914D02*
X204394201Y-136260913D01*
X204017200Y-139439686D02*
X204017200Y-136637914D01*
X204267199Y-139689685D02*
X204017200Y-139439686D01*
X197743400Y-212393400D02*
X197588953Y-212393400D01*
X204394201Y-219044201D02*
X197743400Y-212393400D01*
X204017200Y-223874200D02*
X204267199Y-223624201D01*
X204267199Y-223624201D02*
X204267199Y-222959685D01*
X197588953Y-212393400D02*
X197235400Y-212393400D01*
X204267199Y-222959685D02*
X204017200Y-222709686D01*
X204017200Y-219907914D02*
X204394201Y-219530913D01*
X204017200Y-222709686D02*
X204017200Y-219907914D01*
X204394201Y-219530913D02*
X204394201Y-219044201D01*
G04 #@! TO.N,/USB-*
X198759400Y-124678400D02*
X198759400Y-125915124D01*
X198759400Y-125915124D02*
X197997420Y-126677104D01*
X197997420Y-126677104D02*
X197997420Y-128209020D01*
X197997420Y-128209020D02*
X206241119Y-136452719D01*
X206241119Y-136452719D02*
X206241119Y-141576795D01*
X206241119Y-141576795D02*
X204165714Y-143652200D01*
X204165714Y-143652200D02*
X203255200Y-143652200D01*
D25*
X192917400Y-114886953D02*
X192917400Y-114533400D01*
X191500216Y-115803400D02*
X191913527Y-116216711D01*
X191913527Y-116216711D02*
X192397273Y-116216711D01*
X189163400Y-115803400D02*
X191500216Y-115803400D01*
X192397273Y-116216711D02*
X192917400Y-115696584D01*
X192917400Y-115696584D02*
X192917400Y-114886953D01*
D23*
X197997420Y-209947104D02*
X197997420Y-211479020D01*
D25*
X192917400Y-198156953D02*
X192917400Y-197803400D01*
X189163400Y-199073400D02*
X191500216Y-199073400D01*
X192397273Y-199486711D02*
X192917400Y-198966584D01*
X192917400Y-198966584D02*
X192917400Y-198156953D01*
X191913527Y-199486711D02*
X192397273Y-199486711D01*
X191500216Y-199073400D02*
X191913527Y-199486711D01*
D23*
X204165714Y-226922200D02*
X203255200Y-226922200D01*
X198759400Y-209185124D02*
X197997420Y-209947104D01*
X198759400Y-207948400D02*
X198759400Y-209185124D01*
X197997420Y-211479020D02*
X206241119Y-219722719D01*
X206241119Y-219722719D02*
X206241119Y-224846795D01*
X206241119Y-224846795D02*
X204165714Y-226922200D01*
G04 #@! TO.N,/USB+*
X204042600Y-142991800D02*
X205834709Y-141199691D01*
X205834709Y-141199691D02*
X205834709Y-136639959D01*
X205834709Y-136639959D02*
X197591010Y-128396260D01*
X197591010Y-128396260D02*
X197591010Y-126300000D01*
X197591010Y-126300000D02*
X198120410Y-125770600D01*
D25*
X190855400Y-115153400D02*
X190885400Y-115183400D01*
X189163400Y-115153400D02*
X190855400Y-115153400D01*
D23*
X205834709Y-224469691D02*
X205834709Y-219909959D01*
X197591010Y-209570000D02*
X198120410Y-209040600D01*
X205834709Y-219909959D02*
X197591010Y-211666260D01*
D25*
X190855400Y-198423400D02*
X190885400Y-198453400D01*
X189163400Y-198423400D02*
X190855400Y-198423400D01*
D23*
X204042600Y-226261800D02*
X205834709Y-224469691D01*
X197591010Y-211666260D02*
X197591010Y-209570000D01*
G04 #@! TO.N,/D30*
X196473513Y-145908801D02*
X193505599Y-145908801D01*
X207522400Y-138521400D02*
X208132000Y-139131000D01*
X192282400Y-147132000D02*
X192282400Y-153026847D01*
X196683974Y-145698340D02*
X196473513Y-145908801D01*
X204760725Y-145698340D02*
X196683974Y-145698340D01*
X208132000Y-142327065D02*
X204760725Y-145698340D01*
X208132000Y-139131000D02*
X208132000Y-142327065D01*
X193505599Y-145908801D02*
X192282400Y-147132000D01*
X192282400Y-153026847D02*
X192282400Y-153380400D01*
X192282400Y-230402000D02*
X192282400Y-236296847D01*
X196683974Y-228968340D02*
X196473513Y-229178801D01*
X207522400Y-221791400D02*
X208132000Y-222401000D01*
X196473513Y-229178801D02*
X193505599Y-229178801D01*
X192282400Y-236296847D02*
X192282400Y-236650400D01*
X208132000Y-225577065D02*
X204740725Y-228968340D01*
X208132000Y-222401000D02*
X208132000Y-225577065D01*
X204740725Y-228968340D02*
X196683974Y-228968340D01*
X193505599Y-229178801D02*
X192282400Y-230402000D01*
G04 #@! TO.N,/D31*
X191393390Y-145785810D02*
X191887270Y-145291930D01*
X192282400Y-154523400D02*
X191393390Y-153634390D01*
X195523356Y-145291930D02*
X195965287Y-144849999D01*
X191887270Y-145291930D02*
X195523356Y-145291930D01*
X207666718Y-139755871D02*
X206785800Y-138874953D01*
X204592384Y-145291930D02*
X207666718Y-142217596D01*
X196915444Y-145291930D02*
X204592384Y-145291930D01*
X191393390Y-153634390D02*
X191393390Y-145785810D01*
X206785800Y-138874953D02*
X206785800Y-138521400D01*
X195965287Y-144849999D02*
X196473513Y-144849999D01*
X207666718Y-142217596D02*
X207666718Y-139755871D01*
X196473513Y-144849999D02*
X196915444Y-145291930D01*
X191393390Y-229055810D02*
X191887270Y-228561930D01*
X196473513Y-228119999D02*
X196915444Y-228561930D01*
X204572384Y-228561930D02*
X207666718Y-225467596D01*
X206785800Y-222144953D02*
X206785800Y-221791400D01*
X195523356Y-228561930D02*
X195965287Y-228119999D01*
X195965287Y-228119999D02*
X196473513Y-228119999D01*
X192282400Y-237793400D02*
X191393390Y-236904390D01*
X207666718Y-225467596D02*
X207666718Y-223025871D01*
X196915444Y-228561930D02*
X204572384Y-228561930D01*
X207666718Y-223025871D02*
X206785800Y-222144953D01*
X191887270Y-228561930D02*
X195523356Y-228561930D01*
X191393390Y-236904390D02*
X191393390Y-229055810D01*
D26*
G04 #@! TO.N,VUSB*
X194187400Y-113220953D02*
X194187400Y-112867400D01*
X191521724Y-116453400D02*
X191729446Y-116661122D01*
X192581355Y-116661121D02*
X194187400Y-115055076D01*
X191729446Y-116661122D02*
X192581355Y-116661121D01*
X189163400Y-116453400D02*
X191521724Y-116453400D01*
X194187400Y-115055076D02*
X194187400Y-113220953D01*
X191521724Y-199723400D02*
X191729446Y-199931122D01*
X194187400Y-196490953D02*
X194187400Y-196137400D01*
X191729446Y-199931122D02*
X192581355Y-199931121D01*
X194187400Y-198325076D02*
X194187400Y-196490953D01*
X189163400Y-199723400D02*
X191521724Y-199723400D01*
X192581355Y-199931121D02*
X194187400Y-198325076D01*
D25*
G04 #@! TO.N,/SDA2*
X196727400Y-173065400D02*
X189551900Y-173065400D01*
X203331400Y-179669400D02*
X197997400Y-174335400D01*
X197997400Y-174335400D02*
X196727400Y-173065400D01*
X197997400Y-257605400D02*
X196727400Y-256335400D01*
X196727400Y-256335400D02*
X189551900Y-256335400D01*
X203331400Y-262939400D02*
X197997400Y-257605400D01*
D23*
G04 #@! TO.N,/PERIPH_3V3*
X205871400Y-165191400D02*
X205998400Y-165064400D01*
X204855400Y-165191400D02*
X205871400Y-165191400D01*
X204855400Y-248461400D02*
X205871400Y-248461400D01*
X205871400Y-248461400D02*
X205998400Y-248334400D01*
D25*
G04 #@! TO.N,/SCL1*
X205871400Y-146113953D02*
X207168847Y-147411400D01*
X205871400Y-145760400D02*
X205871400Y-146113953D01*
X207168847Y-147411400D02*
X208792400Y-147411400D01*
X208792400Y-147411400D02*
X209300400Y-147919400D01*
X217047400Y-147411400D02*
X217682400Y-148046400D01*
X219206400Y-131155400D02*
X218956401Y-130905401D01*
X214122399Y-130905401D02*
X213237400Y-131790400D01*
X208792400Y-147411400D02*
X213237400Y-147411400D01*
X213237400Y-147411400D02*
X213237400Y-160492400D01*
X213237400Y-131917400D02*
X213237400Y-116169400D01*
X213237400Y-131790400D02*
X213237400Y-131917400D01*
X213237400Y-131917400D02*
X213237400Y-147411400D01*
X213237400Y-116169400D02*
X214380400Y-115026400D01*
X214380400Y-115026400D02*
X218825400Y-115026400D01*
X210947401Y-178657401D02*
X210697402Y-178907400D01*
X213237400Y-176367400D02*
X210947401Y-178657401D01*
X213745400Y-175859400D02*
X213237400Y-176367400D01*
X213237400Y-160492400D02*
X213745400Y-161000400D01*
X213745400Y-161000400D02*
X213745400Y-175859400D01*
X216920400Y-179288400D02*
X219206400Y-179288400D01*
X213237400Y-176367400D02*
X213618400Y-175986400D01*
D23*
X215142400Y-114772400D02*
X215142400Y-115026400D01*
D25*
X215269400Y-130905401D02*
X214122399Y-130905401D01*
X218956401Y-130905401D02*
X215269400Y-130905401D01*
D23*
X214761400Y-147538400D02*
X214888400Y-147411400D01*
X214761400Y-147665400D02*
X214761400Y-147538400D01*
D25*
X213237400Y-147411400D02*
X214888400Y-147411400D01*
X214888400Y-147411400D02*
X217047400Y-147411400D01*
X218571400Y-162778400D02*
X219206400Y-163413400D01*
X215523400Y-162778400D02*
X218571400Y-162778400D01*
D23*
X215265399Y-162528401D02*
X215269400Y-162524400D01*
X215011399Y-162528401D02*
X215265399Y-162528401D01*
X214761400Y-162778400D02*
X215011399Y-162528401D01*
D25*
X213237400Y-160492400D02*
X215269400Y-162524400D01*
X215269400Y-162524400D02*
X215523400Y-162778400D01*
D23*
X215519399Y-178911401D02*
X216031400Y-178399400D01*
X214376399Y-178911401D02*
X215519399Y-178911401D01*
X214126400Y-179161400D02*
X214376399Y-178911401D01*
D25*
X213618400Y-175986400D02*
X216031400Y-178399400D01*
X216031400Y-178399400D02*
X216920400Y-179288400D01*
X205871400Y-229383953D02*
X207168847Y-230681400D01*
X213745400Y-259129400D02*
X213237400Y-259637400D01*
X208792400Y-230681400D02*
X209300400Y-231189400D01*
X214122399Y-214175401D02*
X213237400Y-215060400D01*
X213237400Y-243762400D02*
X213745400Y-244270400D01*
X217047400Y-230681400D02*
X217682400Y-231316400D01*
X213237400Y-259637400D02*
X210947401Y-261927401D01*
X213745400Y-244270400D02*
X213745400Y-259129400D01*
X207168847Y-230681400D02*
X208792400Y-230681400D01*
X213237400Y-259637400D02*
X213618400Y-259256400D01*
X210947401Y-261927401D02*
X210697402Y-262177400D01*
X219206400Y-214425400D02*
X218956401Y-214175401D01*
X214380400Y-198296400D02*
X218825400Y-198296400D01*
X216920400Y-262558400D02*
X219206400Y-262558400D01*
X213237400Y-215187400D02*
X213237400Y-230681400D01*
X205871400Y-229030400D02*
X205871400Y-229383953D01*
X208792400Y-230681400D02*
X213237400Y-230681400D01*
X213237400Y-230681400D02*
X213237400Y-243762400D01*
X213237400Y-215060400D02*
X213237400Y-215187400D01*
X213237400Y-199439400D02*
X214380400Y-198296400D01*
X213237400Y-215187400D02*
X213237400Y-199439400D01*
X215523400Y-246048400D02*
X218571400Y-246048400D01*
D23*
X214761400Y-230808400D02*
X214888400Y-230681400D01*
X214376399Y-262181401D02*
X215519399Y-262181401D01*
D25*
X216031400Y-261669400D02*
X216920400Y-262558400D01*
X213618400Y-259256400D02*
X216031400Y-261669400D01*
D23*
X214126400Y-262431400D02*
X214376399Y-262181401D01*
D25*
X218956401Y-214175401D02*
X215269400Y-214175401D01*
X214888400Y-230681400D02*
X217047400Y-230681400D01*
D23*
X215265399Y-245798401D02*
X215269400Y-245794400D01*
X214761400Y-246048400D02*
X215011399Y-245798401D01*
D25*
X215269400Y-245794400D02*
X215523400Y-246048400D01*
X213237400Y-230681400D02*
X214888400Y-230681400D01*
D23*
X215011399Y-245798401D02*
X215265399Y-245798401D01*
D25*
X218571400Y-246048400D02*
X219206400Y-246683400D01*
X213237400Y-243762400D02*
X215269400Y-245794400D01*
X215269400Y-214175401D02*
X214122399Y-214175401D01*
D23*
X215142400Y-198042400D02*
X215142400Y-198296400D01*
X214761400Y-230935400D02*
X214761400Y-230808400D01*
X215519399Y-262181401D02*
X216031400Y-261669400D01*
D25*
G04 #@! TO.N,/isolated_atlas0/ISO_SCL*
X220959000Y-110327400D02*
X222127400Y-110327400D01*
X219866800Y-110073400D02*
X220705000Y-110073400D01*
X220705000Y-110073400D02*
X220959000Y-110327400D01*
X219614847Y-110325353D02*
X219866800Y-110073400D01*
X219614847Y-110327400D02*
X219614847Y-110325353D01*
X219511200Y-110784600D02*
X219511200Y-110431047D01*
X219511200Y-110431047D02*
X219614847Y-110327400D01*
X222127400Y-110327400D02*
X235906900Y-110327400D01*
X222127400Y-193597400D02*
X235906900Y-193597400D01*
X219511200Y-193701047D02*
X219614847Y-193597400D01*
X219614847Y-193597400D02*
X219614847Y-193595353D01*
X219511200Y-194054600D02*
X219511200Y-193701047D01*
X220959000Y-193597400D02*
X222127400Y-193597400D01*
X219866800Y-193343400D02*
X220705000Y-193343400D01*
X220705000Y-193343400D02*
X220959000Y-193597400D01*
X219614847Y-193595353D02*
X219866800Y-193343400D01*
G04 #@! TO.N,/isolated_atlas0/ISO_SDA*
X220298600Y-110831300D02*
X233962432Y-110831300D01*
X233962432Y-110831300D02*
X235812120Y-112680988D01*
X235812120Y-112680988D02*
X235812120Y-112833388D01*
X233962432Y-194101300D02*
X235812120Y-195950988D01*
X220298600Y-194101300D02*
X233962432Y-194101300D01*
X235812120Y-195950988D02*
X235812120Y-196103388D01*
G04 #@! TO.N,/isolated_atlas1/ISO_SCL*
X219562000Y-126786600D02*
X220273200Y-126075400D01*
X220273200Y-126075400D02*
X221088000Y-126075400D01*
X221088000Y-126075400D02*
X221340000Y-126327400D01*
X221340000Y-126327400D02*
X222129400Y-126327400D01*
X222127400Y-126329400D02*
X222129400Y-126327400D01*
X234516920Y-126845388D02*
X235583520Y-126845388D01*
X234000932Y-126329400D02*
X234516920Y-126845388D01*
X222127400Y-126329400D02*
X234000932Y-126329400D01*
X219562000Y-210056600D02*
X220273200Y-209345400D01*
X220273200Y-209345400D02*
X221088000Y-209345400D01*
X221340000Y-209597400D02*
X222129400Y-209597400D01*
X222127400Y-209599400D02*
X222129400Y-209597400D01*
X234516920Y-210115388D02*
X235583520Y-210115388D01*
X221088000Y-209345400D02*
X221340000Y-209597400D01*
X222127400Y-209599400D02*
X234000932Y-209599400D01*
X234000932Y-209599400D02*
X234516920Y-210115388D01*
G04 #@! TO.N,/isolated_atlas1/ISO_SDA*
X235583520Y-129232988D02*
X235583520Y-129385388D01*
X233568932Y-127218400D02*
X235583520Y-129232988D01*
X233557400Y-127218400D02*
X233568932Y-127218400D01*
X220374800Y-126831300D02*
X233170300Y-126831300D01*
X233170300Y-126831300D02*
X233557400Y-127218400D01*
X220374800Y-210101300D02*
X233170300Y-210101300D01*
X233557400Y-210488400D02*
X233568932Y-210488400D01*
X233170300Y-210101300D02*
X233557400Y-210488400D01*
X235583520Y-212502988D02*
X235583520Y-212655388D01*
X233568932Y-210488400D02*
X235583520Y-212502988D01*
G04 #@! TO.N,/isolated_atlas2/ISO_SCL*
X220019200Y-142128200D02*
X219460400Y-142687000D01*
X220759800Y-142128200D02*
X220019200Y-142128200D01*
X235906900Y-142327400D02*
X220959000Y-142327400D01*
X220959000Y-142327400D02*
X220759800Y-142128200D01*
X220759800Y-225398200D02*
X220019200Y-225398200D01*
X220019200Y-225398200D02*
X219460400Y-225957000D01*
X235906900Y-225597400D02*
X220959000Y-225597400D01*
X220959000Y-225597400D02*
X220759800Y-225398200D01*
G04 #@! TO.N,/isolated_atlas2/ISO_SDA*
X233916432Y-142831300D02*
X235812120Y-144726988D01*
X220349400Y-142831300D02*
X233916432Y-142831300D01*
X235812120Y-144726988D02*
X235812120Y-144879388D01*
X220349400Y-226101300D02*
X233916432Y-226101300D01*
X235812120Y-227996988D02*
X235812120Y-228149388D01*
X233916432Y-226101300D02*
X235812120Y-227996988D01*
G04 #@! TO.N,/isolated_atlas3/ISO_SCL*
X221879400Y-158327400D02*
X235906900Y-158327400D01*
X221688900Y-158327400D02*
X221879400Y-158327400D01*
X221571999Y-158210499D02*
X221688900Y-158327400D01*
X219485800Y-158714400D02*
X219989701Y-158210499D01*
X219989701Y-158210499D02*
X221571999Y-158210499D01*
X219485800Y-241984400D02*
X219989701Y-241480499D01*
X219989701Y-241480499D02*
X221571999Y-241480499D01*
X221688900Y-241597400D02*
X221879400Y-241597400D01*
X221571999Y-241480499D02*
X221688900Y-241597400D01*
X221879400Y-241597400D02*
X235906900Y-241597400D01*
G04 #@! TO.N,/isolated_atlas3/ISO_SDA*
X220247800Y-158714400D02*
X233807432Y-158714400D01*
X235806520Y-160713488D02*
X235806520Y-160865888D01*
X233807432Y-158714400D02*
X235806520Y-160713488D01*
X220247800Y-241984400D02*
X233807432Y-241984400D01*
X235806520Y-243983488D02*
X235806520Y-244135888D01*
X233807432Y-241984400D02*
X235806520Y-243983488D01*
G04 #@! TO.N,/isolated_atlas4/ISO_SCL*
X219485800Y-174868800D02*
X219485800Y-174515247D01*
X219673647Y-174327400D02*
X222000400Y-174327400D01*
X219485800Y-174515247D02*
X219673647Y-174327400D01*
X222000400Y-174327400D02*
X235906900Y-174327400D01*
X219485800Y-257785247D02*
X219673647Y-257597400D01*
X222000400Y-257597400D02*
X235906900Y-257597400D01*
X219485800Y-258138800D02*
X219485800Y-257785247D01*
X219673647Y-257597400D02*
X222000400Y-257597400D01*
G04 #@! TO.N,/isolated_atlas4/ISO_SDA*
X220222400Y-174843400D02*
X233918932Y-174843400D01*
X233918932Y-174843400D02*
X235806520Y-176730988D01*
X235806520Y-176730988D02*
X235806520Y-176883388D01*
X220222400Y-174843400D02*
X220603400Y-174843400D01*
X220222400Y-258113400D02*
X233918932Y-258113400D01*
X220222400Y-258113400D02*
X220603400Y-258113400D01*
X233918932Y-258113400D02*
X235806520Y-260000988D01*
X235806520Y-260000988D02*
X235806520Y-260153388D01*
D24*
G04 #@! TO.N,Net-(C13-Pad1)*
X189505400Y-112023400D02*
X189865400Y-112383400D01*
X188249900Y-112023400D02*
X189505400Y-112023400D01*
X189505400Y-195293400D02*
X189865400Y-195653400D01*
X188249900Y-195293400D02*
X189505400Y-195293400D01*
D25*
G04 #@! TO.N,Net-(J2-Pad4)*
X189163400Y-114503400D02*
X190945990Y-114503400D01*
X191905401Y-115462811D02*
X192155400Y-115712810D01*
D23*
X209113150Y-138750000D02*
X198480000Y-128116850D01*
X199288801Y-126227913D02*
X199288801Y-118730801D01*
X197414989Y-116856989D02*
X193577542Y-116856989D01*
X199288801Y-118730801D02*
X197414989Y-116856989D01*
X198480000Y-128116850D02*
X198480000Y-127036714D01*
X211662600Y-138750000D02*
X209113150Y-138750000D01*
X198480000Y-127036714D02*
X199288801Y-126227913D01*
D25*
X190945990Y-114503400D02*
X191905401Y-115462811D01*
D23*
X193577542Y-116856989D02*
X193223989Y-116856989D01*
X197414989Y-200126989D02*
X193577542Y-200126989D01*
X198480000Y-211386850D02*
X198480000Y-210306714D01*
X199288801Y-202000801D02*
X197414989Y-200126989D01*
D25*
X189163400Y-197773400D02*
X190945990Y-197773400D01*
D23*
X199288801Y-209497913D02*
X199288801Y-202000801D01*
X198480000Y-210306714D02*
X199288801Y-209497913D01*
X209113150Y-222020000D02*
X198480000Y-211386850D01*
X193577542Y-200126989D02*
X193223989Y-200126989D01*
X211662600Y-222020000D02*
X209113150Y-222020000D01*
D25*
X191905401Y-198732811D02*
X192155400Y-198982810D01*
X190945990Y-197773400D02*
X191905401Y-198732811D01*
D23*
G04 #@! TO.N,/SCL3*
X191139400Y-162397400D02*
X192155400Y-163413400D01*
X190758400Y-145760400D02*
X190758400Y-160365400D01*
X191139400Y-162397400D02*
X191139400Y-160746400D01*
X191139400Y-160746400D02*
X190758400Y-160365400D01*
X190758400Y-229030400D02*
X190758400Y-243635400D01*
X191139400Y-245667400D02*
X192155400Y-246683400D01*
X191139400Y-244016400D02*
X190758400Y-243635400D01*
X191139400Y-245667400D02*
X191139400Y-244016400D01*
G04 #@! TO.N,/SDA3*
X190229000Y-161254400D02*
X190229000Y-146247000D01*
X190229000Y-146247000D02*
X189996400Y-146014400D01*
X190229000Y-244524400D02*
X190229000Y-229517000D01*
X190229000Y-229517000D02*
X189996400Y-229284400D01*
D25*
G04 #@! TO.N,VCC*
X211205400Y-165064400D02*
X212411900Y-165064400D01*
X212411900Y-165064400D02*
X212475400Y-165127900D01*
X212411900Y-248334400D02*
X212475400Y-248397900D01*
X211205400Y-248334400D02*
X212411900Y-248334400D01*
D23*
G04 #@! TO.N,Net-(R12-Pad1)*
X205871400Y-172049400D02*
X209427400Y-168493400D01*
X209427400Y-168493400D02*
X212475400Y-168493400D01*
X209427400Y-251763400D02*
X212475400Y-251763400D01*
X205871400Y-255319400D02*
X209427400Y-251763400D01*
G04 #@! TO.N,/D5_FLASH_CS*
X199076900Y-154345600D02*
X198784800Y-154637700D01*
X199076900Y-149697400D02*
X199076900Y-154345600D01*
X199076900Y-232967400D02*
X199076900Y-237615600D01*
X199076900Y-237615600D02*
X198784800Y-237907700D01*
G04 #@! TD*
G04 #@! TO.N,/isolated_atlas0/EC_PGND*
G36*
X252622743Y-105481270D02*
X252835991Y-105569600D01*
X253066809Y-105569600D01*
X253280057Y-105481270D01*
X253386927Y-105374400D01*
X253715873Y-105374400D01*
X253822743Y-105481270D01*
X254035991Y-105569600D01*
X254266809Y-105569600D01*
X254480057Y-105481270D01*
X254566727Y-105394600D01*
X255178765Y-105394600D01*
X255129959Y-105414816D01*
X254679816Y-105864959D01*
X254436200Y-106453100D01*
X254436200Y-107089700D01*
X254679816Y-107677841D01*
X255129959Y-108127984D01*
X255718100Y-108371600D01*
X256354700Y-108371600D01*
X256942841Y-108127984D01*
X257392984Y-107677841D01*
X257636600Y-107089700D01*
X257636600Y-106453100D01*
X257392984Y-105864959D01*
X256942841Y-105414816D01*
X256894035Y-105394600D01*
X261624400Y-105394600D01*
X261624400Y-114518400D01*
X254558435Y-114518400D01*
X254452801Y-114360307D01*
X254068294Y-114103388D01*
X254452801Y-113846469D01*
X254716654Y-113451584D01*
X254785920Y-113103361D01*
X254785920Y-112629938D01*
X257938100Y-112629938D01*
X257938100Y-113104862D01*
X258119845Y-113543633D01*
X258455667Y-113879455D01*
X258894438Y-114061200D01*
X259369362Y-114061200D01*
X259808133Y-113879455D01*
X260143955Y-113543633D01*
X260325700Y-113104862D01*
X260325700Y-112629938D01*
X260143955Y-112191167D01*
X259808133Y-111855345D01*
X259369362Y-111673600D01*
X258894438Y-111673600D01*
X258455667Y-111855345D01*
X258119845Y-112191167D01*
X257938100Y-112629938D01*
X254785920Y-112629938D01*
X254785920Y-112563414D01*
X254716654Y-112215191D01*
X254452801Y-111820307D01*
X254057916Y-111556454D01*
X253592120Y-111463801D01*
X253126323Y-111556454D01*
X252731439Y-111820307D01*
X252467586Y-112215192D01*
X252398320Y-112563415D01*
X252398320Y-113103362D01*
X252467586Y-113451585D01*
X252731440Y-113846469D01*
X253115946Y-114103388D01*
X252731439Y-114360307D01*
X252625805Y-114518400D01*
X246638400Y-114518400D01*
X246638400Y-105394600D01*
X251336073Y-105394600D01*
X251422743Y-105481270D01*
X251635991Y-105569600D01*
X251866809Y-105569600D01*
X252080057Y-105481270D01*
X252186927Y-105374400D01*
X252515873Y-105374400D01*
X252622743Y-105481270D01*
X252622743Y-105481270D01*
G37*
X252622743Y-105481270D02*
X252835991Y-105569600D01*
X253066809Y-105569600D01*
X253280057Y-105481270D01*
X253386927Y-105374400D01*
X253715873Y-105374400D01*
X253822743Y-105481270D01*
X254035991Y-105569600D01*
X254266809Y-105569600D01*
X254480057Y-105481270D01*
X254566727Y-105394600D01*
X255178765Y-105394600D01*
X255129959Y-105414816D01*
X254679816Y-105864959D01*
X254436200Y-106453100D01*
X254436200Y-107089700D01*
X254679816Y-107677841D01*
X255129959Y-108127984D01*
X255718100Y-108371600D01*
X256354700Y-108371600D01*
X256942841Y-108127984D01*
X257392984Y-107677841D01*
X257636600Y-107089700D01*
X257636600Y-106453100D01*
X257392984Y-105864959D01*
X256942841Y-105414816D01*
X256894035Y-105394600D01*
X261624400Y-105394600D01*
X261624400Y-114518400D01*
X254558435Y-114518400D01*
X254452801Y-114360307D01*
X254068294Y-114103388D01*
X254452801Y-113846469D01*
X254716654Y-113451584D01*
X254785920Y-113103361D01*
X254785920Y-112629938D01*
X257938100Y-112629938D01*
X257938100Y-113104862D01*
X258119845Y-113543633D01*
X258455667Y-113879455D01*
X258894438Y-114061200D01*
X259369362Y-114061200D01*
X259808133Y-113879455D01*
X260143955Y-113543633D01*
X260325700Y-113104862D01*
X260325700Y-112629938D01*
X260143955Y-112191167D01*
X259808133Y-111855345D01*
X259369362Y-111673600D01*
X258894438Y-111673600D01*
X258455667Y-111855345D01*
X258119845Y-112191167D01*
X257938100Y-112629938D01*
X254785920Y-112629938D01*
X254785920Y-112563414D01*
X254716654Y-112215191D01*
X254452801Y-111820307D01*
X254057916Y-111556454D01*
X253592120Y-111463801D01*
X253126323Y-111556454D01*
X252731439Y-111820307D01*
X252467586Y-112215192D01*
X252398320Y-112563415D01*
X252398320Y-113103362D01*
X252467586Y-113451585D01*
X252731440Y-113846469D01*
X253115946Y-114103388D01*
X252731439Y-114360307D01*
X252625805Y-114518400D01*
X246638400Y-114518400D01*
X246638400Y-105394600D01*
X251336073Y-105394600D01*
X251422743Y-105481270D01*
X251635991Y-105569600D01*
X251866809Y-105569600D01*
X252080057Y-105481270D01*
X252186927Y-105374400D01*
X252515873Y-105374400D01*
X252622743Y-105481270D01*
G04 #@! TO.N,/isolated_atlas1/RTD_PGND*
G36*
X261630228Y-130505963D02*
X254056650Y-130510423D01*
X254224201Y-130398469D01*
X254488054Y-130003584D01*
X254557320Y-129655361D01*
X254557320Y-129115414D01*
X254488054Y-128767191D01*
X254397681Y-128631938D01*
X258001600Y-128631938D01*
X258001600Y-129106862D01*
X258183345Y-129545633D01*
X258519167Y-129881455D01*
X258957938Y-130063200D01*
X259432862Y-130063200D01*
X259871633Y-129881455D01*
X260207455Y-129545633D01*
X260389200Y-129106862D01*
X260389200Y-128631938D01*
X260207455Y-128193167D01*
X259871633Y-127857345D01*
X259432862Y-127675600D01*
X258957938Y-127675600D01*
X258519167Y-127857345D01*
X258183345Y-128193167D01*
X258001600Y-128631938D01*
X254397681Y-128631938D01*
X254224201Y-128372307D01*
X253829316Y-128108454D01*
X253363520Y-128015801D01*
X252897723Y-128108454D01*
X252502839Y-128372307D01*
X252238986Y-128767192D01*
X252169720Y-129115415D01*
X252169720Y-129655362D01*
X252238986Y-130003585D01*
X252502840Y-130398469D01*
X252671611Y-130511238D01*
X237240320Y-130520325D01*
X237239688Y-129515991D01*
X248217200Y-129515991D01*
X248217200Y-129746809D01*
X248305530Y-129960057D01*
X248468743Y-130123270D01*
X248681991Y-130211600D01*
X248912809Y-130211600D01*
X249126057Y-130123270D01*
X249289270Y-129960057D01*
X249377600Y-129746809D01*
X249377600Y-129515991D01*
X249289270Y-129302743D01*
X249126057Y-129139530D01*
X248912809Y-129051200D01*
X248681991Y-129051200D01*
X248468743Y-129139530D01*
X248305530Y-129302743D01*
X248217200Y-129515991D01*
X237239688Y-129515991D01*
X237236650Y-124689991D01*
X239581200Y-124689991D01*
X239581200Y-124920809D01*
X239669530Y-125134057D01*
X239832743Y-125297270D01*
X240045991Y-125385600D01*
X240276809Y-125385600D01*
X240490057Y-125297270D01*
X240653270Y-125134057D01*
X240741600Y-124920809D01*
X240741600Y-124689991D01*
X240653270Y-124476743D01*
X240490057Y-124313530D01*
X240276809Y-124225200D01*
X240045991Y-124225200D01*
X239832743Y-124313530D01*
X239669530Y-124476743D01*
X239581200Y-124689991D01*
X237236650Y-124689991D01*
X237234572Y-121390837D01*
X261624480Y-121376475D01*
X261630228Y-130505963D01*
X261630228Y-130505963D01*
G37*
X261630228Y-130505963D02*
X254056650Y-130510423D01*
X254224201Y-130398469D01*
X254488054Y-130003584D01*
X254557320Y-129655361D01*
X254557320Y-129115414D01*
X254488054Y-128767191D01*
X254397681Y-128631938D01*
X258001600Y-128631938D01*
X258001600Y-129106862D01*
X258183345Y-129545633D01*
X258519167Y-129881455D01*
X258957938Y-130063200D01*
X259432862Y-130063200D01*
X259871633Y-129881455D01*
X260207455Y-129545633D01*
X260389200Y-129106862D01*
X260389200Y-128631938D01*
X260207455Y-128193167D01*
X259871633Y-127857345D01*
X259432862Y-127675600D01*
X258957938Y-127675600D01*
X258519167Y-127857345D01*
X258183345Y-128193167D01*
X258001600Y-128631938D01*
X254397681Y-128631938D01*
X254224201Y-128372307D01*
X253829316Y-128108454D01*
X253363520Y-128015801D01*
X252897723Y-128108454D01*
X252502839Y-128372307D01*
X252238986Y-128767192D01*
X252169720Y-129115415D01*
X252169720Y-129655362D01*
X252238986Y-130003585D01*
X252502840Y-130398469D01*
X252671611Y-130511238D01*
X237240320Y-130520325D01*
X237239688Y-129515991D01*
X248217200Y-129515991D01*
X248217200Y-129746809D01*
X248305530Y-129960057D01*
X248468743Y-130123270D01*
X248681991Y-130211600D01*
X248912809Y-130211600D01*
X249126057Y-130123270D01*
X249289270Y-129960057D01*
X249377600Y-129746809D01*
X249377600Y-129515991D01*
X249289270Y-129302743D01*
X249126057Y-129139530D01*
X248912809Y-129051200D01*
X248681991Y-129051200D01*
X248468743Y-129139530D01*
X248305530Y-129302743D01*
X248217200Y-129515991D01*
X237239688Y-129515991D01*
X237236650Y-124689991D01*
X239581200Y-124689991D01*
X239581200Y-124920809D01*
X239669530Y-125134057D01*
X239832743Y-125297270D01*
X240045991Y-125385600D01*
X240276809Y-125385600D01*
X240490057Y-125297270D01*
X240653270Y-125134057D01*
X240741600Y-124920809D01*
X240741600Y-124689991D01*
X240653270Y-124476743D01*
X240490057Y-124313530D01*
X240276809Y-124225200D01*
X240045991Y-124225200D01*
X239832743Y-124313530D01*
X239669530Y-124476743D01*
X239581200Y-124689991D01*
X237236650Y-124689991D01*
X237234572Y-121390837D01*
X261624480Y-121376475D01*
X261630228Y-130505963D01*
G04 #@! TO.N,/isolated_atlas2/PH_PGND*
G36*
X261597734Y-146522400D02*
X254530372Y-146522400D01*
X254452801Y-146406307D01*
X254068294Y-146149388D01*
X254452801Y-145892469D01*
X254716654Y-145497584D01*
X254785920Y-145149361D01*
X254785920Y-144629938D01*
X258001600Y-144629938D01*
X258001600Y-145104862D01*
X258183345Y-145543633D01*
X258519167Y-145879455D01*
X258957938Y-146061200D01*
X259432862Y-146061200D01*
X259871633Y-145879455D01*
X260207455Y-145543633D01*
X260389200Y-145104862D01*
X260389200Y-144629938D01*
X260207455Y-144191167D01*
X259871633Y-143855345D01*
X259432862Y-143673600D01*
X258957938Y-143673600D01*
X258519167Y-143855345D01*
X258183345Y-144191167D01*
X258001600Y-144629938D01*
X254785920Y-144629938D01*
X254785920Y-144609414D01*
X254716654Y-144261191D01*
X254452801Y-143866307D01*
X254057916Y-143602454D01*
X253592120Y-143509801D01*
X253126323Y-143602454D01*
X252731439Y-143866307D01*
X252467586Y-144261192D01*
X252398320Y-144609415D01*
X252398320Y-145149362D01*
X252467586Y-145497585D01*
X252731440Y-145892469D01*
X253115946Y-146149388D01*
X252731439Y-146406307D01*
X252653868Y-146522400D01*
X246611735Y-146522400D01*
X246638063Y-136616400D01*
X261624062Y-136616400D01*
X261597734Y-146522400D01*
X261597734Y-146522400D01*
G37*
X261597734Y-146522400D02*
X254530372Y-146522400D01*
X254452801Y-146406307D01*
X254068294Y-146149388D01*
X254452801Y-145892469D01*
X254716654Y-145497584D01*
X254785920Y-145149361D01*
X254785920Y-144629938D01*
X258001600Y-144629938D01*
X258001600Y-145104862D01*
X258183345Y-145543633D01*
X258519167Y-145879455D01*
X258957938Y-146061200D01*
X259432862Y-146061200D01*
X259871633Y-145879455D01*
X260207455Y-145543633D01*
X260389200Y-145104862D01*
X260389200Y-144629938D01*
X260207455Y-144191167D01*
X259871633Y-143855345D01*
X259432862Y-143673600D01*
X258957938Y-143673600D01*
X258519167Y-143855345D01*
X258183345Y-144191167D01*
X258001600Y-144629938D01*
X254785920Y-144629938D01*
X254785920Y-144609414D01*
X254716654Y-144261191D01*
X254452801Y-143866307D01*
X254057916Y-143602454D01*
X253592120Y-143509801D01*
X253126323Y-143602454D01*
X252731439Y-143866307D01*
X252467586Y-144261192D01*
X252398320Y-144609415D01*
X252398320Y-145149362D01*
X252467586Y-145497585D01*
X252731440Y-145892469D01*
X253115946Y-146149388D01*
X252731439Y-146406307D01*
X252653868Y-146522400D01*
X246611735Y-146522400D01*
X246638063Y-136616400D01*
X261624062Y-136616400D01*
X261597734Y-146522400D01*
G04 #@! TO.N,/isolated_atlas3/DO_PGND*
G36*
X261636363Y-162524400D02*
X254535129Y-162524400D01*
X254447201Y-162392807D01*
X254062694Y-162135888D01*
X254447201Y-161878969D01*
X254711054Y-161484084D01*
X254780320Y-161135861D01*
X254780320Y-160635938D01*
X258001600Y-160635938D01*
X258001600Y-161110862D01*
X258183345Y-161549633D01*
X258519167Y-161885455D01*
X258957938Y-162067200D01*
X259432862Y-162067200D01*
X259871633Y-161885455D01*
X260207455Y-161549633D01*
X260389200Y-161110862D01*
X260389200Y-160635938D01*
X260207455Y-160197167D01*
X259871633Y-159861345D01*
X259432862Y-159679600D01*
X258957938Y-159679600D01*
X258519167Y-159861345D01*
X258183345Y-160197167D01*
X258001600Y-160635938D01*
X254780320Y-160635938D01*
X254780320Y-160595914D01*
X254711054Y-160247691D01*
X254447201Y-159852807D01*
X254052316Y-159588954D01*
X253586520Y-159496301D01*
X253120723Y-159588954D01*
X252725839Y-159852807D01*
X252461986Y-160247692D01*
X252392720Y-160595915D01*
X252392720Y-161135862D01*
X252461986Y-161484085D01*
X252725840Y-161878969D01*
X253110346Y-162135888D01*
X252725839Y-162392807D01*
X252637912Y-162524400D01*
X246650363Y-162524400D01*
X246650363Y-153126400D01*
X261636363Y-153126400D01*
X261636363Y-162524400D01*
X261636363Y-162524400D01*
G37*
X261636363Y-162524400D02*
X254535129Y-162524400D01*
X254447201Y-162392807D01*
X254062694Y-162135888D01*
X254447201Y-161878969D01*
X254711054Y-161484084D01*
X254780320Y-161135861D01*
X254780320Y-160635938D01*
X258001600Y-160635938D01*
X258001600Y-161110862D01*
X258183345Y-161549633D01*
X258519167Y-161885455D01*
X258957938Y-162067200D01*
X259432862Y-162067200D01*
X259871633Y-161885455D01*
X260207455Y-161549633D01*
X260389200Y-161110862D01*
X260389200Y-160635938D01*
X260207455Y-160197167D01*
X259871633Y-159861345D01*
X259432862Y-159679600D01*
X258957938Y-159679600D01*
X258519167Y-159861345D01*
X258183345Y-160197167D01*
X258001600Y-160635938D01*
X254780320Y-160635938D01*
X254780320Y-160595914D01*
X254711054Y-160247691D01*
X254447201Y-159852807D01*
X254052316Y-159588954D01*
X253586520Y-159496301D01*
X253120723Y-159588954D01*
X252725839Y-159852807D01*
X252461986Y-160247692D01*
X252392720Y-160595915D01*
X252392720Y-161135862D01*
X252461986Y-161484085D01*
X252725840Y-161878969D01*
X253110346Y-162135888D01*
X252725839Y-162392807D01*
X252637912Y-162524400D01*
X246650363Y-162524400D01*
X246650363Y-153126400D01*
X261636363Y-153126400D01*
X261636363Y-162524400D01*
G04 #@! TO.N,/isolated_atlas4/ORP_PGND*
G36*
X261624400Y-178526400D02*
X254524772Y-178526400D01*
X254447201Y-178410307D01*
X254062694Y-178153388D01*
X254447201Y-177896469D01*
X254711054Y-177501584D01*
X254780320Y-177153361D01*
X254780320Y-176637938D01*
X258001600Y-176637938D01*
X258001600Y-177112862D01*
X258183345Y-177551633D01*
X258519167Y-177887455D01*
X258957938Y-178069200D01*
X259432862Y-178069200D01*
X259871633Y-177887455D01*
X260207455Y-177551633D01*
X260389200Y-177112862D01*
X260389200Y-176637938D01*
X260207455Y-176199167D01*
X259871633Y-175863345D01*
X259432862Y-175681600D01*
X258957938Y-175681600D01*
X258519167Y-175863345D01*
X258183345Y-176199167D01*
X258001600Y-176637938D01*
X254780320Y-176637938D01*
X254780320Y-176613414D01*
X254711054Y-176265191D01*
X254447201Y-175870307D01*
X254052316Y-175606454D01*
X253586520Y-175513801D01*
X253120723Y-175606454D01*
X252725839Y-175870307D01*
X252461986Y-176265192D01*
X252392720Y-176613415D01*
X252392720Y-177153362D01*
X252461986Y-177501585D01*
X252725840Y-177896469D01*
X253110346Y-178153388D01*
X252725839Y-178410307D01*
X252648268Y-178526400D01*
X246638400Y-178526400D01*
X246638400Y-169636400D01*
X261624400Y-169636400D01*
X261624400Y-178526400D01*
X261624400Y-178526400D01*
G37*
X261624400Y-178526400D02*
X254524772Y-178526400D01*
X254447201Y-178410307D01*
X254062694Y-178153388D01*
X254447201Y-177896469D01*
X254711054Y-177501584D01*
X254780320Y-177153361D01*
X254780320Y-176637938D01*
X258001600Y-176637938D01*
X258001600Y-177112862D01*
X258183345Y-177551633D01*
X258519167Y-177887455D01*
X258957938Y-178069200D01*
X259432862Y-178069200D01*
X259871633Y-177887455D01*
X260207455Y-177551633D01*
X260389200Y-177112862D01*
X260389200Y-176637938D01*
X260207455Y-176199167D01*
X259871633Y-175863345D01*
X259432862Y-175681600D01*
X258957938Y-175681600D01*
X258519167Y-175863345D01*
X258183345Y-176199167D01*
X258001600Y-176637938D01*
X254780320Y-176637938D01*
X254780320Y-176613414D01*
X254711054Y-176265191D01*
X254447201Y-175870307D01*
X254052316Y-175606454D01*
X253586520Y-175513801D01*
X253120723Y-175606454D01*
X252725839Y-175870307D01*
X252461986Y-176265192D01*
X252392720Y-176613415D01*
X252392720Y-177153362D01*
X252461986Y-177501585D01*
X252725840Y-177896469D01*
X253110346Y-178153388D01*
X252725839Y-178410307D01*
X252648268Y-178526400D01*
X246638400Y-178526400D01*
X246638400Y-169636400D01*
X261624400Y-169636400D01*
X261624400Y-178526400D01*
G04 #@! TO.N,/isolated_atlas1/RTD_PGND*
G36*
X261630228Y-213775963D02*
X254056650Y-213780423D01*
X254224201Y-213668469D01*
X254488054Y-213273584D01*
X254557320Y-212925361D01*
X254557320Y-212385414D01*
X254488054Y-212037191D01*
X254397681Y-211901938D01*
X258001600Y-211901938D01*
X258001600Y-212376862D01*
X258183345Y-212815633D01*
X258519167Y-213151455D01*
X258957938Y-213333200D01*
X259432862Y-213333200D01*
X259871633Y-213151455D01*
X260207455Y-212815633D01*
X260389200Y-212376862D01*
X260389200Y-211901938D01*
X260207455Y-211463167D01*
X259871633Y-211127345D01*
X259432862Y-210945600D01*
X258957938Y-210945600D01*
X258519167Y-211127345D01*
X258183345Y-211463167D01*
X258001600Y-211901938D01*
X254397681Y-211901938D01*
X254224201Y-211642307D01*
X253829316Y-211378454D01*
X253363520Y-211285801D01*
X252897723Y-211378454D01*
X252502839Y-211642307D01*
X252238986Y-212037192D01*
X252169720Y-212385415D01*
X252169720Y-212925362D01*
X252238986Y-213273585D01*
X252502840Y-213668469D01*
X252671611Y-213781238D01*
X237240320Y-213790325D01*
X237239688Y-212785991D01*
X248217200Y-212785991D01*
X248217200Y-213016809D01*
X248305530Y-213230057D01*
X248468743Y-213393270D01*
X248681991Y-213481600D01*
X248912809Y-213481600D01*
X249126057Y-213393270D01*
X249289270Y-213230057D01*
X249377600Y-213016809D01*
X249377600Y-212785991D01*
X249289270Y-212572743D01*
X249126057Y-212409530D01*
X248912809Y-212321200D01*
X248681991Y-212321200D01*
X248468743Y-212409530D01*
X248305530Y-212572743D01*
X248217200Y-212785991D01*
X237239688Y-212785991D01*
X237236650Y-207959991D01*
X239581200Y-207959991D01*
X239581200Y-208190809D01*
X239669530Y-208404057D01*
X239832743Y-208567270D01*
X240045991Y-208655600D01*
X240276809Y-208655600D01*
X240490057Y-208567270D01*
X240653270Y-208404057D01*
X240741600Y-208190809D01*
X240741600Y-207959991D01*
X240653270Y-207746743D01*
X240490057Y-207583530D01*
X240276809Y-207495200D01*
X240045991Y-207495200D01*
X239832743Y-207583530D01*
X239669530Y-207746743D01*
X239581200Y-207959991D01*
X237236650Y-207959991D01*
X237234572Y-204660837D01*
X261624480Y-204646475D01*
X261630228Y-213775963D01*
X261630228Y-213775963D01*
G37*
X261630228Y-213775963D02*
X254056650Y-213780423D01*
X254224201Y-213668469D01*
X254488054Y-213273584D01*
X254557320Y-212925361D01*
X254557320Y-212385414D01*
X254488054Y-212037191D01*
X254397681Y-211901938D01*
X258001600Y-211901938D01*
X258001600Y-212376862D01*
X258183345Y-212815633D01*
X258519167Y-213151455D01*
X258957938Y-213333200D01*
X259432862Y-213333200D01*
X259871633Y-213151455D01*
X260207455Y-212815633D01*
X260389200Y-212376862D01*
X260389200Y-211901938D01*
X260207455Y-211463167D01*
X259871633Y-211127345D01*
X259432862Y-210945600D01*
X258957938Y-210945600D01*
X258519167Y-211127345D01*
X258183345Y-211463167D01*
X258001600Y-211901938D01*
X254397681Y-211901938D01*
X254224201Y-211642307D01*
X253829316Y-211378454D01*
X253363520Y-211285801D01*
X252897723Y-211378454D01*
X252502839Y-211642307D01*
X252238986Y-212037192D01*
X252169720Y-212385415D01*
X252169720Y-212925362D01*
X252238986Y-213273585D01*
X252502840Y-213668469D01*
X252671611Y-213781238D01*
X237240320Y-213790325D01*
X237239688Y-212785991D01*
X248217200Y-212785991D01*
X248217200Y-213016809D01*
X248305530Y-213230057D01*
X248468743Y-213393270D01*
X248681991Y-213481600D01*
X248912809Y-213481600D01*
X249126057Y-213393270D01*
X249289270Y-213230057D01*
X249377600Y-213016809D01*
X249377600Y-212785991D01*
X249289270Y-212572743D01*
X249126057Y-212409530D01*
X248912809Y-212321200D01*
X248681991Y-212321200D01*
X248468743Y-212409530D01*
X248305530Y-212572743D01*
X248217200Y-212785991D01*
X237239688Y-212785991D01*
X237236650Y-207959991D01*
X239581200Y-207959991D01*
X239581200Y-208190809D01*
X239669530Y-208404057D01*
X239832743Y-208567270D01*
X240045991Y-208655600D01*
X240276809Y-208655600D01*
X240490057Y-208567270D01*
X240653270Y-208404057D01*
X240741600Y-208190809D01*
X240741600Y-207959991D01*
X240653270Y-207746743D01*
X240490057Y-207583530D01*
X240276809Y-207495200D01*
X240045991Y-207495200D01*
X239832743Y-207583530D01*
X239669530Y-207746743D01*
X239581200Y-207959991D01*
X237236650Y-207959991D01*
X237234572Y-204660837D01*
X261624480Y-204646475D01*
X261630228Y-213775963D01*
G04 #@! TO.N,/isolated_atlas3/DO_PGND*
G36*
X261636363Y-245794400D02*
X254535129Y-245794400D01*
X254447201Y-245662807D01*
X254062694Y-245405888D01*
X254447201Y-245148969D01*
X254711054Y-244754084D01*
X254780320Y-244405861D01*
X254780320Y-243905938D01*
X258001600Y-243905938D01*
X258001600Y-244380862D01*
X258183345Y-244819633D01*
X258519167Y-245155455D01*
X258957938Y-245337200D01*
X259432862Y-245337200D01*
X259871633Y-245155455D01*
X260207455Y-244819633D01*
X260389200Y-244380862D01*
X260389200Y-243905938D01*
X260207455Y-243467167D01*
X259871633Y-243131345D01*
X259432862Y-242949600D01*
X258957938Y-242949600D01*
X258519167Y-243131345D01*
X258183345Y-243467167D01*
X258001600Y-243905938D01*
X254780320Y-243905938D01*
X254780320Y-243865914D01*
X254711054Y-243517691D01*
X254447201Y-243122807D01*
X254052316Y-242858954D01*
X253586520Y-242766301D01*
X253120723Y-242858954D01*
X252725839Y-243122807D01*
X252461986Y-243517692D01*
X252392720Y-243865915D01*
X252392720Y-244405862D01*
X252461986Y-244754085D01*
X252725840Y-245148969D01*
X253110346Y-245405888D01*
X252725839Y-245662807D01*
X252637912Y-245794400D01*
X246650363Y-245794400D01*
X246650363Y-236396400D01*
X261636363Y-236396400D01*
X261636363Y-245794400D01*
X261636363Y-245794400D01*
G37*
X261636363Y-245794400D02*
X254535129Y-245794400D01*
X254447201Y-245662807D01*
X254062694Y-245405888D01*
X254447201Y-245148969D01*
X254711054Y-244754084D01*
X254780320Y-244405861D01*
X254780320Y-243905938D01*
X258001600Y-243905938D01*
X258001600Y-244380862D01*
X258183345Y-244819633D01*
X258519167Y-245155455D01*
X258957938Y-245337200D01*
X259432862Y-245337200D01*
X259871633Y-245155455D01*
X260207455Y-244819633D01*
X260389200Y-244380862D01*
X260389200Y-243905938D01*
X260207455Y-243467167D01*
X259871633Y-243131345D01*
X259432862Y-242949600D01*
X258957938Y-242949600D01*
X258519167Y-243131345D01*
X258183345Y-243467167D01*
X258001600Y-243905938D01*
X254780320Y-243905938D01*
X254780320Y-243865914D01*
X254711054Y-243517691D01*
X254447201Y-243122807D01*
X254052316Y-242858954D01*
X253586520Y-242766301D01*
X253120723Y-242858954D01*
X252725839Y-243122807D01*
X252461986Y-243517692D01*
X252392720Y-243865915D01*
X252392720Y-244405862D01*
X252461986Y-244754085D01*
X252725840Y-245148969D01*
X253110346Y-245405888D01*
X252725839Y-245662807D01*
X252637912Y-245794400D01*
X246650363Y-245794400D01*
X246650363Y-236396400D01*
X261636363Y-236396400D01*
X261636363Y-245794400D01*
G04 #@! TO.N,/isolated_atlas0/EC_PGND*
G36*
X252622743Y-188751270D02*
X252835991Y-188839600D01*
X253066809Y-188839600D01*
X253280057Y-188751270D01*
X253386927Y-188644400D01*
X253715873Y-188644400D01*
X253822743Y-188751270D01*
X254035991Y-188839600D01*
X254266809Y-188839600D01*
X254480057Y-188751270D01*
X254536877Y-188694450D01*
X255121353Y-188693422D01*
X254679816Y-189134959D01*
X254436200Y-189723100D01*
X254436200Y-190359700D01*
X254679816Y-190947841D01*
X255129959Y-191397984D01*
X255718100Y-191641600D01*
X256354700Y-191641600D01*
X256942841Y-191397984D01*
X257392984Y-190947841D01*
X257636600Y-190359700D01*
X257636600Y-189723100D01*
X257392984Y-189134959D01*
X256948234Y-188690209D01*
X261624400Y-188681986D01*
X261624400Y-197788400D01*
X254558435Y-197788400D01*
X254452801Y-197630307D01*
X254068294Y-197373388D01*
X254452801Y-197116469D01*
X254716654Y-196721584D01*
X254785920Y-196373361D01*
X254785920Y-195899938D01*
X257938100Y-195899938D01*
X257938100Y-196374862D01*
X258119845Y-196813633D01*
X258455667Y-197149455D01*
X258894438Y-197331200D01*
X259369362Y-197331200D01*
X259808133Y-197149455D01*
X260143955Y-196813633D01*
X260325700Y-196374862D01*
X260325700Y-195899938D01*
X260143955Y-195461167D01*
X259808133Y-195125345D01*
X259369362Y-194943600D01*
X258894438Y-194943600D01*
X258455667Y-195125345D01*
X258119845Y-195461167D01*
X257938100Y-195899938D01*
X254785920Y-195899938D01*
X254785920Y-195833414D01*
X254716654Y-195485191D01*
X254452801Y-195090307D01*
X254057916Y-194826454D01*
X253592120Y-194733801D01*
X253126323Y-194826454D01*
X252731439Y-195090307D01*
X252467586Y-195485192D01*
X252398320Y-195833415D01*
X252398320Y-196373362D01*
X252467586Y-196721585D01*
X252731440Y-197116469D01*
X253115946Y-197373388D01*
X252731439Y-197630307D01*
X252625805Y-197788400D01*
X246638400Y-197788400D01*
X246638400Y-188664600D01*
X251283586Y-188664600D01*
X251293299Y-188671090D01*
X251354795Y-188683322D01*
X251422743Y-188751270D01*
X251635991Y-188839600D01*
X251866809Y-188839600D01*
X252080057Y-188751270D01*
X252186927Y-188644400D01*
X252515873Y-188644400D01*
X252622743Y-188751270D01*
X252622743Y-188751270D01*
G37*
X252622743Y-188751270D02*
X252835991Y-188839600D01*
X253066809Y-188839600D01*
X253280057Y-188751270D01*
X253386927Y-188644400D01*
X253715873Y-188644400D01*
X253822743Y-188751270D01*
X254035991Y-188839600D01*
X254266809Y-188839600D01*
X254480057Y-188751270D01*
X254536877Y-188694450D01*
X255121353Y-188693422D01*
X254679816Y-189134959D01*
X254436200Y-189723100D01*
X254436200Y-190359700D01*
X254679816Y-190947841D01*
X255129959Y-191397984D01*
X255718100Y-191641600D01*
X256354700Y-191641600D01*
X256942841Y-191397984D01*
X257392984Y-190947841D01*
X257636600Y-190359700D01*
X257636600Y-189723100D01*
X257392984Y-189134959D01*
X256948234Y-188690209D01*
X261624400Y-188681986D01*
X261624400Y-197788400D01*
X254558435Y-197788400D01*
X254452801Y-197630307D01*
X254068294Y-197373388D01*
X254452801Y-197116469D01*
X254716654Y-196721584D01*
X254785920Y-196373361D01*
X254785920Y-195899938D01*
X257938100Y-195899938D01*
X257938100Y-196374862D01*
X258119845Y-196813633D01*
X258455667Y-197149455D01*
X258894438Y-197331200D01*
X259369362Y-197331200D01*
X259808133Y-197149455D01*
X260143955Y-196813633D01*
X260325700Y-196374862D01*
X260325700Y-195899938D01*
X260143955Y-195461167D01*
X259808133Y-195125345D01*
X259369362Y-194943600D01*
X258894438Y-194943600D01*
X258455667Y-195125345D01*
X258119845Y-195461167D01*
X257938100Y-195899938D01*
X254785920Y-195899938D01*
X254785920Y-195833414D01*
X254716654Y-195485191D01*
X254452801Y-195090307D01*
X254057916Y-194826454D01*
X253592120Y-194733801D01*
X253126323Y-194826454D01*
X252731439Y-195090307D01*
X252467586Y-195485192D01*
X252398320Y-195833415D01*
X252398320Y-196373362D01*
X252467586Y-196721585D01*
X252731440Y-197116469D01*
X253115946Y-197373388D01*
X252731439Y-197630307D01*
X252625805Y-197788400D01*
X246638400Y-197788400D01*
X246638400Y-188664600D01*
X251283586Y-188664600D01*
X251293299Y-188671090D01*
X251354795Y-188683322D01*
X251422743Y-188751270D01*
X251635991Y-188839600D01*
X251866809Y-188839600D01*
X252080057Y-188751270D01*
X252186927Y-188644400D01*
X252515873Y-188644400D01*
X252622743Y-188751270D01*
G04 #@! TO.N,/isolated_atlas4/ORP_PGND*
G36*
X261624400Y-261796400D02*
X254524772Y-261796400D01*
X254447201Y-261680307D01*
X254062694Y-261423388D01*
X254447201Y-261166469D01*
X254711054Y-260771584D01*
X254780320Y-260423361D01*
X254780320Y-259907938D01*
X258001600Y-259907938D01*
X258001600Y-260382862D01*
X258183345Y-260821633D01*
X258519167Y-261157455D01*
X258957938Y-261339200D01*
X259432862Y-261339200D01*
X259871633Y-261157455D01*
X260207455Y-260821633D01*
X260389200Y-260382862D01*
X260389200Y-259907938D01*
X260207455Y-259469167D01*
X259871633Y-259133345D01*
X259432862Y-258951600D01*
X258957938Y-258951600D01*
X258519167Y-259133345D01*
X258183345Y-259469167D01*
X258001600Y-259907938D01*
X254780320Y-259907938D01*
X254780320Y-259883414D01*
X254711054Y-259535191D01*
X254447201Y-259140307D01*
X254052316Y-258876454D01*
X253586520Y-258783801D01*
X253120723Y-258876454D01*
X252725839Y-259140307D01*
X252461986Y-259535192D01*
X252392720Y-259883415D01*
X252392720Y-260423362D01*
X252461986Y-260771585D01*
X252725840Y-261166469D01*
X253110346Y-261423388D01*
X252725839Y-261680307D01*
X252648268Y-261796400D01*
X246638400Y-261796400D01*
X246638400Y-252906400D01*
X261624400Y-252906400D01*
X261624400Y-261796400D01*
X261624400Y-261796400D01*
G37*
X261624400Y-261796400D02*
X254524772Y-261796400D01*
X254447201Y-261680307D01*
X254062694Y-261423388D01*
X254447201Y-261166469D01*
X254711054Y-260771584D01*
X254780320Y-260423361D01*
X254780320Y-259907938D01*
X258001600Y-259907938D01*
X258001600Y-260382862D01*
X258183345Y-260821633D01*
X258519167Y-261157455D01*
X258957938Y-261339200D01*
X259432862Y-261339200D01*
X259871633Y-261157455D01*
X260207455Y-260821633D01*
X260389200Y-260382862D01*
X260389200Y-259907938D01*
X260207455Y-259469167D01*
X259871633Y-259133345D01*
X259432862Y-258951600D01*
X258957938Y-258951600D01*
X258519167Y-259133345D01*
X258183345Y-259469167D01*
X258001600Y-259907938D01*
X254780320Y-259907938D01*
X254780320Y-259883414D01*
X254711054Y-259535191D01*
X254447201Y-259140307D01*
X254052316Y-258876454D01*
X253586520Y-258783801D01*
X253120723Y-258876454D01*
X252725839Y-259140307D01*
X252461986Y-259535192D01*
X252392720Y-259883415D01*
X252392720Y-260423362D01*
X252461986Y-260771585D01*
X252725840Y-261166469D01*
X253110346Y-261423388D01*
X252725839Y-261680307D01*
X252648268Y-261796400D01*
X246638400Y-261796400D01*
X246638400Y-252906400D01*
X261624400Y-252906400D01*
X261624400Y-261796400D01*
G04 #@! TO.N,/isolated_atlas2/PH_PGND*
G36*
X261597734Y-229792400D02*
X254530372Y-229792400D01*
X254452801Y-229676307D01*
X254068294Y-229419388D01*
X254452801Y-229162469D01*
X254716654Y-228767584D01*
X254785920Y-228419361D01*
X254785920Y-227899938D01*
X258001600Y-227899938D01*
X258001600Y-228374862D01*
X258183345Y-228813633D01*
X258519167Y-229149455D01*
X258957938Y-229331200D01*
X259432862Y-229331200D01*
X259871633Y-229149455D01*
X260207455Y-228813633D01*
X260389200Y-228374862D01*
X260389200Y-227899938D01*
X260207455Y-227461167D01*
X259871633Y-227125345D01*
X259432862Y-226943600D01*
X258957938Y-226943600D01*
X258519167Y-227125345D01*
X258183345Y-227461167D01*
X258001600Y-227899938D01*
X254785920Y-227899938D01*
X254785920Y-227879414D01*
X254716654Y-227531191D01*
X254452801Y-227136307D01*
X254057916Y-226872454D01*
X253592120Y-226779801D01*
X253126323Y-226872454D01*
X252731439Y-227136307D01*
X252467586Y-227531192D01*
X252398320Y-227879415D01*
X252398320Y-228419362D01*
X252467586Y-228767585D01*
X252731440Y-229162469D01*
X253115946Y-229419388D01*
X252731439Y-229676307D01*
X252653868Y-229792400D01*
X246611735Y-229792400D01*
X246638063Y-219886400D01*
X261624062Y-219886400D01*
X261597734Y-229792400D01*
X261597734Y-229792400D01*
G37*
X261597734Y-229792400D02*
X254530372Y-229792400D01*
X254452801Y-229676307D01*
X254068294Y-229419388D01*
X254452801Y-229162469D01*
X254716654Y-228767584D01*
X254785920Y-228419361D01*
X254785920Y-227899938D01*
X258001600Y-227899938D01*
X258001600Y-228374862D01*
X258183345Y-228813633D01*
X258519167Y-229149455D01*
X258957938Y-229331200D01*
X259432862Y-229331200D01*
X259871633Y-229149455D01*
X260207455Y-228813633D01*
X260389200Y-228374862D01*
X260389200Y-227899938D01*
X260207455Y-227461167D01*
X259871633Y-227125345D01*
X259432862Y-226943600D01*
X258957938Y-226943600D01*
X258519167Y-227125345D01*
X258183345Y-227461167D01*
X258001600Y-227899938D01*
X254785920Y-227899938D01*
X254785920Y-227879414D01*
X254716654Y-227531191D01*
X254452801Y-227136307D01*
X254057916Y-226872454D01*
X253592120Y-226779801D01*
X253126323Y-226872454D01*
X252731439Y-227136307D01*
X252467586Y-227531192D01*
X252398320Y-227879415D01*
X252398320Y-228419362D01*
X252467586Y-228767585D01*
X252731440Y-229162469D01*
X253115946Y-229419388D01*
X252731439Y-229676307D01*
X252653868Y-229792400D01*
X246611735Y-229792400D01*
X246638063Y-219886400D01*
X261624062Y-219886400D01*
X261597734Y-229792400D01*
G04 #@! TD*
M02*
