G04 #@! TF.GenerationSoftware,KiCad,Pcbnew,(5.0.0)*
G04 #@! TF.CreationDate,2019-01-02T11:46:48-06:00*
G04 #@! TF.ProjectId,fk-atlas-v0.11-01x02,666B2D61746C61732D76302E31312D30,0.1*
G04 #@! TF.SameCoordinates,Original*
G04 #@! TF.FileFunction,Paste,Top*
G04 #@! TF.FilePolarity,Positive*
%FSLAX46Y46*%
G04 Gerber Fmt 4.6, Leading zero omitted, Abs format (unit mm)*
G04 Created by KiCad (PCBNEW (5.0.0)) date 01/02/19 11:46:48*
%MOMM*%
%LPD*%
G01*
G04 APERTURE LIST*
%ADD10C,2.250000*%
%ADD11R,0.900000X0.990000*%
%ADD12R,0.990000X0.900000*%
%ADD13R,0.540000X1.800000*%
%ADD14C,0.990000*%
%ADD15C,0.100000*%
%ADD16R,2.250000X1.800000*%
%ADD17R,1.080000X0.720000*%
%ADD18R,1.980000X0.720000*%
%ADD19C,0.225000*%
%ADD20R,2.700000X0.540000*%
%ADD21R,1.530000X0.540000*%
%ADD22R,2.520000X0.900000*%
%ADD23R,0.540000X0.630000*%
%ADD24R,0.900000X0.630000*%
%ADD25R,0.900000X1.350000*%
%ADD26R,1.890000X0.675000*%
%ADD27R,0.945000X0.585000*%
%ADD28R,0.225000X0.360000*%
%ADD29R,0.990000X1.440000*%
%ADD30R,0.450000X0.360000*%
%ADD31R,2.250000X1.260000*%
%ADD32R,0.810000X1.350000*%
%ADD33R,0.225000X1.350000*%
%ADD34C,0.900000*%
%ADD35R,1.395000X0.540000*%
%ADD36R,1.620000X1.080000*%
%ADD37R,0.630000X1.305000*%
%ADD38R,1.350000X0.405000*%
G04 APERTURE END LIST*
D10*
G04 #@! TO.C,REF\002A\002A*
X178371400Y-274619400D03*
G04 #@! TD*
D11*
G04 #@! TO.C,R27*
X216285400Y-265313400D03*
X216285400Y-263613400D03*
G04 #@! TD*
G04 #@! TO.C,R26*
X214634400Y-263652400D03*
X214634400Y-265352400D03*
G04 #@! TD*
G04 #@! TO.C,R24*
X214761400Y-231863400D03*
X214761400Y-233563400D03*
G04 #@! TD*
G04 #@! TO.C,R22*
X214761400Y-217180400D03*
X214761400Y-215480400D03*
G04 #@! TD*
G04 #@! TO.C,R20*
X216539400Y-200797400D03*
X216539400Y-199097400D03*
G04 #@! TD*
G04 #@! TO.C,R19*
X214761400Y-248930400D03*
X214761400Y-247230400D03*
G04 #@! TD*
G04 #@! TO.C,R18*
X216412400Y-247230400D03*
X216412400Y-248930400D03*
G04 #@! TD*
D12*
G04 #@! TO.C,C25*
X189527400Y-224585400D03*
X191227400Y-224585400D03*
G04 #@! TD*
G04 #@! TO.C,R13*
X205959400Y-254049400D03*
X204259400Y-254049400D03*
G04 #@! TD*
D13*
G04 #@! TO.C,U4*
X211840400Y-246523400D03*
X210570400Y-246523400D03*
X209300400Y-246523400D03*
X208030400Y-246523400D03*
X208030400Y-251923400D03*
X209300400Y-251923400D03*
X210570400Y-251923400D03*
X211840400Y-251923400D03*
G04 #@! TD*
D12*
G04 #@! TO.C,R6*
X204259400Y-246048400D03*
X205959400Y-246048400D03*
G04 #@! TD*
G04 #@! TO.C,C21*
X204259400Y-252271400D03*
X205959400Y-252271400D03*
G04 #@! TD*
D14*
G04 #@! TO.C,Y1*
X201108900Y-218171900D03*
D15*
G36*
X200154306Y-218426458D02*
X201363458Y-217217306D01*
X202063494Y-217917342D01*
X200854342Y-219126494D01*
X200154306Y-218426458D01*
X200154306Y-218426458D01*
G37*
D14*
X199341134Y-216404134D03*
D15*
G36*
X198386540Y-216658692D02*
X199595692Y-215449540D01*
X200295728Y-216149576D01*
X199086576Y-217358728D01*
X198386540Y-216658692D01*
X198386540Y-216658692D01*
G37*
G04 #@! TD*
D12*
G04 #@! TO.C,R603*
X231945400Y-257224400D03*
X233645400Y-257224400D03*
G04 #@! TD*
G04 #@! TO.C,R503*
X232072400Y-241222400D03*
X233772400Y-241222400D03*
G04 #@! TD*
G04 #@! TO.C,R304*
X231867400Y-211123400D03*
X230167400Y-211123400D03*
G04 #@! TD*
D11*
G04 #@! TO.C,R301*
X228477400Y-212901400D03*
X228477400Y-211201400D03*
G04 #@! TD*
D12*
G04 #@! TO.C,R202*
X230089400Y-193597400D03*
X228389400Y-193597400D03*
G04 #@! TD*
G04 #@! TO.C,R403*
X231945400Y-225601400D03*
X233645400Y-225601400D03*
G04 #@! TD*
G04 #@! TO.C,R302*
X230216400Y-209472400D03*
X228516400Y-209472400D03*
G04 #@! TD*
G04 #@! TO.C,R11*
X209745800Y-237412400D03*
X211445800Y-237412400D03*
G04 #@! TD*
D16*
G04 #@! TO.C,U3*
X208495400Y-202233400D03*
D17*
X205645400Y-203733400D03*
D18*
X206145400Y-202233400D03*
D17*
X205645400Y-200733400D03*
G04 #@! TD*
D19*
G04 #@! TO.C,U2*
X202113271Y-220136442D03*
D15*
G36*
X201779163Y-220629649D02*
X201620064Y-220470550D01*
X202447379Y-219643235D01*
X202606478Y-219802334D01*
X201779163Y-220629649D01*
X201779163Y-220629649D01*
G37*
D19*
X202466824Y-220489995D03*
D15*
G36*
X202132716Y-220983202D02*
X201973617Y-220824103D01*
X202800932Y-219996788D01*
X202960031Y-220155887D01*
X202132716Y-220983202D01*
X202132716Y-220983202D01*
G37*
D19*
X202820378Y-220843549D03*
D15*
G36*
X202486270Y-221336756D02*
X202327171Y-221177657D01*
X203154486Y-220350342D01*
X203313585Y-220509441D01*
X202486270Y-221336756D01*
X202486270Y-221336756D01*
G37*
D19*
X203173931Y-221197102D03*
D15*
G36*
X202839823Y-221690309D02*
X202680724Y-221531210D01*
X203508039Y-220703895D01*
X203667138Y-220862994D01*
X202839823Y-221690309D01*
X202839823Y-221690309D01*
G37*
D19*
X203527484Y-221550655D03*
D15*
G36*
X203193376Y-222043862D02*
X203034277Y-221884763D01*
X203861592Y-221057448D01*
X204020691Y-221216547D01*
X203193376Y-222043862D01*
X203193376Y-222043862D01*
G37*
D19*
X203881038Y-221904209D03*
D15*
G36*
X203546930Y-222397416D02*
X203387831Y-222238317D01*
X204215146Y-221411002D01*
X204374245Y-221570101D01*
X203546930Y-222397416D01*
X203546930Y-222397416D01*
G37*
D19*
X204234591Y-222257762D03*
D15*
G36*
X203900483Y-222750969D02*
X203741384Y-222591870D01*
X204568699Y-221764555D01*
X204727798Y-221923654D01*
X203900483Y-222750969D01*
X203900483Y-222750969D01*
G37*
D19*
X204588145Y-222611316D03*
D15*
G36*
X204254037Y-223104523D02*
X204094938Y-222945424D01*
X204922253Y-222118109D01*
X205081352Y-222277208D01*
X204254037Y-223104523D01*
X204254037Y-223104523D01*
G37*
D19*
X204941698Y-222964869D03*
D15*
G36*
X204607590Y-223458076D02*
X204448491Y-223298977D01*
X205275806Y-222471662D01*
X205434905Y-222630761D01*
X204607590Y-223458076D01*
X204607590Y-223458076D01*
G37*
D19*
X205295251Y-223318422D03*
D15*
G36*
X204961143Y-223811629D02*
X204802044Y-223652530D01*
X205629359Y-222825215D01*
X205788458Y-222984314D01*
X204961143Y-223811629D01*
X204961143Y-223811629D01*
G37*
D19*
X205648805Y-223671976D03*
D15*
G36*
X205314697Y-224165183D02*
X205155598Y-224006084D01*
X205982913Y-223178769D01*
X206142012Y-223337868D01*
X205314697Y-224165183D01*
X205314697Y-224165183D01*
G37*
D19*
X206002358Y-224025529D03*
D15*
G36*
X205668250Y-224518736D02*
X205509151Y-224359637D01*
X206336466Y-223532322D01*
X206495565Y-223691421D01*
X205668250Y-224518736D01*
X205668250Y-224518736D01*
G37*
D19*
X206002358Y-226288271D03*
D15*
G36*
X205509151Y-225954163D02*
X205668250Y-225795064D01*
X206495565Y-226622379D01*
X206336466Y-226781478D01*
X205509151Y-225954163D01*
X205509151Y-225954163D01*
G37*
D19*
X205648805Y-226641824D03*
D15*
G36*
X205155598Y-226307716D02*
X205314697Y-226148617D01*
X206142012Y-226975932D01*
X205982913Y-227135031D01*
X205155598Y-226307716D01*
X205155598Y-226307716D01*
G37*
D19*
X205295251Y-226995378D03*
D15*
G36*
X204802044Y-226661270D02*
X204961143Y-226502171D01*
X205788458Y-227329486D01*
X205629359Y-227488585D01*
X204802044Y-226661270D01*
X204802044Y-226661270D01*
G37*
D19*
X204941698Y-227348931D03*
D15*
G36*
X204448491Y-227014823D02*
X204607590Y-226855724D01*
X205434905Y-227683039D01*
X205275806Y-227842138D01*
X204448491Y-227014823D01*
X204448491Y-227014823D01*
G37*
D19*
X204588145Y-227702484D03*
D15*
G36*
X204094938Y-227368376D02*
X204254037Y-227209277D01*
X205081352Y-228036592D01*
X204922253Y-228195691D01*
X204094938Y-227368376D01*
X204094938Y-227368376D01*
G37*
D19*
X204234591Y-228056038D03*
D15*
G36*
X203741384Y-227721930D02*
X203900483Y-227562831D01*
X204727798Y-228390146D01*
X204568699Y-228549245D01*
X203741384Y-227721930D01*
X203741384Y-227721930D01*
G37*
D19*
X203881038Y-228409591D03*
D15*
G36*
X203387831Y-228075483D02*
X203546930Y-227916384D01*
X204374245Y-228743699D01*
X204215146Y-228902798D01*
X203387831Y-228075483D01*
X203387831Y-228075483D01*
G37*
D19*
X203527484Y-228763145D03*
D15*
G36*
X203034277Y-228429037D02*
X203193376Y-228269938D01*
X204020691Y-229097253D01*
X203861592Y-229256352D01*
X203034277Y-228429037D01*
X203034277Y-228429037D01*
G37*
D19*
X203173931Y-229116698D03*
D15*
G36*
X202680724Y-228782590D02*
X202839823Y-228623491D01*
X203667138Y-229450806D01*
X203508039Y-229609905D01*
X202680724Y-228782590D01*
X202680724Y-228782590D01*
G37*
D19*
X202820378Y-229470251D03*
D15*
G36*
X202327171Y-229136143D02*
X202486270Y-228977044D01*
X203313585Y-229804359D01*
X203154486Y-229963458D01*
X202327171Y-229136143D01*
X202327171Y-229136143D01*
G37*
D19*
X202466824Y-229823805D03*
D15*
G36*
X201973617Y-229489697D02*
X202132716Y-229330598D01*
X202960031Y-230157913D01*
X202800932Y-230317012D01*
X201973617Y-229489697D01*
X201973617Y-229489697D01*
G37*
D19*
X202113271Y-230177358D03*
D15*
G36*
X201620064Y-229843250D02*
X201779163Y-229684151D01*
X202606478Y-230511466D01*
X202447379Y-230670565D01*
X201620064Y-229843250D01*
X201620064Y-229843250D01*
G37*
D19*
X199850529Y-230177358D03*
D15*
G36*
X199516421Y-230670565D02*
X199357322Y-230511466D01*
X200184637Y-229684151D01*
X200343736Y-229843250D01*
X199516421Y-230670565D01*
X199516421Y-230670565D01*
G37*
D19*
X199496976Y-229823805D03*
D15*
G36*
X199162868Y-230317012D02*
X199003769Y-230157913D01*
X199831084Y-229330598D01*
X199990183Y-229489697D01*
X199162868Y-230317012D01*
X199162868Y-230317012D01*
G37*
D19*
X199143422Y-229470251D03*
D15*
G36*
X198809314Y-229963458D02*
X198650215Y-229804359D01*
X199477530Y-228977044D01*
X199636629Y-229136143D01*
X198809314Y-229963458D01*
X198809314Y-229963458D01*
G37*
D19*
X198789869Y-229116698D03*
D15*
G36*
X198455761Y-229609905D02*
X198296662Y-229450806D01*
X199123977Y-228623491D01*
X199283076Y-228782590D01*
X198455761Y-229609905D01*
X198455761Y-229609905D01*
G37*
D19*
X198436316Y-228763145D03*
D15*
G36*
X198102208Y-229256352D02*
X197943109Y-229097253D01*
X198770424Y-228269938D01*
X198929523Y-228429037D01*
X198102208Y-229256352D01*
X198102208Y-229256352D01*
G37*
D19*
X198082762Y-228409591D03*
D15*
G36*
X197748654Y-228902798D02*
X197589555Y-228743699D01*
X198416870Y-227916384D01*
X198575969Y-228075483D01*
X197748654Y-228902798D01*
X197748654Y-228902798D01*
G37*
D19*
X197729209Y-228056038D03*
D15*
G36*
X197395101Y-228549245D02*
X197236002Y-228390146D01*
X198063317Y-227562831D01*
X198222416Y-227721930D01*
X197395101Y-228549245D01*
X197395101Y-228549245D01*
G37*
D19*
X197375655Y-227702484D03*
D15*
G36*
X197041547Y-228195691D02*
X196882448Y-228036592D01*
X197709763Y-227209277D01*
X197868862Y-227368376D01*
X197041547Y-228195691D01*
X197041547Y-228195691D01*
G37*
D19*
X197022102Y-227348931D03*
D15*
G36*
X196687994Y-227842138D02*
X196528895Y-227683039D01*
X197356210Y-226855724D01*
X197515309Y-227014823D01*
X196687994Y-227842138D01*
X196687994Y-227842138D01*
G37*
D19*
X196668549Y-226995378D03*
D15*
G36*
X196334441Y-227488585D02*
X196175342Y-227329486D01*
X197002657Y-226502171D01*
X197161756Y-226661270D01*
X196334441Y-227488585D01*
X196334441Y-227488585D01*
G37*
D19*
X196314995Y-226641824D03*
D15*
G36*
X195980887Y-227135031D02*
X195821788Y-226975932D01*
X196649103Y-226148617D01*
X196808202Y-226307716D01*
X195980887Y-227135031D01*
X195980887Y-227135031D01*
G37*
D19*
X195961442Y-226288271D03*
D15*
G36*
X195627334Y-226781478D02*
X195468235Y-226622379D01*
X196295550Y-225795064D01*
X196454649Y-225954163D01*
X195627334Y-226781478D01*
X195627334Y-226781478D01*
G37*
D19*
X195961442Y-224025529D03*
D15*
G36*
X195468235Y-223691421D02*
X195627334Y-223532322D01*
X196454649Y-224359637D01*
X196295550Y-224518736D01*
X195468235Y-223691421D01*
X195468235Y-223691421D01*
G37*
D19*
X196314995Y-223671976D03*
D15*
G36*
X195821788Y-223337868D02*
X195980887Y-223178769D01*
X196808202Y-224006084D01*
X196649103Y-224165183D01*
X195821788Y-223337868D01*
X195821788Y-223337868D01*
G37*
D19*
X196668549Y-223318422D03*
D15*
G36*
X196175342Y-222984314D02*
X196334441Y-222825215D01*
X197161756Y-223652530D01*
X197002657Y-223811629D01*
X196175342Y-222984314D01*
X196175342Y-222984314D01*
G37*
D19*
X197022102Y-222964869D03*
D15*
G36*
X196528895Y-222630761D02*
X196687994Y-222471662D01*
X197515309Y-223298977D01*
X197356210Y-223458076D01*
X196528895Y-222630761D01*
X196528895Y-222630761D01*
G37*
D19*
X197375655Y-222611316D03*
D15*
G36*
X196882448Y-222277208D02*
X197041547Y-222118109D01*
X197868862Y-222945424D01*
X197709763Y-223104523D01*
X196882448Y-222277208D01*
X196882448Y-222277208D01*
G37*
D19*
X197729209Y-222257762D03*
D15*
G36*
X197236002Y-221923654D02*
X197395101Y-221764555D01*
X198222416Y-222591870D01*
X198063317Y-222750969D01*
X197236002Y-221923654D01*
X197236002Y-221923654D01*
G37*
D19*
X198082762Y-221904209D03*
D15*
G36*
X197589555Y-221570101D02*
X197748654Y-221411002D01*
X198575969Y-222238317D01*
X198416870Y-222397416D01*
X197589555Y-221570101D01*
X197589555Y-221570101D01*
G37*
D19*
X198436316Y-221550655D03*
D15*
G36*
X197943109Y-221216547D02*
X198102208Y-221057448D01*
X198929523Y-221884763D01*
X198770424Y-222043862D01*
X197943109Y-221216547D01*
X197943109Y-221216547D01*
G37*
D19*
X198789869Y-221197102D03*
D15*
G36*
X198296662Y-220862994D02*
X198455761Y-220703895D01*
X199283076Y-221531210D01*
X199123977Y-221690309D01*
X198296662Y-220862994D01*
X198296662Y-220862994D01*
G37*
D19*
X199143422Y-220843549D03*
D15*
G36*
X198650215Y-220509441D02*
X198809314Y-220350342D01*
X199636629Y-221177657D01*
X199477530Y-221336756D01*
X198650215Y-220509441D01*
X198650215Y-220509441D01*
G37*
D19*
X199496976Y-220489995D03*
D15*
G36*
X199003769Y-220155887D02*
X199162868Y-219996788D01*
X199990183Y-220824103D01*
X199831084Y-220983202D01*
X199003769Y-220155887D01*
X199003769Y-220155887D01*
G37*
D19*
X199850529Y-220136442D03*
D15*
G36*
X199357322Y-219802334D02*
X199516421Y-219643235D01*
X200343736Y-220470550D01*
X200184637Y-220629649D01*
X199357322Y-219802334D01*
X199357322Y-219802334D01*
G37*
G04 #@! TD*
D12*
G04 #@! TO.C,R605*
X231945400Y-260653400D03*
X233645400Y-260653400D03*
G04 #@! TD*
G04 #@! TO.C,R303*
X231945400Y-209472400D03*
X233645400Y-209472400D03*
G04 #@! TD*
G04 #@! TO.C,R205*
X231945400Y-197026400D03*
X233645400Y-197026400D03*
G04 #@! TD*
D11*
G04 #@! TO.C,R401*
X228350400Y-229118400D03*
X228350400Y-227418400D03*
G04 #@! TD*
D12*
G04 #@! TO.C,R505*
X231945400Y-244651400D03*
X233645400Y-244651400D03*
G04 #@! TD*
G04 #@! TO.C,R502*
X230216400Y-241222400D03*
X228516400Y-241222400D03*
G04 #@! TD*
D11*
G04 #@! TO.C,R601*
X228350400Y-260741400D03*
X228350400Y-259041400D03*
G04 #@! TD*
G04 #@! TO.C,R12*
X205744400Y-257947400D03*
X205744400Y-256247400D03*
G04 #@! TD*
D20*
G04 #@! TO.C,U1*
X200854500Y-237920400D03*
X200854500Y-236650400D03*
X200854500Y-235380400D03*
X200854500Y-234110400D03*
X194454500Y-234110400D03*
X194454500Y-235380400D03*
X194454500Y-236650400D03*
X194454500Y-237920400D03*
G04 #@! TD*
D12*
G04 #@! TO.C,R305*
X232072400Y-213282400D03*
X233772400Y-213282400D03*
G04 #@! TD*
D11*
G04 #@! TO.C,R25*
X216412400Y-233563400D03*
X216412400Y-231863400D03*
G04 #@! TD*
G04 #@! TO.C,R23*
X216412400Y-215480400D03*
X216412400Y-217180400D03*
G04 #@! TD*
G04 #@! TO.C,R21*
X215015400Y-199097400D03*
X215015400Y-200797400D03*
G04 #@! TD*
D12*
G04 #@! TO.C,R404*
X231867400Y-227379400D03*
X230167400Y-227379400D03*
G04 #@! TD*
D21*
G04 #@! TO.C,J7*
X199083800Y-250447300D03*
X199083800Y-249197300D03*
X199083800Y-247947300D03*
X199083800Y-246697300D03*
X199083800Y-245447300D03*
D22*
X195733800Y-252297300D03*
X195733800Y-243597300D03*
G04 #@! TD*
D12*
G04 #@! TO.C,R402*
X230089400Y-225728400D03*
X228389400Y-225728400D03*
G04 #@! TD*
G04 #@! TO.C,R504*
X231994400Y-242873400D03*
X230294400Y-242873400D03*
G04 #@! TD*
G04 #@! TO.C,R602*
X230089400Y-257224400D03*
X228389400Y-257224400D03*
G04 #@! TD*
D11*
G04 #@! TO.C,R501*
X228604400Y-244612400D03*
X228604400Y-242912400D03*
G04 #@! TD*
D12*
G04 #@! TO.C,R405*
X231945400Y-228903400D03*
X233645400Y-228903400D03*
G04 #@! TD*
D11*
G04 #@! TO.C,R7*
X207649400Y-254215400D03*
X207649400Y-255915400D03*
G04 #@! TD*
D12*
G04 #@! TO.C,R3*
X209451900Y-240396900D03*
X207751900Y-240396900D03*
G04 #@! TD*
G04 #@! TO.C,C20*
X205959400Y-250493400D03*
X204259400Y-250493400D03*
G04 #@! TD*
G04 #@! TO.C,R604*
X231867400Y-259002400D03*
X230167400Y-259002400D03*
G04 #@! TD*
G04 #@! TO.C,R203*
X231945400Y-193597400D03*
X233645400Y-193597400D03*
G04 #@! TD*
D11*
G04 #@! TO.C,R201*
X228350400Y-197114400D03*
X228350400Y-195414400D03*
G04 #@! TD*
G04 #@! TO.C,R4*
X209319869Y-233633703D03*
X209319869Y-231933703D03*
G04 #@! TD*
D12*
G04 #@! TO.C,R2*
X185708994Y-215314400D03*
X187408994Y-215314400D03*
G04 #@! TD*
G04 #@! TO.C,R1*
X185708994Y-217092400D03*
X187408994Y-217092400D03*
G04 #@! TD*
D23*
G04 #@! TO.C,D5*
X194126400Y-197042400D03*
X196026400Y-197042400D03*
X196026400Y-199042400D03*
D24*
X194326400Y-199042400D03*
G04 #@! TD*
D12*
G04 #@! TO.C,C602*
X218208900Y-266487400D03*
X219908900Y-266487400D03*
G04 #@! TD*
G04 #@! TO.C,L2*
X200791400Y-194867400D03*
X202491400Y-194867400D03*
G04 #@! TD*
D11*
G04 #@! TO.C,L1*
X191190200Y-216572600D03*
X191190200Y-218272600D03*
G04 #@! TD*
D25*
G04 #@! TO.C,F1*
X196897400Y-194867400D03*
X199097400Y-194867400D03*
G04 #@! TD*
D12*
G04 #@! TO.C,C604*
X224664000Y-254252600D03*
X222964000Y-254252600D03*
G04 #@! TD*
D26*
G04 #@! TO.C,J1*
X190653400Y-206297400D03*
X187053400Y-206297400D03*
X190653400Y-207567400D03*
X187053400Y-207567400D03*
X190653400Y-208837400D03*
X187053400Y-208837400D03*
X190653400Y-210107400D03*
X187053400Y-210107400D03*
X190653400Y-211377400D03*
X187053400Y-211377400D03*
G04 #@! TD*
D11*
G04 #@! TO.C,C605*
X217174400Y-254850400D03*
X217174400Y-256550400D03*
G04 #@! TD*
G04 #@! TO.C,C505*
X217174400Y-238848400D03*
X217174400Y-240548400D03*
G04 #@! TD*
D12*
G04 #@! TO.C,C601*
X222610900Y-266487400D03*
X224310900Y-266487400D03*
G04 #@! TD*
D27*
G04 #@! TO.C,Q4*
X207639859Y-236652793D03*
X205339859Y-237602793D03*
X205339859Y-235702793D03*
G04 #@! TD*
D11*
G04 #@! TO.C,C606*
X255909400Y-262597400D03*
X255909400Y-264297400D03*
G04 #@! TD*
G04 #@! TO.C,C506*
X256036400Y-246722400D03*
X256036400Y-248422400D03*
G04 #@! TD*
D12*
G04 #@! TO.C,C603*
X219057400Y-254252600D03*
X220757400Y-254252600D03*
G04 #@! TD*
G04 #@! TO.C,D4*
X211445800Y-235761400D03*
X209745800Y-235761400D03*
G04 #@! TD*
D11*
G04 #@! TO.C,R10*
X190252509Y-189336821D03*
X190252509Y-191036821D03*
G04 #@! TD*
D12*
G04 #@! TO.C,R9*
X209735048Y-223156698D03*
X211435048Y-223156698D03*
G04 #@! TD*
G04 #@! TO.C,R8*
X209735048Y-224839400D03*
X211435048Y-224839400D03*
G04 #@! TD*
D28*
G04 #@! TO.C,D6*
X206288400Y-192581400D03*
D29*
X205613400Y-192581400D03*
D30*
X204563400Y-193231400D03*
X204563400Y-191931400D03*
G04 #@! TD*
D12*
G04 #@! TO.C,C504*
X224374400Y-238301400D03*
X222674400Y-238301400D03*
G04 #@! TD*
D11*
G04 #@! TO.C,R5*
X210973683Y-231933703D03*
X210973683Y-233633703D03*
G04 #@! TD*
D12*
G04 #@! TO.C,C503*
X219245400Y-238301400D03*
X220945400Y-238301400D03*
G04 #@! TD*
G04 #@! TO.C,C402*
X218864400Y-233856400D03*
X220564400Y-233856400D03*
G04 #@! TD*
D11*
G04 #@! TO.C,C405*
X217047400Y-222719400D03*
X217047400Y-224419400D03*
G04 #@! TD*
G04 #@! TO.C,C406*
X256163400Y-230847400D03*
X256163400Y-232547400D03*
G04 #@! TD*
D12*
G04 #@! TO.C,C302*
X218864400Y-217600400D03*
X220564400Y-217600400D03*
G04 #@! TD*
G04 #@! TO.C,C8*
X193134200Y-228446200D03*
X194834200Y-228446200D03*
G04 #@! TD*
G04 #@! TO.C,C502*
X218864400Y-249731400D03*
X220564400Y-249731400D03*
G04 #@! TD*
D11*
G04 #@! TO.C,C5*
X205236400Y-217324400D03*
X205236400Y-219024400D03*
G04 #@! TD*
D12*
G04 #@! TO.C,C203*
X219032000Y-190320800D03*
X220732000Y-190320800D03*
G04 #@! TD*
D11*
G04 #@! TO.C,C16*
X203572700Y-234162100D03*
X203572700Y-235862100D03*
G04 #@! TD*
G04 #@! TO.C,C7*
X192968200Y-216572600D03*
X192968200Y-218272600D03*
G04 #@! TD*
G04 #@! TO.C,C10*
X203077400Y-198257400D03*
X203077400Y-196557400D03*
G04 #@! TD*
D12*
G04 #@! TO.C,C501*
X222508400Y-249731400D03*
X224208400Y-249731400D03*
G04 #@! TD*
D11*
G04 #@! TO.C,C205*
X216869600Y-190624000D03*
X216869600Y-192324000D03*
G04 #@! TD*
D12*
G04 #@! TO.C,C14*
X205681800Y-196759700D03*
X207381800Y-196759700D03*
G04 #@! TD*
G04 #@! TO.C,C404*
X224335400Y-222553400D03*
X222635400Y-222553400D03*
G04 #@! TD*
D11*
G04 #@! TO.C,C206*
X256163400Y-198843400D03*
X256163400Y-200543400D03*
G04 #@! TD*
G04 #@! TO.C,C18*
X212094400Y-255915400D03*
X212094400Y-254215400D03*
G04 #@! TD*
D12*
G04 #@! TO.C,C12*
X205681800Y-198436100D03*
X207381800Y-198436100D03*
G04 #@! TD*
D11*
G04 #@! TO.C,C6*
X206887400Y-217324400D03*
X206887400Y-219024400D03*
G04 #@! TD*
D12*
G04 #@! TO.C,C401*
X222381400Y-233856400D03*
X224081400Y-233856400D03*
G04 #@! TD*
D11*
G04 #@! TO.C,C15*
X203077400Y-201979400D03*
X203077400Y-203679400D03*
G04 #@! TD*
D12*
G04 #@! TO.C,C202*
X218737400Y-202233400D03*
X220437400Y-202233400D03*
G04 #@! TD*
D11*
G04 #@! TO.C,C13*
X191979709Y-189336821D03*
X191979709Y-191036821D03*
G04 #@! TD*
G04 #@! TO.C,C306*
X256163400Y-215353400D03*
X256163400Y-217053400D03*
G04 #@! TD*
D12*
G04 #@! TO.C,C403*
X219067600Y-222553400D03*
X220767600Y-222553400D03*
G04 #@! TD*
G04 #@! TO.C,C201*
X222381400Y-202233400D03*
X224081400Y-202233400D03*
G04 #@! TD*
D11*
G04 #@! TO.C,C305*
X217047400Y-206971400D03*
X217047400Y-208671400D03*
G04 #@! TD*
D12*
G04 #@! TO.C,C303*
X219006600Y-206068800D03*
X220706600Y-206068800D03*
G04 #@! TD*
G04 #@! TO.C,C301*
X222586400Y-217600400D03*
X224286400Y-217600400D03*
G04 #@! TD*
D11*
G04 #@! TO.C,C17*
X209236900Y-242213900D03*
X209236900Y-243913900D03*
G04 #@! TD*
D12*
G04 #@! TO.C,C11*
X207379300Y-195172200D03*
X205679300Y-195172200D03*
G04 #@! TD*
G04 #@! TO.C,C9*
X209515400Y-227506400D03*
X207815400Y-227506400D03*
G04 #@! TD*
G04 #@! TO.C,C304*
X224679200Y-206068800D03*
X222979200Y-206068800D03*
G04 #@! TD*
G04 #@! TO.C,C204*
X224653800Y-190320800D03*
X222953800Y-190320800D03*
G04 #@! TD*
D11*
G04 #@! TO.C,C19*
X209173400Y-255915400D03*
X209173400Y-254215400D03*
G04 #@! TD*
G04 #@! TO.C,C2*
X196498800Y-216979000D03*
X196498800Y-218679000D03*
G04 #@! TD*
D31*
G04 #@! TO.C,U502*
X250733400Y-248741900D03*
X250733400Y-246441900D03*
X250733400Y-244141900D03*
X250733400Y-241841900D03*
X250733400Y-239541900D03*
X238733400Y-239541900D03*
X238733400Y-241841900D03*
X238733400Y-244141900D03*
X238733400Y-246441900D03*
X238733400Y-248741900D03*
G04 #@! TD*
D11*
G04 #@! TO.C,C22*
X201299400Y-249008400D03*
X201299400Y-250708400D03*
G04 #@! TD*
D21*
G04 #@! TO.C,J5*
X190676400Y-250453400D03*
X190676400Y-249203400D03*
X190676400Y-247953400D03*
X190676400Y-246703400D03*
X190676400Y-245453400D03*
D22*
X187326400Y-252303400D03*
X187326400Y-243603400D03*
G04 #@! TD*
D11*
G04 #@! TO.C,R14*
X210570400Y-254215400D03*
X210570400Y-255915400D03*
G04 #@! TD*
D32*
G04 #@! TO.C,U5*
X185552400Y-227977400D03*
X188852400Y-227977400D03*
X188852400Y-232877400D03*
X185552400Y-232877400D03*
G04 #@! TD*
D12*
G04 #@! TO.C,R15*
X204513400Y-262748900D03*
X206213400Y-262748900D03*
G04 #@! TD*
G04 #@! TO.C,C24*
X193337400Y-263066400D03*
X195037400Y-263066400D03*
G04 #@! TD*
D11*
G04 #@! TO.C,C23*
X202823400Y-250708400D03*
X202823400Y-249008400D03*
G04 #@! TD*
D33*
G04 #@! TO.C,U401*
X218617600Y-224624400D03*
X219267600Y-224624400D03*
X219917600Y-224624400D03*
X220567600Y-224624400D03*
X221217600Y-224624400D03*
X221867600Y-224624400D03*
X222517600Y-224624400D03*
X223167600Y-224624400D03*
X223817600Y-224624400D03*
X224467600Y-224624400D03*
X224467600Y-231824400D03*
X223817600Y-231824400D03*
X223167600Y-231824400D03*
X222517600Y-231824400D03*
X221867600Y-231824400D03*
X221217600Y-231824400D03*
X220567600Y-231824400D03*
X219917600Y-231824400D03*
X219267600Y-231824400D03*
X218617600Y-231824400D03*
G04 #@! TD*
D31*
G04 #@! TO.C,U602*
X250733400Y-264759400D03*
X250733400Y-262459400D03*
X250733400Y-260159400D03*
X250733400Y-257859400D03*
X250733400Y-255559400D03*
X238733400Y-255559400D03*
X238733400Y-257859400D03*
X238733400Y-260159400D03*
X238733400Y-262459400D03*
X238733400Y-264759400D03*
G04 #@! TD*
G04 #@! TO.C,U202*
X250739000Y-200709400D03*
X250739000Y-198409400D03*
X250739000Y-196109400D03*
X250739000Y-193809400D03*
X250739000Y-191509400D03*
X238739000Y-191509400D03*
X238739000Y-193809400D03*
X238739000Y-196109400D03*
X238739000Y-198409400D03*
X238739000Y-200709400D03*
G04 #@! TD*
D34*
G04 #@! TO.C,C4*
X202730359Y-216550441D03*
D15*
G36*
X202762179Y-215882225D02*
X203398575Y-216518621D01*
X202698539Y-217218657D01*
X202062143Y-216582261D01*
X202762179Y-215882225D01*
X202762179Y-215882225D01*
G37*
D34*
X203932441Y-215348359D03*
D15*
G36*
X203964261Y-214680143D02*
X204600657Y-215316539D01*
X203900621Y-216016575D01*
X203264225Y-215380179D01*
X203964261Y-214680143D01*
X203964261Y-214680143D01*
G37*
G04 #@! TD*
D34*
G04 #@! TO.C,C3*
X200952359Y-214772441D03*
D15*
G36*
X200984179Y-214104225D02*
X201620575Y-214740621D01*
X200920539Y-215440657D01*
X200284143Y-214804261D01*
X200984179Y-214104225D01*
X200984179Y-214104225D01*
G37*
D34*
X202154441Y-213570359D03*
D15*
G36*
X202186261Y-212902143D02*
X202822657Y-213538539D01*
X202122621Y-214238575D01*
X201486225Y-213602179D01*
X202186261Y-212902143D01*
X202186261Y-212902143D01*
G37*
G04 #@! TD*
D11*
G04 #@! TO.C,C1*
X194720800Y-216979000D03*
X194720800Y-218679000D03*
G04 #@! TD*
D35*
G04 #@! TO.C,J10*
X196655400Y-259613400D03*
X196655400Y-258613400D03*
X196655400Y-257613400D03*
X196655400Y-256613400D03*
D36*
X194130400Y-255063400D03*
X194130400Y-261163400D03*
G04 #@! TD*
D12*
G04 #@! TO.C,R16*
X206213400Y-261161400D03*
X204513400Y-261161400D03*
G04 #@! TD*
D21*
G04 #@! TO.C,J4*
X190676400Y-239551400D03*
X190676400Y-238301400D03*
X190676400Y-237051400D03*
D22*
X187326400Y-241401400D03*
X187326400Y-235201400D03*
G04 #@! TD*
D33*
G04 #@! TO.C,U601*
X218613000Y-256767200D03*
X219263000Y-256767200D03*
X219913000Y-256767200D03*
X220563000Y-256767200D03*
X221213000Y-256767200D03*
X221863000Y-256767200D03*
X222513000Y-256767200D03*
X223163000Y-256767200D03*
X223813000Y-256767200D03*
X224463000Y-256767200D03*
X224463000Y-263967200D03*
X223813000Y-263967200D03*
X223163000Y-263967200D03*
X222513000Y-263967200D03*
X221863000Y-263967200D03*
X221213000Y-263967200D03*
X220563000Y-263967200D03*
X219913000Y-263967200D03*
X219263000Y-263967200D03*
X218613000Y-263967200D03*
G04 #@! TD*
D21*
G04 #@! TO.C,J6*
X190676400Y-260115400D03*
X190676400Y-258865400D03*
X190676400Y-257615400D03*
X190676400Y-256365400D03*
D22*
X187326400Y-261965400D03*
X187326400Y-254515400D03*
G04 #@! TD*
D12*
G04 #@! TO.C,R204*
X231867400Y-195375400D03*
X230167400Y-195375400D03*
G04 #@! TD*
G04 #@! TO.C,R17*
X203077400Y-200074400D03*
X201377400Y-200074400D03*
G04 #@! TD*
D31*
G04 #@! TO.C,U402*
X250739000Y-232755400D03*
X250739000Y-230455400D03*
X250739000Y-228155400D03*
X250739000Y-225855400D03*
X250739000Y-223555400D03*
X238739000Y-223555400D03*
X238739000Y-225855400D03*
X238739000Y-228155400D03*
X238739000Y-230455400D03*
X238739000Y-232755400D03*
G04 #@! TD*
D33*
G04 #@! TO.C,U301*
X218623400Y-208673200D03*
X219273400Y-208673200D03*
X219923400Y-208673200D03*
X220573400Y-208673200D03*
X221223400Y-208673200D03*
X221873400Y-208673200D03*
X222523400Y-208673200D03*
X223173400Y-208673200D03*
X223823400Y-208673200D03*
X224473400Y-208673200D03*
X224473400Y-215873200D03*
X223823400Y-215873200D03*
X223173400Y-215873200D03*
X222523400Y-215873200D03*
X221873400Y-215873200D03*
X221223400Y-215873200D03*
X220573400Y-215873200D03*
X219923400Y-215873200D03*
X219273400Y-215873200D03*
X218623400Y-215873200D03*
G04 #@! TD*
D37*
G04 #@! TO.C,SW1*
X187694400Y-219211400D03*
X187694400Y-224371400D03*
X185694400Y-224371400D03*
X185694400Y-219211400D03*
G04 #@! TD*
D31*
G04 #@! TO.C,U302*
X238510400Y-205761400D03*
X250510400Y-205761400D03*
X238510400Y-217261400D03*
X238510400Y-214961400D03*
X238510400Y-212661400D03*
X238510400Y-210361400D03*
X238510400Y-208061400D03*
X250510400Y-208061400D03*
X250510400Y-210361400D03*
X250510400Y-212661400D03*
X250510400Y-214961400D03*
X250510400Y-217261400D03*
G04 #@! TD*
D38*
G04 #@! TO.C,J2*
X189615400Y-197153400D03*
X189615400Y-198453400D03*
X189615400Y-197803400D03*
X189615400Y-199103400D03*
X189615400Y-199753400D03*
G04 #@! TD*
D33*
G04 #@! TO.C,U501*
X218613000Y-240626400D03*
X219263000Y-240626400D03*
X219913000Y-240626400D03*
X220563000Y-240626400D03*
X221213000Y-240626400D03*
X221863000Y-240626400D03*
X222513000Y-240626400D03*
X223163000Y-240626400D03*
X223813000Y-240626400D03*
X224463000Y-240626400D03*
X224463000Y-247826400D03*
X223813000Y-247826400D03*
X223163000Y-247826400D03*
X222513000Y-247826400D03*
X221863000Y-247826400D03*
X221213000Y-247826400D03*
X220563000Y-247826400D03*
X219913000Y-247826400D03*
X219263000Y-247826400D03*
X218613000Y-247826400D03*
G04 #@! TD*
G04 #@! TO.C,U201*
X218617600Y-192645800D03*
X219267600Y-192645800D03*
X219917600Y-192645800D03*
X220567600Y-192645800D03*
X221217600Y-192645800D03*
X221867600Y-192645800D03*
X222517600Y-192645800D03*
X223167600Y-192645800D03*
X223817600Y-192645800D03*
X224467600Y-192645800D03*
X224467600Y-199845800D03*
X223817600Y-199845800D03*
X223167600Y-199845800D03*
X222517600Y-199845800D03*
X221867600Y-199845800D03*
X221217600Y-199845800D03*
X220567600Y-199845800D03*
X219917600Y-199845800D03*
X219267600Y-199845800D03*
X218617600Y-199845800D03*
G04 #@! TD*
D11*
G04 #@! TO.C,D1*
X201299400Y-202018400D03*
X201299400Y-203718400D03*
G04 #@! TD*
D10*
G04 #@! TO.C,REF\002A\002A*
X278851400Y-99009400D03*
G04 #@! TD*
G04 #@! TO.C,REF\002A\002A*
X178350000Y-99000000D03*
G04 #@! TD*
D11*
G04 #@! TO.C,D1*
X201299400Y-120448400D03*
X201299400Y-118748400D03*
G04 #@! TD*
D12*
G04 #@! TO.C,R17*
X201377400Y-116804400D03*
X203077400Y-116804400D03*
G04 #@! TD*
D22*
G04 #@! TO.C,J6*
X187326400Y-171245400D03*
X187326400Y-178695400D03*
D21*
X190676400Y-173095400D03*
X190676400Y-174345400D03*
X190676400Y-175595400D03*
X190676400Y-176845400D03*
G04 #@! TD*
D12*
G04 #@! TO.C,C24*
X195037400Y-179796400D03*
X193337400Y-179796400D03*
G04 #@! TD*
D36*
G04 #@! TO.C,J10*
X194130400Y-177893400D03*
X194130400Y-171793400D03*
D35*
X196655400Y-173343400D03*
X196655400Y-174343400D03*
X196655400Y-175343400D03*
X196655400Y-176343400D03*
G04 #@! TD*
D11*
G04 #@! TO.C,C23*
X202823400Y-165738400D03*
X202823400Y-167438400D03*
G04 #@! TD*
G04 #@! TO.C,C22*
X201299400Y-167438400D03*
X201299400Y-165738400D03*
G04 #@! TD*
G04 #@! TO.C,R14*
X210570400Y-172645400D03*
X210570400Y-170945400D03*
G04 #@! TD*
D12*
G04 #@! TO.C,R15*
X206213400Y-179478900D03*
X204513400Y-179478900D03*
G04 #@! TD*
G04 #@! TO.C,R16*
X204513400Y-177891400D03*
X206213400Y-177891400D03*
G04 #@! TD*
D38*
G04 #@! TO.C,J2*
X189615400Y-116483400D03*
X189615400Y-115833400D03*
X189615400Y-114533400D03*
X189615400Y-115183400D03*
X189615400Y-113883400D03*
G04 #@! TD*
D31*
G04 #@! TO.C,U302*
X250510400Y-133991400D03*
X250510400Y-131691400D03*
X250510400Y-129391400D03*
X250510400Y-127091400D03*
X250510400Y-124791400D03*
X238510400Y-124791400D03*
X238510400Y-127091400D03*
X238510400Y-129391400D03*
X238510400Y-131691400D03*
X238510400Y-133991400D03*
X250510400Y-122491400D03*
X238510400Y-122491400D03*
G04 #@! TD*
D12*
G04 #@! TO.C,R204*
X230167400Y-112105400D03*
X231867400Y-112105400D03*
G04 #@! TD*
D22*
G04 #@! TO.C,J5*
X187326400Y-160333400D03*
X187326400Y-169033400D03*
D21*
X190676400Y-162183400D03*
X190676400Y-163433400D03*
X190676400Y-164683400D03*
X190676400Y-165933400D03*
X190676400Y-167183400D03*
G04 #@! TD*
D37*
G04 #@! TO.C,SW1*
X185694400Y-135941400D03*
X185694400Y-141101400D03*
X187694400Y-141101400D03*
X187694400Y-135941400D03*
G04 #@! TD*
D31*
G04 #@! TO.C,U202*
X238739000Y-117439400D03*
X238739000Y-115139400D03*
X238739000Y-112839400D03*
X238739000Y-110539400D03*
X238739000Y-108239400D03*
X250739000Y-108239400D03*
X250739000Y-110539400D03*
X250739000Y-112839400D03*
X250739000Y-115139400D03*
X250739000Y-117439400D03*
G04 #@! TD*
G04 #@! TO.C,U402*
X238739000Y-149485400D03*
X238739000Y-147185400D03*
X238739000Y-144885400D03*
X238739000Y-142585400D03*
X238739000Y-140285400D03*
X250739000Y-140285400D03*
X250739000Y-142585400D03*
X250739000Y-144885400D03*
X250739000Y-147185400D03*
X250739000Y-149485400D03*
G04 #@! TD*
G04 #@! TO.C,U502*
X238733400Y-165471900D03*
X238733400Y-163171900D03*
X238733400Y-160871900D03*
X238733400Y-158571900D03*
X238733400Y-156271900D03*
X250733400Y-156271900D03*
X250733400Y-158571900D03*
X250733400Y-160871900D03*
X250733400Y-163171900D03*
X250733400Y-165471900D03*
G04 #@! TD*
G04 #@! TO.C,U602*
X238733400Y-181489400D03*
X238733400Y-179189400D03*
X238733400Y-176889400D03*
X238733400Y-174589400D03*
X238733400Y-172289400D03*
X250733400Y-172289400D03*
X250733400Y-174589400D03*
X250733400Y-176889400D03*
X250733400Y-179189400D03*
X250733400Y-181489400D03*
G04 #@! TD*
D33*
G04 #@! TO.C,U201*
X218617600Y-116575800D03*
X219267600Y-116575800D03*
X219917600Y-116575800D03*
X220567600Y-116575800D03*
X221217600Y-116575800D03*
X221867600Y-116575800D03*
X222517600Y-116575800D03*
X223167600Y-116575800D03*
X223817600Y-116575800D03*
X224467600Y-116575800D03*
X224467600Y-109375800D03*
X223817600Y-109375800D03*
X223167600Y-109375800D03*
X222517600Y-109375800D03*
X221867600Y-109375800D03*
X221217600Y-109375800D03*
X220567600Y-109375800D03*
X219917600Y-109375800D03*
X219267600Y-109375800D03*
X218617600Y-109375800D03*
G04 #@! TD*
G04 #@! TO.C,U301*
X218623400Y-132603200D03*
X219273400Y-132603200D03*
X219923400Y-132603200D03*
X220573400Y-132603200D03*
X221223400Y-132603200D03*
X221873400Y-132603200D03*
X222523400Y-132603200D03*
X223173400Y-132603200D03*
X223823400Y-132603200D03*
X224473400Y-132603200D03*
X224473400Y-125403200D03*
X223823400Y-125403200D03*
X223173400Y-125403200D03*
X222523400Y-125403200D03*
X221873400Y-125403200D03*
X221223400Y-125403200D03*
X220573400Y-125403200D03*
X219923400Y-125403200D03*
X219273400Y-125403200D03*
X218623400Y-125403200D03*
G04 #@! TD*
G04 #@! TO.C,U401*
X218617600Y-148554400D03*
X219267600Y-148554400D03*
X219917600Y-148554400D03*
X220567600Y-148554400D03*
X221217600Y-148554400D03*
X221867600Y-148554400D03*
X222517600Y-148554400D03*
X223167600Y-148554400D03*
X223817600Y-148554400D03*
X224467600Y-148554400D03*
X224467600Y-141354400D03*
X223817600Y-141354400D03*
X223167600Y-141354400D03*
X222517600Y-141354400D03*
X221867600Y-141354400D03*
X221217600Y-141354400D03*
X220567600Y-141354400D03*
X219917600Y-141354400D03*
X219267600Y-141354400D03*
X218617600Y-141354400D03*
G04 #@! TD*
G04 #@! TO.C,U501*
X218613000Y-164556400D03*
X219263000Y-164556400D03*
X219913000Y-164556400D03*
X220563000Y-164556400D03*
X221213000Y-164556400D03*
X221863000Y-164556400D03*
X222513000Y-164556400D03*
X223163000Y-164556400D03*
X223813000Y-164556400D03*
X224463000Y-164556400D03*
X224463000Y-157356400D03*
X223813000Y-157356400D03*
X223163000Y-157356400D03*
X222513000Y-157356400D03*
X221863000Y-157356400D03*
X221213000Y-157356400D03*
X220563000Y-157356400D03*
X219913000Y-157356400D03*
X219263000Y-157356400D03*
X218613000Y-157356400D03*
G04 #@! TD*
G04 #@! TO.C,U601*
X218613000Y-180697200D03*
X219263000Y-180697200D03*
X219913000Y-180697200D03*
X220563000Y-180697200D03*
X221213000Y-180697200D03*
X221863000Y-180697200D03*
X222513000Y-180697200D03*
X223163000Y-180697200D03*
X223813000Y-180697200D03*
X224463000Y-180697200D03*
X224463000Y-173497200D03*
X223813000Y-173497200D03*
X223163000Y-173497200D03*
X222513000Y-173497200D03*
X221863000Y-173497200D03*
X221213000Y-173497200D03*
X220563000Y-173497200D03*
X219913000Y-173497200D03*
X219263000Y-173497200D03*
X218613000Y-173497200D03*
G04 #@! TD*
D22*
G04 #@! TO.C,J4*
X187326400Y-151931400D03*
X187326400Y-158131400D03*
D21*
X190676400Y-153781400D03*
X190676400Y-155031400D03*
X190676400Y-156281400D03*
G04 #@! TD*
D32*
G04 #@! TO.C,U5*
X185552400Y-149607400D03*
X188852400Y-149607400D03*
X188852400Y-144707400D03*
X185552400Y-144707400D03*
G04 #@! TD*
D11*
G04 #@! TO.C,C1*
X194720800Y-135409000D03*
X194720800Y-133709000D03*
G04 #@! TD*
G04 #@! TO.C,C2*
X196498800Y-135409000D03*
X196498800Y-133709000D03*
G04 #@! TD*
D34*
G04 #@! TO.C,C3*
X202154441Y-130300359D03*
D15*
G36*
X202186261Y-129632143D02*
X202822657Y-130268539D01*
X202122621Y-130968575D01*
X201486225Y-130332179D01*
X202186261Y-129632143D01*
X202186261Y-129632143D01*
G37*
D34*
X200952359Y-131502441D03*
D15*
G36*
X200984179Y-130834225D02*
X201620575Y-131470621D01*
X200920539Y-132170657D01*
X200284143Y-131534261D01*
X200984179Y-130834225D01*
X200984179Y-130834225D01*
G37*
G04 #@! TD*
D34*
G04 #@! TO.C,C4*
X203932441Y-132078359D03*
D15*
G36*
X203964261Y-131410143D02*
X204600657Y-132046539D01*
X203900621Y-132746575D01*
X203264225Y-132110179D01*
X203964261Y-131410143D01*
X203964261Y-131410143D01*
G37*
D34*
X202730359Y-133280441D03*
D15*
G36*
X202762179Y-132612225D02*
X203398575Y-133248621D01*
X202698539Y-133948657D01*
X202062143Y-133312261D01*
X202762179Y-132612225D01*
X202762179Y-132612225D01*
G37*
G04 #@! TD*
D11*
G04 #@! TO.C,C5*
X205236400Y-135754400D03*
X205236400Y-134054400D03*
G04 #@! TD*
G04 #@! TO.C,C6*
X206887400Y-135754400D03*
X206887400Y-134054400D03*
G04 #@! TD*
G04 #@! TO.C,C7*
X192968200Y-135002600D03*
X192968200Y-133302600D03*
G04 #@! TD*
D12*
G04 #@! TO.C,C8*
X194834200Y-145176200D03*
X193134200Y-145176200D03*
G04 #@! TD*
G04 #@! TO.C,C9*
X207815400Y-144236400D03*
X209515400Y-144236400D03*
G04 #@! TD*
D11*
G04 #@! TO.C,C10*
X203077400Y-113287400D03*
X203077400Y-114987400D03*
G04 #@! TD*
D12*
G04 #@! TO.C,C11*
X205679300Y-111902200D03*
X207379300Y-111902200D03*
G04 #@! TD*
G04 #@! TO.C,C12*
X207381800Y-115166100D03*
X205681800Y-115166100D03*
G04 #@! TD*
D11*
G04 #@! TO.C,C13*
X191979709Y-107766821D03*
X191979709Y-106066821D03*
G04 #@! TD*
D12*
G04 #@! TO.C,C14*
X207381800Y-113489700D03*
X205681800Y-113489700D03*
G04 #@! TD*
D11*
G04 #@! TO.C,C15*
X203077400Y-120409400D03*
X203077400Y-118709400D03*
G04 #@! TD*
G04 #@! TO.C,C16*
X203572700Y-152592100D03*
X203572700Y-150892100D03*
G04 #@! TD*
G04 #@! TO.C,C17*
X209236900Y-160643900D03*
X209236900Y-158943900D03*
G04 #@! TD*
G04 #@! TO.C,C18*
X212094400Y-170945400D03*
X212094400Y-172645400D03*
G04 #@! TD*
G04 #@! TO.C,C19*
X209173400Y-170945400D03*
X209173400Y-172645400D03*
G04 #@! TD*
D12*
G04 #@! TO.C,C201*
X224081400Y-118963400D03*
X222381400Y-118963400D03*
G04 #@! TD*
G04 #@! TO.C,C202*
X220437400Y-118963400D03*
X218737400Y-118963400D03*
G04 #@! TD*
G04 #@! TO.C,C203*
X220732000Y-107050800D03*
X219032000Y-107050800D03*
G04 #@! TD*
G04 #@! TO.C,C204*
X222953800Y-107050800D03*
X224653800Y-107050800D03*
G04 #@! TD*
D11*
G04 #@! TO.C,C205*
X216869600Y-109054000D03*
X216869600Y-107354000D03*
G04 #@! TD*
G04 #@! TO.C,C206*
X256163400Y-117273400D03*
X256163400Y-115573400D03*
G04 #@! TD*
D12*
G04 #@! TO.C,C301*
X224286400Y-134330400D03*
X222586400Y-134330400D03*
G04 #@! TD*
G04 #@! TO.C,C302*
X220564400Y-134330400D03*
X218864400Y-134330400D03*
G04 #@! TD*
G04 #@! TO.C,C303*
X220706600Y-122798800D03*
X219006600Y-122798800D03*
G04 #@! TD*
G04 #@! TO.C,C304*
X222979200Y-122798800D03*
X224679200Y-122798800D03*
G04 #@! TD*
D11*
G04 #@! TO.C,C305*
X217047400Y-125401400D03*
X217047400Y-123701400D03*
G04 #@! TD*
G04 #@! TO.C,C306*
X256163400Y-133783400D03*
X256163400Y-132083400D03*
G04 #@! TD*
D12*
G04 #@! TO.C,C401*
X224081400Y-150586400D03*
X222381400Y-150586400D03*
G04 #@! TD*
G04 #@! TO.C,C402*
X220564400Y-150586400D03*
X218864400Y-150586400D03*
G04 #@! TD*
G04 #@! TO.C,C403*
X220767600Y-139283400D03*
X219067600Y-139283400D03*
G04 #@! TD*
G04 #@! TO.C,C404*
X222635400Y-139283400D03*
X224335400Y-139283400D03*
G04 #@! TD*
D11*
G04 #@! TO.C,C405*
X217047400Y-141149400D03*
X217047400Y-139449400D03*
G04 #@! TD*
G04 #@! TO.C,C406*
X256163400Y-149277400D03*
X256163400Y-147577400D03*
G04 #@! TD*
D12*
G04 #@! TO.C,C501*
X224208400Y-166461400D03*
X222508400Y-166461400D03*
G04 #@! TD*
G04 #@! TO.C,C502*
X220564400Y-166461400D03*
X218864400Y-166461400D03*
G04 #@! TD*
G04 #@! TO.C,C503*
X220945400Y-155031400D03*
X219245400Y-155031400D03*
G04 #@! TD*
G04 #@! TO.C,C504*
X222674400Y-155031400D03*
X224374400Y-155031400D03*
G04 #@! TD*
D11*
G04 #@! TO.C,C505*
X217174400Y-157278400D03*
X217174400Y-155578400D03*
G04 #@! TD*
G04 #@! TO.C,C506*
X256036400Y-165152400D03*
X256036400Y-163452400D03*
G04 #@! TD*
D12*
G04 #@! TO.C,C601*
X224310900Y-183217400D03*
X222610900Y-183217400D03*
G04 #@! TD*
G04 #@! TO.C,C602*
X219908900Y-183217400D03*
X218208900Y-183217400D03*
G04 #@! TD*
G04 #@! TO.C,C603*
X220757400Y-170982600D03*
X219057400Y-170982600D03*
G04 #@! TD*
G04 #@! TO.C,C604*
X222964000Y-170982600D03*
X224664000Y-170982600D03*
G04 #@! TD*
D11*
G04 #@! TO.C,C605*
X217174400Y-173280400D03*
X217174400Y-171580400D03*
G04 #@! TD*
G04 #@! TO.C,C606*
X255909400Y-181027400D03*
X255909400Y-179327400D03*
G04 #@! TD*
D12*
G04 #@! TO.C,D4*
X209745800Y-152491400D03*
X211445800Y-152491400D03*
G04 #@! TD*
D24*
G04 #@! TO.C,D5*
X194326400Y-115772400D03*
D23*
X196026400Y-115772400D03*
X196026400Y-113772400D03*
X194126400Y-113772400D03*
G04 #@! TD*
D30*
G04 #@! TO.C,D6*
X204563400Y-108661400D03*
X204563400Y-109961400D03*
D29*
X205613400Y-109311400D03*
D28*
X206288400Y-109311400D03*
G04 #@! TD*
D25*
G04 #@! TO.C,F1*
X199097400Y-111597400D03*
X196897400Y-111597400D03*
G04 #@! TD*
D26*
G04 #@! TO.C,J1*
X187053400Y-128107400D03*
X190653400Y-128107400D03*
X187053400Y-126837400D03*
X190653400Y-126837400D03*
X187053400Y-125567400D03*
X190653400Y-125567400D03*
X187053400Y-124297400D03*
X190653400Y-124297400D03*
X187053400Y-123027400D03*
X190653400Y-123027400D03*
G04 #@! TD*
D11*
G04 #@! TO.C,L1*
X191190200Y-135002600D03*
X191190200Y-133302600D03*
G04 #@! TD*
D12*
G04 #@! TO.C,L2*
X202491400Y-111597400D03*
X200791400Y-111597400D03*
G04 #@! TD*
D27*
G04 #@! TO.C,Q4*
X205339859Y-152432793D03*
X205339859Y-154332793D03*
X207639859Y-153382793D03*
G04 #@! TD*
D12*
G04 #@! TO.C,R1*
X187408994Y-133822400D03*
X185708994Y-133822400D03*
G04 #@! TD*
G04 #@! TO.C,R2*
X187408994Y-132044400D03*
X185708994Y-132044400D03*
G04 #@! TD*
D11*
G04 #@! TO.C,R4*
X209319869Y-148663703D03*
X209319869Y-150363703D03*
G04 #@! TD*
G04 #@! TO.C,R5*
X210973683Y-150363703D03*
X210973683Y-148663703D03*
G04 #@! TD*
D12*
G04 #@! TO.C,R8*
X211435048Y-141569400D03*
X209735048Y-141569400D03*
G04 #@! TD*
G04 #@! TO.C,R9*
X211435048Y-139886698D03*
X209735048Y-139886698D03*
G04 #@! TD*
D11*
G04 #@! TO.C,R10*
X190252509Y-107766821D03*
X190252509Y-106066821D03*
G04 #@! TD*
D12*
G04 #@! TO.C,R11*
X211445800Y-154142400D03*
X209745800Y-154142400D03*
G04 #@! TD*
D11*
G04 #@! TO.C,R12*
X205744400Y-172977400D03*
X205744400Y-174677400D03*
G04 #@! TD*
G04 #@! TO.C,R201*
X228350400Y-112144400D03*
X228350400Y-113844400D03*
G04 #@! TD*
D12*
G04 #@! TO.C,R202*
X228389400Y-110327400D03*
X230089400Y-110327400D03*
G04 #@! TD*
G04 #@! TO.C,R203*
X233645400Y-110327400D03*
X231945400Y-110327400D03*
G04 #@! TD*
G04 #@! TO.C,R205*
X233645400Y-113756400D03*
X231945400Y-113756400D03*
G04 #@! TD*
D11*
G04 #@! TO.C,R301*
X228477400Y-127931400D03*
X228477400Y-129631400D03*
G04 #@! TD*
D12*
G04 #@! TO.C,R302*
X228516400Y-126202400D03*
X230216400Y-126202400D03*
G04 #@! TD*
G04 #@! TO.C,R303*
X233645400Y-126202400D03*
X231945400Y-126202400D03*
G04 #@! TD*
G04 #@! TO.C,R304*
X230167400Y-127853400D03*
X231867400Y-127853400D03*
G04 #@! TD*
G04 #@! TO.C,R305*
X233772400Y-130012400D03*
X232072400Y-130012400D03*
G04 #@! TD*
D11*
G04 #@! TO.C,R401*
X228350400Y-144148400D03*
X228350400Y-145848400D03*
G04 #@! TD*
D12*
G04 #@! TO.C,R402*
X228389400Y-142458400D03*
X230089400Y-142458400D03*
G04 #@! TD*
G04 #@! TO.C,R403*
X233645400Y-142331400D03*
X231945400Y-142331400D03*
G04 #@! TD*
G04 #@! TO.C,R404*
X230167400Y-144109400D03*
X231867400Y-144109400D03*
G04 #@! TD*
G04 #@! TO.C,R405*
X233645400Y-145633400D03*
X231945400Y-145633400D03*
G04 #@! TD*
D11*
G04 #@! TO.C,R501*
X228604400Y-159642400D03*
X228604400Y-161342400D03*
G04 #@! TD*
D12*
G04 #@! TO.C,R502*
X228516400Y-157952400D03*
X230216400Y-157952400D03*
G04 #@! TD*
G04 #@! TO.C,R503*
X233772400Y-157952400D03*
X232072400Y-157952400D03*
G04 #@! TD*
G04 #@! TO.C,R504*
X230294400Y-159603400D03*
X231994400Y-159603400D03*
G04 #@! TD*
G04 #@! TO.C,R505*
X233645400Y-161381400D03*
X231945400Y-161381400D03*
G04 #@! TD*
D11*
G04 #@! TO.C,R601*
X228350400Y-175771400D03*
X228350400Y-177471400D03*
G04 #@! TD*
D12*
G04 #@! TO.C,R602*
X228389400Y-173954400D03*
X230089400Y-173954400D03*
G04 #@! TD*
G04 #@! TO.C,R603*
X233645400Y-173954400D03*
X231945400Y-173954400D03*
G04 #@! TD*
G04 #@! TO.C,R604*
X230167400Y-175732400D03*
X231867400Y-175732400D03*
G04 #@! TD*
G04 #@! TO.C,R605*
X233645400Y-177383400D03*
X231945400Y-177383400D03*
G04 #@! TD*
D19*
G04 #@! TO.C,U2*
X199850529Y-136866442D03*
D15*
G36*
X199357322Y-136532334D02*
X199516421Y-136373235D01*
X200343736Y-137200550D01*
X200184637Y-137359649D01*
X199357322Y-136532334D01*
X199357322Y-136532334D01*
G37*
D19*
X199496976Y-137219995D03*
D15*
G36*
X199003769Y-136885887D02*
X199162868Y-136726788D01*
X199990183Y-137554103D01*
X199831084Y-137713202D01*
X199003769Y-136885887D01*
X199003769Y-136885887D01*
G37*
D19*
X199143422Y-137573549D03*
D15*
G36*
X198650215Y-137239441D02*
X198809314Y-137080342D01*
X199636629Y-137907657D01*
X199477530Y-138066756D01*
X198650215Y-137239441D01*
X198650215Y-137239441D01*
G37*
D19*
X198789869Y-137927102D03*
D15*
G36*
X198296662Y-137592994D02*
X198455761Y-137433895D01*
X199283076Y-138261210D01*
X199123977Y-138420309D01*
X198296662Y-137592994D01*
X198296662Y-137592994D01*
G37*
D19*
X198436316Y-138280655D03*
D15*
G36*
X197943109Y-137946547D02*
X198102208Y-137787448D01*
X198929523Y-138614763D01*
X198770424Y-138773862D01*
X197943109Y-137946547D01*
X197943109Y-137946547D01*
G37*
D19*
X198082762Y-138634209D03*
D15*
G36*
X197589555Y-138300101D02*
X197748654Y-138141002D01*
X198575969Y-138968317D01*
X198416870Y-139127416D01*
X197589555Y-138300101D01*
X197589555Y-138300101D01*
G37*
D19*
X197729209Y-138987762D03*
D15*
G36*
X197236002Y-138653654D02*
X197395101Y-138494555D01*
X198222416Y-139321870D01*
X198063317Y-139480969D01*
X197236002Y-138653654D01*
X197236002Y-138653654D01*
G37*
D19*
X197375655Y-139341316D03*
D15*
G36*
X196882448Y-139007208D02*
X197041547Y-138848109D01*
X197868862Y-139675424D01*
X197709763Y-139834523D01*
X196882448Y-139007208D01*
X196882448Y-139007208D01*
G37*
D19*
X197022102Y-139694869D03*
D15*
G36*
X196528895Y-139360761D02*
X196687994Y-139201662D01*
X197515309Y-140028977D01*
X197356210Y-140188076D01*
X196528895Y-139360761D01*
X196528895Y-139360761D01*
G37*
D19*
X196668549Y-140048422D03*
D15*
G36*
X196175342Y-139714314D02*
X196334441Y-139555215D01*
X197161756Y-140382530D01*
X197002657Y-140541629D01*
X196175342Y-139714314D01*
X196175342Y-139714314D01*
G37*
D19*
X196314995Y-140401976D03*
D15*
G36*
X195821788Y-140067868D02*
X195980887Y-139908769D01*
X196808202Y-140736084D01*
X196649103Y-140895183D01*
X195821788Y-140067868D01*
X195821788Y-140067868D01*
G37*
D19*
X195961442Y-140755529D03*
D15*
G36*
X195468235Y-140421421D02*
X195627334Y-140262322D01*
X196454649Y-141089637D01*
X196295550Y-141248736D01*
X195468235Y-140421421D01*
X195468235Y-140421421D01*
G37*
D19*
X195961442Y-143018271D03*
D15*
G36*
X195627334Y-143511478D02*
X195468235Y-143352379D01*
X196295550Y-142525064D01*
X196454649Y-142684163D01*
X195627334Y-143511478D01*
X195627334Y-143511478D01*
G37*
D19*
X196314995Y-143371824D03*
D15*
G36*
X195980887Y-143865031D02*
X195821788Y-143705932D01*
X196649103Y-142878617D01*
X196808202Y-143037716D01*
X195980887Y-143865031D01*
X195980887Y-143865031D01*
G37*
D19*
X196668549Y-143725378D03*
D15*
G36*
X196334441Y-144218585D02*
X196175342Y-144059486D01*
X197002657Y-143232171D01*
X197161756Y-143391270D01*
X196334441Y-144218585D01*
X196334441Y-144218585D01*
G37*
D19*
X197022102Y-144078931D03*
D15*
G36*
X196687994Y-144572138D02*
X196528895Y-144413039D01*
X197356210Y-143585724D01*
X197515309Y-143744823D01*
X196687994Y-144572138D01*
X196687994Y-144572138D01*
G37*
D19*
X197375655Y-144432484D03*
D15*
G36*
X197041547Y-144925691D02*
X196882448Y-144766592D01*
X197709763Y-143939277D01*
X197868862Y-144098376D01*
X197041547Y-144925691D01*
X197041547Y-144925691D01*
G37*
D19*
X197729209Y-144786038D03*
D15*
G36*
X197395101Y-145279245D02*
X197236002Y-145120146D01*
X198063317Y-144292831D01*
X198222416Y-144451930D01*
X197395101Y-145279245D01*
X197395101Y-145279245D01*
G37*
D19*
X198082762Y-145139591D03*
D15*
G36*
X197748654Y-145632798D02*
X197589555Y-145473699D01*
X198416870Y-144646384D01*
X198575969Y-144805483D01*
X197748654Y-145632798D01*
X197748654Y-145632798D01*
G37*
D19*
X198436316Y-145493145D03*
D15*
G36*
X198102208Y-145986352D02*
X197943109Y-145827253D01*
X198770424Y-144999938D01*
X198929523Y-145159037D01*
X198102208Y-145986352D01*
X198102208Y-145986352D01*
G37*
D19*
X198789869Y-145846698D03*
D15*
G36*
X198455761Y-146339905D02*
X198296662Y-146180806D01*
X199123977Y-145353491D01*
X199283076Y-145512590D01*
X198455761Y-146339905D01*
X198455761Y-146339905D01*
G37*
D19*
X199143422Y-146200251D03*
D15*
G36*
X198809314Y-146693458D02*
X198650215Y-146534359D01*
X199477530Y-145707044D01*
X199636629Y-145866143D01*
X198809314Y-146693458D01*
X198809314Y-146693458D01*
G37*
D19*
X199496976Y-146553805D03*
D15*
G36*
X199162868Y-147047012D02*
X199003769Y-146887913D01*
X199831084Y-146060598D01*
X199990183Y-146219697D01*
X199162868Y-147047012D01*
X199162868Y-147047012D01*
G37*
D19*
X199850529Y-146907358D03*
D15*
G36*
X199516421Y-147400565D02*
X199357322Y-147241466D01*
X200184637Y-146414151D01*
X200343736Y-146573250D01*
X199516421Y-147400565D01*
X199516421Y-147400565D01*
G37*
D19*
X202113271Y-146907358D03*
D15*
G36*
X201620064Y-146573250D02*
X201779163Y-146414151D01*
X202606478Y-147241466D01*
X202447379Y-147400565D01*
X201620064Y-146573250D01*
X201620064Y-146573250D01*
G37*
D19*
X202466824Y-146553805D03*
D15*
G36*
X201973617Y-146219697D02*
X202132716Y-146060598D01*
X202960031Y-146887913D01*
X202800932Y-147047012D01*
X201973617Y-146219697D01*
X201973617Y-146219697D01*
G37*
D19*
X202820378Y-146200251D03*
D15*
G36*
X202327171Y-145866143D02*
X202486270Y-145707044D01*
X203313585Y-146534359D01*
X203154486Y-146693458D01*
X202327171Y-145866143D01*
X202327171Y-145866143D01*
G37*
D19*
X203173931Y-145846698D03*
D15*
G36*
X202680724Y-145512590D02*
X202839823Y-145353491D01*
X203667138Y-146180806D01*
X203508039Y-146339905D01*
X202680724Y-145512590D01*
X202680724Y-145512590D01*
G37*
D19*
X203527484Y-145493145D03*
D15*
G36*
X203034277Y-145159037D02*
X203193376Y-144999938D01*
X204020691Y-145827253D01*
X203861592Y-145986352D01*
X203034277Y-145159037D01*
X203034277Y-145159037D01*
G37*
D19*
X203881038Y-145139591D03*
D15*
G36*
X203387831Y-144805483D02*
X203546930Y-144646384D01*
X204374245Y-145473699D01*
X204215146Y-145632798D01*
X203387831Y-144805483D01*
X203387831Y-144805483D01*
G37*
D19*
X204234591Y-144786038D03*
D15*
G36*
X203741384Y-144451930D02*
X203900483Y-144292831D01*
X204727798Y-145120146D01*
X204568699Y-145279245D01*
X203741384Y-144451930D01*
X203741384Y-144451930D01*
G37*
D19*
X204588145Y-144432484D03*
D15*
G36*
X204094938Y-144098376D02*
X204254037Y-143939277D01*
X205081352Y-144766592D01*
X204922253Y-144925691D01*
X204094938Y-144098376D01*
X204094938Y-144098376D01*
G37*
D19*
X204941698Y-144078931D03*
D15*
G36*
X204448491Y-143744823D02*
X204607590Y-143585724D01*
X205434905Y-144413039D01*
X205275806Y-144572138D01*
X204448491Y-143744823D01*
X204448491Y-143744823D01*
G37*
D19*
X205295251Y-143725378D03*
D15*
G36*
X204802044Y-143391270D02*
X204961143Y-143232171D01*
X205788458Y-144059486D01*
X205629359Y-144218585D01*
X204802044Y-143391270D01*
X204802044Y-143391270D01*
G37*
D19*
X205648805Y-143371824D03*
D15*
G36*
X205155598Y-143037716D02*
X205314697Y-142878617D01*
X206142012Y-143705932D01*
X205982913Y-143865031D01*
X205155598Y-143037716D01*
X205155598Y-143037716D01*
G37*
D19*
X206002358Y-143018271D03*
D15*
G36*
X205509151Y-142684163D02*
X205668250Y-142525064D01*
X206495565Y-143352379D01*
X206336466Y-143511478D01*
X205509151Y-142684163D01*
X205509151Y-142684163D01*
G37*
D19*
X206002358Y-140755529D03*
D15*
G36*
X205668250Y-141248736D02*
X205509151Y-141089637D01*
X206336466Y-140262322D01*
X206495565Y-140421421D01*
X205668250Y-141248736D01*
X205668250Y-141248736D01*
G37*
D19*
X205648805Y-140401976D03*
D15*
G36*
X205314697Y-140895183D02*
X205155598Y-140736084D01*
X205982913Y-139908769D01*
X206142012Y-140067868D01*
X205314697Y-140895183D01*
X205314697Y-140895183D01*
G37*
D19*
X205295251Y-140048422D03*
D15*
G36*
X204961143Y-140541629D02*
X204802044Y-140382530D01*
X205629359Y-139555215D01*
X205788458Y-139714314D01*
X204961143Y-140541629D01*
X204961143Y-140541629D01*
G37*
D19*
X204941698Y-139694869D03*
D15*
G36*
X204607590Y-140188076D02*
X204448491Y-140028977D01*
X205275806Y-139201662D01*
X205434905Y-139360761D01*
X204607590Y-140188076D01*
X204607590Y-140188076D01*
G37*
D19*
X204588145Y-139341316D03*
D15*
G36*
X204254037Y-139834523D02*
X204094938Y-139675424D01*
X204922253Y-138848109D01*
X205081352Y-139007208D01*
X204254037Y-139834523D01*
X204254037Y-139834523D01*
G37*
D19*
X204234591Y-138987762D03*
D15*
G36*
X203900483Y-139480969D02*
X203741384Y-139321870D01*
X204568699Y-138494555D01*
X204727798Y-138653654D01*
X203900483Y-139480969D01*
X203900483Y-139480969D01*
G37*
D19*
X203881038Y-138634209D03*
D15*
G36*
X203546930Y-139127416D02*
X203387831Y-138968317D01*
X204215146Y-138141002D01*
X204374245Y-138300101D01*
X203546930Y-139127416D01*
X203546930Y-139127416D01*
G37*
D19*
X203527484Y-138280655D03*
D15*
G36*
X203193376Y-138773862D02*
X203034277Y-138614763D01*
X203861592Y-137787448D01*
X204020691Y-137946547D01*
X203193376Y-138773862D01*
X203193376Y-138773862D01*
G37*
D19*
X203173931Y-137927102D03*
D15*
G36*
X202839823Y-138420309D02*
X202680724Y-138261210D01*
X203508039Y-137433895D01*
X203667138Y-137592994D01*
X202839823Y-138420309D01*
X202839823Y-138420309D01*
G37*
D19*
X202820378Y-137573549D03*
D15*
G36*
X202486270Y-138066756D02*
X202327171Y-137907657D01*
X203154486Y-137080342D01*
X203313585Y-137239441D01*
X202486270Y-138066756D01*
X202486270Y-138066756D01*
G37*
D19*
X202466824Y-137219995D03*
D15*
G36*
X202132716Y-137713202D02*
X201973617Y-137554103D01*
X202800932Y-136726788D01*
X202960031Y-136885887D01*
X202132716Y-137713202D01*
X202132716Y-137713202D01*
G37*
D19*
X202113271Y-136866442D03*
D15*
G36*
X201779163Y-137359649D02*
X201620064Y-137200550D01*
X202447379Y-136373235D01*
X202606478Y-136532334D01*
X201779163Y-137359649D01*
X201779163Y-137359649D01*
G37*
G04 #@! TD*
D17*
G04 #@! TO.C,U3*
X205645400Y-117463400D03*
D18*
X206145400Y-118963400D03*
D17*
X205645400Y-120463400D03*
D16*
X208495400Y-118963400D03*
G04 #@! TD*
D14*
G04 #@! TO.C,Y1*
X199341134Y-133134134D03*
D15*
G36*
X198386540Y-133388692D02*
X199595692Y-132179540D01*
X200295728Y-132879576D01*
X199086576Y-134088728D01*
X198386540Y-133388692D01*
X198386540Y-133388692D01*
G37*
D14*
X201108900Y-134901900D03*
D15*
G36*
X200154306Y-135156458D02*
X201363458Y-133947306D01*
X202063494Y-134647342D01*
X200854342Y-135856494D01*
X200154306Y-135156458D01*
X200154306Y-135156458D01*
G37*
G04 #@! TD*
D22*
G04 #@! TO.C,J7*
X195733800Y-160327300D03*
X195733800Y-169027300D03*
D21*
X199083800Y-162177300D03*
X199083800Y-163427300D03*
X199083800Y-164677300D03*
X199083800Y-165927300D03*
X199083800Y-167177300D03*
G04 #@! TD*
D20*
G04 #@! TO.C,U1*
X194454500Y-154650400D03*
X194454500Y-153380400D03*
X194454500Y-152110400D03*
X194454500Y-150840400D03*
X200854500Y-150840400D03*
X200854500Y-152110400D03*
X200854500Y-153380400D03*
X200854500Y-154650400D03*
G04 #@! TD*
D12*
G04 #@! TO.C,C20*
X204259400Y-167223400D03*
X205959400Y-167223400D03*
G04 #@! TD*
G04 #@! TO.C,C21*
X205959400Y-169001400D03*
X204259400Y-169001400D03*
G04 #@! TD*
G04 #@! TO.C,R3*
X207751900Y-157126900D03*
X209451900Y-157126900D03*
G04 #@! TD*
G04 #@! TO.C,R6*
X205959400Y-162778400D03*
X204259400Y-162778400D03*
G04 #@! TD*
D11*
G04 #@! TO.C,R7*
X207649400Y-172645400D03*
X207649400Y-170945400D03*
G04 #@! TD*
D13*
G04 #@! TO.C,U4*
X211840400Y-168653400D03*
X210570400Y-168653400D03*
X209300400Y-168653400D03*
X208030400Y-168653400D03*
X208030400Y-163253400D03*
X209300400Y-163253400D03*
X210570400Y-163253400D03*
X211840400Y-163253400D03*
G04 #@! TD*
D12*
G04 #@! TO.C,R13*
X204259400Y-170779400D03*
X205959400Y-170779400D03*
G04 #@! TD*
G04 #@! TO.C,C25*
X191227400Y-141315400D03*
X189527400Y-141315400D03*
G04 #@! TD*
D11*
G04 #@! TO.C,R18*
X216412400Y-165660400D03*
X216412400Y-163960400D03*
G04 #@! TD*
G04 #@! TO.C,R19*
X214761400Y-163960400D03*
X214761400Y-165660400D03*
G04 #@! TD*
G04 #@! TO.C,R20*
X216539400Y-115827400D03*
X216539400Y-117527400D03*
G04 #@! TD*
G04 #@! TO.C,R21*
X215015400Y-117527400D03*
X215015400Y-115827400D03*
G04 #@! TD*
G04 #@! TO.C,R22*
X214761400Y-132210400D03*
X214761400Y-133910400D03*
G04 #@! TD*
G04 #@! TO.C,R23*
X216412400Y-133910400D03*
X216412400Y-132210400D03*
G04 #@! TD*
G04 #@! TO.C,R24*
X214761400Y-150293400D03*
X214761400Y-148593400D03*
G04 #@! TD*
G04 #@! TO.C,R25*
X216412400Y-148593400D03*
X216412400Y-150293400D03*
G04 #@! TD*
G04 #@! TO.C,R26*
X214634400Y-182082400D03*
X214634400Y-180382400D03*
G04 #@! TD*
G04 #@! TO.C,R27*
X216285400Y-180343400D03*
X216285400Y-182043400D03*
G04 #@! TD*
M02*
