G04 #@! TF.GenerationSoftware,KiCad,Pcbnew,(5.0.0)*
G04 #@! TF.CreationDate,2019-01-07T10:47:40-06:00*
G04 #@! TF.ProjectId,fk-atlas-v0.11-01x02,666B2D61746C61732D76302E31312D30,0.1*
G04 #@! TF.SameCoordinates,Original*
G04 #@! TF.FileFunction,Legend,Bot*
G04 #@! TF.FilePolarity,Positive*
%FSLAX46Y46*%
G04 Gerber Fmt 4.6, Leading zero omitted, Abs format (unit mm)*
G04 Created by KiCad (PCBNEW (5.0.0)) date 01/07/19 10:47:40*
%MOMM*%
%LPD*%
G01*
G04 APERTURE LIST*
%ADD10C,0.152400*%
%ADD11C,0.150000*%
G04 APERTURE END LIST*
D10*
G04 #@! TO.C,J8*
X209046400Y-249350400D02*
X211840400Y-249350400D01*
X208792400Y-247572400D02*
X208792400Y-249096400D01*
X212094400Y-247572400D02*
X212094400Y-249096400D01*
X212094400Y-247572400D02*
G75*
G03X211840400Y-247318400I-254000J0D01*
G01*
X209046400Y-247318400D02*
G75*
G03X208792400Y-247572400I0J-254000D01*
G01*
X209046400Y-249350400D02*
G75*
G02X208792400Y-249096400I0J254000D01*
G01*
X212094400Y-249096400D02*
G75*
G02X211840400Y-249350400I-254000J0D01*
G01*
X211840400Y-247318400D02*
X209046400Y-247318400D01*
G04 #@! TO.C,J3*
X205363400Y-249350400D02*
X208157400Y-249350400D01*
X205109400Y-247572400D02*
G75*
G02X205363400Y-247318400I254000J0D01*
G01*
X208157400Y-247318400D02*
G75*
G02X208411400Y-247572400I0J-254000D01*
G01*
X208157400Y-249350400D02*
G75*
G03X208411400Y-249096400I0J254000D01*
G01*
X205109400Y-249096400D02*
G75*
G03X205363400Y-249350400I254000J0D01*
G01*
X205109400Y-249096400D02*
X205109400Y-247572400D01*
X208411400Y-249096400D02*
X208411400Y-247572400D01*
X208157400Y-247318400D02*
X205363400Y-247318400D01*
D11*
G04 #@! TO.C,J9*
X184969900Y-195883400D02*
X184969900Y-197483400D01*
X184969900Y-199503400D02*
X184969900Y-201103400D01*
X184969900Y-197493400D02*
X184969900Y-199493400D01*
X184969900Y-114223400D02*
X184969900Y-116223400D01*
X184969900Y-116233400D02*
X184969900Y-117833400D01*
X184969900Y-112613400D02*
X184969900Y-114213400D01*
D10*
G04 #@! TO.C,J3*
X208157400Y-164048400D02*
X205363400Y-164048400D01*
X208411400Y-165826400D02*
X208411400Y-164302400D01*
X205109400Y-165826400D02*
X205109400Y-164302400D01*
X205109400Y-165826400D02*
G75*
G03X205363400Y-166080400I254000J0D01*
G01*
X208157400Y-166080400D02*
G75*
G03X208411400Y-165826400I0J254000D01*
G01*
X208157400Y-164048400D02*
G75*
G02X208411400Y-164302400I0J-254000D01*
G01*
X205109400Y-164302400D02*
G75*
G02X205363400Y-164048400I254000J0D01*
G01*
X205363400Y-166080400D02*
X208157400Y-166080400D01*
G04 #@! TO.C,J8*
X211840400Y-164048400D02*
X209046400Y-164048400D01*
X212094400Y-165826400D02*
G75*
G02X211840400Y-166080400I-254000J0D01*
G01*
X209046400Y-166080400D02*
G75*
G02X208792400Y-165826400I0J254000D01*
G01*
X209046400Y-164048400D02*
G75*
G03X208792400Y-164302400I0J-254000D01*
G01*
X212094400Y-164302400D02*
G75*
G03X211840400Y-164048400I-254000J0D01*
G01*
X212094400Y-164302400D02*
X212094400Y-165826400D01*
X208792400Y-164302400D02*
X208792400Y-165826400D01*
X209046400Y-166080400D02*
X211840400Y-166080400D01*
G04 #@! TD*
M02*
