G04 #@! TF.GenerationSoftware,KiCad,Pcbnew,(5.0.0)*
G04 #@! TF.CreationDate,2019-01-02T11:46:48-06:00*
G04 #@! TF.ProjectId,fk-atlas-v0.11-01x02,666B2D61746C61732D76302E31312D30,0.1*
G04 #@! TF.SameCoordinates,Original*
G04 #@! TF.FileFunction,Profile,NP*
%FSLAX46Y46*%
G04 Gerber Fmt 4.6, Leading zero omitted, Abs format (unit mm)*
G04 Created by KiCad (PCBNEW (5.0.0)) date 01/02/19 11:46:48*
%MOMM*%
%LPD*%
G01*
G04 APERTURE LIST*
%ADD10C,0.150000*%
%ADD11C,0.200000*%
G04 APERTURE END LIST*
D10*
X281851400Y-277519400D02*
X281851400Y-95979400D01*
X175451400Y-277559400D02*
X281851400Y-277519400D01*
X254451400Y-271519400D02*
X275851400Y-271519400D01*
X199951400Y-271539400D02*
X251451400Y-271509400D01*
X196951400Y-271559400D02*
X181451400Y-271559400D01*
X181451400Y-255759400D02*
X181451400Y-271559400D01*
X181451400Y-206259400D02*
X181451400Y-252769400D01*
X181451400Y-206259400D02*
X184451400Y-206259400D01*
X251451400Y-188259400D02*
X251451400Y-185259400D01*
X272851400Y-267184400D02*
X272851400Y-237534400D01*
X272851400Y-237534400D02*
X275851400Y-237534400D01*
X196951400Y-185259400D02*
X196951400Y-188259400D01*
X199951400Y-271534400D02*
X199951400Y-268534400D01*
X199951400Y-185259400D02*
X199951400Y-188259400D01*
X185811400Y-268529400D02*
X196951400Y-268534400D01*
X196951400Y-268534400D02*
X196951400Y-271559400D01*
X199951400Y-268534400D02*
X251451400Y-268509400D01*
X254451400Y-268509400D02*
X271501400Y-268534400D01*
X272851400Y-234534400D02*
X275851400Y-234534400D01*
X275851400Y-237534400D02*
X275851400Y-271519400D01*
X254451400Y-185259400D02*
X254451400Y-188259400D01*
X254451400Y-268509400D02*
X254451400Y-271509400D01*
X251451400Y-271509400D02*
X251451400Y-268509400D01*
X272851400Y-189634400D02*
X272851200Y-234534400D01*
X185805400Y-188263400D02*
X196951400Y-188259400D01*
X184451400Y-255759400D02*
X181451400Y-255759400D01*
X184451400Y-252759400D02*
X184451400Y-206259400D01*
X184451400Y-255759400D02*
X184461400Y-267179400D01*
X185805400Y-188263400D02*
G75*
G03X184459200Y-189609600I0J-1346200D01*
G01*
X199951400Y-188259400D02*
X251451400Y-188259400D01*
X271505000Y-268527400D02*
G75*
G03X272851200Y-267181200I0J1346200D01*
G01*
X272851200Y-189609600D02*
G75*
G03X271505000Y-188263400I-1346200J0D01*
G01*
X184459200Y-267181200D02*
G75*
G03X185805400Y-268527400I1346200J0D01*
G01*
X184451400Y-252759400D02*
X181451400Y-252759400D01*
D11*
X181451400Y-203259400D02*
X184451400Y-203259400D01*
D10*
X254451400Y-188289400D02*
X271511400Y-188259400D01*
X184451400Y-203259400D02*
X184461400Y-189619400D01*
X275851400Y-151264400D02*
X275851400Y-101989400D01*
X199951400Y-185269400D02*
X199951400Y-188269400D01*
X251451400Y-188269400D02*
X251451400Y-185269400D01*
X254451400Y-185269400D02*
X254451400Y-188269400D01*
X196951400Y-185269400D02*
X196951400Y-188269400D01*
X254451400Y-101989400D02*
X254451400Y-104989400D01*
X251451400Y-104989400D02*
X251451400Y-101989400D01*
X196951400Y-101989400D02*
X196951400Y-104989400D01*
X199951400Y-101989400D02*
X199951400Y-104989400D01*
X275851400Y-154264400D02*
X275851400Y-234539400D01*
X272851400Y-154264400D02*
X275851400Y-154264400D01*
X272851400Y-183914400D02*
X272851400Y-154264400D01*
X272851400Y-151264400D02*
X275851400Y-151264400D01*
X254451400Y-185239400D02*
X271511400Y-185259400D01*
X199951400Y-185264400D02*
X251451400Y-185239400D01*
X199951400Y-188264400D02*
X199951400Y-185264400D01*
X196951400Y-185264400D02*
X196951400Y-188289400D01*
X185801400Y-185264400D02*
X196951400Y-185264400D01*
X254451400Y-185239400D02*
X254451400Y-188289400D01*
X251451400Y-188289400D02*
X251451400Y-185239400D01*
X181451400Y-122989400D02*
X184451400Y-122989400D01*
X181451400Y-169489400D02*
X181451400Y-122989400D01*
X181451400Y-172489400D02*
X181441400Y-203259400D01*
X254451400Y-101989400D02*
X275851400Y-101989400D01*
X254451400Y-104989400D02*
X271511400Y-104989400D01*
X251451400Y-101989400D02*
X199951400Y-101989400D01*
X199951400Y-104989400D02*
X251451400Y-104989400D01*
X181451400Y-101989400D02*
X196951400Y-101989400D01*
X184451400Y-169489400D02*
X181451400Y-169489400D01*
X184451400Y-172489400D02*
X181451400Y-172489400D01*
X184451400Y-172489400D02*
X184461400Y-183929400D01*
X184451400Y-169489400D02*
X184451400Y-122989400D01*
X184471400Y-119999400D02*
X184461400Y-106339400D01*
D11*
X181451400Y-119989400D02*
X184451400Y-119989400D01*
X181451400Y-101989400D02*
X181451400Y-119989400D01*
D10*
X175461400Y-95989400D02*
X175451400Y-277559400D01*
D11*
X175461400Y-95989400D02*
X281851400Y-95999400D01*
D10*
X184459200Y-183911200D02*
G75*
G03X185805400Y-185257400I1346200J0D01*
G01*
X271505000Y-185257400D02*
G75*
G03X272851200Y-183911200I0J1346200D01*
G01*
X272851200Y-106339600D02*
G75*
G03X271505000Y-104993400I-1346200J0D01*
G01*
X185805400Y-104993400D02*
G75*
G03X184459200Y-106339600I0J-1346200D01*
G01*
X272851400Y-106364400D02*
X272851200Y-151264400D01*
X185805400Y-104993400D02*
X196951400Y-104989400D01*
M02*
