M48
;DRILL file {KiCad (5.0.0)} date 01/02/19 11:46:52
;FORMAT={-:-/ absolute / inch / decimal}
FMAT,2
INCH,TZ
T1C0.0118
T2C0.0197
T3C0.0400
T4C0.0472
T5C0.0827
T6C0.0197
T7C0.0984
T8C0.1000
%
G90
G05
M72
T1
X7.3052Y-5.5236
X7.3052Y-8.8019
X7.3152Y-5.3836
X7.3152Y-8.6619
X7.4077Y-4.4686
X7.4077Y-7.7469
X7.4152Y-4.8936
X7.4152Y-4.9436
X7.4152Y-5.0436
X7.4152Y-8.1719
X7.4152Y-8.2219
X7.4152Y-8.3219
X7.4352Y-4.8436
X7.4352Y-5.2736
X7.4352Y-8.1219
X7.4352Y-8.5519
X7.4552Y-5.6936
X7.4552Y-5.8336
X7.4552Y-8.9719
X7.4552Y-9.1119
X7.4627Y-6.8136
X7.4627Y-10.0919
X7.4802Y-5.7486
X7.4802Y-9.0269
X7.4893Y-6.3486
X7.4893Y-9.6269
X7.5102Y-5.7386
X7.5102Y-9.0169
X7.5152Y-4.5348
X7.5152Y-7.8131
X7.5302Y-5.5236
X7.5302Y-8.8019
X7.5352Y-5.2236
X7.5352Y-8.5019
X7.5388Y-4.6142
X7.5388Y-7.8926
X7.5452Y-6.9136
X7.5452Y-6.9636
X7.5452Y-10.1919
X7.5452Y-10.2419
X7.5552Y-6.5236
X7.5552Y-6.5836
X7.5552Y-9.8019
X7.5552Y-9.8619
X7.5652Y-4.5556
X7.5652Y-4.8936
X7.5652Y-6.1536
X7.5652Y-6.4336
X7.5652Y-7.834
X7.5652Y-8.1719
X7.5652Y-9.4319
X7.5652Y-9.7119
X7.5702Y-6.0386
X7.5702Y-6.0836
X7.5702Y-9.3169
X7.5702Y-9.3619
X7.5752Y-7.0786
X7.5752Y-10.3569
X7.5852Y-4.1836
X7.5852Y-4.9486
X7.5852Y-7.4619
X7.5852Y-8.2269
X7.5952Y-4.5092
X7.5952Y-5.2036
X7.5952Y-6.5236
X7.5952Y-6.5836
X7.5952Y-7.7875
X7.5952Y-8.4819
X7.5952Y-9.8019
X7.5952Y-9.8619
X7.6052Y-5.6836
X7.6052Y-8.9619
X7.6072Y-4.6007
X7.6072Y-7.879
X7.6352Y-6.5236
X7.6352Y-6.5836
X7.6352Y-9.8019
X7.6352Y-9.8619
X7.6452Y-4.4436
X7.6452Y-7.7219
X7.6552Y-4.5736
X7.6552Y-7.8519
X7.6752Y-6.5236
X7.6752Y-6.5836
X7.6752Y-9.8019
X7.6752Y-9.8619
X7.7152Y-6.5236
X7.7152Y-6.5836
X7.7152Y-7.0786
X7.7152Y-9.8019
X7.7152Y-9.8619
X7.7152Y-10.3569
X7.7252Y-5.7236
X7.7252Y-9.0019
X7.7352Y-5.2336
X7.7352Y-8.5119
X7.7552Y-6.5236
X7.7552Y-6.5836
X7.7552Y-9.8019
X7.7552Y-9.8619
X7.7652Y-5.0836
X7.7652Y-8.3619
X7.7752Y-6.9036
X7.7752Y-10.1819
X7.7802Y-6.9436
X7.7802Y-10.2219
X7.7952Y-6.5236
X7.7952Y-6.5836
X7.7952Y-6.8636
X7.7952Y-9.8019
X7.7952Y-9.8619
X7.7952Y-10.1419
X7.8Y-4.9516
X7.8Y-8.2299
X7.8152Y-5.6736
X7.8152Y-8.9519
X7.8252Y-4.9086
X7.8252Y-8.1869
X7.8262Y-6.0881
X7.8262Y-9.3664
X7.8377Y-5.8936
X7.8377Y-9.1719
X7.8452Y-5.4736
X7.8452Y-8.7519
X7.9052Y-4.8486
X7.9052Y-4.8986
X7.9052Y-8.1269
X7.9052Y-8.1769
X7.9112Y-5.8496
X7.9112Y-9.1279
X7.9362Y-5.4436
X7.9362Y-8.7219
X7.9552Y-4.8486
X7.9552Y-4.8986
X7.9552Y-8.1269
X7.9552Y-8.1769
X7.9852Y-5.1136
X7.9852Y-5.4736
X7.9852Y-8.3919
X7.9852Y-8.7519
X7.9952Y-4.5836
X7.9952Y-4.6236
X7.9952Y-7.8619
X7.9952Y-7.9019
X8.0022Y-5.6556
X8.0022Y-8.9339
X8.0052Y-4.8486
X8.0052Y-4.8986
X8.0052Y-7.0736
X8.0052Y-8.1269
X8.0052Y-8.1769
X8.0052Y-10.3519
X8.0152Y-5.5036
X8.0152Y-8.7819
X8.0262Y-5.3546
X8.0262Y-8.6329
X8.0302Y-5.5836
X8.0302Y-8.8619
X8.0322Y-5.5356
X8.0322Y-8.8139
X8.0332Y-5.6296
X8.0332Y-8.9079
X8.0452Y-4.3936
X8.0452Y-4.4336
X8.0452Y-4.4736
X8.0452Y-4.5236
X8.0452Y-4.5636
X8.0452Y-4.6036
X8.0452Y-5.9411
X8.0452Y-6.3736
X8.0452Y-6.5536
X8.0452Y-6.7586
X8.0452Y-7.6719
X8.0452Y-7.7119
X8.0452Y-7.7519
X8.0452Y-7.8019
X8.0452Y-7.8419
X8.0452Y-7.8819
X8.0452Y-9.2194
X8.0452Y-9.6519
X8.0452Y-9.8319
X8.0452Y-10.0369
X8.0552Y-4.8486
X8.0552Y-4.8986
X8.0552Y-5.1736
X8.0552Y-8.1269
X8.0552Y-8.1769
X8.0552Y-8.4519
X8.0652Y-6.5036
X8.0652Y-9.7819
X8.0752Y-5.2436
X8.0752Y-5.3836
X8.0752Y-8.5219
X8.0752Y-8.6619
X8.0852Y-6.0961
X8.0852Y-9.3744
X8.1052Y-4.8486
X8.1052Y-4.8986
X8.1052Y-5.7386
X8.1052Y-6.7736
X8.1052Y-8.1269
X8.1052Y-8.1769
X8.1052Y-9.0169
X8.1052Y-10.0519
X8.1116Y-5.63
X8.1116Y-8.9084
X8.1412Y-5.4536
X8.1412Y-8.7319
X8.1552Y-6.8586
X8.1552Y-10.1369
X8.1702Y-5.4536
X8.1702Y-6.5401
X8.1702Y-8.7319
X8.1702Y-9.8184
X8.2252Y-5.5736
X8.2252Y-8.8519
X8.2352Y-6.8336
X8.2352Y-10.1119
X8.2402Y-5.8236
X8.2402Y-6.2236
X8.2402Y-9.1019
X8.2402Y-9.5019
X8.2502Y-5.9586
X8.2502Y-9.2369
X8.2527Y-6.5411
X8.2527Y-9.8194
X8.2752Y-6.3761
X8.2752Y-9.6544
X8.2852Y-5.6836
X8.2852Y-8.9619
X8.2952Y-7.0436
X8.2952Y-10.3219
X8.3327Y-6.5661
X8.3327Y-9.8444
X8.3332Y-5.4626
X8.3332Y-8.7409
X8.3502Y-6.8336
X8.3502Y-10.1119
X8.3652Y-6.5011
X8.3652Y-6.6336
X8.3652Y-9.7794
X8.3652Y-9.9119
X8.3703Y-6.4125
X8.3703Y-6.4554
X8.3703Y-9.6909
X8.3703Y-9.7338
X8.3852Y-6.7286
X8.3852Y-10.0069
X8.4302Y-7.0536
X8.4302Y-10.3319
X8.4552Y-5.8136
X8.4552Y-6.4086
X8.4552Y-9.0919
X8.4552Y-9.6869
X8.4702Y-4.5186
X8.4702Y-7.7969
X8.4752Y-5.1538
X8.4752Y-8.4321
X8.4852Y-5.2721
X8.4852Y-5.9171
X8.4852Y-7.1686
X8.4852Y-8.5504
X8.4852Y-9.1954
X8.4852Y-10.4469
X8.4902Y-6.5221
X8.4902Y-9.8004
X8.5002Y-4.6786
X8.5002Y-7.9569
X8.5502Y-6.2286
X8.5502Y-9.5069
X8.5552Y-5.5886
X8.5552Y-8.8669
X8.5702Y-5.8286
X8.5702Y-9.1069
X8.5752Y-4.2265
X8.5752Y-7.5049
X8.5802Y-4.8586
X8.5802Y-5.9336
X8.5802Y-8.1369
X8.5802Y-9.2119
X8.5852Y-4.3061
X8.5852Y-4.6836
X8.5852Y-4.9386
X8.5852Y-5.2936
X8.5852Y-5.4886
X8.5852Y-6.7386
X8.5852Y-6.8221
X8.5852Y-7.2336
X8.5852Y-7.5845
X8.5852Y-7.9619
X8.5852Y-8.2169
X8.5852Y-8.5719
X8.5852Y-8.7669
X8.5852Y-10.0169
X8.5852Y-10.1004
X8.5852Y-10.5119
X8.5902Y-6.1136
X8.5902Y-6.1951
X8.5902Y-9.3919
X8.5902Y-9.4735
X8.5952Y-5.2236
X8.5952Y-7.1236
X8.5952Y-8.5019
X8.5952Y-10.4019
X8.6002Y-5.5986
X8.6002Y-8.8769
X8.6052Y-4.6386
X8.6052Y-7.9169
X8.6152Y-4.5286
X8.6152Y-6.5886
X8.6152Y-7.8069
X8.6152Y-9.8669
X8.6302Y-5.1636
X8.6302Y-6.4336
X8.6302Y-7.0586
X8.6302Y-8.4419
X8.6302Y-9.7119
X8.6302Y-10.3369
X8.6402Y-5.6176
X8.6402Y-8.8959
X8.6412Y-6.2486
X8.6412Y-6.8846
X8.6412Y-9.5269
X8.6412Y-10.1629
X8.6422Y-4.3616
X8.6422Y-7.6399
X8.6442Y-4.9916
X8.6442Y-8.2699
X8.6552Y-7.2436
X8.6552Y-10.5219
X8.6702Y-6.8836
X8.6702Y-10.1619
X8.6712Y-6.2486
X8.6712Y-9.5269
X8.6732Y-4.3634
X8.6732Y-7.6418
X8.6752Y-5.6233
X8.6752Y-5.7936
X8.6752Y-8.9016
X8.6752Y-9.0719
X8.6762Y-4.9934
X8.6762Y-8.2717
X8.6836Y-6.5813
X8.6836Y-9.8596
X8.6852Y-4.5436
X8.6852Y-5.1736
X8.6852Y-5.9536
X8.6852Y-7.0636
X8.6852Y-7.8219
X8.6852Y-8.4519
X8.6852Y-9.2319
X8.6852Y-10.3419
X8.7002Y-6.0686
X8.7002Y-9.3469
X8.7052Y-4.6836
X8.7052Y-5.8036
X8.7052Y-7.9619
X8.7052Y-9.0819
X8.7081Y-7.0751
X8.7081Y-10.3534
X8.7102Y-6.4386
X8.7102Y-9.7169
X8.7104Y-4.5486
X8.7104Y-5.1786
X8.7104Y-7.827
X8.7104Y-8.457
X8.7152Y-5.2936
X8.7152Y-8.5719
X8.7302Y-4.8336
X8.7302Y-5.4836
X8.7302Y-6.7286
X8.7302Y-8.1119
X8.7302Y-8.7619
X8.7302Y-10.0069
X8.7352Y-4.2136
X8.7352Y-7.4919
X8.7552Y-5.9536
X8.7552Y-9.2319
X8.7602Y-5.8036
X8.7602Y-6.4336
X8.7602Y-6.5836
X8.7602Y-9.0819
X8.7602Y-9.7119
X8.7602Y-9.8619
X8.7605Y-4.6386
X8.7605Y-7.9169
X8.7652Y-4.7036
X8.7652Y-6.0736
X8.7652Y-7.2436
X8.7652Y-7.9819
X8.7652Y-9.3519
X8.7652Y-10.5219
X8.7702Y-5.1736
X8.7702Y-8.4519
X8.7927Y-5.2936
X8.7927Y-8.5719
X8.8052Y-5.1736
X8.8052Y-7.0736
X8.8052Y-8.4519
X8.8052Y-10.3519
X8.8152Y-4.5436
X8.8152Y-5.8036
X8.8152Y-7.8219
X8.8152Y-9.0819
X8.8252Y-6.5786
X8.8252Y-9.8569
X8.8352Y-7.2436
X8.8352Y-10.5219
X8.8452Y-4.6836
X8.8452Y-7.1136
X8.8452Y-7.9619
X8.8452Y-10.3919
X8.8502Y-4.3086
X8.8502Y-4.5886
X8.8502Y-4.9336
X8.8502Y-5.2186
X8.8502Y-5.5686
X8.8502Y-6.1986
X8.8502Y-6.4786
X8.8502Y-7.5869
X8.8502Y-7.8669
X8.8502Y-8.2119
X8.8502Y-8.4969
X8.8502Y-8.8469
X8.8502Y-9.4769
X8.8502Y-9.7569
X8.8552Y-5.8536
X8.8552Y-5.9336
X8.8552Y-6.8286
X8.8552Y-9.1319
X8.8552Y-9.2119
X8.8552Y-10.1069
X8.8652Y-5.2836
X8.8652Y-5.4836
X8.8652Y-6.1036
X8.8652Y-8.5619
X8.8652Y-8.7619
X8.8652Y-9.3819
X8.8752Y-4.2136
X8.8752Y-4.8336
X8.8752Y-7.4919
X8.8752Y-8.1119
X8.8802Y-6.7336
X8.8802Y-10.0119
X8.9902Y-7.0436
X8.9902Y-10.3219
X8.9952Y-4.5136
X8.9952Y-5.1436
X8.9952Y-5.7786
X8.9952Y-7.7919
X8.9952Y-8.4219
X8.9952Y-9.0569
X9.0002Y-6.3936
X9.0002Y-9.6719
X9.1252Y-6.8136
X9.1252Y-10.0919
X9.1302Y-4.3086
X9.1302Y-4.5236
X9.1302Y-5.0786
X9.1302Y-5.5636
X9.1302Y-5.7686
X9.1302Y-7.0186
X9.1302Y-7.5869
X9.1302Y-7.8019
X9.1302Y-8.3569
X9.1302Y-8.8419
X9.1302Y-9.0469
X9.1302Y-10.2969
X9.1352Y-6.1736
X9.1352Y-6.3936
X9.1352Y-9.4519
X9.1352Y-9.6719
X9.4552Y-4.9136
X9.4552Y-5.5236
X9.4552Y-6.7936
X9.4552Y-8.1919
X9.4552Y-8.8019
X9.4552Y-10.0719
X9.4652Y-4.2636
X9.4652Y-6.1536
X9.4652Y-7.5419
X9.4652Y-9.4319
X9.7952Y-5.1036
X9.7952Y-8.3819
X10.0852Y-4.6586
X10.0852Y-7.9369
X10.1052Y-6.5136
X10.1052Y-7.1236
X10.1052Y-9.7919
X10.1052Y-10.4019
X10.1152Y-5.2736
X10.1152Y-5.8836
X10.1152Y-8.5519
X10.1152Y-9.1619
T3
X10.2045Y-8.2519
X10.2045Y-8.3519
X9.2837Y-6.8639
X9.2837Y-6.9639
X9.2837Y-7.0639
X9.9837Y-6.8639
X9.9837Y-6.9639
X9.9837Y-7.0639
X10.202Y-4.3436
X10.202Y-4.4436
X9.2839Y-5.6039
X9.2839Y-5.7039
X9.2839Y-5.8039
X9.9839Y-5.6039
X9.9839Y-5.7039
X9.9839Y-5.8039
X10.2045Y-6.8636
X10.2045Y-6.9636
X9.2839Y-8.8823
X9.2839Y-8.9823
X9.2839Y-9.0823
X9.9839Y-8.8823
X9.9839Y-8.9823
X9.9839Y-9.0823
X9.2839Y-4.3423
X9.2839Y-4.4423
X9.2839Y-4.5423
X9.9839Y-4.3423
X9.9839Y-4.4423
X9.9839Y-4.5423
X10.2045Y-5.6034
X10.2045Y-5.7034
X9.2839Y-7.6206
X9.2839Y-7.7206
X9.2839Y-7.8206
X9.9839Y-7.6206
X9.9839Y-7.7206
X9.9839Y-7.8206
X10.2045Y-9.5119
X10.2045Y-9.6119
X10.2045Y-4.9736
X10.2045Y-5.0736
X9.2749Y-8.2723
X9.2749Y-8.3723
X9.2749Y-8.4723
X9.9749Y-8.2723
X9.9749Y-8.3723
X9.9749Y-8.4723
X9.2837Y-9.5116
X9.2837Y-9.6116
X9.2837Y-9.7116
X9.9837Y-9.5116
X9.9837Y-9.6116
X9.9837Y-9.7116
X10.2045Y-8.8818
X10.2045Y-8.9818
X10.2045Y-10.1419
X10.2045Y-10.2419
X9.2749Y-4.9939
X9.2749Y-5.0939
X9.2749Y-5.1939
X9.9749Y-4.9939
X9.9749Y-5.0939
X9.9749Y-5.1939
X9.2837Y-6.2333
X9.2837Y-6.3333
X9.2837Y-6.4333
X9.9837Y-6.2333
X9.9837Y-6.3333
X9.9837Y-6.4333
X10.2045Y-6.2336
X10.2045Y-6.3336
X9.2837Y-10.1423
X9.2837Y-10.2423
X9.2837Y-10.3423
X9.9837Y-10.1423
X9.9837Y-10.2423
X9.9837Y-10.3423
X10.202Y-7.6219
X10.202Y-7.7219
T5
X10.4545Y-5.5034
X10.4545Y-5.9034
X10.4545Y-9.4119
X10.4545Y-9.8119
X10.4545Y-4.8736
X10.4545Y-5.2736
X10.4545Y-8.7818
X10.4545Y-9.1818
X10.4545Y-10.0419
X10.4545Y-10.4419
X10.4545Y-6.1336
X10.4545Y-6.5336
X10.452Y-7.5219
X10.452Y-7.9219
X10.4545Y-8.1519
X10.4545Y-8.5519
X10.452Y-4.2436
X10.452Y-4.6436
X10.4545Y-6.7636
X10.4545Y-7.1636
T6
X7.1438Y-4.7358
X7.1438Y-4.783
X7.1438Y-4.8303
X7.2619Y-4.7358
X7.2619Y-4.783
X7.2619Y-4.8303
X10.7422Y-5.9671
X10.7422Y-6.0143
X10.7422Y-6.0616
X10.8603Y-5.9671
X10.8603Y-6.0143
X10.8603Y-6.0616
X9.9115Y-7.2937
X9.9115Y-7.4118
X9.9587Y-7.2937
X9.9587Y-7.4118
X10.006Y-7.2937
X10.006Y-7.4118
X7.7658Y-10.5728
X7.7658Y-10.6909
X7.813Y-10.5728
X7.813Y-10.6909
X7.8603Y-10.5728
X7.8603Y-10.6909
X9.9115Y-10.5716
X9.9115Y-10.6897
X9.9587Y-10.5716
X9.9587Y-10.6897
X10.006Y-10.5716
X10.006Y-10.6897
X7.1438Y-6.6846
X7.1438Y-6.7319
X7.1438Y-6.7791
X7.2619Y-6.6846
X7.2619Y-6.7319
X7.2619Y-6.7791
X10.7422Y-9.2454
X10.7422Y-9.2927
X10.7422Y-9.3399
X10.8603Y-9.2454
X10.8603Y-9.2927
X10.8603Y-9.3399
X7.7658Y-4.0153
X7.7658Y-4.1334
X7.813Y-4.0153
X7.813Y-4.1334
X7.8603Y-4.0153
X7.8603Y-4.1334
X7.1438Y-8.0141
X7.1438Y-8.0614
X7.1438Y-8.1086
X7.2619Y-8.0141
X7.2619Y-8.0614
X7.2619Y-8.1086
X9.9115Y-4.0153
X9.9115Y-4.1334
X9.9587Y-4.0153
X9.9587Y-4.1334
X10.006Y-4.0153
X10.006Y-4.1334
X7.1438Y-9.963
X7.1438Y-10.0102
X7.1438Y-10.0575
X7.2619Y-9.963
X7.2619Y-10.0102
X7.2619Y-10.0575
X7.7658Y-7.2937
X7.7658Y-7.4118
X7.813Y-7.2937
X7.813Y-7.4118
X7.8603Y-7.2937
X7.8603Y-7.4118
T7
X7.0217Y-3.8976
X7.0225Y-10.8118
X10.9784Y-3.898
T8
X10.0802Y-7.2236
X7.3302Y-4.2036
X10.0802Y-4.2036
X7.3302Y-7.4819
X10.0802Y-7.4819
X10.0802Y-10.5019
X7.3302Y-10.5019
X7.3302Y-7.2236
T2
X7.3904Y-4.5131G85X7.3904Y-4.5564
G05
X7.475Y-4.4108G85X7.475Y-4.4383
G05
X7.475Y-4.6312G85X7.475Y-4.6588
G05
X7.3904Y-7.7915G85X7.3904Y-7.8348
G05
X7.475Y-7.6891G85X7.475Y-7.7167
G05
X7.475Y-7.9096G85X7.475Y-7.9371
G05
T4
X7.3425Y-7.6862G85X7.3425Y-7.6834
G05
X7.3425Y-7.946G85X7.3425Y-7.9432
G05
X7.3425Y-4.4078G85X7.3425Y-4.4051
G05
X7.3425Y-4.6677G85X7.3425Y-4.6649
G05
T0
M30
