G04 #@! TF.GenerationSoftware,KiCad,Pcbnew,(5.0.0)*
G04 #@! TF.CreationDate,2018-12-13T17:11:31-06:00*
G04 #@! TF.ProjectId,fk-atlas,666B2D61746C61732E6B696361645F70,rev?*
G04 #@! TF.SameCoordinates,Original*
G04 #@! TF.FileFunction,Soldermask,Top*
G04 #@! TF.FilePolarity,Negative*
%FSLAX46Y46*%
G04 Gerber Fmt 4.6, Leading zero omitted, Abs format (unit mm)*
G04 Created by KiCad (PCBNEW (5.0.0)) date 12/13/18 17:11:31*
%MOMM*%
%LPD*%
G01*
G04 APERTURE LIST*
%ADD10C,0.100000*%
G04 APERTURE END LIST*
D10*
G36*
X187724614Y-134572648D02*
X187973937Y-134675921D01*
X188198327Y-134825853D01*
X188389147Y-135016673D01*
X188539079Y-135241063D01*
X188642352Y-135490386D01*
X188695000Y-135755065D01*
X188695000Y-136024935D01*
X188642352Y-136289614D01*
X188539079Y-136538937D01*
X188389147Y-136763327D01*
X188198327Y-136954147D01*
X187973937Y-137104079D01*
X187724614Y-137207352D01*
X187459935Y-137260000D01*
X187190065Y-137260000D01*
X186925386Y-137207352D01*
X186676063Y-137104079D01*
X186451673Y-136954147D01*
X186260853Y-136763327D01*
X186110921Y-136538937D01*
X186007648Y-136289614D01*
X185955000Y-136024935D01*
X185955000Y-135755065D01*
X186007648Y-135490386D01*
X186110921Y-135241063D01*
X186260853Y-135016673D01*
X186451673Y-134825853D01*
X186676063Y-134675921D01*
X186925386Y-134572648D01*
X187190065Y-134520000D01*
X187459935Y-134520000D01*
X187724614Y-134572648D01*
X187724614Y-134572648D01*
G37*
G36*
X117874614Y-134572648D02*
X118123937Y-134675921D01*
X118348327Y-134825853D01*
X118539147Y-135016673D01*
X118689079Y-135241063D01*
X118792352Y-135490386D01*
X118845000Y-135755065D01*
X118845000Y-136024935D01*
X118792352Y-136289614D01*
X118689079Y-136538937D01*
X118539147Y-136763327D01*
X118348327Y-136954147D01*
X118123937Y-137104079D01*
X117874614Y-137207352D01*
X117609935Y-137260000D01*
X117340065Y-137260000D01*
X117075386Y-137207352D01*
X116826063Y-137104079D01*
X116601673Y-136954147D01*
X116410853Y-136763327D01*
X116260921Y-136538937D01*
X116157648Y-136289614D01*
X116105000Y-136024935D01*
X116105000Y-135755065D01*
X116157648Y-135490386D01*
X116260921Y-135241063D01*
X116410853Y-135016673D01*
X116601673Y-134825853D01*
X116826063Y-134675921D01*
X117075386Y-134572648D01*
X117340065Y-134520000D01*
X117609935Y-134520000D01*
X117874614Y-134572648D01*
X117874614Y-134572648D01*
G37*
G36*
X132357370Y-134397372D02*
X132473289Y-134420429D01*
X132655278Y-134495811D01*
X132819063Y-134605249D01*
X132958351Y-134744537D01*
X133067789Y-134908322D01*
X133143171Y-135090311D01*
X133151255Y-135130955D01*
X133181600Y-135283507D01*
X133181600Y-135480493D01*
X133173764Y-135519885D01*
X133143171Y-135673689D01*
X133067789Y-135855678D01*
X132958351Y-136019463D01*
X132819063Y-136158751D01*
X132655278Y-136268189D01*
X132473289Y-136343571D01*
X132357370Y-136366628D01*
X132280093Y-136382000D01*
X132083107Y-136382000D01*
X132005830Y-136366628D01*
X131889911Y-136343571D01*
X131707922Y-136268189D01*
X131544137Y-136158751D01*
X131404849Y-136019463D01*
X131295411Y-135855678D01*
X131220029Y-135673689D01*
X131189436Y-135519885D01*
X131181600Y-135480493D01*
X131181600Y-135283507D01*
X131211945Y-135130955D01*
X131220029Y-135090311D01*
X131295411Y-134908322D01*
X131404849Y-134744537D01*
X131544137Y-134605249D01*
X131707922Y-134495811D01*
X131889911Y-134420429D01*
X132005830Y-134397372D01*
X132083107Y-134382000D01*
X132280093Y-134382000D01*
X132357370Y-134397372D01*
X132357370Y-134397372D01*
G37*
G36*
X154549500Y-136228000D02*
X153249500Y-136228000D01*
X153249500Y-135028000D01*
X154549500Y-135028000D01*
X154549500Y-136228000D01*
X154549500Y-136228000D01*
G37*
G36*
X156249500Y-136228000D02*
X154949500Y-136228000D01*
X154949500Y-135028000D01*
X156249500Y-135028000D01*
X156249500Y-136228000D01*
X156249500Y-136228000D01*
G37*
G36*
X151847500Y-136228000D02*
X150547500Y-136228000D01*
X150547500Y-135028000D01*
X151847500Y-135028000D01*
X151847500Y-136228000D01*
X151847500Y-136228000D01*
G37*
G36*
X150147500Y-136228000D02*
X148847500Y-136228000D01*
X148847500Y-135028000D01*
X150147500Y-135028000D01*
X150147500Y-136228000D01*
X150147500Y-136228000D01*
G37*
G36*
X197184026Y-133212115D02*
X197402412Y-133302573D01*
X197598958Y-133433901D01*
X197766099Y-133601042D01*
X197897427Y-133797588D01*
X197987885Y-134015974D01*
X198034000Y-134247809D01*
X198034000Y-134484191D01*
X197987885Y-134716026D01*
X197897427Y-134934412D01*
X197766099Y-135130958D01*
X197598958Y-135298099D01*
X197402412Y-135429427D01*
X197184026Y-135519885D01*
X196952191Y-135566000D01*
X196715809Y-135566000D01*
X196483974Y-135519885D01*
X196265588Y-135429427D01*
X196069042Y-135298099D01*
X195901901Y-135130958D01*
X195770573Y-134934412D01*
X195680115Y-134716026D01*
X195634000Y-134484191D01*
X195634000Y-134247809D01*
X195680115Y-134015974D01*
X195770573Y-133797588D01*
X195901901Y-133601042D01*
X196069042Y-133433901D01*
X196265588Y-133302573D01*
X196483974Y-133212115D01*
X196715809Y-133166000D01*
X196952191Y-133166000D01*
X197184026Y-133212115D01*
X197184026Y-133212115D01*
G37*
G36*
X146523000Y-135143000D02*
X145323000Y-135143000D01*
X145323000Y-133843000D01*
X146523000Y-133843000D01*
X146523000Y-135143000D01*
X146523000Y-135143000D01*
G37*
G36*
X148174000Y-135104000D02*
X146974000Y-135104000D01*
X146974000Y-133804000D01*
X148174000Y-133804000D01*
X148174000Y-135104000D01*
X148174000Y-135104000D01*
G37*
G36*
X183372000Y-134700000D02*
X180672000Y-134700000D01*
X180672000Y-133100000D01*
X183372000Y-133100000D01*
X183372000Y-134700000D01*
X183372000Y-134700000D01*
G37*
G36*
X171372000Y-134700000D02*
X168672000Y-134700000D01*
X168672000Y-133100000D01*
X171372000Y-133100000D01*
X171372000Y-134700000D01*
X171372000Y-134700000D01*
G37*
G36*
X187798000Y-134088000D02*
X186598000Y-134088000D01*
X186598000Y-132788000D01*
X187798000Y-132788000D01*
X187798000Y-134088000D01*
X187798000Y-134088000D01*
G37*
G36*
X155976600Y-133957800D02*
X149676600Y-133957800D01*
X149676600Y-132257800D01*
X155976600Y-132257800D01*
X155976600Y-133957800D01*
X155976600Y-133957800D01*
G37*
G36*
X146523000Y-133443000D02*
X145323000Y-133443000D01*
X145323000Y-132143000D01*
X146523000Y-132143000D01*
X146523000Y-133443000D01*
X146523000Y-133443000D01*
G37*
G36*
X148174000Y-133404000D02*
X146974000Y-133404000D01*
X146974000Y-132104000D01*
X148174000Y-132104000D01*
X148174000Y-133404000D01*
X148174000Y-133404000D01*
G37*
G36*
X167284019Y-130731930D02*
X167465657Y-130787030D01*
X167633058Y-130876507D01*
X167779785Y-130996923D01*
X167900199Y-131143648D01*
X167989678Y-131311052D01*
X168044778Y-131492688D01*
X168058720Y-131634250D01*
X168058720Y-132033725D01*
X168044778Y-132175287D01*
X167989678Y-132356925D01*
X167900201Y-132524326D01*
X167779785Y-132671053D01*
X167633060Y-132791467D01*
X167465656Y-132880946D01*
X167284020Y-132936046D01*
X167095120Y-132954650D01*
X166906221Y-132936046D01*
X166724585Y-132880946D01*
X166557181Y-132791467D01*
X166410456Y-132671053D01*
X166290041Y-132524327D01*
X166271426Y-132489500D01*
X166200563Y-132356926D01*
X166200562Y-132356924D01*
X166145462Y-132175288D01*
X166131520Y-132033726D01*
X166131520Y-131634251D01*
X166145462Y-131492689D01*
X166200562Y-131311051D01*
X166290039Y-131143650D01*
X166410455Y-130996923D01*
X166557180Y-130876509D01*
X166724584Y-130787030D01*
X166906220Y-130731930D01*
X167095120Y-130713326D01*
X167284019Y-130731930D01*
X167284019Y-130731930D01*
G37*
G36*
X185064019Y-130731930D02*
X185245657Y-130787030D01*
X185413058Y-130876507D01*
X185559785Y-130996923D01*
X185680199Y-131143648D01*
X185769678Y-131311052D01*
X185824778Y-131492688D01*
X185838720Y-131634250D01*
X185838720Y-132033725D01*
X185824778Y-132175287D01*
X185769678Y-132356925D01*
X185680201Y-132524326D01*
X185559785Y-132671053D01*
X185413060Y-132791467D01*
X185245656Y-132880946D01*
X185064020Y-132936046D01*
X184875120Y-132954650D01*
X184686221Y-132936046D01*
X184504585Y-132880946D01*
X184337181Y-132791467D01*
X184190456Y-132671053D01*
X184070041Y-132524327D01*
X184051426Y-132489500D01*
X183980563Y-132356926D01*
X183980562Y-132356924D01*
X183925462Y-132175288D01*
X183911520Y-132033726D01*
X183911520Y-131634251D01*
X183925462Y-131492689D01*
X183980562Y-131311051D01*
X184070039Y-131143650D01*
X184190455Y-130996923D01*
X184337180Y-130876509D01*
X184504584Y-130787030D01*
X184686220Y-130731930D01*
X184875120Y-130713326D01*
X185064019Y-130731930D01*
X185064019Y-130731930D01*
G37*
G36*
X126976000Y-132807000D02*
X125676000Y-132807000D01*
X125676000Y-131607000D01*
X126976000Y-131607000D01*
X126976000Y-132807000D01*
X126976000Y-132807000D01*
G37*
G36*
X125276000Y-132807000D02*
X123976000Y-132807000D01*
X123976000Y-131607000D01*
X125276000Y-131607000D01*
X125276000Y-132807000D01*
X125276000Y-132807000D01*
G37*
G36*
X138152000Y-132489500D02*
X136852000Y-132489500D01*
X136852000Y-131289500D01*
X138152000Y-131289500D01*
X138152000Y-132489500D01*
X138152000Y-132489500D01*
G37*
G36*
X136452000Y-132489500D02*
X135152000Y-132489500D01*
X135152000Y-131289500D01*
X136452000Y-131289500D01*
X136452000Y-132489500D01*
X136452000Y-132489500D01*
G37*
G36*
X183372000Y-132400000D02*
X180672000Y-132400000D01*
X180672000Y-130800000D01*
X183372000Y-130800000D01*
X183372000Y-132400000D01*
X183372000Y-132400000D01*
G37*
G36*
X171372000Y-132400000D02*
X168672000Y-132400000D01*
X168672000Y-130800000D01*
X171372000Y-130800000D01*
X171372000Y-132400000D01*
X171372000Y-132400000D01*
G37*
G36*
X187798000Y-132388000D02*
X186598000Y-132388000D01*
X186598000Y-131088000D01*
X187798000Y-131088000D01*
X187798000Y-132388000D01*
X187798000Y-132388000D01*
G37*
G36*
X120115000Y-131706000D02*
X117115000Y-131706000D01*
X117115000Y-130506000D01*
X120115000Y-130506000D01*
X120115000Y-131706000D01*
X120115000Y-131706000D01*
G37*
G36*
X126419000Y-131004000D02*
X124419000Y-131004000D01*
X124419000Y-129604000D01*
X126419000Y-129604000D01*
X126419000Y-131004000D01*
X126419000Y-131004000D01*
G37*
G36*
X136452000Y-130902000D02*
X135152000Y-130902000D01*
X135152000Y-129702000D01*
X136452000Y-129702000D01*
X136452000Y-130902000D01*
X136452000Y-130902000D01*
G37*
G36*
X138152000Y-130902000D02*
X136852000Y-130902000D01*
X136852000Y-129702000D01*
X138152000Y-129702000D01*
X138152000Y-130902000D01*
X138152000Y-130902000D01*
G37*
G36*
X160239000Y-130532000D02*
X159039000Y-130532000D01*
X159039000Y-129232000D01*
X160239000Y-129232000D01*
X160239000Y-130532000D01*
X160239000Y-130532000D01*
G37*
G36*
X167284019Y-128191930D02*
X167465657Y-128247030D01*
X167633058Y-128336507D01*
X167779785Y-128456923D01*
X167900199Y-128603648D01*
X167989678Y-128771052D01*
X168044778Y-128952688D01*
X168058720Y-129094250D01*
X168058720Y-129493725D01*
X168044778Y-129635287D01*
X167989678Y-129816925D01*
X167900201Y-129984326D01*
X167779785Y-130131053D01*
X167633060Y-130251467D01*
X167465656Y-130340946D01*
X167284020Y-130396046D01*
X167095120Y-130414650D01*
X166906221Y-130396046D01*
X166724585Y-130340946D01*
X166557181Y-130251467D01*
X166410456Y-130131053D01*
X166290041Y-129984327D01*
X166245106Y-129900259D01*
X166200563Y-129816926D01*
X166200562Y-129816924D01*
X166145462Y-129635288D01*
X166131520Y-129493726D01*
X166131520Y-129094251D01*
X166145462Y-128952689D01*
X166200562Y-128771051D01*
X166290039Y-128603650D01*
X166410455Y-128456923D01*
X166557180Y-128336509D01*
X166724584Y-128247030D01*
X166906220Y-128191930D01*
X167095120Y-128173326D01*
X167284019Y-128191930D01*
X167284019Y-128191930D01*
G37*
G36*
X185064019Y-128191930D02*
X185245657Y-128247030D01*
X185413058Y-128336507D01*
X185559785Y-128456923D01*
X185680199Y-128603648D01*
X185769678Y-128771052D01*
X185824778Y-128952688D01*
X185838720Y-129094250D01*
X185838720Y-129493725D01*
X185824778Y-129635287D01*
X185769678Y-129816925D01*
X185680201Y-129984326D01*
X185559785Y-130131053D01*
X185413060Y-130251467D01*
X185245656Y-130340946D01*
X185064020Y-130396046D01*
X184875120Y-130414650D01*
X184686221Y-130396046D01*
X184504585Y-130340946D01*
X184337181Y-130251467D01*
X184190456Y-130131053D01*
X184070041Y-129984327D01*
X184025106Y-129900259D01*
X183980563Y-129816926D01*
X183980562Y-129816924D01*
X183925462Y-129635288D01*
X183911520Y-129493726D01*
X183911520Y-129094251D01*
X183925462Y-128952689D01*
X183980562Y-128771051D01*
X184070039Y-128603650D01*
X184190455Y-128456923D01*
X184337180Y-128336509D01*
X184504584Y-128247030D01*
X184686220Y-128191930D01*
X184875120Y-128173326D01*
X185064019Y-128191930D01*
X185064019Y-128191930D01*
G37*
G36*
X165584000Y-130394000D02*
X164284000Y-130394000D01*
X164284000Y-129194000D01*
X165584000Y-129194000D01*
X165584000Y-130394000D01*
X165584000Y-130394000D01*
G37*
G36*
X163884000Y-130394000D02*
X162584000Y-130394000D01*
X162584000Y-129194000D01*
X163884000Y-129194000D01*
X163884000Y-130394000D01*
X163884000Y-130394000D01*
G37*
G36*
X190765072Y-128359431D02*
X190940435Y-128432068D01*
X191098262Y-128537525D01*
X191232475Y-128671738D01*
X191337932Y-128829565D01*
X191410569Y-129004928D01*
X191447600Y-129191094D01*
X191447600Y-129380906D01*
X191410569Y-129567072D01*
X191337932Y-129742435D01*
X191232475Y-129900262D01*
X191098262Y-130034475D01*
X190940435Y-130139932D01*
X190765072Y-130212569D01*
X190578906Y-130249600D01*
X190389094Y-130249600D01*
X190202928Y-130212569D01*
X190027565Y-130139932D01*
X189869738Y-130034475D01*
X189735525Y-129900262D01*
X189630068Y-129742435D01*
X189557431Y-129567072D01*
X189520400Y-129380906D01*
X189520400Y-129191094D01*
X189557431Y-129004928D01*
X189630068Y-128829565D01*
X189735525Y-128671738D01*
X189869738Y-128537525D01*
X190027565Y-128432068D01*
X190202928Y-128359431D01*
X190389094Y-128322400D01*
X190578906Y-128322400D01*
X190765072Y-128359431D01*
X190765072Y-128359431D01*
G37*
G36*
X183372000Y-130100000D02*
X180672000Y-130100000D01*
X180672000Y-128500000D01*
X183372000Y-128500000D01*
X183372000Y-130100000D01*
X183372000Y-130100000D01*
G37*
G36*
X171372000Y-130100000D02*
X168672000Y-130100000D01*
X168672000Y-128500000D01*
X171372000Y-128500000D01*
X171372000Y-130100000D01*
X171372000Y-130100000D01*
G37*
G36*
X122915000Y-129656000D02*
X121015000Y-129656000D01*
X121015000Y-128856000D01*
X122915000Y-128856000D01*
X122915000Y-129656000D01*
X122915000Y-129656000D01*
G37*
G36*
X128819000Y-129154000D02*
X127069000Y-129154000D01*
X127069000Y-125354000D01*
X128819000Y-125354000D01*
X128819000Y-129154000D01*
X128819000Y-129154000D01*
G37*
G36*
X160239000Y-128832000D02*
X159039000Y-128832000D01*
X159039000Y-127532000D01*
X160239000Y-127532000D01*
X160239000Y-128832000D01*
X160239000Y-128832000D01*
G37*
G36*
X162106000Y-128743000D02*
X160806000Y-128743000D01*
X160806000Y-127543000D01*
X162106000Y-127543000D01*
X162106000Y-128743000D01*
X162106000Y-128743000D01*
G37*
G36*
X163806000Y-128743000D02*
X162506000Y-128743000D01*
X162506000Y-127543000D01*
X163806000Y-127543000D01*
X163806000Y-128743000D01*
X163806000Y-128743000D01*
G37*
G36*
X122915000Y-128406000D02*
X121015000Y-128406000D01*
X121015000Y-127606000D01*
X122915000Y-127606000D01*
X122915000Y-128406000D01*
X122915000Y-128406000D01*
G37*
G36*
X167284019Y-125651930D02*
X167465657Y-125707030D01*
X167633058Y-125796507D01*
X167779785Y-125916923D01*
X167900199Y-126063648D01*
X167989678Y-126231052D01*
X168044778Y-126412688D01*
X168058720Y-126554250D01*
X168058720Y-126953725D01*
X168044778Y-127095287D01*
X167989678Y-127276925D01*
X167900201Y-127444326D01*
X167779785Y-127591053D01*
X167633060Y-127711467D01*
X167465656Y-127800946D01*
X167284020Y-127856046D01*
X167095120Y-127874650D01*
X166906221Y-127856046D01*
X166724585Y-127800946D01*
X166557181Y-127711467D01*
X166410456Y-127591053D01*
X166290041Y-127444327D01*
X166245106Y-127360259D01*
X166200563Y-127276926D01*
X166200562Y-127276924D01*
X166145462Y-127095288D01*
X166131520Y-126953726D01*
X166131520Y-126554251D01*
X166145462Y-126412689D01*
X166200562Y-126231051D01*
X166290039Y-126063650D01*
X166410455Y-125916923D01*
X166557180Y-125796509D01*
X166724584Y-125707030D01*
X166906220Y-125651930D01*
X167095120Y-125633326D01*
X167284019Y-125651930D01*
X167284019Y-125651930D01*
G37*
G36*
X185064019Y-125651930D02*
X185245657Y-125707030D01*
X185413058Y-125796507D01*
X185559785Y-125916923D01*
X185680199Y-126063648D01*
X185769678Y-126231052D01*
X185824778Y-126412688D01*
X185838720Y-126554250D01*
X185838720Y-126953725D01*
X185824778Y-127095287D01*
X185769678Y-127276925D01*
X185680201Y-127444326D01*
X185559785Y-127591053D01*
X185413060Y-127711467D01*
X185245656Y-127800946D01*
X185064020Y-127856046D01*
X184875120Y-127874650D01*
X184686221Y-127856046D01*
X184504585Y-127800946D01*
X184337181Y-127711467D01*
X184190456Y-127591053D01*
X184070041Y-127444327D01*
X184025106Y-127360259D01*
X183980563Y-127276926D01*
X183980562Y-127276924D01*
X183925462Y-127095288D01*
X183911520Y-126953726D01*
X183911520Y-126554251D01*
X183925462Y-126412689D01*
X183980562Y-126231051D01*
X184070039Y-126063650D01*
X184190455Y-125916923D01*
X184337180Y-125796509D01*
X184504584Y-125707030D01*
X184686220Y-125651930D01*
X184875120Y-125633326D01*
X185064019Y-125651930D01*
X185064019Y-125651930D01*
G37*
G36*
X171372000Y-127800000D02*
X168672000Y-127800000D01*
X168672000Y-126200000D01*
X171372000Y-126200000D01*
X171372000Y-127800000D01*
X171372000Y-127800000D01*
G37*
G36*
X183372000Y-127800000D02*
X180672000Y-127800000D01*
X180672000Y-126200000D01*
X183372000Y-126200000D01*
X183372000Y-127800000D01*
X183372000Y-127800000D01*
G37*
G36*
X137633000Y-127738000D02*
X136433000Y-127738000D01*
X136433000Y-126438000D01*
X137633000Y-126438000D01*
X137633000Y-127738000D01*
X137633000Y-127738000D01*
G37*
G36*
X190765072Y-125819431D02*
X190940435Y-125892068D01*
X191098262Y-125997525D01*
X191232475Y-126131738D01*
X191337932Y-126289565D01*
X191410569Y-126464928D01*
X191447600Y-126651094D01*
X191447600Y-126840906D01*
X191410569Y-127027072D01*
X191337932Y-127202435D01*
X191232475Y-127360262D01*
X191098262Y-127494475D01*
X190940435Y-127599932D01*
X190765072Y-127672569D01*
X190578906Y-127709600D01*
X190389094Y-127709600D01*
X190202928Y-127672569D01*
X190027565Y-127599932D01*
X189869738Y-127494475D01*
X189735525Y-127360262D01*
X189630068Y-127202435D01*
X189557431Y-127027072D01*
X189520400Y-126840906D01*
X189520400Y-126651094D01*
X189557431Y-126464928D01*
X189630068Y-126289565D01*
X189735525Y-126131738D01*
X189869738Y-125997525D01*
X190027565Y-125892068D01*
X190202928Y-125819431D01*
X190389094Y-125782400D01*
X190578906Y-125782400D01*
X190765072Y-125819431D01*
X190765072Y-125819431D01*
G37*
G36*
X122915000Y-127156000D02*
X121015000Y-127156000D01*
X121015000Y-126356000D01*
X122915000Y-126356000D01*
X122915000Y-127156000D01*
X122915000Y-127156000D01*
G37*
G36*
X160328000Y-126965000D02*
X159028000Y-126965000D01*
X159028000Y-125765000D01*
X160328000Y-125765000D01*
X160328000Y-126965000D01*
X160328000Y-126965000D01*
G37*
G36*
X163884000Y-126965000D02*
X162584000Y-126965000D01*
X162584000Y-125765000D01*
X163884000Y-125765000D01*
X163884000Y-126965000D01*
X163884000Y-126965000D01*
G37*
G36*
X165584000Y-126965000D02*
X164284000Y-126965000D01*
X164284000Y-125765000D01*
X165584000Y-125765000D01*
X165584000Y-126965000D01*
X165584000Y-126965000D01*
G37*
G36*
X162028000Y-126965000D02*
X160728000Y-126965000D01*
X160728000Y-125765000D01*
X162028000Y-125765000D01*
X162028000Y-126965000D01*
X162028000Y-126965000D01*
G37*
G36*
X155976600Y-126757800D02*
X149676600Y-126757800D01*
X149676600Y-125057800D01*
X155976600Y-125057800D01*
X155976600Y-126757800D01*
X155976600Y-126757800D01*
G37*
G36*
X149063000Y-126341000D02*
X147863000Y-126341000D01*
X147863000Y-125041000D01*
X149063000Y-125041000D01*
X149063000Y-126341000D01*
X149063000Y-126341000D01*
G37*
G36*
X137633000Y-126038000D02*
X136433000Y-126038000D01*
X136433000Y-124738000D01*
X137633000Y-124738000D01*
X137633000Y-126038000D01*
X137633000Y-126038000D01*
G37*
G36*
X122915000Y-125906000D02*
X121015000Y-125906000D01*
X121015000Y-125106000D01*
X122915000Y-125106000D01*
X122915000Y-125906000D01*
X122915000Y-125906000D01*
G37*
G36*
X139538000Y-125706000D02*
X138338000Y-125706000D01*
X138338000Y-124406000D01*
X139538000Y-124406000D01*
X139538000Y-125706000D01*
X139538000Y-125706000D01*
G37*
G36*
X142459000Y-125706000D02*
X139862000Y-125706000D01*
X139862000Y-124406000D01*
X142459000Y-124406000D01*
X142459000Y-125706000D01*
X142459000Y-125706000D01*
G37*
G36*
X143983000Y-125706000D02*
X142783000Y-125706000D01*
X142783000Y-124406000D01*
X143983000Y-124406000D01*
X143983000Y-125706000D01*
X143983000Y-125706000D01*
G37*
G36*
X171372000Y-125500000D02*
X168672000Y-125500000D01*
X168672000Y-123900000D01*
X171372000Y-123900000D01*
X171372000Y-125500000D01*
X171372000Y-125500000D01*
G37*
G36*
X183372000Y-125500000D02*
X180672000Y-125500000D01*
X180672000Y-123900000D01*
X183372000Y-123900000D01*
X183372000Y-125500000D01*
X183372000Y-125500000D01*
G37*
G36*
X197184026Y-123052115D02*
X197402412Y-123142573D01*
X197598958Y-123273901D01*
X197766099Y-123441042D01*
X197897427Y-123637588D01*
X197987885Y-123855974D01*
X198034000Y-124087809D01*
X198034000Y-124324191D01*
X197987885Y-124556026D01*
X197897427Y-124774412D01*
X197766099Y-124970958D01*
X197598958Y-125138099D01*
X197402412Y-125269427D01*
X197184026Y-125359885D01*
X196952191Y-125406000D01*
X196715809Y-125406000D01*
X196483974Y-125359885D01*
X196265588Y-125269427D01*
X196069042Y-125138099D01*
X195901901Y-124970958D01*
X195770573Y-124774412D01*
X195680115Y-124556026D01*
X195634000Y-124324191D01*
X195634000Y-124087809D01*
X195680115Y-123855974D01*
X195770573Y-123637588D01*
X195901901Y-123441042D01*
X196069042Y-123273901D01*
X196265588Y-123142573D01*
X196483974Y-123052115D01*
X196715809Y-123006000D01*
X196952191Y-123006000D01*
X197184026Y-123052115D01*
X197184026Y-123052115D01*
G37*
G36*
X126419000Y-124904000D02*
X124419000Y-124904000D01*
X124419000Y-123504000D01*
X126419000Y-123504000D01*
X126419000Y-124904000D01*
X126419000Y-124904000D01*
G37*
G36*
X149063000Y-124641000D02*
X147863000Y-124641000D01*
X147863000Y-123341000D01*
X149063000Y-123341000D01*
X149063000Y-124641000D01*
X149063000Y-124641000D01*
G37*
G36*
X120115000Y-124256000D02*
X117115000Y-124256000D01*
X117115000Y-123056000D01*
X120115000Y-123056000D01*
X120115000Y-124256000D01*
X120115000Y-124256000D01*
G37*
G36*
X143983000Y-124006000D02*
X142783000Y-124006000D01*
X142783000Y-122706000D01*
X143983000Y-122706000D01*
X143983000Y-124006000D01*
X143983000Y-124006000D01*
G37*
G36*
X142459000Y-124006000D02*
X139862000Y-124006000D01*
X139862000Y-122706000D01*
X142459000Y-122706000D01*
X142459000Y-124006000D01*
X142459000Y-124006000D01*
G37*
G36*
X139538000Y-124006000D02*
X138338000Y-124006000D01*
X138338000Y-122706000D01*
X139538000Y-122706000D01*
X139538000Y-124006000D01*
X139538000Y-124006000D01*
G37*
G36*
X150996000Y-123993200D02*
X149696000Y-123993200D01*
X149696000Y-122793200D01*
X150996000Y-122793200D01*
X150996000Y-123993200D01*
X150996000Y-123993200D01*
G37*
G36*
X156602600Y-123993200D02*
X155302600Y-123993200D01*
X155302600Y-122793200D01*
X156602600Y-122793200D01*
X156602600Y-123993200D01*
X156602600Y-123993200D01*
G37*
G36*
X152696000Y-123993200D02*
X151396000Y-123993200D01*
X151396000Y-122793200D01*
X152696000Y-122793200D01*
X152696000Y-123993200D01*
X152696000Y-123993200D01*
G37*
G36*
X154902600Y-123993200D02*
X153602600Y-123993200D01*
X153602600Y-122793200D01*
X154902600Y-122793200D01*
X154902600Y-123993200D01*
X154902600Y-123993200D01*
G37*
G36*
X137898000Y-123790000D02*
X136598000Y-123790000D01*
X136598000Y-122590000D01*
X137898000Y-122590000D01*
X137898000Y-123790000D01*
X137898000Y-123790000D01*
G37*
G36*
X136198000Y-123790000D02*
X134898000Y-123790000D01*
X134898000Y-122590000D01*
X136198000Y-122590000D01*
X136198000Y-123790000D01*
X136198000Y-123790000D01*
G37*
G36*
X143529000Y-122164000D02*
X142729000Y-122164000D01*
X142729000Y-119964000D01*
X143529000Y-119964000D01*
X143529000Y-122164000D01*
X143529000Y-122164000D01*
G37*
G36*
X142259000Y-122164000D02*
X141459000Y-122164000D01*
X141459000Y-119964000D01*
X142259000Y-119964000D01*
X142259000Y-122164000D01*
X142259000Y-122164000D01*
G37*
G36*
X140989000Y-122164000D02*
X140189000Y-122164000D01*
X140189000Y-119964000D01*
X140989000Y-119964000D01*
X140989000Y-122164000D01*
X140989000Y-122164000D01*
G37*
G36*
X139719000Y-122164000D02*
X138919000Y-122164000D01*
X138919000Y-119964000D01*
X139719000Y-119964000D01*
X139719000Y-122164000D01*
X139719000Y-122164000D01*
G37*
G36*
X120115000Y-122044000D02*
X117115000Y-122044000D01*
X117115000Y-120844000D01*
X120115000Y-120844000D01*
X120115000Y-122044000D01*
X120115000Y-122044000D01*
G37*
G36*
X128522400Y-122037900D02*
X125522400Y-122037900D01*
X125522400Y-120837900D01*
X128522400Y-120837900D01*
X128522400Y-122037900D01*
X128522400Y-122037900D01*
G37*
G36*
X137898000Y-122012000D02*
X136598000Y-122012000D01*
X136598000Y-120812000D01*
X137898000Y-120812000D01*
X137898000Y-122012000D01*
X137898000Y-122012000D01*
G37*
G36*
X136198000Y-122012000D02*
X134898000Y-122012000D01*
X134898000Y-120812000D01*
X136198000Y-120812000D01*
X136198000Y-122012000D01*
X136198000Y-122012000D01*
G37*
G36*
X136198000Y-120234000D02*
X134837000Y-120234000D01*
X134812614Y-120236402D01*
X134789165Y-120243515D01*
X134767554Y-120255066D01*
X134748612Y-120270612D01*
X134733066Y-120289554D01*
X134721515Y-120311165D01*
X134714402Y-120334614D01*
X134712000Y-120359000D01*
X134712000Y-120499000D01*
X133512000Y-120499000D01*
X133512000Y-119199000D01*
X134773000Y-119199000D01*
X134797386Y-119196598D01*
X134820835Y-119189485D01*
X134842446Y-119177934D01*
X134861388Y-119162388D01*
X134876934Y-119143446D01*
X134888485Y-119121835D01*
X134895598Y-119098386D01*
X134898000Y-119074000D01*
X134898000Y-119034000D01*
X136198000Y-119034000D01*
X136198000Y-120234000D01*
X136198000Y-120234000D01*
G37*
G36*
X133188000Y-120499000D02*
X131988000Y-120499000D01*
X131988000Y-119199000D01*
X133188000Y-119199000D01*
X133188000Y-120499000D01*
X133188000Y-120499000D01*
G37*
G36*
X137898000Y-120234000D02*
X136598000Y-120234000D01*
X136598000Y-119034000D01*
X137898000Y-119034000D01*
X137898000Y-120234000D01*
X137898000Y-120234000D01*
G37*
G36*
X122915000Y-119994000D02*
X121015000Y-119994000D01*
X121015000Y-119194000D01*
X122915000Y-119194000D01*
X122915000Y-119994000D01*
X122915000Y-119994000D01*
G37*
G36*
X131322400Y-119987900D02*
X129422400Y-119987900D01*
X129422400Y-119187900D01*
X131322400Y-119187900D01*
X131322400Y-119987900D01*
X131322400Y-119987900D01*
G37*
G36*
X197184026Y-117210115D02*
X197402412Y-117300573D01*
X197598958Y-117431901D01*
X197766099Y-117599042D01*
X197897427Y-117795588D01*
X197987885Y-118013974D01*
X198034000Y-118245809D01*
X198034000Y-118482191D01*
X197987885Y-118714026D01*
X197897427Y-118932412D01*
X197766099Y-119128958D01*
X197598958Y-119296099D01*
X197402412Y-119427427D01*
X197184026Y-119517885D01*
X196952191Y-119564000D01*
X196715809Y-119564000D01*
X196483974Y-119517885D01*
X196265588Y-119427427D01*
X196069042Y-119296099D01*
X195901901Y-119128958D01*
X195770573Y-118932412D01*
X195680115Y-118714026D01*
X195634000Y-118482191D01*
X195634000Y-118245809D01*
X195680115Y-118013974D01*
X195770573Y-117795588D01*
X195901901Y-117599042D01*
X196069042Y-117431901D01*
X196265588Y-117300573D01*
X196483974Y-117210115D01*
X196715809Y-117164000D01*
X196952191Y-117164000D01*
X197184026Y-117210115D01*
X197184026Y-117210115D01*
G37*
G36*
X150803000Y-119472000D02*
X149503000Y-119472000D01*
X149503000Y-118272000D01*
X150803000Y-118272000D01*
X150803000Y-119472000D01*
X150803000Y-119472000D01*
G37*
G36*
X152503000Y-119472000D02*
X151203000Y-119472000D01*
X151203000Y-118272000D01*
X152503000Y-118272000D01*
X152503000Y-119472000D01*
X152503000Y-119472000D01*
G37*
G36*
X154447000Y-119472000D02*
X153147000Y-119472000D01*
X153147000Y-118272000D01*
X154447000Y-118272000D01*
X154447000Y-119472000D01*
X154447000Y-119472000D01*
G37*
G36*
X156147000Y-119472000D02*
X154847000Y-119472000D01*
X154847000Y-118272000D01*
X156147000Y-118272000D01*
X156147000Y-119472000D01*
X156147000Y-119472000D01*
G37*
G36*
X134712000Y-118799000D02*
X133512000Y-118799000D01*
X133512000Y-117499000D01*
X134712000Y-117499000D01*
X134712000Y-118799000D01*
X134712000Y-118799000D01*
G37*
G36*
X133188000Y-118799000D02*
X131988000Y-118799000D01*
X131988000Y-117499000D01*
X133188000Y-117499000D01*
X133188000Y-118799000D01*
X133188000Y-118799000D01*
G37*
G36*
X122915000Y-118744000D02*
X121015000Y-118744000D01*
X121015000Y-117944000D01*
X122915000Y-117944000D01*
X122915000Y-118744000D01*
X122915000Y-118744000D01*
G37*
G36*
X131322400Y-118737900D02*
X129422400Y-118737900D01*
X129422400Y-117937900D01*
X131322400Y-117937900D01*
X131322400Y-118737900D01*
X131322400Y-118737900D01*
G37*
G36*
X146650000Y-118721000D02*
X145450000Y-118721000D01*
X145450000Y-117421000D01*
X146650000Y-117421000D01*
X146650000Y-118721000D01*
X146650000Y-118721000D01*
G37*
G36*
X148301000Y-118721000D02*
X147101000Y-118721000D01*
X147101000Y-117421000D01*
X148301000Y-117421000D01*
X148301000Y-118721000D01*
X148301000Y-118721000D01*
G37*
G36*
X183372000Y-118682500D02*
X180672000Y-118682500D01*
X180672000Y-117082500D01*
X183372000Y-117082500D01*
X183372000Y-118682500D01*
X183372000Y-118682500D01*
G37*
G36*
X171372000Y-118682500D02*
X168672000Y-118682500D01*
X168672000Y-117082500D01*
X171372000Y-117082500D01*
X171372000Y-118682500D01*
X171372000Y-118682500D01*
G37*
G36*
X187925000Y-118213000D02*
X186725000Y-118213000D01*
X186725000Y-116913000D01*
X187925000Y-116913000D01*
X187925000Y-118213000D01*
X187925000Y-118213000D01*
G37*
G36*
X155976600Y-117817000D02*
X149676600Y-117817000D01*
X149676600Y-116117000D01*
X155976600Y-116117000D01*
X155976600Y-117817000D01*
X155976600Y-117817000D01*
G37*
G36*
X122915000Y-117494000D02*
X121015000Y-117494000D01*
X121015000Y-116694000D01*
X122915000Y-116694000D01*
X122915000Y-117494000D01*
X122915000Y-117494000D01*
G37*
G36*
X131322400Y-117487900D02*
X129422400Y-117487900D01*
X129422400Y-116687900D01*
X131322400Y-116687900D01*
X131322400Y-117487900D01*
X131322400Y-117487900D01*
G37*
G36*
X146650000Y-117021000D02*
X145450000Y-117021000D01*
X145450000Y-115721000D01*
X146650000Y-115721000D01*
X146650000Y-117021000D01*
X146650000Y-117021000D01*
G37*
G36*
X148301000Y-117021000D02*
X147101000Y-117021000D01*
X147101000Y-115721000D01*
X148301000Y-115721000D01*
X148301000Y-117021000D01*
X148301000Y-117021000D01*
G37*
G36*
X185064019Y-114714430D02*
X185245657Y-114769530D01*
X185413058Y-114859007D01*
X185559785Y-114979423D01*
X185680199Y-115126148D01*
X185769678Y-115293552D01*
X185824778Y-115475188D01*
X185838720Y-115616750D01*
X185838720Y-116016225D01*
X185824778Y-116157787D01*
X185769678Y-116339425D01*
X185680201Y-116506826D01*
X185559785Y-116653553D01*
X185413060Y-116773967D01*
X185245656Y-116863446D01*
X185064020Y-116918546D01*
X184875120Y-116937150D01*
X184686221Y-116918546D01*
X184504585Y-116863446D01*
X184337181Y-116773967D01*
X184190456Y-116653553D01*
X184070041Y-116506827D01*
X184003587Y-116382500D01*
X183980563Y-116339426D01*
X183980562Y-116339424D01*
X183925462Y-116157788D01*
X183911520Y-116016226D01*
X183911520Y-115616751D01*
X183925462Y-115475189D01*
X183980562Y-115293551D01*
X184070039Y-115126150D01*
X184190455Y-114979423D01*
X184337180Y-114859009D01*
X184504584Y-114769530D01*
X184686220Y-114714430D01*
X184875120Y-114695826D01*
X185064019Y-114714430D01*
X185064019Y-114714430D01*
G37*
G36*
X167284019Y-114714430D02*
X167465657Y-114769530D01*
X167633058Y-114859007D01*
X167779785Y-114979423D01*
X167900199Y-115126148D01*
X167989678Y-115293552D01*
X168044778Y-115475188D01*
X168058720Y-115616750D01*
X168058720Y-116016225D01*
X168044778Y-116157787D01*
X167989678Y-116339425D01*
X167900201Y-116506826D01*
X167779785Y-116653553D01*
X167633060Y-116773967D01*
X167465656Y-116863446D01*
X167284020Y-116918546D01*
X167095120Y-116937150D01*
X166906221Y-116918546D01*
X166724585Y-116863446D01*
X166557181Y-116773967D01*
X166410456Y-116653553D01*
X166290041Y-116506827D01*
X166223587Y-116382500D01*
X166200563Y-116339426D01*
X166200562Y-116339424D01*
X166145462Y-116157788D01*
X166131520Y-116016226D01*
X166131520Y-115616751D01*
X166145462Y-115475189D01*
X166200562Y-115293551D01*
X166290039Y-115126150D01*
X166410455Y-114979423D01*
X166557180Y-114859009D01*
X166724584Y-114769530D01*
X166906220Y-114714430D01*
X167095120Y-114695826D01*
X167284019Y-114714430D01*
X167284019Y-114714430D01*
G37*
G36*
X142259000Y-116764000D02*
X141459000Y-116764000D01*
X141459000Y-114564000D01*
X142259000Y-114564000D01*
X142259000Y-116764000D01*
X142259000Y-116764000D01*
G37*
G36*
X139719000Y-116764000D02*
X138919000Y-116764000D01*
X138919000Y-114564000D01*
X139719000Y-114564000D01*
X139719000Y-116764000D01*
X139719000Y-116764000D01*
G37*
G36*
X143529000Y-116764000D02*
X142729000Y-116764000D01*
X142729000Y-114564000D01*
X143529000Y-114564000D01*
X143529000Y-116764000D01*
X143529000Y-116764000D01*
G37*
G36*
X140989000Y-116764000D02*
X140189000Y-116764000D01*
X140189000Y-114564000D01*
X140989000Y-114564000D01*
X140989000Y-116764000D01*
X140989000Y-116764000D01*
G37*
G36*
X187925000Y-116513000D02*
X186725000Y-116513000D01*
X186725000Y-115213000D01*
X187925000Y-115213000D01*
X187925000Y-116513000D01*
X187925000Y-116513000D01*
G37*
G36*
X183372000Y-116382500D02*
X180672000Y-116382500D01*
X180672000Y-114782500D01*
X183372000Y-114782500D01*
X183372000Y-116382500D01*
X183372000Y-116382500D01*
G37*
G36*
X171372000Y-116382500D02*
X168672000Y-116382500D01*
X168672000Y-114782500D01*
X171372000Y-114782500D01*
X171372000Y-116382500D01*
X171372000Y-116382500D01*
G37*
G36*
X122915000Y-116244000D02*
X121015000Y-116244000D01*
X121015000Y-115444000D01*
X122915000Y-115444000D01*
X122915000Y-116244000D01*
X122915000Y-116244000D01*
G37*
G36*
X131322400Y-116237900D02*
X129422400Y-116237900D01*
X129422400Y-115437900D01*
X131322400Y-115437900D01*
X131322400Y-116237900D01*
X131322400Y-116237900D01*
G37*
G36*
X136198000Y-115789000D02*
X134898000Y-115789000D01*
X134898000Y-114589000D01*
X136198000Y-114589000D01*
X136198000Y-115789000D01*
X136198000Y-115789000D01*
G37*
G36*
X137898000Y-115789000D02*
X136598000Y-115789000D01*
X136598000Y-114589000D01*
X137898000Y-114589000D01*
X137898000Y-115789000D01*
X137898000Y-115789000D01*
G37*
G36*
X122915000Y-114994000D02*
X121015000Y-114994000D01*
X121015000Y-114194000D01*
X122915000Y-114194000D01*
X122915000Y-114994000D01*
X122915000Y-114994000D01*
G37*
G36*
X131322400Y-114987900D02*
X129422400Y-114987900D01*
X129422400Y-114187900D01*
X131322400Y-114187900D01*
X131322400Y-114987900D01*
X131322400Y-114987900D01*
G37*
G36*
X160493000Y-114403000D02*
X159293000Y-114403000D01*
X159293000Y-113103000D01*
X160493000Y-113103000D01*
X160493000Y-114403000D01*
X160493000Y-114403000D01*
G37*
G36*
X167284019Y-112174430D02*
X167465657Y-112229530D01*
X167633058Y-112319007D01*
X167779785Y-112439423D01*
X167900199Y-112586148D01*
X167900200Y-112586150D01*
X167962658Y-112703000D01*
X167989678Y-112753552D01*
X168044778Y-112935188D01*
X168058720Y-113076750D01*
X168058720Y-113476225D01*
X168044778Y-113617787D01*
X167989678Y-113799425D01*
X167900201Y-113966826D01*
X167779785Y-114113553D01*
X167633060Y-114233967D01*
X167465656Y-114323446D01*
X167284020Y-114378546D01*
X167095120Y-114397150D01*
X166906221Y-114378546D01*
X166724585Y-114323446D01*
X166557181Y-114233967D01*
X166410456Y-114113553D01*
X166290041Y-113966827D01*
X166253391Y-113898259D01*
X166200563Y-113799426D01*
X166182668Y-113740436D01*
X166145462Y-113617788D01*
X166131520Y-113476226D01*
X166131520Y-113076751D01*
X166145462Y-112935189D01*
X166200562Y-112753551D01*
X166290039Y-112586150D01*
X166410455Y-112439423D01*
X166557180Y-112319009D01*
X166724584Y-112229530D01*
X166906220Y-112174430D01*
X167095120Y-112155826D01*
X167284019Y-112174430D01*
X167284019Y-112174430D01*
G37*
G36*
X185064019Y-112174430D02*
X185245657Y-112229530D01*
X185413058Y-112319007D01*
X185559785Y-112439423D01*
X185680199Y-112586148D01*
X185680200Y-112586150D01*
X185742658Y-112703000D01*
X185769678Y-112753552D01*
X185824778Y-112935188D01*
X185838720Y-113076750D01*
X185838720Y-113476225D01*
X185824778Y-113617787D01*
X185769678Y-113799425D01*
X185680201Y-113966826D01*
X185559785Y-114113553D01*
X185413060Y-114233967D01*
X185245656Y-114323446D01*
X185064020Y-114378546D01*
X184875120Y-114397150D01*
X184686221Y-114378546D01*
X184504585Y-114323446D01*
X184337181Y-114233967D01*
X184190456Y-114113553D01*
X184070041Y-113966827D01*
X184033391Y-113898259D01*
X183980563Y-113799426D01*
X183962668Y-113740436D01*
X183925462Y-113617788D01*
X183911520Y-113476226D01*
X183911520Y-113076751D01*
X183925462Y-112935189D01*
X183980562Y-112753551D01*
X184070039Y-112586150D01*
X184190455Y-112439423D01*
X184337180Y-112319009D01*
X184504584Y-112229530D01*
X184686220Y-112174430D01*
X184875120Y-112155826D01*
X185064019Y-112174430D01*
X185064019Y-112174430D01*
G37*
G36*
X165584000Y-114392000D02*
X164284000Y-114392000D01*
X164284000Y-113192000D01*
X165584000Y-113192000D01*
X165584000Y-114392000D01*
X165584000Y-114392000D01*
G37*
G36*
X163884000Y-114392000D02*
X162584000Y-114392000D01*
X162584000Y-113192000D01*
X163884000Y-113192000D01*
X163884000Y-114392000D01*
X163884000Y-114392000D01*
G37*
G36*
X190765072Y-112357431D02*
X190940435Y-112430068D01*
X191098262Y-112535525D01*
X191232475Y-112669738D01*
X191337932Y-112827565D01*
X191410569Y-113002928D01*
X191447600Y-113189094D01*
X191447600Y-113378906D01*
X191410569Y-113565072D01*
X191337932Y-113740435D01*
X191232475Y-113898262D01*
X191098262Y-114032475D01*
X190940435Y-114137932D01*
X190765072Y-114210569D01*
X190578906Y-114247600D01*
X190389094Y-114247600D01*
X190202928Y-114210569D01*
X190027565Y-114137932D01*
X189869738Y-114032475D01*
X189735525Y-113898262D01*
X189630068Y-113740435D01*
X189557431Y-113565072D01*
X189520400Y-113378906D01*
X189520400Y-113189094D01*
X189557431Y-113002928D01*
X189630068Y-112827565D01*
X189735525Y-112669738D01*
X189869738Y-112535525D01*
X190027565Y-112430068D01*
X190202928Y-112357431D01*
X190389094Y-112320400D01*
X190578906Y-112320400D01*
X190765072Y-112357431D01*
X190765072Y-112357431D01*
G37*
G36*
X171372000Y-114082500D02*
X168672000Y-114082500D01*
X168672000Y-112482500D01*
X171372000Y-112482500D01*
X171372000Y-114082500D01*
X171372000Y-114082500D01*
G37*
G36*
X183372000Y-114082500D02*
X180672000Y-114082500D01*
X180672000Y-112482500D01*
X183372000Y-112482500D01*
X183372000Y-114082500D01*
X183372000Y-114082500D01*
G37*
G36*
X141125500Y-113704500D02*
X139925500Y-113704500D01*
X139925500Y-112404500D01*
X141125500Y-112404500D01*
X141125500Y-113704500D01*
X141125500Y-113704500D01*
G37*
G36*
X120115000Y-113344000D02*
X117115000Y-113344000D01*
X117115000Y-112144000D01*
X120115000Y-112144000D01*
X120115000Y-113344000D01*
X120115000Y-113344000D01*
G37*
G36*
X128522400Y-113337900D02*
X125522400Y-113337900D01*
X125522400Y-112137900D01*
X128522400Y-112137900D01*
X128522400Y-113337900D01*
X128522400Y-113337900D01*
G37*
G36*
X160493000Y-112703000D02*
X159293000Y-112703000D01*
X159293000Y-111403000D01*
X160493000Y-111403000D01*
X160493000Y-112703000D01*
X160493000Y-112703000D01*
G37*
G36*
X162233000Y-112614000D02*
X160933000Y-112614000D01*
X160933000Y-111414000D01*
X162233000Y-111414000D01*
X162233000Y-112614000D01*
X162233000Y-112614000D01*
G37*
G36*
X163933000Y-112614000D02*
X162633000Y-112614000D01*
X162633000Y-111414000D01*
X163933000Y-111414000D01*
X163933000Y-112614000D01*
X163933000Y-112614000D01*
G37*
G36*
X141125500Y-112004500D02*
X139925500Y-112004500D01*
X139925500Y-110704500D01*
X141125500Y-110704500D01*
X141125500Y-112004500D01*
X141125500Y-112004500D01*
G37*
G36*
X185064019Y-109634430D02*
X185245657Y-109689530D01*
X185413058Y-109779007D01*
X185559785Y-109899423D01*
X185680199Y-110046148D01*
X185680200Y-110046150D01*
X185729028Y-110137500D01*
X185769678Y-110213552D01*
X185824778Y-110395188D01*
X185838720Y-110536750D01*
X185838720Y-110936225D01*
X185824778Y-111077787D01*
X185769678Y-111259425D01*
X185680201Y-111426826D01*
X185559785Y-111573553D01*
X185413060Y-111693967D01*
X185245656Y-111783446D01*
X185064020Y-111838546D01*
X184875120Y-111857150D01*
X184686221Y-111838546D01*
X184504585Y-111783446D01*
X184337181Y-111693967D01*
X184190456Y-111573553D01*
X184070041Y-111426827D01*
X184063185Y-111414000D01*
X183980563Y-111259426D01*
X183962668Y-111200436D01*
X183925462Y-111077788D01*
X183911520Y-110936226D01*
X183911520Y-110536751D01*
X183925462Y-110395189D01*
X183980562Y-110213551D01*
X184070039Y-110046150D01*
X184190455Y-109899423D01*
X184337180Y-109779009D01*
X184504584Y-109689530D01*
X184686220Y-109634430D01*
X184875120Y-109615826D01*
X185064019Y-109634430D01*
X185064019Y-109634430D01*
G37*
G36*
X167284019Y-109634430D02*
X167465657Y-109689530D01*
X167633058Y-109779007D01*
X167779785Y-109899423D01*
X167900199Y-110046148D01*
X167900200Y-110046150D01*
X167949028Y-110137500D01*
X167989678Y-110213552D01*
X168044778Y-110395188D01*
X168058720Y-110536750D01*
X168058720Y-110936225D01*
X168044778Y-111077787D01*
X167989678Y-111259425D01*
X167900201Y-111426826D01*
X167779785Y-111573553D01*
X167633060Y-111693967D01*
X167465656Y-111783446D01*
X167284020Y-111838546D01*
X167095120Y-111857150D01*
X166906221Y-111838546D01*
X166724585Y-111783446D01*
X166557181Y-111693967D01*
X166410456Y-111573553D01*
X166290041Y-111426827D01*
X166283185Y-111414000D01*
X166200563Y-111259426D01*
X166182668Y-111200436D01*
X166145462Y-111077788D01*
X166131520Y-110936226D01*
X166131520Y-110536751D01*
X166145462Y-110395189D01*
X166200562Y-110213551D01*
X166290039Y-110046150D01*
X166410455Y-109899423D01*
X166557180Y-109779009D01*
X166724584Y-109689530D01*
X166906220Y-109634430D01*
X167095120Y-109615826D01*
X167284019Y-109634430D01*
X167284019Y-109634430D01*
G37*
G36*
X183372000Y-111782500D02*
X180672000Y-111782500D01*
X180672000Y-110182500D01*
X183372000Y-110182500D01*
X183372000Y-111782500D01*
X183372000Y-111782500D01*
G37*
G36*
X171372000Y-111782500D02*
X168672000Y-111782500D01*
X168672000Y-110182500D01*
X171372000Y-110182500D01*
X171372000Y-111782500D01*
X171372000Y-111782500D01*
G37*
G36*
X190765072Y-109817431D02*
X190940435Y-109890068D01*
X191098262Y-109995525D01*
X191232475Y-110129738D01*
X191337932Y-110287565D01*
X191410569Y-110462928D01*
X191447600Y-110649094D01*
X191447600Y-110838906D01*
X191410569Y-111025072D01*
X191337932Y-111200435D01*
X191232475Y-111358262D01*
X191098262Y-111492475D01*
X190940435Y-111597932D01*
X190765072Y-111670569D01*
X190578906Y-111707600D01*
X190389094Y-111707600D01*
X190202928Y-111670569D01*
X190027565Y-111597932D01*
X189869738Y-111492475D01*
X189735525Y-111358262D01*
X189630068Y-111200435D01*
X189557431Y-111025072D01*
X189520400Y-110838906D01*
X189520400Y-110649094D01*
X189557431Y-110462928D01*
X189630068Y-110287565D01*
X189735525Y-110129738D01*
X189869738Y-109995525D01*
X190027565Y-109890068D01*
X190202928Y-109817431D01*
X190389094Y-109780400D01*
X190578906Y-109780400D01*
X190765072Y-109817431D01*
X190765072Y-109817431D01*
G37*
G36*
X120115000Y-111142000D02*
X117115000Y-111142000D01*
X117115000Y-109942000D01*
X120115000Y-109942000D01*
X120115000Y-111142000D01*
X120115000Y-111142000D01*
G37*
G36*
X162155000Y-110963000D02*
X160855000Y-110963000D01*
X160855000Y-109763000D01*
X162155000Y-109763000D01*
X162155000Y-110963000D01*
X162155000Y-110963000D01*
G37*
G36*
X165711000Y-110963000D02*
X164411000Y-110963000D01*
X164411000Y-109763000D01*
X165711000Y-109763000D01*
X165711000Y-110963000D01*
X165711000Y-110963000D01*
G37*
G36*
X164011000Y-110963000D02*
X162711000Y-110963000D01*
X162711000Y-109763000D01*
X164011000Y-109763000D01*
X164011000Y-110963000D01*
X164011000Y-110963000D01*
G37*
G36*
X160455000Y-110963000D02*
X159155000Y-110963000D01*
X159155000Y-109763000D01*
X160455000Y-109763000D01*
X160455000Y-110963000D01*
X160455000Y-110963000D01*
G37*
G36*
X155976600Y-110617000D02*
X149676600Y-110617000D01*
X149676600Y-108917000D01*
X155976600Y-108917000D01*
X155976600Y-110617000D01*
X155976600Y-110617000D01*
G37*
G36*
X149063000Y-110339000D02*
X147863000Y-110339000D01*
X147863000Y-109039000D01*
X149063000Y-109039000D01*
X149063000Y-110339000D01*
X149063000Y-110339000D01*
G37*
G36*
X141390500Y-110137500D02*
X140090500Y-110137500D01*
X140090500Y-108937500D01*
X141390500Y-108937500D01*
X141390500Y-110137500D01*
X141390500Y-110137500D01*
G37*
G36*
X139690500Y-110137500D02*
X138390500Y-110137500D01*
X138390500Y-108937500D01*
X139690500Y-108937500D01*
X139690500Y-110137500D01*
X139690500Y-110137500D01*
G37*
G36*
X171372000Y-109482500D02*
X168672000Y-109482500D01*
X168672000Y-107882500D01*
X171372000Y-107882500D01*
X171372000Y-109482500D01*
X171372000Y-109482500D01*
G37*
G36*
X183372000Y-109482500D02*
X180672000Y-109482500D01*
X180672000Y-107882500D01*
X183372000Y-107882500D01*
X183372000Y-109482500D01*
X183372000Y-109482500D01*
G37*
G36*
X197184026Y-107050115D02*
X197402412Y-107140573D01*
X197598958Y-107271901D01*
X197766099Y-107439042D01*
X197897427Y-107635588D01*
X197987885Y-107853974D01*
X198034000Y-108085809D01*
X198034000Y-108322191D01*
X197987885Y-108554026D01*
X197897427Y-108772412D01*
X197766099Y-108968958D01*
X197598958Y-109136099D01*
X197402412Y-109267427D01*
X197184026Y-109357885D01*
X196952191Y-109404000D01*
X196715809Y-109404000D01*
X196483974Y-109357885D01*
X196265588Y-109267427D01*
X196069042Y-109136099D01*
X195901901Y-108968958D01*
X195770573Y-108772412D01*
X195680115Y-108554026D01*
X195634000Y-108322191D01*
X195634000Y-108085809D01*
X195680115Y-107853974D01*
X195770573Y-107635588D01*
X195901901Y-107439042D01*
X196069042Y-107271901D01*
X196265588Y-107140573D01*
X196483974Y-107050115D01*
X196715809Y-107004000D01*
X196952191Y-107004000D01*
X197184026Y-107050115D01*
X197184026Y-107050115D01*
G37*
G36*
X122915000Y-109092000D02*
X121015000Y-109092000D01*
X121015000Y-108292000D01*
X122915000Y-108292000D01*
X122915000Y-109092000D01*
X122915000Y-109092000D01*
G37*
G36*
X149063000Y-108639000D02*
X147863000Y-108639000D01*
X147863000Y-107339000D01*
X149063000Y-107339000D01*
X149063000Y-108639000D01*
X149063000Y-108639000D01*
G37*
G36*
X152884000Y-108042000D02*
X151584000Y-108042000D01*
X151584000Y-106842000D01*
X152884000Y-106842000D01*
X152884000Y-108042000D01*
X152884000Y-108042000D01*
G37*
G36*
X151184000Y-108042000D02*
X149884000Y-108042000D01*
X149884000Y-106842000D01*
X151184000Y-106842000D01*
X151184000Y-108042000D01*
X151184000Y-108042000D01*
G37*
G36*
X156313000Y-108042000D02*
X155013000Y-108042000D01*
X155013000Y-106842000D01*
X156313000Y-106842000D01*
X156313000Y-108042000D01*
X156313000Y-108042000D01*
G37*
G36*
X154613000Y-108042000D02*
X153313000Y-108042000D01*
X153313000Y-106842000D01*
X154613000Y-106842000D01*
X154613000Y-108042000D01*
X154613000Y-108042000D01*
G37*
G36*
X122915000Y-107842000D02*
X121015000Y-107842000D01*
X121015000Y-107042000D01*
X122915000Y-107042000D01*
X122915000Y-107842000D01*
X122915000Y-107842000D01*
G37*
G36*
X133743100Y-107461000D02*
X130543100Y-107461000D01*
X130543100Y-106661000D01*
X133743100Y-106661000D01*
X133743100Y-107461000D01*
X133743100Y-107461000D01*
G37*
G36*
X127343100Y-107461000D02*
X124143100Y-107461000D01*
X124143100Y-106661000D01*
X127343100Y-106661000D01*
X127343100Y-107461000D01*
X127343100Y-107461000D01*
G37*
G36*
X137253459Y-107168393D02*
X136003459Y-107168393D01*
X136003459Y-106318393D01*
X137253459Y-106318393D01*
X137253459Y-107168393D01*
X137253459Y-107168393D01*
G37*
G36*
X141684400Y-107153000D02*
X140384400Y-107153000D01*
X140384400Y-105953000D01*
X141684400Y-105953000D01*
X141684400Y-107153000D01*
X141684400Y-107153000D01*
G37*
G36*
X143384400Y-107153000D02*
X142084400Y-107153000D01*
X142084400Y-105953000D01*
X143384400Y-105953000D01*
X143384400Y-107153000D01*
X143384400Y-107153000D01*
G37*
G36*
X122915000Y-106592000D02*
X121015000Y-106592000D01*
X121015000Y-105792000D01*
X122915000Y-105792000D01*
X122915000Y-106592000D01*
X122915000Y-106592000D01*
G37*
G36*
X139553459Y-106218393D02*
X138303459Y-106218393D01*
X138303459Y-105368393D01*
X139553459Y-105368393D01*
X139553459Y-106218393D01*
X139553459Y-106218393D01*
G37*
G36*
X127343100Y-106191000D02*
X124143100Y-106191000D01*
X124143100Y-105391000D01*
X127343100Y-105391000D01*
X127343100Y-106191000D01*
X127343100Y-106191000D01*
G37*
G36*
X133743100Y-106191000D02*
X130543100Y-106191000D01*
X130543100Y-105391000D01*
X133743100Y-105391000D01*
X133743100Y-106191000D01*
X133743100Y-106191000D01*
G37*
G36*
X135461300Y-105652700D02*
X134261300Y-105652700D01*
X134261300Y-104352700D01*
X135461300Y-104352700D01*
X135461300Y-105652700D01*
X135461300Y-105652700D01*
G37*
G36*
X141684400Y-105502000D02*
X140384400Y-105502000D01*
X140384400Y-104302000D01*
X141684400Y-104302000D01*
X141684400Y-105502000D01*
X141684400Y-105502000D01*
G37*
G36*
X143384400Y-105502000D02*
X142084400Y-105502000D01*
X142084400Y-104302000D01*
X143384400Y-104302000D01*
X143384400Y-105502000D01*
X143384400Y-105502000D01*
G37*
G36*
X137253459Y-105268393D02*
X136003459Y-105268393D01*
X136003459Y-104418393D01*
X137253459Y-104418393D01*
X137253459Y-105268393D01*
X137253459Y-105268393D01*
G37*
G36*
X120115000Y-104942000D02*
X117115000Y-104942000D01*
X117115000Y-103742000D01*
X120115000Y-103742000D01*
X120115000Y-104942000D01*
X120115000Y-104942000D01*
G37*
G36*
X133743100Y-104921000D02*
X130543100Y-104921000D01*
X130543100Y-104121000D01*
X133743100Y-104121000D01*
X133743100Y-104921000D01*
X133743100Y-104921000D01*
G37*
G36*
X127343100Y-104921000D02*
X124143100Y-104921000D01*
X124143100Y-104121000D01*
X127343100Y-104121000D01*
X127343100Y-104921000D01*
X127343100Y-104921000D01*
G37*
G36*
X135461300Y-103952700D02*
X134261300Y-103952700D01*
X134261300Y-102652700D01*
X135461300Y-102652700D01*
X135461300Y-103952700D01*
X135461300Y-103952700D01*
G37*
G36*
X133743100Y-103651000D02*
X130543100Y-103651000D01*
X130543100Y-102851000D01*
X133743100Y-102851000D01*
X133743100Y-103651000D01*
X133743100Y-103651000D01*
G37*
G36*
X127343100Y-103651000D02*
X124143100Y-103651000D01*
X124143100Y-102851000D01*
X127343100Y-102851000D01*
X127343100Y-103651000D01*
X127343100Y-103651000D01*
G37*
G36*
X150803000Y-103597000D02*
X149503000Y-103597000D01*
X149503000Y-102397000D01*
X150803000Y-102397000D01*
X150803000Y-103597000D01*
X150803000Y-103597000D01*
G37*
G36*
X156020000Y-103597000D02*
X154720000Y-103597000D01*
X154720000Y-102397000D01*
X156020000Y-102397000D01*
X156020000Y-103597000D01*
X156020000Y-103597000D01*
G37*
G36*
X154320000Y-103597000D02*
X153020000Y-103597000D01*
X153020000Y-102397000D01*
X154320000Y-102397000D01*
X154320000Y-103597000D01*
X154320000Y-103597000D01*
G37*
G36*
X152503000Y-103597000D02*
X151203000Y-103597000D01*
X151203000Y-102397000D01*
X152503000Y-102397000D01*
X152503000Y-103597000D01*
X152503000Y-103597000D01*
G37*
G36*
X197184026Y-101204115D02*
X197402412Y-101294573D01*
X197598958Y-101425901D01*
X197766099Y-101593042D01*
X197897427Y-101789588D01*
X197987885Y-102007974D01*
X198034000Y-102239809D01*
X198034000Y-102476191D01*
X197987885Y-102708026D01*
X197897427Y-102926412D01*
X197766099Y-103122958D01*
X197598958Y-103290099D01*
X197402412Y-103421427D01*
X197184026Y-103511885D01*
X196952191Y-103558000D01*
X196715809Y-103558000D01*
X196483974Y-103511885D01*
X196265588Y-103421427D01*
X196069042Y-103290099D01*
X195901901Y-103122958D01*
X195770573Y-102926412D01*
X195680115Y-102708026D01*
X195634000Y-102476191D01*
X195634000Y-102239809D01*
X195680115Y-102007974D01*
X195770573Y-101789588D01*
X195901901Y-101593042D01*
X196069042Y-101425901D01*
X196265588Y-101294573D01*
X196483974Y-101204115D01*
X196715809Y-101158000D01*
X196952191Y-101158000D01*
X197184026Y-101204115D01*
X197184026Y-101204115D01*
G37*
G36*
X142862283Y-103424303D02*
X141662283Y-103424303D01*
X141662283Y-102124303D01*
X142862283Y-102124303D01*
X142862283Y-103424303D01*
X142862283Y-103424303D01*
G37*
G36*
X141208469Y-103424303D02*
X140008469Y-103424303D01*
X140008469Y-102124303D01*
X141208469Y-102124303D01*
X141208469Y-103424303D01*
X141208469Y-103424303D01*
G37*
G36*
X148301000Y-103354000D02*
X147101000Y-103354000D01*
X147101000Y-102054000D01*
X148301000Y-102054000D01*
X148301000Y-103354000D01*
X148301000Y-103354000D01*
G37*
G36*
X146650000Y-103354000D02*
X145450000Y-103354000D01*
X145450000Y-102054000D01*
X146650000Y-102054000D01*
X146650000Y-103354000D01*
X146650000Y-103354000D01*
G37*
G36*
X117391000Y-102868000D02*
X116291000Y-102868000D01*
X116291000Y-101168000D01*
X117391000Y-101168000D01*
X117391000Y-102868000D01*
X117391000Y-102868000D01*
G37*
G36*
X120691000Y-102868000D02*
X119591000Y-102868000D01*
X119591000Y-101168000D01*
X120691000Y-101168000D01*
X120691000Y-102868000D01*
X120691000Y-102868000D01*
G37*
G36*
X171377600Y-102696000D02*
X168677600Y-102696000D01*
X168677600Y-101096000D01*
X171377600Y-101096000D01*
X171377600Y-102696000D01*
X171377600Y-102696000D01*
G37*
G36*
X183377600Y-102696000D02*
X180677600Y-102696000D01*
X180677600Y-101096000D01*
X183377600Y-101096000D01*
X183377600Y-102696000D01*
X183377600Y-102696000D01*
G37*
G36*
X188052000Y-102338000D02*
X186852000Y-102338000D01*
X186852000Y-101038000D01*
X188052000Y-101038000D01*
X188052000Y-102338000D01*
X188052000Y-102338000D01*
G37*
G36*
X155981200Y-101815000D02*
X149681200Y-101815000D01*
X149681200Y-100115000D01*
X155981200Y-100115000D01*
X155981200Y-101815000D01*
X155981200Y-101815000D01*
G37*
G36*
X142862283Y-101724303D02*
X141662283Y-101724303D01*
X141662283Y-100424303D01*
X142862283Y-100424303D01*
X142862283Y-101724303D01*
X142862283Y-101724303D01*
G37*
G36*
X141208469Y-101724303D02*
X140008469Y-101724303D01*
X140008469Y-100424303D01*
X141208469Y-100424303D01*
X141208469Y-101724303D01*
X141208469Y-101724303D01*
G37*
G36*
X148301000Y-101654000D02*
X147101000Y-101654000D01*
X147101000Y-100354000D01*
X148301000Y-100354000D01*
X148301000Y-101654000D01*
X148301000Y-101654000D01*
G37*
G36*
X146650000Y-101654000D02*
X145450000Y-101654000D01*
X145450000Y-100354000D01*
X146650000Y-100354000D01*
X146650000Y-101654000D01*
X146650000Y-101654000D01*
G37*
G36*
X185069619Y-98727930D02*
X185251257Y-98783030D01*
X185418658Y-98872507D01*
X185565385Y-98992923D01*
X185685799Y-99139648D01*
X185775278Y-99307052D01*
X185830378Y-99488688D01*
X185844320Y-99630250D01*
X185844320Y-100029725D01*
X185830378Y-100171287D01*
X185775278Y-100352925D01*
X185685801Y-100520326D01*
X185565385Y-100667053D01*
X185418660Y-100787467D01*
X185251256Y-100876946D01*
X185069620Y-100932046D01*
X184880720Y-100950650D01*
X184691821Y-100932046D01*
X184510185Y-100876946D01*
X184342781Y-100787467D01*
X184196056Y-100667053D01*
X184075641Y-100520327D01*
X184009187Y-100396000D01*
X183986163Y-100352926D01*
X183986162Y-100352924D01*
X183931062Y-100171288D01*
X183917120Y-100029726D01*
X183917120Y-99630251D01*
X183931062Y-99488689D01*
X183986162Y-99307051D01*
X184075639Y-99139650D01*
X184196055Y-98992923D01*
X184342780Y-98872509D01*
X184510184Y-98783030D01*
X184691820Y-98727930D01*
X184880720Y-98709326D01*
X185069619Y-98727930D01*
X185069619Y-98727930D01*
G37*
G36*
X167289619Y-98727930D02*
X167471257Y-98783030D01*
X167638658Y-98872507D01*
X167785385Y-98992923D01*
X167905799Y-99139648D01*
X167995278Y-99307052D01*
X168050378Y-99488688D01*
X168064320Y-99630250D01*
X168064320Y-100029725D01*
X168050378Y-100171287D01*
X167995278Y-100352925D01*
X167905801Y-100520326D01*
X167785385Y-100667053D01*
X167638660Y-100787467D01*
X167471256Y-100876946D01*
X167289620Y-100932046D01*
X167100720Y-100950650D01*
X166911821Y-100932046D01*
X166730185Y-100876946D01*
X166562781Y-100787467D01*
X166416056Y-100667053D01*
X166295641Y-100520327D01*
X166229187Y-100396000D01*
X166206163Y-100352926D01*
X166206162Y-100352924D01*
X166151062Y-100171288D01*
X166137120Y-100029726D01*
X166137120Y-99630251D01*
X166151062Y-99488689D01*
X166206162Y-99307051D01*
X166295639Y-99139650D01*
X166416055Y-98992923D01*
X166562780Y-98872509D01*
X166730184Y-98783030D01*
X166911820Y-98727930D01*
X167100720Y-98709326D01*
X167289619Y-98727930D01*
X167289619Y-98727930D01*
G37*
G36*
X188052000Y-100638000D02*
X186852000Y-100638000D01*
X186852000Y-99338000D01*
X188052000Y-99338000D01*
X188052000Y-100638000D01*
X188052000Y-100638000D01*
G37*
G36*
X183377600Y-100396000D02*
X180677600Y-100396000D01*
X180677600Y-98796000D01*
X183377600Y-98796000D01*
X183377600Y-100396000D01*
X183377600Y-100396000D01*
G37*
G36*
X171377600Y-100396000D02*
X168677600Y-100396000D01*
X168677600Y-98796000D01*
X171377600Y-98796000D01*
X171377600Y-100396000D01*
X171377600Y-100396000D01*
G37*
G36*
X137980388Y-95800102D02*
X133773102Y-100007388D01*
X132712441Y-98946727D01*
X136919727Y-94739441D01*
X137980388Y-95800102D01*
X137980388Y-95800102D01*
G37*
G36*
X131828559Y-98946727D02*
X130767898Y-100007388D01*
X126560612Y-95800102D01*
X127621273Y-94739441D01*
X131828559Y-98946727D01*
X131828559Y-98946727D01*
G37*
G36*
X160239000Y-98909000D02*
X159039000Y-98909000D01*
X159039000Y-97609000D01*
X160239000Y-97609000D01*
X160239000Y-98909000D01*
X160239000Y-98909000D01*
G37*
G36*
X163884000Y-98644000D02*
X162584000Y-98644000D01*
X162584000Y-97444000D01*
X163884000Y-97444000D01*
X163884000Y-98644000D01*
X163884000Y-98644000D01*
G37*
G36*
X165584000Y-98644000D02*
X164284000Y-98644000D01*
X164284000Y-97444000D01*
X165584000Y-97444000D01*
X165584000Y-98644000D01*
X165584000Y-98644000D01*
G37*
G36*
X167289619Y-96187930D02*
X167471257Y-96243030D01*
X167638658Y-96332507D01*
X167785385Y-96452923D01*
X167905799Y-96599648D01*
X167995278Y-96767052D01*
X168050378Y-96948688D01*
X168064320Y-97090250D01*
X168064320Y-97489725D01*
X168050378Y-97631287D01*
X167995278Y-97812925D01*
X167905801Y-97980326D01*
X167785385Y-98127053D01*
X167638660Y-98247467D01*
X167471256Y-98336946D01*
X167289620Y-98392046D01*
X167100720Y-98410650D01*
X166911821Y-98392046D01*
X166730185Y-98336946D01*
X166562781Y-98247467D01*
X166416056Y-98127053D01*
X166295641Y-97980327D01*
X166264156Y-97921422D01*
X166206163Y-97812926D01*
X166206162Y-97812924D01*
X166151062Y-97631288D01*
X166137120Y-97489726D01*
X166137120Y-97090251D01*
X166151062Y-96948689D01*
X166206162Y-96767051D01*
X166295639Y-96599650D01*
X166416055Y-96452923D01*
X166562780Y-96332509D01*
X166730184Y-96243030D01*
X166911820Y-96187930D01*
X167100720Y-96169326D01*
X167289619Y-96187930D01*
X167289619Y-96187930D01*
G37*
G36*
X185069619Y-96187930D02*
X185251257Y-96243030D01*
X185418658Y-96332507D01*
X185565385Y-96452923D01*
X185685799Y-96599648D01*
X185775278Y-96767052D01*
X185830378Y-96948688D01*
X185844320Y-97090250D01*
X185844320Y-97489725D01*
X185830378Y-97631287D01*
X185775278Y-97812925D01*
X185685801Y-97980326D01*
X185565385Y-98127053D01*
X185418660Y-98247467D01*
X185251256Y-98336946D01*
X185069620Y-98392046D01*
X184880720Y-98410650D01*
X184691821Y-98392046D01*
X184510185Y-98336946D01*
X184342781Y-98247467D01*
X184196056Y-98127053D01*
X184075641Y-97980327D01*
X184044156Y-97921422D01*
X183986163Y-97812926D01*
X183986162Y-97812924D01*
X183931062Y-97631288D01*
X183917120Y-97489726D01*
X183917120Y-97090251D01*
X183931062Y-96948689D01*
X183986162Y-96767051D01*
X184075639Y-96599650D01*
X184196055Y-96452923D01*
X184342780Y-96332509D01*
X184510184Y-96243030D01*
X184691820Y-96187930D01*
X184880720Y-96169326D01*
X185069619Y-96187930D01*
X185069619Y-96187930D01*
G37*
G36*
X190765072Y-96351431D02*
X190940435Y-96424068D01*
X191098262Y-96529525D01*
X191232475Y-96663738D01*
X191337932Y-96821565D01*
X191410569Y-96996928D01*
X191447600Y-97183094D01*
X191447600Y-97372906D01*
X191410569Y-97559072D01*
X191337932Y-97734435D01*
X191232475Y-97892262D01*
X191098262Y-98026475D01*
X190940435Y-98131932D01*
X190765072Y-98204569D01*
X190578906Y-98241600D01*
X190389094Y-98241600D01*
X190202928Y-98204569D01*
X190027565Y-98131932D01*
X189869738Y-98026475D01*
X189735525Y-97892262D01*
X189630068Y-97734435D01*
X189557431Y-97559072D01*
X189520400Y-97372906D01*
X189520400Y-97183094D01*
X189557431Y-96996928D01*
X189630068Y-96821565D01*
X189735525Y-96663738D01*
X189869738Y-96529525D01*
X190027565Y-96424068D01*
X190202928Y-96351431D01*
X190389094Y-96314400D01*
X190578906Y-96314400D01*
X190765072Y-96351431D01*
X190765072Y-96351431D01*
G37*
G36*
X125072800Y-98186800D02*
X123772800Y-98186800D01*
X123772800Y-96986800D01*
X125072800Y-96986800D01*
X125072800Y-98186800D01*
X125072800Y-98186800D01*
G37*
G36*
X126772800Y-98186800D02*
X125472800Y-98186800D01*
X125472800Y-96986800D01*
X126772800Y-96986800D01*
X126772800Y-98186800D01*
X126772800Y-98186800D01*
G37*
G36*
X171377600Y-98096000D02*
X168677600Y-98096000D01*
X168677600Y-96496000D01*
X171377600Y-96496000D01*
X171377600Y-98096000D01*
X171377600Y-98096000D01*
G37*
G36*
X183377600Y-98096000D02*
X180677600Y-98096000D01*
X180677600Y-96496000D01*
X183377600Y-96496000D01*
X183377600Y-98096000D01*
X183377600Y-98096000D01*
G37*
G36*
X117391000Y-97968000D02*
X116291000Y-97968000D01*
X116291000Y-96268000D01*
X117391000Y-96268000D01*
X117391000Y-97968000D01*
X117391000Y-97968000D01*
G37*
G36*
X120691000Y-97968000D02*
X119591000Y-97968000D01*
X119591000Y-96268000D01*
X120691000Y-96268000D01*
X120691000Y-97968000D01*
X120691000Y-97968000D01*
G37*
G36*
X141454000Y-97247000D02*
X140154000Y-97247000D01*
X140154000Y-96047000D01*
X141454000Y-96047000D01*
X141454000Y-97247000D01*
X141454000Y-97247000D01*
G37*
G36*
X139754000Y-97247000D02*
X138454000Y-97247000D01*
X138454000Y-96047000D01*
X139754000Y-96047000D01*
X139754000Y-97247000D01*
X139754000Y-97247000D01*
G37*
G36*
X160239000Y-97209000D02*
X159039000Y-97209000D01*
X159039000Y-95909000D01*
X160239000Y-95909000D01*
X160239000Y-97209000D01*
X160239000Y-97209000D01*
G37*
G36*
X163806000Y-97120000D02*
X162506000Y-97120000D01*
X162506000Y-95920000D01*
X163806000Y-95920000D01*
X163806000Y-97120000D01*
X163806000Y-97120000D01*
G37*
G36*
X162106000Y-97120000D02*
X160806000Y-97120000D01*
X160806000Y-95920000D01*
X162106000Y-95920000D01*
X162106000Y-97120000D01*
X162106000Y-97120000D01*
G37*
G36*
X185069619Y-93647930D02*
X185251257Y-93703030D01*
X185418658Y-93792507D01*
X185565385Y-93912923D01*
X185685799Y-94059648D01*
X185775278Y-94227052D01*
X185830378Y-94408688D01*
X185844320Y-94550250D01*
X185844320Y-94949725D01*
X185830378Y-95091287D01*
X185775278Y-95272925D01*
X185685801Y-95440326D01*
X185565385Y-95587053D01*
X185418660Y-95707467D01*
X185251256Y-95796946D01*
X185069620Y-95852046D01*
X184880720Y-95870650D01*
X184691821Y-95852046D01*
X184510185Y-95796946D01*
X184342781Y-95707467D01*
X184196056Y-95587053D01*
X184075641Y-95440327D01*
X184060069Y-95411193D01*
X183986163Y-95272926D01*
X183986162Y-95272924D01*
X183931062Y-95091288D01*
X183917120Y-94949726D01*
X183917120Y-94550251D01*
X183931062Y-94408689D01*
X183986162Y-94227051D01*
X184075639Y-94059650D01*
X184196055Y-93912923D01*
X184342780Y-93792509D01*
X184510184Y-93703030D01*
X184691820Y-93647930D01*
X184880720Y-93629326D01*
X185069619Y-93647930D01*
X185069619Y-93647930D01*
G37*
G36*
X167289619Y-93647930D02*
X167471257Y-93703030D01*
X167638658Y-93792507D01*
X167785385Y-93912923D01*
X167905799Y-94059648D01*
X167995278Y-94227052D01*
X168050378Y-94408688D01*
X168064320Y-94550250D01*
X168064320Y-94949725D01*
X168050378Y-95091287D01*
X167995278Y-95272925D01*
X167905801Y-95440326D01*
X167785385Y-95587053D01*
X167638660Y-95707467D01*
X167471256Y-95796946D01*
X167289620Y-95852046D01*
X167100720Y-95870650D01*
X166911821Y-95852046D01*
X166730185Y-95796946D01*
X166562781Y-95707467D01*
X166416056Y-95587053D01*
X166295641Y-95440327D01*
X166280069Y-95411193D01*
X166206163Y-95272926D01*
X166206162Y-95272924D01*
X166151062Y-95091288D01*
X166137120Y-94949726D01*
X166137120Y-94550251D01*
X166151062Y-94408689D01*
X166206162Y-94227051D01*
X166295639Y-94059650D01*
X166416055Y-93912923D01*
X166562780Y-93792509D01*
X166730184Y-93703030D01*
X166911820Y-93647930D01*
X167100720Y-93629326D01*
X167289619Y-93647930D01*
X167289619Y-93647930D01*
G37*
G36*
X171377600Y-95796000D02*
X168677600Y-95796000D01*
X168677600Y-94196000D01*
X171377600Y-94196000D01*
X171377600Y-95796000D01*
X171377600Y-95796000D01*
G37*
G36*
X183377600Y-95796000D02*
X180677600Y-95796000D01*
X180677600Y-94196000D01*
X183377600Y-94196000D01*
X183377600Y-95796000D01*
X183377600Y-95796000D01*
G37*
G36*
X190765072Y-93811431D02*
X190940435Y-93884068D01*
X191098262Y-93989525D01*
X191232475Y-94123738D01*
X191337932Y-94281565D01*
X191410569Y-94456928D01*
X191447600Y-94643094D01*
X191447600Y-94832906D01*
X191410569Y-95019072D01*
X191337932Y-95194435D01*
X191232475Y-95352262D01*
X191098262Y-95486475D01*
X190940435Y-95591932D01*
X190765072Y-95664569D01*
X190578906Y-95701600D01*
X190389094Y-95701600D01*
X190202928Y-95664569D01*
X190027565Y-95591932D01*
X189869738Y-95486475D01*
X189735525Y-95352262D01*
X189630068Y-95194435D01*
X189557431Y-95019072D01*
X189520400Y-94832906D01*
X189520400Y-94643094D01*
X189557431Y-94456928D01*
X189630068Y-94281565D01*
X189735525Y-94123738D01*
X189869738Y-93989525D01*
X190027565Y-93884068D01*
X190202928Y-93811431D01*
X190389094Y-93774400D01*
X190578906Y-93774400D01*
X190765072Y-93811431D01*
X190765072Y-93811431D01*
G37*
G36*
X162028000Y-95469000D02*
X160728000Y-95469000D01*
X160728000Y-94269000D01*
X162028000Y-94269000D01*
X162028000Y-95469000D01*
X162028000Y-95469000D01*
G37*
G36*
X160328000Y-95469000D02*
X159028000Y-95469000D01*
X159028000Y-94269000D01*
X160328000Y-94269000D01*
X160328000Y-95469000D01*
X160328000Y-95469000D01*
G37*
G36*
X165584000Y-95342000D02*
X164284000Y-95342000D01*
X164284000Y-94142000D01*
X165584000Y-94142000D01*
X165584000Y-95342000D01*
X165584000Y-95342000D01*
G37*
G36*
X163884000Y-95342000D02*
X162584000Y-95342000D01*
X162584000Y-94142000D01*
X163884000Y-94142000D01*
X163884000Y-95342000D01*
X163884000Y-95342000D01*
G37*
G36*
X155981200Y-94615000D02*
X149681200Y-94615000D01*
X149681200Y-92915000D01*
X155981200Y-92915000D01*
X155981200Y-94615000D01*
X155981200Y-94615000D01*
G37*
G36*
X141673648Y-94580000D02*
X140373648Y-94580000D01*
X140373648Y-93380000D01*
X141673648Y-93380000D01*
X141673648Y-94580000D01*
X141673648Y-94580000D01*
G37*
G36*
X143373648Y-94580000D02*
X142073648Y-94580000D01*
X142073648Y-93380000D01*
X143373648Y-93380000D01*
X143373648Y-94580000D01*
X143373648Y-94580000D01*
G37*
G36*
X119433000Y-94337000D02*
X118533000Y-94337000D01*
X118533000Y-92687000D01*
X119433000Y-92687000D01*
X119433000Y-94337000D01*
X119433000Y-94337000D01*
G37*
G36*
X117433000Y-94337000D02*
X116533000Y-94337000D01*
X116533000Y-92687000D01*
X117433000Y-92687000D01*
X117433000Y-94337000D01*
X117433000Y-94337000D01*
G37*
G36*
X123166000Y-94326000D02*
X121866000Y-94326000D01*
X121866000Y-93126000D01*
X123166000Y-93126000D01*
X123166000Y-94326000D01*
X123166000Y-94326000D01*
G37*
G36*
X121466000Y-94326000D02*
X120166000Y-94326000D01*
X120166000Y-93126000D01*
X121466000Y-93126000D01*
X121466000Y-94326000D01*
X121466000Y-94326000D01*
G37*
G36*
X148936000Y-94210000D02*
X147736000Y-94210000D01*
X147736000Y-92910000D01*
X148936000Y-92910000D01*
X148936000Y-94210000D01*
X148936000Y-94210000D01*
G37*
G36*
X131828559Y-89648273D02*
X127621273Y-93855559D01*
X126560612Y-92794898D01*
X130767898Y-88587612D01*
X131828559Y-89648273D01*
X131828559Y-89648273D01*
G37*
G36*
X137980388Y-92794898D02*
X136919727Y-93855559D01*
X132712441Y-89648273D01*
X133773102Y-88587612D01*
X137980388Y-92794898D01*
X137980388Y-92794898D01*
G37*
G36*
X183377600Y-93496000D02*
X180677600Y-93496000D01*
X180677600Y-91896000D01*
X183377600Y-91896000D01*
X183377600Y-93496000D01*
X183377600Y-93496000D01*
G37*
G36*
X171377600Y-93496000D02*
X168677600Y-93496000D01*
X168677600Y-91896000D01*
X171377600Y-91896000D01*
X171377600Y-93496000D01*
X171377600Y-93496000D01*
G37*
G36*
X197184026Y-91044115D02*
X197402412Y-91134573D01*
X197598958Y-91265901D01*
X197766099Y-91433042D01*
X197897427Y-91629588D01*
X197987885Y-91847974D01*
X198034000Y-92079809D01*
X198034000Y-92316191D01*
X197987885Y-92548026D01*
X197897427Y-92766412D01*
X197766099Y-92962958D01*
X197598958Y-93130099D01*
X197402412Y-93261427D01*
X197184026Y-93351885D01*
X196952191Y-93398000D01*
X196715809Y-93398000D01*
X196483974Y-93351885D01*
X196265588Y-93261427D01*
X196069042Y-93130099D01*
X195901901Y-92962958D01*
X195770573Y-92766412D01*
X195680115Y-92548026D01*
X195634000Y-92316191D01*
X195634000Y-92079809D01*
X195680115Y-91847974D01*
X195770573Y-91629588D01*
X195901901Y-91433042D01*
X196069042Y-91265901D01*
X196265588Y-91134573D01*
X196483974Y-91044115D01*
X196715809Y-90998000D01*
X196952191Y-90998000D01*
X197184026Y-91044115D01*
X197184026Y-91044115D01*
G37*
G36*
X143373648Y-92897298D02*
X142073648Y-92897298D01*
X142073648Y-91697298D01*
X143373648Y-91697298D01*
X143373648Y-92897298D01*
X143373648Y-92897298D01*
G37*
G36*
X141673648Y-92897298D02*
X140373648Y-92897298D01*
X140373648Y-91697298D01*
X141673648Y-91697298D01*
X141673648Y-92897298D01*
X141673648Y-92897298D01*
G37*
G36*
X148936000Y-92510000D02*
X147736000Y-92510000D01*
X147736000Y-91210000D01*
X148936000Y-91210000D01*
X148936000Y-92510000D01*
X148936000Y-92510000D01*
G37*
G36*
X154574000Y-92294000D02*
X153274000Y-92294000D01*
X153274000Y-91094000D01*
X154574000Y-91094000D01*
X154574000Y-92294000D01*
X154574000Y-92294000D01*
G37*
G36*
X152706200Y-92294000D02*
X151406200Y-92294000D01*
X151406200Y-91094000D01*
X152706200Y-91094000D01*
X152706200Y-92294000D01*
X152706200Y-92294000D01*
G37*
G36*
X156274000Y-92294000D02*
X154974000Y-92294000D01*
X154974000Y-91094000D01*
X156274000Y-91094000D01*
X156274000Y-92294000D01*
X156274000Y-92294000D01*
G37*
G36*
X151006200Y-92294000D02*
X149706200Y-92294000D01*
X149706200Y-91094000D01*
X151006200Y-91094000D01*
X151006200Y-92294000D01*
X151006200Y-92294000D01*
G37*
G36*
X119433000Y-89177000D02*
X118533000Y-89177000D01*
X118533000Y-87527000D01*
X119433000Y-87527000D01*
X119433000Y-89177000D01*
X119433000Y-89177000D01*
G37*
G36*
X117433000Y-89177000D02*
X116533000Y-89177000D01*
X116533000Y-87527000D01*
X117433000Y-87527000D01*
X117433000Y-89177000D01*
X117433000Y-89177000D01*
G37*
G36*
X137125000Y-88815000D02*
X135925000Y-88815000D01*
X135925000Y-87515000D01*
X137125000Y-87515000D01*
X137125000Y-88815000D01*
X137125000Y-88815000D01*
G37*
G36*
X138776000Y-88815000D02*
X137576000Y-88815000D01*
X137576000Y-87515000D01*
X138776000Y-87515000D01*
X138776000Y-88815000D01*
X138776000Y-88815000D01*
G37*
G36*
X133599582Y-87029657D02*
X132114657Y-88514582D01*
X131195418Y-87595343D01*
X132680343Y-86110418D01*
X133599582Y-87029657D01*
X133599582Y-87029657D01*
G37*
G36*
X126609400Y-88469600D02*
X125409400Y-88469600D01*
X125409400Y-87169600D01*
X126609400Y-87169600D01*
X126609400Y-88469600D01*
X126609400Y-88469600D01*
G37*
G36*
X128387400Y-88469600D02*
X127187400Y-88469600D01*
X127187400Y-87169600D01*
X128387400Y-87169600D01*
X128387400Y-88469600D01*
X128387400Y-88469600D01*
G37*
G36*
X124856800Y-88063200D02*
X123656800Y-88063200D01*
X123656800Y-86763200D01*
X124856800Y-86763200D01*
X124856800Y-88063200D01*
X124856800Y-88063200D01*
G37*
G36*
X123078800Y-88063200D02*
X121878800Y-88063200D01*
X121878800Y-86763200D01*
X123078800Y-86763200D01*
X123078800Y-88063200D01*
X123078800Y-88063200D01*
G37*
G36*
X197184026Y-85206115D02*
X197402412Y-85296573D01*
X197598958Y-85427901D01*
X197766099Y-85595042D01*
X197897427Y-85791588D01*
X197987885Y-86009974D01*
X198034000Y-86241809D01*
X198034000Y-86478191D01*
X197987885Y-86710026D01*
X197897427Y-86928412D01*
X197766099Y-87124958D01*
X197598958Y-87292099D01*
X197402412Y-87423427D01*
X197184026Y-87513885D01*
X196952191Y-87560000D01*
X196715809Y-87560000D01*
X196483974Y-87513885D01*
X196265588Y-87423427D01*
X196069042Y-87292099D01*
X195901901Y-87124958D01*
X195770573Y-86928412D01*
X195680115Y-86710026D01*
X195634000Y-86478191D01*
X195634000Y-86241809D01*
X195680115Y-86009974D01*
X195770573Y-85791588D01*
X195901901Y-85595042D01*
X196069042Y-85427901D01*
X196265588Y-85296573D01*
X196483974Y-85206115D01*
X196715809Y-85160000D01*
X196952191Y-85160000D01*
X197184026Y-85206115D01*
X197184026Y-85206115D01*
G37*
G36*
X156225000Y-87341000D02*
X154925000Y-87341000D01*
X154925000Y-86141000D01*
X156225000Y-86141000D01*
X156225000Y-87341000D01*
X156225000Y-87341000D01*
G37*
G36*
X154525000Y-87341000D02*
X153225000Y-87341000D01*
X153225000Y-86141000D01*
X154525000Y-86141000D01*
X154525000Y-87341000D01*
X154525000Y-87341000D01*
G37*
G36*
X150803000Y-87341000D02*
X149503000Y-87341000D01*
X149503000Y-86141000D01*
X150803000Y-86141000D01*
X150803000Y-87341000D01*
X150803000Y-87341000D01*
G37*
G36*
X152503000Y-87341000D02*
X151203000Y-87341000D01*
X151203000Y-86141000D01*
X152503000Y-86141000D01*
X152503000Y-87341000D01*
X152503000Y-87341000D01*
G37*
G36*
X171149000Y-87202000D02*
X168449000Y-87202000D01*
X168449000Y-85602000D01*
X171149000Y-85602000D01*
X171149000Y-87202000D01*
X171149000Y-87202000D01*
G37*
G36*
X183149000Y-87202000D02*
X180449000Y-87202000D01*
X180449000Y-85602000D01*
X183149000Y-85602000D01*
X183149000Y-87202000D01*
X183149000Y-87202000D01*
G37*
G36*
X138776000Y-87115000D02*
X137576000Y-87115000D01*
X137576000Y-85815000D01*
X138776000Y-85815000D01*
X138776000Y-87115000D01*
X138776000Y-87115000D01*
G37*
G36*
X137125000Y-87115000D02*
X135925000Y-87115000D01*
X135925000Y-85815000D01*
X137125000Y-85815000D01*
X137125000Y-87115000D01*
X137125000Y-87115000D01*
G37*
G36*
X146650000Y-86971000D02*
X145450000Y-86971000D01*
X145450000Y-85671000D01*
X146650000Y-85671000D01*
X146650000Y-86971000D01*
X146650000Y-86971000D01*
G37*
G36*
X148301000Y-86971000D02*
X147101000Y-86971000D01*
X147101000Y-85671000D01*
X148301000Y-85671000D01*
X148301000Y-86971000D01*
X148301000Y-86971000D01*
G37*
G36*
X188052000Y-86844000D02*
X186852000Y-86844000D01*
X186852000Y-85544000D01*
X188052000Y-85544000D01*
X188052000Y-86844000D01*
X188052000Y-86844000D01*
G37*
G36*
X117647594Y-86833000D02*
X116347594Y-86833000D01*
X116347594Y-85633000D01*
X117647594Y-85633000D01*
X117647594Y-86833000D01*
X117647594Y-86833000D01*
G37*
G36*
X119347594Y-86833000D02*
X118047594Y-86833000D01*
X118047594Y-85633000D01*
X119347594Y-85633000D01*
X119347594Y-86833000D01*
X119347594Y-86833000D01*
G37*
G36*
X128387400Y-86769600D02*
X127187400Y-86769600D01*
X127187400Y-85469600D01*
X128387400Y-85469600D01*
X128387400Y-86769600D01*
X128387400Y-86769600D01*
G37*
G36*
X126609400Y-86769600D02*
X125409400Y-86769600D01*
X125409400Y-85469600D01*
X126609400Y-85469600D01*
X126609400Y-86769600D01*
X126609400Y-86769600D01*
G37*
G36*
X131831816Y-85261891D02*
X130346891Y-86746816D01*
X129427652Y-85827577D01*
X130912577Y-84342652D01*
X131831816Y-85261891D01*
X131831816Y-85261891D01*
G37*
G36*
X134902843Y-85655686D02*
X133983604Y-86574925D01*
X133135075Y-85726396D01*
X134054314Y-84807157D01*
X134902843Y-85655686D01*
X134902843Y-85655686D01*
G37*
G36*
X123078800Y-86363200D02*
X121878800Y-86363200D01*
X121878800Y-85063200D01*
X123078800Y-85063200D01*
X123078800Y-86363200D01*
X123078800Y-86363200D01*
G37*
G36*
X124856800Y-86363200D02*
X123656800Y-86363200D01*
X123656800Y-85063200D01*
X124856800Y-85063200D01*
X124856800Y-86363200D01*
X124856800Y-86363200D01*
G37*
G36*
X155987000Y-85863800D02*
X149687000Y-85863800D01*
X149687000Y-84163800D01*
X155987000Y-84163800D01*
X155987000Y-85863800D01*
X155987000Y-85863800D01*
G37*
G36*
X184841019Y-83233930D02*
X185022657Y-83289030D01*
X185190058Y-83378507D01*
X185336785Y-83498923D01*
X185457199Y-83645648D01*
X185546678Y-83813052D01*
X185601778Y-83994688D01*
X185615720Y-84136250D01*
X185615720Y-84535725D01*
X185601778Y-84677287D01*
X185546678Y-84858925D01*
X185457201Y-85026326D01*
X185336785Y-85173053D01*
X185190060Y-85293467D01*
X185190058Y-85293468D01*
X185041558Y-85372843D01*
X185022656Y-85382946D01*
X184841020Y-85438046D01*
X184652120Y-85456650D01*
X184463221Y-85438046D01*
X184281585Y-85382946D01*
X184262684Y-85372843D01*
X184114183Y-85293468D01*
X184114181Y-85293467D01*
X183967456Y-85173053D01*
X183847041Y-85026327D01*
X183780587Y-84902000D01*
X183757563Y-84858926D01*
X183741859Y-84807158D01*
X183702462Y-84677288D01*
X183688520Y-84535726D01*
X183688520Y-84136251D01*
X183702462Y-83994689D01*
X183757562Y-83813051D01*
X183847039Y-83645650D01*
X183967455Y-83498923D01*
X184114180Y-83378509D01*
X184281584Y-83289030D01*
X184463220Y-83233930D01*
X184652120Y-83215326D01*
X184841019Y-83233930D01*
X184841019Y-83233930D01*
G37*
G36*
X167061019Y-83233930D02*
X167242657Y-83289030D01*
X167410058Y-83378507D01*
X167556785Y-83498923D01*
X167677199Y-83645648D01*
X167766678Y-83813052D01*
X167821778Y-83994688D01*
X167835720Y-84136250D01*
X167835720Y-84535725D01*
X167821778Y-84677287D01*
X167766678Y-84858925D01*
X167677201Y-85026326D01*
X167556785Y-85173053D01*
X167410060Y-85293467D01*
X167410058Y-85293468D01*
X167261558Y-85372843D01*
X167242656Y-85382946D01*
X167061020Y-85438046D01*
X166872120Y-85456650D01*
X166683221Y-85438046D01*
X166501585Y-85382946D01*
X166482684Y-85372843D01*
X166334183Y-85293468D01*
X166334181Y-85293467D01*
X166187456Y-85173053D01*
X166067041Y-85026327D01*
X166000587Y-84902000D01*
X165977563Y-84858926D01*
X165961859Y-84807158D01*
X165922462Y-84677288D01*
X165908520Y-84535726D01*
X165908520Y-84136251D01*
X165922462Y-83994689D01*
X165977562Y-83813051D01*
X166067039Y-83645650D01*
X166187455Y-83498923D01*
X166334180Y-83378509D01*
X166501584Y-83289030D01*
X166683220Y-83233930D01*
X166872120Y-83215326D01*
X167061019Y-83233930D01*
X167061019Y-83233930D01*
G37*
G36*
X136104925Y-84453604D02*
X135185686Y-85372843D01*
X134337157Y-84524314D01*
X135256396Y-83605075D01*
X136104925Y-84453604D01*
X136104925Y-84453604D01*
G37*
G36*
X146650000Y-85271000D02*
X145450000Y-85271000D01*
X145450000Y-83971000D01*
X146650000Y-83971000D01*
X146650000Y-85271000D01*
X146650000Y-85271000D01*
G37*
G36*
X148301000Y-85271000D02*
X147101000Y-85271000D01*
X147101000Y-83971000D01*
X148301000Y-83971000D01*
X148301000Y-85271000D01*
X148301000Y-85271000D01*
G37*
G36*
X188052000Y-85144000D02*
X186852000Y-85144000D01*
X186852000Y-83844000D01*
X188052000Y-83844000D01*
X188052000Y-85144000D01*
X188052000Y-85144000D01*
G37*
G36*
X119347594Y-85055000D02*
X118047594Y-85055000D01*
X118047594Y-83855000D01*
X119347594Y-83855000D01*
X119347594Y-85055000D01*
X119347594Y-85055000D01*
G37*
G36*
X117647594Y-85055000D02*
X116347594Y-85055000D01*
X116347594Y-83855000D01*
X117647594Y-83855000D01*
X117647594Y-85055000D01*
X117647594Y-85055000D01*
G37*
G36*
X183149000Y-84902000D02*
X180449000Y-84902000D01*
X180449000Y-83302000D01*
X183149000Y-83302000D01*
X183149000Y-84902000D01*
X183149000Y-84902000D01*
G37*
G36*
X171149000Y-84902000D02*
X168449000Y-84902000D01*
X168449000Y-83302000D01*
X171149000Y-83302000D01*
X171149000Y-84902000D01*
X171149000Y-84902000D01*
G37*
G36*
X133124843Y-83877686D02*
X132205604Y-84796925D01*
X131357075Y-83948396D01*
X132276314Y-83029157D01*
X133124843Y-83877686D01*
X133124843Y-83877686D01*
G37*
G36*
X134326925Y-82675604D02*
X133407686Y-83594843D01*
X132559157Y-82746314D01*
X133478396Y-81827075D01*
X134326925Y-82675604D01*
X134326925Y-82675604D01*
G37*
G36*
X164011000Y-83023000D02*
X162711000Y-83023000D01*
X162711000Y-81823000D01*
X164011000Y-81823000D01*
X164011000Y-83023000D01*
X164011000Y-83023000D01*
G37*
G36*
X167061019Y-80693930D02*
X167242657Y-80749030D01*
X167410058Y-80838507D01*
X167556785Y-80958923D01*
X167677199Y-81105648D01*
X167766678Y-81273052D01*
X167821778Y-81454688D01*
X167835720Y-81596250D01*
X167835720Y-81995725D01*
X167821778Y-82137287D01*
X167766678Y-82318925D01*
X167677201Y-82486326D01*
X167556785Y-82633053D01*
X167410060Y-82753467D01*
X167242656Y-82842946D01*
X167061020Y-82898046D01*
X166872120Y-82916650D01*
X166683221Y-82898046D01*
X166501585Y-82842946D01*
X166334181Y-82753467D01*
X166187456Y-82633053D01*
X166067041Y-82486327D01*
X165977562Y-82318924D01*
X165955617Y-82246583D01*
X165946240Y-82223944D01*
X165932626Y-82203570D01*
X165915299Y-82186242D01*
X165894924Y-82172629D01*
X165872285Y-82163251D01*
X165848252Y-82158471D01*
X165823748Y-82158471D01*
X165799714Y-82163252D01*
X165777075Y-82172629D01*
X165756701Y-82186243D01*
X165739373Y-82203570D01*
X165725760Y-82223945D01*
X165716382Y-82246584D01*
X165711000Y-82282869D01*
X165711000Y-83023000D01*
X164411000Y-83023000D01*
X164411000Y-81823000D01*
X165783520Y-81823000D01*
X165807906Y-81820598D01*
X165831355Y-81813485D01*
X165852966Y-81801934D01*
X165871908Y-81786388D01*
X165887454Y-81767446D01*
X165899005Y-81745835D01*
X165906118Y-81722386D01*
X165908520Y-81698000D01*
X165908520Y-81596251D01*
X165922462Y-81454689D01*
X165977562Y-81273051D01*
X166067039Y-81105650D01*
X166187455Y-80958923D01*
X166334180Y-80838509D01*
X166501584Y-80749030D01*
X166683220Y-80693930D01*
X166872120Y-80675326D01*
X167061019Y-80693930D01*
X167061019Y-80693930D01*
G37*
G36*
X184841019Y-80693930D02*
X185022657Y-80749030D01*
X185190058Y-80838507D01*
X185336785Y-80958923D01*
X185457199Y-81105648D01*
X185546678Y-81273052D01*
X185601778Y-81454688D01*
X185615720Y-81596250D01*
X185615720Y-81995725D01*
X185601778Y-82137287D01*
X185546678Y-82318925D01*
X185457201Y-82486326D01*
X185336785Y-82633053D01*
X185190060Y-82753467D01*
X185022656Y-82842946D01*
X184841020Y-82898046D01*
X184652120Y-82916650D01*
X184463221Y-82898046D01*
X184281585Y-82842946D01*
X184114181Y-82753467D01*
X183967456Y-82633053D01*
X183847041Y-82486327D01*
X183757562Y-82318924D01*
X183702462Y-82137288D01*
X183688520Y-81995726D01*
X183688520Y-81596251D01*
X183702462Y-81454689D01*
X183757562Y-81273051D01*
X183847039Y-81105650D01*
X183967455Y-80958923D01*
X184114180Y-80838509D01*
X184281584Y-80749030D01*
X184463220Y-80693930D01*
X184652120Y-80675326D01*
X184841019Y-80693930D01*
X184841019Y-80693930D01*
G37*
G36*
X160366000Y-82692000D02*
X159166000Y-82692000D01*
X159166000Y-81392000D01*
X160366000Y-81392000D01*
X160366000Y-82692000D01*
X160366000Y-82692000D01*
G37*
G36*
X183149000Y-82602000D02*
X180449000Y-82602000D01*
X180449000Y-81002000D01*
X183149000Y-81002000D01*
X183149000Y-82602000D01*
X183149000Y-82602000D01*
G37*
G36*
X171149000Y-82602000D02*
X168449000Y-82602000D01*
X168449000Y-81002000D01*
X171149000Y-81002000D01*
X171149000Y-82602000D01*
X171149000Y-82602000D01*
G37*
G36*
X190765072Y-80353431D02*
X190940435Y-80426068D01*
X191098262Y-80531525D01*
X191232475Y-80665738D01*
X191337932Y-80823565D01*
X191410569Y-80998928D01*
X191447600Y-81185094D01*
X191447600Y-81374906D01*
X191410569Y-81561072D01*
X191337932Y-81736435D01*
X191232475Y-81894262D01*
X191098262Y-82028475D01*
X190940435Y-82133932D01*
X190772312Y-82203570D01*
X190765072Y-82206569D01*
X190578906Y-82243600D01*
X190389094Y-82243600D01*
X190202928Y-82206569D01*
X190195688Y-82203570D01*
X190027565Y-82133932D01*
X189869738Y-82028475D01*
X189735525Y-81894262D01*
X189630068Y-81736435D01*
X189557431Y-81561072D01*
X189520400Y-81374906D01*
X189520400Y-81185094D01*
X189557431Y-80998928D01*
X189630068Y-80823565D01*
X189735525Y-80665738D01*
X189869738Y-80531525D01*
X190027565Y-80426068D01*
X190202928Y-80353431D01*
X190389094Y-80316400D01*
X190578906Y-80316400D01*
X190765072Y-80353431D01*
X190765072Y-80353431D01*
G37*
G36*
X123092000Y-80993000D02*
X120792000Y-80993000D01*
X120792000Y-80043000D01*
X123092000Y-80043000D01*
X123092000Y-80993000D01*
X123092000Y-80993000D01*
G37*
G36*
X119492000Y-80993000D02*
X117192000Y-80993000D01*
X117192000Y-80043000D01*
X119492000Y-80043000D01*
X119492000Y-80993000D01*
X119492000Y-80993000D01*
G37*
G36*
X160366000Y-80992000D02*
X159166000Y-80992000D01*
X159166000Y-79692000D01*
X160366000Y-79692000D01*
X160366000Y-80992000D01*
X160366000Y-80992000D01*
G37*
G36*
X162106000Y-80864000D02*
X160806000Y-80864000D01*
X160806000Y-79664000D01*
X162106000Y-79664000D01*
X162106000Y-80864000D01*
X162106000Y-80864000D01*
G37*
G36*
X163806000Y-80864000D02*
X162506000Y-80864000D01*
X162506000Y-79664000D01*
X163806000Y-79664000D01*
X163806000Y-80864000D01*
X163806000Y-80864000D01*
G37*
G36*
X167061019Y-78153930D02*
X167242657Y-78209030D01*
X167410058Y-78298507D01*
X167556785Y-78418923D01*
X167677199Y-78565648D01*
X167766678Y-78733052D01*
X167821778Y-78914688D01*
X167835720Y-79056250D01*
X167835720Y-79455725D01*
X167821778Y-79597287D01*
X167766678Y-79778925D01*
X167677201Y-79946326D01*
X167556785Y-80093053D01*
X167410060Y-80213467D01*
X167242656Y-80302946D01*
X167061020Y-80358046D01*
X166872120Y-80376650D01*
X166683221Y-80358046D01*
X166501585Y-80302946D01*
X166334181Y-80213467D01*
X166187456Y-80093053D01*
X166067040Y-79946326D01*
X165977563Y-79778926D01*
X165977562Y-79778924D01*
X165922462Y-79597288D01*
X165908520Y-79455726D01*
X165908520Y-79056251D01*
X165922462Y-78914689D01*
X165977562Y-78733051D01*
X166067039Y-78565650D01*
X166187455Y-78418923D01*
X166334180Y-78298509D01*
X166501584Y-78209030D01*
X166683220Y-78153930D01*
X166872120Y-78135326D01*
X167061019Y-78153930D01*
X167061019Y-78153930D01*
G37*
G36*
X184841019Y-78153930D02*
X185022657Y-78209030D01*
X185190058Y-78298507D01*
X185336785Y-78418923D01*
X185457199Y-78565648D01*
X185546678Y-78733052D01*
X185601778Y-78914688D01*
X185615720Y-79056250D01*
X185615720Y-79455725D01*
X185601778Y-79597287D01*
X185546678Y-79778925D01*
X185457201Y-79946326D01*
X185336785Y-80093053D01*
X185190060Y-80213467D01*
X185022656Y-80302946D01*
X184841020Y-80358046D01*
X184652120Y-80376650D01*
X184463221Y-80358046D01*
X184281585Y-80302946D01*
X184114181Y-80213467D01*
X183967456Y-80093053D01*
X183847040Y-79946326D01*
X183757563Y-79778926D01*
X183757562Y-79778924D01*
X183702462Y-79597288D01*
X183688520Y-79455726D01*
X183688520Y-79056251D01*
X183702462Y-78914689D01*
X183757562Y-78733051D01*
X183847039Y-78565650D01*
X183967455Y-78418923D01*
X184114180Y-78298509D01*
X184281584Y-78209030D01*
X184463220Y-78153930D01*
X184652120Y-78135326D01*
X184841019Y-78153930D01*
X184841019Y-78153930D01*
G37*
G36*
X183149000Y-80302000D02*
X180449000Y-80302000D01*
X180449000Y-78702000D01*
X183149000Y-78702000D01*
X183149000Y-80302000D01*
X183149000Y-80302000D01*
G37*
G36*
X171149000Y-80302000D02*
X168449000Y-80302000D01*
X168449000Y-78702000D01*
X171149000Y-78702000D01*
X171149000Y-80302000D01*
X171149000Y-80302000D01*
G37*
G36*
X119492000Y-79723000D02*
X117192000Y-79723000D01*
X117192000Y-78773000D01*
X119492000Y-78773000D01*
X119492000Y-79723000D01*
X119492000Y-79723000D01*
G37*
G36*
X123092000Y-79723000D02*
X120792000Y-79723000D01*
X120792000Y-78773000D01*
X123092000Y-78773000D01*
X123092000Y-79723000D01*
X123092000Y-79723000D01*
G37*
G36*
X190765072Y-77813431D02*
X190940435Y-77886068D01*
X191098262Y-77991525D01*
X191232475Y-78125738D01*
X191337932Y-78283565D01*
X191410569Y-78458928D01*
X191447600Y-78645094D01*
X191447600Y-78834906D01*
X191410569Y-79021072D01*
X191337932Y-79196435D01*
X191232475Y-79354262D01*
X191098262Y-79488475D01*
X190940435Y-79593932D01*
X190771274Y-79664000D01*
X190765072Y-79666569D01*
X190578906Y-79703600D01*
X190389094Y-79703600D01*
X190202928Y-79666569D01*
X190196726Y-79664000D01*
X190027565Y-79593932D01*
X189869738Y-79488475D01*
X189735525Y-79354262D01*
X189630068Y-79196435D01*
X189557431Y-79021072D01*
X189520400Y-78834906D01*
X189520400Y-78645094D01*
X189557431Y-78458928D01*
X189630068Y-78283565D01*
X189735525Y-78125738D01*
X189869738Y-77991525D01*
X190027565Y-77886068D01*
X190202928Y-77813431D01*
X190389094Y-77776400D01*
X190578906Y-77776400D01*
X190765072Y-77813431D01*
X190765072Y-77813431D01*
G37*
G36*
X165584000Y-79213000D02*
X164284000Y-79213000D01*
X164284000Y-78013000D01*
X165584000Y-78013000D01*
X165584000Y-79213000D01*
X165584000Y-79213000D01*
G37*
G36*
X162155000Y-79213000D02*
X160855000Y-79213000D01*
X160855000Y-78013000D01*
X162155000Y-78013000D01*
X162155000Y-79213000D01*
X162155000Y-79213000D01*
G37*
G36*
X160455000Y-79213000D02*
X159155000Y-79213000D01*
X159155000Y-78013000D01*
X160455000Y-78013000D01*
X160455000Y-79213000D01*
X160455000Y-79213000D01*
G37*
G36*
X163884000Y-79213000D02*
X162584000Y-79213000D01*
X162584000Y-78013000D01*
X163884000Y-78013000D01*
X163884000Y-79213000D01*
X163884000Y-79213000D01*
G37*
G36*
X155987000Y-78663800D02*
X149687000Y-78663800D01*
X149687000Y-76963800D01*
X155987000Y-76963800D01*
X155987000Y-78663800D01*
X155987000Y-78663800D01*
G37*
G36*
X148936000Y-78462000D02*
X147736000Y-78462000D01*
X147736000Y-77162000D01*
X148936000Y-77162000D01*
X148936000Y-78462000D01*
X148936000Y-78462000D01*
G37*
G36*
X123092000Y-78453000D02*
X120792000Y-78453000D01*
X120792000Y-77503000D01*
X123092000Y-77503000D01*
X123092000Y-78453000D01*
X123092000Y-78453000D01*
G37*
G36*
X119492000Y-78453000D02*
X117192000Y-78453000D01*
X117192000Y-77503000D01*
X119492000Y-77503000D01*
X119492000Y-78453000D01*
X119492000Y-78453000D01*
G37*
G36*
X127124970Y-76231372D02*
X127240889Y-76254429D01*
X127422878Y-76329811D01*
X127586663Y-76439249D01*
X127725951Y-76578537D01*
X127835389Y-76742322D01*
X127910771Y-76924311D01*
X127918855Y-76964955D01*
X127949200Y-77117507D01*
X127949200Y-77314493D01*
X127941364Y-77353885D01*
X127910771Y-77507689D01*
X127835389Y-77689678D01*
X127725951Y-77853463D01*
X127586663Y-77992751D01*
X127422878Y-78102189D01*
X127240889Y-78177571D01*
X127124970Y-78200628D01*
X127047693Y-78216000D01*
X126850707Y-78216000D01*
X126773430Y-78200628D01*
X126657511Y-78177571D01*
X126475522Y-78102189D01*
X126311737Y-77992751D01*
X126172449Y-77853463D01*
X126063011Y-77689678D01*
X125987629Y-77507689D01*
X125957036Y-77353885D01*
X125949200Y-77314493D01*
X125949200Y-77117507D01*
X125979545Y-76964955D01*
X125987629Y-76924311D01*
X126063011Y-76742322D01*
X126172449Y-76578537D01*
X126311737Y-76439249D01*
X126475522Y-76329811D01*
X126657511Y-76254429D01*
X126773430Y-76231372D01*
X126850707Y-76216000D01*
X127047693Y-76216000D01*
X127124970Y-76231372D01*
X127124970Y-76231372D01*
G37*
G36*
X171149000Y-78002000D02*
X168449000Y-78002000D01*
X168449000Y-76402000D01*
X171149000Y-76402000D01*
X171149000Y-78002000D01*
X171149000Y-78002000D01*
G37*
G36*
X183149000Y-78002000D02*
X180449000Y-78002000D01*
X180449000Y-76402000D01*
X183149000Y-76402000D01*
X183149000Y-78002000D01*
X183149000Y-78002000D01*
G37*
G36*
X197184026Y-75046115D02*
X197402412Y-75136573D01*
X197598958Y-75267901D01*
X197766099Y-75435042D01*
X197897427Y-75631588D01*
X197987885Y-75849974D01*
X198034000Y-76081809D01*
X198034000Y-76318191D01*
X197987885Y-76550026D01*
X197897427Y-76768412D01*
X197766099Y-76964958D01*
X197598958Y-77132099D01*
X197402412Y-77263427D01*
X197184026Y-77353885D01*
X196952191Y-77400000D01*
X196715809Y-77400000D01*
X196483974Y-77353885D01*
X196265588Y-77263427D01*
X196069042Y-77132099D01*
X195901901Y-76964958D01*
X195770573Y-76768412D01*
X195680115Y-76550026D01*
X195634000Y-76318191D01*
X195634000Y-76081809D01*
X195680115Y-75849974D01*
X195770573Y-75631588D01*
X195901901Y-75435042D01*
X196069042Y-75267901D01*
X196265588Y-75136573D01*
X196483974Y-75046115D01*
X196715809Y-75000000D01*
X196952191Y-75000000D01*
X197184026Y-75046115D01*
X197184026Y-75046115D01*
G37*
G36*
X119492000Y-77183000D02*
X117192000Y-77183000D01*
X117192000Y-76233000D01*
X119492000Y-76233000D01*
X119492000Y-77183000D01*
X119492000Y-77183000D01*
G37*
G36*
X123092000Y-77183000D02*
X120792000Y-77183000D01*
X120792000Y-76233000D01*
X123092000Y-76233000D01*
X123092000Y-77183000D01*
X123092000Y-77183000D01*
G37*
G36*
X148936000Y-76762000D02*
X147736000Y-76762000D01*
X147736000Y-75462000D01*
X148936000Y-75462000D01*
X148936000Y-76762000D01*
X148936000Y-76762000D01*
G37*
G36*
X123092000Y-75913000D02*
X120792000Y-75913000D01*
X120792000Y-74963000D01*
X123092000Y-74963000D01*
X123092000Y-75913000D01*
X123092000Y-75913000D01*
G37*
G36*
X119492000Y-75913000D02*
X117192000Y-75913000D01*
X117192000Y-74963000D01*
X119492000Y-74963000D01*
X119492000Y-75913000D01*
X119492000Y-75913000D01*
G37*
G36*
X150945200Y-75809400D02*
X149645200Y-75809400D01*
X149645200Y-74609400D01*
X150945200Y-74609400D01*
X150945200Y-75809400D01*
X150945200Y-75809400D01*
G37*
G36*
X154917800Y-75809400D02*
X153617800Y-75809400D01*
X153617800Y-74609400D01*
X154917800Y-74609400D01*
X154917800Y-75809400D01*
X154917800Y-75809400D01*
G37*
G36*
X152645200Y-75809400D02*
X151345200Y-75809400D01*
X151345200Y-74609400D01*
X152645200Y-74609400D01*
X152645200Y-75809400D01*
X152645200Y-75809400D01*
G37*
G36*
X156617800Y-75809400D02*
X155317800Y-75809400D01*
X155317800Y-74609400D01*
X156617800Y-74609400D01*
X156617800Y-75809400D01*
X156617800Y-75809400D01*
G37*
G36*
X183149000Y-75702000D02*
X180449000Y-75702000D01*
X180449000Y-74102000D01*
X183149000Y-74102000D01*
X183149000Y-75702000D01*
X183149000Y-75702000D01*
G37*
G36*
X171149000Y-75702000D02*
X168449000Y-75702000D01*
X168449000Y-74102000D01*
X171149000Y-74102000D01*
X171149000Y-75702000D01*
X171149000Y-75702000D01*
G37*
G36*
X133188000Y-73509000D02*
X131988000Y-73509000D01*
X131988000Y-72209000D01*
X133188000Y-72209000D01*
X133188000Y-73509000D01*
X133188000Y-73509000D01*
G37*
G36*
X134966000Y-73470000D02*
X133766000Y-73470000D01*
X133766000Y-72170000D01*
X134966000Y-72170000D01*
X134966000Y-73470000D01*
X134966000Y-73470000D01*
G37*
G36*
X137634000Y-73374000D02*
X136234000Y-73374000D01*
X136234000Y-72374000D01*
X137634000Y-72374000D01*
X137634000Y-73374000D01*
X137634000Y-73374000D01*
G37*
G36*
X141134000Y-72474000D02*
X138434000Y-72474000D01*
X138434000Y-71999000D01*
X138431598Y-71974614D01*
X138424485Y-71951165D01*
X138412934Y-71929554D01*
X138397388Y-71910612D01*
X138378446Y-71895066D01*
X138356835Y-71883515D01*
X138333386Y-71876402D01*
X138309000Y-71874000D01*
X136234000Y-71874000D01*
X136234000Y-70874000D01*
X138309000Y-70874000D01*
X138333386Y-70871598D01*
X138356835Y-70864485D01*
X138378446Y-70852934D01*
X138397388Y-70837388D01*
X138412934Y-70818446D01*
X138424485Y-70796835D01*
X138431598Y-70773386D01*
X138434000Y-70749000D01*
X138434000Y-70274000D01*
X141134000Y-70274000D01*
X141134000Y-72474000D01*
X141134000Y-72474000D01*
G37*
G36*
X152376000Y-71974000D02*
X151076000Y-71974000D01*
X151076000Y-70774000D01*
X152376000Y-70774000D01*
X152376000Y-71974000D01*
X152376000Y-71974000D01*
G37*
G36*
X154320000Y-71974000D02*
X153020000Y-71974000D01*
X153020000Y-70774000D01*
X154320000Y-70774000D01*
X154320000Y-71974000D01*
X154320000Y-71974000D01*
G37*
G36*
X150676000Y-71974000D02*
X149376000Y-71974000D01*
X149376000Y-70774000D01*
X150676000Y-70774000D01*
X150676000Y-71974000D01*
X150676000Y-71974000D01*
G37*
G36*
X156020000Y-71974000D02*
X154720000Y-71974000D01*
X154720000Y-70774000D01*
X156020000Y-70774000D01*
X156020000Y-71974000D01*
X156020000Y-71974000D01*
G37*
G36*
X117964931Y-70021522D02*
X118134576Y-70072984D01*
X118290936Y-70156559D01*
X118427975Y-70269025D01*
X118540444Y-70406067D01*
X118624015Y-70562419D01*
X118675478Y-70732068D01*
X118688500Y-70864289D01*
X118688500Y-71003710D01*
X118675478Y-71135931D01*
X118624016Y-71305576D01*
X118624014Y-71305579D01*
X118624014Y-71305580D01*
X118582228Y-71383756D01*
X118540441Y-71461936D01*
X118427975Y-71598975D01*
X118290933Y-71711444D01*
X118134581Y-71795015D01*
X117964932Y-71846478D01*
X117788500Y-71863854D01*
X117612069Y-71846478D01*
X117442424Y-71795016D01*
X117286064Y-71711441D01*
X117149025Y-71598975D01*
X117036556Y-71461933D01*
X116952985Y-71305581D01*
X116901522Y-71135932D01*
X116888500Y-71003711D01*
X116888500Y-70864290D01*
X116901522Y-70732069D01*
X116952984Y-70562424D01*
X117036559Y-70406064D01*
X117149025Y-70269025D01*
X117286067Y-70156556D01*
X117442419Y-70072985D01*
X117612068Y-70021522D01*
X117788500Y-70004146D01*
X117964931Y-70021522D01*
X117964931Y-70021522D01*
G37*
G36*
X133188000Y-71809000D02*
X131988000Y-71809000D01*
X131988000Y-70509000D01*
X133188000Y-70509000D01*
X133188000Y-71809000D01*
X133188000Y-71809000D01*
G37*
G36*
X134966000Y-71770000D02*
X133766000Y-71770000D01*
X133766000Y-70470000D01*
X134966000Y-70470000D01*
X134966000Y-71770000D01*
X134966000Y-71770000D01*
G37*
G36*
X197120526Y-69204115D02*
X197338912Y-69294573D01*
X197535458Y-69425901D01*
X197702599Y-69593042D01*
X197833927Y-69789588D01*
X197924385Y-70007974D01*
X197970500Y-70239809D01*
X197970500Y-70476191D01*
X197924385Y-70708026D01*
X197833927Y-70926412D01*
X197702599Y-71122958D01*
X197535458Y-71290099D01*
X197338912Y-71421427D01*
X197120526Y-71511885D01*
X196888691Y-71558000D01*
X196652309Y-71558000D01*
X196420474Y-71511885D01*
X196202088Y-71421427D01*
X196005542Y-71290099D01*
X195838401Y-71122958D01*
X195707073Y-70926412D01*
X195616615Y-70708026D01*
X195570500Y-70476191D01*
X195570500Y-70239809D01*
X195616615Y-70007974D01*
X195707073Y-69789588D01*
X195838401Y-69593042D01*
X196005542Y-69425901D01*
X196202088Y-69294573D01*
X196420474Y-69204115D01*
X196652309Y-69158000D01*
X196888691Y-69158000D01*
X197120526Y-69204115D01*
X197120526Y-69204115D01*
G37*
G36*
X121269998Y-63802280D02*
X121281423Y-63803405D01*
X121342685Y-63821989D01*
X121403948Y-63840573D01*
X121516868Y-63900930D01*
X121615843Y-63982157D01*
X121697070Y-64081132D01*
X121757427Y-64194052D01*
X121776011Y-64255315D01*
X121793935Y-64314400D01*
X121794595Y-64316578D01*
X121804000Y-64412068D01*
X121804000Y-65175932D01*
X121794595Y-65271422D01*
X121757427Y-65393948D01*
X121697070Y-65506868D01*
X121615843Y-65605843D01*
X121516867Y-65687070D01*
X121516865Y-65687071D01*
X121516864Y-65687072D01*
X121482751Y-65705306D01*
X121429510Y-65733763D01*
X121409140Y-65747373D01*
X121391813Y-65764701D01*
X121378199Y-65785075D01*
X121368822Y-65807714D01*
X121364041Y-65831748D01*
X121364041Y-65856252D01*
X121368821Y-65880285D01*
X121378199Y-65902924D01*
X121391812Y-65923299D01*
X121409140Y-65940626D01*
X121429514Y-65954240D01*
X121452153Y-65963617D01*
X121476187Y-65968398D01*
X121488439Y-65969000D01*
X121754000Y-65969000D01*
X121754000Y-69219000D01*
X121488440Y-69219000D01*
X121464054Y-69221402D01*
X121440605Y-69228515D01*
X121418994Y-69240066D01*
X121400052Y-69255612D01*
X121384506Y-69274554D01*
X121372955Y-69296165D01*
X121365842Y-69319614D01*
X121363440Y-69344000D01*
X121365842Y-69368386D01*
X121372955Y-69391835D01*
X121384506Y-69413446D01*
X121400052Y-69432388D01*
X121418994Y-69447934D01*
X121429506Y-69454234D01*
X121516868Y-69500930D01*
X121615843Y-69582157D01*
X121697070Y-69681132D01*
X121757427Y-69794052D01*
X121794595Y-69916578D01*
X121804000Y-70012068D01*
X121804000Y-70775932D01*
X121794595Y-70871422D01*
X121757427Y-70993948D01*
X121697070Y-71106868D01*
X121615843Y-71205843D01*
X121516867Y-71287070D01*
X121516865Y-71287071D01*
X121516864Y-71287072D01*
X121468777Y-71312775D01*
X121403947Y-71347427D01*
X121342684Y-71366011D01*
X121281422Y-71384595D01*
X121269997Y-71385720D01*
X121154000Y-71397145D01*
X121038002Y-71385720D01*
X121026577Y-71384595D01*
X120965315Y-71366011D01*
X120904052Y-71347427D01*
X120791132Y-71287070D01*
X120692157Y-71205843D01*
X120610930Y-71106867D01*
X120550573Y-70993947D01*
X120514187Y-70874000D01*
X120513405Y-70871422D01*
X120510053Y-70837388D01*
X120504000Y-70775931D01*
X120504000Y-70012068D01*
X120513405Y-69916578D01*
X120550573Y-69794052D01*
X120610931Y-69681132D01*
X120692158Y-69582157D01*
X120791133Y-69500930D01*
X120878490Y-69454237D01*
X120898860Y-69440627D01*
X120916187Y-69423299D01*
X120929801Y-69402925D01*
X120939178Y-69380286D01*
X120943959Y-69356252D01*
X120943959Y-69331748D01*
X120939179Y-69307715D01*
X120929801Y-69285076D01*
X120916188Y-69264701D01*
X120898860Y-69247374D01*
X120878486Y-69233760D01*
X120855847Y-69224383D01*
X120831813Y-69219602D01*
X120819561Y-69219000D01*
X120054000Y-69219000D01*
X120054000Y-65969000D01*
X120819560Y-65969000D01*
X120843946Y-65966598D01*
X120867395Y-65959485D01*
X120889006Y-65947934D01*
X120907948Y-65932388D01*
X120923494Y-65913446D01*
X120935045Y-65891835D01*
X120942158Y-65868386D01*
X120944560Y-65844000D01*
X120942158Y-65819614D01*
X120935045Y-65796165D01*
X120923494Y-65774554D01*
X120907948Y-65755612D01*
X120889006Y-65740066D01*
X120878494Y-65733766D01*
X120791132Y-65687070D01*
X120692157Y-65605843D01*
X120610930Y-65506867D01*
X120550573Y-65393947D01*
X120522165Y-65300300D01*
X120513405Y-65271422D01*
X120509356Y-65230307D01*
X120504000Y-65175931D01*
X120504000Y-64412068D01*
X120513405Y-64316578D01*
X120550573Y-64194052D01*
X120610931Y-64081132D01*
X120692158Y-63982157D01*
X120791133Y-63900930D01*
X120904053Y-63840573D01*
X120965316Y-63821989D01*
X121026578Y-63803405D01*
X121038003Y-63802280D01*
X121154000Y-63790855D01*
X121269998Y-63802280D01*
X121269998Y-63802280D01*
G37*
G36*
X183377600Y-70650000D02*
X180677600Y-70650000D01*
X180677600Y-69050000D01*
X183377600Y-69050000D01*
X183377600Y-70650000D01*
X183377600Y-70650000D01*
G37*
G36*
X171377600Y-70650000D02*
X168677600Y-70650000D01*
X168677600Y-69050000D01*
X171377600Y-69050000D01*
X171377600Y-70650000D01*
X171377600Y-70650000D01*
G37*
G36*
X148428000Y-70588000D02*
X147228000Y-70588000D01*
X147228000Y-69288000D01*
X148428000Y-69288000D01*
X148428000Y-70588000D01*
X148428000Y-70588000D01*
G37*
G36*
X146904000Y-70588000D02*
X145704000Y-70588000D01*
X145704000Y-69288000D01*
X146904000Y-69288000D01*
X146904000Y-70588000D01*
X146904000Y-70588000D01*
G37*
G36*
X137634000Y-70374000D02*
X136234000Y-70374000D01*
X136234000Y-69374000D01*
X137634000Y-69374000D01*
X137634000Y-70374000D01*
X137634000Y-70374000D01*
G37*
G36*
X188052000Y-70334000D02*
X186852000Y-70334000D01*
X186852000Y-69034000D01*
X188052000Y-69034000D01*
X188052000Y-70334000D01*
X188052000Y-70334000D01*
G37*
G36*
X155981200Y-69836400D02*
X149681200Y-69836400D01*
X149681200Y-68136400D01*
X155981200Y-68136400D01*
X155981200Y-69836400D01*
X155981200Y-69836400D01*
G37*
G36*
X135016000Y-69815000D02*
X133716000Y-69815000D01*
X133716000Y-68615000D01*
X135016000Y-68615000D01*
X135016000Y-69815000D01*
X135016000Y-69815000D01*
G37*
G36*
X133316000Y-69815000D02*
X132016000Y-69815000D01*
X132016000Y-68615000D01*
X133316000Y-68615000D01*
X133316000Y-69815000D01*
X133316000Y-69815000D01*
G37*
G36*
X167289619Y-66681930D02*
X167471257Y-66737030D01*
X167638658Y-66826507D01*
X167785385Y-66946923D01*
X167905799Y-67093648D01*
X167995278Y-67261052D01*
X168050378Y-67442688D01*
X168064320Y-67584250D01*
X168064320Y-67983725D01*
X168050378Y-68125287D01*
X167995278Y-68306925D01*
X167905801Y-68474326D01*
X167785385Y-68621053D01*
X167638660Y-68741467D01*
X167471256Y-68830946D01*
X167289620Y-68886046D01*
X167100720Y-68904650D01*
X166911821Y-68886046D01*
X166730185Y-68830946D01*
X166562781Y-68741467D01*
X166416056Y-68621053D01*
X166295641Y-68474327D01*
X166229187Y-68350000D01*
X166206163Y-68306926D01*
X166195393Y-68271423D01*
X166151062Y-68125288D01*
X166137120Y-67983726D01*
X166137120Y-67584251D01*
X166151062Y-67442689D01*
X166206162Y-67261051D01*
X166295639Y-67093650D01*
X166416055Y-66946923D01*
X166562780Y-66826509D01*
X166705919Y-66750000D01*
X166730182Y-66737031D01*
X166730184Y-66737030D01*
X166911820Y-66681930D01*
X167100720Y-66663326D01*
X167289619Y-66681930D01*
X167289619Y-66681930D01*
G37*
G36*
X185069619Y-66681930D02*
X185251257Y-66737030D01*
X185418658Y-66826507D01*
X185565385Y-66946923D01*
X185685799Y-67093648D01*
X185775278Y-67261052D01*
X185830378Y-67442688D01*
X185844320Y-67584250D01*
X185844320Y-67983725D01*
X185830378Y-68125287D01*
X185775278Y-68306925D01*
X185685801Y-68474326D01*
X185565385Y-68621053D01*
X185418660Y-68741467D01*
X185251256Y-68830946D01*
X185069620Y-68886046D01*
X184880720Y-68904650D01*
X184691821Y-68886046D01*
X184510185Y-68830946D01*
X184342781Y-68741467D01*
X184196056Y-68621053D01*
X184075641Y-68474327D01*
X184009187Y-68350000D01*
X183986163Y-68306926D01*
X183975393Y-68271423D01*
X183931062Y-68125288D01*
X183917120Y-67983726D01*
X183917120Y-67584251D01*
X183931062Y-67442689D01*
X183986162Y-67261051D01*
X184075639Y-67093650D01*
X184196055Y-66946923D01*
X184342780Y-66826509D01*
X184485919Y-66750000D01*
X184510182Y-66737031D01*
X184510184Y-66737030D01*
X184691820Y-66681930D01*
X184880720Y-66663326D01*
X185069619Y-66681930D01*
X185069619Y-66681930D01*
G37*
G36*
X146904000Y-68888000D02*
X145704000Y-68888000D01*
X145704000Y-67588000D01*
X146904000Y-67588000D01*
X146904000Y-68888000D01*
X146904000Y-68888000D01*
G37*
G36*
X148428000Y-68888000D02*
X147228000Y-68888000D01*
X147228000Y-67588000D01*
X148428000Y-67588000D01*
X148428000Y-68888000D01*
X148428000Y-68888000D01*
G37*
G36*
X119119998Y-66402280D02*
X119131423Y-66403405D01*
X119192685Y-66421989D01*
X119253948Y-66440573D01*
X119366868Y-66500930D01*
X119465843Y-66582157D01*
X119547070Y-66681132D01*
X119607427Y-66794052D01*
X119644595Y-66916578D01*
X119654000Y-67012068D01*
X119654000Y-68175932D01*
X119644595Y-68271422D01*
X119607427Y-68393948D01*
X119547070Y-68506868D01*
X119465843Y-68605843D01*
X119366867Y-68687070D01*
X119366865Y-68687071D01*
X119366864Y-68687072D01*
X119318777Y-68712775D01*
X119253947Y-68747427D01*
X119192684Y-68766011D01*
X119131422Y-68784595D01*
X119119997Y-68785720D01*
X119004000Y-68797145D01*
X118888002Y-68785720D01*
X118876577Y-68784595D01*
X118815315Y-68766011D01*
X118754052Y-68747427D01*
X118641132Y-68687070D01*
X118542157Y-68605843D01*
X118460930Y-68506867D01*
X118400573Y-68393947D01*
X118374175Y-68306924D01*
X118363405Y-68271422D01*
X118354076Y-68176700D01*
X118354000Y-68175931D01*
X118354001Y-67012068D01*
X118363406Y-66916578D01*
X118400574Y-66794052D01*
X118460931Y-66681132D01*
X118542158Y-66582157D01*
X118641133Y-66500930D01*
X118754053Y-66440573D01*
X118815316Y-66421989D01*
X118876578Y-66403405D01*
X118888003Y-66402280D01*
X119004000Y-66390855D01*
X119119998Y-66402280D01*
X119119998Y-66402280D01*
G37*
G36*
X188052000Y-68634000D02*
X186852000Y-68634000D01*
X186852000Y-67334000D01*
X188052000Y-67334000D01*
X188052000Y-68634000D01*
X188052000Y-68634000D01*
G37*
G36*
X126215000Y-68633000D02*
X125015000Y-68633000D01*
X125015000Y-67733000D01*
X126215000Y-67733000D01*
X126215000Y-68633000D01*
X126215000Y-68633000D01*
G37*
G36*
X127715000Y-68633000D02*
X126915000Y-68633000D01*
X126915000Y-67733000D01*
X127715000Y-67733000D01*
X127715000Y-68633000D01*
X127715000Y-68633000D01*
G37*
G36*
X183377600Y-68350000D02*
X180677600Y-68350000D01*
X180677600Y-66750000D01*
X183377600Y-66750000D01*
X183377600Y-68350000D01*
X183377600Y-68350000D01*
G37*
G36*
X171377600Y-68350000D02*
X168677600Y-68350000D01*
X168677600Y-66750000D01*
X171377600Y-66750000D01*
X171377600Y-68350000D01*
X171377600Y-68350000D01*
G37*
G36*
X139320400Y-68176700D02*
X138020400Y-68176700D01*
X138020400Y-66976700D01*
X139320400Y-66976700D01*
X139320400Y-68176700D01*
X139320400Y-68176700D01*
G37*
G36*
X137620400Y-68176700D02*
X136320400Y-68176700D01*
X136320400Y-66976700D01*
X137620400Y-66976700D01*
X137620400Y-68176700D01*
X137620400Y-68176700D01*
G37*
G36*
X134966000Y-68048000D02*
X133766000Y-68048000D01*
X133766000Y-66748000D01*
X134966000Y-66748000D01*
X134966000Y-68048000D01*
X134966000Y-68048000D01*
G37*
G36*
X160239000Y-66905000D02*
X159039000Y-66905000D01*
X159039000Y-65605000D01*
X160239000Y-65605000D01*
X160239000Y-66905000D01*
X160239000Y-66905000D01*
G37*
G36*
X163884000Y-66767000D02*
X162584000Y-66767000D01*
X162584000Y-65567000D01*
X163884000Y-65567000D01*
X163884000Y-66767000D01*
X163884000Y-66767000D01*
G37*
G36*
X165584000Y-66767000D02*
X164284000Y-66767000D01*
X164284000Y-65567000D01*
X165584000Y-65567000D01*
X165584000Y-66767000D01*
X165584000Y-66767000D01*
G37*
G36*
X125815000Y-66633000D02*
X125015000Y-66633000D01*
X125015000Y-65733000D01*
X125815000Y-65733000D01*
X125815000Y-66633000D01*
X125815000Y-66633000D01*
G37*
G36*
X127715000Y-66633000D02*
X126915000Y-66633000D01*
X126915000Y-65733000D01*
X127715000Y-65733000D01*
X127715000Y-66633000D01*
X127715000Y-66633000D01*
G37*
G36*
X139320400Y-66500300D02*
X138020400Y-66500300D01*
X138020400Y-65300300D01*
X139320400Y-65300300D01*
X139320400Y-66500300D01*
X139320400Y-66500300D01*
G37*
G36*
X137620400Y-66500300D02*
X136320400Y-66500300D01*
X136320400Y-65300300D01*
X137620400Y-65300300D01*
X137620400Y-66500300D01*
X137620400Y-66500300D01*
G37*
G36*
X185069619Y-64141930D02*
X185251257Y-64197030D01*
X185418658Y-64286507D01*
X185565385Y-64406923D01*
X185685799Y-64553648D01*
X185775278Y-64721052D01*
X185830378Y-64902688D01*
X185844320Y-65044250D01*
X185844320Y-65443725D01*
X185830378Y-65585287D01*
X185775278Y-65766925D01*
X185685801Y-65934326D01*
X185565385Y-66081053D01*
X185418660Y-66201467D01*
X185251256Y-66290946D01*
X185069620Y-66346046D01*
X184880720Y-66364650D01*
X184691821Y-66346046D01*
X184510185Y-66290946D01*
X184342781Y-66201467D01*
X184196056Y-66081053D01*
X184075641Y-65934327D01*
X184074605Y-65932388D01*
X183986163Y-65766926D01*
X183985488Y-65764701D01*
X183931062Y-65585288D01*
X183917120Y-65443726D01*
X183917120Y-65044251D01*
X183931062Y-64902689D01*
X183986162Y-64721051D01*
X184075639Y-64553650D01*
X184196055Y-64406923D01*
X184342780Y-64286509D01*
X184510184Y-64197030D01*
X184691820Y-64141930D01*
X184880720Y-64123326D01*
X185069619Y-64141930D01*
X185069619Y-64141930D01*
G37*
G36*
X167289619Y-64141930D02*
X167471257Y-64197030D01*
X167638658Y-64286507D01*
X167785385Y-64406923D01*
X167905799Y-64553648D01*
X167995278Y-64721052D01*
X168050378Y-64902688D01*
X168064320Y-65044250D01*
X168064320Y-65443725D01*
X168050378Y-65585287D01*
X167995278Y-65766925D01*
X167905801Y-65934326D01*
X167785385Y-66081053D01*
X167638660Y-66201467D01*
X167471256Y-66290946D01*
X167289620Y-66346046D01*
X167100720Y-66364650D01*
X166911821Y-66346046D01*
X166730185Y-66290946D01*
X166562781Y-66201467D01*
X166416056Y-66081053D01*
X166295641Y-65934327D01*
X166294605Y-65932388D01*
X166206163Y-65766926D01*
X166205488Y-65764701D01*
X166151062Y-65585288D01*
X166137120Y-65443726D01*
X166137120Y-65044251D01*
X166151062Y-64902689D01*
X166206162Y-64721051D01*
X166295639Y-64553650D01*
X166416055Y-64406923D01*
X166562780Y-64286509D01*
X166730184Y-64197030D01*
X166911820Y-64141930D01*
X167100720Y-64123326D01*
X167289619Y-64141930D01*
X167289619Y-64141930D01*
G37*
G36*
X134966000Y-66348000D02*
X133766000Y-66348000D01*
X133766000Y-65048000D01*
X134966000Y-65048000D01*
X134966000Y-66348000D01*
X134966000Y-66348000D01*
G37*
G36*
X201038970Y-64344172D02*
X201154889Y-64367229D01*
X201336878Y-64442611D01*
X201500663Y-64552049D01*
X201639951Y-64691337D01*
X201749389Y-64855122D01*
X201824771Y-65037111D01*
X201840463Y-65116000D01*
X201856180Y-65195014D01*
X201863200Y-65230309D01*
X201863200Y-65427291D01*
X201824771Y-65620489D01*
X201749389Y-65802478D01*
X201639951Y-65966263D01*
X201500663Y-66105551D01*
X201336878Y-66214989D01*
X201154889Y-66290371D01*
X201038970Y-66313428D01*
X200961693Y-66328800D01*
X200764707Y-66328800D01*
X200687430Y-66313428D01*
X200571511Y-66290371D01*
X200389522Y-66214989D01*
X200225737Y-66105551D01*
X200086449Y-65966263D01*
X199977011Y-65802478D01*
X199901629Y-65620489D01*
X199863200Y-65427291D01*
X199863200Y-65230309D01*
X199870221Y-65195014D01*
X199885937Y-65116000D01*
X199901629Y-65037111D01*
X199977011Y-64855122D01*
X200086449Y-64691337D01*
X200225737Y-64552049D01*
X200389522Y-64442611D01*
X200571511Y-64367229D01*
X200687430Y-64344172D01*
X200764707Y-64328800D01*
X200961693Y-64328800D01*
X201038970Y-64344172D01*
X201038970Y-64344172D01*
G37*
G36*
X190701572Y-64351431D02*
X190876935Y-64424068D01*
X191034762Y-64529525D01*
X191168975Y-64663738D01*
X191274432Y-64821565D01*
X191347069Y-64996928D01*
X191384100Y-65183094D01*
X191384100Y-65372906D01*
X191347069Y-65559072D01*
X191274432Y-65734435D01*
X191168975Y-65892262D01*
X191034762Y-66026475D01*
X190876935Y-66131932D01*
X190701572Y-66204569D01*
X190515406Y-66241600D01*
X190325594Y-66241600D01*
X190139428Y-66204569D01*
X189964065Y-66131932D01*
X189806238Y-66026475D01*
X189672025Y-65892262D01*
X189566568Y-65734435D01*
X189493931Y-65559072D01*
X189456900Y-65372906D01*
X189456900Y-65183094D01*
X189493931Y-64996928D01*
X189566568Y-64821565D01*
X189672025Y-64663738D01*
X189806238Y-64529525D01*
X189964065Y-64424068D01*
X190139428Y-64351431D01*
X190325594Y-64314400D01*
X190515406Y-64314400D01*
X190701572Y-64351431D01*
X190701572Y-64351431D01*
G37*
G36*
X183377600Y-66050000D02*
X180677600Y-66050000D01*
X180677600Y-64450000D01*
X183377600Y-64450000D01*
X183377600Y-66050000D01*
X183377600Y-66050000D01*
G37*
G36*
X171377600Y-66050000D02*
X168677600Y-66050000D01*
X168677600Y-64450000D01*
X171377600Y-64450000D01*
X171377600Y-66050000D01*
X171377600Y-66050000D01*
G37*
G36*
X117964931Y-63421522D02*
X118134576Y-63472984D01*
X118290936Y-63556559D01*
X118427975Y-63669025D01*
X118540444Y-63806067D01*
X118624015Y-63962419D01*
X118675478Y-64132068D01*
X118688500Y-64264289D01*
X118688500Y-64403710D01*
X118675478Y-64535931D01*
X118624016Y-64705576D01*
X118540441Y-64861936D01*
X118427975Y-64998975D01*
X118290933Y-65111444D01*
X118134581Y-65195015D01*
X117964932Y-65246478D01*
X117788500Y-65263854D01*
X117612069Y-65246478D01*
X117442424Y-65195016D01*
X117286064Y-65111441D01*
X117149025Y-64998975D01*
X117036556Y-64861933D01*
X116952985Y-64705581D01*
X116901522Y-64535932D01*
X116888500Y-64403711D01*
X116888500Y-64264290D01*
X116901522Y-64132069D01*
X116952984Y-63962424D01*
X117036559Y-63806064D01*
X117149025Y-63669025D01*
X117286067Y-63556556D01*
X117442419Y-63472985D01*
X117612068Y-63421522D01*
X117788500Y-63404146D01*
X117964931Y-63421522D01*
X117964931Y-63421522D01*
G37*
G36*
X160239000Y-65205000D02*
X159039000Y-65205000D01*
X159039000Y-63905000D01*
X160239000Y-63905000D01*
X160239000Y-65205000D01*
X160239000Y-65205000D01*
G37*
G36*
X163806000Y-65116000D02*
X162506000Y-65116000D01*
X162506000Y-63916000D01*
X163806000Y-63916000D01*
X163806000Y-65116000D01*
X163806000Y-65116000D01*
G37*
G36*
X162106000Y-65116000D02*
X160806000Y-65116000D01*
X160806000Y-63916000D01*
X162106000Y-63916000D01*
X162106000Y-65116000D01*
X162106000Y-65116000D01*
G37*
G36*
X139317900Y-64912800D02*
X138017900Y-64912800D01*
X138017900Y-63712800D01*
X139317900Y-63712800D01*
X139317900Y-64912800D01*
X139317900Y-64912800D01*
G37*
G36*
X137617900Y-64912800D02*
X136317900Y-64912800D01*
X136317900Y-63712800D01*
X137617900Y-63712800D01*
X137617900Y-64912800D01*
X137617900Y-64912800D01*
G37*
G36*
X128786000Y-64858000D02*
X127586000Y-64858000D01*
X127586000Y-63158000D01*
X128786000Y-63158000D01*
X128786000Y-64858000D01*
X128786000Y-64858000D01*
G37*
G36*
X130986000Y-64858000D02*
X129786000Y-64858000D01*
X129786000Y-63158000D01*
X130986000Y-63158000D01*
X130986000Y-64858000D01*
X130986000Y-64858000D01*
G37*
G36*
X134430000Y-64608000D02*
X133130000Y-64608000D01*
X133130000Y-63408000D01*
X134430000Y-63408000D01*
X134430000Y-64608000D01*
X134430000Y-64608000D01*
G37*
G36*
X132730000Y-64608000D02*
X131430000Y-64608000D01*
X131430000Y-63408000D01*
X132730000Y-63408000D01*
X132730000Y-64608000D01*
X132730000Y-64608000D01*
G37*
G36*
X167289619Y-61601930D02*
X167471257Y-61657030D01*
X167638658Y-61746507D01*
X167785385Y-61866923D01*
X167905799Y-62013648D01*
X167995278Y-62181052D01*
X168050378Y-62362688D01*
X168064320Y-62504250D01*
X168064320Y-62903725D01*
X168050378Y-63045287D01*
X167995278Y-63226925D01*
X167905801Y-63394326D01*
X167785385Y-63541053D01*
X167638660Y-63661467D01*
X167471256Y-63750946D01*
X167289620Y-63806046D01*
X167100720Y-63824650D01*
X166911821Y-63806046D01*
X166730185Y-63750946D01*
X166562781Y-63661467D01*
X166416056Y-63541053D01*
X166295641Y-63394327D01*
X166273157Y-63352262D01*
X166206163Y-63226926D01*
X166196307Y-63194436D01*
X166151062Y-63045288D01*
X166137120Y-62903726D01*
X166137120Y-62504251D01*
X166151062Y-62362689D01*
X166206162Y-62181051D01*
X166295639Y-62013650D01*
X166416055Y-61866923D01*
X166562780Y-61746509D01*
X166730184Y-61657030D01*
X166911820Y-61601930D01*
X167100720Y-61583326D01*
X167289619Y-61601930D01*
X167289619Y-61601930D01*
G37*
G36*
X185069619Y-61601930D02*
X185251257Y-61657030D01*
X185418658Y-61746507D01*
X185565385Y-61866923D01*
X185685799Y-62013648D01*
X185775278Y-62181052D01*
X185830378Y-62362688D01*
X185844320Y-62504250D01*
X185844320Y-62903725D01*
X185830378Y-63045287D01*
X185775278Y-63226925D01*
X185685801Y-63394326D01*
X185565385Y-63541053D01*
X185418660Y-63661467D01*
X185251256Y-63750946D01*
X185069620Y-63806046D01*
X184880720Y-63824650D01*
X184691821Y-63806046D01*
X184510185Y-63750946D01*
X184342781Y-63661467D01*
X184196056Y-63541053D01*
X184075641Y-63394327D01*
X184053157Y-63352262D01*
X183986163Y-63226926D01*
X183976307Y-63194436D01*
X183931062Y-63045288D01*
X183917120Y-62903726D01*
X183917120Y-62504251D01*
X183931062Y-62362689D01*
X183986162Y-62181051D01*
X184075639Y-62013650D01*
X184196055Y-61866923D01*
X184342780Y-61746509D01*
X184510184Y-61657030D01*
X184691820Y-61601930D01*
X184880720Y-61583326D01*
X185069619Y-61601930D01*
X185069619Y-61601930D01*
G37*
G36*
X183377600Y-63750000D02*
X180677600Y-63750000D01*
X180677600Y-62150000D01*
X183377600Y-62150000D01*
X183377600Y-63750000D01*
X183377600Y-63750000D01*
G37*
G36*
X171377600Y-63750000D02*
X168677600Y-63750000D01*
X168677600Y-62150000D01*
X171377600Y-62150000D01*
X171377600Y-63750000D01*
X171377600Y-63750000D01*
G37*
G36*
X190701572Y-61811431D02*
X190876935Y-61884068D01*
X191034762Y-61989525D01*
X191168975Y-62123738D01*
X191274432Y-62281565D01*
X191347069Y-62456928D01*
X191384100Y-62643094D01*
X191384100Y-62832906D01*
X191347069Y-63019072D01*
X191274432Y-63194435D01*
X191168975Y-63352262D01*
X191034762Y-63486475D01*
X190876935Y-63591932D01*
X190701572Y-63664569D01*
X190515406Y-63701600D01*
X190325594Y-63701600D01*
X190139428Y-63664569D01*
X189964065Y-63591932D01*
X189806238Y-63486475D01*
X189672025Y-63352262D01*
X189566568Y-63194435D01*
X189493931Y-63019072D01*
X189456900Y-62832906D01*
X189456900Y-62643094D01*
X189493931Y-62456928D01*
X189566568Y-62281565D01*
X189672025Y-62123738D01*
X189806238Y-61989525D01*
X189964065Y-61884068D01*
X190139428Y-61811431D01*
X190325594Y-61774400D01*
X190515406Y-61774400D01*
X190701572Y-61811431D01*
X190701572Y-61811431D01*
G37*
G36*
X162028000Y-63338000D02*
X160728000Y-63338000D01*
X160728000Y-62138000D01*
X162028000Y-62138000D01*
X162028000Y-63338000D01*
X162028000Y-63338000D01*
G37*
G36*
X160328000Y-63338000D02*
X159028000Y-63338000D01*
X159028000Y-62138000D01*
X160328000Y-62138000D01*
X160328000Y-63338000D01*
X160328000Y-63338000D01*
G37*
G36*
X165584000Y-63338000D02*
X164284000Y-63338000D01*
X164284000Y-62138000D01*
X165584000Y-62138000D01*
X165584000Y-63338000D01*
X165584000Y-63338000D01*
G37*
G36*
X163884000Y-63338000D02*
X162584000Y-63338000D01*
X162584000Y-62138000D01*
X163884000Y-62138000D01*
X163884000Y-63338000D01*
X163884000Y-63338000D01*
G37*
G36*
X136238612Y-60785388D02*
X136257554Y-60800934D01*
X136279165Y-60812485D01*
X136302614Y-60819598D01*
X136327000Y-60822000D01*
X137552000Y-60822000D01*
X137552000Y-61297000D01*
X137554402Y-61321386D01*
X137561515Y-61344835D01*
X137573066Y-61366446D01*
X137588612Y-61385388D01*
X137607554Y-61400934D01*
X137629165Y-61412485D01*
X137652614Y-61419598D01*
X137677000Y-61422000D01*
X137802000Y-61422000D01*
X137802000Y-62022000D01*
X137677000Y-62022000D01*
X137652614Y-62024402D01*
X137629165Y-62031515D01*
X137607554Y-62043066D01*
X137588612Y-62058612D01*
X137573066Y-62077554D01*
X137561515Y-62099165D01*
X137554402Y-62122614D01*
X137552000Y-62147000D01*
X137552000Y-62622000D01*
X136327000Y-62622000D01*
X136302614Y-62624402D01*
X136279165Y-62631515D01*
X136257554Y-62643066D01*
X136238612Y-62658612D01*
X136227624Y-62672000D01*
X135502000Y-62672000D01*
X135502000Y-62072000D01*
X136127000Y-62072000D01*
X136151386Y-62069598D01*
X136174835Y-62062485D01*
X136196446Y-62050934D01*
X136215388Y-62035388D01*
X136230934Y-62016446D01*
X136242485Y-61994835D01*
X136249598Y-61971386D01*
X136252000Y-61947000D01*
X136252000Y-61497000D01*
X136249598Y-61472614D01*
X136242485Y-61449165D01*
X136230934Y-61427554D01*
X136215388Y-61408612D01*
X136196446Y-61393066D01*
X136174835Y-61381515D01*
X136151386Y-61374402D01*
X136127000Y-61372000D01*
X135502000Y-61372000D01*
X135502000Y-60772000D01*
X136227624Y-60772000D01*
X136238612Y-60785388D01*
X136238612Y-60785388D01*
G37*
G36*
X155981200Y-62636400D02*
X149681200Y-62636400D01*
X149681200Y-60936400D01*
X155981200Y-60936400D01*
X155981200Y-62636400D01*
X155981200Y-62636400D01*
G37*
G36*
X148758200Y-62114600D02*
X147558200Y-62114600D01*
X147558200Y-60814600D01*
X148758200Y-60814600D01*
X148758200Y-62114600D01*
X148758200Y-62114600D01*
G37*
G36*
X183377600Y-61450000D02*
X180677600Y-61450000D01*
X180677600Y-59850000D01*
X183377600Y-59850000D01*
X183377600Y-61450000D01*
X183377600Y-61450000D01*
G37*
G36*
X171377600Y-61450000D02*
X168677600Y-61450000D01*
X168677600Y-59850000D01*
X171377600Y-59850000D01*
X171377600Y-61450000D01*
X171377600Y-61450000D01*
G37*
G36*
X197120526Y-59044115D02*
X197338912Y-59134573D01*
X197535458Y-59265901D01*
X197702599Y-59433042D01*
X197833927Y-59629588D01*
X197924385Y-59847974D01*
X197970500Y-60079809D01*
X197970500Y-60316191D01*
X197924385Y-60548026D01*
X197833927Y-60766412D01*
X197702599Y-60962958D01*
X197535458Y-61130099D01*
X197338912Y-61261427D01*
X197120526Y-61351885D01*
X196888691Y-61398000D01*
X196652309Y-61398000D01*
X196420474Y-61351885D01*
X196202088Y-61261427D01*
X196005542Y-61130099D01*
X195838401Y-60962958D01*
X195707073Y-60766412D01*
X195616615Y-60548026D01*
X195570500Y-60316191D01*
X195570500Y-60079809D01*
X195616615Y-59847974D01*
X195707073Y-59629588D01*
X195838401Y-59433042D01*
X196005542Y-59265901D01*
X196202088Y-59134573D01*
X196420474Y-59044115D01*
X196652309Y-58998000D01*
X196888691Y-58998000D01*
X197120526Y-59044115D01*
X197120526Y-59044115D01*
G37*
G36*
X123868309Y-60827421D02*
X122668309Y-60827421D01*
X122668309Y-59527421D01*
X123868309Y-59527421D01*
X123868309Y-60827421D01*
X123868309Y-60827421D01*
G37*
G36*
X122141109Y-60827421D02*
X120941109Y-60827421D01*
X120941109Y-59527421D01*
X122141109Y-59527421D01*
X122141109Y-60827421D01*
X122141109Y-60827421D01*
G37*
G36*
X117874614Y-57864648D02*
X118123937Y-57967921D01*
X118348327Y-58117853D01*
X118539147Y-58308673D01*
X118689079Y-58533063D01*
X118792352Y-58782386D01*
X118845000Y-59047065D01*
X118845000Y-59316935D01*
X118792352Y-59581614D01*
X118689079Y-59830937D01*
X118539147Y-60055327D01*
X118348327Y-60246147D01*
X118123937Y-60396079D01*
X117874614Y-60499352D01*
X117609935Y-60552000D01*
X117340065Y-60552000D01*
X117075386Y-60499352D01*
X116826063Y-60396079D01*
X116601673Y-60246147D01*
X116410853Y-60055327D01*
X116260921Y-59830937D01*
X116157648Y-59581614D01*
X116105000Y-59316935D01*
X116105000Y-59047065D01*
X116157648Y-58782386D01*
X116260921Y-58533063D01*
X116410853Y-58308673D01*
X116601673Y-58117853D01*
X116826063Y-57967921D01*
X117075386Y-57864648D01*
X117340065Y-57812000D01*
X117609935Y-57812000D01*
X117874614Y-57864648D01*
X117874614Y-57864648D01*
G37*
G36*
X187724614Y-57864648D02*
X187973937Y-57967921D01*
X188198327Y-58117853D01*
X188389147Y-58308673D01*
X188539079Y-58533063D01*
X188642352Y-58782386D01*
X188695000Y-59047065D01*
X188695000Y-59316935D01*
X188642352Y-59581614D01*
X188539079Y-59830937D01*
X188389147Y-60055327D01*
X188198327Y-60246147D01*
X187973937Y-60396079D01*
X187724614Y-60499352D01*
X187459935Y-60552000D01*
X187190065Y-60552000D01*
X186925386Y-60499352D01*
X186676063Y-60396079D01*
X186451673Y-60246147D01*
X186260853Y-60055327D01*
X186110921Y-59830937D01*
X186007648Y-59581614D01*
X185955000Y-59316935D01*
X185955000Y-59047065D01*
X186007648Y-58782386D01*
X186110921Y-58533063D01*
X186260853Y-58308673D01*
X186451673Y-58117853D01*
X186676063Y-57967921D01*
X186925386Y-57864648D01*
X187190065Y-57812000D01*
X187459935Y-57812000D01*
X187724614Y-57864648D01*
X187724614Y-57864648D01*
G37*
G36*
X148758200Y-60414600D02*
X147558200Y-60414600D01*
X147558200Y-59114600D01*
X148758200Y-59114600D01*
X148758200Y-60414600D01*
X148758200Y-60414600D01*
G37*
G36*
X152670600Y-60061400D02*
X151370600Y-60061400D01*
X151370600Y-58861400D01*
X152670600Y-58861400D01*
X152670600Y-60061400D01*
X152670600Y-60061400D01*
G37*
G36*
X150970600Y-60061400D02*
X149670600Y-60061400D01*
X149670600Y-58861400D01*
X150970600Y-58861400D01*
X150970600Y-60061400D01*
X150970600Y-60061400D01*
G37*
G36*
X156592400Y-60061400D02*
X155292400Y-60061400D01*
X155292400Y-58861400D01*
X156592400Y-58861400D01*
X156592400Y-60061400D01*
X156592400Y-60061400D01*
G37*
G36*
X154892400Y-60061400D02*
X153592400Y-60061400D01*
X153592400Y-58861400D01*
X154892400Y-58861400D01*
X154892400Y-60061400D01*
X154892400Y-60061400D01*
G37*
G36*
X123868309Y-59127421D02*
X122668309Y-59127421D01*
X122668309Y-57827421D01*
X123868309Y-57827421D01*
X123868309Y-59127421D01*
X123868309Y-59127421D01*
G37*
G36*
X122141109Y-59127421D02*
X120941109Y-59127421D01*
X120941109Y-57827421D01*
X122141109Y-57827421D01*
X122141109Y-59127421D01*
X122141109Y-59127421D01*
G37*
M02*
