G04 #@! TF.GenerationSoftware,KiCad,Pcbnew,(5.0.0)*
G04 #@! TF.CreationDate,2018-12-13T17:11:31-06:00*
G04 #@! TF.ProjectId,fk-atlas,666B2D61746C61732E6B696361645F70,rev?*
G04 #@! TF.SameCoordinates,Original*
G04 #@! TF.FileFunction,Copper,L1,Top,Signal*
G04 #@! TF.FilePolarity,Positive*
%FSLAX46Y46*%
G04 Gerber Fmt 4.6, Leading zero omitted, Abs format (unit mm)*
G04 Created by KiCad (PCBNEW (5.0.0)) date 12/13/18 17:11:31*
%MOMM*%
%LPD*%
G01*
G04 APERTURE LIST*
G04 #@! TA.AperFunction,SMDPad,CuDef*
%ADD10R,1.000000X1.100000*%
G04 #@! TD*
G04 #@! TA.AperFunction,SMDPad,CuDef*
%ADD11R,1.100000X1.000000*%
G04 #@! TD*
G04 #@! TA.AperFunction,SMDPad,CuDef*
%ADD12R,2.800000X1.000000*%
G04 #@! TD*
G04 #@! TA.AperFunction,SMDPad,CuDef*
%ADD13R,1.700000X0.600000*%
G04 #@! TD*
G04 #@! TA.AperFunction,SMDPad,CuDef*
%ADD14R,1.800000X1.200000*%
G04 #@! TD*
G04 #@! TA.AperFunction,SMDPad,CuDef*
%ADD15R,1.550000X0.600000*%
G04 #@! TD*
G04 #@! TA.AperFunction,ComponentPad*
%ADD16O,1.600000X1.651000*%
G04 #@! TD*
G04 #@! TA.AperFunction,ComponentPad*
%ADD17O,1.100000X2.200000*%
G04 #@! TD*
G04 #@! TA.AperFunction,SMDPad,CuDef*
%ADD18R,1.500000X0.450000*%
G04 #@! TD*
G04 #@! TA.AperFunction,ComponentPad*
%ADD19O,1.100000X1.800000*%
G04 #@! TD*
G04 #@! TA.AperFunction,SMDPad,CuDef*
%ADD20R,2.500000X1.400000*%
G04 #@! TD*
G04 #@! TA.AperFunction,ComponentPad*
%ADD21O,1.727200X2.032000*%
G04 #@! TD*
G04 #@! TA.AperFunction,SMDPad,CuDef*
%ADD22R,0.700000X1.450000*%
G04 #@! TD*
G04 #@! TA.AperFunction,SMDPad,CuDef*
%ADD23R,0.250000X1.500000*%
G04 #@! TD*
G04 #@! TA.AperFunction,ComponentPad*
%ADD24C,2.200000*%
G04 #@! TD*
G04 #@! TA.AperFunction,ComponentPad*
%ADD25C,1.727200*%
G04 #@! TD*
G04 #@! TA.AperFunction,SMDPad,CuDef*
%ADD26R,0.900000X1.500000*%
G04 #@! TD*
G04 #@! TA.AperFunction,SMDPad,CuDef*
%ADD27C,1.000000*%
G04 #@! TD*
G04 #@! TA.AperFunction,Conductor*
%ADD28C,0.100000*%
G04 #@! TD*
G04 #@! TA.AperFunction,SMDPad,CuDef*
%ADD29R,1.000000X0.700000*%
G04 #@! TD*
G04 #@! TA.AperFunction,SMDPad,CuDef*
%ADD30R,0.600000X0.700000*%
G04 #@! TD*
G04 #@! TA.AperFunction,SMDPad,CuDef*
%ADD31R,0.500000X0.400000*%
G04 #@! TD*
G04 #@! TA.AperFunction,SMDPad,CuDef*
%ADD32R,1.100000X1.600000*%
G04 #@! TD*
G04 #@! TA.AperFunction,SMDPad,CuDef*
%ADD33R,0.250000X0.400000*%
G04 #@! TD*
G04 #@! TA.AperFunction,SMDPad,CuDef*
%ADD34R,1.000000X1.500000*%
G04 #@! TD*
G04 #@! TA.AperFunction,SMDPad,CuDef*
%ADD35R,2.100000X0.750000*%
G04 #@! TD*
G04 #@! TA.AperFunction,BGAPad,CuDef*
%ADD36C,1.000000*%
G04 #@! TD*
G04 #@! TA.AperFunction,SMDPad,CuDef*
%ADD37R,1.050000X0.650000*%
G04 #@! TD*
G04 #@! TA.AperFunction,SMDPad,CuDef*
%ADD38C,0.250000*%
G04 #@! TD*
G04 #@! TA.AperFunction,SMDPad,CuDef*
%ADD39R,1.200000X0.800000*%
G04 #@! TD*
G04 #@! TA.AperFunction,SMDPad,CuDef*
%ADD40R,2.200000X0.800000*%
G04 #@! TD*
G04 #@! TA.AperFunction,SMDPad,CuDef*
%ADD41R,2.500000X2.000000*%
G04 #@! TD*
G04 #@! TA.AperFunction,SMDPad,CuDef*
%ADD42C,1.100000*%
G04 #@! TD*
G04 #@! TA.AperFunction,SMDPad,CuDef*
%ADD43R,3.000000X0.600000*%
G04 #@! TD*
G04 #@! TA.AperFunction,SMDPad,CuDef*
%ADD44R,0.600000X2.000000*%
G04 #@! TD*
G04 #@! TA.AperFunction,ViaPad*
%ADD45C,0.500000*%
G04 #@! TD*
G04 #@! TA.AperFunction,Conductor*
%ADD46C,0.254000*%
G04 #@! TD*
G04 #@! TA.AperFunction,Conductor*
%ADD47C,0.587000*%
G04 #@! TD*
G04 #@! TA.AperFunction,Conductor*
%ADD48C,0.381000*%
G04 #@! TD*
G04 #@! TA.AperFunction,Conductor*
%ADD49C,0.203000*%
G04 #@! TD*
G04 #@! TA.AperFunction,Conductor*
%ADD50C,0.762000*%
G04 #@! TD*
G04 APERTURE END LIST*
D10*
G04 #@! TO.P,D1,2*
G04 #@! TO.N,3V3*
X132588000Y-72859000D03*
G04 #@! TO.P,D1,1*
G04 #@! TO.N,Net-(D1-Pad1)*
X132588000Y-71159000D03*
G04 #@! TD*
D11*
G04 #@! TO.P,R17,1*
G04 #@! TO.N,Net-(D1-Pad1)*
X132666000Y-69215000D03*
G04 #@! TO.P,R17,2*
G04 #@! TO.N,GND*
X134366000Y-69215000D03*
G04 #@! TD*
D12*
G04 #@! TO.P,J6,*
G04 #@! TO.N,*
X118615000Y-123656000D03*
X118615000Y-131106000D03*
D13*
G04 #@! TO.P,J6,4*
G04 #@! TO.N,/SDA2*
X121965000Y-125506000D03*
G04 #@! TO.P,J6,3*
G04 #@! TO.N,/SCL2*
X121965000Y-126756000D03*
G04 #@! TO.P,J6,2*
G04 #@! TO.N,GND*
X121965000Y-128006000D03*
G04 #@! TO.P,J6,1*
G04 #@! TO.N,3V3*
X121965000Y-129256000D03*
G04 #@! TD*
D11*
G04 #@! TO.P,C24,1*
G04 #@! TO.N,GND*
X126326000Y-132207000D03*
G04 #@! TO.P,C24,2*
G04 #@! TO.N,3V3*
X124626000Y-132207000D03*
G04 #@! TD*
D14*
G04 #@! TO.P,J10,*
G04 #@! TO.N,*
X125419000Y-130304000D03*
X125419000Y-124204000D03*
D15*
G04 #@! TO.P,J10,4*
G04 #@! TO.N,/SCL2*
X127944000Y-125754000D03*
G04 #@! TO.P,J10,3*
G04 #@! TO.N,/SDA2*
X127944000Y-126754000D03*
G04 #@! TO.P,J10,2*
G04 #@! TO.N,3V3*
X127944000Y-127754000D03*
G04 #@! TO.P,J10,1*
G04 #@! TO.N,GND*
X127944000Y-128754000D03*
G04 #@! TD*
D10*
G04 #@! TO.P,C23,2*
G04 #@! TO.N,GND*
X134112000Y-118149000D03*
G04 #@! TO.P,C23,1*
G04 #@! TO.N,3V3*
X134112000Y-119849000D03*
G04 #@! TD*
G04 #@! TO.P,C22,1*
G04 #@! TO.N,3V3*
X132588000Y-119849000D03*
G04 #@! TO.P,C22,2*
G04 #@! TO.N,GND*
X132588000Y-118149000D03*
G04 #@! TD*
G04 #@! TO.P,R14,2*
G04 #@! TO.N,GND*
X141859000Y-125056000D03*
G04 #@! TO.P,R14,1*
G04 #@! TO.N,VCC*
X141859000Y-123356000D03*
G04 #@! TD*
D11*
G04 #@! TO.P,R15,2*
G04 #@! TO.N,/SDA1*
X137502000Y-131889500D03*
G04 #@! TO.P,R15,1*
G04 #@! TO.N,/SDA2*
X135802000Y-131889500D03*
G04 #@! TD*
G04 #@! TO.P,R16,1*
G04 #@! TO.N,/SCL2*
X135802000Y-130302000D03*
G04 #@! TO.P,R16,2*
G04 #@! TO.N,/SCL1*
X137502000Y-130302000D03*
G04 #@! TD*
D16*
G04 #@! TO.P,J9,*
G04 #@! TO.N,*
X117788500Y-70934000D03*
X117788500Y-64334000D03*
G04 #@! TD*
D17*
G04 #@! TO.P,J2,8*
G04 #@! TO.N,Net-(J2-Pad8)*
X119004000Y-67594000D03*
D18*
G04 #@! TO.P,J2,5*
G04 #@! TO.N,GND*
X120904000Y-68894000D03*
G04 #@! TO.P,J2,4*
G04 #@! TO.N,Net-(J2-Pad4)*
X120904000Y-68244000D03*
G04 #@! TO.P,J2,2*
G04 #@! TO.N,/USB-*
X120904000Y-66944000D03*
G04 #@! TO.P,J2,3*
G04 #@! TO.N,/USB+*
X120904000Y-67594000D03*
D19*
G04 #@! TO.P,J2,7*
G04 #@! TO.N,Net-(J2-Pad7)*
X121154000Y-70394000D03*
G04 #@! TO.P,J2,6*
G04 #@! TO.N,Net-(C13-Pad1)*
X121154000Y-64794000D03*
D18*
G04 #@! TO.P,J2,1*
G04 #@! TO.N,VUSB*
X120904000Y-66294000D03*
G04 #@! TD*
D20*
G04 #@! TO.P,U302,2*
G04 #@! TO.N,/isolated_atlas1/ISO_SDA*
X181799000Y-86402000D03*
G04 #@! TO.P,U302,~*
G04 #@! TO.N,N/C*
X181799000Y-84102000D03*
G04 #@! TO.P,U302,3*
G04 #@! TO.N,/isolated_atlas1/ISO_VCC*
X181799000Y-81802000D03*
G04 #@! TO.P,U302,5*
G04 #@! TO.N,Net-(J301-Pad2)*
X181799000Y-79502000D03*
X181799000Y-77202000D03*
G04 #@! TO.P,U302,4*
G04 #@! TO.N,/isolated_atlas1/ISO_GND*
X169799000Y-77202000D03*
G04 #@! TO.P,U302,~*
G04 #@! TO.N,N/C*
X169799000Y-79502000D03*
G04 #@! TO.P,U302,1*
G04 #@! TO.N,/isolated_atlas1/ISO_SCL*
X169799000Y-81802000D03*
G04 #@! TO.P,U302,~*
G04 #@! TO.N,N/C*
X169799000Y-84102000D03*
X169799000Y-86402000D03*
D21*
G04 #@! TO.P,U302,1*
G04 #@! TO.N,/isolated_atlas1/ISO_SCL*
X166872120Y-79255988D03*
G04 #@! TO.P,U302,2*
G04 #@! TO.N,/isolated_atlas1/ISO_SDA*
X166872120Y-81795988D03*
G04 #@! TO.P,U302,4*
G04 #@! TO.N,/isolated_atlas1/ISO_GND*
X166872120Y-84335988D03*
G04 #@! TO.P,U302,6*
G04 #@! TO.N,/isolated_atlas1/RTD_PGND*
X184652120Y-79255988D03*
G04 #@! TO.P,U302,5*
G04 #@! TO.N,Net-(J301-Pad2)*
X184652120Y-81795988D03*
G04 #@! TO.P,U302,3*
G04 #@! TO.N,/isolated_atlas1/ISO_VCC*
X184652120Y-84335988D03*
D20*
G04 #@! TO.P,U302,6*
G04 #@! TO.N,/isolated_atlas1/RTD_PGND*
X181799000Y-74902000D03*
X169799000Y-74902000D03*
G04 #@! TD*
D11*
G04 #@! TO.P,R204,1*
G04 #@! TO.N,Net-(R202-Pad2)*
X161456000Y-64516000D03*
G04 #@! TO.P,R204,2*
G04 #@! TO.N,/isolated_atlas0/ISO_VCC*
X163156000Y-64516000D03*
G04 #@! TD*
D12*
G04 #@! TO.P,J5,*
G04 #@! TO.N,*
X118615000Y-112744000D03*
X118615000Y-121444000D03*
D13*
G04 #@! TO.P,J5,5*
G04 #@! TO.N,/SDA3*
X121965000Y-114594000D03*
G04 #@! TO.P,J5,4*
G04 #@! TO.N,/SCL3*
X121965000Y-115844000D03*
G04 #@! TO.P,J5,3*
G04 #@! TO.N,Net-(J5-Pad3)*
X121965000Y-117094000D03*
G04 #@! TO.P,J5,2*
G04 #@! TO.N,GND*
X121965000Y-118344000D03*
G04 #@! TO.P,J5,1*
G04 #@! TO.N,3V3*
X121965000Y-119594000D03*
G04 #@! TD*
D22*
G04 #@! TO.P,SW1,1*
G04 #@! TO.N,GND*
X116983000Y-88352000D03*
X116983000Y-93512000D03*
G04 #@! TO.P,SW1,2*
G04 #@! TO.N,/RST*
X118983000Y-93512000D03*
X118983000Y-88352000D03*
G04 #@! TD*
D21*
G04 #@! TO.P,U202,3*
G04 #@! TO.N,/isolated_atlas0/ISO_VCC*
X184880720Y-67783988D03*
G04 #@! TO.P,U202,5*
G04 #@! TO.N,Net-(J201-Pad2)*
X184880720Y-65243988D03*
G04 #@! TO.P,U202,6*
G04 #@! TO.N,/isolated_atlas0/EC_PGND*
X184880720Y-62703988D03*
G04 #@! TO.P,U202,4*
G04 #@! TO.N,/isolated_atlas0/ISO_GND*
X167100720Y-67783988D03*
G04 #@! TO.P,U202,2*
G04 #@! TO.N,/isolated_atlas0/ISO_SDA*
X167100720Y-65243988D03*
G04 #@! TO.P,U202,1*
G04 #@! TO.N,/isolated_atlas0/ISO_SCL*
X167100720Y-62703988D03*
D20*
G04 #@! TO.P,U202,~*
G04 #@! TO.N,N/C*
X170027600Y-69850000D03*
X170027600Y-67550000D03*
G04 #@! TO.P,U202,1*
G04 #@! TO.N,/isolated_atlas0/ISO_SCL*
X170027600Y-65250000D03*
G04 #@! TO.P,U202,~*
G04 #@! TO.N,N/C*
X170027600Y-62950000D03*
G04 #@! TO.P,U202,4*
G04 #@! TO.N,/isolated_atlas0/ISO_GND*
X170027600Y-60650000D03*
G04 #@! TO.P,U202,6*
G04 #@! TO.N,/isolated_atlas0/EC_PGND*
X182027600Y-60650000D03*
G04 #@! TO.P,U202,5*
G04 #@! TO.N,Net-(J201-Pad2)*
X182027600Y-62950000D03*
G04 #@! TO.P,U202,3*
G04 #@! TO.N,/isolated_atlas0/ISO_VCC*
X182027600Y-65250000D03*
G04 #@! TO.P,U202,~*
G04 #@! TO.N,N/C*
X182027600Y-67550000D03*
G04 #@! TO.P,U202,2*
G04 #@! TO.N,/isolated_atlas0/ISO_SDA*
X182027600Y-69850000D03*
G04 #@! TD*
D21*
G04 #@! TO.P,U402,3*
G04 #@! TO.N,/isolated_atlas2/ISO_VCC*
X184880720Y-99829988D03*
G04 #@! TO.P,U402,5*
G04 #@! TO.N,Net-(J401-Pad2)*
X184880720Y-97289988D03*
G04 #@! TO.P,U402,6*
G04 #@! TO.N,/isolated_atlas2/PH_PGND*
X184880720Y-94749988D03*
G04 #@! TO.P,U402,4*
G04 #@! TO.N,/isolated_atlas2/ISO_GND*
X167100720Y-99829988D03*
G04 #@! TO.P,U402,2*
G04 #@! TO.N,/isolated_atlas2/ISO_SDA*
X167100720Y-97289988D03*
G04 #@! TO.P,U402,1*
G04 #@! TO.N,/isolated_atlas2/ISO_SCL*
X167100720Y-94749988D03*
D20*
G04 #@! TO.P,U402,~*
G04 #@! TO.N,N/C*
X170027600Y-101896000D03*
X170027600Y-99596000D03*
G04 #@! TO.P,U402,1*
G04 #@! TO.N,/isolated_atlas2/ISO_SCL*
X170027600Y-97296000D03*
G04 #@! TO.P,U402,~*
G04 #@! TO.N,N/C*
X170027600Y-94996000D03*
G04 #@! TO.P,U402,4*
G04 #@! TO.N,/isolated_atlas2/ISO_GND*
X170027600Y-92696000D03*
G04 #@! TO.P,U402,6*
G04 #@! TO.N,/isolated_atlas2/PH_PGND*
X182027600Y-92696000D03*
G04 #@! TO.P,U402,5*
G04 #@! TO.N,Net-(J401-Pad2)*
X182027600Y-94996000D03*
G04 #@! TO.P,U402,3*
G04 #@! TO.N,/isolated_atlas2/ISO_VCC*
X182027600Y-97296000D03*
G04 #@! TO.P,U402,~*
G04 #@! TO.N,N/C*
X182027600Y-99596000D03*
G04 #@! TO.P,U402,2*
G04 #@! TO.N,/isolated_atlas2/ISO_SDA*
X182027600Y-101896000D03*
G04 #@! TD*
D21*
G04 #@! TO.P,U502,3*
G04 #@! TO.N,/isolated_atlas3/ISO_VCC*
X184875120Y-115816488D03*
G04 #@! TO.P,U502,5*
G04 #@! TO.N,Net-(J501-Pad2)*
X184875120Y-113276488D03*
G04 #@! TO.P,U502,6*
G04 #@! TO.N,/isolated_atlas3/DO_PGND*
X184875120Y-110736488D03*
G04 #@! TO.P,U502,4*
G04 #@! TO.N,/isolated_atlas3/ISO_GND*
X167095120Y-115816488D03*
G04 #@! TO.P,U502,2*
G04 #@! TO.N,/isolated_atlas3/ISO_SDA*
X167095120Y-113276488D03*
G04 #@! TO.P,U502,1*
G04 #@! TO.N,/isolated_atlas3/ISO_SCL*
X167095120Y-110736488D03*
D20*
G04 #@! TO.P,U502,~*
G04 #@! TO.N,N/C*
X170022000Y-117882500D03*
X170022000Y-115582500D03*
G04 #@! TO.P,U502,1*
G04 #@! TO.N,/isolated_atlas3/ISO_SCL*
X170022000Y-113282500D03*
G04 #@! TO.P,U502,~*
G04 #@! TO.N,N/C*
X170022000Y-110982500D03*
G04 #@! TO.P,U502,4*
G04 #@! TO.N,/isolated_atlas3/ISO_GND*
X170022000Y-108682500D03*
G04 #@! TO.P,U502,6*
G04 #@! TO.N,/isolated_atlas3/DO_PGND*
X182022000Y-108682500D03*
G04 #@! TO.P,U502,5*
G04 #@! TO.N,Net-(J501-Pad2)*
X182022000Y-110982500D03*
G04 #@! TO.P,U502,3*
G04 #@! TO.N,/isolated_atlas3/ISO_VCC*
X182022000Y-113282500D03*
G04 #@! TO.P,U502,~*
G04 #@! TO.N,N/C*
X182022000Y-115582500D03*
G04 #@! TO.P,U502,2*
G04 #@! TO.N,/isolated_atlas3/ISO_SDA*
X182022000Y-117882500D03*
G04 #@! TD*
D21*
G04 #@! TO.P,U602,3*
G04 #@! TO.N,/isolated_atlas4/ISO_VCC*
X184875120Y-131833988D03*
G04 #@! TO.P,U602,5*
G04 #@! TO.N,Net-(J601-Pad2)*
X184875120Y-129293988D03*
G04 #@! TO.P,U602,6*
G04 #@! TO.N,/isolated_atlas4/ORP_PGND*
X184875120Y-126753988D03*
G04 #@! TO.P,U602,4*
G04 #@! TO.N,/isolated_atlas4/ISO_GND*
X167095120Y-131833988D03*
G04 #@! TO.P,U602,2*
G04 #@! TO.N,/isolated_atlas4/ISO_SDA*
X167095120Y-129293988D03*
G04 #@! TO.P,U602,1*
G04 #@! TO.N,/isolated_atlas4/ISO_SCL*
X167095120Y-126753988D03*
D20*
G04 #@! TO.P,U602,~*
G04 #@! TO.N,N/C*
X170022000Y-133900000D03*
X170022000Y-131600000D03*
G04 #@! TO.P,U602,1*
G04 #@! TO.N,/isolated_atlas4/ISO_SCL*
X170022000Y-129300000D03*
G04 #@! TO.P,U602,~*
G04 #@! TO.N,N/C*
X170022000Y-127000000D03*
G04 #@! TO.P,U602,4*
G04 #@! TO.N,/isolated_atlas4/ISO_GND*
X170022000Y-124700000D03*
G04 #@! TO.P,U602,6*
G04 #@! TO.N,/isolated_atlas4/ORP_PGND*
X182022000Y-124700000D03*
G04 #@! TO.P,U602,5*
G04 #@! TO.N,Net-(J601-Pad2)*
X182022000Y-127000000D03*
G04 #@! TO.P,U602,3*
G04 #@! TO.N,/isolated_atlas4/ISO_VCC*
X182022000Y-129300000D03*
G04 #@! TO.P,U602,~*
G04 #@! TO.N,N/C*
X182022000Y-131600000D03*
G04 #@! TO.P,U602,2*
G04 #@! TO.N,/isolated_atlas4/ISO_SDA*
X182022000Y-133900000D03*
G04 #@! TD*
D23*
G04 #@! TO.P,U201,1*
G04 #@! TO.N,GND*
X149906200Y-68986400D03*
G04 #@! TO.P,U201,2*
G04 #@! TO.N,/SCL1*
X150556200Y-68986400D03*
G04 #@! TO.P,U201,3*
G04 #@! TO.N,/SDA1*
X151206200Y-68986400D03*
G04 #@! TO.P,U201,4*
G04 #@! TO.N,VCC*
X151856200Y-68986400D03*
G04 #@! TO.P,U201,5*
G04 #@! TO.N,GND*
X152506200Y-68986400D03*
G04 #@! TO.P,U201,6*
G04 #@! TO.N,Net-(U201-Pad6)*
X153156200Y-68986400D03*
G04 #@! TO.P,U201,7*
G04 #@! TO.N,GND*
X153806200Y-68986400D03*
G04 #@! TO.P,U201,8*
X154456200Y-68986400D03*
G04 #@! TO.P,U201,9*
G04 #@! TO.N,VCC*
X155106200Y-68986400D03*
G04 #@! TO.P,U201,10*
G04 #@! TO.N,GND*
X155756200Y-68986400D03*
G04 #@! TO.P,U201,11*
G04 #@! TO.N,/isolated_atlas0/ISO_GND*
X155756200Y-61786400D03*
G04 #@! TO.P,U201,12*
G04 #@! TO.N,/isolated_atlas0/ISO_VCC*
X155106200Y-61786400D03*
G04 #@! TO.P,U201,13*
G04 #@! TO.N,Net-(R201-Pad1)*
X154456200Y-61786400D03*
G04 #@! TO.P,U201,14*
G04 #@! TO.N,/isolated_atlas0/ISO_GND*
X153806200Y-61786400D03*
G04 #@! TO.P,U201,15*
G04 #@! TO.N,Net-(U201-Pad15)*
X153156200Y-61786400D03*
G04 #@! TO.P,U201,16*
G04 #@! TO.N,/isolated_atlas0/ISO_GND*
X152506200Y-61786400D03*
G04 #@! TO.P,U201,17*
G04 #@! TO.N,/isolated_atlas0/ISO_VCC*
X151856200Y-61786400D03*
G04 #@! TO.P,U201,18*
G04 #@! TO.N,/isolated_atlas0/ISO_SDA*
X151206200Y-61786400D03*
G04 #@! TO.P,U201,19*
G04 #@! TO.N,/isolated_atlas0/ISO_SCL*
X150556200Y-61786400D03*
G04 #@! TO.P,U201,20*
G04 #@! TO.N,/isolated_atlas0/ISO_GND*
X149906200Y-61786400D03*
G04 #@! TD*
G04 #@! TO.P,U301,1*
G04 #@! TO.N,GND*
X149912000Y-85013800D03*
G04 #@! TO.P,U301,2*
G04 #@! TO.N,/SCL1*
X150562000Y-85013800D03*
G04 #@! TO.P,U301,3*
G04 #@! TO.N,/SDA1*
X151212000Y-85013800D03*
G04 #@! TO.P,U301,4*
G04 #@! TO.N,VCC*
X151862000Y-85013800D03*
G04 #@! TO.P,U301,5*
G04 #@! TO.N,GND*
X152512000Y-85013800D03*
G04 #@! TO.P,U301,6*
G04 #@! TO.N,Net-(U301-Pad6)*
X153162000Y-85013800D03*
G04 #@! TO.P,U301,7*
G04 #@! TO.N,GND*
X153812000Y-85013800D03*
G04 #@! TO.P,U301,8*
X154462000Y-85013800D03*
G04 #@! TO.P,U301,9*
G04 #@! TO.N,VCC*
X155112000Y-85013800D03*
G04 #@! TO.P,U301,10*
G04 #@! TO.N,GND*
X155762000Y-85013800D03*
G04 #@! TO.P,U301,11*
G04 #@! TO.N,/isolated_atlas1/ISO_GND*
X155762000Y-77813800D03*
G04 #@! TO.P,U301,12*
G04 #@! TO.N,/isolated_atlas1/ISO_VCC*
X155112000Y-77813800D03*
G04 #@! TO.P,U301,13*
G04 #@! TO.N,Net-(R301-Pad1)*
X154462000Y-77813800D03*
G04 #@! TO.P,U301,14*
G04 #@! TO.N,/isolated_atlas1/ISO_GND*
X153812000Y-77813800D03*
G04 #@! TO.P,U301,15*
G04 #@! TO.N,Net-(U301-Pad15)*
X153162000Y-77813800D03*
G04 #@! TO.P,U301,16*
G04 #@! TO.N,/isolated_atlas1/ISO_GND*
X152512000Y-77813800D03*
G04 #@! TO.P,U301,17*
G04 #@! TO.N,/isolated_atlas1/ISO_VCC*
X151862000Y-77813800D03*
G04 #@! TO.P,U301,18*
G04 #@! TO.N,/isolated_atlas1/ISO_SDA*
X151212000Y-77813800D03*
G04 #@! TO.P,U301,19*
G04 #@! TO.N,/isolated_atlas1/ISO_SCL*
X150562000Y-77813800D03*
G04 #@! TO.P,U301,20*
G04 #@! TO.N,/isolated_atlas1/ISO_GND*
X149912000Y-77813800D03*
G04 #@! TD*
G04 #@! TO.P,U401,1*
G04 #@! TO.N,GND*
X149906200Y-100965000D03*
G04 #@! TO.P,U401,2*
G04 #@! TO.N,/SCL1*
X150556200Y-100965000D03*
G04 #@! TO.P,U401,3*
G04 #@! TO.N,/SDA1*
X151206200Y-100965000D03*
G04 #@! TO.P,U401,4*
G04 #@! TO.N,VCC*
X151856200Y-100965000D03*
G04 #@! TO.P,U401,5*
G04 #@! TO.N,GND*
X152506200Y-100965000D03*
G04 #@! TO.P,U401,6*
G04 #@! TO.N,Net-(U401-Pad6)*
X153156200Y-100965000D03*
G04 #@! TO.P,U401,7*
G04 #@! TO.N,GND*
X153806200Y-100965000D03*
G04 #@! TO.P,U401,8*
X154456200Y-100965000D03*
G04 #@! TO.P,U401,9*
G04 #@! TO.N,VCC*
X155106200Y-100965000D03*
G04 #@! TO.P,U401,10*
G04 #@! TO.N,GND*
X155756200Y-100965000D03*
G04 #@! TO.P,U401,11*
G04 #@! TO.N,/isolated_atlas2/ISO_GND*
X155756200Y-93765000D03*
G04 #@! TO.P,U401,12*
G04 #@! TO.N,/isolated_atlas2/ISO_VCC*
X155106200Y-93765000D03*
G04 #@! TO.P,U401,13*
G04 #@! TO.N,Net-(R401-Pad1)*
X154456200Y-93765000D03*
G04 #@! TO.P,U401,14*
G04 #@! TO.N,/isolated_atlas2/ISO_GND*
X153806200Y-93765000D03*
G04 #@! TO.P,U401,15*
G04 #@! TO.N,Net-(U401-Pad15)*
X153156200Y-93765000D03*
G04 #@! TO.P,U401,16*
G04 #@! TO.N,/isolated_atlas2/ISO_GND*
X152506200Y-93765000D03*
G04 #@! TO.P,U401,17*
G04 #@! TO.N,/isolated_atlas2/ISO_VCC*
X151856200Y-93765000D03*
G04 #@! TO.P,U401,18*
G04 #@! TO.N,/isolated_atlas2/ISO_SDA*
X151206200Y-93765000D03*
G04 #@! TO.P,U401,19*
G04 #@! TO.N,/isolated_atlas2/ISO_SCL*
X150556200Y-93765000D03*
G04 #@! TO.P,U401,20*
G04 #@! TO.N,/isolated_atlas2/ISO_GND*
X149906200Y-93765000D03*
G04 #@! TD*
G04 #@! TO.P,U501,1*
G04 #@! TO.N,GND*
X149901600Y-116967000D03*
G04 #@! TO.P,U501,2*
G04 #@! TO.N,/SCL1*
X150551600Y-116967000D03*
G04 #@! TO.P,U501,3*
G04 #@! TO.N,/SDA1*
X151201600Y-116967000D03*
G04 #@! TO.P,U501,4*
G04 #@! TO.N,VCC*
X151851600Y-116967000D03*
G04 #@! TO.P,U501,5*
G04 #@! TO.N,GND*
X152501600Y-116967000D03*
G04 #@! TO.P,U501,6*
G04 #@! TO.N,Net-(U501-Pad6)*
X153151600Y-116967000D03*
G04 #@! TO.P,U501,7*
G04 #@! TO.N,GND*
X153801600Y-116967000D03*
G04 #@! TO.P,U501,8*
X154451600Y-116967000D03*
G04 #@! TO.P,U501,9*
G04 #@! TO.N,VCC*
X155101600Y-116967000D03*
G04 #@! TO.P,U501,10*
G04 #@! TO.N,GND*
X155751600Y-116967000D03*
G04 #@! TO.P,U501,11*
G04 #@! TO.N,/isolated_atlas3/ISO_GND*
X155751600Y-109767000D03*
G04 #@! TO.P,U501,12*
G04 #@! TO.N,/isolated_atlas3/ISO_VCC*
X155101600Y-109767000D03*
G04 #@! TO.P,U501,13*
G04 #@! TO.N,Net-(R501-Pad1)*
X154451600Y-109767000D03*
G04 #@! TO.P,U501,14*
G04 #@! TO.N,/isolated_atlas3/ISO_GND*
X153801600Y-109767000D03*
G04 #@! TO.P,U501,15*
G04 #@! TO.N,Net-(U501-Pad15)*
X153151600Y-109767000D03*
G04 #@! TO.P,U501,16*
G04 #@! TO.N,/isolated_atlas3/ISO_GND*
X152501600Y-109767000D03*
G04 #@! TO.P,U501,17*
G04 #@! TO.N,/isolated_atlas3/ISO_VCC*
X151851600Y-109767000D03*
G04 #@! TO.P,U501,18*
G04 #@! TO.N,/isolated_atlas3/ISO_SDA*
X151201600Y-109767000D03*
G04 #@! TO.P,U501,19*
G04 #@! TO.N,/isolated_atlas3/ISO_SCL*
X150551600Y-109767000D03*
G04 #@! TO.P,U501,20*
G04 #@! TO.N,/isolated_atlas3/ISO_GND*
X149901600Y-109767000D03*
G04 #@! TD*
G04 #@! TO.P,U601,1*
G04 #@! TO.N,GND*
X149901600Y-133107800D03*
G04 #@! TO.P,U601,2*
G04 #@! TO.N,/SCL1*
X150551600Y-133107800D03*
G04 #@! TO.P,U601,3*
G04 #@! TO.N,/SDA1*
X151201600Y-133107800D03*
G04 #@! TO.P,U601,4*
G04 #@! TO.N,VCC*
X151851600Y-133107800D03*
G04 #@! TO.P,U601,5*
G04 #@! TO.N,GND*
X152501600Y-133107800D03*
G04 #@! TO.P,U601,6*
G04 #@! TO.N,Net-(U601-Pad6)*
X153151600Y-133107800D03*
G04 #@! TO.P,U601,7*
G04 #@! TO.N,GND*
X153801600Y-133107800D03*
G04 #@! TO.P,U601,8*
X154451600Y-133107800D03*
G04 #@! TO.P,U601,9*
G04 #@! TO.N,VCC*
X155101600Y-133107800D03*
G04 #@! TO.P,U601,10*
G04 #@! TO.N,GND*
X155751600Y-133107800D03*
G04 #@! TO.P,U601,11*
G04 #@! TO.N,/isolated_atlas4/ISO_GND*
X155751600Y-125907800D03*
G04 #@! TO.P,U601,12*
G04 #@! TO.N,/isolated_atlas4/ISO_VCC*
X155101600Y-125907800D03*
G04 #@! TO.P,U601,13*
G04 #@! TO.N,Net-(R601-Pad1)*
X154451600Y-125907800D03*
G04 #@! TO.P,U601,14*
G04 #@! TO.N,/isolated_atlas4/ISO_GND*
X153801600Y-125907800D03*
G04 #@! TO.P,U601,15*
G04 #@! TO.N,Net-(U601-Pad15)*
X153151600Y-125907800D03*
G04 #@! TO.P,U601,16*
G04 #@! TO.N,/isolated_atlas4/ISO_GND*
X152501600Y-125907800D03*
G04 #@! TO.P,U601,17*
G04 #@! TO.N,/isolated_atlas4/ISO_VCC*
X151851600Y-125907800D03*
G04 #@! TO.P,U601,18*
G04 #@! TO.N,/isolated_atlas4/ISO_SDA*
X151201600Y-125907800D03*
G04 #@! TO.P,U601,19*
G04 #@! TO.N,/isolated_atlas4/ISO_SCL*
X150551600Y-125907800D03*
G04 #@! TO.P,U601,20*
G04 #@! TO.N,/isolated_atlas4/ISO_GND*
X149901600Y-125907800D03*
G04 #@! TD*
D24*
G04 #@! TO.P,J601,4*
G04 #@! TO.N,N/C*
X196834000Y-134366000D03*
G04 #@! TO.P,J601,3*
X196834000Y-124206000D03*
D25*
G04 #@! TO.P,J601,2*
G04 #@! TO.N,Net-(J601-Pad2)*
X190484000Y-129286000D03*
G04 #@! TO.P,J601,1*
G04 #@! TO.N,/isolated_atlas4/ORP_PGND*
X190484000Y-126746000D03*
G04 #@! TD*
D24*
G04 #@! TO.P,J501,4*
G04 #@! TO.N,N/C*
X196834000Y-118364000D03*
G04 #@! TO.P,J501,3*
X196834000Y-108204000D03*
D25*
G04 #@! TO.P,J501,2*
G04 #@! TO.N,Net-(J501-Pad2)*
X190484000Y-113284000D03*
G04 #@! TO.P,J501,1*
G04 #@! TO.N,/isolated_atlas3/DO_PGND*
X190484000Y-110744000D03*
G04 #@! TD*
D24*
G04 #@! TO.P,J301,4*
G04 #@! TO.N,N/C*
X196834000Y-86360000D03*
G04 #@! TO.P,J301,3*
X196834000Y-76200000D03*
D25*
G04 #@! TO.P,J301,2*
G04 #@! TO.N,Net-(J301-Pad2)*
X190484000Y-81280000D03*
G04 #@! TO.P,J301,1*
G04 #@! TO.N,/isolated_atlas1/RTD_PGND*
X190484000Y-78740000D03*
G04 #@! TD*
D24*
G04 #@! TO.P,J401,4*
G04 #@! TO.N,N/C*
X196834000Y-102358000D03*
G04 #@! TO.P,J401,3*
X196834000Y-92198000D03*
D25*
G04 #@! TO.P,J401,2*
G04 #@! TO.N,Net-(J401-Pad2)*
X190484000Y-97278000D03*
G04 #@! TO.P,J401,1*
G04 #@! TO.N,/isolated_atlas2/PH_PGND*
X190484000Y-94738000D03*
G04 #@! TD*
D24*
G04 #@! TO.P,J201,4*
G04 #@! TO.N,N/C*
X196770500Y-70358000D03*
G04 #@! TO.P,J201,3*
X196770500Y-60198000D03*
D25*
G04 #@! TO.P,J201,2*
G04 #@! TO.N,Net-(J201-Pad2)*
X190420500Y-65278000D03*
G04 #@! TO.P,J201,1*
G04 #@! TO.N,/isolated_atlas0/EC_PGND*
X190420500Y-62738000D03*
G04 #@! TD*
D12*
G04 #@! TO.P,J4,*
G04 #@! TO.N,*
X118615000Y-104342000D03*
X118615000Y-110542000D03*
D13*
G04 #@! TO.P,J4,3*
G04 #@! TO.N,/D30*
X121965000Y-106192000D03*
G04 #@! TO.P,J4,2*
G04 #@! TO.N,/D31*
X121965000Y-107442000D03*
G04 #@! TO.P,J4,1*
G04 #@! TO.N,GND*
X121965000Y-108692000D03*
G04 #@! TD*
D26*
G04 #@! TO.P,U5,3*
G04 #@! TO.N,3V3*
X116841000Y-102018000D03*
G04 #@! TO.P,U5,4*
G04 #@! TO.N,Net-(U5-Pad4)*
X120141000Y-102018000D03*
G04 #@! TO.P,U5,1*
G04 #@! TO.N,GND*
X120141000Y-97118000D03*
G04 #@! TO.P,U5,2*
G04 #@! TO.N,/A3*
X116841000Y-97118000D03*
G04 #@! TD*
D10*
G04 #@! TO.P,C1,1*
G04 #@! TO.N,Net-(C1-Pad1)*
X126009400Y-87819600D03*
G04 #@! TO.P,C1,2*
G04 #@! TO.N,GND*
X126009400Y-86119600D03*
G04 #@! TD*
G04 #@! TO.P,C2,1*
G04 #@! TO.N,Net-(C1-Pad1)*
X127787400Y-87819600D03*
G04 #@! TO.P,C2,2*
G04 #@! TO.N,GND*
X127787400Y-86119600D03*
G04 #@! TD*
D27*
G04 #@! TO.P,C3,1*
G04 #@! TO.N,GND*
X133443041Y-82710959D03*
D28*
G04 #@! TD*
G04 #@! TO.N,GND*
G04 #@! TO.C,C3*
G36*
X133478396Y-81968497D02*
X134185503Y-82675604D01*
X133407686Y-83453421D01*
X132700579Y-82746314D01*
X133478396Y-81968497D01*
X133478396Y-81968497D01*
G37*
D27*
G04 #@! TO.P,C3,2*
G04 #@! TO.N,Net-(C3-Pad2)*
X132240959Y-83913041D03*
D28*
G04 #@! TD*
G04 #@! TO.N,Net-(C3-Pad2)*
G04 #@! TO.C,C3*
G36*
X132276314Y-83170579D02*
X132983421Y-83877686D01*
X132205604Y-84655503D01*
X131498497Y-83948396D01*
X132276314Y-83170579D01*
X132276314Y-83170579D01*
G37*
D27*
G04 #@! TO.P,C4,1*
G04 #@! TO.N,GND*
X135221041Y-84488959D03*
D28*
G04 #@! TD*
G04 #@! TO.N,GND*
G04 #@! TO.C,C4*
G36*
X135256396Y-83746497D02*
X135963503Y-84453604D01*
X135185686Y-85231421D01*
X134478579Y-84524314D01*
X135256396Y-83746497D01*
X135256396Y-83746497D01*
G37*
D27*
G04 #@! TO.P,C4,2*
G04 #@! TO.N,Net-(C4-Pad2)*
X134018959Y-85691041D03*
D28*
G04 #@! TD*
G04 #@! TO.N,Net-(C4-Pad2)*
G04 #@! TO.C,C4*
G36*
X134054314Y-84948579D02*
X134761421Y-85655686D01*
X133983604Y-86433503D01*
X133276497Y-85726396D01*
X134054314Y-84948579D01*
X134054314Y-84948579D01*
G37*
D10*
G04 #@! TO.P,C5,1*
G04 #@! TO.N,3V3*
X136525000Y-88165000D03*
G04 #@! TO.P,C5,2*
G04 #@! TO.N,GND*
X136525000Y-86465000D03*
G04 #@! TD*
G04 #@! TO.P,C6,1*
G04 #@! TO.N,Net-(C6-Pad1)*
X138176000Y-88165000D03*
G04 #@! TO.P,C6,2*
G04 #@! TO.N,GND*
X138176000Y-86465000D03*
G04 #@! TD*
G04 #@! TO.P,C7,1*
G04 #@! TO.N,Net-(C7-Pad1)*
X124256800Y-87413200D03*
G04 #@! TO.P,C7,2*
G04 #@! TO.N,GND*
X124256800Y-85713200D03*
G04 #@! TD*
D11*
G04 #@! TO.P,C8,1*
G04 #@! TO.N,3V3*
X126122800Y-97586800D03*
G04 #@! TO.P,C8,2*
G04 #@! TO.N,GND*
X124422800Y-97586800D03*
G04 #@! TD*
G04 #@! TO.P,C9,1*
G04 #@! TO.N,3V3*
X139104000Y-96647000D03*
G04 #@! TO.P,C9,2*
G04 #@! TO.N,GND*
X140804000Y-96647000D03*
G04 #@! TD*
D10*
G04 #@! TO.P,C10,1*
G04 #@! TO.N,5V0*
X134366000Y-65698000D03*
G04 #@! TO.P,C10,2*
G04 #@! TO.N,GND*
X134366000Y-67398000D03*
G04 #@! TD*
D11*
G04 #@! TO.P,C11,1*
G04 #@! TO.N,GND*
X136967900Y-64312800D03*
G04 #@! TO.P,C11,2*
G04 #@! TO.N,VBUS*
X138667900Y-64312800D03*
G04 #@! TD*
G04 #@! TO.P,C12,1*
G04 #@! TO.N,VBUS*
X138670400Y-67576700D03*
G04 #@! TO.P,C12,2*
G04 #@! TO.N,GND*
X136970400Y-67576700D03*
G04 #@! TD*
D10*
G04 #@! TO.P,C13,1*
G04 #@! TO.N,Net-(C13-Pad1)*
X123268309Y-60177421D03*
G04 #@! TO.P,C13,2*
G04 #@! TO.N,GND*
X123268309Y-58477421D03*
G04 #@! TD*
D11*
G04 #@! TO.P,C14,1*
G04 #@! TO.N,VBUS*
X138670400Y-65900300D03*
G04 #@! TO.P,C14,2*
G04 #@! TO.N,GND*
X136970400Y-65900300D03*
G04 #@! TD*
D10*
G04 #@! TO.P,C15,1*
G04 #@! TO.N,3V3*
X134366000Y-72820000D03*
G04 #@! TO.P,C15,2*
G04 #@! TO.N,GND*
X134366000Y-71120000D03*
G04 #@! TD*
G04 #@! TO.P,C16,1*
G04 #@! TO.N,/PERIPH_3V3*
X134861300Y-105002700D03*
G04 #@! TO.P,C16,2*
G04 #@! TO.N,GND*
X134861300Y-103302700D03*
G04 #@! TD*
G04 #@! TO.P,C17,1*
G04 #@! TO.N,3V3*
X140525500Y-113054500D03*
G04 #@! TO.P,C17,2*
G04 #@! TO.N,GND*
X140525500Y-111354500D03*
G04 #@! TD*
G04 #@! TO.P,C18,1*
G04 #@! TO.N,VCC*
X143383000Y-123356000D03*
G04 #@! TO.P,C18,2*
G04 #@! TO.N,GND*
X143383000Y-125056000D03*
G04 #@! TD*
G04 #@! TO.P,C19,1*
G04 #@! TO.N,VCC*
X140462000Y-123356000D03*
G04 #@! TO.P,C19,2*
G04 #@! TO.N,GND*
X140462000Y-125056000D03*
G04 #@! TD*
D11*
G04 #@! TO.P,C201,1*
G04 #@! TO.N,VCC*
X155370000Y-71374000D03*
G04 #@! TO.P,C201,2*
G04 #@! TO.N,GND*
X153670000Y-71374000D03*
G04 #@! TD*
G04 #@! TO.P,C202,1*
G04 #@! TO.N,VCC*
X151726000Y-71374000D03*
G04 #@! TO.P,C202,2*
G04 #@! TO.N,GND*
X150026000Y-71374000D03*
G04 #@! TD*
G04 #@! TO.P,C203,1*
G04 #@! TO.N,/isolated_atlas0/ISO_GND*
X152020600Y-59461400D03*
G04 #@! TO.P,C203,2*
G04 #@! TO.N,/isolated_atlas0/ISO_VCC*
X150320600Y-59461400D03*
G04 #@! TD*
G04 #@! TO.P,C204,1*
G04 #@! TO.N,/isolated_atlas0/ISO_GND*
X154242400Y-59461400D03*
G04 #@! TO.P,C204,2*
G04 #@! TO.N,/isolated_atlas0/ISO_VCC*
X155942400Y-59461400D03*
G04 #@! TD*
D10*
G04 #@! TO.P,C205,1*
G04 #@! TO.N,/isolated_atlas0/ISO_GND*
X148158200Y-61464600D03*
G04 #@! TO.P,C205,2*
G04 #@! TO.N,/isolated_atlas0/ISO_VCC*
X148158200Y-59764600D03*
G04 #@! TD*
G04 #@! TO.P,C206,1*
G04 #@! TO.N,/isolated_atlas0/ISO_GND*
X187452000Y-69684000D03*
G04 #@! TO.P,C206,2*
G04 #@! TO.N,/isolated_atlas0/ISO_VCC*
X187452000Y-67984000D03*
G04 #@! TD*
D11*
G04 #@! TO.P,C301,1*
G04 #@! TO.N,VCC*
X155575000Y-86741000D03*
G04 #@! TO.P,C301,2*
G04 #@! TO.N,GND*
X153875000Y-86741000D03*
G04 #@! TD*
G04 #@! TO.P,C302,1*
G04 #@! TO.N,VCC*
X151853000Y-86741000D03*
G04 #@! TO.P,C302,2*
G04 #@! TO.N,GND*
X150153000Y-86741000D03*
G04 #@! TD*
G04 #@! TO.P,C303,1*
G04 #@! TO.N,/isolated_atlas1/ISO_GND*
X151995200Y-75209400D03*
G04 #@! TO.P,C303,2*
G04 #@! TO.N,/isolated_atlas1/ISO_VCC*
X150295200Y-75209400D03*
G04 #@! TD*
G04 #@! TO.P,C304,1*
G04 #@! TO.N,/isolated_atlas1/ISO_GND*
X154267800Y-75209400D03*
G04 #@! TO.P,C304,2*
G04 #@! TO.N,/isolated_atlas1/ISO_VCC*
X155967800Y-75209400D03*
G04 #@! TD*
D10*
G04 #@! TO.P,C305,1*
G04 #@! TO.N,/isolated_atlas1/ISO_GND*
X148336000Y-77812000D03*
G04 #@! TO.P,C305,2*
G04 #@! TO.N,/isolated_atlas1/ISO_VCC*
X148336000Y-76112000D03*
G04 #@! TD*
G04 #@! TO.P,C306,1*
G04 #@! TO.N,/isolated_atlas1/ISO_GND*
X187452000Y-86194000D03*
G04 #@! TO.P,C306,2*
G04 #@! TO.N,/isolated_atlas1/ISO_VCC*
X187452000Y-84494000D03*
G04 #@! TD*
D11*
G04 #@! TO.P,C401,1*
G04 #@! TO.N,VCC*
X155370000Y-102997000D03*
G04 #@! TO.P,C401,2*
G04 #@! TO.N,GND*
X153670000Y-102997000D03*
G04 #@! TD*
G04 #@! TO.P,C402,1*
G04 #@! TO.N,VCC*
X151853000Y-102997000D03*
G04 #@! TO.P,C402,2*
G04 #@! TO.N,GND*
X150153000Y-102997000D03*
G04 #@! TD*
G04 #@! TO.P,C403,1*
G04 #@! TO.N,/isolated_atlas2/ISO_GND*
X152056200Y-91694000D03*
G04 #@! TO.P,C403,2*
G04 #@! TO.N,/isolated_atlas2/ISO_VCC*
X150356200Y-91694000D03*
G04 #@! TD*
G04 #@! TO.P,C404,1*
G04 #@! TO.N,/isolated_atlas2/ISO_GND*
X153924000Y-91694000D03*
G04 #@! TO.P,C404,2*
G04 #@! TO.N,/isolated_atlas2/ISO_VCC*
X155624000Y-91694000D03*
G04 #@! TD*
D10*
G04 #@! TO.P,C405,1*
G04 #@! TO.N,/isolated_atlas2/ISO_GND*
X148336000Y-93560000D03*
G04 #@! TO.P,C405,2*
G04 #@! TO.N,/isolated_atlas2/ISO_VCC*
X148336000Y-91860000D03*
G04 #@! TD*
G04 #@! TO.P,C406,1*
G04 #@! TO.N,/isolated_atlas2/ISO_GND*
X187452000Y-101688000D03*
G04 #@! TO.P,C406,2*
G04 #@! TO.N,/isolated_atlas2/ISO_VCC*
X187452000Y-99988000D03*
G04 #@! TD*
D11*
G04 #@! TO.P,C501,1*
G04 #@! TO.N,VCC*
X155497000Y-118872000D03*
G04 #@! TO.P,C501,2*
G04 #@! TO.N,GND*
X153797000Y-118872000D03*
G04 #@! TD*
G04 #@! TO.P,C502,1*
G04 #@! TO.N,VCC*
X151853000Y-118872000D03*
G04 #@! TO.P,C502,2*
G04 #@! TO.N,GND*
X150153000Y-118872000D03*
G04 #@! TD*
G04 #@! TO.P,C503,1*
G04 #@! TO.N,/isolated_atlas3/ISO_GND*
X152234000Y-107442000D03*
G04 #@! TO.P,C503,2*
G04 #@! TO.N,/isolated_atlas3/ISO_VCC*
X150534000Y-107442000D03*
G04 #@! TD*
G04 #@! TO.P,C504,1*
G04 #@! TO.N,/isolated_atlas3/ISO_GND*
X153963000Y-107442000D03*
G04 #@! TO.P,C504,2*
G04 #@! TO.N,/isolated_atlas3/ISO_VCC*
X155663000Y-107442000D03*
G04 #@! TD*
D10*
G04 #@! TO.P,C505,1*
G04 #@! TO.N,/isolated_atlas3/ISO_GND*
X148463000Y-109689000D03*
G04 #@! TO.P,C505,2*
G04 #@! TO.N,/isolated_atlas3/ISO_VCC*
X148463000Y-107989000D03*
G04 #@! TD*
G04 #@! TO.P,C506,1*
G04 #@! TO.N,/isolated_atlas3/ISO_GND*
X187325000Y-117563000D03*
G04 #@! TO.P,C506,2*
G04 #@! TO.N,/isolated_atlas3/ISO_VCC*
X187325000Y-115863000D03*
G04 #@! TD*
D11*
G04 #@! TO.P,C601,1*
G04 #@! TO.N,VCC*
X155599500Y-135628000D03*
G04 #@! TO.P,C601,2*
G04 #@! TO.N,GND*
X153899500Y-135628000D03*
G04 #@! TD*
G04 #@! TO.P,C602,1*
G04 #@! TO.N,VCC*
X151197500Y-135628000D03*
G04 #@! TO.P,C602,2*
G04 #@! TO.N,GND*
X149497500Y-135628000D03*
G04 #@! TD*
G04 #@! TO.P,C603,1*
G04 #@! TO.N,/isolated_atlas4/ISO_GND*
X152046000Y-123393200D03*
G04 #@! TO.P,C603,2*
G04 #@! TO.N,/isolated_atlas4/ISO_VCC*
X150346000Y-123393200D03*
G04 #@! TD*
G04 #@! TO.P,C604,1*
G04 #@! TO.N,/isolated_atlas4/ISO_GND*
X154252600Y-123393200D03*
G04 #@! TO.P,C604,2*
G04 #@! TO.N,/isolated_atlas4/ISO_VCC*
X155952600Y-123393200D03*
G04 #@! TD*
D10*
G04 #@! TO.P,C605,1*
G04 #@! TO.N,/isolated_atlas4/ISO_GND*
X148463000Y-125691000D03*
G04 #@! TO.P,C605,2*
G04 #@! TO.N,/isolated_atlas4/ISO_VCC*
X148463000Y-123991000D03*
G04 #@! TD*
G04 #@! TO.P,C606,1*
G04 #@! TO.N,/isolated_atlas4/ISO_GND*
X187198000Y-133438000D03*
G04 #@! TO.P,C606,2*
G04 #@! TO.N,/isolated_atlas4/ISO_VCC*
X187198000Y-131738000D03*
G04 #@! TD*
D11*
G04 #@! TO.P,D4,2*
G04 #@! TO.N,3V3*
X141034400Y-104902000D03*
G04 #@! TO.P,D4,1*
G04 #@! TO.N,Net-(D4-Pad1)*
X142734400Y-104902000D03*
G04 #@! TD*
D29*
G04 #@! TO.P,D5,1*
G04 #@! TO.N,GND*
X125615000Y-68183000D03*
D30*
G04 #@! TO.P,D5,2*
G04 #@! TO.N,/USB+*
X127315000Y-68183000D03*
G04 #@! TO.P,D5,3*
G04 #@! TO.N,/USB-*
X127315000Y-66183000D03*
G04 #@! TO.P,D5,4*
G04 #@! TO.N,VUSB*
X125415000Y-66183000D03*
G04 #@! TD*
D31*
G04 #@! TO.P,D6,1*
G04 #@! TO.N,5V0*
X135852000Y-61072000D03*
G04 #@! TO.P,D6,2*
G04 #@! TO.N,VIN*
X135852000Y-62372000D03*
D32*
G04 #@! TO.P,D6,3*
G04 #@! TO.N,VBUS*
X136902000Y-61722000D03*
D33*
X137577000Y-61722000D03*
G04 #@! TD*
D34*
G04 #@! TO.P,F1,1*
G04 #@! TO.N,Net-(F1-Pad1)*
X130386000Y-64008000D03*
G04 #@! TO.P,F1,2*
G04 #@! TO.N,VUSB*
X128186000Y-64008000D03*
G04 #@! TD*
D35*
G04 #@! TO.P,J1,1*
G04 #@! TO.N,GND*
X118342000Y-80518000D03*
G04 #@! TO.P,J1,2*
G04 #@! TO.N,/RST*
X121942000Y-80518000D03*
G04 #@! TO.P,J1,3*
G04 #@! TO.N,Net-(J1-Pad3)*
X118342000Y-79248000D03*
G04 #@! TO.P,J1,4*
G04 #@! TO.N,Net-(J1-Pad4)*
X121942000Y-79248000D03*
G04 #@! TO.P,J1,5*
G04 #@! TO.N,GND*
X118342000Y-77978000D03*
G04 #@! TO.P,J1,6*
G04 #@! TO.N,Net-(J1-Pad6)*
X121942000Y-77978000D03*
G04 #@! TO.P,J1,7*
G04 #@! TO.N,GND*
X118342000Y-76708000D03*
G04 #@! TO.P,J1,8*
G04 #@! TO.N,/SWCLK*
X121942000Y-76708000D03*
G04 #@! TO.P,J1,9*
G04 #@! TO.N,3V3*
X118342000Y-75438000D03*
G04 #@! TO.P,J1,10*
G04 #@! TO.N,/SWDIO*
X121942000Y-75438000D03*
G04 #@! TD*
D10*
G04 #@! TO.P,L1,1*
G04 #@! TO.N,Net-(C7-Pad1)*
X122478800Y-87413200D03*
G04 #@! TO.P,L1,2*
G04 #@! TO.N,3V3*
X122478800Y-85713200D03*
G04 #@! TD*
D11*
G04 #@! TO.P,L2,1*
G04 #@! TO.N,5V0*
X133780000Y-64008000D03*
G04 #@! TO.P,L2,2*
G04 #@! TO.N,Net-(F1-Pad1)*
X132080000Y-64008000D03*
G04 #@! TD*
D36*
G04 #@! TO.P,M5,~*
G04 #@! TO.N,Net-(M5-Pad~)*
X132181600Y-135382000D03*
G04 #@! TD*
G04 #@! TO.P,M6,~*
G04 #@! TO.N,Net-(M6-Pad~)*
X126949200Y-77216000D03*
G04 #@! TD*
G04 #@! TO.P,M7,~*
G04 #@! TO.N,Net-(M7-Pad~)*
X200863200Y-65328800D03*
G04 #@! TD*
D37*
G04 #@! TO.P,Q4,1*
G04 #@! TO.N,/D13*
X136628459Y-104843393D03*
G04 #@! TO.P,Q4,2*
G04 #@! TO.N,GND*
X136628459Y-106743393D03*
G04 #@! TO.P,Q4,3*
G04 #@! TO.N,Net-(Q4-Pad3)*
X138928459Y-105793393D03*
G04 #@! TD*
D11*
G04 #@! TO.P,R1,1*
G04 #@! TO.N,3V3*
X118697594Y-86233000D03*
G04 #@! TO.P,R1,2*
G04 #@! TO.N,/RST*
X116997594Y-86233000D03*
G04 #@! TD*
G04 #@! TO.P,R2,1*
G04 #@! TO.N,/RESET*
X118697594Y-84455000D03*
G04 #@! TO.P,R2,2*
G04 #@! TO.N,/RST*
X116997594Y-84455000D03*
G04 #@! TD*
D10*
G04 #@! TO.P,R4,1*
G04 #@! TO.N,/SCL1*
X140608469Y-101074303D03*
G04 #@! TO.P,R4,2*
G04 #@! TO.N,3V3*
X140608469Y-102774303D03*
G04 #@! TD*
G04 #@! TO.P,R5,1*
G04 #@! TO.N,3V3*
X142262283Y-102774303D03*
G04 #@! TO.P,R5,2*
G04 #@! TO.N,/SDA1*
X142262283Y-101074303D03*
G04 #@! TD*
D11*
G04 #@! TO.P,R8,1*
G04 #@! TO.N,Net-(J2-Pad4)*
X142723648Y-93980000D03*
G04 #@! TO.P,R8,2*
G04 #@! TO.N,3V3*
X141023648Y-93980000D03*
G04 #@! TD*
G04 #@! TO.P,R9,1*
G04 #@! TO.N,Net-(J2-Pad4)*
X142723648Y-92297298D03*
G04 #@! TO.P,R9,2*
G04 #@! TO.N,/USB_ID*
X141023648Y-92297298D03*
G04 #@! TD*
D10*
G04 #@! TO.P,R10,1*
G04 #@! TO.N,Net-(C13-Pad1)*
X121541109Y-60177421D03*
G04 #@! TO.P,R10,2*
G04 #@! TO.N,GND*
X121541109Y-58477421D03*
G04 #@! TD*
D11*
G04 #@! TO.P,R11,1*
G04 #@! TO.N,Net-(D4-Pad1)*
X142734400Y-106553000D03*
G04 #@! TO.P,R11,2*
G04 #@! TO.N,Net-(Q4-Pad3)*
X141034400Y-106553000D03*
G04 #@! TD*
D10*
G04 #@! TO.P,R12,1*
G04 #@! TO.N,Net-(R12-Pad1)*
X137033000Y-125388000D03*
G04 #@! TO.P,R12,2*
G04 #@! TO.N,3V3*
X137033000Y-127088000D03*
G04 #@! TD*
G04 #@! TO.P,R201,1*
G04 #@! TO.N,Net-(R201-Pad1)*
X159639000Y-64555000D03*
G04 #@! TO.P,R201,2*
G04 #@! TO.N,/isolated_atlas0/ISO_GND*
X159639000Y-66255000D03*
G04 #@! TD*
D11*
G04 #@! TO.P,R202,1*
G04 #@! TO.N,Net-(R201-Pad1)*
X159678000Y-62738000D03*
G04 #@! TO.P,R202,2*
G04 #@! TO.N,Net-(R202-Pad2)*
X161378000Y-62738000D03*
G04 #@! TD*
G04 #@! TO.P,R203,1*
G04 #@! TO.N,/isolated_atlas0/ISO_SCL*
X164934000Y-62738000D03*
G04 #@! TO.P,R203,2*
G04 #@! TO.N,/isolated_atlas0/ISO_VCC*
X163234000Y-62738000D03*
G04 #@! TD*
G04 #@! TO.P,R205,1*
G04 #@! TO.N,/isolated_atlas0/ISO_SDA*
X164934000Y-66167000D03*
G04 #@! TO.P,R205,2*
G04 #@! TO.N,/isolated_atlas0/ISO_VCC*
X163234000Y-66167000D03*
G04 #@! TD*
D10*
G04 #@! TO.P,R301,1*
G04 #@! TO.N,Net-(R301-Pad1)*
X159766000Y-80342000D03*
G04 #@! TO.P,R301,2*
G04 #@! TO.N,/isolated_atlas1/ISO_GND*
X159766000Y-82042000D03*
G04 #@! TD*
D11*
G04 #@! TO.P,R302,1*
G04 #@! TO.N,Net-(R301-Pad1)*
X159805000Y-78613000D03*
G04 #@! TO.P,R302,2*
G04 #@! TO.N,Net-(R302-Pad2)*
X161505000Y-78613000D03*
G04 #@! TD*
G04 #@! TO.P,R303,1*
G04 #@! TO.N,/isolated_atlas1/ISO_SCL*
X164934000Y-78613000D03*
G04 #@! TO.P,R303,2*
G04 #@! TO.N,/isolated_atlas1/ISO_VCC*
X163234000Y-78613000D03*
G04 #@! TD*
G04 #@! TO.P,R304,1*
G04 #@! TO.N,Net-(R302-Pad2)*
X161456000Y-80264000D03*
G04 #@! TO.P,R304,2*
G04 #@! TO.N,/isolated_atlas1/ISO_VCC*
X163156000Y-80264000D03*
G04 #@! TD*
G04 #@! TO.P,R305,1*
G04 #@! TO.N,/isolated_atlas1/ISO_SDA*
X165061000Y-82423000D03*
G04 #@! TO.P,R305,2*
G04 #@! TO.N,/isolated_atlas1/ISO_VCC*
X163361000Y-82423000D03*
G04 #@! TD*
D10*
G04 #@! TO.P,R401,1*
G04 #@! TO.N,Net-(R401-Pad1)*
X159639000Y-96559000D03*
G04 #@! TO.P,R401,2*
G04 #@! TO.N,/isolated_atlas2/ISO_GND*
X159639000Y-98259000D03*
G04 #@! TD*
D11*
G04 #@! TO.P,R402,1*
G04 #@! TO.N,Net-(R401-Pad1)*
X159678000Y-94869000D03*
G04 #@! TO.P,R402,2*
G04 #@! TO.N,Net-(R402-Pad2)*
X161378000Y-94869000D03*
G04 #@! TD*
G04 #@! TO.P,R403,1*
G04 #@! TO.N,/isolated_atlas2/ISO_SCL*
X164934000Y-94742000D03*
G04 #@! TO.P,R403,2*
G04 #@! TO.N,/isolated_atlas2/ISO_VCC*
X163234000Y-94742000D03*
G04 #@! TD*
G04 #@! TO.P,R404,1*
G04 #@! TO.N,Net-(R402-Pad2)*
X161456000Y-96520000D03*
G04 #@! TO.P,R404,2*
G04 #@! TO.N,/isolated_atlas2/ISO_VCC*
X163156000Y-96520000D03*
G04 #@! TD*
G04 #@! TO.P,R405,1*
G04 #@! TO.N,/isolated_atlas2/ISO_SDA*
X164934000Y-98044000D03*
G04 #@! TO.P,R405,2*
G04 #@! TO.N,/isolated_atlas2/ISO_VCC*
X163234000Y-98044000D03*
G04 #@! TD*
D10*
G04 #@! TO.P,R501,1*
G04 #@! TO.N,Net-(R501-Pad1)*
X159893000Y-112053000D03*
G04 #@! TO.P,R501,2*
G04 #@! TO.N,/isolated_atlas3/ISO_GND*
X159893000Y-113753000D03*
G04 #@! TD*
D11*
G04 #@! TO.P,R502,1*
G04 #@! TO.N,Net-(R501-Pad1)*
X159805000Y-110363000D03*
G04 #@! TO.P,R502,2*
G04 #@! TO.N,Net-(R502-Pad2)*
X161505000Y-110363000D03*
G04 #@! TD*
G04 #@! TO.P,R503,1*
G04 #@! TO.N,/isolated_atlas3/ISO_SCL*
X165061000Y-110363000D03*
G04 #@! TO.P,R503,2*
G04 #@! TO.N,/isolated_atlas3/ISO_VCC*
X163361000Y-110363000D03*
G04 #@! TD*
G04 #@! TO.P,R504,1*
G04 #@! TO.N,Net-(R502-Pad2)*
X161583000Y-112014000D03*
G04 #@! TO.P,R504,2*
G04 #@! TO.N,/isolated_atlas3/ISO_VCC*
X163283000Y-112014000D03*
G04 #@! TD*
G04 #@! TO.P,R505,1*
G04 #@! TO.N,/isolated_atlas3/ISO_SDA*
X164934000Y-113792000D03*
G04 #@! TO.P,R505,2*
G04 #@! TO.N,/isolated_atlas3/ISO_VCC*
X163234000Y-113792000D03*
G04 #@! TD*
D10*
G04 #@! TO.P,R601,1*
G04 #@! TO.N,Net-(R601-Pad1)*
X159639000Y-128182000D03*
G04 #@! TO.P,R601,2*
G04 #@! TO.N,/isolated_atlas4/ISO_GND*
X159639000Y-129882000D03*
G04 #@! TD*
D11*
G04 #@! TO.P,R602,1*
G04 #@! TO.N,Net-(R601-Pad1)*
X159678000Y-126365000D03*
G04 #@! TO.P,R602,2*
G04 #@! TO.N,Net-(R602-Pad2)*
X161378000Y-126365000D03*
G04 #@! TD*
G04 #@! TO.P,R603,1*
G04 #@! TO.N,/isolated_atlas4/ISO_SCL*
X164934000Y-126365000D03*
G04 #@! TO.P,R603,2*
G04 #@! TO.N,/isolated_atlas4/ISO_VCC*
X163234000Y-126365000D03*
G04 #@! TD*
G04 #@! TO.P,R604,1*
G04 #@! TO.N,Net-(R602-Pad2)*
X161456000Y-128143000D03*
G04 #@! TO.P,R604,2*
G04 #@! TO.N,/isolated_atlas4/ISO_VCC*
X163156000Y-128143000D03*
G04 #@! TD*
G04 #@! TO.P,R605,1*
G04 #@! TO.N,/isolated_atlas4/ISO_SDA*
X164934000Y-129794000D03*
G04 #@! TO.P,R605,2*
G04 #@! TO.N,/isolated_atlas4/ISO_VCC*
X163234000Y-129794000D03*
G04 #@! TD*
D38*
G04 #@! TO.P,U2,1*
G04 #@! TO.N,Net-(C4-Pad2)*
X131139129Y-89277042D03*
D28*
G04 #@! TD*
G04 #@! TO.N,Net-(C4-Pad2)*
G04 #@! TO.C,U2*
G36*
X130591121Y-88905811D02*
X130767898Y-88729034D01*
X131687137Y-89648273D01*
X131510360Y-89825050D01*
X130591121Y-88905811D01*
X130591121Y-88905811D01*
G37*
D38*
G04 #@! TO.P,U2,2*
G04 #@! TO.N,Net-(C3-Pad2)*
X130785576Y-89630595D03*
D28*
G04 #@! TD*
G04 #@! TO.N,Net-(C3-Pad2)*
G04 #@! TO.C,U2*
G36*
X130237568Y-89259364D02*
X130414345Y-89082587D01*
X131333584Y-90001826D01*
X131156807Y-90178603D01*
X130237568Y-89259364D01*
X130237568Y-89259364D01*
G37*
D38*
G04 #@! TO.P,U2,3*
G04 #@! TO.N,/A0*
X130432022Y-89984149D03*
D28*
G04 #@! TD*
G04 #@! TO.N,/A0*
G04 #@! TO.C,U2*
G36*
X129884014Y-89612918D02*
X130060791Y-89436141D01*
X130980030Y-90355380D01*
X130803253Y-90532157D01*
X129884014Y-89612918D01*
X129884014Y-89612918D01*
G37*
D38*
G04 #@! TO.P,U2,4*
G04 #@! TO.N,Net-(C1-Pad1)*
X130078469Y-90337702D03*
D28*
G04 #@! TD*
G04 #@! TO.N,Net-(C1-Pad1)*
G04 #@! TO.C,U2*
G36*
X129530461Y-89966471D02*
X129707238Y-89789694D01*
X130626477Y-90708933D01*
X130449700Y-90885710D01*
X129530461Y-89966471D01*
X129530461Y-89966471D01*
G37*
D38*
G04 #@! TO.P,U2,5*
G04 #@! TO.N,GND*
X129724916Y-90691255D03*
D28*
G04 #@! TD*
G04 #@! TO.N,GND*
G04 #@! TO.C,U2*
G36*
X129176908Y-90320024D02*
X129353685Y-90143247D01*
X130272924Y-91062486D01*
X130096147Y-91239263D01*
X129176908Y-90320024D01*
X129176908Y-90320024D01*
G37*
D38*
G04 #@! TO.P,U2,6*
G04 #@! TO.N,Net-(C7-Pad1)*
X129371362Y-91044809D03*
D28*
G04 #@! TD*
G04 #@! TO.N,Net-(C7-Pad1)*
G04 #@! TO.C,U2*
G36*
X128823354Y-90673578D02*
X129000131Y-90496801D01*
X129919370Y-91416040D01*
X129742593Y-91592817D01*
X128823354Y-90673578D01*
X128823354Y-90673578D01*
G37*
D38*
G04 #@! TO.P,U2,7*
G04 #@! TO.N,/A1*
X129017809Y-91398362D03*
D28*
G04 #@! TD*
G04 #@! TO.N,/A1*
G04 #@! TO.C,U2*
G36*
X128469801Y-91027131D02*
X128646578Y-90850354D01*
X129565817Y-91769593D01*
X129389040Y-91946370D01*
X128469801Y-91027131D01*
X128469801Y-91027131D01*
G37*
D38*
G04 #@! TO.P,U2,8*
G04 #@! TO.N,/A2*
X128664255Y-91751916D03*
D28*
G04 #@! TD*
G04 #@! TO.N,/A2*
G04 #@! TO.C,U2*
G36*
X128116247Y-91380685D02*
X128293024Y-91203908D01*
X129212263Y-92123147D01*
X129035486Y-92299924D01*
X128116247Y-91380685D01*
X128116247Y-91380685D01*
G37*
D38*
G04 #@! TO.P,U2,9*
G04 #@! TO.N,/A3*
X128310702Y-92105469D03*
D28*
G04 #@! TD*
G04 #@! TO.N,/A3*
G04 #@! TO.C,U2*
G36*
X127762694Y-91734238D02*
X127939471Y-91557461D01*
X128858710Y-92476700D01*
X128681933Y-92653477D01*
X127762694Y-91734238D01*
X127762694Y-91734238D01*
G37*
D38*
G04 #@! TO.P,U2,10*
G04 #@! TO.N,/A4*
X127957149Y-92459022D03*
D28*
G04 #@! TD*
G04 #@! TO.N,/A4*
G04 #@! TO.C,U2*
G36*
X127409141Y-92087791D02*
X127585918Y-91911014D01*
X128505157Y-92830253D01*
X128328380Y-93007030D01*
X127409141Y-92087791D01*
X127409141Y-92087791D01*
G37*
D38*
G04 #@! TO.P,U2,11*
G04 #@! TO.N,/D8*
X127603595Y-92812576D03*
D28*
G04 #@! TD*
G04 #@! TO.N,/D8*
G04 #@! TO.C,U2*
G36*
X127055587Y-92441345D02*
X127232364Y-92264568D01*
X128151603Y-93183807D01*
X127974826Y-93360584D01*
X127055587Y-92441345D01*
X127055587Y-92441345D01*
G37*
D38*
G04 #@! TO.P,U2,12*
G04 #@! TO.N,/D9*
X127250042Y-93166129D03*
D28*
G04 #@! TD*
G04 #@! TO.N,/D9*
G04 #@! TO.C,U2*
G36*
X126702034Y-92794898D02*
X126878811Y-92618121D01*
X127798050Y-93537360D01*
X127621273Y-93714137D01*
X126702034Y-92794898D01*
X126702034Y-92794898D01*
G37*
D38*
G04 #@! TO.P,U2,13*
G04 #@! TO.N,/SDA3*
X127250042Y-95428871D03*
D28*
G04 #@! TD*
G04 #@! TO.N,/SDA3*
G04 #@! TO.C,U2*
G36*
X126878811Y-95976879D02*
X126702034Y-95800102D01*
X127621273Y-94880863D01*
X127798050Y-95057640D01*
X126878811Y-95976879D01*
X126878811Y-95976879D01*
G37*
D38*
G04 #@! TO.P,U2,14*
G04 #@! TO.N,/SCL3*
X127603595Y-95782424D03*
D28*
G04 #@! TD*
G04 #@! TO.N,/SCL3*
G04 #@! TO.C,U2*
G36*
X127232364Y-96330432D02*
X127055587Y-96153655D01*
X127974826Y-95234416D01*
X128151603Y-95411193D01*
X127232364Y-96330432D01*
X127232364Y-96330432D01*
G37*
D38*
G04 #@! TO.P,U2,15*
G04 #@! TO.N,/D1*
X127957149Y-96135978D03*
D28*
G04 #@! TD*
G04 #@! TO.N,/D1*
G04 #@! TO.C,U2*
G36*
X127585918Y-96683986D02*
X127409141Y-96507209D01*
X128328380Y-95587970D01*
X128505157Y-95764747D01*
X127585918Y-96683986D01*
X127585918Y-96683986D01*
G37*
D38*
G04 #@! TO.P,U2,16*
G04 #@! TO.N,/D0*
X128310702Y-96489531D03*
D28*
G04 #@! TD*
G04 #@! TO.N,/D0*
G04 #@! TO.C,U2*
G36*
X127939471Y-97037539D02*
X127762694Y-96860762D01*
X128681933Y-95941523D01*
X128858710Y-96118300D01*
X127939471Y-97037539D01*
X127939471Y-97037539D01*
G37*
D38*
G04 #@! TO.P,U2,17*
G04 #@! TO.N,3V3*
X128664255Y-96843084D03*
D28*
G04 #@! TD*
G04 #@! TO.N,3V3*
G04 #@! TO.C,U2*
G36*
X128293024Y-97391092D02*
X128116247Y-97214315D01*
X129035486Y-96295076D01*
X129212263Y-96471853D01*
X128293024Y-97391092D01*
X128293024Y-97391092D01*
G37*
D38*
G04 #@! TO.P,U2,18*
G04 #@! TO.N,GND*
X129017809Y-97196638D03*
D28*
G04 #@! TD*
G04 #@! TO.N,GND*
G04 #@! TO.C,U2*
G36*
X128646578Y-97744646D02*
X128469801Y-97567869D01*
X129389040Y-96648630D01*
X129565817Y-96825407D01*
X128646578Y-97744646D01*
X128646578Y-97744646D01*
G37*
D38*
G04 #@! TO.P,U2,19*
G04 #@! TO.N,/MOSI*
X129371362Y-97550191D03*
D28*
G04 #@! TD*
G04 #@! TO.N,/MOSI*
G04 #@! TO.C,U2*
G36*
X129000131Y-98098199D02*
X128823354Y-97921422D01*
X129742593Y-97002183D01*
X129919370Y-97178960D01*
X129000131Y-98098199D01*
X129000131Y-98098199D01*
G37*
D38*
G04 #@! TO.P,U2,20*
G04 #@! TO.N,/SCK*
X129724916Y-97903745D03*
D28*
G04 #@! TD*
G04 #@! TO.N,/SCK*
G04 #@! TO.C,U2*
G36*
X129353685Y-98451753D02*
X129176908Y-98274976D01*
X130096147Y-97355737D01*
X130272924Y-97532514D01*
X129353685Y-98451753D01*
X129353685Y-98451753D01*
G37*
D38*
G04 #@! TO.P,U2,21*
G04 #@! TO.N,/MISO*
X130078469Y-98257298D03*
D28*
G04 #@! TD*
G04 #@! TO.N,/MISO*
G04 #@! TO.C,U2*
G36*
X129707238Y-98805306D02*
X129530461Y-98628529D01*
X130449700Y-97709290D01*
X130626477Y-97886067D01*
X129707238Y-98805306D01*
X129707238Y-98805306D01*
G37*
D38*
G04 #@! TO.P,U2,22*
G04 #@! TO.N,/ATN*
X130432022Y-98610851D03*
D28*
G04 #@! TD*
G04 #@! TO.N,/ATN*
G04 #@! TO.C,U2*
G36*
X130060791Y-99158859D02*
X129884014Y-98982082D01*
X130803253Y-98062843D01*
X130980030Y-98239620D01*
X130060791Y-99158859D01*
X130060791Y-99158859D01*
G37*
D38*
G04 #@! TO.P,U2,23*
G04 #@! TO.N,/D2*
X130785576Y-98964405D03*
D28*
G04 #@! TD*
G04 #@! TO.N,/D2*
G04 #@! TO.C,U2*
G36*
X130414345Y-99512413D02*
X130237568Y-99335636D01*
X131156807Y-98416397D01*
X131333584Y-98593174D01*
X130414345Y-99512413D01*
X130414345Y-99512413D01*
G37*
D38*
G04 #@! TO.P,U2,24*
G04 #@! TO.N,/D5_FLASH_CS*
X131139129Y-99317958D03*
D28*
G04 #@! TD*
G04 #@! TO.N,/D5_FLASH_CS*
G04 #@! TO.C,U2*
G36*
X130767898Y-99865966D02*
X130591121Y-99689189D01*
X131510360Y-98769950D01*
X131687137Y-98946727D01*
X130767898Y-99865966D01*
X130767898Y-99865966D01*
G37*
D38*
G04 #@! TO.P,U2,25*
G04 #@! TO.N,/D11*
X133401871Y-99317958D03*
D28*
G04 #@! TD*
G04 #@! TO.N,/D11*
G04 #@! TO.C,U2*
G36*
X132853863Y-98946727D02*
X133030640Y-98769950D01*
X133949879Y-99689189D01*
X133773102Y-99865966D01*
X132853863Y-98946727D01*
X132853863Y-98946727D01*
G37*
D38*
G04 #@! TO.P,U2,26*
G04 #@! TO.N,/D13*
X133755424Y-98964405D03*
D28*
G04 #@! TD*
G04 #@! TO.N,/D13*
G04 #@! TO.C,U2*
G36*
X133207416Y-98593174D02*
X133384193Y-98416397D01*
X134303432Y-99335636D01*
X134126655Y-99512413D01*
X133207416Y-98593174D01*
X133207416Y-98593174D01*
G37*
D38*
G04 #@! TO.P,U2,27*
G04 #@! TO.N,/D10*
X134108978Y-98610851D03*
D28*
G04 #@! TD*
G04 #@! TO.N,/D10*
G04 #@! TO.C,U2*
G36*
X133560970Y-98239620D02*
X133737747Y-98062843D01*
X134656986Y-98982082D01*
X134480209Y-99158859D01*
X133560970Y-98239620D01*
X133560970Y-98239620D01*
G37*
D38*
G04 #@! TO.P,U2,28*
G04 #@! TO.N,/D12_PERIPH_EN*
X134462531Y-98257298D03*
D28*
G04 #@! TD*
G04 #@! TO.N,/D12_PERIPH_EN*
G04 #@! TO.C,U2*
G36*
X133914523Y-97886067D02*
X134091300Y-97709290D01*
X135010539Y-98628529D01*
X134833762Y-98805306D01*
X133914523Y-97886067D01*
X133914523Y-97886067D01*
G37*
D38*
G04 #@! TO.P,U2,29*
G04 #@! TO.N,/D6_ATLAS_EN*
X134816084Y-97903745D03*
D28*
G04 #@! TD*
G04 #@! TO.N,/D6_ATLAS_EN*
G04 #@! TO.C,U2*
G36*
X134268076Y-97532514D02*
X134444853Y-97355737D01*
X135364092Y-98274976D01*
X135187315Y-98451753D01*
X134268076Y-97532514D01*
X134268076Y-97532514D01*
G37*
D38*
G04 #@! TO.P,U2,30*
G04 #@! TO.N,/D7*
X135169638Y-97550191D03*
D28*
G04 #@! TD*
G04 #@! TO.N,/D7*
G04 #@! TO.C,U2*
G36*
X134621630Y-97178960D02*
X134798407Y-97002183D01*
X135717646Y-97921422D01*
X135540869Y-98098199D01*
X134621630Y-97178960D01*
X134621630Y-97178960D01*
G37*
D38*
G04 #@! TO.P,U2,31*
G04 #@! TO.N,/SDA1*
X135523191Y-97196638D03*
D28*
G04 #@! TD*
G04 #@! TO.N,/SDA1*
G04 #@! TO.C,U2*
G36*
X134975183Y-96825407D02*
X135151960Y-96648630D01*
X136071199Y-97567869D01*
X135894422Y-97744646D01*
X134975183Y-96825407D01*
X134975183Y-96825407D01*
G37*
D38*
G04 #@! TO.P,U2,32*
G04 #@! TO.N,/SCL1*
X135876745Y-96843084D03*
D28*
G04 #@! TD*
G04 #@! TO.N,/SCL1*
G04 #@! TO.C,U2*
G36*
X135328737Y-96471853D02*
X135505514Y-96295076D01*
X136424753Y-97214315D01*
X136247976Y-97391092D01*
X135328737Y-96471853D01*
X135328737Y-96471853D01*
G37*
D38*
G04 #@! TO.P,U2,33*
G04 #@! TO.N,/USB-*
X136230298Y-96489531D03*
D28*
G04 #@! TD*
G04 #@! TO.N,/USB-*
G04 #@! TO.C,U2*
G36*
X135682290Y-96118300D02*
X135859067Y-95941523D01*
X136778306Y-96860762D01*
X136601529Y-97037539D01*
X135682290Y-96118300D01*
X135682290Y-96118300D01*
G37*
D38*
G04 #@! TO.P,U2,34*
G04 #@! TO.N,/USB+*
X136583851Y-96135978D03*
D28*
G04 #@! TD*
G04 #@! TO.N,/USB+*
G04 #@! TO.C,U2*
G36*
X136035843Y-95764747D02*
X136212620Y-95587970D01*
X137131859Y-96507209D01*
X136955082Y-96683986D01*
X136035843Y-95764747D01*
X136035843Y-95764747D01*
G37*
D38*
G04 #@! TO.P,U2,35*
G04 #@! TO.N,GND*
X136937405Y-95782424D03*
D28*
G04 #@! TD*
G04 #@! TO.N,GND*
G04 #@! TO.C,U2*
G36*
X136389397Y-95411193D02*
X136566174Y-95234416D01*
X137485413Y-96153655D01*
X137308636Y-96330432D01*
X136389397Y-95411193D01*
X136389397Y-95411193D01*
G37*
D38*
G04 #@! TO.P,U2,36*
G04 #@! TO.N,3V3*
X137290958Y-95428871D03*
D28*
G04 #@! TD*
G04 #@! TO.N,3V3*
G04 #@! TO.C,U2*
G36*
X136742950Y-95057640D02*
X136919727Y-94880863D01*
X137838966Y-95800102D01*
X137662189Y-95976879D01*
X136742950Y-95057640D01*
X136742950Y-95057640D01*
G37*
D38*
G04 #@! TO.P,U2,37*
G04 #@! TO.N,/D30*
X137290958Y-93166129D03*
D28*
G04 #@! TD*
G04 #@! TO.N,/D30*
G04 #@! TO.C,U2*
G36*
X136919727Y-93714137D02*
X136742950Y-93537360D01*
X137662189Y-92618121D01*
X137838966Y-92794898D01*
X136919727Y-93714137D01*
X136919727Y-93714137D01*
G37*
D38*
G04 #@! TO.P,U2,38*
G04 #@! TO.N,/D31*
X136937405Y-92812576D03*
D28*
G04 #@! TD*
G04 #@! TO.N,/D31*
G04 #@! TO.C,U2*
G36*
X136566174Y-93360584D02*
X136389397Y-93183807D01*
X137308636Y-92264568D01*
X137485413Y-92441345D01*
X136566174Y-93360584D01*
X136566174Y-93360584D01*
G37*
D38*
G04 #@! TO.P,U2,39*
G04 #@! TO.N,/TX_LED*
X136583851Y-92459022D03*
D28*
G04 #@! TD*
G04 #@! TO.N,/TX_LED*
G04 #@! TO.C,U2*
G36*
X136212620Y-93007030D02*
X136035843Y-92830253D01*
X136955082Y-91911014D01*
X137131859Y-92087791D01*
X136212620Y-93007030D01*
X136212620Y-93007030D01*
G37*
D38*
G04 #@! TO.P,U2,40*
G04 #@! TO.N,/RESET*
X136230298Y-92105469D03*
D28*
G04 #@! TD*
G04 #@! TO.N,/RESET*
G04 #@! TO.C,U2*
G36*
X135859067Y-92653477D02*
X135682290Y-92476700D01*
X136601529Y-91557461D01*
X136778306Y-91734238D01*
X135859067Y-92653477D01*
X135859067Y-92653477D01*
G37*
D38*
G04 #@! TO.P,U2,41*
G04 #@! TO.N,/USB_ID*
X135876745Y-91751916D03*
D28*
G04 #@! TD*
G04 #@! TO.N,/USB_ID*
G04 #@! TO.C,U2*
G36*
X135505514Y-92299924D02*
X135328737Y-92123147D01*
X136247976Y-91203908D01*
X136424753Y-91380685D01*
X135505514Y-92299924D01*
X135505514Y-92299924D01*
G37*
D38*
G04 #@! TO.P,U2,42*
G04 #@! TO.N,GND*
X135523191Y-91398362D03*
D28*
G04 #@! TD*
G04 #@! TO.N,GND*
G04 #@! TO.C,U2*
G36*
X135151960Y-91946370D02*
X134975183Y-91769593D01*
X135894422Y-90850354D01*
X136071199Y-91027131D01*
X135151960Y-91946370D01*
X135151960Y-91946370D01*
G37*
D38*
G04 #@! TO.P,U2,43*
G04 #@! TO.N,Net-(C6-Pad1)*
X135169638Y-91044809D03*
D28*
G04 #@! TD*
G04 #@! TO.N,Net-(C6-Pad1)*
G04 #@! TO.C,U2*
G36*
X134798407Y-91592817D02*
X134621630Y-91416040D01*
X135540869Y-90496801D01*
X135717646Y-90673578D01*
X134798407Y-91592817D01*
X134798407Y-91592817D01*
G37*
D38*
G04 #@! TO.P,U2,44*
G04 #@! TO.N,3V3*
X134816084Y-90691255D03*
D28*
G04 #@! TD*
G04 #@! TO.N,3V3*
G04 #@! TO.C,U2*
G36*
X134444853Y-91239263D02*
X134268076Y-91062486D01*
X135187315Y-90143247D01*
X135364092Y-90320024D01*
X134444853Y-91239263D01*
X134444853Y-91239263D01*
G37*
D38*
G04 #@! TO.P,U2,45*
G04 #@! TO.N,/SWCLK*
X134462531Y-90337702D03*
D28*
G04 #@! TD*
G04 #@! TO.N,/SWCLK*
G04 #@! TO.C,U2*
G36*
X134091300Y-90885710D02*
X133914523Y-90708933D01*
X134833762Y-89789694D01*
X135010539Y-89966471D01*
X134091300Y-90885710D01*
X134091300Y-90885710D01*
G37*
D38*
G04 #@! TO.P,U2,46*
G04 #@! TO.N,/SWDIO*
X134108978Y-89984149D03*
D28*
G04 #@! TD*
G04 #@! TO.N,/SWDIO*
G04 #@! TO.C,U2*
G36*
X133737747Y-90532157D02*
X133560970Y-90355380D01*
X134480209Y-89436141D01*
X134656986Y-89612918D01*
X133737747Y-90532157D01*
X133737747Y-90532157D01*
G37*
D38*
G04 #@! TO.P,U2,47*
G04 #@! TO.N,/A5*
X133755424Y-89630595D03*
D28*
G04 #@! TD*
G04 #@! TO.N,/A5*
G04 #@! TO.C,U2*
G36*
X133384193Y-90178603D02*
X133207416Y-90001826D01*
X134126655Y-89082587D01*
X134303432Y-89259364D01*
X133384193Y-90178603D01*
X133384193Y-90178603D01*
G37*
D38*
G04 #@! TO.P,U2,48*
G04 #@! TO.N,/RX_LED*
X133401871Y-89277042D03*
D28*
G04 #@! TD*
G04 #@! TO.N,/RX_LED*
G04 #@! TO.C,U2*
G36*
X133030640Y-89825050D02*
X132853863Y-89648273D01*
X133773102Y-88729034D01*
X133949879Y-88905811D01*
X133030640Y-89825050D01*
X133030640Y-89825050D01*
G37*
D39*
G04 #@! TO.P,U3,1*
G04 #@! TO.N,GND*
X136934000Y-69874000D03*
D40*
G04 #@! TO.P,U3,2*
G04 #@! TO.N,VBUS*
X137434000Y-71374000D03*
D39*
G04 #@! TO.P,U3,3*
G04 #@! TO.N,3V3*
X136934000Y-72874000D03*
D41*
G04 #@! TO.P,U3,2*
G04 #@! TO.N,VBUS*
X139784000Y-71374000D03*
G04 #@! TD*
D42*
G04 #@! TO.P,Y1,1*
G04 #@! TO.N,Net-(C3-Pad2)*
X130629734Y-85544734D03*
D28*
G04 #@! TD*
G04 #@! TO.N,Net-(C3-Pad2)*
G04 #@! TO.C,Y1*
G36*
X129569074Y-85827577D02*
X130912577Y-84484074D01*
X131690394Y-85261891D01*
X130346891Y-86605394D01*
X129569074Y-85827577D01*
X129569074Y-85827577D01*
G37*
D42*
G04 #@! TO.P,Y1,2*
G04 #@! TO.N,Net-(C4-Pad2)*
X132397500Y-87312500D03*
D28*
G04 #@! TD*
G04 #@! TO.N,Net-(C4-Pad2)*
G04 #@! TO.C,Y1*
G36*
X131336840Y-87595343D02*
X132680343Y-86251840D01*
X133458160Y-87029657D01*
X132114657Y-88373160D01*
X131336840Y-87595343D01*
X131336840Y-87595343D01*
G37*
D12*
G04 #@! TO.P,J7,*
G04 #@! TO.N,*
X127022400Y-112737900D03*
X127022400Y-121437900D03*
D13*
G04 #@! TO.P,J7,5*
G04 #@! TO.N,/SDA3*
X130372400Y-114587900D03*
G04 #@! TO.P,J7,4*
G04 #@! TO.N,/SCL3*
X130372400Y-115837900D03*
G04 #@! TO.P,J7,3*
G04 #@! TO.N,Net-(J7-Pad3)*
X130372400Y-117087900D03*
G04 #@! TO.P,J7,2*
G04 #@! TO.N,GND*
X130372400Y-118337900D03*
G04 #@! TO.P,J7,1*
G04 #@! TO.N,3V3*
X130372400Y-119587900D03*
G04 #@! TD*
D43*
G04 #@! TO.P,U1,8*
G04 #@! TO.N,/PERIPH_3V3*
X125743100Y-107061000D03*
G04 #@! TO.P,U1,7*
X125743100Y-105791000D03*
G04 #@! TO.P,U1,6*
G04 #@! TO.N,/SCK*
X125743100Y-104521000D03*
G04 #@! TO.P,U1,5*
G04 #@! TO.N,/MOSI*
X125743100Y-103251000D03*
G04 #@! TO.P,U1,4*
G04 #@! TO.N,GND*
X132143100Y-103251000D03*
G04 #@! TO.P,U1,3*
G04 #@! TO.N,/PERIPH_3V3*
X132143100Y-104521000D03*
G04 #@! TO.P,U1,2*
G04 #@! TO.N,/MISO*
X132143100Y-105791000D03*
G04 #@! TO.P,U1,1*
G04 #@! TO.N,/D5_FLASH_CS*
X132143100Y-107061000D03*
G04 #@! TD*
D11*
G04 #@! TO.P,C20,2*
G04 #@! TO.N,GND*
X135548000Y-119634000D03*
G04 #@! TO.P,C20,1*
G04 #@! TO.N,/PERIPH_3V3*
X137248000Y-119634000D03*
G04 #@! TD*
G04 #@! TO.P,C21,1*
G04 #@! TO.N,/PERIPH_3V3*
X137248000Y-121412000D03*
G04 #@! TO.P,C21,2*
G04 #@! TO.N,GND*
X135548000Y-121412000D03*
G04 #@! TD*
G04 #@! TO.P,R3,1*
G04 #@! TO.N,/D6_ATLAS_EN*
X139040500Y-109537500D03*
G04 #@! TO.P,R3,2*
G04 #@! TO.N,GND*
X140740500Y-109537500D03*
G04 #@! TD*
G04 #@! TO.P,R6,1*
G04 #@! TO.N,/D12_PERIPH_EN*
X137248000Y-115189000D03*
G04 #@! TO.P,R6,2*
G04 #@! TO.N,GND*
X135548000Y-115189000D03*
G04 #@! TD*
D10*
G04 #@! TO.P,R7,2*
G04 #@! TO.N,3V3*
X138938000Y-125056000D03*
G04 #@! TO.P,R7,1*
G04 #@! TO.N,Net-(R7-Pad1)*
X138938000Y-123356000D03*
G04 #@! TD*
D44*
G04 #@! TO.P,U4,8*
G04 #@! TO.N,Net-(R12-Pad1)*
X143129000Y-121064000D03*
G04 #@! TO.P,U4,7*
G04 #@! TO.N,VCC*
X141859000Y-121064000D03*
G04 #@! TO.P,U4,6*
G04 #@! TO.N,/PERIPH_3V3*
X140589000Y-121064000D03*
G04 #@! TO.P,U4,5*
G04 #@! TO.N,Net-(R7-Pad1)*
X139319000Y-121064000D03*
G04 #@! TO.P,U4,4*
G04 #@! TO.N,/D12_PERIPH_EN*
X139319000Y-115664000D03*
G04 #@! TO.P,U4,3*
G04 #@! TO.N,/D6_ATLAS_EN*
X140589000Y-115664000D03*
G04 #@! TO.P,U4,2*
G04 #@! TO.N,3V3*
X141859000Y-115664000D03*
G04 #@! TO.P,U4,1*
G04 #@! TO.N,GND*
X143129000Y-115664000D03*
G04 #@! TD*
D11*
G04 #@! TO.P,R13,2*
G04 #@! TO.N,GND*
X135548000Y-123190000D03*
G04 #@! TO.P,R13,1*
G04 #@! TO.N,/PERIPH_3V3*
X137248000Y-123190000D03*
G04 #@! TD*
G04 #@! TO.P,C25,1*
G04 #@! TO.N,GND*
X122516000Y-93726000D03*
G04 #@! TO.P,C25,2*
G04 #@! TO.N,/RST*
X120816000Y-93726000D03*
G04 #@! TD*
D10*
G04 #@! TO.P,R18,1*
G04 #@! TO.N,VCC*
X147701000Y-118071000D03*
G04 #@! TO.P,R18,2*
G04 #@! TO.N,/SDA1*
X147701000Y-116371000D03*
G04 #@! TD*
G04 #@! TO.P,R19,2*
G04 #@! TO.N,/SCL1*
X146050000Y-116371000D03*
G04 #@! TO.P,R19,1*
G04 #@! TO.N,VCC*
X146050000Y-118071000D03*
G04 #@! TD*
G04 #@! TO.P,R20,2*
G04 #@! TO.N,/SDA1*
X147828000Y-68238000D03*
G04 #@! TO.P,R20,1*
G04 #@! TO.N,VCC*
X147828000Y-69938000D03*
G04 #@! TD*
G04 #@! TO.P,R21,1*
G04 #@! TO.N,VCC*
X146304000Y-69938000D03*
G04 #@! TO.P,R21,2*
G04 #@! TO.N,/SCL1*
X146304000Y-68238000D03*
G04 #@! TD*
G04 #@! TO.P,R22,2*
G04 #@! TO.N,/SCL1*
X146050000Y-84621000D03*
G04 #@! TO.P,R22,1*
G04 #@! TO.N,VCC*
X146050000Y-86321000D03*
G04 #@! TD*
G04 #@! TO.P,R23,1*
G04 #@! TO.N,VCC*
X147701000Y-86321000D03*
G04 #@! TO.P,R23,2*
G04 #@! TO.N,/SDA1*
X147701000Y-84621000D03*
G04 #@! TD*
G04 #@! TO.P,R24,1*
G04 #@! TO.N,VCC*
X146050000Y-102704000D03*
G04 #@! TO.P,R24,2*
G04 #@! TO.N,/SCL1*
X146050000Y-101004000D03*
G04 #@! TD*
G04 #@! TO.P,R25,2*
G04 #@! TO.N,/SDA1*
X147701000Y-101004000D03*
G04 #@! TO.P,R25,1*
G04 #@! TO.N,VCC*
X147701000Y-102704000D03*
G04 #@! TD*
G04 #@! TO.P,R26,1*
G04 #@! TO.N,VCC*
X145923000Y-134493000D03*
G04 #@! TO.P,R26,2*
G04 #@! TO.N,/SCL1*
X145923000Y-132793000D03*
G04 #@! TD*
G04 #@! TO.P,R27,2*
G04 #@! TO.N,/SDA1*
X147574000Y-132754000D03*
G04 #@! TO.P,R27,1*
G04 #@! TO.N,VCC*
X147574000Y-134454000D03*
G04 #@! TD*
D45*
G04 #@! TO.N,GND*
X135636000Y-118872000D03*
X153924000Y-136398000D03*
X149352000Y-136144000D03*
X155956000Y-133096000D03*
X135636000Y-114300000D03*
X122936000Y-128016000D03*
X119634000Y-76708000D03*
X119634000Y-77978000D03*
X119634000Y-80518000D03*
X120650000Y-97028000D03*
X116840000Y-92710000D03*
X117094000Y-89154000D03*
X124460000Y-96774000D03*
X156210000Y-101092000D03*
X152400000Y-99822000D03*
X129794000Y-96520000D03*
X130556000Y-91440000D03*
X134874000Y-92202000D03*
X136398000Y-85598000D03*
X134112000Y-82296000D03*
X135890000Y-83820000D03*
X123952000Y-58674000D03*
X124206000Y-84582000D03*
X127762000Y-85344000D03*
X135636000Y-64008000D03*
X135636000Y-65024000D03*
X135636000Y-66040000D03*
X135636000Y-67310000D03*
X135636000Y-68326000D03*
X135636000Y-69342000D03*
X134366000Y-68834000D03*
X134366000Y-69850000D03*
X125730000Y-68580000D03*
X156083000Y-68961000D03*
X153806200Y-70231000D03*
X149860000Y-70231000D03*
X154051000Y-83820000D03*
X156083000Y-84963000D03*
X149606000Y-85090000D03*
X149225000Y-103124000D03*
X153797000Y-99822000D03*
X153797000Y-115824000D03*
X152527000Y-115951000D03*
X153797000Y-119634000D03*
X150114000Y-119761000D03*
X156083000Y-116967000D03*
X143895090Y-116378449D03*
X143895090Y-115289289D03*
X135255000Y-94234000D03*
X141732000Y-96774000D03*
X122772868Y-69611565D03*
X119443500Y-65913000D03*
X140589000Y-110490000D03*
X136652000Y-107251500D03*
X135636000Y-103314500D03*
X123444000Y-108712000D03*
X128270000Y-118110000D03*
X127254000Y-118110000D03*
X126238000Y-118110000D03*
X125222000Y-118110000D03*
X123190000Y-118110000D03*
X124206000Y-118110000D03*
X129286000Y-118110000D03*
X135636000Y-124079000D03*
X152531743Y-67945948D03*
X152531743Y-83947948D03*
X153670000Y-103632000D03*
X149352000Y-86868000D03*
X154622598Y-86868000D03*
X153924000Y-71882000D03*
X149352000Y-71374000D03*
X152475535Y-132117767D03*
X149606000Y-133350000D03*
X143383000Y-125984000D03*
X140462000Y-125984000D03*
X128905000Y-128778000D03*
X127254000Y-132207000D03*
X122555000Y-92710000D03*
G04 #@! TO.N,/isolated_atlas0/ISO_GND*
X149352000Y-61786400D03*
X153162000Y-59436000D03*
X159766000Y-67056000D03*
X156083000Y-61849000D03*
X171704000Y-60706000D03*
X187452000Y-70739000D03*
G04 #@! TO.N,/isolated_atlas1/ISO_GND*
X149352000Y-77851000D03*
X156083000Y-77724000D03*
X153035000Y-75184000D03*
X159766000Y-83058000D03*
X171450000Y-77216000D03*
X188214000Y-86360000D03*
G04 #@! TO.N,/isolated_atlas2/ISO_GND*
X153035000Y-91694000D03*
X148590000Y-94361000D03*
X149733000Y-94615000D03*
X156083000Y-93853000D03*
X159766000Y-99187000D03*
X188214000Y-101854000D03*
X171450000Y-92710000D03*
G04 #@! TO.N,/isolated_atlas3/ISO_GND*
X148463000Y-110617000D03*
X159893000Y-114808000D03*
X171704000Y-108712000D03*
X187960000Y-117856000D03*
X156083000Y-109855000D03*
X149479000Y-109767000D03*
X152273000Y-106553000D03*
X153924000Y-106680000D03*
G04 #@! TO.N,/isolated_atlas4/ISO_GND*
X159639000Y-131318000D03*
X156210000Y-125857000D03*
X153035000Y-123317000D03*
X149352000Y-125691000D03*
X171450000Y-124968000D03*
X187960000Y-133350000D03*
G04 #@! TO.N,/isolated_atlas0/ISO_VCC*
X149098000Y-59764600D03*
X156718000Y-59436000D03*
X163195000Y-61849000D03*
X163195000Y-67310000D03*
G04 #@! TO.N,/isolated_atlas1/ISO_VCC*
X149225000Y-75819000D03*
X163195000Y-81407000D03*
X180086000Y-82042000D03*
X156718000Y-75184000D03*
G04 #@! TO.N,/isolated_atlas2/ISO_VCC*
X149352000Y-91821000D03*
X163195000Y-93726000D03*
X163195000Y-98933000D03*
X156464000Y-91694000D03*
G04 #@! TO.N,/isolated_atlas3/ISO_VCC*
X149479000Y-107696000D03*
X163322000Y-109220000D03*
X163322000Y-114808000D03*
X156464000Y-107442000D03*
G04 #@! TO.N,/isolated_atlas4/ISO_VCC*
X163195000Y-130683000D03*
X163068000Y-125476000D03*
X149352000Y-123571000D03*
X156845000Y-123444000D03*
G04 #@! TO.N,/isolated_atlas0/ISO_SCL*
X150799800Y-63195200D03*
G04 #@! TO.N,/isolated_atlas0/ISO_SDA*
X151587200Y-63241900D03*
G04 #@! TO.N,/isolated_atlas1/ISO_SCL*
X150850600Y-79197200D03*
G04 #@! TO.N,/isolated_atlas1/ISO_SDA*
X151663400Y-79241900D03*
G04 #@! TO.N,/isolated_atlas2/ISO_SCL*
X150749000Y-95097600D03*
G04 #@! TO.N,/isolated_atlas2/ISO_SDA*
X151638000Y-95241900D03*
G04 #@! TO.N,/isolated_atlas3/ISO_SCL*
X150774400Y-111125000D03*
G04 #@! TO.N,/isolated_atlas3/ISO_SDA*
X151536400Y-111125000D03*
G04 #@! TO.N,/isolated_atlas4/ISO_SCL*
X150774400Y-127279400D03*
G04 #@! TO.N,/isolated_atlas4/ISO_SDA*
X151511000Y-127254000D03*
G04 #@! TO.N,/USB+*
X135331200Y-95402400D03*
X129409010Y-78181200D03*
X122174000Y-67594000D03*
G04 #@! TO.N,/USB-*
X130048000Y-77089000D03*
X134543800Y-96062800D03*
X124206000Y-66944000D03*
G04 #@! TO.N,VUSB*
X125476000Y-65278000D03*
G04 #@! TO.N,/SWDIO*
X123952000Y-78105000D03*
X132867400Y-90678000D03*
G04 #@! TO.N,/SWCLK*
X123444000Y-76708000D03*
X135153400Y-88417400D03*
G04 #@! TO.N,Net-(J2-Pad4)*
X142951200Y-91160600D03*
X124512589Y-69267589D03*
X123444000Y-68123410D03*
G04 #@! TO.N,/RESET*
X128524000Y-81534000D03*
X135305800Y-93014800D03*
G04 #@! TO.N,/A2*
X132232400Y-100990400D03*
G04 #@! TO.N,/D30*
X123571000Y-105791000D03*
X138811000Y-90932000D03*
G04 #@! TO.N,/D31*
X123571000Y-106934000D03*
X138074400Y-90932000D03*
G04 #@! TO.N,/SCL1*
X137160000Y-98171000D03*
X140589000Y-100330000D03*
X148971000Y-100457000D03*
X150495000Y-83566000D03*
X150495000Y-115824000D03*
X150495000Y-131699000D03*
X150114000Y-67437000D03*
X141986002Y-131318000D03*
X146431000Y-67183000D03*
X146050000Y-100076000D03*
X146050000Y-115189000D03*
X145415000Y-131572000D03*
X146558000Y-83316001D03*
G04 #@! TO.N,/SCL3*
X123444000Y-115824000D03*
X122047000Y-98171000D03*
G04 #@! TO.N,/SDA3*
X121517600Y-113665000D03*
X121285000Y-98425000D03*
G04 #@! TO.N,VCC*
X155702000Y-136398000D03*
X151130000Y-136398000D03*
X155448000Y-119507000D03*
X151853000Y-119575000D03*
X143764000Y-117538500D03*
X142938500Y-119189500D03*
X144272000Y-123317000D03*
X151892000Y-67818000D03*
X155194000Y-67818000D03*
X155956000Y-71374000D03*
X152400000Y-71374000D03*
X152654000Y-86868000D03*
X156464000Y-86614000D03*
X154940000Y-83820000D03*
X151892000Y-83820000D03*
X156210000Y-103124000D03*
X151892000Y-103632000D03*
X151638000Y-99568000D03*
X155194000Y-99822000D03*
X151892000Y-131826000D03*
X154940000Y-132080000D03*
X147193000Y-71247000D03*
X146812000Y-102704000D03*
X146939000Y-118071000D03*
X146812000Y-134493000D03*
X146812000Y-86321000D03*
G04 #@! TO.N,Net-(R12-Pad1)*
X137160000Y-124460000D03*
X143764000Y-120904000D03*
G04 #@! TO.N,/D5_FLASH_CS*
X130365500Y-102108000D03*
X130073400Y-107048300D03*
G04 #@! TO.N,3V3*
X122936000Y-129286000D03*
X120650000Y-100584000D03*
X120142000Y-75438000D03*
X127508000Y-97790000D03*
X122682000Y-85090000D03*
X120142000Y-86360000D03*
X140208000Y-93980000D03*
X134112000Y-91440000D03*
X136398000Y-89154000D03*
X132080000Y-75565000D03*
X133350000Y-75565000D03*
X134620000Y-75565000D03*
X135890000Y-75565000D03*
X137160000Y-75565000D03*
X137160000Y-76835000D03*
X135890000Y-76835000D03*
X134620000Y-76835000D03*
X133350000Y-76835000D03*
X132080000Y-76835000D03*
X137323775Y-95413775D03*
X140843000Y-103759000D03*
X140906500Y-118554500D03*
X141478000Y-114363500D03*
X123190000Y-119634000D03*
X124206000Y-119634000D03*
X125222000Y-119634000D03*
X126238000Y-119634000D03*
X127254000Y-119634000D03*
X128270000Y-119634000D03*
X129286000Y-119634000D03*
X138430000Y-126619000D03*
X138811000Y-118529100D03*
X123698000Y-132207000D03*
X128778000Y-127762000D03*
G04 #@! TO.N,/PERIPH_3V3*
X136144000Y-117602000D03*
G04 #@! TO.N,/SDA2*
X134620000Y-132080000D03*
X120840500Y-125476000D03*
X129286000Y-126746000D03*
G04 #@! TD*
D46*
G04 #@! TO.N,GND*
X130845500Y-103253500D02*
X130843000Y-103251000D01*
X143129000Y-115664000D02*
X143670000Y-115664000D01*
D47*
X135548000Y-119634000D02*
X135548000Y-123190000D01*
X135548000Y-119634000D02*
X135548000Y-118960000D01*
X135548000Y-118960000D02*
X135636000Y-118872000D01*
X153899500Y-135628000D02*
X153899500Y-136373500D01*
X153899500Y-136373500D02*
X153924000Y-136398000D01*
X149497500Y-135628000D02*
X149497500Y-135998500D01*
X149497500Y-135998500D02*
X149352000Y-136144000D01*
D46*
X149901600Y-135223900D02*
X149497500Y-135628000D01*
X149901600Y-133107800D02*
X149901600Y-135223900D01*
X153801600Y-135530100D02*
X153899500Y-135628000D01*
X153801600Y-133107800D02*
X153801600Y-135530100D01*
X154451600Y-133107800D02*
X153801600Y-133107800D01*
X155751600Y-133107800D02*
X155944200Y-133107800D01*
X155944200Y-133107800D02*
X155956000Y-133096000D01*
X135548000Y-115189000D02*
X135548000Y-114388000D01*
X135548000Y-114388000D02*
X135636000Y-114300000D01*
D48*
X121965000Y-128006000D02*
X122926000Y-128006000D01*
X122926000Y-128006000D02*
X122936000Y-128016000D01*
X118342000Y-76708000D02*
X119634000Y-76708000D01*
X118342000Y-77978000D02*
X119634000Y-77978000D01*
X118342000Y-80518000D02*
X119634000Y-80518000D01*
D49*
X120141000Y-97118000D02*
X120560000Y-97118000D01*
X120560000Y-97118000D02*
X120650000Y-97028000D01*
X116983000Y-93512000D02*
X116983000Y-92853000D01*
X116983000Y-92853000D02*
X116840000Y-92710000D01*
X116983000Y-88352000D02*
X116983000Y-89043000D01*
X116983000Y-89043000D02*
X117094000Y-89154000D01*
X124422800Y-97586800D02*
X124422800Y-96811200D01*
X124422800Y-96811200D02*
X124460000Y-96774000D01*
X155756200Y-100965000D02*
X156083000Y-100965000D01*
X156083000Y-100965000D02*
X156210000Y-101092000D01*
X152506200Y-100965000D02*
X152506200Y-99928200D01*
X152506200Y-99928200D02*
X152400000Y-99822000D01*
X129017809Y-97196638D02*
X129117362Y-97196638D01*
X129117362Y-97196638D02*
X129794000Y-96520000D01*
X129724916Y-90691255D02*
X129807255Y-90691255D01*
X129807255Y-90691255D02*
X130556000Y-91440000D01*
X135523191Y-91552809D02*
X134874000Y-92202000D01*
X135523191Y-91398362D02*
X135523191Y-91552809D01*
X138176000Y-86465000D02*
X136525000Y-86465000D01*
X136525000Y-86465000D02*
X136525000Y-85725000D01*
X136525000Y-85725000D02*
X136398000Y-85598000D01*
X133443041Y-82710959D02*
X133697041Y-82710959D01*
X133697041Y-82710959D02*
X134112000Y-82296000D01*
X135221041Y-84488959D02*
X135890000Y-83820000D01*
X121541109Y-58477421D02*
X123268309Y-58477421D01*
X123268309Y-58477421D02*
X123755421Y-58477421D01*
X123755421Y-58477421D02*
X123952000Y-58674000D01*
D47*
X126009400Y-86119600D02*
X127787400Y-86119600D01*
X124663200Y-86119600D02*
X124256800Y-85713200D01*
X126009400Y-86119600D02*
X124663200Y-86119600D01*
X124256800Y-85713200D02*
X124256800Y-84632800D01*
X124256800Y-84632800D02*
X124206000Y-84582000D01*
X127787400Y-86119600D02*
X127787400Y-85369400D01*
X127787400Y-85369400D02*
X127762000Y-85344000D01*
X125615000Y-68183000D02*
X125615000Y-68465000D01*
X125615000Y-68465000D02*
X125730000Y-68580000D01*
D49*
X153806200Y-71237800D02*
X153670000Y-71374000D01*
X154164600Y-70231000D02*
X153806200Y-70231000D01*
X154456200Y-69939400D02*
X154164600Y-70231000D01*
X154456200Y-68986400D02*
X154456200Y-69939400D01*
X153806200Y-68986400D02*
X153806200Y-70231000D01*
X153806200Y-70231000D02*
X153806200Y-71237800D01*
X155756200Y-68986400D02*
X156057600Y-68986400D01*
X156057600Y-68986400D02*
X156083000Y-68961000D01*
X149906200Y-68986400D02*
X149906200Y-70184800D01*
X149906200Y-70184800D02*
X149860000Y-70231000D01*
X150026000Y-70397000D02*
X149860000Y-70231000D01*
X150026000Y-71374000D02*
X150026000Y-70397000D01*
X153875000Y-85076800D02*
X153812000Y-85013800D01*
X153875000Y-86741000D02*
X153875000Y-85076800D01*
X149987000Y-85088800D02*
X149912000Y-85013800D01*
X150153000Y-86741000D02*
X149987000Y-86575000D01*
X149987000Y-86575000D02*
X149987000Y-85088800D01*
X154178000Y-83947000D02*
X154051000Y-83820000D01*
X154178000Y-85013800D02*
X154178000Y-83947000D01*
X153812000Y-85013800D02*
X154178000Y-85013800D01*
X154178000Y-85013800D02*
X154462000Y-85013800D01*
X155762000Y-85013800D02*
X156032200Y-85013800D01*
X156032200Y-85013800D02*
X156083000Y-84963000D01*
X149912000Y-85013800D02*
X149682200Y-85013800D01*
X149682200Y-85013800D02*
X149606000Y-85090000D01*
X153806200Y-102860800D02*
X153670000Y-102997000D01*
X153806200Y-100965000D02*
X153806200Y-102860800D01*
X149906200Y-102750200D02*
X150153000Y-102997000D01*
X149906200Y-100965000D02*
X149906200Y-102750200D01*
X150153000Y-102997000D02*
X149352000Y-102997000D01*
X149352000Y-102997000D02*
X149225000Y-103124000D01*
X154456200Y-100965000D02*
X153806200Y-100965000D01*
X153806200Y-100965000D02*
X153806200Y-99831200D01*
X153806200Y-99831200D02*
X153797000Y-99822000D01*
X153797000Y-116971600D02*
X153801600Y-116967000D01*
X153797000Y-118872000D02*
X153797000Y-116971600D01*
X153801600Y-116967000D02*
X154451600Y-116967000D01*
X153801600Y-116967000D02*
X153801600Y-115828600D01*
X153801600Y-115828600D02*
X153797000Y-115824000D01*
X152501600Y-116967000D02*
X152501600Y-115976400D01*
X152501600Y-115976400D02*
X152527000Y-115951000D01*
X153797000Y-118872000D02*
X153797000Y-119634000D01*
X150153000Y-118169000D02*
X149967000Y-117983000D01*
X150153000Y-118872000D02*
X150153000Y-118169000D01*
X149901600Y-117920000D02*
X149901600Y-116967000D01*
X149964600Y-117983000D02*
X149901600Y-117920000D01*
X149967000Y-117983000D02*
X149964600Y-117983000D01*
X150153000Y-118872000D02*
X150153000Y-119722000D01*
X150153000Y-119722000D02*
X150114000Y-119761000D01*
X155751600Y-116967000D02*
X156083000Y-116967000D01*
D46*
X143645091Y-115539288D02*
X143895090Y-115289289D01*
X143670000Y-115664000D02*
X143645091Y-115639091D01*
X143670000Y-115664000D02*
X143895090Y-115889090D01*
X143895090Y-115889090D02*
X143895090Y-116024896D01*
X143895090Y-116024896D02*
X143895090Y-116378449D01*
X143645091Y-115639091D02*
X143645091Y-115539288D01*
D49*
X136803424Y-95782424D02*
X135509000Y-94488000D01*
X136937405Y-95782424D02*
X136803424Y-95782424D01*
X135509000Y-94488000D02*
X135255000Y-94234000D01*
X140804000Y-96647000D02*
X141605000Y-96647000D01*
X141605000Y-96647000D02*
X141732000Y-96774000D01*
D48*
X122055303Y-68894000D02*
X122522869Y-69361566D01*
X120904000Y-68894000D02*
X122055303Y-68894000D01*
X122522869Y-69361566D02*
X122772868Y-69611565D01*
D47*
X140525500Y-111354500D02*
X140525500Y-110553500D01*
X140525500Y-110553500D02*
X140589000Y-110490000D01*
X140589000Y-109689000D02*
X140740500Y-109537500D01*
X140589000Y-110490000D02*
X140589000Y-109689000D01*
X136628459Y-106743393D02*
X136628459Y-107227959D01*
X136628459Y-107227959D02*
X136652000Y-107251500D01*
X134809600Y-103251000D02*
X134861300Y-103302700D01*
X132143100Y-103251000D02*
X134809600Y-103251000D01*
X134861300Y-103302700D02*
X135624200Y-103302700D01*
X135624200Y-103302700D02*
X135636000Y-103314500D01*
X121965000Y-108692000D02*
X123424000Y-108692000D01*
X123424000Y-108692000D02*
X123444000Y-108712000D01*
D46*
X132588000Y-118149000D02*
X134112000Y-118149000D01*
D48*
X135548000Y-123190000D02*
X135548000Y-123991000D01*
X135548000Y-123991000D02*
X135636000Y-124079000D01*
D49*
X152506200Y-68986400D02*
X152506200Y-67971491D01*
X152506200Y-67971491D02*
X152531743Y-67945948D01*
X152512000Y-85013800D02*
X152512000Y-83967691D01*
X152512000Y-83967691D02*
X152531743Y-83947948D01*
D46*
X153670000Y-102997000D02*
X153670000Y-103632000D01*
X150153000Y-86741000D02*
X149479000Y-86741000D01*
X149479000Y-86741000D02*
X149352000Y-86868000D01*
X153875000Y-86741000D02*
X154495598Y-86741000D01*
X154495598Y-86741000D02*
X154622598Y-86868000D01*
X153670000Y-71374000D02*
X153670000Y-71628000D01*
X153670000Y-71628000D02*
X153924000Y-71882000D01*
X150026000Y-71374000D02*
X149352000Y-71374000D01*
X152501600Y-133107800D02*
X152475535Y-133081735D01*
X152475535Y-132471320D02*
X152475535Y-132117767D01*
X152475535Y-133081735D02*
X152475535Y-132471320D01*
X149901600Y-133107800D02*
X149848200Y-133107800D01*
X149848200Y-133107800D02*
X149606000Y-133350000D01*
D47*
X140462000Y-125056000D02*
X141859000Y-125056000D01*
X141859000Y-125056000D02*
X143383000Y-125056000D01*
X143383000Y-125056000D02*
X143383000Y-125984000D01*
X140462000Y-125056000D02*
X140462000Y-125984000D01*
D49*
X127944000Y-128754000D02*
X128881000Y-128754000D01*
X128881000Y-128754000D02*
X128905000Y-128778000D01*
X126326000Y-132207000D02*
X127254000Y-132207000D01*
D46*
X122516000Y-93726000D02*
X122516000Y-92749000D01*
X122516000Y-92749000D02*
X122555000Y-92710000D01*
D49*
G04 #@! TO.N,/isolated_atlas0/ISO_GND*
X155752800Y-61789800D02*
X155756200Y-61786400D01*
X152120600Y-59461400D02*
X152120600Y-60039400D01*
X152506200Y-60425000D02*
X152506200Y-60708400D01*
X152120600Y-60039400D02*
X152506200Y-60425000D01*
X152506200Y-60708400D02*
X152506200Y-61786400D01*
X154142400Y-59461400D02*
X154142400Y-60039400D01*
X154142400Y-60039400D02*
X153806200Y-60375600D01*
X153806200Y-60375600D02*
X153806200Y-60708400D01*
X153806200Y-60708400D02*
X153806200Y-61786400D01*
D46*
X148480000Y-61786400D02*
X148158200Y-61464600D01*
X149906200Y-61786400D02*
X149352000Y-61786400D01*
X149352000Y-61786400D02*
X148480000Y-61786400D01*
X152020600Y-59461400D02*
X153136600Y-59461400D01*
X153136600Y-59461400D02*
X153162000Y-59436000D01*
X153187400Y-59461400D02*
X153162000Y-59436000D01*
X154242400Y-59461400D02*
X153187400Y-59461400D01*
D49*
X159639000Y-66255000D02*
X159639000Y-66929000D01*
X159639000Y-66929000D02*
X159766000Y-67056000D01*
X155756200Y-61786400D02*
X156020400Y-61786400D01*
X156020400Y-61786400D02*
X156083000Y-61849000D01*
X170027600Y-60650000D02*
X171648000Y-60650000D01*
X171648000Y-60650000D02*
X171704000Y-60706000D01*
D48*
X187452000Y-69684000D02*
X187452000Y-70739000D01*
D49*
G04 #@! TO.N,/isolated_atlas1/ISO_GND*
X155778200Y-77830000D02*
X155762000Y-77813800D01*
X154167800Y-75209400D02*
X154167800Y-75787400D01*
X154167800Y-75787400D02*
X153812000Y-76143200D01*
X153812000Y-76143200D02*
X153812000Y-76735800D01*
X153812000Y-76735800D02*
X153812000Y-77813800D01*
X152095200Y-75209400D02*
X152095200Y-75787400D01*
X152095200Y-75787400D02*
X152512000Y-76204200D01*
X152512000Y-76204200D02*
X152512000Y-76735800D01*
X152512000Y-76735800D02*
X152512000Y-77813800D01*
X149912000Y-77813800D02*
X149389200Y-77813800D01*
X149389200Y-77813800D02*
X149352000Y-77851000D01*
X148375000Y-77851000D02*
X148336000Y-77812000D01*
X149352000Y-77851000D02*
X148375000Y-77851000D01*
X155762000Y-77813800D02*
X155993200Y-77813800D01*
X155993200Y-77813800D02*
X156083000Y-77724000D01*
X151995200Y-75209400D02*
X153009600Y-75209400D01*
X153009600Y-75209400D02*
X153035000Y-75184000D01*
X154242400Y-75184000D02*
X154267800Y-75209400D01*
X153035000Y-75184000D02*
X154242400Y-75184000D01*
X159766000Y-82042000D02*
X159766000Y-83058000D01*
D48*
X169799000Y-77202000D02*
X171436000Y-77202000D01*
X171436000Y-77202000D02*
X171450000Y-77216000D01*
D50*
X187452000Y-86194000D02*
X188048000Y-86194000D01*
X188048000Y-86194000D02*
X188214000Y-86360000D01*
D49*
G04 #@! TO.N,/isolated_atlas2/ISO_GND*
X155752800Y-93768400D02*
X155756200Y-93765000D01*
X153806200Y-91649200D02*
X154142400Y-91313000D01*
X153806200Y-91811800D02*
X153924000Y-91694000D01*
X153806200Y-93765000D02*
X153806200Y-91811800D01*
X152056200Y-91694000D02*
X153035000Y-91694000D01*
X153035000Y-91694000D02*
X153924000Y-91694000D01*
X148336000Y-93560000D02*
X148336000Y-94107000D01*
X148336000Y-94107000D02*
X148590000Y-94361000D01*
X149906200Y-93765000D02*
X149906200Y-94441800D01*
X149906200Y-94441800D02*
X149733000Y-94615000D01*
X152506200Y-92144000D02*
X152056200Y-91694000D01*
X152506200Y-93765000D02*
X152506200Y-92144000D01*
X155756200Y-93765000D02*
X155995000Y-93765000D01*
X155995000Y-93765000D02*
X156083000Y-93853000D01*
X159639000Y-98259000D02*
X159639000Y-99060000D01*
X159639000Y-99060000D02*
X159766000Y-99187000D01*
D50*
X187452000Y-101688000D02*
X188048000Y-101688000D01*
X188048000Y-101688000D02*
X188214000Y-101854000D01*
X170027600Y-92696000D02*
X171436000Y-92696000D01*
X171436000Y-92696000D02*
X171450000Y-92710000D01*
D49*
G04 #@! TO.N,/isolated_atlas3/ISO_GND*
X155752800Y-109768200D02*
X155751600Y-109767000D01*
X153801600Y-107603400D02*
X153963000Y-107442000D01*
X153801600Y-109767000D02*
X153801600Y-107603400D01*
X152234000Y-107442000D02*
X152234000Y-108292000D01*
X152501600Y-108559600D02*
X152501600Y-109767000D01*
X152234000Y-108292000D02*
X152501600Y-108559600D01*
X148463000Y-109689000D02*
X148463000Y-110617000D01*
X159893000Y-113753000D02*
X159893000Y-114808000D01*
D50*
X170022000Y-108682500D02*
X171674500Y-108682500D01*
X171674500Y-108682500D02*
X171704000Y-108712000D01*
X187325000Y-117563000D02*
X187667000Y-117563000D01*
X187667000Y-117563000D02*
X187960000Y-117856000D01*
D49*
X155751600Y-109767000D02*
X155995000Y-109767000D01*
X155995000Y-109767000D02*
X156083000Y-109855000D01*
X148541000Y-109767000D02*
X148463000Y-109689000D01*
X149901600Y-109767000D02*
X149479000Y-109767000D01*
X149479000Y-109767000D02*
X148541000Y-109767000D01*
X152234000Y-107442000D02*
X152234000Y-106592000D01*
X152234000Y-106592000D02*
X152273000Y-106553000D01*
X153963000Y-107442000D02*
X153963000Y-106719000D01*
X153963000Y-106719000D02*
X153924000Y-106680000D01*
G04 #@! TO.N,/isolated_atlas4/ISO_GND*
X155752800Y-125909000D02*
X155751600Y-125907800D01*
X154152600Y-123393200D02*
X154152600Y-123971200D01*
X154152600Y-123971200D02*
X153801600Y-124322200D01*
X153801600Y-124322200D02*
X153801600Y-124829800D01*
X153801600Y-124829800D02*
X153801600Y-125907800D01*
X152146000Y-123393200D02*
X152146000Y-123971200D01*
X152146000Y-123971200D02*
X152501600Y-124326800D01*
X152501600Y-124326800D02*
X152501600Y-124829800D01*
X152501600Y-124829800D02*
X152501600Y-125907800D01*
X159639000Y-129882000D02*
X159639000Y-131318000D01*
X155751600Y-125907800D02*
X156159200Y-125907800D01*
X156159200Y-125907800D02*
X156210000Y-125857000D01*
X152046000Y-123393200D02*
X152958800Y-123393200D01*
X152958800Y-123393200D02*
X153035000Y-123317000D01*
X154176400Y-123317000D02*
X154252600Y-123393200D01*
X153035000Y-123317000D02*
X154176400Y-123317000D01*
X149684800Y-125691000D02*
X149901600Y-125907800D01*
X148463000Y-125691000D02*
X149352000Y-125691000D01*
X149352000Y-125691000D02*
X149684800Y-125691000D01*
X170022000Y-124700000D02*
X171182000Y-124700000D01*
X171182000Y-124700000D02*
X171450000Y-124968000D01*
D50*
X187198000Y-133438000D02*
X187872000Y-133438000D01*
X187872000Y-133438000D02*
X187960000Y-133350000D01*
D46*
G04 #@! TO.N,/isolated_atlas0/ISO_VCC*
X150017400Y-59764600D02*
X150320600Y-59461400D01*
X151856200Y-60947000D02*
X151856200Y-61786400D01*
X150370600Y-59461400D02*
X151856200Y-60947000D01*
X150320600Y-59461400D02*
X150370600Y-59461400D01*
X148158200Y-59764600D02*
X149098000Y-59764600D01*
X149098000Y-59764600D02*
X150017400Y-59764600D01*
X155106200Y-61161400D02*
X155106200Y-61786400D01*
X155942400Y-60325200D02*
X155106200Y-61161400D01*
X155942400Y-59461400D02*
X155942400Y-60325200D01*
X155942400Y-59461400D02*
X156692600Y-59461400D01*
X156692600Y-59461400D02*
X156718000Y-59436000D01*
X163234000Y-64438000D02*
X163156000Y-64516000D01*
X163234000Y-62738000D02*
X163234000Y-64438000D01*
D49*
X163234000Y-62738000D02*
X163234000Y-61888000D01*
X163234000Y-61888000D02*
X163195000Y-61849000D01*
X163234000Y-64594000D02*
X163156000Y-64516000D01*
X163234000Y-66167000D02*
X163234000Y-64594000D01*
X163234000Y-66167000D02*
X163234000Y-67271000D01*
X163234000Y-67271000D02*
X163195000Y-67310000D01*
D50*
X187251988Y-67783988D02*
X187452000Y-67984000D01*
X184880720Y-67783988D02*
X187251988Y-67783988D01*
X184880720Y-67553120D02*
X184880720Y-67783988D01*
X182577600Y-65250000D02*
X184880720Y-67553120D01*
X182027600Y-65250000D02*
X182577600Y-65250000D01*
D49*
G04 #@! TO.N,/isolated_atlas1/ISO_VCC*
X148336000Y-76112000D02*
X148932000Y-76112000D01*
X148932000Y-76112000D02*
X149225000Y-75819000D01*
X149834600Y-75209400D02*
X149225000Y-75819000D01*
X150295200Y-75209400D02*
X149834600Y-75209400D01*
X151862000Y-76860800D02*
X151862000Y-77813800D01*
X151862000Y-76726200D02*
X151862000Y-76860800D01*
X150345200Y-75209400D02*
X151862000Y-76726200D01*
X150295200Y-75209400D02*
X150345200Y-75209400D01*
X155917800Y-75209400D02*
X155967800Y-75209400D01*
X155112000Y-76015200D02*
X155917800Y-75209400D01*
X155112000Y-77813800D02*
X155112000Y-76015200D01*
X163234000Y-80186000D02*
X163156000Y-80264000D01*
X163234000Y-78613000D02*
X163234000Y-80186000D01*
X163156000Y-80264000D02*
X163156000Y-81368000D01*
X163156000Y-81368000D02*
X163195000Y-81407000D01*
X163195000Y-82257000D02*
X163361000Y-82423000D01*
X163195000Y-81407000D02*
X163195000Y-82257000D01*
D48*
X181799000Y-81802000D02*
X180326000Y-81802000D01*
X180326000Y-81802000D02*
X180086000Y-82042000D01*
D50*
X187293988Y-84335988D02*
X187452000Y-84494000D01*
X184652120Y-84335988D02*
X187293988Y-84335988D01*
X184652120Y-84105120D02*
X184652120Y-84335988D01*
X182349000Y-81802000D02*
X184652120Y-84105120D01*
X181799000Y-81802000D02*
X182349000Y-81802000D01*
D49*
X155967800Y-75209400D02*
X156692600Y-75209400D01*
X156692600Y-75209400D02*
X156718000Y-75184000D01*
G04 #@! TO.N,/isolated_atlas2/ISO_VCC*
X155106200Y-92211800D02*
X155624000Y-91694000D01*
X155106200Y-93765000D02*
X155106200Y-92211800D01*
X150356200Y-92397000D02*
X150356200Y-91694000D01*
X150415200Y-92456000D02*
X150356200Y-92397000D01*
X151500200Y-92456000D02*
X150415200Y-92456000D01*
X151856200Y-92812000D02*
X151500200Y-92456000D01*
X151856200Y-93765000D02*
X151856200Y-92812000D01*
X148336000Y-91860000D02*
X149313000Y-91860000D01*
X149313000Y-91860000D02*
X149352000Y-91821000D01*
X150229200Y-91821000D02*
X150356200Y-91694000D01*
X149352000Y-91821000D02*
X150229200Y-91821000D01*
X163234000Y-96442000D02*
X163156000Y-96520000D01*
X163234000Y-94742000D02*
X163234000Y-96442000D01*
X163156000Y-97966000D02*
X163234000Y-98044000D01*
X163156000Y-96520000D02*
X163156000Y-97966000D01*
X163234000Y-94742000D02*
X163234000Y-93765000D01*
X163234000Y-93765000D02*
X163195000Y-93726000D01*
X163234000Y-98044000D02*
X163234000Y-98894000D01*
X163234000Y-98894000D02*
X163195000Y-98933000D01*
D50*
X187293988Y-99829988D02*
X187452000Y-99988000D01*
X184880720Y-99829988D02*
X187293988Y-99829988D01*
X184880720Y-99599120D02*
X184880720Y-99829988D01*
X182577600Y-97296000D02*
X184880720Y-99599120D01*
X182027600Y-97296000D02*
X182577600Y-97296000D01*
D49*
X155624000Y-91694000D02*
X156464000Y-91694000D01*
G04 #@! TO.N,/isolated_atlas3/ISO_VCC*
X155101600Y-108814000D02*
X155101600Y-109767000D01*
X155101600Y-108706400D02*
X155101600Y-108814000D01*
X155663000Y-108145000D02*
X155101600Y-108706400D01*
X155663000Y-107442000D02*
X155663000Y-108145000D01*
X150534000Y-108243000D02*
X150534000Y-107442000D01*
X150749000Y-108458000D02*
X150534000Y-108243000D01*
X151167600Y-108458000D02*
X150749000Y-108458000D01*
X151851600Y-109767000D02*
X151851600Y-109142000D01*
X151851600Y-109142000D02*
X151167600Y-108458000D01*
X148463000Y-107989000D02*
X149186000Y-107989000D01*
X149186000Y-107989000D02*
X149479000Y-107696000D01*
X150280000Y-107696000D02*
X150534000Y-107442000D01*
X149479000Y-107696000D02*
X150280000Y-107696000D01*
X163361000Y-111936000D02*
X163283000Y-112014000D01*
X163361000Y-110363000D02*
X163361000Y-111936000D01*
X163283000Y-113743000D02*
X163234000Y-113792000D01*
X163283000Y-112014000D02*
X163283000Y-113743000D01*
X163361000Y-110363000D02*
X163361000Y-109259000D01*
X163361000Y-109259000D02*
X163322000Y-109220000D01*
X163234000Y-113792000D02*
X163234000Y-114720000D01*
X163234000Y-114720000D02*
X163322000Y-114808000D01*
D50*
X184921632Y-115863000D02*
X184875120Y-115816488D01*
X187325000Y-115863000D02*
X184921632Y-115863000D01*
X182572000Y-113282500D02*
X182022000Y-113282500D01*
X184875120Y-115585620D02*
X182572000Y-113282500D01*
X184875120Y-115816488D02*
X184875120Y-115585620D01*
D49*
X155663000Y-107442000D02*
X156464000Y-107442000D01*
G04 #@! TO.N,/isolated_atlas4/ISO_VCC*
X155101600Y-125282800D02*
X155956000Y-124428400D01*
X155101600Y-125907800D02*
X155101600Y-125282800D01*
X155952600Y-124425000D02*
X155952600Y-123393200D01*
X155956000Y-124428400D02*
X155952600Y-124425000D01*
X150346000Y-124096200D02*
X150709800Y-124460000D01*
X150346000Y-123393200D02*
X150346000Y-124096200D01*
X150709800Y-124460000D02*
X151511000Y-124460000D01*
X151851600Y-124800600D02*
X151851600Y-125907800D01*
X151511000Y-124460000D02*
X151851600Y-124800600D01*
X163234000Y-128065000D02*
X163156000Y-128143000D01*
X163234000Y-126365000D02*
X163234000Y-128065000D01*
X163156000Y-129716000D02*
X163234000Y-129794000D01*
X163156000Y-128143000D02*
X163156000Y-129716000D01*
X163234000Y-129794000D02*
X163234000Y-130644000D01*
X163234000Y-130644000D02*
X163195000Y-130683000D01*
X163234000Y-126365000D02*
X163234000Y-125642000D01*
X163234000Y-125642000D02*
X163068000Y-125476000D01*
X148463000Y-123991000D02*
X148932000Y-123991000D01*
X148932000Y-123991000D02*
X149352000Y-123571000D01*
X150168200Y-123571000D02*
X150346000Y-123393200D01*
X149352000Y-123571000D02*
X150168200Y-123571000D01*
D50*
X184971108Y-131738000D02*
X184875120Y-131833988D01*
X187198000Y-131738000D02*
X184971108Y-131738000D01*
X184875120Y-131535120D02*
X184875120Y-131833988D01*
X182022000Y-129300000D02*
X182640000Y-129300000D01*
X182640000Y-129300000D02*
X184875120Y-131535120D01*
D49*
X155952600Y-123393200D02*
X156794200Y-123393200D01*
X156794200Y-123393200D02*
X156845000Y-123444000D01*
G04 #@! TO.N,/isolated_atlas0/ISO_SCL*
X150556200Y-61786400D02*
X150556200Y-62951600D01*
X150556200Y-62951600D02*
X150799800Y-63195200D01*
X150558500Y-61788700D02*
X150556200Y-61786400D01*
D46*
X167066708Y-62738000D02*
X167100720Y-62703988D01*
X164934000Y-62738000D02*
X167066708Y-62738000D01*
D49*
X169477600Y-65250000D02*
X170027600Y-65250000D01*
X167100720Y-62873120D02*
X169477600Y-65250000D01*
X167100720Y-62703988D02*
X167100720Y-62873120D01*
G04 #@! TO.N,/isolated_atlas0/ISO_SDA*
X151206200Y-61786400D02*
X151206200Y-62860900D01*
X151206200Y-62860900D02*
X151587200Y-63241900D01*
X151218900Y-61799100D02*
X151206200Y-61786400D01*
D46*
X167100720Y-65447280D02*
X167100720Y-65243988D01*
D49*
X168300431Y-66596099D02*
X176197099Y-66596099D01*
X167100720Y-65243988D02*
X167100720Y-65396388D01*
X167100720Y-65396388D02*
X168300431Y-66596099D01*
X179451000Y-69850000D02*
X182027600Y-69850000D01*
X176197099Y-66596099D02*
X179451000Y-69850000D01*
X166177708Y-66167000D02*
X167100720Y-65243988D01*
X164934000Y-66167000D02*
X166177708Y-66167000D01*
G04 #@! TO.N,/isolated_atlas1/ISO_SCL*
X150562000Y-77813800D02*
X150562000Y-78908600D01*
X150562000Y-78908600D02*
X150850600Y-79197200D01*
X166229132Y-78613000D02*
X166872120Y-79255988D01*
X164934000Y-78613000D02*
X166229132Y-78613000D01*
X169249000Y-81802000D02*
X169799000Y-81802000D01*
X166872120Y-79425120D02*
X169249000Y-81802000D01*
X166872120Y-79255988D02*
X166872120Y-79425120D01*
G04 #@! TO.N,/isolated_atlas1/ISO_SDA*
X151212000Y-77813800D02*
X151212000Y-78790500D01*
X151212000Y-78790500D02*
X151663400Y-79241900D01*
X177969000Y-86402000D02*
X181799000Y-86402000D01*
X174498000Y-82931000D02*
X177969000Y-86402000D01*
X167854732Y-82931000D02*
X174498000Y-82931000D01*
X166872120Y-81795988D02*
X166872120Y-81948388D01*
X166872120Y-81948388D02*
X167854732Y-82931000D01*
X166441012Y-81795988D02*
X166872120Y-81795988D01*
X165814000Y-82423000D02*
X166441012Y-81795988D01*
X165061000Y-82423000D02*
X165814000Y-82423000D01*
G04 #@! TO.N,/isolated_atlas2/ISO_SCL*
X150556200Y-94904800D02*
X150749000Y-95097600D01*
X150556200Y-93765000D02*
X150556200Y-94904800D01*
X167092732Y-94742000D02*
X167100720Y-94749988D01*
X164934000Y-94742000D02*
X167092732Y-94742000D01*
X169477600Y-97296000D02*
X170027600Y-97296000D01*
X167100720Y-94919120D02*
X169477600Y-97296000D01*
X167100720Y-94749988D02*
X167100720Y-94919120D01*
G04 #@! TO.N,/isolated_atlas2/ISO_SDA*
X151206200Y-93765000D02*
X151206200Y-94810100D01*
X151206200Y-94810100D02*
X151638000Y-95241900D01*
X166346708Y-98044000D02*
X167100720Y-97289988D01*
X164934000Y-98044000D02*
X166346708Y-98044000D01*
X177842000Y-101896000D02*
X182027600Y-101896000D01*
X174371000Y-98425000D02*
X177842000Y-101896000D01*
X168083332Y-98425000D02*
X174371000Y-98425000D01*
X167100720Y-97289988D02*
X167100720Y-97442388D01*
X167100720Y-97442388D02*
X168083332Y-98425000D01*
G04 #@! TO.N,/isolated_atlas3/ISO_SCL*
X150551600Y-109767000D02*
X150551600Y-110902200D01*
X150551600Y-110902200D02*
X150774400Y-111125000D01*
X166721632Y-110363000D02*
X167095120Y-110736488D01*
X165061000Y-110363000D02*
X166721632Y-110363000D01*
X167095120Y-110905620D02*
X167095120Y-110736488D01*
X169472000Y-113282500D02*
X167095120Y-110905620D01*
X170022000Y-113282500D02*
X169472000Y-113282500D01*
G04 #@! TO.N,/isolated_atlas3/ISO_SDA*
X151201600Y-109767000D02*
X151201600Y-110790200D01*
X151201600Y-110790200D02*
X151536400Y-111125000D01*
X166579608Y-113792000D02*
X167095120Y-113276488D01*
X164934000Y-113792000D02*
X166579608Y-113792000D01*
X167095120Y-113428888D02*
X168093232Y-114427000D01*
X167095120Y-113276488D02*
X167095120Y-113428888D01*
X168093232Y-114427000D02*
X173228000Y-114427000D01*
X176683500Y-117882500D02*
X182022000Y-117882500D01*
X173228000Y-114427000D02*
X176683500Y-117882500D01*
G04 #@! TO.N,/isolated_atlas4/ISO_SCL*
X150551600Y-125907800D02*
X150551600Y-127056600D01*
X150551600Y-127056600D02*
X150774400Y-127279400D01*
X150551600Y-126657800D02*
X150551600Y-125907800D01*
X166706132Y-126365000D02*
X167095120Y-126753988D01*
X164934000Y-126365000D02*
X166706132Y-126365000D01*
X167095120Y-126923120D02*
X167095120Y-126753988D01*
X169472000Y-129300000D02*
X167095120Y-126923120D01*
X170022000Y-129300000D02*
X169472000Y-129300000D01*
G04 #@! TO.N,/isolated_atlas4/ISO_SDA*
X151201600Y-125907800D02*
X151201600Y-126944600D01*
X151201600Y-126944600D02*
X151511000Y-127254000D01*
X166595108Y-129794000D02*
X167095120Y-129293988D01*
X164934000Y-129794000D02*
X166595108Y-129794000D01*
X181810000Y-134112000D02*
X182022000Y-133900000D01*
X175641000Y-134112000D02*
X181810000Y-134112000D01*
X172085000Y-130556000D02*
X175641000Y-134112000D01*
X168204732Y-130556000D02*
X172085000Y-130556000D01*
X167095120Y-129293988D02*
X167095120Y-129446388D01*
X167095120Y-129446388D02*
X168204732Y-130556000D01*
D46*
G04 #@! TO.N,Net-(J201-Pad2)*
X184914732Y-65278000D02*
X184880720Y-65243988D01*
D50*
X182586732Y-62950000D02*
X184880720Y-65243988D01*
X182027600Y-62950000D02*
X182586732Y-62950000D01*
X190386488Y-65243988D02*
X190420500Y-65278000D01*
X184880720Y-65243988D02*
X190386488Y-65243988D01*
D48*
G04 #@! TO.N,Net-(J301-Pad2)*
X184880720Y-81259988D02*
X190463988Y-81259988D01*
X190463988Y-81259988D02*
X190484000Y-81280000D01*
D46*
X184977500Y-81280000D02*
X184975500Y-81278000D01*
D48*
X182027600Y-76666000D02*
X182027600Y-78966000D01*
D46*
X182027600Y-79411600D02*
X182027600Y-78966000D01*
X184880720Y-81259988D02*
X183875988Y-81259988D01*
X183875988Y-81259988D02*
X182027600Y-79411600D01*
D50*
X182358132Y-79502000D02*
X184652120Y-81795988D01*
X181799000Y-79502000D02*
X182358132Y-79502000D01*
X189968012Y-81795988D02*
X190484000Y-81280000D01*
X184652120Y-81795988D02*
X189968012Y-81795988D01*
X181799000Y-77202000D02*
X181799000Y-79502000D01*
D48*
G04 #@! TO.N,Net-(J401-Pad2)*
X184880720Y-97289988D02*
X190472012Y-97289988D01*
X190472012Y-97289988D02*
X190484000Y-97278000D01*
D50*
X182586732Y-94996000D02*
X184880720Y-97289988D01*
X182027600Y-94996000D02*
X182586732Y-94996000D01*
X184892708Y-97278000D02*
X184880720Y-97289988D01*
X190484000Y-97278000D02*
X184892708Y-97278000D01*
D46*
G04 #@! TO.N,Net-(J501-Pad2)*
X184981500Y-113284000D02*
X184975500Y-113278000D01*
D50*
X182581132Y-110982500D02*
X184875120Y-113276488D01*
X182022000Y-110982500D02*
X182581132Y-110982500D01*
X190476488Y-113276488D02*
X190484000Y-113284000D01*
X184875120Y-113276488D02*
X190476488Y-113276488D01*
D48*
G04 #@! TO.N,Net-(J601-Pad2)*
X184875120Y-129293988D02*
X190476012Y-129293988D01*
X190476012Y-129293988D02*
X190484000Y-129286000D01*
D46*
X182022000Y-127000000D02*
X182572000Y-127000000D01*
X182572000Y-127000000D02*
X184865988Y-129293988D01*
X184865988Y-129293988D02*
X184875120Y-129293988D01*
X184983500Y-129286000D02*
X184975500Y-129278000D01*
G04 #@! TO.N,Net-(R201-Pad1)*
X159639000Y-62777000D02*
X159678000Y-62738000D01*
X159639000Y-64555000D02*
X159639000Y-62777000D01*
D49*
X158925000Y-62738000D02*
X159678000Y-62738000D01*
X158671000Y-62992000D02*
X158925000Y-62738000D01*
X154813000Y-62992000D02*
X158671000Y-62992000D01*
X154456200Y-61786400D02*
X154456200Y-62635200D01*
X154456200Y-62635200D02*
X154813000Y-62992000D01*
D46*
G04 #@! TO.N,Net-(R202-Pad2)*
X161378000Y-64438000D02*
X161456000Y-64516000D01*
X161378000Y-62738000D02*
X161378000Y-64438000D01*
D49*
G04 #@! TO.N,Net-(R301-Pad1)*
X159805000Y-80303000D02*
X159766000Y-80342000D01*
X159805000Y-78613000D02*
X159805000Y-80303000D01*
X159755000Y-78613000D02*
X158739000Y-79629000D01*
X159805000Y-78613000D02*
X159755000Y-78613000D01*
X158739000Y-79629000D02*
X154940000Y-79629000D01*
X154462000Y-79151000D02*
X154462000Y-77813800D01*
X154940000Y-79629000D02*
X154462000Y-79151000D01*
G04 #@! TO.N,Net-(R302-Pad2)*
X161505000Y-80215000D02*
X161456000Y-80264000D01*
X161505000Y-78613000D02*
X161505000Y-80215000D01*
G04 #@! TO.N,Net-(R401-Pad1)*
X159678000Y-96520000D02*
X159639000Y-96559000D01*
X159678000Y-94869000D02*
X159678000Y-96520000D01*
X158925000Y-94869000D02*
X158163000Y-95631000D01*
X159678000Y-94869000D02*
X158925000Y-94869000D01*
X158163000Y-95631000D02*
X155067000Y-95631000D01*
X154456200Y-95020200D02*
X154456200Y-93765000D01*
X155067000Y-95631000D02*
X154456200Y-95020200D01*
G04 #@! TO.N,Net-(R402-Pad2)*
X161456000Y-94947000D02*
X161378000Y-94869000D01*
X161456000Y-96520000D02*
X161456000Y-94947000D01*
G04 #@! TO.N,Net-(R501-Pad1)*
X159893000Y-110451000D02*
X159805000Y-110363000D01*
X159893000Y-112053000D02*
X159893000Y-110451000D01*
X159052000Y-110363000D02*
X158163000Y-111252000D01*
X159805000Y-110363000D02*
X159052000Y-110363000D01*
X158163000Y-111252000D02*
X154686000Y-111252000D01*
X154451600Y-111017600D02*
X154451600Y-109767000D01*
X154686000Y-111252000D02*
X154451600Y-111017600D01*
G04 #@! TO.N,Net-(R502-Pad2)*
X161505000Y-111936000D02*
X161583000Y-112014000D01*
X161505000Y-110363000D02*
X161505000Y-111936000D01*
G04 #@! TO.N,Net-(R601-Pad1)*
X159678000Y-128143000D02*
X159639000Y-128182000D01*
X159678000Y-126365000D02*
X159678000Y-128143000D01*
X154451600Y-127019600D02*
X154451600Y-125907800D01*
X155067000Y-127635000D02*
X154451600Y-127019600D01*
X157655000Y-127635000D02*
X155067000Y-127635000D01*
X159678000Y-126365000D02*
X158925000Y-126365000D01*
X158925000Y-126365000D02*
X157655000Y-127635000D01*
G04 #@! TO.N,Net-(R602-Pad2)*
X161378000Y-128065000D02*
X161456000Y-128143000D01*
X161378000Y-126365000D02*
X161378000Y-128065000D01*
D46*
G04 #@! TO.N,Net-(C3-Pad2)*
X129887273Y-86292127D02*
X129489200Y-86690200D01*
X129489200Y-88334219D02*
X129667000Y-88512019D01*
X129667000Y-88512019D02*
X130785576Y-89630595D01*
X129489200Y-86690200D02*
X129489200Y-88334219D01*
X130629734Y-85544734D02*
X130629734Y-85524266D01*
X130629734Y-85524266D02*
X132177459Y-83976541D01*
X130629734Y-85544734D02*
X129887273Y-86287195D01*
X129887273Y-86287195D02*
X129887273Y-86292127D01*
G04 #@! TO.N,Net-(C4-Pad2)*
X132397500Y-87312500D02*
X131114800Y-87312500D01*
X131114800Y-87312500D02*
X130949700Y-87147400D01*
X130949700Y-87147400D02*
X130124210Y-87147400D01*
X130124210Y-87147400D02*
X129895610Y-87376000D01*
X129895610Y-87376000D02*
X129895610Y-88033523D01*
X129895610Y-88033523D02*
X131139129Y-89277042D01*
X133955459Y-85754541D02*
X132397500Y-87312500D01*
G04 #@! TO.N,Net-(C6-Pad1)*
X137511714Y-89154000D02*
X136804513Y-89861201D01*
X137991000Y-89154000D02*
X137511714Y-89154000D01*
X138176000Y-88165000D02*
X138176000Y-88969000D01*
X138176000Y-88969000D02*
X137991000Y-89154000D01*
X138176000Y-88165000D02*
X138176000Y-88489714D01*
X136804513Y-89861201D02*
X136353246Y-89861201D01*
X136353246Y-89861201D02*
X135169638Y-91044809D01*
X135699967Y-90514480D02*
X135169638Y-91044809D01*
G04 #@! TO.N,Net-(C7-Pad1)*
X122478800Y-87413200D02*
X124156800Y-87413200D01*
X124156800Y-87413200D02*
X124256800Y-87513200D01*
X125421201Y-89970799D02*
X124256800Y-88806398D01*
X124256800Y-88806398D02*
X124256800Y-87513200D01*
X129371362Y-91044809D02*
X128297352Y-89970799D01*
X128297352Y-89970799D02*
X125421201Y-89970799D01*
X129371362Y-91044809D02*
X128841033Y-90514480D01*
D47*
G04 #@! TO.N,5V0*
X133780000Y-65112000D02*
X134366000Y-65698000D01*
X133780000Y-64008000D02*
X133780000Y-65112000D01*
X133780000Y-64008000D02*
X133780000Y-61546000D01*
X134254000Y-61072000D02*
X135852000Y-61072000D01*
X133780000Y-61546000D02*
X134254000Y-61072000D01*
D46*
G04 #@! TO.N,Net-(C13-Pad1)*
X121541109Y-60177421D02*
X123268309Y-60177421D01*
D47*
X121154000Y-64794000D02*
X121154000Y-62615000D01*
X121541109Y-62227891D02*
X121541109Y-60177421D01*
X121154000Y-62615000D02*
X121541109Y-62227891D01*
D46*
G04 #@! TO.N,/USB+*
X128386599Y-67553599D02*
X129159000Y-68326000D01*
X129409010Y-78181200D02*
X129409010Y-68576010D01*
X129409010Y-68576010D02*
X129159000Y-68326000D01*
X127315000Y-67579000D02*
X127289599Y-67553599D01*
X127000000Y-67553599D02*
X128386599Y-67553599D01*
X127289599Y-67553599D02*
X127000000Y-67553599D01*
X127315000Y-68183000D02*
X127315000Y-67579000D01*
X136583851Y-96135978D02*
X135850273Y-95402400D01*
X135850273Y-95402400D02*
X135331200Y-95402400D01*
X120904000Y-67594000D02*
X122174000Y-67594000D01*
X124891479Y-67553599D02*
X127000000Y-67553599D01*
X124851078Y-67594000D02*
X124891479Y-67553599D01*
X122174000Y-67594000D02*
X124851078Y-67594000D01*
G04 #@! TO.N,/USB-*
X129921000Y-76327000D02*
X129921000Y-76962000D01*
X129921000Y-76962000D02*
X130048000Y-77089000D01*
X129921000Y-68513250D02*
X129921000Y-76327000D01*
X128321750Y-66914000D02*
X129667000Y-68259250D01*
X129667000Y-68259250D02*
X129921000Y-68513250D01*
X127000000Y-66914000D02*
X128321750Y-66914000D01*
X127315000Y-66183000D02*
X127315000Y-66787000D01*
X127188000Y-66914000D02*
X127000000Y-66914000D01*
X127315000Y-66787000D02*
X127188000Y-66914000D01*
X136230298Y-96489531D02*
X135699969Y-95959202D01*
X135699969Y-95959202D02*
X134647398Y-95959202D01*
X134647398Y-95959202D02*
X134543800Y-96062800D01*
X127000000Y-66914000D02*
X126970000Y-66944000D01*
X126970000Y-66944000D02*
X124206000Y-66944000D01*
X124206000Y-66944000D02*
X120904000Y-66944000D01*
D47*
G04 #@! TO.N,VUSB*
X125415000Y-66133000D02*
X125476000Y-66072000D01*
X125415000Y-66183000D02*
X125415000Y-66133000D01*
X125476000Y-66072000D02*
X125476000Y-65278000D01*
X126746000Y-64008000D02*
X128186000Y-64008000D01*
X125476000Y-65278000D02*
X126746000Y-64008000D01*
D48*
X125304000Y-66294000D02*
X125415000Y-66183000D01*
X120904000Y-66294000D02*
X125304000Y-66294000D01*
D47*
G04 #@! TO.N,Net-(F1-Pad1)*
X130386000Y-64008000D02*
X132080000Y-64008000D01*
D46*
G04 #@! TO.N,/SWDIO*
X121942000Y-75438000D02*
X123246000Y-75438000D01*
X123246000Y-75438000D02*
X124201999Y-76393999D01*
X124201999Y-76393999D02*
X124201999Y-77855001D01*
X124201999Y-77855001D02*
X123952000Y-78105000D01*
X134108978Y-89984149D02*
X133415127Y-90678000D01*
X133415127Y-90678000D02*
X132867400Y-90678000D01*
G04 #@! TO.N,/SWCLK*
X123444000Y-76708000D02*
X121942000Y-76708000D01*
X134462531Y-90337702D02*
X134936396Y-89863837D01*
X134936396Y-89863837D02*
X134936396Y-88634404D01*
X134936396Y-88634404D02*
X135153400Y-88417400D01*
G04 #@! TO.N,/RST*
X118983000Y-93512000D02*
X118983000Y-92533000D01*
X118983000Y-92533000D02*
X118983000Y-88352000D01*
X117729000Y-82550000D02*
X116997594Y-83281406D01*
X116997594Y-83281406D02*
X116997594Y-84396106D01*
X120539000Y-82550000D02*
X117729000Y-82550000D01*
X121942000Y-80518000D02*
X121942000Y-81147000D01*
X121942000Y-81147000D02*
X120539000Y-82550000D01*
X116997594Y-84396106D02*
X116997594Y-86174106D01*
X118983000Y-88352000D02*
X118983000Y-87977000D01*
X118983000Y-87977000D02*
X118255000Y-87249000D01*
X118255000Y-87249000D02*
X117094000Y-87249000D01*
X117094000Y-87249000D02*
X116997594Y-87152594D01*
X116997594Y-87152594D02*
X116997594Y-86174106D01*
X119197000Y-93726000D02*
X118983000Y-93512000D01*
X120816000Y-93726000D02*
X119197000Y-93726000D01*
G04 #@! TO.N,Net-(J2-Pad4)*
X142723648Y-92297298D02*
X142723648Y-91388152D01*
X142723648Y-91388152D02*
X142951200Y-91160600D01*
X142723648Y-92297298D02*
X142723648Y-93980000D01*
D49*
X123429000Y-68244000D02*
X120904000Y-68244000D01*
X123459000Y-68214000D02*
X123429000Y-68244000D01*
D46*
X123459000Y-68214000D02*
X124512589Y-69267589D01*
D49*
X123190000Y-68244000D02*
X123323410Y-68244000D01*
X123323410Y-68244000D02*
X123444000Y-68123410D01*
D46*
G04 #@! TO.N,/A3*
X116841000Y-96818000D02*
X116841000Y-97118000D01*
X128310702Y-92105469D02*
X127889000Y-91683767D01*
X126492000Y-91490800D02*
X127696033Y-91490800D01*
X127696033Y-91490800D02*
X127889000Y-91683767D01*
X128310702Y-92105469D02*
X128784567Y-92579334D01*
X117545000Y-97118000D02*
X119070100Y-95592900D01*
X116841000Y-97118000D02*
X117545000Y-97118000D01*
X122389900Y-95592900D02*
X126492000Y-91490800D01*
X119070100Y-95592900D02*
X122389900Y-95592900D01*
G04 #@! TO.N,/RESET*
X121152594Y-82804000D02*
X127127000Y-82804000D01*
X128524000Y-81534000D02*
X128524000Y-81887553D01*
X128524000Y-81887553D02*
X127607553Y-82804000D01*
X127607553Y-82804000D02*
X127127000Y-82804000D01*
X118697594Y-84455000D02*
X119501594Y-84455000D01*
X119501594Y-84455000D02*
X121152594Y-82804000D01*
X136230298Y-92105469D02*
X136215131Y-92105469D01*
X136215131Y-92105469D02*
X135305800Y-93014800D01*
G04 #@! TO.N,/USB_ID*
X140773648Y-92297298D02*
X140773648Y-91593298D01*
X140773648Y-91593298D02*
X139451950Y-90271600D01*
X139451950Y-90271600D02*
X137951286Y-90271600D01*
X137951286Y-90271600D02*
X137246225Y-90976661D01*
X137246225Y-90976661D02*
X136652000Y-90976661D01*
X136652000Y-90976661D02*
X135876745Y-91751916D01*
X135876745Y-91751916D02*
X136442661Y-91186000D01*
G04 #@! TO.N,/A2*
X132232400Y-95452417D02*
X132232400Y-100990400D01*
X128664255Y-91751916D02*
X132232400Y-95320061D01*
X132232400Y-95320061D02*
X132232400Y-95452417D01*
G04 #@! TO.N,/MOSI*
X128714500Y-98207053D02*
X129371362Y-97550191D01*
X128714500Y-102033600D02*
X128714500Y-98207053D01*
X127497100Y-103251000D02*
X128714500Y-102033600D01*
X125743100Y-103251000D02*
X127497100Y-103251000D01*
G04 #@! TO.N,/SCK*
X126943100Y-104521000D02*
X125743100Y-104521000D01*
X129194587Y-102269513D02*
X126943100Y-104521000D01*
X129194587Y-98434074D02*
X129194587Y-102269513D01*
X129724916Y-97903745D02*
X129194587Y-98434074D01*
G04 #@! TO.N,/MISO*
X130943100Y-105791000D02*
X132143100Y-105791000D01*
X129604604Y-104452504D02*
X130943100Y-105791000D01*
X129604604Y-98731163D02*
X129604604Y-104452504D01*
X130078469Y-98257298D02*
X129604604Y-98731163D01*
G04 #@! TO.N,/D13*
X136628459Y-104843393D02*
X136628459Y-101837440D01*
X136628459Y-101837440D02*
X133755424Y-98964405D01*
G04 #@! TO.N,/D30*
X121965000Y-106192000D02*
X123170000Y-106192000D01*
X123170000Y-106192000D02*
X123571000Y-105791000D01*
X137290958Y-93166129D02*
X138811000Y-91646087D01*
X138811000Y-91646087D02*
X138811000Y-90932000D01*
G04 #@! TO.N,/D31*
X121965000Y-107442000D02*
X123063000Y-107442000D01*
X123063000Y-107442000D02*
X123571000Y-106934000D01*
X138059119Y-91690862D02*
X138059119Y-90947281D01*
X138059119Y-90947281D02*
X138074400Y-90932000D01*
X136937405Y-92812576D02*
X138059119Y-91690862D01*
G04 #@! TO.N,Net-(D4-Pad1)*
X142984400Y-106553000D02*
X142984400Y-105152000D01*
X142984400Y-105152000D02*
X142734400Y-104902000D01*
G04 #@! TO.N,Net-(Q4-Pad3)*
X140784400Y-106553000D02*
X139688066Y-106553000D01*
X139688066Y-106553000D02*
X138928459Y-105793393D01*
G04 #@! TO.N,/isolated_atlas0/EC_PGND*
X184880720Y-62703988D02*
X190386488Y-62703988D01*
X190386488Y-62703988D02*
X190420500Y-62738000D01*
G04 #@! TO.N,/isolated_atlas1/RTD_PGND*
X184880720Y-78719988D02*
X190463988Y-78719988D01*
X190463988Y-78719988D02*
X190484000Y-78740000D01*
X190482000Y-78738000D02*
X190484000Y-78740000D01*
G04 #@! TO.N,/isolated_atlas2/PH_PGND*
X184880720Y-94749988D02*
X190472012Y-94749988D01*
X190472012Y-94749988D02*
X190484000Y-94738000D01*
G04 #@! TO.N,/isolated_atlas3/DO_PGND*
X184875120Y-110736488D02*
X190476488Y-110736488D01*
X190476488Y-110736488D02*
X190484000Y-110744000D01*
X190478000Y-110738000D02*
X190484000Y-110744000D01*
G04 #@! TO.N,/isolated_atlas4/ORP_PGND*
X190484000Y-126746000D02*
X184883108Y-126746000D01*
X184883108Y-126746000D02*
X184875120Y-126753988D01*
X190476000Y-126738000D02*
X190484000Y-126746000D01*
D49*
G04 #@! TO.N,/SCL1*
X137160000Y-98126339D02*
X137160000Y-98171000D01*
X135876745Y-96843084D02*
X137160000Y-98126339D01*
X140589000Y-101054834D02*
X140608469Y-101074303D01*
X140589000Y-100330000D02*
X140589000Y-101054834D01*
X150556200Y-100137200D02*
X150556200Y-100965000D01*
X150241000Y-99822000D02*
X150556200Y-100137200D01*
X148971000Y-100457000D02*
X149606000Y-99822000D01*
X149606000Y-99822000D02*
X150241000Y-99822000D01*
X150562000Y-85013800D02*
X150562000Y-83633000D01*
X150562000Y-83633000D02*
X150495000Y-83566000D01*
X150551600Y-116967000D02*
X150551600Y-115880600D01*
X150551600Y-115880600D02*
X150495000Y-115824000D01*
X150495000Y-133051200D02*
X150551600Y-133107800D01*
X150495000Y-131699000D02*
X150495000Y-133051200D01*
X150556200Y-67879200D02*
X150556200Y-68986400D01*
X150114000Y-67437000D02*
X150556200Y-67879200D01*
X141859000Y-131318000D02*
X141986002Y-131318000D01*
X137502000Y-130302000D02*
X138518000Y-131318000D01*
X138518000Y-131318000D02*
X141859000Y-131318000D01*
D46*
X146304000Y-68238000D02*
X146304000Y-67310000D01*
X146304000Y-67310000D02*
X146431000Y-67183000D01*
X146050000Y-101004000D02*
X146050000Y-100076000D01*
X146050000Y-116371000D02*
X146050000Y-115189000D01*
X145923000Y-132793000D02*
X145923000Y-132080000D01*
X145923000Y-132080000D02*
X145415000Y-131572000D01*
X146050000Y-84621000D02*
X146050000Y-83824001D01*
X146050000Y-83824001D02*
X146558000Y-83316001D01*
D49*
G04 #@! TO.N,/SDA1*
X142262283Y-100457000D02*
X142262283Y-101074303D01*
X135523191Y-97196638D02*
X136053520Y-97726967D01*
X136053520Y-97726967D02*
X136053520Y-97810296D01*
X142262283Y-100321303D02*
X142262283Y-100457000D01*
X136053520Y-97810296D02*
X138065224Y-99822000D01*
X138065224Y-99822000D02*
X141762980Y-99822000D01*
X141762980Y-99822000D02*
X142262283Y-100321303D01*
X142262283Y-100457000D02*
X142748000Y-100457000D01*
X142748000Y-100457000D02*
X143599312Y-99605688D01*
X144399000Y-99605688D02*
X144399000Y-84201000D01*
X143599312Y-99605688D02*
X144399000Y-99605688D01*
X151201600Y-115768600D02*
X151201600Y-116967000D01*
X150622000Y-115189000D02*
X151201600Y-115768600D01*
X144399000Y-112776000D02*
X146812000Y-115189000D01*
X144399000Y-99605688D02*
X144399000Y-112649000D01*
X144399000Y-112649000D02*
X144399000Y-112776000D01*
X151201600Y-132154800D02*
X151201600Y-133107800D01*
X151201600Y-131659826D02*
X151201600Y-132154800D01*
X150736873Y-131195099D02*
X151201600Y-131659826D01*
X144399000Y-129667000D02*
X145927099Y-131195099D01*
X144399000Y-84201000D02*
X144399000Y-68326000D01*
X144399000Y-68326000D02*
X146050000Y-66675000D01*
X151206200Y-67513200D02*
X151206200Y-68986400D01*
X150368000Y-66675000D02*
X151206200Y-67513200D01*
X137502000Y-131889500D02*
X142287276Y-131889500D01*
X144399000Y-129777776D02*
X144399000Y-129667000D01*
X142287276Y-131889500D02*
X144399000Y-129777776D01*
X145034000Y-129032000D02*
X144399000Y-129667000D01*
X144399000Y-112649000D02*
X145034000Y-113284000D01*
X145034000Y-113284000D02*
X145034000Y-129032000D01*
D46*
X147828000Y-66802000D02*
X147955000Y-66675000D01*
X147828000Y-68238000D02*
X147828000Y-66802000D01*
D49*
X146050000Y-66675000D02*
X147955000Y-66675000D01*
X147955000Y-66675000D02*
X150368000Y-66675000D01*
X146807973Y-82804000D02*
X148209000Y-82804000D01*
X146799874Y-82812099D02*
X146807973Y-82804000D01*
X144399000Y-84201000D02*
X145787901Y-82812099D01*
X145787901Y-82812099D02*
X146799874Y-82812099D01*
X151212000Y-84060800D02*
X151212000Y-85013800D01*
X151212000Y-83267000D02*
X151212000Y-84060800D01*
X150749000Y-82804000D02*
X151212000Y-83267000D01*
X148209000Y-82931000D02*
X148336000Y-82804000D01*
X148336000Y-82804000D02*
X150749000Y-82804000D01*
X149319685Y-99605688D02*
X149458784Y-99466589D01*
X144399000Y-99605688D02*
X144432590Y-99572098D01*
X150660789Y-99466589D02*
X151206200Y-100012000D01*
X151206200Y-100012000D02*
X151206200Y-100965000D01*
X149458784Y-99466589D02*
X150660789Y-99466589D01*
X146291874Y-99572098D02*
X146325464Y-99605688D01*
X144432590Y-99572098D02*
X146291874Y-99572098D01*
D46*
X147701000Y-100200000D02*
X147701000Y-99605688D01*
X147701000Y-101004000D02*
X147701000Y-100200000D01*
D49*
X146325464Y-99605688D02*
X147701000Y-99605688D01*
X147701000Y-99605688D02*
X149319685Y-99605688D01*
D46*
X147574000Y-115440000D02*
X147574000Y-115189000D01*
X147701000Y-115567000D02*
X147574000Y-115440000D01*
X147701000Y-116371000D02*
X147701000Y-115567000D01*
D49*
X146812000Y-115189000D02*
X147574000Y-115189000D01*
X147574000Y-115189000D02*
X150622000Y-115189000D01*
D46*
X147574000Y-132754000D02*
X147574000Y-131195099D01*
D49*
X145927099Y-131195099D02*
X147574000Y-131195099D01*
X147574000Y-131195099D02*
X150736873Y-131195099D01*
D46*
X148209000Y-83309000D02*
X148209000Y-82804000D01*
X147701000Y-83817000D02*
X148209000Y-83309000D01*
X147701000Y-84621000D02*
X147701000Y-83817000D01*
G04 #@! TO.N,/SCL3*
X123444000Y-115824000D02*
X130365100Y-115824000D01*
X130365100Y-115824000D02*
X130372400Y-115831300D01*
X123444000Y-115824000D02*
X121985000Y-115824000D01*
X121985000Y-115824000D02*
X121965000Y-115844000D01*
X122047000Y-98171000D02*
X122047000Y-97764600D01*
X122047000Y-97764600D02*
X124024201Y-95787399D01*
X124024201Y-95787399D02*
X125984113Y-95787399D01*
X125984113Y-95787399D02*
X126453003Y-96256289D01*
X126453003Y-96256289D02*
X127129730Y-96256289D01*
X127129730Y-96256289D02*
X127603595Y-95782424D01*
G04 #@! TO.N,/SDA3*
X121965000Y-114594000D02*
X130359700Y-114594000D01*
X130359700Y-114594000D02*
X130372400Y-114581300D01*
X121965000Y-114594000D02*
X121965000Y-114112400D01*
X121965000Y-114112400D02*
X121517600Y-113665000D01*
X121869200Y-97282000D02*
X121285000Y-97866200D01*
X121285000Y-97866200D02*
X121285000Y-98425000D01*
X121869200Y-97282000D02*
X124256800Y-94894400D01*
X124256800Y-94894400D02*
X126715571Y-94894400D01*
X126715571Y-94894400D02*
X127250042Y-95428871D01*
D47*
G04 #@! TO.N,VCC*
X155599500Y-135628000D02*
X155599500Y-136295500D01*
X155599500Y-136295500D02*
X155702000Y-136398000D01*
X151197500Y-135628000D02*
X151197500Y-136330500D01*
X151197500Y-136330500D02*
X151130000Y-136398000D01*
D46*
X151851600Y-134973900D02*
X151197500Y-135628000D01*
X151851600Y-133107800D02*
X151851600Y-134973900D01*
X155101600Y-135130100D02*
X155599500Y-135628000D01*
X155101600Y-133107800D02*
X155101600Y-135130100D01*
D49*
X151856200Y-71243800D02*
X151726000Y-71374000D01*
X151856200Y-68986400D02*
X151856200Y-71243800D01*
X155106200Y-71110200D02*
X155370000Y-71374000D01*
X155106200Y-68986400D02*
X155106200Y-71110200D01*
X155112000Y-86278000D02*
X155575000Y-86741000D01*
X155112000Y-85013800D02*
X155112000Y-86278000D01*
X151853000Y-85022800D02*
X151862000Y-85013800D01*
X151853000Y-86741000D02*
X151853000Y-85022800D01*
X155106200Y-102030200D02*
X155106200Y-100965000D01*
X155370000Y-102997000D02*
X155370000Y-102294000D01*
X155370000Y-102294000D02*
X155106200Y-102030200D01*
X151856200Y-102993800D02*
X151853000Y-102997000D01*
X151856200Y-100965000D02*
X151856200Y-102993800D01*
X155101600Y-118476600D02*
X155497000Y-118872000D01*
X155101600Y-116967000D02*
X155101600Y-118476600D01*
X155497000Y-118872000D02*
X155497000Y-119458000D01*
X155497000Y-119458000D02*
X155448000Y-119507000D01*
X151853000Y-116968400D02*
X151851600Y-116967000D01*
X151853000Y-118872000D02*
X151853000Y-116968400D01*
X151853000Y-118872000D02*
X151853000Y-119575000D01*
X151794000Y-119634000D02*
X151853000Y-119575000D01*
D50*
X141859000Y-119507000D02*
X142176500Y-119189500D01*
X141859000Y-121064000D02*
X141859000Y-119507000D01*
X142176500Y-119189500D02*
X142938500Y-119189500D01*
D47*
X141859000Y-121064000D02*
X141859000Y-123356000D01*
X141859000Y-123356000D02*
X143383000Y-123356000D01*
X140462000Y-123356000D02*
X141859000Y-123356000D01*
X143383000Y-123356000D02*
X144233000Y-123356000D01*
X144233000Y-123356000D02*
X144272000Y-123317000D01*
D46*
X151856200Y-67853800D02*
X151892000Y-67818000D01*
X151856200Y-68986400D02*
X151856200Y-67853800D01*
X155106200Y-68986400D02*
X155106200Y-67905800D01*
X155106200Y-67905800D02*
X155194000Y-67818000D01*
X155370000Y-71374000D02*
X155956000Y-71374000D01*
X151726000Y-71374000D02*
X152400000Y-71374000D01*
X151853000Y-86741000D02*
X152527000Y-86741000D01*
X152527000Y-86741000D02*
X152654000Y-86868000D01*
X155575000Y-86741000D02*
X156337000Y-86741000D01*
X156337000Y-86741000D02*
X156464000Y-86614000D01*
X155112000Y-85013800D02*
X155112000Y-83992000D01*
X155112000Y-83992000D02*
X154940000Y-83820000D01*
X151862000Y-83850000D02*
X151892000Y-83820000D01*
X151862000Y-85013800D02*
X151862000Y-83850000D01*
X155370000Y-102997000D02*
X156083000Y-102997000D01*
X156083000Y-102997000D02*
X156210000Y-103124000D01*
X151853000Y-102997000D02*
X151853000Y-103593000D01*
X151853000Y-103593000D02*
X151892000Y-103632000D01*
X151856200Y-100965000D02*
X151856200Y-99786200D01*
X151856200Y-99786200D02*
X151638000Y-99568000D01*
X155106200Y-100965000D02*
X155106200Y-99909800D01*
X155106200Y-99909800D02*
X155194000Y-99822000D01*
X151851600Y-133107800D02*
X151851600Y-131866400D01*
X151851600Y-131866400D02*
X151892000Y-131826000D01*
X155101600Y-133107800D02*
X155101600Y-132241600D01*
X155101600Y-132241600D02*
X154940000Y-132080000D01*
X147193000Y-69938000D02*
X147193000Y-71247000D01*
X147828000Y-69938000D02*
X147193000Y-69938000D01*
X147193000Y-69938000D02*
X146304000Y-69938000D01*
X147701000Y-102704000D02*
X146812000Y-102704000D01*
X146812000Y-102704000D02*
X146050000Y-102704000D01*
X147701000Y-118071000D02*
X146939000Y-118071000D01*
X146939000Y-118071000D02*
X146050000Y-118071000D01*
X147535000Y-134493000D02*
X147574000Y-134454000D01*
X145923000Y-134493000D02*
X146812000Y-134493000D01*
X146812000Y-134493000D02*
X147535000Y-134493000D01*
X146050000Y-86321000D02*
X146812000Y-86321000D01*
X146812000Y-86321000D02*
X147701000Y-86321000D01*
G04 #@! TO.N,Net-(R12-Pad1)*
X137033000Y-125388000D02*
X137033000Y-124587000D01*
X137033000Y-124587000D02*
X137160000Y-124460000D01*
X143289000Y-120904000D02*
X143129000Y-121064000D01*
X143764000Y-120904000D02*
X143289000Y-120904000D01*
D49*
G04 #@! TO.N,/D5_FLASH_CS*
X130365500Y-102108000D02*
X130365500Y-100091587D01*
X130365500Y-100091587D02*
X131139129Y-99317958D01*
D46*
X132130400Y-107048300D02*
X132143100Y-107061000D01*
X130073400Y-107048300D02*
X132130400Y-107048300D01*
G04 #@! TO.N,/D12_PERIPH_EN*
X139319000Y-114410000D02*
X139319000Y-115664000D01*
X137668000Y-112759000D02*
X139319000Y-114410000D01*
X137668000Y-101462767D02*
X137668000Y-112759000D01*
X134462531Y-98257298D02*
X137668000Y-101462767D01*
X138844000Y-115189000D02*
X139319000Y-115664000D01*
X137248000Y-115189000D02*
X138844000Y-115189000D01*
G04 #@! TO.N,Net-(C1-Pad1)*
X130078469Y-90337702D02*
X127787400Y-88046633D01*
X127787400Y-88046633D02*
X127787400Y-87919600D01*
X126009400Y-87919600D02*
X127787400Y-87919600D01*
D48*
G04 #@! TO.N,3V3*
X121965000Y-129256000D02*
X122906000Y-129256000D01*
X122906000Y-129256000D02*
X122936000Y-129286000D01*
X119106000Y-100584000D02*
X120650000Y-100584000D01*
X116841000Y-102018000D02*
X117672000Y-102018000D01*
X117672000Y-102018000D02*
X119106000Y-100584000D01*
X118342000Y-75438000D02*
X120142000Y-75438000D01*
D49*
X128664255Y-96843084D02*
X127920539Y-97586800D01*
X127508000Y-97586800D02*
X126122800Y-97586800D01*
X127920539Y-97586800D02*
X127508000Y-97586800D01*
X127508000Y-97586800D02*
X127508000Y-97790000D01*
X122478800Y-85713200D02*
X122478800Y-85293200D01*
X122478800Y-85293200D02*
X122682000Y-85090000D01*
X118697594Y-86233000D02*
X120015000Y-86233000D01*
X120015000Y-86233000D02*
X120142000Y-86360000D01*
X141023648Y-93980000D02*
X140208000Y-93980000D01*
X134816084Y-90691255D02*
X134816084Y-90735916D01*
X134816084Y-90735916D02*
X134112000Y-91440000D01*
X136525000Y-88773000D02*
X136652000Y-88900000D01*
X136525000Y-88165000D02*
X136525000Y-88773000D01*
X136652000Y-88900000D02*
X136398000Y-89154000D01*
X137308679Y-95428871D02*
X137323775Y-95413775D01*
X137290958Y-95428871D02*
X137308679Y-95428871D01*
X142262283Y-102774303D02*
X140608469Y-102774303D01*
X140608469Y-102774303D02*
X140608469Y-103524469D01*
X140608469Y-103524469D02*
X140843000Y-103759000D01*
X140843000Y-104710600D02*
X141034400Y-104902000D01*
X140843000Y-103759000D02*
X140843000Y-104710600D01*
X137677328Y-95413775D02*
X137323775Y-95413775D01*
X137820775Y-95413775D02*
X137677328Y-95413775D01*
X139054000Y-96647000D02*
X137820775Y-95413775D01*
X139104000Y-96647000D02*
X139054000Y-96647000D01*
D47*
X141478000Y-114007000D02*
X140525500Y-113054500D01*
X141478000Y-114363500D02*
X141478000Y-114007000D01*
X141859000Y-114554000D02*
X141859000Y-115664000D01*
X141478000Y-114363500D02*
X141668500Y-114363500D01*
X141668500Y-114363500D02*
X141859000Y-114554000D01*
X130366300Y-119594000D02*
X130372400Y-119587900D01*
X138938000Y-125056000D02*
X138938000Y-126111000D01*
X138938000Y-126111000D02*
X138430000Y-126619000D01*
X137961000Y-127088000D02*
X137033000Y-127088000D01*
X138430000Y-126619000D02*
X137961000Y-127088000D01*
D49*
X124626000Y-132207000D02*
X123698000Y-132207000D01*
X127944000Y-127754000D02*
X128770000Y-127754000D01*
X128770000Y-127754000D02*
X128778000Y-127762000D01*
X132627000Y-72820000D02*
X132588000Y-72859000D01*
X134366000Y-72820000D02*
X132627000Y-72820000D01*
D46*
G04 #@! TO.N,/PERIPH_3V3*
X130843000Y-104521000D02*
X132400000Y-104521000D01*
X131543000Y-104521000D02*
X130843000Y-104521000D01*
X134379600Y-104521000D02*
X134861300Y-105002700D01*
X132143100Y-104521000D02*
X134379600Y-104521000D01*
X134861300Y-105002700D02*
X134861300Y-107569000D01*
X134023100Y-108407200D02*
X134861300Y-107569000D01*
X126535300Y-108407200D02*
X134023100Y-108407200D01*
D48*
X134861300Y-107619800D02*
X134023100Y-108458000D01*
X134861300Y-105002700D02*
X134861300Y-107619800D01*
D46*
X134023100Y-108407200D02*
X134023100Y-108458000D01*
X134023100Y-108458000D02*
X134023100Y-115481100D01*
D48*
X134023100Y-115481100D02*
X136144000Y-117602000D01*
X134023100Y-108407200D02*
X134023100Y-115481100D01*
X137248000Y-118706000D02*
X137248000Y-119634000D01*
X136144000Y-117602000D02*
X137248000Y-118706000D01*
X140589000Y-120015000D02*
X140589000Y-121064000D01*
X137248000Y-119634000D02*
X140208000Y-119634000D01*
X140208000Y-119634000D02*
X140589000Y-120015000D01*
X137248000Y-119634000D02*
X137248000Y-121412000D01*
X137248000Y-121412000D02*
X137248000Y-123190000D01*
X125743100Y-105791000D02*
X125743100Y-107061000D01*
X126408300Y-108407200D02*
X126535300Y-108407200D01*
X125743100Y-107742000D02*
X126408300Y-108407200D01*
X125743100Y-107061000D02*
X125743100Y-107742000D01*
X133972300Y-108407200D02*
X134023100Y-108458000D01*
X126408300Y-108407200D02*
X133972300Y-108407200D01*
D46*
G04 #@! TO.N,/D6_ATLAS_EN*
X138124058Y-101211719D02*
X134816084Y-97903745D01*
X140589000Y-114964000D02*
X138124058Y-112499058D01*
X140589000Y-115664000D02*
X140589000Y-114964000D01*
D49*
X139040500Y-109537500D02*
X138124058Y-109537500D01*
D46*
X138124058Y-112499058D02*
X138124058Y-109537500D01*
X138124058Y-109537500D02*
X138124058Y-101211719D01*
G04 #@! TO.N,Net-(R7-Pad1)*
X139319000Y-123356000D02*
X139065000Y-123610000D01*
X138938000Y-122301000D02*
X138938000Y-123356000D01*
X139319000Y-121064000D02*
X139319000Y-121920000D01*
X139319000Y-121920000D02*
X138938000Y-122301000D01*
D49*
G04 #@! TO.N,/SCL2*
X135802000Y-130302000D02*
X133858000Y-130302000D01*
X129310000Y-125754000D02*
X127944000Y-125754000D01*
X133858000Y-130302000D02*
X129310000Y-125754000D01*
X125730000Y-126756000D02*
X121965000Y-126756000D01*
X127944000Y-125754000D02*
X126732000Y-125754000D01*
X126732000Y-125754000D02*
X125730000Y-126756000D01*
G04 #@! TO.N,/SDA2*
X135802000Y-131889500D02*
X134810500Y-131889500D01*
X134810500Y-131889500D02*
X134620000Y-132080000D01*
X121935000Y-125476000D02*
X121965000Y-125506000D01*
X120840500Y-125476000D02*
X121935000Y-125476000D01*
X129278000Y-126754000D02*
X129286000Y-126746000D01*
X127944000Y-126754000D02*
X129278000Y-126754000D01*
D47*
G04 #@! TO.N,Net-(J7-Pad3)*
X130366300Y-117094000D02*
X130372400Y-117087900D01*
D49*
G04 #@! TO.N,Net-(D1-Pad1)*
X132588000Y-69293000D02*
X132666000Y-69215000D01*
X132588000Y-71159000D02*
X132588000Y-69293000D01*
G04 #@! TD*
D46*
G04 #@! TO.N,/isolated_atlas1/RTD_PGND*
G36*
X192913000Y-82931000D02*
X185330318Y-82931000D01*
X185512801Y-82809069D01*
X185714511Y-82507188D01*
X189897971Y-82507188D01*
X189968012Y-82521120D01*
X190038053Y-82507188D01*
X190038058Y-82507188D01*
X190233358Y-82468341D01*
X190246538Y-82473800D01*
X190721462Y-82473800D01*
X191160233Y-82292055D01*
X191496055Y-81956233D01*
X191677800Y-81517462D01*
X191677800Y-81042538D01*
X191496055Y-80603767D01*
X191160233Y-80267945D01*
X190721462Y-80086200D01*
X190246538Y-80086200D01*
X189807767Y-80267945D01*
X189471945Y-80603767D01*
X189415810Y-80739288D01*
X185447520Y-80739288D01*
X185117916Y-80519054D01*
X184652120Y-80426401D01*
X184348680Y-80486759D01*
X183385669Y-79523749D01*
X183385669Y-78802000D01*
X183360042Y-78673162D01*
X183287061Y-78563939D01*
X183177838Y-78490958D01*
X183049000Y-78465331D01*
X182548300Y-78465331D01*
X182548300Y-78238669D01*
X183049000Y-78238669D01*
X183177838Y-78213042D01*
X183287061Y-78140061D01*
X183360042Y-78030838D01*
X183385669Y-77902000D01*
X183385669Y-76502000D01*
X183360042Y-76373162D01*
X183287061Y-76263939D01*
X183177838Y-76190958D01*
X183049000Y-76165331D01*
X182179587Y-76165331D01*
X182027600Y-76135099D01*
X181875612Y-76165331D01*
X180549000Y-76165331D01*
X180420162Y-76190958D01*
X180310939Y-76263939D01*
X180237958Y-76373162D01*
X180212331Y-76502000D01*
X180212331Y-77902000D01*
X180237958Y-78030838D01*
X180310939Y-78140061D01*
X180420162Y-78213042D01*
X180549000Y-78238669D01*
X181087800Y-78238669D01*
X181087801Y-78465331D01*
X180549000Y-78465331D01*
X180420162Y-78490958D01*
X180310939Y-78563939D01*
X180237958Y-78673162D01*
X180212331Y-78802000D01*
X180212331Y-80202000D01*
X180237958Y-80330838D01*
X180310939Y-80440061D01*
X180420162Y-80513042D01*
X180549000Y-80538669D01*
X182389013Y-80538669D01*
X182615675Y-80765331D01*
X180549000Y-80765331D01*
X180420162Y-80790958D01*
X180310939Y-80863939D01*
X180237958Y-80973162D01*
X180212331Y-81102000D01*
X180212331Y-81293709D01*
X180122833Y-81311511D01*
X179950596Y-81426596D01*
X179921543Y-81470077D01*
X179900991Y-81490629D01*
X179757343Y-81550130D01*
X179594130Y-81713343D01*
X179505800Y-81926591D01*
X179505800Y-82157409D01*
X179594130Y-82370657D01*
X179757343Y-82533870D01*
X179970591Y-82622200D01*
X180201409Y-82622200D01*
X180233589Y-82608871D01*
X180237958Y-82630838D01*
X180310939Y-82740061D01*
X180420162Y-82813042D01*
X180549000Y-82838669D01*
X182379881Y-82838669D01*
X182472212Y-82931000D01*
X175108515Y-82931000D01*
X174833324Y-82655809D01*
X174809238Y-82619762D01*
X174666441Y-82524348D01*
X174540516Y-82499300D01*
X174498000Y-82490843D01*
X174455484Y-82499300D01*
X171385669Y-82499300D01*
X171385669Y-81102000D01*
X171360042Y-80973162D01*
X171287061Y-80863939D01*
X171177838Y-80790958D01*
X171049000Y-80765331D01*
X168822847Y-80765331D01*
X168596185Y-80538669D01*
X171049000Y-80538669D01*
X171177838Y-80513042D01*
X171287061Y-80440061D01*
X171360042Y-80330838D01*
X171385669Y-80202000D01*
X171385669Y-78802000D01*
X171360042Y-78673162D01*
X171287061Y-78563939D01*
X171177838Y-78490958D01*
X171049000Y-78465331D01*
X168549000Y-78465331D01*
X168420162Y-78490958D01*
X168310939Y-78563939D01*
X168275000Y-78617725D01*
X168275000Y-78086275D01*
X168310939Y-78140061D01*
X168420162Y-78213042D01*
X168549000Y-78238669D01*
X171049000Y-78238669D01*
X171177838Y-78213042D01*
X171287061Y-78140061D01*
X171360042Y-78030838D01*
X171385669Y-77902000D01*
X171385669Y-77796200D01*
X171565409Y-77796200D01*
X171778657Y-77707870D01*
X171941870Y-77544657D01*
X172030200Y-77331409D01*
X172030200Y-77100591D01*
X171941870Y-76887343D01*
X171778657Y-76724130D01*
X171565409Y-76635800D01*
X171385669Y-76635800D01*
X171385669Y-76502000D01*
X171360042Y-76373162D01*
X171287061Y-76263939D01*
X171177838Y-76190958D01*
X171049000Y-76165331D01*
X168549000Y-76165331D01*
X168420162Y-76190958D01*
X168310939Y-76263939D01*
X168275000Y-76317725D01*
X168275000Y-73787000D01*
X192913000Y-73787000D01*
X192913000Y-82931000D01*
X192913000Y-82931000D01*
G37*
X192913000Y-82931000D02*
X185330318Y-82931000D01*
X185512801Y-82809069D01*
X185714511Y-82507188D01*
X189897971Y-82507188D01*
X189968012Y-82521120D01*
X190038053Y-82507188D01*
X190038058Y-82507188D01*
X190233358Y-82468341D01*
X190246538Y-82473800D01*
X190721462Y-82473800D01*
X191160233Y-82292055D01*
X191496055Y-81956233D01*
X191677800Y-81517462D01*
X191677800Y-81042538D01*
X191496055Y-80603767D01*
X191160233Y-80267945D01*
X190721462Y-80086200D01*
X190246538Y-80086200D01*
X189807767Y-80267945D01*
X189471945Y-80603767D01*
X189415810Y-80739288D01*
X185447520Y-80739288D01*
X185117916Y-80519054D01*
X184652120Y-80426401D01*
X184348680Y-80486759D01*
X183385669Y-79523749D01*
X183385669Y-78802000D01*
X183360042Y-78673162D01*
X183287061Y-78563939D01*
X183177838Y-78490958D01*
X183049000Y-78465331D01*
X182548300Y-78465331D01*
X182548300Y-78238669D01*
X183049000Y-78238669D01*
X183177838Y-78213042D01*
X183287061Y-78140061D01*
X183360042Y-78030838D01*
X183385669Y-77902000D01*
X183385669Y-76502000D01*
X183360042Y-76373162D01*
X183287061Y-76263939D01*
X183177838Y-76190958D01*
X183049000Y-76165331D01*
X182179587Y-76165331D01*
X182027600Y-76135099D01*
X181875612Y-76165331D01*
X180549000Y-76165331D01*
X180420162Y-76190958D01*
X180310939Y-76263939D01*
X180237958Y-76373162D01*
X180212331Y-76502000D01*
X180212331Y-77902000D01*
X180237958Y-78030838D01*
X180310939Y-78140061D01*
X180420162Y-78213042D01*
X180549000Y-78238669D01*
X181087800Y-78238669D01*
X181087801Y-78465331D01*
X180549000Y-78465331D01*
X180420162Y-78490958D01*
X180310939Y-78563939D01*
X180237958Y-78673162D01*
X180212331Y-78802000D01*
X180212331Y-80202000D01*
X180237958Y-80330838D01*
X180310939Y-80440061D01*
X180420162Y-80513042D01*
X180549000Y-80538669D01*
X182389013Y-80538669D01*
X182615675Y-80765331D01*
X180549000Y-80765331D01*
X180420162Y-80790958D01*
X180310939Y-80863939D01*
X180237958Y-80973162D01*
X180212331Y-81102000D01*
X180212331Y-81293709D01*
X180122833Y-81311511D01*
X179950596Y-81426596D01*
X179921543Y-81470077D01*
X179900991Y-81490629D01*
X179757343Y-81550130D01*
X179594130Y-81713343D01*
X179505800Y-81926591D01*
X179505800Y-82157409D01*
X179594130Y-82370657D01*
X179757343Y-82533870D01*
X179970591Y-82622200D01*
X180201409Y-82622200D01*
X180233589Y-82608871D01*
X180237958Y-82630838D01*
X180310939Y-82740061D01*
X180420162Y-82813042D01*
X180549000Y-82838669D01*
X182379881Y-82838669D01*
X182472212Y-82931000D01*
X175108515Y-82931000D01*
X174833324Y-82655809D01*
X174809238Y-82619762D01*
X174666441Y-82524348D01*
X174540516Y-82499300D01*
X174498000Y-82490843D01*
X174455484Y-82499300D01*
X171385669Y-82499300D01*
X171385669Y-81102000D01*
X171360042Y-80973162D01*
X171287061Y-80863939D01*
X171177838Y-80790958D01*
X171049000Y-80765331D01*
X168822847Y-80765331D01*
X168596185Y-80538669D01*
X171049000Y-80538669D01*
X171177838Y-80513042D01*
X171287061Y-80440061D01*
X171360042Y-80330838D01*
X171385669Y-80202000D01*
X171385669Y-78802000D01*
X171360042Y-78673162D01*
X171287061Y-78563939D01*
X171177838Y-78490958D01*
X171049000Y-78465331D01*
X168549000Y-78465331D01*
X168420162Y-78490958D01*
X168310939Y-78563939D01*
X168275000Y-78617725D01*
X168275000Y-78086275D01*
X168310939Y-78140061D01*
X168420162Y-78213042D01*
X168549000Y-78238669D01*
X171049000Y-78238669D01*
X171177838Y-78213042D01*
X171287061Y-78140061D01*
X171360042Y-78030838D01*
X171385669Y-77902000D01*
X171385669Y-77796200D01*
X171565409Y-77796200D01*
X171778657Y-77707870D01*
X171941870Y-77544657D01*
X172030200Y-77331409D01*
X172030200Y-77100591D01*
X171941870Y-76887343D01*
X171778657Y-76724130D01*
X171565409Y-76635800D01*
X171385669Y-76635800D01*
X171385669Y-76502000D01*
X171360042Y-76373162D01*
X171287061Y-76263939D01*
X171177838Y-76190958D01*
X171049000Y-76165331D01*
X168549000Y-76165331D01*
X168420162Y-76190958D01*
X168310939Y-76263939D01*
X168275000Y-76317725D01*
X168275000Y-73787000D01*
X192913000Y-73787000D01*
X192913000Y-82931000D01*
G04 #@! TO.N,/isolated_atlas2/PH_PGND*
G36*
X192886334Y-98933000D02*
X185818972Y-98933000D01*
X185741401Y-98816907D01*
X185356894Y-98559988D01*
X185741401Y-98303069D01*
X185951121Y-97989200D01*
X189506912Y-97989200D01*
X189807767Y-98290055D01*
X190246538Y-98471800D01*
X190721462Y-98471800D01*
X191160233Y-98290055D01*
X191496055Y-97954233D01*
X191677800Y-97515462D01*
X191677800Y-97040538D01*
X191496055Y-96601767D01*
X191160233Y-96265945D01*
X190721462Y-96084200D01*
X190246538Y-96084200D01*
X189807767Y-96265945D01*
X189506912Y-96566800D01*
X185935101Y-96566800D01*
X185741401Y-96276907D01*
X185346516Y-96013054D01*
X184880720Y-95920401D01*
X184577280Y-95980759D01*
X183614269Y-95017749D01*
X183614269Y-94296000D01*
X183588642Y-94167162D01*
X183515661Y-94057939D01*
X183406438Y-93984958D01*
X183277600Y-93959331D01*
X180777600Y-93959331D01*
X180648762Y-93984958D01*
X180539539Y-94057939D01*
X180466558Y-94167162D01*
X180440931Y-94296000D01*
X180440931Y-95696000D01*
X180466558Y-95824838D01*
X180539539Y-95934061D01*
X180648762Y-96007042D01*
X180777600Y-96032669D01*
X182617613Y-96032669D01*
X182844275Y-96259331D01*
X180777600Y-96259331D01*
X180648762Y-96284958D01*
X180539539Y-96357939D01*
X180466558Y-96467162D01*
X180440931Y-96596000D01*
X180440931Y-97996000D01*
X180466558Y-98124838D01*
X180539539Y-98234061D01*
X180648762Y-98307042D01*
X180777600Y-98332669D01*
X182608481Y-98332669D01*
X182835143Y-98559331D01*
X180777600Y-98559331D01*
X180648762Y-98584958D01*
X180539539Y-98657939D01*
X180466558Y-98767162D01*
X180440931Y-98896000D01*
X180440931Y-98933000D01*
X177900335Y-98933000D01*
X177926663Y-89027000D01*
X192912662Y-89027000D01*
X192886334Y-98933000D01*
X192886334Y-98933000D01*
G37*
X192886334Y-98933000D02*
X185818972Y-98933000D01*
X185741401Y-98816907D01*
X185356894Y-98559988D01*
X185741401Y-98303069D01*
X185951121Y-97989200D01*
X189506912Y-97989200D01*
X189807767Y-98290055D01*
X190246538Y-98471800D01*
X190721462Y-98471800D01*
X191160233Y-98290055D01*
X191496055Y-97954233D01*
X191677800Y-97515462D01*
X191677800Y-97040538D01*
X191496055Y-96601767D01*
X191160233Y-96265945D01*
X190721462Y-96084200D01*
X190246538Y-96084200D01*
X189807767Y-96265945D01*
X189506912Y-96566800D01*
X185935101Y-96566800D01*
X185741401Y-96276907D01*
X185346516Y-96013054D01*
X184880720Y-95920401D01*
X184577280Y-95980759D01*
X183614269Y-95017749D01*
X183614269Y-94296000D01*
X183588642Y-94167162D01*
X183515661Y-94057939D01*
X183406438Y-93984958D01*
X183277600Y-93959331D01*
X180777600Y-93959331D01*
X180648762Y-93984958D01*
X180539539Y-94057939D01*
X180466558Y-94167162D01*
X180440931Y-94296000D01*
X180440931Y-95696000D01*
X180466558Y-95824838D01*
X180539539Y-95934061D01*
X180648762Y-96007042D01*
X180777600Y-96032669D01*
X182617613Y-96032669D01*
X182844275Y-96259331D01*
X180777600Y-96259331D01*
X180648762Y-96284958D01*
X180539539Y-96357939D01*
X180466558Y-96467162D01*
X180440931Y-96596000D01*
X180440931Y-97996000D01*
X180466558Y-98124838D01*
X180539539Y-98234061D01*
X180648762Y-98307042D01*
X180777600Y-98332669D01*
X182608481Y-98332669D01*
X182835143Y-98559331D01*
X180777600Y-98559331D01*
X180648762Y-98584958D01*
X180539539Y-98657939D01*
X180466558Y-98767162D01*
X180440931Y-98896000D01*
X180440931Y-98933000D01*
X177900335Y-98933000D01*
X177926663Y-89027000D01*
X192912662Y-89027000D01*
X192886334Y-98933000D01*
G04 #@! TO.N,/isolated_atlas3/DO_PGND*
G36*
X192913000Y-114935000D02*
X185823729Y-114935000D01*
X185735801Y-114803407D01*
X185351294Y-114546488D01*
X185735801Y-114289569D01*
X185937511Y-113987688D01*
X189499400Y-113987688D01*
X189807767Y-114296055D01*
X190246538Y-114477800D01*
X190721462Y-114477800D01*
X191160233Y-114296055D01*
X191496055Y-113960233D01*
X191677800Y-113521462D01*
X191677800Y-113046538D01*
X191496055Y-112607767D01*
X191160233Y-112271945D01*
X190721462Y-112090200D01*
X190246538Y-112090200D01*
X189807767Y-112271945D01*
X189514424Y-112565288D01*
X185937511Y-112565288D01*
X185735801Y-112263407D01*
X185340916Y-111999554D01*
X184875120Y-111906901D01*
X184571680Y-111967259D01*
X183608669Y-111004249D01*
X183608669Y-110282500D01*
X183583042Y-110153662D01*
X183510061Y-110044439D01*
X183400838Y-109971458D01*
X183272000Y-109945831D01*
X180772000Y-109945831D01*
X180643162Y-109971458D01*
X180533939Y-110044439D01*
X180460958Y-110153662D01*
X180435331Y-110282500D01*
X180435331Y-111682500D01*
X180460958Y-111811338D01*
X180533939Y-111920561D01*
X180643162Y-111993542D01*
X180772000Y-112019169D01*
X182612013Y-112019169D01*
X182838675Y-112245831D01*
X180772000Y-112245831D01*
X180643162Y-112271458D01*
X180533939Y-112344439D01*
X180460958Y-112453662D01*
X180435331Y-112582500D01*
X180435331Y-113982500D01*
X180460958Y-114111338D01*
X180533939Y-114220561D01*
X180643162Y-114293542D01*
X180772000Y-114319169D01*
X182602881Y-114319169D01*
X182829543Y-114545831D01*
X180772000Y-114545831D01*
X180643162Y-114571458D01*
X180533939Y-114644439D01*
X180460958Y-114753662D01*
X180435331Y-114882500D01*
X180435331Y-114935000D01*
X177927000Y-114935000D01*
X177927000Y-105537000D01*
X192913000Y-105537000D01*
X192913000Y-114935000D01*
X192913000Y-114935000D01*
G37*
X192913000Y-114935000D02*
X185823729Y-114935000D01*
X185735801Y-114803407D01*
X185351294Y-114546488D01*
X185735801Y-114289569D01*
X185937511Y-113987688D01*
X189499400Y-113987688D01*
X189807767Y-114296055D01*
X190246538Y-114477800D01*
X190721462Y-114477800D01*
X191160233Y-114296055D01*
X191496055Y-113960233D01*
X191677800Y-113521462D01*
X191677800Y-113046538D01*
X191496055Y-112607767D01*
X191160233Y-112271945D01*
X190721462Y-112090200D01*
X190246538Y-112090200D01*
X189807767Y-112271945D01*
X189514424Y-112565288D01*
X185937511Y-112565288D01*
X185735801Y-112263407D01*
X185340916Y-111999554D01*
X184875120Y-111906901D01*
X184571680Y-111967259D01*
X183608669Y-111004249D01*
X183608669Y-110282500D01*
X183583042Y-110153662D01*
X183510061Y-110044439D01*
X183400838Y-109971458D01*
X183272000Y-109945831D01*
X180772000Y-109945831D01*
X180643162Y-109971458D01*
X180533939Y-110044439D01*
X180460958Y-110153662D01*
X180435331Y-110282500D01*
X180435331Y-111682500D01*
X180460958Y-111811338D01*
X180533939Y-111920561D01*
X180643162Y-111993542D01*
X180772000Y-112019169D01*
X182612013Y-112019169D01*
X182838675Y-112245831D01*
X180772000Y-112245831D01*
X180643162Y-112271458D01*
X180533939Y-112344439D01*
X180460958Y-112453662D01*
X180435331Y-112582500D01*
X180435331Y-113982500D01*
X180460958Y-114111338D01*
X180533939Y-114220561D01*
X180643162Y-114293542D01*
X180772000Y-114319169D01*
X182602881Y-114319169D01*
X182829543Y-114545831D01*
X180772000Y-114545831D01*
X180643162Y-114571458D01*
X180533939Y-114644439D01*
X180460958Y-114753662D01*
X180435331Y-114882500D01*
X180435331Y-114935000D01*
X177927000Y-114935000D01*
X177927000Y-105537000D01*
X192913000Y-105537000D01*
X192913000Y-114935000D01*
G04 #@! TO.N,/isolated_atlas4/ORP_PGND*
G36*
X192913000Y-130937000D02*
X187916697Y-130937000D01*
X187826838Y-130876958D01*
X187698000Y-130851331D01*
X186698000Y-130851331D01*
X186569162Y-130876958D01*
X186479303Y-130937000D01*
X185813372Y-130937000D01*
X185735801Y-130820907D01*
X185351294Y-130563988D01*
X185735801Y-130307069D01*
X185999654Y-129912184D01*
X186019047Y-129814688D01*
X189410830Y-129814688D01*
X189471945Y-129962233D01*
X189807767Y-130298055D01*
X190246538Y-130479800D01*
X190721462Y-130479800D01*
X191160233Y-130298055D01*
X191496055Y-129962233D01*
X191677800Y-129523462D01*
X191677800Y-129048538D01*
X191496055Y-128609767D01*
X191160233Y-128273945D01*
X190721462Y-128092200D01*
X190246538Y-128092200D01*
X189807767Y-128273945D01*
X189471945Y-128609767D01*
X189404212Y-128773288D01*
X186019047Y-128773288D01*
X185999654Y-128675791D01*
X185735801Y-128280907D01*
X185340916Y-128017054D01*
X184875120Y-127924401D01*
X184409323Y-128017054D01*
X184305203Y-128086625D01*
X183608669Y-127390091D01*
X183608669Y-126300000D01*
X183583042Y-126171162D01*
X183510061Y-126061939D01*
X183400838Y-125988958D01*
X183272000Y-125963331D01*
X180772000Y-125963331D01*
X180643162Y-125988958D01*
X180533939Y-126061939D01*
X180460958Y-126171162D01*
X180435331Y-126300000D01*
X180435331Y-127700000D01*
X180460958Y-127828838D01*
X180533939Y-127938061D01*
X180643162Y-128011042D01*
X180772000Y-128036669D01*
X182962091Y-128036669D01*
X183188753Y-128263331D01*
X180772000Y-128263331D01*
X180643162Y-128288958D01*
X180533939Y-128361939D01*
X180460958Y-128471162D01*
X180435331Y-128600000D01*
X180435331Y-130000000D01*
X180460958Y-130128838D01*
X180533939Y-130238061D01*
X180643162Y-130311042D01*
X180772000Y-130336669D01*
X182670881Y-130336669D01*
X182897543Y-130563331D01*
X180772000Y-130563331D01*
X180643162Y-130588958D01*
X180533939Y-130661939D01*
X180460958Y-130771162D01*
X180435331Y-130900000D01*
X180435331Y-130937000D01*
X177927000Y-130937000D01*
X177927000Y-122047000D01*
X192913000Y-122047000D01*
X192913000Y-130937000D01*
X192913000Y-130937000D01*
G37*
X192913000Y-130937000D02*
X187916697Y-130937000D01*
X187826838Y-130876958D01*
X187698000Y-130851331D01*
X186698000Y-130851331D01*
X186569162Y-130876958D01*
X186479303Y-130937000D01*
X185813372Y-130937000D01*
X185735801Y-130820907D01*
X185351294Y-130563988D01*
X185735801Y-130307069D01*
X185999654Y-129912184D01*
X186019047Y-129814688D01*
X189410830Y-129814688D01*
X189471945Y-129962233D01*
X189807767Y-130298055D01*
X190246538Y-130479800D01*
X190721462Y-130479800D01*
X191160233Y-130298055D01*
X191496055Y-129962233D01*
X191677800Y-129523462D01*
X191677800Y-129048538D01*
X191496055Y-128609767D01*
X191160233Y-128273945D01*
X190721462Y-128092200D01*
X190246538Y-128092200D01*
X189807767Y-128273945D01*
X189471945Y-128609767D01*
X189404212Y-128773288D01*
X186019047Y-128773288D01*
X185999654Y-128675791D01*
X185735801Y-128280907D01*
X185340916Y-128017054D01*
X184875120Y-127924401D01*
X184409323Y-128017054D01*
X184305203Y-128086625D01*
X183608669Y-127390091D01*
X183608669Y-126300000D01*
X183583042Y-126171162D01*
X183510061Y-126061939D01*
X183400838Y-125988958D01*
X183272000Y-125963331D01*
X180772000Y-125963331D01*
X180643162Y-125988958D01*
X180533939Y-126061939D01*
X180460958Y-126171162D01*
X180435331Y-126300000D01*
X180435331Y-127700000D01*
X180460958Y-127828838D01*
X180533939Y-127938061D01*
X180643162Y-128011042D01*
X180772000Y-128036669D01*
X182962091Y-128036669D01*
X183188753Y-128263331D01*
X180772000Y-128263331D01*
X180643162Y-128288958D01*
X180533939Y-128361939D01*
X180460958Y-128471162D01*
X180435331Y-128600000D01*
X180435331Y-130000000D01*
X180460958Y-130128838D01*
X180533939Y-130238061D01*
X180643162Y-130311042D01*
X180772000Y-130336669D01*
X182670881Y-130336669D01*
X182897543Y-130563331D01*
X180772000Y-130563331D01*
X180643162Y-130588958D01*
X180533939Y-130661939D01*
X180460958Y-130771162D01*
X180435331Y-130900000D01*
X180435331Y-130937000D01*
X177927000Y-130937000D01*
X177927000Y-122047000D01*
X192913000Y-122047000D01*
X192913000Y-130937000D01*
G04 #@! TO.N,3V3*
G36*
X137795000Y-77343000D02*
X131191000Y-77343000D01*
X131191000Y-72263000D01*
X137795000Y-72263000D01*
X137795000Y-77343000D01*
X137795000Y-77343000D01*
G37*
X137795000Y-77343000D02*
X131191000Y-77343000D01*
X131191000Y-72263000D01*
X137795000Y-72263000D01*
X137795000Y-77343000D01*
G04 #@! TO.N,GND*
G36*
X137541000Y-70231000D02*
X135128000Y-70231000D01*
X135079399Y-70240667D01*
X135038197Y-70268197D01*
X135010667Y-70309399D01*
X135001000Y-70358000D01*
X135001000Y-71755000D01*
X133731000Y-71755000D01*
X133731000Y-66554925D01*
X133737162Y-66559042D01*
X133866000Y-66584669D01*
X134866000Y-66584669D01*
X134994838Y-66559042D01*
X135104061Y-66486061D01*
X135177042Y-66376838D01*
X135202669Y-66248000D01*
X135202669Y-65148000D01*
X135177042Y-65019162D01*
X135104061Y-64909939D01*
X134994838Y-64836958D01*
X134866000Y-64811331D01*
X134470378Y-64811331D01*
X134568061Y-64746061D01*
X134641042Y-64636838D01*
X134666669Y-64508000D01*
X134666669Y-63627000D01*
X137541000Y-63627000D01*
X137541000Y-70231000D01*
X137541000Y-70231000D01*
G37*
X137541000Y-70231000D02*
X135128000Y-70231000D01*
X135079399Y-70240667D01*
X135038197Y-70268197D01*
X135010667Y-70309399D01*
X135001000Y-70358000D01*
X135001000Y-71755000D01*
X133731000Y-71755000D01*
X133731000Y-66554925D01*
X133737162Y-66559042D01*
X133866000Y-66584669D01*
X134866000Y-66584669D01*
X134994838Y-66559042D01*
X135104061Y-66486061D01*
X135177042Y-66376838D01*
X135202669Y-66248000D01*
X135202669Y-65148000D01*
X135177042Y-65019162D01*
X135104061Y-64909939D01*
X134994838Y-64836958D01*
X134866000Y-64811331D01*
X134470378Y-64811331D01*
X134568061Y-64746061D01*
X134641042Y-64636838D01*
X134666669Y-64508000D01*
X134666669Y-63627000D01*
X137541000Y-63627000D01*
X137541000Y-70231000D01*
G04 #@! TO.N,VBUS*
G36*
X141859000Y-71755000D02*
X135509000Y-71755000D01*
X135509000Y-70739000D01*
X137922000Y-70739000D01*
X137970601Y-70729333D01*
X138011803Y-70701803D01*
X138039333Y-70660601D01*
X138049000Y-70612000D01*
X138049000Y-63246000D01*
X138039333Y-63197399D01*
X138011803Y-63156197D01*
X137970601Y-63128667D01*
X137922000Y-63119000D01*
X135255000Y-63119000D01*
X135255000Y-62172000D01*
X135265331Y-62172000D01*
X135265331Y-62572000D01*
X135290958Y-62700838D01*
X135363939Y-62810061D01*
X135473162Y-62883042D01*
X135602000Y-62908669D01*
X136102000Y-62908669D01*
X136230838Y-62883042D01*
X136340061Y-62810061D01*
X136413042Y-62700838D01*
X136438669Y-62572000D01*
X136438669Y-62172000D01*
X136413042Y-62043162D01*
X136340061Y-61933939D01*
X136230838Y-61860958D01*
X136102000Y-61835331D01*
X135602000Y-61835331D01*
X135473162Y-61860958D01*
X135363939Y-61933939D01*
X135290958Y-62043162D01*
X135265331Y-62172000D01*
X135255000Y-62172000D01*
X135255000Y-61695700D01*
X135913430Y-61695700D01*
X136095356Y-61659513D01*
X136200887Y-61589000D01*
X136230838Y-61583042D01*
X136340061Y-61510061D01*
X136413042Y-61400838D01*
X136426032Y-61335532D01*
X136439513Y-61315356D01*
X136487919Y-61072000D01*
X136439513Y-60828644D01*
X136426032Y-60808468D01*
X136413042Y-60743162D01*
X136340061Y-60633939D01*
X136230838Y-60560958D01*
X136200887Y-60555000D01*
X136095356Y-60484487D01*
X135913430Y-60448300D01*
X135255000Y-60448300D01*
X135255000Y-57809200D01*
X141859000Y-57809200D01*
X141859000Y-71755000D01*
X141859000Y-71755000D01*
G37*
X141859000Y-71755000D02*
X135509000Y-71755000D01*
X135509000Y-70739000D01*
X137922000Y-70739000D01*
X137970601Y-70729333D01*
X138011803Y-70701803D01*
X138039333Y-70660601D01*
X138049000Y-70612000D01*
X138049000Y-63246000D01*
X138039333Y-63197399D01*
X138011803Y-63156197D01*
X137970601Y-63128667D01*
X137922000Y-63119000D01*
X135255000Y-63119000D01*
X135255000Y-62172000D01*
X135265331Y-62172000D01*
X135265331Y-62572000D01*
X135290958Y-62700838D01*
X135363939Y-62810061D01*
X135473162Y-62883042D01*
X135602000Y-62908669D01*
X136102000Y-62908669D01*
X136230838Y-62883042D01*
X136340061Y-62810061D01*
X136413042Y-62700838D01*
X136438669Y-62572000D01*
X136438669Y-62172000D01*
X136413042Y-62043162D01*
X136340061Y-61933939D01*
X136230838Y-61860958D01*
X136102000Y-61835331D01*
X135602000Y-61835331D01*
X135473162Y-61860958D01*
X135363939Y-61933939D01*
X135290958Y-62043162D01*
X135265331Y-62172000D01*
X135255000Y-62172000D01*
X135255000Y-61695700D01*
X135913430Y-61695700D01*
X136095356Y-61659513D01*
X136200887Y-61589000D01*
X136230838Y-61583042D01*
X136340061Y-61510061D01*
X136413042Y-61400838D01*
X136426032Y-61335532D01*
X136439513Y-61315356D01*
X136487919Y-61072000D01*
X136439513Y-60828644D01*
X136426032Y-60808468D01*
X136413042Y-60743162D01*
X136340061Y-60633939D01*
X136230838Y-60560958D01*
X136200887Y-60555000D01*
X136095356Y-60484487D01*
X135913430Y-60448300D01*
X135255000Y-60448300D01*
X135255000Y-57809200D01*
X141859000Y-57809200D01*
X141859000Y-71755000D01*
G04 #@! TO.N,/isolated_atlas0/EC_PGND*
G36*
X186418559Y-57825416D02*
X185968416Y-58275559D01*
X185724800Y-58863700D01*
X185724800Y-59500300D01*
X185968416Y-60088441D01*
X186418559Y-60538584D01*
X187006700Y-60782200D01*
X187643300Y-60782200D01*
X188231441Y-60538584D01*
X188681584Y-60088441D01*
X188925200Y-59500300D01*
X188925200Y-58863700D01*
X188681584Y-58275559D01*
X188231441Y-57825416D01*
X188192292Y-57809200D01*
X192913000Y-57809200D01*
X192913000Y-66929000D01*
X185847035Y-66929000D01*
X185741401Y-66770907D01*
X185356894Y-66513988D01*
X185741401Y-66257069D01*
X185943111Y-65955188D01*
X189409400Y-65955188D01*
X189744267Y-66290055D01*
X190183038Y-66471800D01*
X190657962Y-66471800D01*
X191096733Y-66290055D01*
X191432555Y-65954233D01*
X191614300Y-65515462D01*
X191614300Y-65040538D01*
X191432555Y-64601767D01*
X191096733Y-64265945D01*
X190657962Y-64084200D01*
X190183038Y-64084200D01*
X189744267Y-64265945D01*
X189477424Y-64532788D01*
X185943111Y-64532788D01*
X185741401Y-64230907D01*
X185346516Y-63967054D01*
X184880720Y-63874401D01*
X184577280Y-63934759D01*
X183614269Y-62971749D01*
X183614269Y-62250000D01*
X183588642Y-62121162D01*
X183515661Y-62011939D01*
X183406438Y-61938958D01*
X183277600Y-61913331D01*
X180777600Y-61913331D01*
X180648762Y-61938958D01*
X180539539Y-62011939D01*
X180466558Y-62121162D01*
X180440931Y-62250000D01*
X180440931Y-63650000D01*
X180466558Y-63778838D01*
X180539539Y-63888061D01*
X180648762Y-63961042D01*
X180777600Y-63986669D01*
X182617613Y-63986669D01*
X182844275Y-64213331D01*
X180777600Y-64213331D01*
X180648762Y-64238958D01*
X180539539Y-64311939D01*
X180466558Y-64421162D01*
X180440931Y-64550000D01*
X180440931Y-65950000D01*
X180466558Y-66078838D01*
X180539539Y-66188061D01*
X180648762Y-66261042D01*
X180777600Y-66286669D01*
X182608481Y-66286669D01*
X182835143Y-66513331D01*
X180777600Y-66513331D01*
X180648762Y-66538958D01*
X180539539Y-66611939D01*
X180466558Y-66721162D01*
X180440931Y-66850000D01*
X180440931Y-66929000D01*
X177927000Y-66929000D01*
X177927000Y-57809200D01*
X186457708Y-57809200D01*
X186418559Y-57825416D01*
X186418559Y-57825416D01*
G37*
X186418559Y-57825416D02*
X185968416Y-58275559D01*
X185724800Y-58863700D01*
X185724800Y-59500300D01*
X185968416Y-60088441D01*
X186418559Y-60538584D01*
X187006700Y-60782200D01*
X187643300Y-60782200D01*
X188231441Y-60538584D01*
X188681584Y-60088441D01*
X188925200Y-59500300D01*
X188925200Y-58863700D01*
X188681584Y-58275559D01*
X188231441Y-57825416D01*
X188192292Y-57809200D01*
X192913000Y-57809200D01*
X192913000Y-66929000D01*
X185847035Y-66929000D01*
X185741401Y-66770907D01*
X185356894Y-66513988D01*
X185741401Y-66257069D01*
X185943111Y-65955188D01*
X189409400Y-65955188D01*
X189744267Y-66290055D01*
X190183038Y-66471800D01*
X190657962Y-66471800D01*
X191096733Y-66290055D01*
X191432555Y-65954233D01*
X191614300Y-65515462D01*
X191614300Y-65040538D01*
X191432555Y-64601767D01*
X191096733Y-64265945D01*
X190657962Y-64084200D01*
X190183038Y-64084200D01*
X189744267Y-64265945D01*
X189477424Y-64532788D01*
X185943111Y-64532788D01*
X185741401Y-64230907D01*
X185346516Y-63967054D01*
X184880720Y-63874401D01*
X184577280Y-63934759D01*
X183614269Y-62971749D01*
X183614269Y-62250000D01*
X183588642Y-62121162D01*
X183515661Y-62011939D01*
X183406438Y-61938958D01*
X183277600Y-61913331D01*
X180777600Y-61913331D01*
X180648762Y-61938958D01*
X180539539Y-62011939D01*
X180466558Y-62121162D01*
X180440931Y-62250000D01*
X180440931Y-63650000D01*
X180466558Y-63778838D01*
X180539539Y-63888061D01*
X180648762Y-63961042D01*
X180777600Y-63986669D01*
X182617613Y-63986669D01*
X182844275Y-64213331D01*
X180777600Y-64213331D01*
X180648762Y-64238958D01*
X180539539Y-64311939D01*
X180466558Y-64421162D01*
X180440931Y-64550000D01*
X180440931Y-65950000D01*
X180466558Y-66078838D01*
X180539539Y-66188061D01*
X180648762Y-66261042D01*
X180777600Y-66286669D01*
X182608481Y-66286669D01*
X182835143Y-66513331D01*
X180777600Y-66513331D01*
X180648762Y-66538958D01*
X180539539Y-66611939D01*
X180466558Y-66721162D01*
X180440931Y-66850000D01*
X180440931Y-66929000D01*
X177927000Y-66929000D01*
X177927000Y-57809200D01*
X186457708Y-57809200D01*
X186418559Y-57825416D01*
G04 #@! TO.N,3V3*
G36*
X134493000Y-120269000D02*
X120523000Y-120269000D01*
X120523000Y-119253000D01*
X134493000Y-119253000D01*
X134493000Y-120269000D01*
X134493000Y-120269000D01*
G37*
X134493000Y-120269000D02*
X120523000Y-120269000D01*
X120523000Y-119253000D01*
X134493000Y-119253000D01*
X134493000Y-120269000D01*
G04 #@! TO.N,GND*
G36*
X121115000Y-117730669D02*
X122815000Y-117730669D01*
X122823391Y-117729000D01*
X130361680Y-117729000D01*
X130366300Y-117729919D01*
X130370920Y-117729000D01*
X134493000Y-117729000D01*
X134493000Y-118745000D01*
X120523000Y-118745000D01*
X120523000Y-117729000D01*
X121106609Y-117729000D01*
X121115000Y-117730669D01*
X121115000Y-117730669D01*
G37*
X121115000Y-117730669D02*
X122815000Y-117730669D01*
X122823391Y-117729000D01*
X130361680Y-117729000D01*
X130366300Y-117729919D01*
X130370920Y-117729000D01*
X134493000Y-117729000D01*
X134493000Y-118745000D01*
X120523000Y-118745000D01*
X120523000Y-117729000D01*
X121106609Y-117729000D01*
X121115000Y-117730669D01*
G04 #@! TD*
M02*
