G04 #@! TF.GenerationSoftware,KiCad,Pcbnew,(5.0.0)*
G04 #@! TF.CreationDate,2018-12-31T13:47:14-06:00*
G04 #@! TF.ProjectId,fk-atlas,666B2D61746C61732E6B696361645F70,rev?*
G04 #@! TF.SameCoordinates,Original*
G04 #@! TF.FileFunction,Soldermask,Bot*
G04 #@! TF.FilePolarity,Negative*
%FSLAX46Y46*%
G04 Gerber Fmt 4.6, Leading zero omitted, Abs format (unit mm)*
G04 Created by KiCad (PCBNEW (5.0.0)) date 12/31/18 13:47:14*
%MOMM*%
%LPD*%
G01*
G04 APERTURE LIST*
%ADD10C,0.100000*%
G04 APERTURE END LIST*
D10*
G36*
X187724614Y-134572648D02*
X187973937Y-134675921D01*
X188198327Y-134825853D01*
X188389147Y-135016673D01*
X188539079Y-135241063D01*
X188642352Y-135490386D01*
X188695000Y-135755065D01*
X188695000Y-136024935D01*
X188642352Y-136289614D01*
X188539079Y-136538937D01*
X188389147Y-136763327D01*
X188198327Y-136954147D01*
X187973937Y-137104079D01*
X187724614Y-137207352D01*
X187459935Y-137260000D01*
X187190065Y-137260000D01*
X186925386Y-137207352D01*
X186676063Y-137104079D01*
X186451673Y-136954147D01*
X186260853Y-136763327D01*
X186110921Y-136538937D01*
X186007648Y-136289614D01*
X185955000Y-136024935D01*
X185955000Y-135755065D01*
X186007648Y-135490386D01*
X186110921Y-135241063D01*
X186260853Y-135016673D01*
X186451673Y-134825853D01*
X186676063Y-134675921D01*
X186925386Y-134572648D01*
X187190065Y-134520000D01*
X187459935Y-134520000D01*
X187724614Y-134572648D01*
X187724614Y-134572648D01*
G37*
G36*
X117874614Y-134572648D02*
X118123937Y-134675921D01*
X118348327Y-134825853D01*
X118539147Y-135016673D01*
X118689079Y-135241063D01*
X118792352Y-135490386D01*
X118845000Y-135755065D01*
X118845000Y-136024935D01*
X118792352Y-136289614D01*
X118689079Y-136538937D01*
X118539147Y-136763327D01*
X118348327Y-136954147D01*
X118123937Y-137104079D01*
X117874614Y-137207352D01*
X117609935Y-137260000D01*
X117340065Y-137260000D01*
X117075386Y-137207352D01*
X116826063Y-137104079D01*
X116601673Y-136954147D01*
X116410853Y-136763327D01*
X116260921Y-136538937D01*
X116157648Y-136289614D01*
X116105000Y-136024935D01*
X116105000Y-135755065D01*
X116157648Y-135490386D01*
X116260921Y-135241063D01*
X116410853Y-135016673D01*
X116601673Y-134825853D01*
X116826063Y-134675921D01*
X117075386Y-134572648D01*
X117340065Y-134520000D01*
X117609935Y-134520000D01*
X117874614Y-134572648D01*
X117874614Y-134572648D01*
G37*
G36*
X197184026Y-133212115D02*
X197402412Y-133302573D01*
X197598958Y-133433901D01*
X197766099Y-133601042D01*
X197897427Y-133797588D01*
X197987885Y-134015974D01*
X198034000Y-134247809D01*
X198034000Y-134484191D01*
X197987885Y-134716026D01*
X197897427Y-134934412D01*
X197766099Y-135130958D01*
X197598958Y-135298099D01*
X197402412Y-135429427D01*
X197184026Y-135519885D01*
X196952191Y-135566000D01*
X196715809Y-135566000D01*
X196483974Y-135519885D01*
X196265588Y-135429427D01*
X196069042Y-135298099D01*
X195901901Y-135130958D01*
X195770573Y-134934412D01*
X195680115Y-134716026D01*
X195634000Y-134484191D01*
X195634000Y-134247809D01*
X195680115Y-134015974D01*
X195770573Y-133797588D01*
X195901901Y-133601042D01*
X196069042Y-133433901D01*
X196265588Y-133302573D01*
X196483974Y-133212115D01*
X196715809Y-133166000D01*
X196952191Y-133166000D01*
X197184026Y-133212115D01*
X197184026Y-133212115D01*
G37*
G36*
X167284019Y-130731930D02*
X167465657Y-130787030D01*
X167633058Y-130876507D01*
X167779785Y-130996923D01*
X167900199Y-131143648D01*
X167989678Y-131311052D01*
X168044778Y-131492688D01*
X168058720Y-131634250D01*
X168058720Y-132033725D01*
X168044778Y-132175287D01*
X167989678Y-132356925D01*
X167900201Y-132524326D01*
X167779785Y-132671053D01*
X167633060Y-132791467D01*
X167465656Y-132880946D01*
X167284020Y-132936046D01*
X167095120Y-132954650D01*
X166906221Y-132936046D01*
X166724585Y-132880946D01*
X166557181Y-132791467D01*
X166410456Y-132671053D01*
X166290041Y-132524327D01*
X166200562Y-132356924D01*
X166145462Y-132175288D01*
X166131520Y-132033726D01*
X166131520Y-131634251D01*
X166145462Y-131492689D01*
X166200562Y-131311051D01*
X166290039Y-131143650D01*
X166410455Y-130996923D01*
X166557180Y-130876509D01*
X166724584Y-130787030D01*
X166906220Y-130731930D01*
X167095120Y-130713326D01*
X167284019Y-130731930D01*
X167284019Y-130731930D01*
G37*
G36*
X185064019Y-130731930D02*
X185245657Y-130787030D01*
X185413058Y-130876507D01*
X185559785Y-130996923D01*
X185680199Y-131143648D01*
X185769678Y-131311052D01*
X185824778Y-131492688D01*
X185838720Y-131634250D01*
X185838720Y-132033725D01*
X185824778Y-132175287D01*
X185769678Y-132356925D01*
X185680201Y-132524326D01*
X185559785Y-132671053D01*
X185413060Y-132791467D01*
X185245656Y-132880946D01*
X185064020Y-132936046D01*
X184875120Y-132954650D01*
X184686221Y-132936046D01*
X184504585Y-132880946D01*
X184337181Y-132791467D01*
X184190456Y-132671053D01*
X184070041Y-132524327D01*
X183980562Y-132356924D01*
X183925462Y-132175288D01*
X183911520Y-132033726D01*
X183911520Y-131634251D01*
X183925462Y-131492689D01*
X183980562Y-131311051D01*
X184070039Y-131143650D01*
X184190455Y-130996923D01*
X184337180Y-130876509D01*
X184504584Y-130787030D01*
X184686220Y-130731930D01*
X184875120Y-130713326D01*
X185064019Y-130731930D01*
X185064019Y-130731930D01*
G37*
G36*
X185064019Y-128191930D02*
X185245657Y-128247030D01*
X185413058Y-128336507D01*
X185559785Y-128456923D01*
X185680199Y-128603648D01*
X185769678Y-128771052D01*
X185824778Y-128952688D01*
X185838720Y-129094250D01*
X185838720Y-129493725D01*
X185824778Y-129635287D01*
X185769678Y-129816925D01*
X185680201Y-129984326D01*
X185559785Y-130131053D01*
X185413060Y-130251467D01*
X185245656Y-130340946D01*
X185064020Y-130396046D01*
X184875120Y-130414650D01*
X184686221Y-130396046D01*
X184504585Y-130340946D01*
X184337181Y-130251467D01*
X184190456Y-130131053D01*
X184070041Y-129984327D01*
X184025106Y-129900259D01*
X183980563Y-129816926D01*
X183980562Y-129816924D01*
X183925462Y-129635288D01*
X183911520Y-129493726D01*
X183911520Y-129094251D01*
X183925462Y-128952689D01*
X183980562Y-128771051D01*
X184070039Y-128603650D01*
X184190455Y-128456923D01*
X184337180Y-128336509D01*
X184504584Y-128247030D01*
X184686220Y-128191930D01*
X184875120Y-128173326D01*
X185064019Y-128191930D01*
X185064019Y-128191930D01*
G37*
G36*
X167284019Y-128191930D02*
X167465657Y-128247030D01*
X167633058Y-128336507D01*
X167779785Y-128456923D01*
X167900199Y-128603648D01*
X167989678Y-128771052D01*
X168044778Y-128952688D01*
X168058720Y-129094250D01*
X168058720Y-129493725D01*
X168044778Y-129635287D01*
X167989678Y-129816925D01*
X167900201Y-129984326D01*
X167779785Y-130131053D01*
X167633060Y-130251467D01*
X167465656Y-130340946D01*
X167284020Y-130396046D01*
X167095120Y-130414650D01*
X166906221Y-130396046D01*
X166724585Y-130340946D01*
X166557181Y-130251467D01*
X166410456Y-130131053D01*
X166290041Y-129984327D01*
X166245106Y-129900259D01*
X166200563Y-129816926D01*
X166200562Y-129816924D01*
X166145462Y-129635288D01*
X166131520Y-129493726D01*
X166131520Y-129094251D01*
X166145462Y-128952689D01*
X166200562Y-128771051D01*
X166290039Y-128603650D01*
X166410455Y-128456923D01*
X166557180Y-128336509D01*
X166724584Y-128247030D01*
X166906220Y-128191930D01*
X167095120Y-128173326D01*
X167284019Y-128191930D01*
X167284019Y-128191930D01*
G37*
G36*
X190765072Y-128359431D02*
X190940435Y-128432068D01*
X191098262Y-128537525D01*
X191232475Y-128671738D01*
X191337932Y-128829565D01*
X191410569Y-129004928D01*
X191447600Y-129191094D01*
X191447600Y-129380906D01*
X191410569Y-129567072D01*
X191337932Y-129742435D01*
X191232475Y-129900262D01*
X191098262Y-130034475D01*
X190940435Y-130139932D01*
X190765072Y-130212569D01*
X190578906Y-130249600D01*
X190389094Y-130249600D01*
X190202928Y-130212569D01*
X190027565Y-130139932D01*
X189869738Y-130034475D01*
X189735525Y-129900262D01*
X189630068Y-129742435D01*
X189557431Y-129567072D01*
X189520400Y-129380906D01*
X189520400Y-129191094D01*
X189557431Y-129004928D01*
X189630068Y-128829565D01*
X189735525Y-128671738D01*
X189869738Y-128537525D01*
X190027565Y-128432068D01*
X190202928Y-128359431D01*
X190389094Y-128322400D01*
X190578906Y-128322400D01*
X190765072Y-128359431D01*
X190765072Y-128359431D01*
G37*
G36*
X185064019Y-125651930D02*
X185245657Y-125707030D01*
X185413058Y-125796507D01*
X185559785Y-125916923D01*
X185680199Y-126063648D01*
X185769678Y-126231052D01*
X185824778Y-126412688D01*
X185838720Y-126554250D01*
X185838720Y-126953725D01*
X185824778Y-127095287D01*
X185769678Y-127276925D01*
X185680201Y-127444326D01*
X185559785Y-127591053D01*
X185413060Y-127711467D01*
X185245656Y-127800946D01*
X185064020Y-127856046D01*
X184875120Y-127874650D01*
X184686221Y-127856046D01*
X184504585Y-127800946D01*
X184337181Y-127711467D01*
X184190456Y-127591053D01*
X184070041Y-127444327D01*
X184025106Y-127360259D01*
X183980563Y-127276926D01*
X183980562Y-127276924D01*
X183925462Y-127095288D01*
X183911520Y-126953726D01*
X183911520Y-126554251D01*
X183925462Y-126412689D01*
X183980562Y-126231051D01*
X184070039Y-126063650D01*
X184190455Y-125916923D01*
X184337180Y-125796509D01*
X184504584Y-125707030D01*
X184686220Y-125651930D01*
X184875120Y-125633326D01*
X185064019Y-125651930D01*
X185064019Y-125651930D01*
G37*
G36*
X167284019Y-125651930D02*
X167465657Y-125707030D01*
X167633058Y-125796507D01*
X167779785Y-125916923D01*
X167900199Y-126063648D01*
X167989678Y-126231052D01*
X168044778Y-126412688D01*
X168058720Y-126554250D01*
X168058720Y-126953725D01*
X168044778Y-127095287D01*
X167989678Y-127276925D01*
X167900201Y-127444326D01*
X167779785Y-127591053D01*
X167633060Y-127711467D01*
X167465656Y-127800946D01*
X167284020Y-127856046D01*
X167095120Y-127874650D01*
X166906221Y-127856046D01*
X166724585Y-127800946D01*
X166557181Y-127711467D01*
X166410456Y-127591053D01*
X166290041Y-127444327D01*
X166245106Y-127360259D01*
X166200563Y-127276926D01*
X166200562Y-127276924D01*
X166145462Y-127095288D01*
X166131520Y-126953726D01*
X166131520Y-126554251D01*
X166145462Y-126412689D01*
X166200562Y-126231051D01*
X166290039Y-126063650D01*
X166410455Y-125916923D01*
X166557180Y-125796509D01*
X166724584Y-125707030D01*
X166906220Y-125651930D01*
X167095120Y-125633326D01*
X167284019Y-125651930D01*
X167284019Y-125651930D01*
G37*
G36*
X190765072Y-125819431D02*
X190940435Y-125892068D01*
X191098262Y-125997525D01*
X191232475Y-126131738D01*
X191337932Y-126289565D01*
X191410569Y-126464928D01*
X191447600Y-126651094D01*
X191447600Y-126840906D01*
X191410569Y-127027072D01*
X191337932Y-127202435D01*
X191232475Y-127360262D01*
X191098262Y-127494475D01*
X190940435Y-127599932D01*
X190765072Y-127672569D01*
X190578906Y-127709600D01*
X190389094Y-127709600D01*
X190202928Y-127672569D01*
X190027565Y-127599932D01*
X189869738Y-127494475D01*
X189735525Y-127360262D01*
X189630068Y-127202435D01*
X189557431Y-127027072D01*
X189520400Y-126840906D01*
X189520400Y-126651094D01*
X189557431Y-126464928D01*
X189630068Y-126289565D01*
X189735525Y-126131738D01*
X189869738Y-125997525D01*
X190027565Y-125892068D01*
X190202928Y-125819431D01*
X190389094Y-125782400D01*
X190578906Y-125782400D01*
X190765072Y-125819431D01*
X190765072Y-125819431D01*
G37*
G36*
X197184026Y-123052115D02*
X197402412Y-123142573D01*
X197598958Y-123273901D01*
X197766099Y-123441042D01*
X197897427Y-123637588D01*
X197987885Y-123855974D01*
X198034000Y-124087809D01*
X198034000Y-124324191D01*
X197987885Y-124556026D01*
X197897427Y-124774412D01*
X197766099Y-124970958D01*
X197598958Y-125138099D01*
X197402412Y-125269427D01*
X197184026Y-125359885D01*
X196952191Y-125406000D01*
X196715809Y-125406000D01*
X196483974Y-125359885D01*
X196265588Y-125269427D01*
X196069042Y-125138099D01*
X195901901Y-124970958D01*
X195770573Y-124774412D01*
X195680115Y-124556026D01*
X195634000Y-124324191D01*
X195634000Y-124087809D01*
X195680115Y-123855974D01*
X195770573Y-123637588D01*
X195901901Y-123441042D01*
X196069042Y-123273901D01*
X196265588Y-123142573D01*
X196483974Y-123052115D01*
X196715809Y-123006000D01*
X196952191Y-123006000D01*
X197184026Y-123052115D01*
X197184026Y-123052115D01*
G37*
G36*
X197184026Y-117210115D02*
X197402412Y-117300573D01*
X197598958Y-117431901D01*
X197766099Y-117599042D01*
X197897427Y-117795588D01*
X197987885Y-118013974D01*
X198034000Y-118245809D01*
X198034000Y-118482191D01*
X197987885Y-118714026D01*
X197897427Y-118932412D01*
X197766099Y-119128958D01*
X197598958Y-119296099D01*
X197402412Y-119427427D01*
X197184026Y-119517885D01*
X196952191Y-119564000D01*
X196715809Y-119564000D01*
X196483974Y-119517885D01*
X196265588Y-119427427D01*
X196069042Y-119296099D01*
X195901901Y-119128958D01*
X195770573Y-118932412D01*
X195680115Y-118714026D01*
X195634000Y-118482191D01*
X195634000Y-118245809D01*
X195680115Y-118013974D01*
X195770573Y-117795588D01*
X195901901Y-117599042D01*
X196069042Y-117431901D01*
X196265588Y-117300573D01*
X196483974Y-117210115D01*
X196715809Y-117164000D01*
X196952191Y-117164000D01*
X197184026Y-117210115D01*
X197184026Y-117210115D01*
G37*
G36*
X143178200Y-118375100D02*
X140285800Y-118375100D01*
X140285800Y-116574900D01*
X143178200Y-116574900D01*
X143178200Y-118375100D01*
X143178200Y-118375100D01*
G37*
G36*
X139495200Y-118375100D02*
X136602800Y-118375100D01*
X136602800Y-116574900D01*
X139495200Y-116574900D01*
X139495200Y-118375100D01*
X139495200Y-118375100D01*
G37*
G36*
X167284019Y-114714430D02*
X167465657Y-114769530D01*
X167633058Y-114859007D01*
X167779785Y-114979423D01*
X167900199Y-115126148D01*
X167989678Y-115293552D01*
X168044778Y-115475188D01*
X168058720Y-115616750D01*
X168058720Y-116016225D01*
X168044778Y-116157787D01*
X167989678Y-116339425D01*
X167900201Y-116506826D01*
X167779785Y-116653553D01*
X167633060Y-116773967D01*
X167465656Y-116863446D01*
X167284020Y-116918546D01*
X167095120Y-116937150D01*
X166906221Y-116918546D01*
X166724585Y-116863446D01*
X166557181Y-116773967D01*
X166410456Y-116653553D01*
X166290041Y-116506827D01*
X166200562Y-116339424D01*
X166145462Y-116157788D01*
X166131520Y-116016226D01*
X166131520Y-115616751D01*
X166145462Y-115475189D01*
X166200562Y-115293551D01*
X166290039Y-115126150D01*
X166410455Y-114979423D01*
X166557180Y-114859009D01*
X166724584Y-114769530D01*
X166906220Y-114714430D01*
X167095120Y-114695826D01*
X167284019Y-114714430D01*
X167284019Y-114714430D01*
G37*
G36*
X185064019Y-114714430D02*
X185245657Y-114769530D01*
X185413058Y-114859007D01*
X185559785Y-114979423D01*
X185680199Y-115126148D01*
X185769678Y-115293552D01*
X185824778Y-115475188D01*
X185838720Y-115616750D01*
X185838720Y-116016225D01*
X185824778Y-116157787D01*
X185769678Y-116339425D01*
X185680201Y-116506826D01*
X185559785Y-116653553D01*
X185413060Y-116773967D01*
X185245656Y-116863446D01*
X185064020Y-116918546D01*
X184875120Y-116937150D01*
X184686221Y-116918546D01*
X184504585Y-116863446D01*
X184337181Y-116773967D01*
X184190456Y-116653553D01*
X184070041Y-116506827D01*
X183980562Y-116339424D01*
X183925462Y-116157788D01*
X183911520Y-116016226D01*
X183911520Y-115616751D01*
X183925462Y-115475189D01*
X183980562Y-115293551D01*
X184070039Y-115126150D01*
X184190455Y-114979423D01*
X184337180Y-114859009D01*
X184504584Y-114769530D01*
X184686220Y-114714430D01*
X184875120Y-114695826D01*
X185064019Y-114714430D01*
X185064019Y-114714430D01*
G37*
G36*
X185064019Y-112174430D02*
X185245657Y-112229530D01*
X185413058Y-112319007D01*
X185559785Y-112439423D01*
X185680199Y-112586148D01*
X185769678Y-112753552D01*
X185824778Y-112935188D01*
X185838720Y-113076750D01*
X185838720Y-113476225D01*
X185824778Y-113617787D01*
X185769678Y-113799425D01*
X185680201Y-113966826D01*
X185559785Y-114113553D01*
X185413060Y-114233967D01*
X185245656Y-114323446D01*
X185064020Y-114378546D01*
X184875120Y-114397150D01*
X184686221Y-114378546D01*
X184504585Y-114323446D01*
X184337181Y-114233967D01*
X184190456Y-114113553D01*
X184070041Y-113966827D01*
X184033391Y-113898259D01*
X183980563Y-113799426D01*
X183962668Y-113740436D01*
X183925462Y-113617788D01*
X183911520Y-113476226D01*
X183911520Y-113076751D01*
X183925462Y-112935189D01*
X183980562Y-112753551D01*
X184070039Y-112586150D01*
X184190455Y-112439423D01*
X184337180Y-112319009D01*
X184504584Y-112229530D01*
X184686220Y-112174430D01*
X184875120Y-112155826D01*
X185064019Y-112174430D01*
X185064019Y-112174430D01*
G37*
G36*
X167284019Y-112174430D02*
X167465657Y-112229530D01*
X167633058Y-112319007D01*
X167779785Y-112439423D01*
X167900199Y-112586148D01*
X167989678Y-112753552D01*
X168044778Y-112935188D01*
X168058720Y-113076750D01*
X168058720Y-113476225D01*
X168044778Y-113617787D01*
X167989678Y-113799425D01*
X167900201Y-113966826D01*
X167779785Y-114113553D01*
X167633060Y-114233967D01*
X167465656Y-114323446D01*
X167284020Y-114378546D01*
X167095120Y-114397150D01*
X166906221Y-114378546D01*
X166724585Y-114323446D01*
X166557181Y-114233967D01*
X166410456Y-114113553D01*
X166290041Y-113966827D01*
X166253391Y-113898259D01*
X166200563Y-113799426D01*
X166182668Y-113740436D01*
X166145462Y-113617788D01*
X166131520Y-113476226D01*
X166131520Y-113076751D01*
X166145462Y-112935189D01*
X166200562Y-112753551D01*
X166290039Y-112586150D01*
X166410455Y-112439423D01*
X166557180Y-112319009D01*
X166724584Y-112229530D01*
X166906220Y-112174430D01*
X167095120Y-112155826D01*
X167284019Y-112174430D01*
X167284019Y-112174430D01*
G37*
G36*
X190765072Y-112357431D02*
X190940435Y-112430068D01*
X191098262Y-112535525D01*
X191232475Y-112669738D01*
X191337932Y-112827565D01*
X191410569Y-113002928D01*
X191447600Y-113189094D01*
X191447600Y-113378906D01*
X191410569Y-113565072D01*
X191337932Y-113740435D01*
X191232475Y-113898262D01*
X191098262Y-114032475D01*
X190940435Y-114137932D01*
X190765072Y-114210569D01*
X190578906Y-114247600D01*
X190389094Y-114247600D01*
X190202928Y-114210569D01*
X190027565Y-114137932D01*
X189869738Y-114032475D01*
X189735525Y-113898262D01*
X189630068Y-113740435D01*
X189557431Y-113565072D01*
X189520400Y-113378906D01*
X189520400Y-113189094D01*
X189557431Y-113002928D01*
X189630068Y-112827565D01*
X189735525Y-112669738D01*
X189869738Y-112535525D01*
X190027565Y-112430068D01*
X190202928Y-112357431D01*
X190389094Y-112320400D01*
X190578906Y-112320400D01*
X190765072Y-112357431D01*
X190765072Y-112357431D01*
G37*
G36*
X167284019Y-109634430D02*
X167465657Y-109689530D01*
X167633058Y-109779007D01*
X167779785Y-109899423D01*
X167900199Y-110046148D01*
X167989678Y-110213552D01*
X168044778Y-110395188D01*
X168058720Y-110536750D01*
X168058720Y-110936225D01*
X168044778Y-111077787D01*
X167989678Y-111259425D01*
X167900201Y-111426826D01*
X167779785Y-111573553D01*
X167633060Y-111693967D01*
X167465656Y-111783446D01*
X167284020Y-111838546D01*
X167095120Y-111857150D01*
X166906221Y-111838546D01*
X166724585Y-111783446D01*
X166557181Y-111693967D01*
X166410456Y-111573553D01*
X166290041Y-111426827D01*
X166253391Y-111358259D01*
X166200563Y-111259426D01*
X166182668Y-111200436D01*
X166145462Y-111077788D01*
X166131520Y-110936226D01*
X166131520Y-110536751D01*
X166145462Y-110395189D01*
X166200562Y-110213551D01*
X166290039Y-110046150D01*
X166410455Y-109899423D01*
X166557180Y-109779009D01*
X166724584Y-109689530D01*
X166906220Y-109634430D01*
X167095120Y-109615826D01*
X167284019Y-109634430D01*
X167284019Y-109634430D01*
G37*
G36*
X185064019Y-109634430D02*
X185245657Y-109689530D01*
X185413058Y-109779007D01*
X185559785Y-109899423D01*
X185680199Y-110046148D01*
X185769678Y-110213552D01*
X185824778Y-110395188D01*
X185838720Y-110536750D01*
X185838720Y-110936225D01*
X185824778Y-111077787D01*
X185769678Y-111259425D01*
X185680201Y-111426826D01*
X185559785Y-111573553D01*
X185413060Y-111693967D01*
X185245656Y-111783446D01*
X185064020Y-111838546D01*
X184875120Y-111857150D01*
X184686221Y-111838546D01*
X184504585Y-111783446D01*
X184337181Y-111693967D01*
X184190456Y-111573553D01*
X184070041Y-111426827D01*
X184033391Y-111358259D01*
X183980563Y-111259426D01*
X183962668Y-111200436D01*
X183925462Y-111077788D01*
X183911520Y-110936226D01*
X183911520Y-110536751D01*
X183925462Y-110395189D01*
X183980562Y-110213551D01*
X184070039Y-110046150D01*
X184190455Y-109899423D01*
X184337180Y-109779009D01*
X184504584Y-109689530D01*
X184686220Y-109634430D01*
X184875120Y-109615826D01*
X185064019Y-109634430D01*
X185064019Y-109634430D01*
G37*
G36*
X190765072Y-109817431D02*
X190940435Y-109890068D01*
X191098262Y-109995525D01*
X191232475Y-110129738D01*
X191337932Y-110287565D01*
X191410569Y-110462928D01*
X191447600Y-110649094D01*
X191447600Y-110838906D01*
X191410569Y-111025072D01*
X191337932Y-111200435D01*
X191232475Y-111358262D01*
X191098262Y-111492475D01*
X190940435Y-111597932D01*
X190765072Y-111670569D01*
X190578906Y-111707600D01*
X190389094Y-111707600D01*
X190202928Y-111670569D01*
X190027565Y-111597932D01*
X189869738Y-111492475D01*
X189735525Y-111358262D01*
X189630068Y-111200435D01*
X189557431Y-111025072D01*
X189520400Y-110838906D01*
X189520400Y-110649094D01*
X189557431Y-110462928D01*
X189630068Y-110287565D01*
X189735525Y-110129738D01*
X189869738Y-109995525D01*
X190027565Y-109890068D01*
X190202928Y-109817431D01*
X190389094Y-109780400D01*
X190578906Y-109780400D01*
X190765072Y-109817431D01*
X190765072Y-109817431D01*
G37*
G36*
X197184026Y-107050115D02*
X197402412Y-107140573D01*
X197598958Y-107271901D01*
X197766099Y-107439042D01*
X197897427Y-107635588D01*
X197987885Y-107853974D01*
X198034000Y-108085809D01*
X198034000Y-108322191D01*
X197987885Y-108554026D01*
X197897427Y-108772412D01*
X197766099Y-108968958D01*
X197598958Y-109136099D01*
X197402412Y-109267427D01*
X197184026Y-109357885D01*
X196952191Y-109404000D01*
X196715809Y-109404000D01*
X196483974Y-109357885D01*
X196265588Y-109267427D01*
X196069042Y-109136099D01*
X195901901Y-108968958D01*
X195770573Y-108772412D01*
X195680115Y-108554026D01*
X195634000Y-108322191D01*
X195634000Y-108085809D01*
X195680115Y-107853974D01*
X195770573Y-107635588D01*
X195901901Y-107439042D01*
X196069042Y-107271901D01*
X196265588Y-107140573D01*
X196483974Y-107050115D01*
X196715809Y-107004000D01*
X196952191Y-107004000D01*
X197184026Y-107050115D01*
X197184026Y-107050115D01*
G37*
G36*
X197184026Y-101204115D02*
X197402412Y-101294573D01*
X197598958Y-101425901D01*
X197766099Y-101593042D01*
X197897427Y-101789588D01*
X197987885Y-102007974D01*
X198034000Y-102239809D01*
X198034000Y-102476191D01*
X197987885Y-102708026D01*
X197897427Y-102926412D01*
X197766099Y-103122958D01*
X197598958Y-103290099D01*
X197402412Y-103421427D01*
X197184026Y-103511885D01*
X196952191Y-103558000D01*
X196715809Y-103558000D01*
X196483974Y-103511885D01*
X196265588Y-103421427D01*
X196069042Y-103290099D01*
X195901901Y-103122958D01*
X195770573Y-102926412D01*
X195680115Y-102708026D01*
X195634000Y-102476191D01*
X195634000Y-102239809D01*
X195680115Y-102007974D01*
X195770573Y-101789588D01*
X195901901Y-101593042D01*
X196069042Y-101425901D01*
X196265588Y-101294573D01*
X196483974Y-101204115D01*
X196715809Y-101158000D01*
X196952191Y-101158000D01*
X197184026Y-101204115D01*
X197184026Y-101204115D01*
G37*
G36*
X185069619Y-98727930D02*
X185251257Y-98783030D01*
X185418658Y-98872507D01*
X185565385Y-98992923D01*
X185685799Y-99139648D01*
X185775278Y-99307052D01*
X185830378Y-99488688D01*
X185844320Y-99630250D01*
X185844320Y-100029725D01*
X185830378Y-100171287D01*
X185775278Y-100352925D01*
X185685801Y-100520326D01*
X185565385Y-100667053D01*
X185418660Y-100787467D01*
X185251256Y-100876946D01*
X185069620Y-100932046D01*
X184880720Y-100950650D01*
X184691821Y-100932046D01*
X184510185Y-100876946D01*
X184342781Y-100787467D01*
X184196056Y-100667053D01*
X184075641Y-100520327D01*
X183986162Y-100352924D01*
X183931062Y-100171288D01*
X183917120Y-100029726D01*
X183917120Y-99630251D01*
X183931062Y-99488689D01*
X183986162Y-99307051D01*
X184075639Y-99139650D01*
X184196055Y-98992923D01*
X184342780Y-98872509D01*
X184510184Y-98783030D01*
X184691820Y-98727930D01*
X184880720Y-98709326D01*
X185069619Y-98727930D01*
X185069619Y-98727930D01*
G37*
G36*
X167289619Y-98727930D02*
X167471257Y-98783030D01*
X167638658Y-98872507D01*
X167785385Y-98992923D01*
X167905799Y-99139648D01*
X167995278Y-99307052D01*
X168050378Y-99488688D01*
X168064320Y-99630250D01*
X168064320Y-100029725D01*
X168050378Y-100171287D01*
X167995278Y-100352925D01*
X167905801Y-100520326D01*
X167785385Y-100667053D01*
X167638660Y-100787467D01*
X167471256Y-100876946D01*
X167289620Y-100932046D01*
X167100720Y-100950650D01*
X166911821Y-100932046D01*
X166730185Y-100876946D01*
X166562781Y-100787467D01*
X166416056Y-100667053D01*
X166295641Y-100520327D01*
X166206162Y-100352924D01*
X166151062Y-100171288D01*
X166137120Y-100029726D01*
X166137120Y-99630251D01*
X166151062Y-99488689D01*
X166206162Y-99307051D01*
X166295639Y-99139650D01*
X166416055Y-98992923D01*
X166562780Y-98872509D01*
X166730184Y-98783030D01*
X166911820Y-98727930D01*
X167100720Y-98709326D01*
X167289619Y-98727930D01*
X167289619Y-98727930D01*
G37*
G36*
X167289619Y-96187930D02*
X167471257Y-96243030D01*
X167638658Y-96332507D01*
X167785385Y-96452923D01*
X167905799Y-96599648D01*
X167995278Y-96767052D01*
X168050378Y-96948688D01*
X168064320Y-97090250D01*
X168064320Y-97489725D01*
X168050378Y-97631287D01*
X167995278Y-97812925D01*
X167905801Y-97980326D01*
X167785385Y-98127053D01*
X167638660Y-98247467D01*
X167471256Y-98336946D01*
X167289620Y-98392046D01*
X167100720Y-98410650D01*
X166911821Y-98392046D01*
X166730185Y-98336946D01*
X166562781Y-98247467D01*
X166416056Y-98127053D01*
X166295641Y-97980327D01*
X166248568Y-97892259D01*
X166206163Y-97812926D01*
X166206162Y-97812924D01*
X166151062Y-97631288D01*
X166137120Y-97489726D01*
X166137120Y-97090251D01*
X166151062Y-96948689D01*
X166206162Y-96767051D01*
X166295639Y-96599650D01*
X166416055Y-96452923D01*
X166562780Y-96332509D01*
X166730184Y-96243030D01*
X166911820Y-96187930D01*
X167100720Y-96169326D01*
X167289619Y-96187930D01*
X167289619Y-96187930D01*
G37*
G36*
X185069619Y-96187930D02*
X185251257Y-96243030D01*
X185418658Y-96332507D01*
X185565385Y-96452923D01*
X185685799Y-96599648D01*
X185775278Y-96767052D01*
X185830378Y-96948688D01*
X185844320Y-97090250D01*
X185844320Y-97489725D01*
X185830378Y-97631287D01*
X185775278Y-97812925D01*
X185685801Y-97980326D01*
X185565385Y-98127053D01*
X185418660Y-98247467D01*
X185251256Y-98336946D01*
X185069620Y-98392046D01*
X184880720Y-98410650D01*
X184691821Y-98392046D01*
X184510185Y-98336946D01*
X184342781Y-98247467D01*
X184196056Y-98127053D01*
X184075641Y-97980327D01*
X184028568Y-97892259D01*
X183986163Y-97812926D01*
X183986162Y-97812924D01*
X183931062Y-97631288D01*
X183917120Y-97489726D01*
X183917120Y-97090251D01*
X183931062Y-96948689D01*
X183986162Y-96767051D01*
X184075639Y-96599650D01*
X184196055Y-96452923D01*
X184342780Y-96332509D01*
X184510184Y-96243030D01*
X184691820Y-96187930D01*
X184880720Y-96169326D01*
X185069619Y-96187930D01*
X185069619Y-96187930D01*
G37*
G36*
X190765072Y-96351431D02*
X190940435Y-96424068D01*
X191098262Y-96529525D01*
X191232475Y-96663738D01*
X191337932Y-96821565D01*
X191410569Y-96996928D01*
X191447600Y-97183094D01*
X191447600Y-97372906D01*
X191410569Y-97559072D01*
X191337932Y-97734435D01*
X191232475Y-97892262D01*
X191098262Y-98026475D01*
X190940435Y-98131932D01*
X190765072Y-98204569D01*
X190578906Y-98241600D01*
X190389094Y-98241600D01*
X190202928Y-98204569D01*
X190027565Y-98131932D01*
X189869738Y-98026475D01*
X189735525Y-97892262D01*
X189630068Y-97734435D01*
X189557431Y-97559072D01*
X189520400Y-97372906D01*
X189520400Y-97183094D01*
X189557431Y-96996928D01*
X189630068Y-96821565D01*
X189735525Y-96663738D01*
X189869738Y-96529525D01*
X190027565Y-96424068D01*
X190202928Y-96351431D01*
X190389094Y-96314400D01*
X190578906Y-96314400D01*
X190765072Y-96351431D01*
X190765072Y-96351431D01*
G37*
G36*
X185069619Y-93647930D02*
X185251257Y-93703030D01*
X185418658Y-93792507D01*
X185565385Y-93912923D01*
X185685799Y-94059648D01*
X185775278Y-94227052D01*
X185830378Y-94408688D01*
X185844320Y-94550250D01*
X185844320Y-94949725D01*
X185830378Y-95091287D01*
X185775278Y-95272925D01*
X185685801Y-95440326D01*
X185565385Y-95587053D01*
X185418660Y-95707467D01*
X185251256Y-95796946D01*
X185069620Y-95852046D01*
X184880720Y-95870650D01*
X184691821Y-95852046D01*
X184510185Y-95796946D01*
X184342781Y-95707467D01*
X184196056Y-95587053D01*
X184075641Y-95440327D01*
X184028568Y-95352259D01*
X183986163Y-95272926D01*
X183986162Y-95272924D01*
X183931062Y-95091288D01*
X183917120Y-94949726D01*
X183917120Y-94550251D01*
X183931062Y-94408689D01*
X183986162Y-94227051D01*
X184075639Y-94059650D01*
X184196055Y-93912923D01*
X184342780Y-93792509D01*
X184510184Y-93703030D01*
X184691820Y-93647930D01*
X184880720Y-93629326D01*
X185069619Y-93647930D01*
X185069619Y-93647930D01*
G37*
G36*
X167289619Y-93647930D02*
X167471257Y-93703030D01*
X167638658Y-93792507D01*
X167785385Y-93912923D01*
X167905799Y-94059648D01*
X167995278Y-94227052D01*
X168050378Y-94408688D01*
X168064320Y-94550250D01*
X168064320Y-94949725D01*
X168050378Y-95091287D01*
X167995278Y-95272925D01*
X167905801Y-95440326D01*
X167785385Y-95587053D01*
X167638660Y-95707467D01*
X167471256Y-95796946D01*
X167289620Y-95852046D01*
X167100720Y-95870650D01*
X166911821Y-95852046D01*
X166730185Y-95796946D01*
X166562781Y-95707467D01*
X166416056Y-95587053D01*
X166295641Y-95440327D01*
X166248568Y-95352259D01*
X166206163Y-95272926D01*
X166206162Y-95272924D01*
X166151062Y-95091288D01*
X166137120Y-94949726D01*
X166137120Y-94550251D01*
X166151062Y-94408689D01*
X166206162Y-94227051D01*
X166295639Y-94059650D01*
X166416055Y-93912923D01*
X166562780Y-93792509D01*
X166730184Y-93703030D01*
X166911820Y-93647930D01*
X167100720Y-93629326D01*
X167289619Y-93647930D01*
X167289619Y-93647930D01*
G37*
G36*
X190765072Y-93811431D02*
X190940435Y-93884068D01*
X191098262Y-93989525D01*
X191232475Y-94123738D01*
X191337932Y-94281565D01*
X191410569Y-94456928D01*
X191447600Y-94643094D01*
X191447600Y-94832906D01*
X191410569Y-95019072D01*
X191337932Y-95194435D01*
X191232475Y-95352262D01*
X191098262Y-95486475D01*
X190940435Y-95591932D01*
X190765072Y-95664569D01*
X190578906Y-95701600D01*
X190389094Y-95701600D01*
X190202928Y-95664569D01*
X190027565Y-95591932D01*
X189869738Y-95486475D01*
X189735525Y-95352262D01*
X189630068Y-95194435D01*
X189557431Y-95019072D01*
X189520400Y-94832906D01*
X189520400Y-94643094D01*
X189557431Y-94456928D01*
X189630068Y-94281565D01*
X189735525Y-94123738D01*
X189869738Y-93989525D01*
X190027565Y-93884068D01*
X190202928Y-93811431D01*
X190389094Y-93774400D01*
X190578906Y-93774400D01*
X190765072Y-93811431D01*
X190765072Y-93811431D01*
G37*
G36*
X197184026Y-91044115D02*
X197402412Y-91134573D01*
X197598958Y-91265901D01*
X197766099Y-91433042D01*
X197897427Y-91629588D01*
X197987885Y-91847974D01*
X198034000Y-92079809D01*
X198034000Y-92316191D01*
X197987885Y-92548026D01*
X197897427Y-92766412D01*
X197766099Y-92962958D01*
X197598958Y-93130099D01*
X197402412Y-93261427D01*
X197184026Y-93351885D01*
X196952191Y-93398000D01*
X196715809Y-93398000D01*
X196483974Y-93351885D01*
X196265588Y-93261427D01*
X196069042Y-93130099D01*
X195901901Y-92962958D01*
X195770573Y-92766412D01*
X195680115Y-92548026D01*
X195634000Y-92316191D01*
X195634000Y-92079809D01*
X195680115Y-91847974D01*
X195770573Y-91629588D01*
X195901901Y-91433042D01*
X196069042Y-91265901D01*
X196265588Y-91134573D01*
X196483974Y-91044115D01*
X196715809Y-90998000D01*
X196952191Y-90998000D01*
X197184026Y-91044115D01*
X197184026Y-91044115D01*
G37*
G36*
X197184026Y-85206115D02*
X197402412Y-85296573D01*
X197598958Y-85427901D01*
X197766099Y-85595042D01*
X197897427Y-85791588D01*
X197987885Y-86009974D01*
X198034000Y-86241809D01*
X198034000Y-86478191D01*
X197987885Y-86710026D01*
X197897427Y-86928412D01*
X197766099Y-87124958D01*
X197598958Y-87292099D01*
X197402412Y-87423427D01*
X197184026Y-87513885D01*
X196952191Y-87560000D01*
X196715809Y-87560000D01*
X196483974Y-87513885D01*
X196265588Y-87423427D01*
X196069042Y-87292099D01*
X195901901Y-87124958D01*
X195770573Y-86928412D01*
X195680115Y-86710026D01*
X195634000Y-86478191D01*
X195634000Y-86241809D01*
X195680115Y-86009974D01*
X195770573Y-85791588D01*
X195901901Y-85595042D01*
X196069042Y-85427901D01*
X196265588Y-85296573D01*
X196483974Y-85206115D01*
X196715809Y-85160000D01*
X196952191Y-85160000D01*
X197184026Y-85206115D01*
X197184026Y-85206115D01*
G37*
G36*
X167061019Y-83233930D02*
X167242657Y-83289030D01*
X167410058Y-83378507D01*
X167556785Y-83498923D01*
X167677199Y-83645648D01*
X167766678Y-83813052D01*
X167821778Y-83994688D01*
X167835720Y-84136250D01*
X167835720Y-84535725D01*
X167821778Y-84677287D01*
X167766678Y-84858925D01*
X167677201Y-85026326D01*
X167556785Y-85173053D01*
X167410060Y-85293467D01*
X167242656Y-85382946D01*
X167061020Y-85438046D01*
X166872120Y-85456650D01*
X166683221Y-85438046D01*
X166501585Y-85382946D01*
X166334181Y-85293467D01*
X166187456Y-85173053D01*
X166067041Y-85026327D01*
X165977562Y-84858924D01*
X165922462Y-84677288D01*
X165908520Y-84535726D01*
X165908520Y-84136251D01*
X165922462Y-83994689D01*
X165977562Y-83813051D01*
X166067039Y-83645650D01*
X166187455Y-83498923D01*
X166334180Y-83378509D01*
X166501584Y-83289030D01*
X166683220Y-83233930D01*
X166872120Y-83215326D01*
X167061019Y-83233930D01*
X167061019Y-83233930D01*
G37*
G36*
X184841019Y-83233930D02*
X185022657Y-83289030D01*
X185190058Y-83378507D01*
X185336785Y-83498923D01*
X185457199Y-83645648D01*
X185546678Y-83813052D01*
X185601778Y-83994688D01*
X185615720Y-84136250D01*
X185615720Y-84535725D01*
X185601778Y-84677287D01*
X185546678Y-84858925D01*
X185457201Y-85026326D01*
X185336785Y-85173053D01*
X185190060Y-85293467D01*
X185022656Y-85382946D01*
X184841020Y-85438046D01*
X184652120Y-85456650D01*
X184463221Y-85438046D01*
X184281585Y-85382946D01*
X184114181Y-85293467D01*
X183967456Y-85173053D01*
X183847041Y-85026327D01*
X183757562Y-84858924D01*
X183702462Y-84677288D01*
X183688520Y-84535726D01*
X183688520Y-84136251D01*
X183702462Y-83994689D01*
X183757562Y-83813051D01*
X183847039Y-83645650D01*
X183967455Y-83498923D01*
X184114180Y-83378509D01*
X184281584Y-83289030D01*
X184463220Y-83233930D01*
X184652120Y-83215326D01*
X184841019Y-83233930D01*
X184841019Y-83233930D01*
G37*
G36*
X167061019Y-80693930D02*
X167242657Y-80749030D01*
X167410058Y-80838507D01*
X167556785Y-80958923D01*
X167677199Y-81105648D01*
X167766678Y-81273052D01*
X167821778Y-81454688D01*
X167835720Y-81596250D01*
X167835720Y-81995725D01*
X167821778Y-82137287D01*
X167766678Y-82318925D01*
X167677201Y-82486326D01*
X167556785Y-82633053D01*
X167410060Y-82753467D01*
X167242656Y-82842946D01*
X167061020Y-82898046D01*
X166872120Y-82916650D01*
X166683221Y-82898046D01*
X166501585Y-82842946D01*
X166334181Y-82753467D01*
X166187456Y-82633053D01*
X166067041Y-82486327D01*
X165977562Y-82318924D01*
X165922462Y-82137288D01*
X165908520Y-81995726D01*
X165908520Y-81596251D01*
X165922462Y-81454689D01*
X165977562Y-81273051D01*
X166067039Y-81105650D01*
X166187455Y-80958923D01*
X166334180Y-80838509D01*
X166501584Y-80749030D01*
X166683220Y-80693930D01*
X166872120Y-80675326D01*
X167061019Y-80693930D01*
X167061019Y-80693930D01*
G37*
G36*
X184841019Y-80693930D02*
X185022657Y-80749030D01*
X185190058Y-80838507D01*
X185336785Y-80958923D01*
X185457199Y-81105648D01*
X185546678Y-81273052D01*
X185601778Y-81454688D01*
X185615720Y-81596250D01*
X185615720Y-81995725D01*
X185601778Y-82137287D01*
X185546678Y-82318925D01*
X185457201Y-82486326D01*
X185336785Y-82633053D01*
X185190060Y-82753467D01*
X185022656Y-82842946D01*
X184841020Y-82898046D01*
X184652120Y-82916650D01*
X184463221Y-82898046D01*
X184281585Y-82842946D01*
X184114181Y-82753467D01*
X183967456Y-82633053D01*
X183847041Y-82486327D01*
X183757562Y-82318924D01*
X183702462Y-82137288D01*
X183688520Y-81995726D01*
X183688520Y-81596251D01*
X183702462Y-81454689D01*
X183757562Y-81273051D01*
X183847039Y-81105650D01*
X183967455Y-80958923D01*
X184114180Y-80838509D01*
X184281584Y-80749030D01*
X184463220Y-80693930D01*
X184652120Y-80675326D01*
X184841019Y-80693930D01*
X184841019Y-80693930D01*
G37*
G36*
X190765072Y-80353431D02*
X190940435Y-80426068D01*
X191098262Y-80531525D01*
X191232475Y-80665738D01*
X191337932Y-80823565D01*
X191410569Y-80998928D01*
X191447600Y-81185094D01*
X191447600Y-81374906D01*
X191410569Y-81561072D01*
X191337932Y-81736435D01*
X191232475Y-81894262D01*
X191098262Y-82028475D01*
X190940435Y-82133932D01*
X190765072Y-82206569D01*
X190578906Y-82243600D01*
X190389094Y-82243600D01*
X190202928Y-82206569D01*
X190027565Y-82133932D01*
X189869738Y-82028475D01*
X189735525Y-81894262D01*
X189630068Y-81736435D01*
X189557431Y-81561072D01*
X189520400Y-81374906D01*
X189520400Y-81185094D01*
X189557431Y-80998928D01*
X189630068Y-80823565D01*
X189735525Y-80665738D01*
X189869738Y-80531525D01*
X190027565Y-80426068D01*
X190202928Y-80353431D01*
X190389094Y-80316400D01*
X190578906Y-80316400D01*
X190765072Y-80353431D01*
X190765072Y-80353431D01*
G37*
G36*
X184841019Y-78153930D02*
X185022657Y-78209030D01*
X185190058Y-78298507D01*
X185336785Y-78418923D01*
X185457199Y-78565648D01*
X185546678Y-78733052D01*
X185601778Y-78914688D01*
X185615720Y-79056250D01*
X185615720Y-79455725D01*
X185601778Y-79597287D01*
X185546678Y-79778925D01*
X185457201Y-79946326D01*
X185336785Y-80093053D01*
X185190060Y-80213467D01*
X185022656Y-80302946D01*
X184841020Y-80358046D01*
X184652120Y-80376650D01*
X184463221Y-80358046D01*
X184281585Y-80302946D01*
X184114181Y-80213467D01*
X183967456Y-80093053D01*
X183847041Y-79946327D01*
X183757562Y-79778924D01*
X183702462Y-79597288D01*
X183688520Y-79455726D01*
X183688520Y-79056251D01*
X183702462Y-78914689D01*
X183757562Y-78733051D01*
X183847039Y-78565650D01*
X183967455Y-78418923D01*
X184114180Y-78298509D01*
X184281584Y-78209030D01*
X184463220Y-78153930D01*
X184652120Y-78135326D01*
X184841019Y-78153930D01*
X184841019Y-78153930D01*
G37*
G36*
X167061019Y-78153930D02*
X167242657Y-78209030D01*
X167410058Y-78298507D01*
X167556785Y-78418923D01*
X167677199Y-78565648D01*
X167766678Y-78733052D01*
X167821778Y-78914688D01*
X167835720Y-79056250D01*
X167835720Y-79455725D01*
X167821778Y-79597287D01*
X167766678Y-79778925D01*
X167677201Y-79946326D01*
X167556785Y-80093053D01*
X167410060Y-80213467D01*
X167242656Y-80302946D01*
X167061020Y-80358046D01*
X166872120Y-80376650D01*
X166683221Y-80358046D01*
X166501585Y-80302946D01*
X166334181Y-80213467D01*
X166187456Y-80093053D01*
X166067041Y-79946327D01*
X165977562Y-79778924D01*
X165922462Y-79597288D01*
X165908520Y-79455726D01*
X165908520Y-79056251D01*
X165922462Y-78914689D01*
X165977562Y-78733051D01*
X166067039Y-78565650D01*
X166187455Y-78418923D01*
X166334180Y-78298509D01*
X166501584Y-78209030D01*
X166683220Y-78153930D01*
X166872120Y-78135326D01*
X167061019Y-78153930D01*
X167061019Y-78153930D01*
G37*
G36*
X190765072Y-77813431D02*
X190940435Y-77886068D01*
X191098262Y-77991525D01*
X191232475Y-78125738D01*
X191337932Y-78283565D01*
X191410569Y-78458928D01*
X191447600Y-78645094D01*
X191447600Y-78834906D01*
X191410569Y-79021072D01*
X191337932Y-79196435D01*
X191232475Y-79354262D01*
X191098262Y-79488475D01*
X190940435Y-79593932D01*
X190765072Y-79666569D01*
X190578906Y-79703600D01*
X190389094Y-79703600D01*
X190202928Y-79666569D01*
X190027565Y-79593932D01*
X189869738Y-79488475D01*
X189735525Y-79354262D01*
X189630068Y-79196435D01*
X189557431Y-79021072D01*
X189520400Y-78834906D01*
X189520400Y-78645094D01*
X189557431Y-78458928D01*
X189630068Y-78283565D01*
X189735525Y-78125738D01*
X189869738Y-77991525D01*
X190027565Y-77886068D01*
X190202928Y-77813431D01*
X190389094Y-77776400D01*
X190578906Y-77776400D01*
X190765072Y-77813431D01*
X190765072Y-77813431D01*
G37*
G36*
X197184026Y-75046115D02*
X197402412Y-75136573D01*
X197598958Y-75267901D01*
X197766099Y-75435042D01*
X197897427Y-75631588D01*
X197987885Y-75849974D01*
X198034000Y-76081809D01*
X198034000Y-76318191D01*
X197987885Y-76550026D01*
X197897427Y-76768412D01*
X197766099Y-76964958D01*
X197598958Y-77132099D01*
X197402412Y-77263427D01*
X197184026Y-77353885D01*
X196952191Y-77400000D01*
X196715809Y-77400000D01*
X196483974Y-77353885D01*
X196265588Y-77263427D01*
X196069042Y-77132099D01*
X195901901Y-76964958D01*
X195770573Y-76768412D01*
X195680115Y-76550026D01*
X195634000Y-76318191D01*
X195634000Y-76081809D01*
X195680115Y-75849974D01*
X195770573Y-75631588D01*
X195901901Y-75435042D01*
X196069042Y-75267901D01*
X196265588Y-75136573D01*
X196483974Y-75046115D01*
X196715809Y-75000000D01*
X196952191Y-75000000D01*
X197184026Y-75046115D01*
X197184026Y-75046115D01*
G37*
G36*
X117964931Y-63421522D02*
X118134576Y-63472984D01*
X118290936Y-63556559D01*
X118427975Y-63669025D01*
X118516874Y-63777348D01*
X118534201Y-63794675D01*
X118554576Y-63808289D01*
X118577215Y-63817667D01*
X118601248Y-63822447D01*
X118625752Y-63822447D01*
X118649786Y-63817667D01*
X118672425Y-63808289D01*
X118692799Y-63794675D01*
X118710126Y-63777348D01*
X118723740Y-63756973D01*
X118733118Y-63734334D01*
X118738500Y-63698049D01*
X118738500Y-63534000D01*
X120338500Y-63534000D01*
X120338500Y-64091788D01*
X120340902Y-64116174D01*
X120348015Y-64139623D01*
X120359566Y-64161234D01*
X120375112Y-64180176D01*
X120394054Y-64195722D01*
X120415665Y-64207273D01*
X120439114Y-64214386D01*
X120463500Y-64216788D01*
X120487886Y-64214386D01*
X120511335Y-64207273D01*
X120532946Y-64195722D01*
X120551888Y-64180176D01*
X120567434Y-64161234D01*
X120573727Y-64150735D01*
X120610931Y-64081132D01*
X120692158Y-63982157D01*
X120791133Y-63900930D01*
X120904053Y-63840573D01*
X120965316Y-63821989D01*
X121026578Y-63803405D01*
X121038003Y-63802280D01*
X121154000Y-63790855D01*
X121269998Y-63802280D01*
X121281423Y-63803405D01*
X121342685Y-63821989D01*
X121403948Y-63840573D01*
X121516868Y-63900930D01*
X121615843Y-63982157D01*
X121697070Y-64081132D01*
X121757427Y-64194052D01*
X121763595Y-64214386D01*
X121793935Y-64314400D01*
X121794595Y-64316578D01*
X121804000Y-64412068D01*
X121804000Y-65175932D01*
X121794595Y-65271422D01*
X121757427Y-65393948D01*
X121697070Y-65506868D01*
X121615843Y-65605843D01*
X121516867Y-65687070D01*
X121516865Y-65687071D01*
X121516864Y-65687072D01*
X121468777Y-65712775D01*
X121403947Y-65747427D01*
X121342684Y-65766011D01*
X121281422Y-65784595D01*
X121281403Y-65784597D01*
X121281344Y-65784603D01*
X121257313Y-65789382D01*
X121234674Y-65798760D01*
X121214300Y-65812374D01*
X121196973Y-65829701D01*
X121183359Y-65850075D01*
X121173981Y-65872714D01*
X121169201Y-65896748D01*
X121169201Y-65921252D01*
X121173981Y-65945286D01*
X121183359Y-65967925D01*
X121196973Y-65988299D01*
X121214300Y-66005626D01*
X121233500Y-66018456D01*
X121233500Y-69296162D01*
X121235902Y-69320548D01*
X121243015Y-69343997D01*
X121254566Y-69365608D01*
X121270112Y-69384550D01*
X121289054Y-69400096D01*
X121322212Y-69415779D01*
X121403948Y-69440573D01*
X121516868Y-69500930D01*
X121615843Y-69582157D01*
X121697070Y-69681132D01*
X121757427Y-69794052D01*
X121757427Y-69794053D01*
X121786346Y-69889383D01*
X121794595Y-69916578D01*
X121804000Y-70012068D01*
X121804000Y-70775932D01*
X121794595Y-70871422D01*
X121757427Y-70993948D01*
X121697070Y-71106868D01*
X121615843Y-71205843D01*
X121516867Y-71287070D01*
X121516865Y-71287071D01*
X121516864Y-71287072D01*
X121468777Y-71312775D01*
X121403947Y-71347427D01*
X121342684Y-71366011D01*
X121281422Y-71384595D01*
X121269997Y-71385720D01*
X121154000Y-71397145D01*
X121038002Y-71385720D01*
X121026577Y-71384595D01*
X120965315Y-71366011D01*
X120904052Y-71347427D01*
X120791132Y-71287070D01*
X120692157Y-71205843D01*
X120610930Y-71106867D01*
X120573736Y-71037282D01*
X120560127Y-71016913D01*
X120542800Y-70999586D01*
X120522425Y-70985972D01*
X120499786Y-70976595D01*
X120475753Y-70971814D01*
X120451248Y-70971814D01*
X120427215Y-70976594D01*
X120404576Y-70985972D01*
X120384201Y-70999585D01*
X120366874Y-71016912D01*
X120353260Y-71037287D01*
X120343883Y-71059926D01*
X120339102Y-71083959D01*
X120338500Y-71096212D01*
X120338500Y-71734000D01*
X118738500Y-71734000D01*
X118738500Y-71569951D01*
X118736098Y-71545565D01*
X118728985Y-71522116D01*
X118717434Y-71500505D01*
X118701888Y-71481563D01*
X118682946Y-71466017D01*
X118661335Y-71454466D01*
X118637886Y-71447353D01*
X118613500Y-71444951D01*
X118589114Y-71447353D01*
X118565665Y-71454466D01*
X118544054Y-71466017D01*
X118516874Y-71490652D01*
X118427975Y-71598975D01*
X118290933Y-71711444D01*
X118134581Y-71795015D01*
X117964932Y-71846478D01*
X117788500Y-71863854D01*
X117612069Y-71846478D01*
X117442424Y-71795016D01*
X117286064Y-71711441D01*
X117149025Y-71598975D01*
X117036556Y-71461933D01*
X116952985Y-71305581D01*
X116901522Y-71135932D01*
X116888500Y-71003711D01*
X116888500Y-70864290D01*
X116901522Y-70732069D01*
X116952984Y-70562424D01*
X117036559Y-70406064D01*
X117149025Y-70269025D01*
X117286064Y-70156559D01*
X117355882Y-70119241D01*
X117376257Y-70105627D01*
X117393584Y-70088300D01*
X117407198Y-70067925D01*
X117416575Y-70045286D01*
X117421356Y-70021253D01*
X117421356Y-70009000D01*
X118155042Y-70009000D01*
X118157444Y-70033386D01*
X118164557Y-70056835D01*
X118176108Y-70078446D01*
X118191654Y-70097388D01*
X118210596Y-70112934D01*
X118221118Y-70119241D01*
X118290936Y-70156559D01*
X118427975Y-70269025D01*
X118516874Y-70377348D01*
X118534201Y-70394675D01*
X118554576Y-70408289D01*
X118577215Y-70417667D01*
X118601248Y-70422447D01*
X118625752Y-70422447D01*
X118649786Y-70417667D01*
X118672425Y-70408289D01*
X118692799Y-70394675D01*
X118710126Y-70377348D01*
X118723740Y-70356973D01*
X118733118Y-70334334D01*
X118738500Y-70298049D01*
X118738500Y-69934000D01*
X120415415Y-69934000D01*
X120439801Y-69931598D01*
X120463250Y-69924485D01*
X120484861Y-69912934D01*
X120503803Y-69897388D01*
X120519349Y-69878446D01*
X120535029Y-69845293D01*
X120550573Y-69794052D01*
X120610931Y-69681132D01*
X120692158Y-69582157D01*
X120791133Y-69500930D01*
X120850427Y-69469237D01*
X120870797Y-69455627D01*
X120888124Y-69438300D01*
X120901738Y-69417925D01*
X120911115Y-69395286D01*
X120915896Y-69371253D01*
X120915896Y-69346748D01*
X120911116Y-69322715D01*
X120901738Y-69300076D01*
X120888125Y-69279701D01*
X120870798Y-69262374D01*
X120850423Y-69248760D01*
X120827784Y-69239383D01*
X120803751Y-69234602D01*
X120791498Y-69234000D01*
X119683500Y-69234000D01*
X119683500Y-68689979D01*
X119681098Y-68665593D01*
X119673985Y-68642144D01*
X119662434Y-68620533D01*
X119646888Y-68601591D01*
X119627946Y-68586045D01*
X119606335Y-68574494D01*
X119582886Y-68567381D01*
X119558500Y-68564979D01*
X119534114Y-68567381D01*
X119510665Y-68574494D01*
X119489054Y-68586045D01*
X119475560Y-68598275D01*
X119475360Y-68598032D01*
X119465845Y-68605841D01*
X119465843Y-68605843D01*
X119366867Y-68687070D01*
X119366865Y-68687071D01*
X119366864Y-68687072D01*
X119361425Y-68689979D01*
X119253947Y-68747427D01*
X119192684Y-68766011D01*
X119131422Y-68784595D01*
X119119997Y-68785720D01*
X119004000Y-68797145D01*
X118888002Y-68785720D01*
X118876577Y-68784595D01*
X118815315Y-68766011D01*
X118754052Y-68747427D01*
X118641132Y-68687070D01*
X118542799Y-68606370D01*
X118522424Y-68592756D01*
X118499785Y-68583378D01*
X118475752Y-68578598D01*
X118451248Y-68578598D01*
X118427214Y-68583378D01*
X118404575Y-68592756D01*
X118384201Y-68606370D01*
X118366874Y-68623697D01*
X118353260Y-68644072D01*
X118343882Y-68666711D01*
X118338500Y-68702996D01*
X118338500Y-69884000D01*
X118280042Y-69884000D01*
X118255656Y-69886402D01*
X118232207Y-69893515D01*
X118210596Y-69905066D01*
X118191654Y-69920612D01*
X118176108Y-69939554D01*
X118164557Y-69961165D01*
X118157444Y-69984614D01*
X118155042Y-70009000D01*
X117421356Y-70009000D01*
X117421356Y-69996749D01*
X117416576Y-69972715D01*
X117407199Y-69950076D01*
X117393585Y-69929701D01*
X117376258Y-69912374D01*
X117355883Y-69898760D01*
X117333244Y-69889383D01*
X117309211Y-69884602D01*
X117296958Y-69884000D01*
X116738500Y-69884000D01*
X116738500Y-67784000D01*
X118229000Y-67784000D01*
X118253386Y-67781598D01*
X118276835Y-67774485D01*
X118298446Y-67762934D01*
X118317388Y-67747388D01*
X118332934Y-67728446D01*
X118344485Y-67706835D01*
X118351598Y-67683386D01*
X118354000Y-67659000D01*
X118354000Y-67609000D01*
X118351598Y-67584614D01*
X118344485Y-67561165D01*
X118332934Y-67539554D01*
X118317388Y-67520612D01*
X118298446Y-67505066D01*
X118276835Y-67493515D01*
X118253386Y-67486402D01*
X118229000Y-67484000D01*
X116738500Y-67484000D01*
X116738500Y-65384000D01*
X117296958Y-65384000D01*
X117321344Y-65381598D01*
X117344793Y-65374485D01*
X117366404Y-65362934D01*
X117385346Y-65347388D01*
X117400892Y-65328446D01*
X117412443Y-65306835D01*
X117419556Y-65283386D01*
X117421958Y-65259000D01*
X117420752Y-65246747D01*
X118155644Y-65246747D01*
X118155644Y-65271251D01*
X118160424Y-65295285D01*
X118169801Y-65317924D01*
X118183415Y-65338299D01*
X118200742Y-65355626D01*
X118221117Y-65369240D01*
X118243756Y-65378617D01*
X118267789Y-65383398D01*
X118280042Y-65384000D01*
X118338500Y-65384000D01*
X118338500Y-66485005D01*
X118340902Y-66509391D01*
X118348015Y-66532840D01*
X118359566Y-66554451D01*
X118375112Y-66573393D01*
X118394054Y-66588939D01*
X118415665Y-66600490D01*
X118439114Y-66607603D01*
X118463500Y-66610005D01*
X118487886Y-66607603D01*
X118511335Y-66600490D01*
X118542799Y-66581631D01*
X118641133Y-66500930D01*
X118670927Y-66485005D01*
X118754053Y-66440573D01*
X118815316Y-66421989D01*
X118876578Y-66403405D01*
X118888003Y-66402280D01*
X119004000Y-66390855D01*
X119119998Y-66402280D01*
X119131423Y-66403405D01*
X119192685Y-66421989D01*
X119253948Y-66440573D01*
X119366868Y-66500930D01*
X119465843Y-66582157D01*
X119465846Y-66582160D01*
X119470684Y-66586131D01*
X119479204Y-66594650D01*
X119499579Y-66608263D01*
X119522218Y-66617640D01*
X119546251Y-66622419D01*
X119570756Y-66622419D01*
X119594789Y-66617638D01*
X119617428Y-66608259D01*
X119637802Y-66594645D01*
X119655129Y-66577317D01*
X119668742Y-66556942D01*
X119678119Y-66534303D01*
X119683500Y-66498021D01*
X119683500Y-66034000D01*
X121014400Y-66034000D01*
X121038786Y-66031598D01*
X121062235Y-66024485D01*
X121083846Y-66012934D01*
X121102788Y-65997388D01*
X121118334Y-65978446D01*
X121129885Y-65956835D01*
X121136998Y-65933386D01*
X121139400Y-65909000D01*
X121136998Y-65884614D01*
X121129885Y-65861165D01*
X121118334Y-65839554D01*
X121102788Y-65820612D01*
X121083846Y-65805066D01*
X121062235Y-65793515D01*
X121038786Y-65786402D01*
X121026658Y-65784603D01*
X121026596Y-65784597D01*
X121026577Y-65784595D01*
X120965315Y-65766011D01*
X120904052Y-65747427D01*
X120791132Y-65687070D01*
X120692157Y-65605843D01*
X120610930Y-65506867D01*
X120553845Y-65400069D01*
X120540237Y-65379701D01*
X120522910Y-65362374D01*
X120502535Y-65348760D01*
X120479896Y-65339383D01*
X120455863Y-65334602D01*
X120443610Y-65334000D01*
X118738500Y-65334000D01*
X118738500Y-64969951D01*
X118736098Y-64945565D01*
X118728985Y-64922116D01*
X118717434Y-64900505D01*
X118701888Y-64881563D01*
X118682946Y-64866017D01*
X118661335Y-64854466D01*
X118637886Y-64847353D01*
X118613500Y-64844951D01*
X118589114Y-64847353D01*
X118565665Y-64854466D01*
X118544054Y-64866017D01*
X118516874Y-64890652D01*
X118427975Y-64998975D01*
X118290936Y-65111441D01*
X118221118Y-65148759D01*
X118200743Y-65162373D01*
X118183416Y-65179700D01*
X118169802Y-65200075D01*
X118160425Y-65222714D01*
X118155644Y-65246747D01*
X117420752Y-65246747D01*
X117419556Y-65234614D01*
X117412443Y-65211165D01*
X117400892Y-65189554D01*
X117385346Y-65170612D01*
X117366404Y-65155066D01*
X117355882Y-65148759D01*
X117286064Y-65111441D01*
X117149025Y-64998975D01*
X117036556Y-64861933D01*
X116952985Y-64705581D01*
X116901522Y-64535932D01*
X116888500Y-64403711D01*
X116888500Y-64264290D01*
X116901522Y-64132069D01*
X116952984Y-63962424D01*
X117036559Y-63806064D01*
X117149025Y-63669025D01*
X117286067Y-63556556D01*
X117442419Y-63472985D01*
X117612068Y-63421522D01*
X117788500Y-63404146D01*
X117964931Y-63421522D01*
X117964931Y-63421522D01*
G37*
G36*
X197120526Y-69204115D02*
X197338912Y-69294573D01*
X197535458Y-69425901D01*
X197702599Y-69593042D01*
X197833927Y-69789588D01*
X197924385Y-70007974D01*
X197970500Y-70239809D01*
X197970500Y-70476191D01*
X197924385Y-70708026D01*
X197833927Y-70926412D01*
X197702599Y-71122958D01*
X197535458Y-71290099D01*
X197338912Y-71421427D01*
X197120526Y-71511885D01*
X196888691Y-71558000D01*
X196652309Y-71558000D01*
X196420474Y-71511885D01*
X196202088Y-71421427D01*
X196005542Y-71290099D01*
X195838401Y-71122958D01*
X195707073Y-70926412D01*
X195616615Y-70708026D01*
X195570500Y-70476191D01*
X195570500Y-70239809D01*
X195616615Y-70007974D01*
X195707073Y-69789588D01*
X195838401Y-69593042D01*
X196005542Y-69425901D01*
X196202088Y-69294573D01*
X196420474Y-69204115D01*
X196652309Y-69158000D01*
X196888691Y-69158000D01*
X197120526Y-69204115D01*
X197120526Y-69204115D01*
G37*
G36*
X185069619Y-66681930D02*
X185251257Y-66737030D01*
X185418658Y-66826507D01*
X185565385Y-66946923D01*
X185685799Y-67093648D01*
X185775278Y-67261052D01*
X185830378Y-67442688D01*
X185844320Y-67584250D01*
X185844320Y-67983725D01*
X185830378Y-68125287D01*
X185775278Y-68306925D01*
X185685801Y-68474326D01*
X185565385Y-68621053D01*
X185418660Y-68741467D01*
X185251256Y-68830946D01*
X185069620Y-68886046D01*
X184880720Y-68904650D01*
X184691821Y-68886046D01*
X184510185Y-68830946D01*
X184342781Y-68741467D01*
X184196056Y-68621053D01*
X184075641Y-68474327D01*
X183986162Y-68306924D01*
X183931062Y-68125288D01*
X183917120Y-67983726D01*
X183917120Y-67584251D01*
X183931062Y-67442689D01*
X183986162Y-67261051D01*
X184075639Y-67093650D01*
X184196055Y-66946923D01*
X184342780Y-66826509D01*
X184510184Y-66737030D01*
X184691820Y-66681930D01*
X184880720Y-66663326D01*
X185069619Y-66681930D01*
X185069619Y-66681930D01*
G37*
G36*
X167289619Y-66681930D02*
X167471257Y-66737030D01*
X167638658Y-66826507D01*
X167785385Y-66946923D01*
X167905799Y-67093648D01*
X167995278Y-67261052D01*
X168050378Y-67442688D01*
X168064320Y-67584250D01*
X168064320Y-67983725D01*
X168050378Y-68125287D01*
X167995278Y-68306925D01*
X167905801Y-68474326D01*
X167785385Y-68621053D01*
X167638660Y-68741467D01*
X167471256Y-68830946D01*
X167289620Y-68886046D01*
X167100720Y-68904650D01*
X166911821Y-68886046D01*
X166730185Y-68830946D01*
X166562781Y-68741467D01*
X166416056Y-68621053D01*
X166295641Y-68474327D01*
X166206162Y-68306924D01*
X166151062Y-68125288D01*
X166137120Y-67983726D01*
X166137120Y-67584251D01*
X166151062Y-67442689D01*
X166206162Y-67261051D01*
X166295639Y-67093650D01*
X166416055Y-66946923D01*
X166562780Y-66826509D01*
X166730184Y-66737030D01*
X166911820Y-66681930D01*
X167100720Y-66663326D01*
X167289619Y-66681930D01*
X167289619Y-66681930D01*
G37*
G36*
X185069619Y-64141930D02*
X185251257Y-64197030D01*
X185418658Y-64286507D01*
X185565385Y-64406923D01*
X185685799Y-64553648D01*
X185775278Y-64721052D01*
X185830378Y-64902688D01*
X185844320Y-65044250D01*
X185844320Y-65443725D01*
X185830378Y-65585287D01*
X185775278Y-65766925D01*
X185685801Y-65934326D01*
X185565385Y-66081053D01*
X185418660Y-66201467D01*
X185251256Y-66290946D01*
X185069620Y-66346046D01*
X184880720Y-66364650D01*
X184691821Y-66346046D01*
X184510185Y-66290946D01*
X184342781Y-66201467D01*
X184196056Y-66081053D01*
X184119935Y-65988299D01*
X184075640Y-65934326D01*
X183986163Y-65766926D01*
X183976307Y-65734436D01*
X183931062Y-65585288D01*
X183917120Y-65443726D01*
X183917120Y-65044251D01*
X183931062Y-64902689D01*
X183986162Y-64721051D01*
X184075639Y-64553650D01*
X184196055Y-64406923D01*
X184342780Y-64286509D01*
X184510184Y-64197030D01*
X184691820Y-64141930D01*
X184880720Y-64123326D01*
X185069619Y-64141930D01*
X185069619Y-64141930D01*
G37*
G36*
X167289619Y-64141930D02*
X167471257Y-64197030D01*
X167638658Y-64286507D01*
X167785385Y-64406923D01*
X167905799Y-64553648D01*
X167995278Y-64721052D01*
X168050378Y-64902688D01*
X168064320Y-65044250D01*
X168064320Y-65443725D01*
X168050378Y-65585287D01*
X167995278Y-65766925D01*
X167905801Y-65934326D01*
X167785385Y-66081053D01*
X167638660Y-66201467D01*
X167471256Y-66290946D01*
X167289620Y-66346046D01*
X167100720Y-66364650D01*
X166911821Y-66346046D01*
X166730185Y-66290946D01*
X166562781Y-66201467D01*
X166416056Y-66081053D01*
X166339935Y-65988299D01*
X166295640Y-65934326D01*
X166206163Y-65766926D01*
X166196307Y-65734436D01*
X166151062Y-65585288D01*
X166137120Y-65443726D01*
X166137120Y-65044251D01*
X166151062Y-64902689D01*
X166206162Y-64721051D01*
X166295639Y-64553650D01*
X166416055Y-64406923D01*
X166562780Y-64286509D01*
X166730184Y-64197030D01*
X166911820Y-64141930D01*
X167100720Y-64123326D01*
X167289619Y-64141930D01*
X167289619Y-64141930D01*
G37*
G36*
X190701572Y-64351431D02*
X190876935Y-64424068D01*
X191034762Y-64529525D01*
X191168975Y-64663738D01*
X191274432Y-64821565D01*
X191347069Y-64996928D01*
X191384100Y-65183094D01*
X191384100Y-65372906D01*
X191347069Y-65559072D01*
X191274432Y-65734435D01*
X191168975Y-65892262D01*
X191034762Y-66026475D01*
X190876935Y-66131932D01*
X190701572Y-66204569D01*
X190515406Y-66241600D01*
X190325594Y-66241600D01*
X190139428Y-66204569D01*
X189964065Y-66131932D01*
X189806238Y-66026475D01*
X189672025Y-65892262D01*
X189566568Y-65734435D01*
X189493931Y-65559072D01*
X189456900Y-65372906D01*
X189456900Y-65183094D01*
X189493931Y-64996928D01*
X189566568Y-64821565D01*
X189672025Y-64663738D01*
X189806238Y-64529525D01*
X189964065Y-64424068D01*
X190139428Y-64351431D01*
X190325594Y-64314400D01*
X190515406Y-64314400D01*
X190701572Y-64351431D01*
X190701572Y-64351431D01*
G37*
G36*
X167289619Y-61601930D02*
X167471257Y-61657030D01*
X167638658Y-61746507D01*
X167785385Y-61866923D01*
X167905799Y-62013648D01*
X167995278Y-62181052D01*
X168050378Y-62362688D01*
X168064320Y-62504250D01*
X168064320Y-62903725D01*
X168050378Y-63045287D01*
X167995278Y-63226925D01*
X167905801Y-63394326D01*
X167785385Y-63541053D01*
X167638660Y-63661467D01*
X167471256Y-63750946D01*
X167289620Y-63806046D01*
X167100720Y-63824650D01*
X166911821Y-63806046D01*
X166730185Y-63750946D01*
X166562781Y-63661467D01*
X166416056Y-63541053D01*
X166295641Y-63394327D01*
X166273157Y-63352262D01*
X166206163Y-63226926D01*
X166196307Y-63194436D01*
X166151062Y-63045288D01*
X166137120Y-62903726D01*
X166137120Y-62504251D01*
X166151062Y-62362689D01*
X166206162Y-62181051D01*
X166295639Y-62013650D01*
X166416055Y-61866923D01*
X166562780Y-61746509D01*
X166730184Y-61657030D01*
X166911820Y-61601930D01*
X167100720Y-61583326D01*
X167289619Y-61601930D01*
X167289619Y-61601930D01*
G37*
G36*
X185069619Y-61601930D02*
X185251257Y-61657030D01*
X185418658Y-61746507D01*
X185565385Y-61866923D01*
X185685799Y-62013648D01*
X185775278Y-62181052D01*
X185830378Y-62362688D01*
X185844320Y-62504250D01*
X185844320Y-62903725D01*
X185830378Y-63045287D01*
X185775278Y-63226925D01*
X185685801Y-63394326D01*
X185565385Y-63541053D01*
X185418660Y-63661467D01*
X185251256Y-63750946D01*
X185069620Y-63806046D01*
X184880720Y-63824650D01*
X184691821Y-63806046D01*
X184510185Y-63750946D01*
X184342781Y-63661467D01*
X184196056Y-63541053D01*
X184075641Y-63394327D01*
X184053157Y-63352262D01*
X183986163Y-63226926D01*
X183976307Y-63194436D01*
X183931062Y-63045288D01*
X183917120Y-62903726D01*
X183917120Y-62504251D01*
X183931062Y-62362689D01*
X183986162Y-62181051D01*
X184075639Y-62013650D01*
X184196055Y-61866923D01*
X184342780Y-61746509D01*
X184510184Y-61657030D01*
X184691820Y-61601930D01*
X184880720Y-61583326D01*
X185069619Y-61601930D01*
X185069619Y-61601930D01*
G37*
G36*
X190701572Y-61811431D02*
X190876935Y-61884068D01*
X191034762Y-61989525D01*
X191168975Y-62123738D01*
X191274432Y-62281565D01*
X191347069Y-62456928D01*
X191384100Y-62643094D01*
X191384100Y-62832906D01*
X191347069Y-63019072D01*
X191274432Y-63194435D01*
X191168975Y-63352262D01*
X191034762Y-63486475D01*
X190876935Y-63591932D01*
X190701572Y-63664569D01*
X190515406Y-63701600D01*
X190325594Y-63701600D01*
X190139428Y-63664569D01*
X189964065Y-63591932D01*
X189806238Y-63486475D01*
X189672025Y-63352262D01*
X189566568Y-63194435D01*
X189493931Y-63019072D01*
X189456900Y-62832906D01*
X189456900Y-62643094D01*
X189493931Y-62456928D01*
X189566568Y-62281565D01*
X189672025Y-62123738D01*
X189806238Y-61989525D01*
X189964065Y-61884068D01*
X190139428Y-61811431D01*
X190325594Y-61774400D01*
X190515406Y-61774400D01*
X190701572Y-61811431D01*
X190701572Y-61811431D01*
G37*
G36*
X197120526Y-59044115D02*
X197338912Y-59134573D01*
X197535458Y-59265901D01*
X197702599Y-59433042D01*
X197833927Y-59629588D01*
X197924385Y-59847974D01*
X197970500Y-60079809D01*
X197970500Y-60316191D01*
X197924385Y-60548026D01*
X197833927Y-60766412D01*
X197702599Y-60962958D01*
X197535458Y-61130099D01*
X197338912Y-61261427D01*
X197120526Y-61351885D01*
X196888691Y-61398000D01*
X196652309Y-61398000D01*
X196420474Y-61351885D01*
X196202088Y-61261427D01*
X196005542Y-61130099D01*
X195838401Y-60962958D01*
X195707073Y-60766412D01*
X195616615Y-60548026D01*
X195570500Y-60316191D01*
X195570500Y-60079809D01*
X195616615Y-59847974D01*
X195707073Y-59629588D01*
X195838401Y-59433042D01*
X196005542Y-59265901D01*
X196202088Y-59134573D01*
X196420474Y-59044115D01*
X196652309Y-58998000D01*
X196888691Y-58998000D01*
X197120526Y-59044115D01*
X197120526Y-59044115D01*
G37*
G36*
X187724614Y-57864648D02*
X187973937Y-57967921D01*
X188198327Y-58117853D01*
X188389147Y-58308673D01*
X188539079Y-58533063D01*
X188642352Y-58782386D01*
X188695000Y-59047065D01*
X188695000Y-59316935D01*
X188642352Y-59581614D01*
X188539079Y-59830937D01*
X188389147Y-60055327D01*
X188198327Y-60246147D01*
X187973937Y-60396079D01*
X187724614Y-60499352D01*
X187459935Y-60552000D01*
X187190065Y-60552000D01*
X186925386Y-60499352D01*
X186676063Y-60396079D01*
X186451673Y-60246147D01*
X186260853Y-60055327D01*
X186110921Y-59830937D01*
X186007648Y-59581614D01*
X185955000Y-59316935D01*
X185955000Y-59047065D01*
X186007648Y-58782386D01*
X186110921Y-58533063D01*
X186260853Y-58308673D01*
X186451673Y-58117853D01*
X186676063Y-57967921D01*
X186925386Y-57864648D01*
X187190065Y-57812000D01*
X187459935Y-57812000D01*
X187724614Y-57864648D01*
X187724614Y-57864648D01*
G37*
G36*
X117874614Y-57864648D02*
X118123937Y-57967921D01*
X118348327Y-58117853D01*
X118539147Y-58308673D01*
X118689079Y-58533063D01*
X118792352Y-58782386D01*
X118845000Y-59047065D01*
X118845000Y-59316935D01*
X118792352Y-59581614D01*
X118689079Y-59830937D01*
X118539147Y-60055327D01*
X118348327Y-60246147D01*
X118123937Y-60396079D01*
X117874614Y-60499352D01*
X117609935Y-60552000D01*
X117340065Y-60552000D01*
X117075386Y-60499352D01*
X116826063Y-60396079D01*
X116601673Y-60246147D01*
X116410853Y-60055327D01*
X116260921Y-59830937D01*
X116157648Y-59581614D01*
X116105000Y-59316935D01*
X116105000Y-59047065D01*
X116157648Y-58782386D01*
X116260921Y-58533063D01*
X116410853Y-58308673D01*
X116601673Y-58117853D01*
X116826063Y-57967921D01*
X117075386Y-57864648D01*
X117340065Y-57812000D01*
X117609935Y-57812000D01*
X117874614Y-57864648D01*
X117874614Y-57864648D01*
G37*
M02*
