G04 #@! TF.GenerationSoftware,KiCad,Pcbnew,5.0.1-33cea8e~67~ubuntu18.04.1*
G04 #@! TF.CreationDate,2018-11-07T15:18:36-08:00*
G04 #@! TF.ProjectId,fk-atlas,666B2D61746C61732E6B696361645F70,rev?*
G04 #@! TF.SameCoordinates,Original*
G04 #@! TF.FileFunction,Soldermask,Top*
G04 #@! TF.FilePolarity,Negative*
%FSLAX46Y46*%
G04 Gerber Fmt 4.6, Leading zero omitted, Abs format (unit mm)*
G04 Created by KiCad (PCBNEW 5.0.1-33cea8e~67~ubuntu18.04.1) date Wed 07 Nov 2018 03:18:36 PM PST*
%MOMM*%
%LPD*%
G01*
G04 APERTURE LIST*
%ADD10C,0.100000*%
G04 APERTURE END LIST*
D10*
G36*
X187724614Y-134572648D02*
X187973937Y-134675921D01*
X188198327Y-134825853D01*
X188389147Y-135016673D01*
X188539079Y-135241063D01*
X188642352Y-135490386D01*
X188695000Y-135755065D01*
X188695000Y-136024935D01*
X188642352Y-136289614D01*
X188539079Y-136538937D01*
X188389147Y-136763327D01*
X188198327Y-136954147D01*
X187973937Y-137104079D01*
X187724614Y-137207352D01*
X187459935Y-137260000D01*
X187190065Y-137260000D01*
X186925386Y-137207352D01*
X186676063Y-137104079D01*
X186451673Y-136954147D01*
X186260853Y-136763327D01*
X186110921Y-136538937D01*
X186007648Y-136289614D01*
X185955000Y-136024935D01*
X185955000Y-135755065D01*
X186007648Y-135490386D01*
X186110921Y-135241063D01*
X186260853Y-135016673D01*
X186451673Y-134825853D01*
X186676063Y-134675921D01*
X186925386Y-134572648D01*
X187190065Y-134520000D01*
X187459935Y-134520000D01*
X187724614Y-134572648D01*
X187724614Y-134572648D01*
G37*
G36*
X117874614Y-134572648D02*
X118123937Y-134675921D01*
X118348327Y-134825853D01*
X118539147Y-135016673D01*
X118689079Y-135241063D01*
X118792352Y-135490386D01*
X118845000Y-135755065D01*
X118845000Y-136024935D01*
X118792352Y-136289614D01*
X118689079Y-136538937D01*
X118539147Y-136763327D01*
X118348327Y-136954147D01*
X118123937Y-137104079D01*
X117874614Y-137207352D01*
X117609935Y-137260000D01*
X117340065Y-137260000D01*
X117075386Y-137207352D01*
X116826063Y-137104079D01*
X116601673Y-136954147D01*
X116410853Y-136763327D01*
X116260921Y-136538937D01*
X116157648Y-136289614D01*
X116105000Y-136024935D01*
X116105000Y-135755065D01*
X116157648Y-135490386D01*
X116260921Y-135241063D01*
X116410853Y-135016673D01*
X116601673Y-134825853D01*
X116826063Y-134675921D01*
X117075386Y-134572648D01*
X117340065Y-134520000D01*
X117609935Y-134520000D01*
X117874614Y-134572648D01*
X117874614Y-134572648D01*
G37*
G36*
X132357370Y-134397372D02*
X132473289Y-134420429D01*
X132655278Y-134495811D01*
X132819063Y-134605249D01*
X132958351Y-134744537D01*
X133067789Y-134908322D01*
X133143171Y-135090311D01*
X133151255Y-135130955D01*
X133181600Y-135283507D01*
X133181600Y-135480493D01*
X133173764Y-135519885D01*
X133143171Y-135673689D01*
X133067789Y-135855678D01*
X132958351Y-136019463D01*
X132819063Y-136158751D01*
X132655278Y-136268189D01*
X132473289Y-136343571D01*
X132357370Y-136366628D01*
X132280093Y-136382000D01*
X132083107Y-136382000D01*
X132005830Y-136366628D01*
X131889911Y-136343571D01*
X131707922Y-136268189D01*
X131544137Y-136158751D01*
X131404849Y-136019463D01*
X131295411Y-135855678D01*
X131220029Y-135673689D01*
X131189436Y-135519885D01*
X131181600Y-135480493D01*
X131181600Y-135283507D01*
X131211945Y-135130955D01*
X131220029Y-135090311D01*
X131295411Y-134908322D01*
X131404849Y-134744537D01*
X131544137Y-134605249D01*
X131707922Y-134495811D01*
X131889911Y-134420429D01*
X132005830Y-134397372D01*
X132083107Y-134382000D01*
X132280093Y-134382000D01*
X132357370Y-134397372D01*
X132357370Y-134397372D01*
G37*
G36*
X156249500Y-136228000D02*
X154949500Y-136228000D01*
X154949500Y-135028000D01*
X156249500Y-135028000D01*
X156249500Y-136228000D01*
X156249500Y-136228000D01*
G37*
G36*
X154549500Y-136228000D02*
X153249500Y-136228000D01*
X153249500Y-135028000D01*
X154549500Y-135028000D01*
X154549500Y-136228000D01*
X154549500Y-136228000D01*
G37*
G36*
X151847500Y-136228000D02*
X150547500Y-136228000D01*
X150547500Y-135028000D01*
X151847500Y-135028000D01*
X151847500Y-136228000D01*
X151847500Y-136228000D01*
G37*
G36*
X160053500Y-136228000D02*
X158753500Y-136228000D01*
X158753500Y-135028000D01*
X160053500Y-135028000D01*
X160053500Y-136228000D01*
X160053500Y-136228000D01*
G37*
G36*
X150147500Y-136228000D02*
X148847500Y-136228000D01*
X148847500Y-135028000D01*
X150147500Y-135028000D01*
X150147500Y-136228000D01*
X150147500Y-136228000D01*
G37*
G36*
X161753500Y-136228000D02*
X160453500Y-136228000D01*
X160453500Y-135028000D01*
X161753500Y-135028000D01*
X161753500Y-136228000D01*
X161753500Y-136228000D01*
G37*
G36*
X197184026Y-133212115D02*
X197402412Y-133302573D01*
X197598958Y-133433901D01*
X197766099Y-133601042D01*
X197897427Y-133797588D01*
X197987885Y-134015974D01*
X198034000Y-134247809D01*
X198034000Y-134484191D01*
X197987885Y-134716026D01*
X197897427Y-134934412D01*
X197766099Y-135130958D01*
X197598958Y-135298099D01*
X197402412Y-135429427D01*
X197184026Y-135519885D01*
X196952191Y-135566000D01*
X196715809Y-135566000D01*
X196483974Y-135519885D01*
X196265588Y-135429427D01*
X196069042Y-135298099D01*
X195901901Y-135130958D01*
X195770573Y-134934412D01*
X195680115Y-134716026D01*
X195634000Y-134484191D01*
X195634000Y-134247809D01*
X195680115Y-134015974D01*
X195770573Y-133797588D01*
X195901901Y-133601042D01*
X196069042Y-133433901D01*
X196265588Y-133302573D01*
X196483974Y-133212115D01*
X196715809Y-133166000D01*
X196952191Y-133166000D01*
X197184026Y-133212115D01*
X197184026Y-133212115D01*
G37*
G36*
X171372000Y-134700000D02*
X168672000Y-134700000D01*
X168672000Y-133100000D01*
X171372000Y-133100000D01*
X171372000Y-134700000D01*
X171372000Y-134700000D01*
G37*
G36*
X183372000Y-134700000D02*
X180672000Y-134700000D01*
X180672000Y-133100000D01*
X183372000Y-133100000D01*
X183372000Y-134700000D01*
X183372000Y-134700000D01*
G37*
G36*
X161753500Y-134450000D02*
X160453500Y-134450000D01*
X160453500Y-133250000D01*
X161753500Y-133250000D01*
X161753500Y-134450000D01*
X161753500Y-134450000D01*
G37*
G36*
X160053500Y-134450000D02*
X158753500Y-134450000D01*
X158753500Y-133250000D01*
X160053500Y-133250000D01*
X160053500Y-134450000D01*
X160053500Y-134450000D01*
G37*
G36*
X155976600Y-133957800D02*
X149676600Y-133957800D01*
X149676600Y-132257800D01*
X155976600Y-132257800D01*
X155976600Y-133957800D01*
X155976600Y-133957800D01*
G37*
G36*
X185064019Y-130731930D02*
X185245657Y-130787030D01*
X185413058Y-130876507D01*
X185559785Y-130996923D01*
X185680199Y-131143648D01*
X185769678Y-131311052D01*
X185824778Y-131492688D01*
X185838720Y-131634250D01*
X185838720Y-132033725D01*
X185824778Y-132175287D01*
X185769678Y-132356925D01*
X185680201Y-132524326D01*
X185559785Y-132671053D01*
X185413060Y-132791467D01*
X185245656Y-132880946D01*
X185064020Y-132936046D01*
X184875120Y-132954650D01*
X184686221Y-132936046D01*
X184504585Y-132880946D01*
X184337181Y-132791467D01*
X184190456Y-132671053D01*
X184070041Y-132524327D01*
X184003587Y-132400000D01*
X183980563Y-132356926D01*
X183960564Y-132291000D01*
X183925462Y-132175288D01*
X183911520Y-132033726D01*
X183911520Y-131634251D01*
X183925462Y-131492689D01*
X183980562Y-131311051D01*
X184070039Y-131143650D01*
X184190455Y-130996923D01*
X184337180Y-130876509D01*
X184504584Y-130787030D01*
X184686220Y-130731930D01*
X184875120Y-130713326D01*
X185064019Y-130731930D01*
X185064019Y-130731930D01*
G37*
G36*
X167284019Y-130731930D02*
X167465657Y-130787030D01*
X167633058Y-130876507D01*
X167779785Y-130996923D01*
X167900199Y-131143648D01*
X167989678Y-131311052D01*
X168044778Y-131492688D01*
X168058720Y-131634250D01*
X168058720Y-132033725D01*
X168044778Y-132175287D01*
X167989678Y-132356925D01*
X167900201Y-132524326D01*
X167779785Y-132671053D01*
X167633060Y-132791467D01*
X167465656Y-132880946D01*
X167284020Y-132936046D01*
X167095120Y-132954650D01*
X166906221Y-132936046D01*
X166724585Y-132880946D01*
X166557181Y-132791467D01*
X166410456Y-132671053D01*
X166290041Y-132524327D01*
X166223587Y-132400000D01*
X166200563Y-132356926D01*
X166180564Y-132291000D01*
X166145462Y-132175288D01*
X166131520Y-132033726D01*
X166131520Y-131634251D01*
X166145462Y-131492689D01*
X166200562Y-131311051D01*
X166290039Y-131143650D01*
X166410455Y-130996923D01*
X166557180Y-130876509D01*
X166724584Y-130787030D01*
X166906220Y-130731930D01*
X167095120Y-130713326D01*
X167284019Y-130731930D01*
X167284019Y-130731930D01*
G37*
G36*
X171372000Y-132400000D02*
X168672000Y-132400000D01*
X168672000Y-130800000D01*
X171372000Y-130800000D01*
X171372000Y-132400000D01*
X171372000Y-132400000D01*
G37*
G36*
X183372000Y-132400000D02*
X180672000Y-132400000D01*
X180672000Y-130800000D01*
X183372000Y-130800000D01*
X183372000Y-132400000D01*
X183372000Y-132400000D01*
G37*
G36*
X160053500Y-132291000D02*
X158753500Y-132291000D01*
X158753500Y-131091000D01*
X160053500Y-131091000D01*
X160053500Y-132291000D01*
X160053500Y-132291000D01*
G37*
G36*
X161753500Y-132291000D02*
X160453500Y-132291000D01*
X160453500Y-131091000D01*
X161753500Y-131091000D01*
X161753500Y-132291000D01*
X161753500Y-132291000D01*
G37*
G36*
X120115000Y-131706000D02*
X117115000Y-131706000D01*
X117115000Y-130506000D01*
X120115000Y-130506000D01*
X120115000Y-131706000D01*
X120115000Y-131706000D01*
G37*
G36*
X167284019Y-128191930D02*
X167465657Y-128247030D01*
X167633058Y-128336507D01*
X167779785Y-128456923D01*
X167900199Y-128603648D01*
X167989678Y-128771052D01*
X168044778Y-128952688D01*
X168058720Y-129094250D01*
X168058720Y-129493725D01*
X168044778Y-129635287D01*
X167989678Y-129816925D01*
X167900201Y-129984326D01*
X167779785Y-130131053D01*
X167633060Y-130251467D01*
X167465656Y-130340946D01*
X167284020Y-130396046D01*
X167095120Y-130414650D01*
X166906221Y-130396046D01*
X166724585Y-130340946D01*
X166557181Y-130251467D01*
X166410456Y-130131053D01*
X166290041Y-129984327D01*
X166245106Y-129900259D01*
X166200563Y-129816926D01*
X166200562Y-129816924D01*
X166145462Y-129635288D01*
X166131520Y-129493726D01*
X166131520Y-129094251D01*
X166145462Y-128952689D01*
X166200562Y-128771051D01*
X166290039Y-128603650D01*
X166410455Y-128456923D01*
X166557180Y-128336509D01*
X166724584Y-128247030D01*
X166906220Y-128191930D01*
X167095120Y-128173326D01*
X167284019Y-128191930D01*
X167284019Y-128191930D01*
G37*
G36*
X185064019Y-128191930D02*
X185245657Y-128247030D01*
X185413058Y-128336507D01*
X185559785Y-128456923D01*
X185680199Y-128603648D01*
X185769678Y-128771052D01*
X185824778Y-128952688D01*
X185838720Y-129094250D01*
X185838720Y-129493725D01*
X185824778Y-129635287D01*
X185769678Y-129816925D01*
X185680201Y-129984326D01*
X185559785Y-130131053D01*
X185413060Y-130251467D01*
X185245656Y-130340946D01*
X185064020Y-130396046D01*
X184875120Y-130414650D01*
X184686221Y-130396046D01*
X184504585Y-130340946D01*
X184337181Y-130251467D01*
X184190456Y-130131053D01*
X184070041Y-129984327D01*
X184025106Y-129900259D01*
X183980563Y-129816926D01*
X183980562Y-129816924D01*
X183925462Y-129635288D01*
X183911520Y-129493726D01*
X183911520Y-129094251D01*
X183925462Y-128952689D01*
X183980562Y-128771051D01*
X184070039Y-128603650D01*
X184190455Y-128456923D01*
X184337180Y-128336509D01*
X184504584Y-128247030D01*
X184686220Y-128191930D01*
X184875120Y-128173326D01*
X185064019Y-128191930D01*
X185064019Y-128191930D01*
G37*
G36*
X190765072Y-128359431D02*
X190940435Y-128432068D01*
X191098262Y-128537525D01*
X191232475Y-128671738D01*
X191337932Y-128829565D01*
X191410569Y-129004928D01*
X191447600Y-129191094D01*
X191447600Y-129380906D01*
X191410569Y-129567072D01*
X191337932Y-129742435D01*
X191232475Y-129900262D01*
X191098262Y-130034475D01*
X190940435Y-130139932D01*
X190765072Y-130212569D01*
X190578906Y-130249600D01*
X190389094Y-130249600D01*
X190202928Y-130212569D01*
X190027565Y-130139932D01*
X189869738Y-130034475D01*
X189735525Y-129900262D01*
X189630068Y-129742435D01*
X189557431Y-129567072D01*
X189520400Y-129380906D01*
X189520400Y-129191094D01*
X189557431Y-129004928D01*
X189630068Y-128829565D01*
X189735525Y-128671738D01*
X189869738Y-128537525D01*
X190027565Y-128432068D01*
X190202928Y-128359431D01*
X190389094Y-128322400D01*
X190578906Y-128322400D01*
X190765072Y-128359431D01*
X190765072Y-128359431D01*
G37*
G36*
X171372000Y-130100000D02*
X168672000Y-130100000D01*
X168672000Y-128500000D01*
X171372000Y-128500000D01*
X171372000Y-130100000D01*
X171372000Y-130100000D01*
G37*
G36*
X183372000Y-130100000D02*
X180672000Y-130100000D01*
X180672000Y-128500000D01*
X183372000Y-128500000D01*
X183372000Y-130100000D01*
X183372000Y-130100000D01*
G37*
G36*
X122915000Y-129656000D02*
X121015000Y-129656000D01*
X121015000Y-128856000D01*
X122915000Y-128856000D01*
X122915000Y-129656000D01*
X122915000Y-129656000D01*
G37*
G36*
X122915000Y-128406000D02*
X121015000Y-128406000D01*
X121015000Y-127606000D01*
X122915000Y-127606000D01*
X122915000Y-128406000D01*
X122915000Y-128406000D01*
G37*
G36*
X185064019Y-125651930D02*
X185245657Y-125707030D01*
X185413058Y-125796507D01*
X185559785Y-125916923D01*
X185680199Y-126063648D01*
X185769678Y-126231052D01*
X185824778Y-126412688D01*
X185838720Y-126554250D01*
X185838720Y-126953725D01*
X185824778Y-127095287D01*
X185769678Y-127276925D01*
X185680201Y-127444326D01*
X185559785Y-127591053D01*
X185413060Y-127711467D01*
X185245656Y-127800946D01*
X185064020Y-127856046D01*
X184875120Y-127874650D01*
X184686221Y-127856046D01*
X184504585Y-127800946D01*
X184337181Y-127711467D01*
X184190456Y-127591053D01*
X184070041Y-127444327D01*
X184025106Y-127360259D01*
X183980563Y-127276926D01*
X183980562Y-127276924D01*
X183925462Y-127095288D01*
X183911520Y-126953726D01*
X183911520Y-126554251D01*
X183925462Y-126412689D01*
X183980562Y-126231051D01*
X184070039Y-126063650D01*
X184190455Y-125916923D01*
X184337180Y-125796509D01*
X184504584Y-125707030D01*
X184686220Y-125651930D01*
X184875120Y-125633326D01*
X185064019Y-125651930D01*
X185064019Y-125651930D01*
G37*
G36*
X167284019Y-125651930D02*
X167465657Y-125707030D01*
X167633058Y-125796507D01*
X167779785Y-125916923D01*
X167900199Y-126063648D01*
X167989678Y-126231052D01*
X168044778Y-126412688D01*
X168058720Y-126554250D01*
X168058720Y-126953725D01*
X168044778Y-127095287D01*
X167989678Y-127276925D01*
X167900201Y-127444326D01*
X167779785Y-127591053D01*
X167633060Y-127711467D01*
X167465656Y-127800946D01*
X167284020Y-127856046D01*
X167095120Y-127874650D01*
X166906221Y-127856046D01*
X166724585Y-127800946D01*
X166557181Y-127711467D01*
X166410456Y-127591053D01*
X166290041Y-127444327D01*
X166245106Y-127360259D01*
X166200563Y-127276926D01*
X166200562Y-127276924D01*
X166145462Y-127095288D01*
X166131520Y-126953726D01*
X166131520Y-126554251D01*
X166145462Y-126412689D01*
X166200562Y-126231051D01*
X166290039Y-126063650D01*
X166410455Y-125916923D01*
X166557180Y-125796509D01*
X166724584Y-125707030D01*
X166906220Y-125651930D01*
X167095120Y-125633326D01*
X167284019Y-125651930D01*
X167284019Y-125651930D01*
G37*
G36*
X161697800Y-127854000D02*
X160397800Y-127854000D01*
X160397800Y-126654000D01*
X161697800Y-126654000D01*
X161697800Y-127854000D01*
X161697800Y-127854000D01*
G37*
G36*
X159997800Y-127854000D02*
X158697800Y-127854000D01*
X158697800Y-126654000D01*
X159997800Y-126654000D01*
X159997800Y-127854000D01*
X159997800Y-127854000D01*
G37*
G36*
X171372000Y-127800000D02*
X168672000Y-127800000D01*
X168672000Y-126200000D01*
X171372000Y-126200000D01*
X171372000Y-127800000D01*
X171372000Y-127800000D01*
G37*
G36*
X183372000Y-127800000D02*
X180672000Y-127800000D01*
X180672000Y-126200000D01*
X183372000Y-126200000D01*
X183372000Y-127800000D01*
X183372000Y-127800000D01*
G37*
G36*
X190765072Y-125819431D02*
X190940435Y-125892068D01*
X191098262Y-125997525D01*
X191232475Y-126131738D01*
X191337932Y-126289565D01*
X191410569Y-126464928D01*
X191447600Y-126651094D01*
X191447600Y-126840906D01*
X191410569Y-127027072D01*
X191337932Y-127202435D01*
X191232475Y-127360262D01*
X191098262Y-127494475D01*
X190940435Y-127599932D01*
X190765072Y-127672569D01*
X190578906Y-127709600D01*
X190389094Y-127709600D01*
X190202928Y-127672569D01*
X190027565Y-127599932D01*
X189869738Y-127494475D01*
X189735525Y-127360262D01*
X189630068Y-127202435D01*
X189557431Y-127027072D01*
X189520400Y-126840906D01*
X189520400Y-126651094D01*
X189557431Y-126464928D01*
X189630068Y-126289565D01*
X189735525Y-126131738D01*
X189869738Y-125997525D01*
X190027565Y-125892068D01*
X190202928Y-125819431D01*
X190389094Y-125782400D01*
X190578906Y-125782400D01*
X190765072Y-125819431D01*
X190765072Y-125819431D01*
G37*
G36*
X122915000Y-127156000D02*
X121015000Y-127156000D01*
X121015000Y-126356000D01*
X122915000Y-126356000D01*
X122915000Y-127156000D01*
X122915000Y-127156000D01*
G37*
G36*
X155976600Y-126757800D02*
X149676600Y-126757800D01*
X149676600Y-125057800D01*
X155976600Y-125057800D01*
X155976600Y-126757800D01*
X155976600Y-126757800D01*
G37*
G36*
X148631200Y-126046400D02*
X147431200Y-126046400D01*
X147431200Y-124746400D01*
X148631200Y-124746400D01*
X148631200Y-126046400D01*
X148631200Y-126046400D01*
G37*
G36*
X139665000Y-125960000D02*
X138465000Y-125960000D01*
X138465000Y-124660000D01*
X139665000Y-124660000D01*
X139665000Y-125960000D01*
X139665000Y-125960000D01*
G37*
G36*
X141570000Y-125960000D02*
X140370000Y-125960000D01*
X140370000Y-124660000D01*
X141570000Y-124660000D01*
X141570000Y-125960000D01*
X141570000Y-125960000D01*
G37*
G36*
X122915000Y-125906000D02*
X121015000Y-125906000D01*
X121015000Y-125106000D01*
X122915000Y-125106000D01*
X122915000Y-125906000D01*
X122915000Y-125906000D01*
G37*
G36*
X171372000Y-125500000D02*
X168672000Y-125500000D01*
X168672000Y-123900000D01*
X171372000Y-123900000D01*
X171372000Y-125500000D01*
X171372000Y-125500000D01*
G37*
G36*
X183372000Y-125500000D02*
X180672000Y-125500000D01*
X180672000Y-123900000D01*
X183372000Y-123900000D01*
X183372000Y-125500000D01*
X183372000Y-125500000D01*
G37*
G36*
X197184026Y-123052115D02*
X197402412Y-123142573D01*
X197598958Y-123273901D01*
X197766099Y-123441042D01*
X197897427Y-123637588D01*
X197987885Y-123855974D01*
X198034000Y-124087809D01*
X198034000Y-124324191D01*
X197987885Y-124556026D01*
X197897427Y-124774412D01*
X197766099Y-124970958D01*
X197598958Y-125138099D01*
X197402412Y-125269427D01*
X197184026Y-125359885D01*
X196952191Y-125406000D01*
X196715809Y-125406000D01*
X196483974Y-125359885D01*
X196265588Y-125269427D01*
X196069042Y-125138099D01*
X195901901Y-124970958D01*
X195770573Y-124774412D01*
X195680115Y-124556026D01*
X195634000Y-124324191D01*
X195634000Y-124087809D01*
X195680115Y-123855974D01*
X195770573Y-123637588D01*
X195901901Y-123441042D01*
X196069042Y-123273901D01*
X196265588Y-123142573D01*
X196483974Y-123052115D01*
X196715809Y-123006000D01*
X196952191Y-123006000D01*
X197184026Y-123052115D01*
X197184026Y-123052115D01*
G37*
G36*
X159990000Y-125361836D02*
X158690000Y-125361836D01*
X158690000Y-124161836D01*
X159990000Y-124161836D01*
X159990000Y-125361836D01*
X159990000Y-125361836D01*
G37*
G36*
X161690000Y-125361836D02*
X160390000Y-125361836D01*
X160390000Y-124161836D01*
X161690000Y-124161836D01*
X161690000Y-125361836D01*
X161690000Y-125361836D01*
G37*
G36*
X148631200Y-124346400D02*
X147431200Y-124346400D01*
X147431200Y-123046400D01*
X148631200Y-123046400D01*
X148631200Y-124346400D01*
X148631200Y-124346400D01*
G37*
G36*
X141570000Y-124260000D02*
X140370000Y-124260000D01*
X140370000Y-122960000D01*
X141570000Y-122960000D01*
X141570000Y-124260000D01*
X141570000Y-124260000D01*
G37*
G36*
X139665000Y-124260000D02*
X138465000Y-124260000D01*
X138465000Y-122960000D01*
X139665000Y-122960000D01*
X139665000Y-124260000D01*
X139665000Y-124260000D01*
G37*
G36*
X120115000Y-124256000D02*
X117115000Y-124256000D01*
X117115000Y-123056000D01*
X120115000Y-123056000D01*
X120115000Y-124256000D01*
X120115000Y-124256000D01*
G37*
G36*
X152696000Y-123993200D02*
X151396000Y-123993200D01*
X151396000Y-122793200D01*
X152696000Y-122793200D01*
X152696000Y-123993200D01*
X152696000Y-123993200D01*
G37*
G36*
X154902600Y-123993200D02*
X153602600Y-123993200D01*
X153602600Y-122793200D01*
X154902600Y-122793200D01*
X154902600Y-123993200D01*
X154902600Y-123993200D01*
G37*
G36*
X150996000Y-123993200D02*
X149696000Y-123993200D01*
X149696000Y-122793200D01*
X150996000Y-122793200D01*
X150996000Y-123993200D01*
X150996000Y-123993200D01*
G37*
G36*
X156602600Y-123993200D02*
X155302600Y-123993200D01*
X155302600Y-122793200D01*
X156602600Y-122793200D01*
X156602600Y-123993200D01*
X156602600Y-123993200D01*
G37*
G36*
X136198000Y-123790000D02*
X134898000Y-123790000D01*
X134898000Y-122590000D01*
X136198000Y-122590000D01*
X136198000Y-123790000D01*
X136198000Y-123790000D01*
G37*
G36*
X137898000Y-123790000D02*
X136598000Y-123790000D01*
X136598000Y-122590000D01*
X137898000Y-122590000D01*
X137898000Y-123790000D01*
X137898000Y-123790000D01*
G37*
G36*
X159990000Y-123583836D02*
X158690000Y-123583836D01*
X158690000Y-122383836D01*
X159990000Y-122383836D01*
X159990000Y-123583836D01*
X159990000Y-123583836D01*
G37*
G36*
X161690000Y-123583836D02*
X160390000Y-123583836D01*
X160390000Y-122383836D01*
X161690000Y-122383836D01*
X161690000Y-123583836D01*
X161690000Y-123583836D01*
G37*
G36*
X140989000Y-122164000D02*
X140189000Y-122164000D01*
X140189000Y-119964000D01*
X140989000Y-119964000D01*
X140989000Y-122164000D01*
X140989000Y-122164000D01*
G37*
G36*
X142259000Y-122164000D02*
X141459000Y-122164000D01*
X141459000Y-119964000D01*
X142259000Y-119964000D01*
X142259000Y-122164000D01*
X142259000Y-122164000D01*
G37*
G36*
X143529000Y-122164000D02*
X142729000Y-122164000D01*
X142729000Y-119964000D01*
X143529000Y-119964000D01*
X143529000Y-122164000D01*
X143529000Y-122164000D01*
G37*
G36*
X139719000Y-122164000D02*
X138919000Y-122164000D01*
X138919000Y-119964000D01*
X139719000Y-119964000D01*
X139719000Y-122164000D01*
X139719000Y-122164000D01*
G37*
G36*
X147920000Y-122150000D02*
X146720000Y-122150000D01*
X146720000Y-120850000D01*
X147920000Y-120850000D01*
X147920000Y-122150000D01*
X147920000Y-122150000D01*
G37*
G36*
X146142000Y-122150000D02*
X144942000Y-122150000D01*
X144942000Y-120850000D01*
X146142000Y-120850000D01*
X146142000Y-122150000D01*
X146142000Y-122150000D01*
G37*
G36*
X120115000Y-122044000D02*
X117115000Y-122044000D01*
X117115000Y-120844000D01*
X120115000Y-120844000D01*
X120115000Y-122044000D01*
X120115000Y-122044000D01*
G37*
G36*
X128522400Y-122037900D02*
X125522400Y-122037900D01*
X125522400Y-120837900D01*
X128522400Y-120837900D01*
X128522400Y-122037900D01*
X128522400Y-122037900D01*
G37*
G36*
X136198000Y-122012000D02*
X134898000Y-122012000D01*
X134898000Y-120812000D01*
X136198000Y-120812000D01*
X136198000Y-122012000D01*
X136198000Y-122012000D01*
G37*
G36*
X137898000Y-122012000D02*
X136598000Y-122012000D01*
X136598000Y-120812000D01*
X137898000Y-120812000D01*
X137898000Y-122012000D01*
X137898000Y-122012000D01*
G37*
G36*
X147920000Y-120450000D02*
X146720000Y-120450000D01*
X146720000Y-119150000D01*
X147920000Y-119150000D01*
X147920000Y-120450000D01*
X147920000Y-120450000D01*
G37*
G36*
X146142000Y-120450000D02*
X144942000Y-120450000D01*
X144942000Y-119150000D01*
X146142000Y-119150000D01*
X146142000Y-120450000D01*
X146142000Y-120450000D01*
G37*
G36*
X136198000Y-120234000D02*
X134898000Y-120234000D01*
X134898000Y-119034000D01*
X136198000Y-119034000D01*
X136198000Y-120234000D01*
X136198000Y-120234000D01*
G37*
G36*
X137898000Y-120234000D02*
X136598000Y-120234000D01*
X136598000Y-119034000D01*
X137898000Y-119034000D01*
X137898000Y-120234000D01*
X137898000Y-120234000D01*
G37*
G36*
X161753500Y-120228000D02*
X160453500Y-120228000D01*
X160453500Y-119028000D01*
X161753500Y-119028000D01*
X161753500Y-120228000D01*
X161753500Y-120228000D01*
G37*
G36*
X160053500Y-120228000D02*
X158753500Y-120228000D01*
X158753500Y-119028000D01*
X160053500Y-119028000D01*
X160053500Y-120228000D01*
X160053500Y-120228000D01*
G37*
G36*
X156249500Y-120228000D02*
X154949500Y-120228000D01*
X154949500Y-119028000D01*
X156249500Y-119028000D01*
X156249500Y-120228000D01*
X156249500Y-120228000D01*
G37*
G36*
X151847500Y-120228000D02*
X150547500Y-120228000D01*
X150547500Y-119028000D01*
X151847500Y-119028000D01*
X151847500Y-120228000D01*
X151847500Y-120228000D01*
G37*
G36*
X150147500Y-120228000D02*
X148847500Y-120228000D01*
X148847500Y-119028000D01*
X150147500Y-119028000D01*
X150147500Y-120228000D01*
X150147500Y-120228000D01*
G37*
G36*
X154549500Y-120228000D02*
X153249500Y-120228000D01*
X153249500Y-119028000D01*
X154549500Y-119028000D01*
X154549500Y-120228000D01*
X154549500Y-120228000D01*
G37*
G36*
X122915000Y-119994000D02*
X121015000Y-119994000D01*
X121015000Y-119194000D01*
X122915000Y-119194000D01*
X122915000Y-119994000D01*
X122915000Y-119994000D01*
G37*
G36*
X131322400Y-119987900D02*
X129422400Y-119987900D01*
X129422400Y-119187900D01*
X131322400Y-119187900D01*
X131322400Y-119987900D01*
X131322400Y-119987900D01*
G37*
G36*
X197184026Y-117210115D02*
X197402412Y-117300573D01*
X197598958Y-117431901D01*
X197766099Y-117599042D01*
X197897427Y-117795588D01*
X197987885Y-118013974D01*
X198034000Y-118245809D01*
X198034000Y-118482191D01*
X197987885Y-118714026D01*
X197897427Y-118932412D01*
X197766099Y-119128958D01*
X197598958Y-119296099D01*
X197402412Y-119427427D01*
X197184026Y-119517885D01*
X196952191Y-119564000D01*
X196715809Y-119564000D01*
X196483974Y-119517885D01*
X196265588Y-119427427D01*
X196069042Y-119296099D01*
X195901901Y-119128958D01*
X195770573Y-118932412D01*
X195680115Y-118714026D01*
X195634000Y-118482191D01*
X195634000Y-118245809D01*
X195680115Y-118013974D01*
X195770573Y-117795588D01*
X195901901Y-117599042D01*
X196069042Y-117431901D01*
X196265588Y-117300573D01*
X196483974Y-117210115D01*
X196715809Y-117164000D01*
X196952191Y-117164000D01*
X197184026Y-117210115D01*
X197184026Y-117210115D01*
G37*
G36*
X122915000Y-118744000D02*
X121015000Y-118744000D01*
X121015000Y-117944000D01*
X122915000Y-117944000D01*
X122915000Y-118744000D01*
X122915000Y-118744000D01*
G37*
G36*
X131322400Y-118737900D02*
X129422400Y-118737900D01*
X129422400Y-117937900D01*
X131322400Y-117937900D01*
X131322400Y-118737900D01*
X131322400Y-118737900D01*
G37*
G36*
X183372000Y-118682500D02*
X180672000Y-118682500D01*
X180672000Y-117082500D01*
X183372000Y-117082500D01*
X183372000Y-118682500D01*
X183372000Y-118682500D01*
G37*
G36*
X171372000Y-118682500D02*
X168672000Y-118682500D01*
X168672000Y-117082500D01*
X171372000Y-117082500D01*
X171372000Y-118682500D01*
X171372000Y-118682500D01*
G37*
G36*
X160053500Y-118450000D02*
X158753500Y-118450000D01*
X158753500Y-117250000D01*
X160053500Y-117250000D01*
X160053500Y-118450000D01*
X160053500Y-118450000D01*
G37*
G36*
X161753500Y-118450000D02*
X160453500Y-118450000D01*
X160453500Y-117250000D01*
X161753500Y-117250000D01*
X161753500Y-118450000D01*
X161753500Y-118450000D01*
G37*
G36*
X147920000Y-117832000D02*
X146720000Y-117832000D01*
X146720000Y-116532000D01*
X147920000Y-116532000D01*
X147920000Y-117832000D01*
X147920000Y-117832000D01*
G37*
G36*
X155976600Y-117817000D02*
X149676600Y-117817000D01*
X149676600Y-116117000D01*
X155976600Y-116117000D01*
X155976600Y-117817000D01*
X155976600Y-117817000D01*
G37*
G36*
X122915000Y-117494000D02*
X121015000Y-117494000D01*
X121015000Y-116694000D01*
X122915000Y-116694000D01*
X122915000Y-117494000D01*
X122915000Y-117494000D01*
G37*
G36*
X131322400Y-117487900D02*
X129422400Y-117487900D01*
X129422400Y-116687900D01*
X131322400Y-116687900D01*
X131322400Y-117487900D01*
X131322400Y-117487900D01*
G37*
G36*
X185064019Y-114714430D02*
X185245657Y-114769530D01*
X185413058Y-114859007D01*
X185559785Y-114979423D01*
X185680199Y-115126148D01*
X185769678Y-115293552D01*
X185824778Y-115475188D01*
X185838720Y-115616750D01*
X185838720Y-116016225D01*
X185824778Y-116157787D01*
X185769678Y-116339425D01*
X185680201Y-116506826D01*
X185559785Y-116653553D01*
X185413060Y-116773967D01*
X185245656Y-116863446D01*
X185064020Y-116918546D01*
X184875120Y-116937150D01*
X184686221Y-116918546D01*
X184504585Y-116863446D01*
X184337181Y-116773967D01*
X184190456Y-116653553D01*
X184070041Y-116506827D01*
X184003587Y-116382500D01*
X183980563Y-116339426D01*
X183980562Y-116339424D01*
X183925462Y-116157788D01*
X183911520Y-116016226D01*
X183911520Y-115616751D01*
X183925462Y-115475189D01*
X183980562Y-115293551D01*
X184070039Y-115126150D01*
X184190455Y-114979423D01*
X184337180Y-114859009D01*
X184504584Y-114769530D01*
X184686220Y-114714430D01*
X184875120Y-114695826D01*
X185064019Y-114714430D01*
X185064019Y-114714430D01*
G37*
G36*
X167284019Y-114714430D02*
X167465657Y-114769530D01*
X167633058Y-114859007D01*
X167779785Y-114979423D01*
X167900199Y-115126148D01*
X167989678Y-115293552D01*
X168044778Y-115475188D01*
X168058720Y-115616750D01*
X168058720Y-116016225D01*
X168044778Y-116157787D01*
X167989678Y-116339425D01*
X167900201Y-116506826D01*
X167779785Y-116653553D01*
X167633060Y-116773967D01*
X167465656Y-116863446D01*
X167284020Y-116918546D01*
X167095120Y-116937150D01*
X166906221Y-116918546D01*
X166724585Y-116863446D01*
X166557181Y-116773967D01*
X166410456Y-116653553D01*
X166290041Y-116506827D01*
X166223587Y-116382500D01*
X166200563Y-116339426D01*
X166200562Y-116339424D01*
X166145462Y-116157788D01*
X166131520Y-116016226D01*
X166131520Y-115616751D01*
X166145462Y-115475189D01*
X166200562Y-115293551D01*
X166290039Y-115126150D01*
X166410455Y-114979423D01*
X166557180Y-114859009D01*
X166724584Y-114769530D01*
X166906220Y-114714430D01*
X167095120Y-114695826D01*
X167284019Y-114714430D01*
X167284019Y-114714430D01*
G37*
G36*
X143529000Y-116764000D02*
X142729000Y-116764000D01*
X142729000Y-114564000D01*
X143529000Y-114564000D01*
X143529000Y-116764000D01*
X143529000Y-116764000D01*
G37*
G36*
X142259000Y-116764000D02*
X141459000Y-116764000D01*
X141459000Y-114564000D01*
X142259000Y-114564000D01*
X142259000Y-116764000D01*
X142259000Y-116764000D01*
G37*
G36*
X140989000Y-116764000D02*
X140189000Y-116764000D01*
X140189000Y-114564000D01*
X140989000Y-114564000D01*
X140989000Y-116764000D01*
X140989000Y-116764000D01*
G37*
G36*
X139719000Y-116764000D02*
X138919000Y-116764000D01*
X138919000Y-114564000D01*
X139719000Y-114564000D01*
X139719000Y-116764000D01*
X139719000Y-116764000D01*
G37*
G36*
X171372000Y-116382500D02*
X168672000Y-116382500D01*
X168672000Y-114782500D01*
X171372000Y-114782500D01*
X171372000Y-116382500D01*
X171372000Y-116382500D01*
G37*
G36*
X183372000Y-116382500D02*
X180672000Y-116382500D01*
X180672000Y-114782500D01*
X183372000Y-114782500D01*
X183372000Y-116382500D01*
X183372000Y-116382500D01*
G37*
G36*
X160053500Y-116291000D02*
X158753500Y-116291000D01*
X158753500Y-115091000D01*
X160053500Y-115091000D01*
X160053500Y-116291000D01*
X160053500Y-116291000D01*
G37*
G36*
X161753500Y-116291000D02*
X160453500Y-116291000D01*
X160453500Y-115091000D01*
X161753500Y-115091000D01*
X161753500Y-116291000D01*
X161753500Y-116291000D01*
G37*
G36*
X122915000Y-116244000D02*
X121015000Y-116244000D01*
X121015000Y-115444000D01*
X122915000Y-115444000D01*
X122915000Y-116244000D01*
X122915000Y-116244000D01*
G37*
G36*
X131322400Y-116237900D02*
X129422400Y-116237900D01*
X129422400Y-115437900D01*
X131322400Y-115437900D01*
X131322400Y-116237900D01*
X131322400Y-116237900D01*
G37*
G36*
X147920000Y-116132000D02*
X146720000Y-116132000D01*
X146720000Y-114832000D01*
X147920000Y-114832000D01*
X147920000Y-116132000D01*
X147920000Y-116132000D01*
G37*
G36*
X136198000Y-115789000D02*
X134898000Y-115789000D01*
X134898000Y-114589000D01*
X136198000Y-114589000D01*
X136198000Y-115789000D01*
X136198000Y-115789000D01*
G37*
G36*
X137898000Y-115789000D02*
X136598000Y-115789000D01*
X136598000Y-114589000D01*
X137898000Y-114589000D01*
X137898000Y-115789000D01*
X137898000Y-115789000D01*
G37*
G36*
X122915000Y-114994000D02*
X121015000Y-114994000D01*
X121015000Y-114194000D01*
X122915000Y-114194000D01*
X122915000Y-114994000D01*
X122915000Y-114994000D01*
G37*
G36*
X131322400Y-114987900D02*
X129422400Y-114987900D01*
X129422400Y-114187900D01*
X131322400Y-114187900D01*
X131322400Y-114987900D01*
X131322400Y-114987900D01*
G37*
G36*
X185064019Y-112174430D02*
X185245657Y-112229530D01*
X185413058Y-112319007D01*
X185559785Y-112439423D01*
X185680199Y-112586148D01*
X185769678Y-112753552D01*
X185824778Y-112935188D01*
X185838720Y-113076750D01*
X185838720Y-113476225D01*
X185824778Y-113617787D01*
X185769678Y-113799425D01*
X185680201Y-113966826D01*
X185559785Y-114113553D01*
X185413060Y-114233967D01*
X185245656Y-114323446D01*
X185064020Y-114378546D01*
X184875120Y-114397150D01*
X184686221Y-114378546D01*
X184504585Y-114323446D01*
X184337181Y-114233967D01*
X184190456Y-114113553D01*
X184070041Y-113966827D01*
X184033391Y-113898259D01*
X183980563Y-113799426D01*
X183980562Y-113799424D01*
X183925462Y-113617788D01*
X183911520Y-113476226D01*
X183911520Y-113076751D01*
X183925462Y-112935189D01*
X183980562Y-112753551D01*
X184070039Y-112586150D01*
X184190455Y-112439423D01*
X184337180Y-112319009D01*
X184504584Y-112229530D01*
X184686220Y-112174430D01*
X184875120Y-112155826D01*
X185064019Y-112174430D01*
X185064019Y-112174430D01*
G37*
G36*
X167284019Y-112174430D02*
X167465657Y-112229530D01*
X167633058Y-112319007D01*
X167779785Y-112439423D01*
X167900199Y-112586148D01*
X167989678Y-112753552D01*
X168044778Y-112935188D01*
X168058720Y-113076750D01*
X168058720Y-113476225D01*
X168044778Y-113617787D01*
X167989678Y-113799425D01*
X167900201Y-113966826D01*
X167779785Y-114113553D01*
X167633060Y-114233967D01*
X167465656Y-114323446D01*
X167284020Y-114378546D01*
X167095120Y-114397150D01*
X166906221Y-114378546D01*
X166724585Y-114323446D01*
X166557181Y-114233967D01*
X166410456Y-114113553D01*
X166290041Y-113966827D01*
X166253391Y-113898259D01*
X166200563Y-113799426D01*
X166200562Y-113799424D01*
X166145462Y-113617788D01*
X166131520Y-113476226D01*
X166131520Y-113076751D01*
X166145462Y-112935189D01*
X166200562Y-112753551D01*
X166290039Y-112586150D01*
X166410455Y-112439423D01*
X166557180Y-112319009D01*
X166724584Y-112229530D01*
X166906220Y-112174430D01*
X167095120Y-112155826D01*
X167284019Y-112174430D01*
X167284019Y-112174430D01*
G37*
G36*
X190765072Y-112357431D02*
X190940435Y-112430068D01*
X191098262Y-112535525D01*
X191232475Y-112669738D01*
X191337932Y-112827565D01*
X191410569Y-113002928D01*
X191447600Y-113189094D01*
X191447600Y-113378906D01*
X191410569Y-113565072D01*
X191337932Y-113740435D01*
X191232475Y-113898262D01*
X191098262Y-114032475D01*
X190940435Y-114137932D01*
X190765072Y-114210569D01*
X190578906Y-114247600D01*
X190389094Y-114247600D01*
X190202928Y-114210569D01*
X190027565Y-114137932D01*
X189869738Y-114032475D01*
X189735525Y-113898262D01*
X189630068Y-113740435D01*
X189557431Y-113565072D01*
X189520400Y-113378906D01*
X189520400Y-113189094D01*
X189557431Y-113002928D01*
X189630068Y-112827565D01*
X189735525Y-112669738D01*
X189869738Y-112535525D01*
X190027565Y-112430068D01*
X190202928Y-112357431D01*
X190389094Y-112320400D01*
X190578906Y-112320400D01*
X190765072Y-112357431D01*
X190765072Y-112357431D01*
G37*
G36*
X171372000Y-114082500D02*
X168672000Y-114082500D01*
X168672000Y-112482500D01*
X171372000Y-112482500D01*
X171372000Y-114082500D01*
X171372000Y-114082500D01*
G37*
G36*
X183372000Y-114082500D02*
X180672000Y-114082500D01*
X180672000Y-112482500D01*
X183372000Y-112482500D01*
X183372000Y-114082500D01*
X183372000Y-114082500D01*
G37*
G36*
X143348000Y-113768000D02*
X142148000Y-113768000D01*
X142148000Y-112468000D01*
X143348000Y-112468000D01*
X143348000Y-113768000D01*
X143348000Y-113768000D01*
G37*
G36*
X141189000Y-113768000D02*
X139989000Y-113768000D01*
X139989000Y-112468000D01*
X141189000Y-112468000D01*
X141189000Y-113768000D01*
X141189000Y-113768000D01*
G37*
G36*
X120115000Y-113344000D02*
X117115000Y-113344000D01*
X117115000Y-112144000D01*
X120115000Y-112144000D01*
X120115000Y-113344000D01*
X120115000Y-113344000D01*
G37*
G36*
X128522400Y-113337900D02*
X125522400Y-113337900D01*
X125522400Y-112137900D01*
X128522400Y-112137900D01*
X128522400Y-113337900D01*
X128522400Y-113337900D01*
G37*
G36*
X141189000Y-112068000D02*
X139989000Y-112068000D01*
X139989000Y-110768000D01*
X141189000Y-110768000D01*
X141189000Y-112068000D01*
X141189000Y-112068000D01*
G37*
G36*
X143348000Y-112068000D02*
X142148000Y-112068000D01*
X142148000Y-110768000D01*
X143348000Y-110768000D01*
X143348000Y-112068000D01*
X143348000Y-112068000D01*
G37*
G36*
X167284019Y-109634430D02*
X167465657Y-109689530D01*
X167633058Y-109779007D01*
X167779785Y-109899423D01*
X167900199Y-110046148D01*
X167989678Y-110213552D01*
X168044778Y-110395188D01*
X168058720Y-110536750D01*
X168058720Y-110936225D01*
X168044778Y-111077787D01*
X167989678Y-111259425D01*
X167900201Y-111426826D01*
X167779785Y-111573553D01*
X167633060Y-111693967D01*
X167465656Y-111783446D01*
X167284020Y-111838546D01*
X167095120Y-111857150D01*
X166906221Y-111838546D01*
X166724585Y-111783446D01*
X166557181Y-111693967D01*
X166410456Y-111573553D01*
X166290041Y-111426827D01*
X166253391Y-111358259D01*
X166200563Y-111259426D01*
X166182668Y-111200436D01*
X166145462Y-111077788D01*
X166131520Y-110936226D01*
X166131520Y-110536751D01*
X166145462Y-110395189D01*
X166200562Y-110213551D01*
X166290039Y-110046150D01*
X166410455Y-109899423D01*
X166557180Y-109779009D01*
X166724584Y-109689530D01*
X166906220Y-109634430D01*
X167095120Y-109615826D01*
X167284019Y-109634430D01*
X167284019Y-109634430D01*
G37*
G36*
X185064019Y-109634430D02*
X185245657Y-109689530D01*
X185413058Y-109779007D01*
X185559785Y-109899423D01*
X185680199Y-110046148D01*
X185769678Y-110213552D01*
X185824778Y-110395188D01*
X185838720Y-110536750D01*
X185838720Y-110936225D01*
X185824778Y-111077787D01*
X185769678Y-111259425D01*
X185680201Y-111426826D01*
X185559785Y-111573553D01*
X185413060Y-111693967D01*
X185245656Y-111783446D01*
X185064020Y-111838546D01*
X184875120Y-111857150D01*
X184686221Y-111838546D01*
X184504585Y-111783446D01*
X184337181Y-111693967D01*
X184190456Y-111573553D01*
X184070041Y-111426827D01*
X184033391Y-111358259D01*
X183980563Y-111259426D01*
X183962668Y-111200436D01*
X183925462Y-111077788D01*
X183911520Y-110936226D01*
X183911520Y-110536751D01*
X183925462Y-110395189D01*
X183980562Y-110213551D01*
X184070039Y-110046150D01*
X184190455Y-109899423D01*
X184337180Y-109779009D01*
X184504584Y-109689530D01*
X184686220Y-109634430D01*
X184875120Y-109615826D01*
X185064019Y-109634430D01*
X185064019Y-109634430D01*
G37*
G36*
X171372000Y-111782500D02*
X168672000Y-111782500D01*
X168672000Y-110182500D01*
X171372000Y-110182500D01*
X171372000Y-111782500D01*
X171372000Y-111782500D01*
G37*
G36*
X183372000Y-111782500D02*
X180672000Y-111782500D01*
X180672000Y-110182500D01*
X183372000Y-110182500D01*
X183372000Y-111782500D01*
X183372000Y-111782500D01*
G37*
G36*
X190765072Y-109817431D02*
X190940435Y-109890068D01*
X191098262Y-109995525D01*
X191232475Y-110129738D01*
X191337932Y-110287565D01*
X191410569Y-110462928D01*
X191447600Y-110649094D01*
X191447600Y-110838906D01*
X191410569Y-111025072D01*
X191337932Y-111200435D01*
X191232475Y-111358262D01*
X191098262Y-111492475D01*
X190940435Y-111597932D01*
X190765072Y-111670569D01*
X190578906Y-111707600D01*
X190389094Y-111707600D01*
X190202928Y-111670569D01*
X190027565Y-111597932D01*
X189869738Y-111492475D01*
X189735525Y-111358262D01*
X189630068Y-111200435D01*
X189557431Y-111025072D01*
X189520400Y-110838906D01*
X189520400Y-110649094D01*
X189557431Y-110462928D01*
X189630068Y-110287565D01*
X189735525Y-110129738D01*
X189869738Y-109995525D01*
X190027565Y-109890068D01*
X190202928Y-109817431D01*
X190389094Y-109780400D01*
X190578906Y-109780400D01*
X190765072Y-109817431D01*
X190765072Y-109817431D01*
G37*
G36*
X161684200Y-111674200D02*
X160384200Y-111674200D01*
X160384200Y-110474200D01*
X161684200Y-110474200D01*
X161684200Y-111674200D01*
X161684200Y-111674200D01*
G37*
G36*
X159984200Y-111674200D02*
X158684200Y-111674200D01*
X158684200Y-110474200D01*
X159984200Y-110474200D01*
X159984200Y-111674200D01*
X159984200Y-111674200D01*
G37*
G36*
X120115000Y-111142000D02*
X117115000Y-111142000D01*
X117115000Y-109942000D01*
X120115000Y-109942000D01*
X120115000Y-111142000D01*
X120115000Y-111142000D01*
G37*
G36*
X155976600Y-110617000D02*
X149676600Y-110617000D01*
X149676600Y-108917000D01*
X155976600Y-108917000D01*
X155976600Y-110617000D01*
X155976600Y-110617000D01*
G37*
G36*
X148605800Y-109968200D02*
X147405800Y-109968200D01*
X147405800Y-108668200D01*
X148605800Y-108668200D01*
X148605800Y-109968200D01*
X148605800Y-109968200D01*
G37*
G36*
X183372000Y-109482500D02*
X180672000Y-109482500D01*
X180672000Y-107882500D01*
X183372000Y-107882500D01*
X183372000Y-109482500D01*
X183372000Y-109482500D01*
G37*
G36*
X171372000Y-109482500D02*
X168672000Y-109482500D01*
X168672000Y-107882500D01*
X171372000Y-107882500D01*
X171372000Y-109482500D01*
X171372000Y-109482500D01*
G37*
G36*
X197184026Y-107050115D02*
X197402412Y-107140573D01*
X197598958Y-107271901D01*
X197766099Y-107439042D01*
X197897427Y-107635588D01*
X197987885Y-107853974D01*
X198034000Y-108085809D01*
X198034000Y-108322191D01*
X197987885Y-108554026D01*
X197897427Y-108772412D01*
X197766099Y-108968958D01*
X197598958Y-109136099D01*
X197402412Y-109267427D01*
X197184026Y-109357885D01*
X196952191Y-109404000D01*
X196715809Y-109404000D01*
X196483974Y-109357885D01*
X196265588Y-109267427D01*
X196069042Y-109136099D01*
X195901901Y-108968958D01*
X195770573Y-108772412D01*
X195680115Y-108554026D01*
X195634000Y-108322191D01*
X195634000Y-108085809D01*
X195680115Y-107853974D01*
X195770573Y-107635588D01*
X195901901Y-107439042D01*
X196069042Y-107271901D01*
X196265588Y-107140573D01*
X196483974Y-107050115D01*
X196715809Y-107004000D01*
X196952191Y-107004000D01*
X197184026Y-107050115D01*
X197184026Y-107050115D01*
G37*
G36*
X161690000Y-109361836D02*
X160390000Y-109361836D01*
X160390000Y-108161836D01*
X161690000Y-108161836D01*
X161690000Y-109361836D01*
X161690000Y-109361836D01*
G37*
G36*
X159990000Y-109361836D02*
X158690000Y-109361836D01*
X158690000Y-108161836D01*
X159990000Y-108161836D01*
X159990000Y-109361836D01*
X159990000Y-109361836D01*
G37*
G36*
X122915000Y-109092000D02*
X121015000Y-109092000D01*
X121015000Y-108292000D01*
X122915000Y-108292000D01*
X122915000Y-109092000D01*
X122915000Y-109092000D01*
G37*
G36*
X148605800Y-108268200D02*
X147405800Y-108268200D01*
X147405800Y-106968200D01*
X148605800Y-106968200D01*
X148605800Y-108268200D01*
X148605800Y-108268200D01*
G37*
G36*
X156602600Y-107915000D02*
X155302600Y-107915000D01*
X155302600Y-106715000D01*
X156602600Y-106715000D01*
X156602600Y-107915000D01*
X156602600Y-107915000D01*
G37*
G36*
X154902600Y-107915000D02*
X153602600Y-107915000D01*
X153602600Y-106715000D01*
X154902600Y-106715000D01*
X154902600Y-107915000D01*
X154902600Y-107915000D01*
G37*
G36*
X150996000Y-107915000D02*
X149696000Y-107915000D01*
X149696000Y-106715000D01*
X150996000Y-106715000D01*
X150996000Y-107915000D01*
X150996000Y-107915000D01*
G37*
G36*
X152696000Y-107915000D02*
X151396000Y-107915000D01*
X151396000Y-106715000D01*
X152696000Y-106715000D01*
X152696000Y-107915000D01*
X152696000Y-107915000D01*
G37*
G36*
X122915000Y-107842000D02*
X121015000Y-107842000D01*
X121015000Y-107042000D01*
X122915000Y-107042000D01*
X122915000Y-107842000D01*
X122915000Y-107842000D01*
G37*
G36*
X159990000Y-107583836D02*
X158690000Y-107583836D01*
X158690000Y-106383836D01*
X159990000Y-106383836D01*
X159990000Y-107583836D01*
X159990000Y-107583836D01*
G37*
G36*
X161690000Y-107583836D02*
X160390000Y-107583836D01*
X160390000Y-106383836D01*
X161690000Y-106383836D01*
X161690000Y-107583836D01*
X161690000Y-107583836D01*
G37*
G36*
X133743100Y-107461000D02*
X130543100Y-107461000D01*
X130543100Y-106661000D01*
X133743100Y-106661000D01*
X133743100Y-107461000D01*
X133743100Y-107461000D01*
G37*
G36*
X127343100Y-107461000D02*
X124143100Y-107461000D01*
X124143100Y-106661000D01*
X127343100Y-106661000D01*
X127343100Y-107461000D01*
X127343100Y-107461000D01*
G37*
G36*
X137253459Y-107168393D02*
X136003459Y-107168393D01*
X136003459Y-106318393D01*
X137253459Y-106318393D01*
X137253459Y-107168393D01*
X137253459Y-107168393D01*
G37*
G36*
X141684400Y-107153000D02*
X140384400Y-107153000D01*
X140384400Y-105953000D01*
X141684400Y-105953000D01*
X141684400Y-107153000D01*
X141684400Y-107153000D01*
G37*
G36*
X143384400Y-107153000D02*
X142084400Y-107153000D01*
X142084400Y-105953000D01*
X143384400Y-105953000D01*
X143384400Y-107153000D01*
X143384400Y-107153000D01*
G37*
G36*
X122915000Y-106592000D02*
X121015000Y-106592000D01*
X121015000Y-105792000D01*
X122915000Y-105792000D01*
X122915000Y-106592000D01*
X122915000Y-106592000D01*
G37*
G36*
X139553459Y-106218393D02*
X138303459Y-106218393D01*
X138303459Y-105368393D01*
X139553459Y-105368393D01*
X139553459Y-106218393D01*
X139553459Y-106218393D01*
G37*
G36*
X133743100Y-106191000D02*
X130543100Y-106191000D01*
X130543100Y-105391000D01*
X133743100Y-105391000D01*
X133743100Y-106191000D01*
X133743100Y-106191000D01*
G37*
G36*
X127343100Y-106191000D02*
X124143100Y-106191000D01*
X124143100Y-105391000D01*
X127343100Y-105391000D01*
X127343100Y-106191000D01*
X127343100Y-106191000D01*
G37*
G36*
X135461300Y-105652700D02*
X134261300Y-105652700D01*
X134261300Y-104352700D01*
X135461300Y-104352700D01*
X135461300Y-105652700D01*
X135461300Y-105652700D01*
G37*
G36*
X141684400Y-105502000D02*
X140384400Y-105502000D01*
X140384400Y-104302000D01*
X141684400Y-104302000D01*
X141684400Y-105502000D01*
X141684400Y-105502000D01*
G37*
G36*
X143384400Y-105502000D02*
X142084400Y-105502000D01*
X142084400Y-104302000D01*
X143384400Y-104302000D01*
X143384400Y-105502000D01*
X143384400Y-105502000D01*
G37*
G36*
X137253459Y-105268393D02*
X136003459Y-105268393D01*
X136003459Y-104418393D01*
X137253459Y-104418393D01*
X137253459Y-105268393D01*
X137253459Y-105268393D01*
G37*
G36*
X120115000Y-104942000D02*
X117115000Y-104942000D01*
X117115000Y-103742000D01*
X120115000Y-103742000D01*
X120115000Y-104942000D01*
X120115000Y-104942000D01*
G37*
G36*
X133743100Y-104921000D02*
X130543100Y-104921000D01*
X130543100Y-104121000D01*
X133743100Y-104121000D01*
X133743100Y-104921000D01*
X133743100Y-104921000D01*
G37*
G36*
X127343100Y-104921000D02*
X124143100Y-104921000D01*
X124143100Y-104121000D01*
X127343100Y-104121000D01*
X127343100Y-104921000D01*
X127343100Y-104921000D01*
G37*
G36*
X161753500Y-104228000D02*
X160453500Y-104228000D01*
X160453500Y-103028000D01*
X161753500Y-103028000D01*
X161753500Y-104228000D01*
X161753500Y-104228000D01*
G37*
G36*
X156249500Y-104228000D02*
X154949500Y-104228000D01*
X154949500Y-103028000D01*
X156249500Y-103028000D01*
X156249500Y-104228000D01*
X156249500Y-104228000D01*
G37*
G36*
X151847500Y-104228000D02*
X150547500Y-104228000D01*
X150547500Y-103028000D01*
X151847500Y-103028000D01*
X151847500Y-104228000D01*
X151847500Y-104228000D01*
G37*
G36*
X150147500Y-104228000D02*
X148847500Y-104228000D01*
X148847500Y-103028000D01*
X150147500Y-103028000D01*
X150147500Y-104228000D01*
X150147500Y-104228000D01*
G37*
G36*
X154549500Y-104228000D02*
X153249500Y-104228000D01*
X153249500Y-103028000D01*
X154549500Y-103028000D01*
X154549500Y-104228000D01*
X154549500Y-104228000D01*
G37*
G36*
X160053500Y-104228000D02*
X158753500Y-104228000D01*
X158753500Y-103028000D01*
X160053500Y-103028000D01*
X160053500Y-104228000D01*
X160053500Y-104228000D01*
G37*
G36*
X135461300Y-103952700D02*
X134261300Y-103952700D01*
X134261300Y-102652700D01*
X135461300Y-102652700D01*
X135461300Y-103952700D01*
X135461300Y-103952700D01*
G37*
G36*
X133743100Y-103651000D02*
X130543100Y-103651000D01*
X130543100Y-102851000D01*
X133743100Y-102851000D01*
X133743100Y-103651000D01*
X133743100Y-103651000D01*
G37*
G36*
X127343100Y-103651000D02*
X124143100Y-103651000D01*
X124143100Y-102851000D01*
X127343100Y-102851000D01*
X127343100Y-103651000D01*
X127343100Y-103651000D01*
G37*
G36*
X197184026Y-101204115D02*
X197402412Y-101294573D01*
X197598958Y-101425901D01*
X197766099Y-101593042D01*
X197897427Y-101789588D01*
X197987885Y-102007974D01*
X198034000Y-102239809D01*
X198034000Y-102476191D01*
X197987885Y-102708026D01*
X197897427Y-102926412D01*
X197766099Y-103122958D01*
X197598958Y-103290099D01*
X197402412Y-103421427D01*
X197184026Y-103511885D01*
X196952191Y-103558000D01*
X196715809Y-103558000D01*
X196483974Y-103511885D01*
X196265588Y-103421427D01*
X196069042Y-103290099D01*
X195901901Y-103122958D01*
X195770573Y-102926412D01*
X195680115Y-102708026D01*
X195634000Y-102476191D01*
X195634000Y-102239809D01*
X195680115Y-102007974D01*
X195770573Y-101789588D01*
X195901901Y-101593042D01*
X196069042Y-101425901D01*
X196265588Y-101294573D01*
X196483974Y-101204115D01*
X196715809Y-101158000D01*
X196952191Y-101158000D01*
X197184026Y-101204115D01*
X197184026Y-101204115D01*
G37*
G36*
X141208469Y-103424303D02*
X140008469Y-103424303D01*
X140008469Y-102124303D01*
X141208469Y-102124303D01*
X141208469Y-103424303D01*
X141208469Y-103424303D01*
G37*
G36*
X142862283Y-103424303D02*
X141662283Y-103424303D01*
X141662283Y-102124303D01*
X142862283Y-102124303D01*
X142862283Y-103424303D01*
X142862283Y-103424303D01*
G37*
G36*
X117391000Y-102868000D02*
X116291000Y-102868000D01*
X116291000Y-101168000D01*
X117391000Y-101168000D01*
X117391000Y-102868000D01*
X117391000Y-102868000D01*
G37*
G36*
X120691000Y-102868000D02*
X119591000Y-102868000D01*
X119591000Y-101168000D01*
X120691000Y-101168000D01*
X120691000Y-102868000D01*
X120691000Y-102868000D01*
G37*
G36*
X183377600Y-102696000D02*
X180677600Y-102696000D01*
X180677600Y-101096000D01*
X183377600Y-101096000D01*
X183377600Y-102696000D01*
X183377600Y-102696000D01*
G37*
G36*
X171377600Y-102696000D02*
X168677600Y-102696000D01*
X168677600Y-101096000D01*
X171377600Y-101096000D01*
X171377600Y-102696000D01*
X171377600Y-102696000D01*
G37*
G36*
X160053500Y-102450000D02*
X158753500Y-102450000D01*
X158753500Y-101250000D01*
X160053500Y-101250000D01*
X160053500Y-102450000D01*
X160053500Y-102450000D01*
G37*
G36*
X161753500Y-102450000D02*
X160453500Y-102450000D01*
X160453500Y-101250000D01*
X161753500Y-101250000D01*
X161753500Y-102450000D01*
X161753500Y-102450000D01*
G37*
G36*
X155981200Y-101815000D02*
X149681200Y-101815000D01*
X149681200Y-100115000D01*
X155981200Y-100115000D01*
X155981200Y-101815000D01*
X155981200Y-101815000D01*
G37*
G36*
X141208469Y-101724303D02*
X140008469Y-101724303D01*
X140008469Y-100424303D01*
X141208469Y-100424303D01*
X141208469Y-101724303D01*
X141208469Y-101724303D01*
G37*
G36*
X142862283Y-101724303D02*
X141662283Y-101724303D01*
X141662283Y-100424303D01*
X142862283Y-100424303D01*
X142862283Y-101724303D01*
X142862283Y-101724303D01*
G37*
G36*
X167289619Y-98727930D02*
X167471257Y-98783030D01*
X167638658Y-98872507D01*
X167785385Y-98992923D01*
X167905799Y-99139648D01*
X167995278Y-99307052D01*
X168050378Y-99488688D01*
X168064320Y-99630250D01*
X168064320Y-100029725D01*
X168050378Y-100171287D01*
X167995278Y-100352925D01*
X167905801Y-100520326D01*
X167785385Y-100667053D01*
X167638660Y-100787467D01*
X167471256Y-100876946D01*
X167289620Y-100932046D01*
X167100720Y-100950650D01*
X166911821Y-100932046D01*
X166730185Y-100876946D01*
X166562781Y-100787467D01*
X166416056Y-100667053D01*
X166295641Y-100520327D01*
X166229187Y-100396000D01*
X166206163Y-100352926D01*
X166206162Y-100352924D01*
X166151062Y-100171288D01*
X166137120Y-100029726D01*
X166137120Y-99630251D01*
X166151062Y-99488689D01*
X166206162Y-99307051D01*
X166295639Y-99139650D01*
X166416055Y-98992923D01*
X166562780Y-98872509D01*
X166730184Y-98783030D01*
X166911820Y-98727930D01*
X167100720Y-98709326D01*
X167289619Y-98727930D01*
X167289619Y-98727930D01*
G37*
G36*
X185069619Y-98727930D02*
X185251257Y-98783030D01*
X185418658Y-98872507D01*
X185565385Y-98992923D01*
X185685799Y-99139648D01*
X185775278Y-99307052D01*
X185830378Y-99488688D01*
X185844320Y-99630250D01*
X185844320Y-100029725D01*
X185830378Y-100171287D01*
X185775278Y-100352925D01*
X185685801Y-100520326D01*
X185565385Y-100667053D01*
X185418660Y-100787467D01*
X185251256Y-100876946D01*
X185069620Y-100932046D01*
X184880720Y-100950650D01*
X184691821Y-100932046D01*
X184510185Y-100876946D01*
X184342781Y-100787467D01*
X184196056Y-100667053D01*
X184075641Y-100520327D01*
X184009187Y-100396000D01*
X183986163Y-100352926D01*
X183986162Y-100352924D01*
X183931062Y-100171288D01*
X183917120Y-100029726D01*
X183917120Y-99630251D01*
X183931062Y-99488689D01*
X183986162Y-99307051D01*
X184075639Y-99139650D01*
X184196055Y-98992923D01*
X184342780Y-98872509D01*
X184510184Y-98783030D01*
X184691820Y-98727930D01*
X184880720Y-98709326D01*
X185069619Y-98727930D01*
X185069619Y-98727930D01*
G37*
G36*
X183377600Y-100396000D02*
X180677600Y-100396000D01*
X180677600Y-98796000D01*
X183377600Y-98796000D01*
X183377600Y-100396000D01*
X183377600Y-100396000D01*
G37*
G36*
X171377600Y-100396000D02*
X168677600Y-100396000D01*
X168677600Y-98796000D01*
X171377600Y-98796000D01*
X171377600Y-100396000D01*
X171377600Y-100396000D01*
G37*
G36*
X160053500Y-100291000D02*
X158753500Y-100291000D01*
X158753500Y-99091000D01*
X160053500Y-99091000D01*
X160053500Y-100291000D01*
X160053500Y-100291000D01*
G37*
G36*
X161753500Y-100291000D02*
X160453500Y-100291000D01*
X160453500Y-99091000D01*
X161753500Y-99091000D01*
X161753500Y-100291000D01*
X161753500Y-100291000D01*
G37*
G36*
X137980388Y-95800102D02*
X133773102Y-100007388D01*
X132712441Y-98946727D01*
X136919727Y-94739441D01*
X137980388Y-95800102D01*
X137980388Y-95800102D01*
G37*
G36*
X131828559Y-98946727D02*
X130767898Y-100007388D01*
X126560612Y-95800102D01*
X127621273Y-94739441D01*
X131828559Y-98946727D01*
X131828559Y-98946727D01*
G37*
G36*
X167289619Y-96187930D02*
X167471257Y-96243030D01*
X167638658Y-96332507D01*
X167785385Y-96452923D01*
X167905799Y-96599648D01*
X167995278Y-96767052D01*
X168050378Y-96948688D01*
X168064320Y-97090250D01*
X168064320Y-97489725D01*
X168050378Y-97631287D01*
X167995278Y-97812925D01*
X167905801Y-97980326D01*
X167785385Y-98127053D01*
X167638660Y-98247467D01*
X167471256Y-98336946D01*
X167289620Y-98392046D01*
X167100720Y-98410650D01*
X166911821Y-98392046D01*
X166730185Y-98336946D01*
X166562781Y-98247467D01*
X166416056Y-98127053D01*
X166295641Y-97980327D01*
X166264156Y-97921422D01*
X166206163Y-97812926D01*
X166206162Y-97812924D01*
X166151062Y-97631288D01*
X166137120Y-97489726D01*
X166137120Y-97090251D01*
X166151062Y-96948689D01*
X166206162Y-96767051D01*
X166295639Y-96599650D01*
X166416055Y-96452923D01*
X166562780Y-96332509D01*
X166730184Y-96243030D01*
X166911820Y-96187930D01*
X167100720Y-96169326D01*
X167289619Y-96187930D01*
X167289619Y-96187930D01*
G37*
G36*
X185069619Y-96187930D02*
X185251257Y-96243030D01*
X185418658Y-96332507D01*
X185565385Y-96452923D01*
X185685799Y-96599648D01*
X185775278Y-96767052D01*
X185830378Y-96948688D01*
X185844320Y-97090250D01*
X185844320Y-97489725D01*
X185830378Y-97631287D01*
X185775278Y-97812925D01*
X185685801Y-97980326D01*
X185565385Y-98127053D01*
X185418660Y-98247467D01*
X185251256Y-98336946D01*
X185069620Y-98392046D01*
X184880720Y-98410650D01*
X184691821Y-98392046D01*
X184510185Y-98336946D01*
X184342781Y-98247467D01*
X184196056Y-98127053D01*
X184075641Y-97980327D01*
X184044156Y-97921422D01*
X183986163Y-97812926D01*
X183986162Y-97812924D01*
X183931062Y-97631288D01*
X183917120Y-97489726D01*
X183917120Y-97090251D01*
X183931062Y-96948689D01*
X183986162Y-96767051D01*
X184075639Y-96599650D01*
X184196055Y-96452923D01*
X184342780Y-96332509D01*
X184510184Y-96243030D01*
X184691820Y-96187930D01*
X184880720Y-96169326D01*
X185069619Y-96187930D01*
X185069619Y-96187930D01*
G37*
G36*
X190765072Y-96351431D02*
X190940435Y-96424068D01*
X191098262Y-96529525D01*
X191232475Y-96663738D01*
X191337932Y-96821565D01*
X191410569Y-96996928D01*
X191447600Y-97183094D01*
X191447600Y-97372906D01*
X191410569Y-97559072D01*
X191337932Y-97734435D01*
X191232475Y-97892262D01*
X191098262Y-98026475D01*
X190940435Y-98131932D01*
X190765072Y-98204569D01*
X190578906Y-98241600D01*
X190389094Y-98241600D01*
X190202928Y-98204569D01*
X190027565Y-98131932D01*
X189869738Y-98026475D01*
X189735525Y-97892262D01*
X189630068Y-97734435D01*
X189557431Y-97559072D01*
X189520400Y-97372906D01*
X189520400Y-97183094D01*
X189557431Y-96996928D01*
X189630068Y-96821565D01*
X189735525Y-96663738D01*
X189869738Y-96529525D01*
X190027565Y-96424068D01*
X190202928Y-96351431D01*
X190389094Y-96314400D01*
X190578906Y-96314400D01*
X190765072Y-96351431D01*
X190765072Y-96351431D01*
G37*
G36*
X126772800Y-98186800D02*
X125472800Y-98186800D01*
X125472800Y-96986800D01*
X126772800Y-96986800D01*
X126772800Y-98186800D01*
X126772800Y-98186800D01*
G37*
G36*
X125072800Y-98186800D02*
X123772800Y-98186800D01*
X123772800Y-96986800D01*
X125072800Y-96986800D01*
X125072800Y-98186800D01*
X125072800Y-98186800D01*
G37*
G36*
X183377600Y-98096000D02*
X180677600Y-98096000D01*
X180677600Y-96496000D01*
X183377600Y-96496000D01*
X183377600Y-98096000D01*
X183377600Y-98096000D01*
G37*
G36*
X171377600Y-98096000D02*
X168677600Y-98096000D01*
X168677600Y-96496000D01*
X171377600Y-96496000D01*
X171377600Y-98096000D01*
X171377600Y-98096000D01*
G37*
G36*
X117391000Y-97968000D02*
X116291000Y-97968000D01*
X116291000Y-96268000D01*
X117391000Y-96268000D01*
X117391000Y-97968000D01*
X117391000Y-97968000D01*
G37*
G36*
X120691000Y-97968000D02*
X119591000Y-97968000D01*
X119591000Y-96268000D01*
X120691000Y-96268000D01*
X120691000Y-97968000D01*
X120691000Y-97968000D01*
G37*
G36*
X141684400Y-96180200D02*
X140384400Y-96180200D01*
X140384400Y-94980200D01*
X141684400Y-94980200D01*
X141684400Y-96180200D01*
X141684400Y-96180200D01*
G37*
G36*
X143384400Y-96180200D02*
X142084400Y-96180200D01*
X142084400Y-94980200D01*
X143384400Y-94980200D01*
X143384400Y-96180200D01*
X143384400Y-96180200D01*
G37*
G36*
X167289619Y-93647930D02*
X167471257Y-93703030D01*
X167638658Y-93792507D01*
X167785385Y-93912923D01*
X167905799Y-94059648D01*
X167995278Y-94227052D01*
X168050378Y-94408688D01*
X168064320Y-94550250D01*
X168064320Y-94949725D01*
X168050378Y-95091287D01*
X167995278Y-95272925D01*
X167905801Y-95440326D01*
X167785385Y-95587053D01*
X167638660Y-95707467D01*
X167471256Y-95796946D01*
X167289620Y-95852046D01*
X167100720Y-95870650D01*
X166911821Y-95852046D01*
X166730185Y-95796946D01*
X166562781Y-95707467D01*
X166416056Y-95587053D01*
X166295641Y-95440327D01*
X166280069Y-95411193D01*
X166206163Y-95272926D01*
X166206162Y-95272924D01*
X166151062Y-95091288D01*
X166137120Y-94949726D01*
X166137120Y-94550251D01*
X166151062Y-94408689D01*
X166206162Y-94227051D01*
X166295639Y-94059650D01*
X166416055Y-93912923D01*
X166562780Y-93792509D01*
X166730184Y-93703030D01*
X166911820Y-93647930D01*
X167100720Y-93629326D01*
X167289619Y-93647930D01*
X167289619Y-93647930D01*
G37*
G36*
X185069619Y-93647930D02*
X185251257Y-93703030D01*
X185418658Y-93792507D01*
X185565385Y-93912923D01*
X185685799Y-94059648D01*
X185775278Y-94227052D01*
X185830378Y-94408688D01*
X185844320Y-94550250D01*
X185844320Y-94949725D01*
X185830378Y-95091287D01*
X185775278Y-95272925D01*
X185685801Y-95440326D01*
X185565385Y-95587053D01*
X185418660Y-95707467D01*
X185251256Y-95796946D01*
X185069620Y-95852046D01*
X184880720Y-95870650D01*
X184691821Y-95852046D01*
X184510185Y-95796946D01*
X184342781Y-95707467D01*
X184196056Y-95587053D01*
X184075641Y-95440327D01*
X184060069Y-95411193D01*
X183986163Y-95272926D01*
X183986162Y-95272924D01*
X183931062Y-95091288D01*
X183917120Y-94949726D01*
X183917120Y-94550251D01*
X183931062Y-94408689D01*
X183986162Y-94227051D01*
X184075639Y-94059650D01*
X184196055Y-93912923D01*
X184342780Y-93792509D01*
X184510184Y-93703030D01*
X184691820Y-93647930D01*
X184880720Y-93629326D01*
X185069619Y-93647930D01*
X185069619Y-93647930D01*
G37*
G36*
X171377600Y-95796000D02*
X168677600Y-95796000D01*
X168677600Y-94196000D01*
X171377600Y-94196000D01*
X171377600Y-95796000D01*
X171377600Y-95796000D01*
G37*
G36*
X183377600Y-95796000D02*
X180677600Y-95796000D01*
X180677600Y-94196000D01*
X183377600Y-94196000D01*
X183377600Y-95796000D01*
X183377600Y-95796000D01*
G37*
G36*
X190765072Y-93811431D02*
X190940435Y-93884068D01*
X191098262Y-93989525D01*
X191232475Y-94123738D01*
X191337932Y-94281565D01*
X191410569Y-94456928D01*
X191447600Y-94643094D01*
X191447600Y-94832906D01*
X191410569Y-95019072D01*
X191337932Y-95194435D01*
X191232475Y-95352262D01*
X191098262Y-95486475D01*
X190940435Y-95591932D01*
X190777310Y-95659500D01*
X190765072Y-95664569D01*
X190578906Y-95701600D01*
X190389094Y-95701600D01*
X190202928Y-95664569D01*
X190190690Y-95659500D01*
X190027565Y-95591932D01*
X189869738Y-95486475D01*
X189735525Y-95352262D01*
X189630068Y-95194435D01*
X189557431Y-95019072D01*
X189520400Y-94832906D01*
X189520400Y-94643094D01*
X189557431Y-94456928D01*
X189630068Y-94281565D01*
X189735525Y-94123738D01*
X189869738Y-93989525D01*
X190027565Y-93884068D01*
X190202928Y-93811431D01*
X190389094Y-93774400D01*
X190578906Y-93774400D01*
X190765072Y-93811431D01*
X190765072Y-93811431D01*
G37*
G36*
X161684200Y-95659500D02*
X160384200Y-95659500D01*
X160384200Y-94459500D01*
X161684200Y-94459500D01*
X161684200Y-95659500D01*
X161684200Y-95659500D01*
G37*
G36*
X159984200Y-95659500D02*
X158684200Y-95659500D01*
X158684200Y-94459500D01*
X159984200Y-94459500D01*
X159984200Y-95659500D01*
X159984200Y-95659500D01*
G37*
G36*
X155981200Y-94615000D02*
X149681200Y-94615000D01*
X149681200Y-92915000D01*
X155981200Y-92915000D01*
X155981200Y-94615000D01*
X155981200Y-94615000D01*
G37*
G36*
X141673648Y-94580000D02*
X140373648Y-94580000D01*
X140373648Y-93380000D01*
X141673648Y-93380000D01*
X141673648Y-94580000D01*
X141673648Y-94580000D01*
G37*
G36*
X143373648Y-94580000D02*
X142073648Y-94580000D01*
X142073648Y-93380000D01*
X143373648Y-93380000D01*
X143373648Y-94580000D01*
X143373648Y-94580000D01*
G37*
G36*
X117433000Y-94337000D02*
X116533000Y-94337000D01*
X116533000Y-92687000D01*
X117433000Y-92687000D01*
X117433000Y-94337000D01*
X117433000Y-94337000D01*
G37*
G36*
X119433000Y-94337000D02*
X118533000Y-94337000D01*
X118533000Y-92687000D01*
X119433000Y-92687000D01*
X119433000Y-94337000D01*
X119433000Y-94337000D01*
G37*
G36*
X148504200Y-93966200D02*
X147304200Y-93966200D01*
X147304200Y-92666200D01*
X148504200Y-92666200D01*
X148504200Y-93966200D01*
X148504200Y-93966200D01*
G37*
G36*
X131828559Y-89648273D02*
X127621273Y-93855559D01*
X126560612Y-92794898D01*
X130767898Y-88587612D01*
X131828559Y-89648273D01*
X131828559Y-89648273D01*
G37*
G36*
X137980388Y-92794898D02*
X136919727Y-93855559D01*
X132712441Y-89648273D01*
X133773102Y-88587612D01*
X137980388Y-92794898D01*
X137980388Y-92794898D01*
G37*
G36*
X183377600Y-93496000D02*
X180677600Y-93496000D01*
X180677600Y-91896000D01*
X183377600Y-91896000D01*
X183377600Y-93496000D01*
X183377600Y-93496000D01*
G37*
G36*
X171377600Y-93496000D02*
X168677600Y-93496000D01*
X168677600Y-91896000D01*
X171377600Y-91896000D01*
X171377600Y-93496000D01*
X171377600Y-93496000D01*
G37*
G36*
X197184026Y-91044115D02*
X197402412Y-91134573D01*
X197598958Y-91265901D01*
X197766099Y-91433042D01*
X197897427Y-91629588D01*
X197987885Y-91847974D01*
X198034000Y-92079809D01*
X198034000Y-92316191D01*
X197987885Y-92548026D01*
X197897427Y-92766412D01*
X197766099Y-92962958D01*
X197598958Y-93130099D01*
X197402412Y-93261427D01*
X197184026Y-93351885D01*
X196952191Y-93398000D01*
X196715809Y-93398000D01*
X196483974Y-93351885D01*
X196265588Y-93261427D01*
X196069042Y-93130099D01*
X195901901Y-92962958D01*
X195770573Y-92766412D01*
X195680115Y-92548026D01*
X195634000Y-92316191D01*
X195634000Y-92079809D01*
X195680115Y-91847974D01*
X195770573Y-91629588D01*
X195901901Y-91433042D01*
X196069042Y-91265901D01*
X196265588Y-91134573D01*
X196483974Y-91044115D01*
X196715809Y-90998000D01*
X196952191Y-90998000D01*
X197184026Y-91044115D01*
X197184026Y-91044115D01*
G37*
G36*
X161690000Y-93361836D02*
X160390000Y-93361836D01*
X160390000Y-92161836D01*
X161690000Y-92161836D01*
X161690000Y-93361836D01*
X161690000Y-93361836D01*
G37*
G36*
X159990000Y-93361836D02*
X158690000Y-93361836D01*
X158690000Y-92161836D01*
X159990000Y-92161836D01*
X159990000Y-93361836D01*
X159990000Y-93361836D01*
G37*
G36*
X143373648Y-92897298D02*
X142073648Y-92897298D01*
X142073648Y-91697298D01*
X143373648Y-91697298D01*
X143373648Y-92897298D01*
X143373648Y-92897298D01*
G37*
G36*
X141673648Y-92897298D02*
X140373648Y-92897298D01*
X140373648Y-91697298D01*
X141673648Y-91697298D01*
X141673648Y-92897298D01*
X141673648Y-92897298D01*
G37*
G36*
X148504200Y-92266200D02*
X147304200Y-92266200D01*
X147304200Y-90966200D01*
X148504200Y-90966200D01*
X148504200Y-92266200D01*
X148504200Y-92266200D01*
G37*
G36*
X156592400Y-91913000D02*
X155292400Y-91913000D01*
X155292400Y-90713000D01*
X156592400Y-90713000D01*
X156592400Y-91913000D01*
X156592400Y-91913000D01*
G37*
G36*
X151006200Y-91913000D02*
X149706200Y-91913000D01*
X149706200Y-90713000D01*
X151006200Y-90713000D01*
X151006200Y-91913000D01*
X151006200Y-91913000D01*
G37*
G36*
X154892400Y-91913000D02*
X153592400Y-91913000D01*
X153592400Y-90713000D01*
X154892400Y-90713000D01*
X154892400Y-91913000D01*
X154892400Y-91913000D01*
G37*
G36*
X152706200Y-91913000D02*
X151406200Y-91913000D01*
X151406200Y-90713000D01*
X152706200Y-90713000D01*
X152706200Y-91913000D01*
X152706200Y-91913000D01*
G37*
G36*
X159990000Y-91583836D02*
X158690000Y-91583836D01*
X158690000Y-90383836D01*
X159990000Y-90383836D01*
X159990000Y-91583836D01*
X159990000Y-91583836D01*
G37*
G36*
X161690000Y-91583836D02*
X160390000Y-91583836D01*
X160390000Y-90383836D01*
X161690000Y-90383836D01*
X161690000Y-91583836D01*
X161690000Y-91583836D01*
G37*
G36*
X119433000Y-89177000D02*
X118533000Y-89177000D01*
X118533000Y-87527000D01*
X119433000Y-87527000D01*
X119433000Y-89177000D01*
X119433000Y-89177000D01*
G37*
G36*
X117433000Y-89177000D02*
X116533000Y-89177000D01*
X116533000Y-87527000D01*
X117433000Y-87527000D01*
X117433000Y-89177000D01*
X117433000Y-89177000D01*
G37*
G36*
X137125000Y-88815000D02*
X135925000Y-88815000D01*
X135925000Y-87515000D01*
X137125000Y-87515000D01*
X137125000Y-88815000D01*
X137125000Y-88815000D01*
G37*
G36*
X138776000Y-88815000D02*
X137576000Y-88815000D01*
X137576000Y-87515000D01*
X138776000Y-87515000D01*
X138776000Y-88815000D01*
X138776000Y-88815000D01*
G37*
G36*
X133599582Y-87029657D02*
X132114657Y-88514582D01*
X131195418Y-87595343D01*
X132680343Y-86110418D01*
X133599582Y-87029657D01*
X133599582Y-87029657D01*
G37*
G36*
X128387400Y-88469600D02*
X127187400Y-88469600D01*
X127187400Y-87169600D01*
X128387400Y-87169600D01*
X128387400Y-88469600D01*
X128387400Y-88469600D01*
G37*
G36*
X126609400Y-88469600D02*
X125409400Y-88469600D01*
X125409400Y-87169600D01*
X126609400Y-87169600D01*
X126609400Y-88469600D01*
X126609400Y-88469600D01*
G37*
G36*
X150147500Y-88228000D02*
X148847500Y-88228000D01*
X148847500Y-87028000D01*
X150147500Y-87028000D01*
X150147500Y-88228000D01*
X150147500Y-88228000D01*
G37*
G36*
X160053500Y-88228000D02*
X158753500Y-88228000D01*
X158753500Y-87028000D01*
X160053500Y-87028000D01*
X160053500Y-88228000D01*
X160053500Y-88228000D01*
G37*
G36*
X161753500Y-88228000D02*
X160453500Y-88228000D01*
X160453500Y-87028000D01*
X161753500Y-87028000D01*
X161753500Y-88228000D01*
X161753500Y-88228000D01*
G37*
G36*
X156249500Y-88228000D02*
X154949500Y-88228000D01*
X154949500Y-87028000D01*
X156249500Y-87028000D01*
X156249500Y-88228000D01*
X156249500Y-88228000D01*
G37*
G36*
X154549500Y-88228000D02*
X153249500Y-88228000D01*
X153249500Y-87028000D01*
X154549500Y-87028000D01*
X154549500Y-88228000D01*
X154549500Y-88228000D01*
G37*
G36*
X151847500Y-88228000D02*
X150547500Y-88228000D01*
X150547500Y-87028000D01*
X151847500Y-87028000D01*
X151847500Y-88228000D01*
X151847500Y-88228000D01*
G37*
G36*
X124856800Y-88063200D02*
X123656800Y-88063200D01*
X123656800Y-86763200D01*
X124856800Y-86763200D01*
X124856800Y-88063200D01*
X124856800Y-88063200D01*
G37*
G36*
X123078800Y-88063200D02*
X121878800Y-88063200D01*
X121878800Y-86763200D01*
X123078800Y-86763200D01*
X123078800Y-88063200D01*
X123078800Y-88063200D01*
G37*
G36*
X197184026Y-85206115D02*
X197402412Y-85296573D01*
X197598958Y-85427901D01*
X197766099Y-85595042D01*
X197897427Y-85791588D01*
X197987885Y-86009974D01*
X198034000Y-86241809D01*
X198034000Y-86478191D01*
X197987885Y-86710026D01*
X197897427Y-86928412D01*
X197766099Y-87124958D01*
X197598958Y-87292099D01*
X197402412Y-87423427D01*
X197184026Y-87513885D01*
X196952191Y-87560000D01*
X196715809Y-87560000D01*
X196483974Y-87513885D01*
X196265588Y-87423427D01*
X196069042Y-87292099D01*
X195901901Y-87124958D01*
X195770573Y-86928412D01*
X195680115Y-86710026D01*
X195634000Y-86478191D01*
X195634000Y-86241809D01*
X195680115Y-86009974D01*
X195770573Y-85791588D01*
X195901901Y-85595042D01*
X196069042Y-85427901D01*
X196265588Y-85296573D01*
X196483974Y-85206115D01*
X196715809Y-85160000D01*
X196952191Y-85160000D01*
X197184026Y-85206115D01*
X197184026Y-85206115D01*
G37*
G36*
X138776000Y-87115000D02*
X137576000Y-87115000D01*
X137576000Y-85815000D01*
X138776000Y-85815000D01*
X138776000Y-87115000D01*
X138776000Y-87115000D01*
G37*
G36*
X137125000Y-87115000D02*
X135925000Y-87115000D01*
X135925000Y-85815000D01*
X137125000Y-85815000D01*
X137125000Y-87115000D01*
X137125000Y-87115000D01*
G37*
G36*
X117647594Y-86833000D02*
X116347594Y-86833000D01*
X116347594Y-85633000D01*
X117647594Y-85633000D01*
X117647594Y-86833000D01*
X117647594Y-86833000D01*
G37*
G36*
X119347594Y-86833000D02*
X118047594Y-86833000D01*
X118047594Y-85633000D01*
X119347594Y-85633000D01*
X119347594Y-86833000D01*
X119347594Y-86833000D01*
G37*
G36*
X126609400Y-86769600D02*
X125409400Y-86769600D01*
X125409400Y-85469600D01*
X126609400Y-85469600D01*
X126609400Y-86769600D01*
X126609400Y-86769600D01*
G37*
G36*
X128387400Y-86769600D02*
X127187400Y-86769600D01*
X127187400Y-85469600D01*
X128387400Y-85469600D01*
X128387400Y-86769600D01*
X128387400Y-86769600D01*
G37*
G36*
X131831816Y-85261891D02*
X130346891Y-86746816D01*
X129427652Y-85827577D01*
X130912577Y-84342652D01*
X131831816Y-85261891D01*
X131831816Y-85261891D01*
G37*
G36*
X171377600Y-86666000D02*
X168677600Y-86666000D01*
X168677600Y-85066000D01*
X171377600Y-85066000D01*
X171377600Y-86666000D01*
X171377600Y-86666000D01*
G37*
G36*
X183377600Y-86666000D02*
X180677600Y-86666000D01*
X180677600Y-85066000D01*
X183377600Y-85066000D01*
X183377600Y-86666000D01*
X183377600Y-86666000D01*
G37*
G36*
X134902843Y-85655686D02*
X133983604Y-86574925D01*
X133135075Y-85726396D01*
X134054314Y-84807157D01*
X134902843Y-85655686D01*
X134902843Y-85655686D01*
G37*
G36*
X161753500Y-86450000D02*
X160453500Y-86450000D01*
X160453500Y-85250000D01*
X161753500Y-85250000D01*
X161753500Y-86450000D01*
X161753500Y-86450000D01*
G37*
G36*
X160053500Y-86450000D02*
X158753500Y-86450000D01*
X158753500Y-85250000D01*
X160053500Y-85250000D01*
X160053500Y-86450000D01*
X160053500Y-86450000D01*
G37*
G36*
X124856800Y-86363200D02*
X123656800Y-86363200D01*
X123656800Y-85063200D01*
X124856800Y-85063200D01*
X124856800Y-86363200D01*
X124856800Y-86363200D01*
G37*
G36*
X123078800Y-86363200D02*
X121878800Y-86363200D01*
X121878800Y-85063200D01*
X123078800Y-85063200D01*
X123078800Y-86363200D01*
X123078800Y-86363200D01*
G37*
G36*
X155987000Y-85863800D02*
X149687000Y-85863800D01*
X149687000Y-84163800D01*
X155987000Y-84163800D01*
X155987000Y-85863800D01*
X155987000Y-85863800D01*
G37*
G36*
X136104925Y-84453604D02*
X135185686Y-85372843D01*
X134337157Y-84524314D01*
X135256396Y-83605075D01*
X136104925Y-84453604D01*
X136104925Y-84453604D01*
G37*
G36*
X119347594Y-85055000D02*
X118047594Y-85055000D01*
X118047594Y-83855000D01*
X119347594Y-83855000D01*
X119347594Y-85055000D01*
X119347594Y-85055000D01*
G37*
G36*
X117647594Y-85055000D02*
X116347594Y-85055000D01*
X116347594Y-83855000D01*
X117647594Y-83855000D01*
X117647594Y-85055000D01*
X117647594Y-85055000D01*
G37*
G36*
X185069619Y-82697930D02*
X185251257Y-82753030D01*
X185418658Y-82842507D01*
X185565385Y-82962923D01*
X185685799Y-83109648D01*
X185775278Y-83277052D01*
X185830378Y-83458688D01*
X185844320Y-83600250D01*
X185844320Y-83999725D01*
X185830378Y-84141287D01*
X185775278Y-84322925D01*
X185685801Y-84490326D01*
X185565385Y-84637053D01*
X185418660Y-84757467D01*
X185251256Y-84846946D01*
X185069620Y-84902046D01*
X184880720Y-84920650D01*
X184691821Y-84902046D01*
X184510185Y-84846946D01*
X184342781Y-84757467D01*
X184196056Y-84637053D01*
X184075641Y-84490327D01*
X184009187Y-84366000D01*
X183986163Y-84322926D01*
X183976478Y-84291000D01*
X183931062Y-84141288D01*
X183917120Y-83999726D01*
X183917120Y-83600251D01*
X183931062Y-83458689D01*
X183986162Y-83277051D01*
X184075639Y-83109650D01*
X184196055Y-82962923D01*
X184342780Y-82842509D01*
X184510184Y-82753030D01*
X184691820Y-82697930D01*
X184880720Y-82679326D01*
X185069619Y-82697930D01*
X185069619Y-82697930D01*
G37*
G36*
X167289619Y-82697930D02*
X167471257Y-82753030D01*
X167638658Y-82842507D01*
X167785385Y-82962923D01*
X167905799Y-83109648D01*
X167995278Y-83277052D01*
X168050378Y-83458688D01*
X168064320Y-83600250D01*
X168064320Y-83999725D01*
X168050378Y-84141287D01*
X167995278Y-84322925D01*
X167905801Y-84490326D01*
X167785385Y-84637053D01*
X167638660Y-84757467D01*
X167471256Y-84846946D01*
X167289620Y-84902046D01*
X167100720Y-84920650D01*
X166911821Y-84902046D01*
X166730185Y-84846946D01*
X166562781Y-84757467D01*
X166416056Y-84637053D01*
X166295641Y-84490327D01*
X166229187Y-84366000D01*
X166206163Y-84322926D01*
X166196478Y-84291000D01*
X166151062Y-84141288D01*
X166137120Y-83999726D01*
X166137120Y-83600251D01*
X166151062Y-83458689D01*
X166206162Y-83277051D01*
X166295639Y-83109650D01*
X166416055Y-82962923D01*
X166562780Y-82842509D01*
X166730184Y-82753030D01*
X166911820Y-82697930D01*
X167100720Y-82679326D01*
X167289619Y-82697930D01*
X167289619Y-82697930D01*
G37*
G36*
X133124843Y-83877686D02*
X132205604Y-84796925D01*
X131357075Y-83948396D01*
X132276314Y-83029157D01*
X133124843Y-83877686D01*
X133124843Y-83877686D01*
G37*
G36*
X171377600Y-84366000D02*
X168677600Y-84366000D01*
X168677600Y-82766000D01*
X171377600Y-82766000D01*
X171377600Y-84366000D01*
X171377600Y-84366000D01*
G37*
G36*
X183377600Y-84366000D02*
X180677600Y-84366000D01*
X180677600Y-82766000D01*
X183377600Y-82766000D01*
X183377600Y-84366000D01*
X183377600Y-84366000D01*
G37*
G36*
X161753500Y-84291000D02*
X160453500Y-84291000D01*
X160453500Y-83091000D01*
X161753500Y-83091000D01*
X161753500Y-84291000D01*
X161753500Y-84291000D01*
G37*
G36*
X160053500Y-84291000D02*
X158753500Y-84291000D01*
X158753500Y-83091000D01*
X160053500Y-83091000D01*
X160053500Y-84291000D01*
X160053500Y-84291000D01*
G37*
G36*
X134326925Y-82675604D02*
X133407686Y-83594843D01*
X132559157Y-82746314D01*
X133478396Y-81827075D01*
X134326925Y-82675604D01*
X134326925Y-82675604D01*
G37*
G36*
X185069619Y-80157930D02*
X185251257Y-80213030D01*
X185418658Y-80302507D01*
X185565385Y-80422923D01*
X185685799Y-80569648D01*
X185775278Y-80737052D01*
X185830378Y-80918688D01*
X185844320Y-81060250D01*
X185844320Y-81459725D01*
X185830378Y-81601287D01*
X185775278Y-81782925D01*
X185685801Y-81950326D01*
X185565385Y-82097053D01*
X185418660Y-82217467D01*
X185251256Y-82306946D01*
X185069620Y-82362046D01*
X184880720Y-82380650D01*
X184691821Y-82362046D01*
X184510185Y-82306946D01*
X184342781Y-82217467D01*
X184196056Y-82097053D01*
X184075641Y-81950327D01*
X184071992Y-81943500D01*
X183986163Y-81782926D01*
X183972060Y-81736436D01*
X183931062Y-81601288D01*
X183917120Y-81459726D01*
X183917120Y-81060251D01*
X183931062Y-80918689D01*
X183986162Y-80737051D01*
X184075639Y-80569650D01*
X184196055Y-80422923D01*
X184342780Y-80302509D01*
X184510184Y-80213030D01*
X184691820Y-80157930D01*
X184880720Y-80139326D01*
X185069619Y-80157930D01*
X185069619Y-80157930D01*
G37*
G36*
X167289619Y-80157930D02*
X167471257Y-80213030D01*
X167638658Y-80302507D01*
X167785385Y-80422923D01*
X167905799Y-80569648D01*
X167995278Y-80737052D01*
X168050378Y-80918688D01*
X168064320Y-81060250D01*
X168064320Y-81459725D01*
X168050378Y-81601287D01*
X167995278Y-81782925D01*
X167905801Y-81950326D01*
X167785385Y-82097053D01*
X167638660Y-82217467D01*
X167471256Y-82306946D01*
X167289620Y-82362046D01*
X167100720Y-82380650D01*
X166911821Y-82362046D01*
X166730185Y-82306946D01*
X166562781Y-82217467D01*
X166416056Y-82097053D01*
X166295641Y-81950327D01*
X166291992Y-81943500D01*
X166206163Y-81782926D01*
X166192060Y-81736436D01*
X166151062Y-81601288D01*
X166137120Y-81459726D01*
X166137120Y-81060251D01*
X166151062Y-80918689D01*
X166206162Y-80737051D01*
X166295639Y-80569650D01*
X166416055Y-80422923D01*
X166562780Y-80302509D01*
X166730184Y-80213030D01*
X166911820Y-80157930D01*
X167100720Y-80139326D01*
X167289619Y-80157930D01*
X167289619Y-80157930D01*
G37*
G36*
X190765072Y-80353431D02*
X190940435Y-80426068D01*
X191098262Y-80531525D01*
X191232475Y-80665738D01*
X191337932Y-80823565D01*
X191410569Y-80998928D01*
X191447600Y-81185094D01*
X191447600Y-81374906D01*
X191410569Y-81561072D01*
X191337932Y-81736435D01*
X191232475Y-81894262D01*
X191098262Y-82028475D01*
X190940435Y-82133932D01*
X190765072Y-82206569D01*
X190578906Y-82243600D01*
X190389094Y-82243600D01*
X190202928Y-82206569D01*
X190027565Y-82133932D01*
X189869738Y-82028475D01*
X189735525Y-81894262D01*
X189630068Y-81736435D01*
X189557431Y-81561072D01*
X189520400Y-81374906D01*
X189520400Y-81185094D01*
X189557431Y-80998928D01*
X189630068Y-80823565D01*
X189735525Y-80665738D01*
X189869738Y-80531525D01*
X190027565Y-80426068D01*
X190202928Y-80353431D01*
X190389094Y-80316400D01*
X190578906Y-80316400D01*
X190765072Y-80353431D01*
X190765072Y-80353431D01*
G37*
G36*
X183377600Y-82066000D02*
X180677600Y-82066000D01*
X180677600Y-80466000D01*
X183377600Y-80466000D01*
X183377600Y-82066000D01*
X183377600Y-82066000D01*
G37*
G36*
X171377600Y-82066000D02*
X168677600Y-82066000D01*
X168677600Y-80466000D01*
X171377600Y-80466000D01*
X171377600Y-82066000D01*
X171377600Y-82066000D01*
G37*
G36*
X141341500Y-81943500D02*
X140041500Y-81943500D01*
X140041500Y-80743500D01*
X141341500Y-80743500D01*
X141341500Y-81943500D01*
X141341500Y-81943500D01*
G37*
G36*
X143041500Y-81943500D02*
X141741500Y-81943500D01*
X141741500Y-80743500D01*
X143041500Y-80743500D01*
X143041500Y-81943500D01*
X143041500Y-81943500D01*
G37*
G36*
X119492000Y-80993000D02*
X117192000Y-80993000D01*
X117192000Y-80043000D01*
X119492000Y-80043000D01*
X119492000Y-80993000D01*
X119492000Y-80993000D01*
G37*
G36*
X123092000Y-80993000D02*
X120792000Y-80993000D01*
X120792000Y-80043000D01*
X123092000Y-80043000D01*
X123092000Y-80993000D01*
X123092000Y-80993000D01*
G37*
G36*
X167289619Y-77617930D02*
X167471257Y-77673030D01*
X167638658Y-77762507D01*
X167785385Y-77882923D01*
X167905799Y-78029648D01*
X167995278Y-78197052D01*
X168050378Y-78378688D01*
X168064320Y-78520250D01*
X168064320Y-78919725D01*
X168050378Y-79061287D01*
X167995278Y-79242925D01*
X167905801Y-79410326D01*
X167785385Y-79557053D01*
X167638660Y-79677467D01*
X167471256Y-79766946D01*
X167289620Y-79822046D01*
X167100720Y-79840650D01*
X166911821Y-79822046D01*
X166730185Y-79766946D01*
X166562781Y-79677467D01*
X166416056Y-79557053D01*
X166295641Y-79410327D01*
X166265674Y-79354262D01*
X166206163Y-79242926D01*
X166192060Y-79196436D01*
X166151062Y-79061288D01*
X166137120Y-78919726D01*
X166137120Y-78520251D01*
X166151062Y-78378689D01*
X166206162Y-78197051D01*
X166295639Y-78029650D01*
X166416055Y-77882923D01*
X166562780Y-77762509D01*
X166730184Y-77673030D01*
X166911820Y-77617930D01*
X167100720Y-77599326D01*
X167289619Y-77617930D01*
X167289619Y-77617930D01*
G37*
G36*
X185069619Y-77617930D02*
X185251257Y-77673030D01*
X185418658Y-77762507D01*
X185565385Y-77882923D01*
X185685799Y-78029648D01*
X185775278Y-78197052D01*
X185830378Y-78378688D01*
X185844320Y-78520250D01*
X185844320Y-78919725D01*
X185830378Y-79061287D01*
X185775278Y-79242925D01*
X185685801Y-79410326D01*
X185565385Y-79557053D01*
X185418660Y-79677467D01*
X185251256Y-79766946D01*
X185069620Y-79822046D01*
X184880720Y-79840650D01*
X184691821Y-79822046D01*
X184510185Y-79766946D01*
X184342781Y-79677467D01*
X184196056Y-79557053D01*
X184075641Y-79410327D01*
X184045674Y-79354262D01*
X183986163Y-79242926D01*
X183972060Y-79196436D01*
X183931062Y-79061288D01*
X183917120Y-78919726D01*
X183917120Y-78520251D01*
X183931062Y-78378689D01*
X183986162Y-78197051D01*
X184075639Y-78029650D01*
X184196055Y-77882923D01*
X184342780Y-77762509D01*
X184510184Y-77673030D01*
X184691820Y-77617930D01*
X184880720Y-77599326D01*
X185069619Y-77617930D01*
X185069619Y-77617930D01*
G37*
G36*
X171377600Y-79766000D02*
X168677600Y-79766000D01*
X168677600Y-78166000D01*
X171377600Y-78166000D01*
X171377600Y-79766000D01*
X171377600Y-79766000D01*
G37*
G36*
X183377600Y-79766000D02*
X180677600Y-79766000D01*
X180677600Y-78166000D01*
X183377600Y-78166000D01*
X183377600Y-79766000D01*
X183377600Y-79766000D01*
G37*
G36*
X123092000Y-79723000D02*
X120792000Y-79723000D01*
X120792000Y-78773000D01*
X123092000Y-78773000D01*
X123092000Y-79723000D01*
X123092000Y-79723000D01*
G37*
G36*
X119492000Y-79723000D02*
X117192000Y-79723000D01*
X117192000Y-78773000D01*
X119492000Y-78773000D01*
X119492000Y-79723000D01*
X119492000Y-79723000D01*
G37*
G36*
X190765072Y-77813431D02*
X190940435Y-77886068D01*
X191098262Y-77991525D01*
X191232475Y-78125738D01*
X191337932Y-78283565D01*
X191410569Y-78458928D01*
X191447600Y-78645094D01*
X191447600Y-78834906D01*
X191410569Y-79021072D01*
X191337932Y-79196435D01*
X191232475Y-79354262D01*
X191098262Y-79488475D01*
X190940435Y-79593932D01*
X190786967Y-79657500D01*
X190765072Y-79666569D01*
X190578906Y-79703600D01*
X190389094Y-79703600D01*
X190202928Y-79666569D01*
X190181033Y-79657500D01*
X190027565Y-79593932D01*
X189869738Y-79488475D01*
X189735525Y-79354262D01*
X189630068Y-79196435D01*
X189557431Y-79021072D01*
X189520400Y-78834906D01*
X189520400Y-78645094D01*
X189557431Y-78458928D01*
X189630068Y-78283565D01*
X189735525Y-78125738D01*
X189869738Y-77991525D01*
X190027565Y-77886068D01*
X190202928Y-77813431D01*
X190389094Y-77776400D01*
X190578906Y-77776400D01*
X190765072Y-77813431D01*
X190765072Y-77813431D01*
G37*
G36*
X159984200Y-79657500D02*
X158684200Y-79657500D01*
X158684200Y-78457500D01*
X159984200Y-78457500D01*
X159984200Y-79657500D01*
X159984200Y-79657500D01*
G37*
G36*
X161684200Y-79657500D02*
X160384200Y-79657500D01*
X160384200Y-78457500D01*
X161684200Y-78457500D01*
X161684200Y-79657500D01*
X161684200Y-79657500D01*
G37*
G36*
X139881100Y-79526300D02*
X138881100Y-79526300D01*
X138881100Y-78126300D01*
X139881100Y-78126300D01*
X139881100Y-79526300D01*
X139881100Y-79526300D01*
G37*
G36*
X141981100Y-77326300D02*
X141506100Y-77326300D01*
X141481714Y-77328702D01*
X141458265Y-77335815D01*
X141436654Y-77347366D01*
X141417712Y-77362912D01*
X141402166Y-77381854D01*
X141390615Y-77403465D01*
X141383502Y-77426914D01*
X141381100Y-77451300D01*
X141381100Y-79526300D01*
X140381100Y-79526300D01*
X140381100Y-77451300D01*
X140378698Y-77426914D01*
X140371585Y-77403465D01*
X140360034Y-77381854D01*
X140344488Y-77362912D01*
X140325546Y-77347366D01*
X140303935Y-77335815D01*
X140280486Y-77328702D01*
X140256100Y-77326300D01*
X139781100Y-77326300D01*
X139781100Y-74626300D01*
X141981100Y-74626300D01*
X141981100Y-77326300D01*
X141981100Y-77326300D01*
G37*
G36*
X142881100Y-79526300D02*
X141881100Y-79526300D01*
X141881100Y-78126300D01*
X142881100Y-78126300D01*
X142881100Y-79526300D01*
X142881100Y-79526300D01*
G37*
G36*
X155987000Y-78663800D02*
X149687000Y-78663800D01*
X149687000Y-76963800D01*
X155987000Y-76963800D01*
X155987000Y-78663800D01*
X155987000Y-78663800D01*
G37*
G36*
X123092000Y-78453000D02*
X120792000Y-78453000D01*
X120792000Y-77503000D01*
X123092000Y-77503000D01*
X123092000Y-78453000D01*
X123092000Y-78453000D01*
G37*
G36*
X119492000Y-78453000D02*
X117192000Y-78453000D01*
X117192000Y-77503000D01*
X119492000Y-77503000D01*
X119492000Y-78453000D01*
X119492000Y-78453000D01*
G37*
G36*
X127124970Y-76231372D02*
X127240889Y-76254429D01*
X127422878Y-76329811D01*
X127586663Y-76439249D01*
X127725951Y-76578537D01*
X127835389Y-76742322D01*
X127910771Y-76924311D01*
X127918855Y-76964955D01*
X127949200Y-77117507D01*
X127949200Y-77314493D01*
X127941364Y-77353885D01*
X127910771Y-77507689D01*
X127835389Y-77689678D01*
X127725951Y-77853463D01*
X127586663Y-77992751D01*
X127422878Y-78102189D01*
X127240889Y-78177571D01*
X127142960Y-78197050D01*
X127047693Y-78216000D01*
X126850707Y-78216000D01*
X126755440Y-78197050D01*
X126657511Y-78177571D01*
X126475522Y-78102189D01*
X126311737Y-77992751D01*
X126172449Y-77853463D01*
X126063011Y-77689678D01*
X125987629Y-77507689D01*
X125957036Y-77353885D01*
X125949200Y-77314493D01*
X125949200Y-77117507D01*
X125979545Y-76964955D01*
X125987629Y-76924311D01*
X126063011Y-76742322D01*
X126172449Y-76578537D01*
X126311737Y-76439249D01*
X126475522Y-76329811D01*
X126657511Y-76254429D01*
X126773430Y-76231372D01*
X126850707Y-76216000D01*
X127047693Y-76216000D01*
X127124970Y-76231372D01*
X127124970Y-76231372D01*
G37*
G36*
X148504200Y-77862600D02*
X147304200Y-77862600D01*
X147304200Y-76562600D01*
X148504200Y-76562600D01*
X148504200Y-77862600D01*
X148504200Y-77862600D01*
G37*
G36*
X183377600Y-77466000D02*
X180677600Y-77466000D01*
X180677600Y-75866000D01*
X183377600Y-75866000D01*
X183377600Y-77466000D01*
X183377600Y-77466000D01*
G37*
G36*
X171377600Y-77466000D02*
X168677600Y-77466000D01*
X168677600Y-75866000D01*
X171377600Y-75866000D01*
X171377600Y-77466000D01*
X171377600Y-77466000D01*
G37*
G36*
X197184026Y-75046115D02*
X197402412Y-75136573D01*
X197598958Y-75267901D01*
X197766099Y-75435042D01*
X197897427Y-75631588D01*
X197987885Y-75849974D01*
X198034000Y-76081809D01*
X198034000Y-76318191D01*
X197987885Y-76550026D01*
X197897427Y-76768412D01*
X197766099Y-76964958D01*
X197598958Y-77132099D01*
X197402412Y-77263427D01*
X197184026Y-77353885D01*
X196952191Y-77400000D01*
X196715809Y-77400000D01*
X196483974Y-77353885D01*
X196265588Y-77263427D01*
X196069042Y-77132099D01*
X195901901Y-76964958D01*
X195770573Y-76768412D01*
X195680115Y-76550026D01*
X195634000Y-76318191D01*
X195634000Y-76081809D01*
X195680115Y-75849974D01*
X195770573Y-75631588D01*
X195901901Y-75435042D01*
X196069042Y-75267901D01*
X196265588Y-75136573D01*
X196483974Y-75046115D01*
X196715809Y-75000000D01*
X196952191Y-75000000D01*
X197184026Y-75046115D01*
X197184026Y-75046115D01*
G37*
G36*
X159990000Y-77361836D02*
X158690000Y-77361836D01*
X158690000Y-76161836D01*
X159990000Y-76161836D01*
X159990000Y-77361836D01*
X159990000Y-77361836D01*
G37*
G36*
X161690000Y-77361836D02*
X160390000Y-77361836D01*
X160390000Y-76161836D01*
X161690000Y-76161836D01*
X161690000Y-77361836D01*
X161690000Y-77361836D01*
G37*
G36*
X119492000Y-77183000D02*
X117192000Y-77183000D01*
X117192000Y-76233000D01*
X119492000Y-76233000D01*
X119492000Y-77183000D01*
X119492000Y-77183000D01*
G37*
G36*
X123092000Y-77183000D02*
X120792000Y-77183000D01*
X120792000Y-76233000D01*
X123092000Y-76233000D01*
X123092000Y-77183000D01*
X123092000Y-77183000D01*
G37*
G36*
X148504200Y-76162600D02*
X147304200Y-76162600D01*
X147304200Y-74862600D01*
X148504200Y-74862600D01*
X148504200Y-76162600D01*
X148504200Y-76162600D01*
G37*
G36*
X136075612Y-74196588D02*
X136094554Y-74212134D01*
X136116165Y-74223685D01*
X136139614Y-74230798D01*
X136164000Y-74233200D01*
X137389000Y-74233200D01*
X137389000Y-74708200D01*
X137391402Y-74732586D01*
X137398515Y-74756035D01*
X137410066Y-74777646D01*
X137425612Y-74796588D01*
X137444554Y-74812134D01*
X137466165Y-74823685D01*
X137489614Y-74830798D01*
X137514000Y-74833200D01*
X137639000Y-74833200D01*
X137639000Y-75433200D01*
X137514000Y-75433200D01*
X137489614Y-75435602D01*
X137466165Y-75442715D01*
X137444554Y-75454266D01*
X137425612Y-75469812D01*
X137410066Y-75488754D01*
X137398515Y-75510365D01*
X137391402Y-75533814D01*
X137389000Y-75558200D01*
X137389000Y-76033200D01*
X136164000Y-76033200D01*
X136139614Y-76035602D01*
X136116165Y-76042715D01*
X136094554Y-76054266D01*
X136075612Y-76069812D01*
X136064624Y-76083200D01*
X135339000Y-76083200D01*
X135339000Y-75483200D01*
X135964000Y-75483200D01*
X135988386Y-75480798D01*
X136011835Y-75473685D01*
X136033446Y-75462134D01*
X136052388Y-75446588D01*
X136067934Y-75427646D01*
X136079485Y-75406035D01*
X136086598Y-75382586D01*
X136089000Y-75358200D01*
X136089000Y-74908200D01*
X136086598Y-74883814D01*
X136079485Y-74860365D01*
X136067934Y-74838754D01*
X136052388Y-74819812D01*
X136033446Y-74804266D01*
X136011835Y-74792715D01*
X135988386Y-74785602D01*
X135964000Y-74783200D01*
X135339000Y-74783200D01*
X135339000Y-74183200D01*
X136064624Y-74183200D01*
X136075612Y-74196588D01*
X136075612Y-74196588D01*
G37*
G36*
X119492000Y-75913000D02*
X117192000Y-75913000D01*
X117192000Y-74963000D01*
X119492000Y-74963000D01*
X119492000Y-75913000D01*
X119492000Y-75913000D01*
G37*
G36*
X123092000Y-75913000D02*
X120792000Y-75913000D01*
X120792000Y-74963000D01*
X123092000Y-74963000D01*
X123092000Y-75913000D01*
X123092000Y-75913000D01*
G37*
G36*
X154917800Y-75809400D02*
X153617800Y-75809400D01*
X153617800Y-74609400D01*
X154917800Y-74609400D01*
X154917800Y-75809400D01*
X154917800Y-75809400D01*
G37*
G36*
X152645200Y-75809400D02*
X151345200Y-75809400D01*
X151345200Y-74609400D01*
X152645200Y-74609400D01*
X152645200Y-75809400D01*
X152645200Y-75809400D01*
G37*
G36*
X156617800Y-75809400D02*
X155317800Y-75809400D01*
X155317800Y-74609400D01*
X156617800Y-74609400D01*
X156617800Y-75809400D01*
X156617800Y-75809400D01*
G37*
G36*
X150945200Y-75809400D02*
X149645200Y-75809400D01*
X149645200Y-74609400D01*
X150945200Y-74609400D01*
X150945200Y-75809400D01*
X150945200Y-75809400D01*
G37*
G36*
X161690000Y-75583836D02*
X160390000Y-75583836D01*
X160390000Y-74383836D01*
X161690000Y-74383836D01*
X161690000Y-75583836D01*
X161690000Y-75583836D01*
G37*
G36*
X159990000Y-75583836D02*
X158690000Y-75583836D01*
X158690000Y-74383836D01*
X159990000Y-74383836D01*
X159990000Y-75583836D01*
X159990000Y-75583836D01*
G37*
G36*
X183377600Y-75166000D02*
X180677600Y-75166000D01*
X180677600Y-73566000D01*
X183377600Y-73566000D01*
X183377600Y-75166000D01*
X183377600Y-75166000D01*
G37*
G36*
X171377600Y-75166000D02*
X168677600Y-75166000D01*
X168677600Y-73566000D01*
X171377600Y-73566000D01*
X171377600Y-75166000D01*
X171377600Y-75166000D01*
G37*
G36*
X141684400Y-73510700D02*
X140384400Y-73510700D01*
X140384400Y-72310700D01*
X141684400Y-72310700D01*
X141684400Y-73510700D01*
X141684400Y-73510700D01*
G37*
G36*
X143384400Y-73510700D02*
X142084400Y-73510700D01*
X142084400Y-72310700D01*
X143384400Y-72310700D01*
X143384400Y-73510700D01*
X143384400Y-73510700D01*
G37*
G36*
X137125000Y-73483600D02*
X135925000Y-73483600D01*
X135925000Y-72183600D01*
X137125000Y-72183600D01*
X137125000Y-73483600D01*
X137125000Y-73483600D01*
G37*
G36*
X135448600Y-73382000D02*
X134248600Y-73382000D01*
X134248600Y-72082000D01*
X135448600Y-72082000D01*
X135448600Y-73382000D01*
X135448600Y-73382000D01*
G37*
G36*
X150147500Y-72228000D02*
X148847500Y-72228000D01*
X148847500Y-71028000D01*
X150147500Y-71028000D01*
X150147500Y-72228000D01*
X150147500Y-72228000D01*
G37*
G36*
X160053500Y-72228000D02*
X158753500Y-72228000D01*
X158753500Y-71028000D01*
X160053500Y-71028000D01*
X160053500Y-72228000D01*
X160053500Y-72228000D01*
G37*
G36*
X151847500Y-72228000D02*
X150547500Y-72228000D01*
X150547500Y-71028000D01*
X151847500Y-71028000D01*
X151847500Y-72228000D01*
X151847500Y-72228000D01*
G37*
G36*
X154549500Y-72228000D02*
X153249500Y-72228000D01*
X153249500Y-71028000D01*
X154549500Y-71028000D01*
X154549500Y-72228000D01*
X154549500Y-72228000D01*
G37*
G36*
X161753500Y-72228000D02*
X160453500Y-72228000D01*
X160453500Y-71028000D01*
X161753500Y-71028000D01*
X161753500Y-72228000D01*
X161753500Y-72228000D01*
G37*
G36*
X156249500Y-72228000D02*
X154949500Y-72228000D01*
X154949500Y-71028000D01*
X156249500Y-71028000D01*
X156249500Y-72228000D01*
X156249500Y-72228000D01*
G37*
G36*
X118644521Y-63073586D02*
X118808309Y-63141429D01*
X118955720Y-63239926D01*
X119081074Y-63365280D01*
X119179571Y-63512691D01*
X119247414Y-63676479D01*
X119282000Y-63850356D01*
X119282000Y-64029444D01*
X119279950Y-64050257D01*
X119282351Y-64074643D01*
X119289464Y-64098092D01*
X119301015Y-64119703D01*
X119316560Y-64138646D01*
X119335502Y-64154191D01*
X119357112Y-64165743D01*
X119380561Y-64172857D01*
X119404948Y-64175259D01*
X119429334Y-64172858D01*
X119452785Y-64165744D01*
X119517402Y-64138979D01*
X119642979Y-64114000D01*
X119771021Y-64114000D01*
X119854738Y-64130653D01*
X119896598Y-64138979D01*
X119931245Y-64153330D01*
X120014890Y-64187977D01*
X120121354Y-64259114D01*
X120211886Y-64349646D01*
X120283023Y-64456110D01*
X120332021Y-64574402D01*
X120343693Y-64633080D01*
X120350806Y-64656529D01*
X120362358Y-64678140D01*
X120377903Y-64697082D01*
X120396846Y-64712627D01*
X120418456Y-64724178D01*
X120441906Y-64731291D01*
X120466292Y-64733693D01*
X120490678Y-64731291D01*
X120514127Y-64724178D01*
X120535738Y-64712626D01*
X120554679Y-64697081D01*
X120617646Y-64634114D01*
X120724110Y-64562977D01*
X120807755Y-64528330D01*
X120842402Y-64513979D01*
X120884262Y-64505653D01*
X120967979Y-64489000D01*
X121096021Y-64489000D01*
X121179738Y-64505653D01*
X121221598Y-64513979D01*
X121256245Y-64528330D01*
X121339890Y-64562977D01*
X121446354Y-64634114D01*
X121536886Y-64724646D01*
X121608023Y-64831110D01*
X121617970Y-64855125D01*
X121657021Y-64949402D01*
X121665347Y-64991262D01*
X121682000Y-65074979D01*
X121682000Y-65203021D01*
X121677656Y-65224860D01*
X121657021Y-65328598D01*
X121642670Y-65363245D01*
X121608023Y-65446890D01*
X121536886Y-65553354D01*
X121446354Y-65643886D01*
X121339891Y-65715022D01*
X121319387Y-65723515D01*
X121297776Y-65735067D01*
X121278834Y-65750612D01*
X121263289Y-65769554D01*
X121251738Y-65791165D01*
X121244625Y-65814614D01*
X121242223Y-65839000D01*
X121244625Y-65863387D01*
X121251738Y-65886836D01*
X121263290Y-65908447D01*
X121278835Y-65927389D01*
X121297777Y-65942934D01*
X121319388Y-65954485D01*
X121342837Y-65961598D01*
X121367223Y-65964000D01*
X121732000Y-65964000D01*
X121732000Y-69164000D01*
X121367223Y-69164000D01*
X121342837Y-69166402D01*
X121319388Y-69173515D01*
X121297777Y-69185066D01*
X121278835Y-69200612D01*
X121263289Y-69219554D01*
X121251738Y-69241165D01*
X121244625Y-69264614D01*
X121242223Y-69289000D01*
X121244625Y-69313386D01*
X121251738Y-69336835D01*
X121263289Y-69358446D01*
X121278835Y-69377388D01*
X121297777Y-69392934D01*
X121319387Y-69404485D01*
X121339891Y-69412978D01*
X121446354Y-69484114D01*
X121536886Y-69574646D01*
X121608023Y-69681110D01*
X121621646Y-69714000D01*
X121652289Y-69787977D01*
X121657021Y-69799403D01*
X121682000Y-69924979D01*
X121682000Y-70053021D01*
X121665347Y-70136738D01*
X121657856Y-70174402D01*
X121657021Y-70178597D01*
X121608023Y-70296890D01*
X121536886Y-70403354D01*
X121446354Y-70493886D01*
X121339890Y-70565023D01*
X121256245Y-70599670D01*
X121221598Y-70614021D01*
X121215253Y-70615283D01*
X121096021Y-70639000D01*
X120967979Y-70639000D01*
X120848747Y-70615283D01*
X120842402Y-70614021D01*
X120807755Y-70599670D01*
X120724110Y-70565023D01*
X120617646Y-70493886D01*
X120554679Y-70430919D01*
X120535737Y-70415373D01*
X120514126Y-70403822D01*
X120490677Y-70396709D01*
X120466291Y-70394307D01*
X120441905Y-70396709D01*
X120418456Y-70403822D01*
X120396845Y-70415373D01*
X120377903Y-70430919D01*
X120362357Y-70449861D01*
X120350806Y-70471472D01*
X120343693Y-70494920D01*
X120332021Y-70553598D01*
X120283023Y-70671890D01*
X120211886Y-70778354D01*
X120121354Y-70868886D01*
X120014890Y-70940023D01*
X119933325Y-70973808D01*
X119896598Y-70989021D01*
X119854738Y-70997347D01*
X119771021Y-71014000D01*
X119642979Y-71014000D01*
X119517402Y-70989021D01*
X119452785Y-70962256D01*
X119429336Y-70955143D01*
X119404949Y-70952741D01*
X119380563Y-70955143D01*
X119357114Y-70962256D01*
X119335503Y-70973808D01*
X119316561Y-70989353D01*
X119301016Y-71008295D01*
X119289465Y-71029906D01*
X119282352Y-71053355D01*
X119279950Y-71077742D01*
X119282000Y-71098556D01*
X119282000Y-71277644D01*
X119247414Y-71451521D01*
X119179571Y-71615309D01*
X119081074Y-71762720D01*
X118955720Y-71888074D01*
X118808309Y-71986571D01*
X118644521Y-72054414D01*
X118470644Y-72089000D01*
X118293356Y-72089000D01*
X118119479Y-72054414D01*
X117955691Y-71986571D01*
X117808280Y-71888074D01*
X117682926Y-71762720D01*
X117584429Y-71615309D01*
X117516586Y-71451521D01*
X117482000Y-71277644D01*
X117482000Y-71100356D01*
X117516586Y-70926479D01*
X117584429Y-70762691D01*
X117682926Y-70615280D01*
X117808280Y-70489926D01*
X117955691Y-70391429D01*
X118119479Y-70323586D01*
X118293356Y-70289000D01*
X118470644Y-70289000D01*
X118644521Y-70323586D01*
X118808310Y-70391429D01*
X118862554Y-70427674D01*
X118884165Y-70439225D01*
X118907614Y-70446338D01*
X118932000Y-70448740D01*
X118956386Y-70446338D01*
X118979836Y-70439225D01*
X119001446Y-70427674D01*
X119020388Y-70412128D01*
X119035934Y-70393186D01*
X119047485Y-70371575D01*
X119054598Y-70348126D01*
X119057000Y-70323740D01*
X119057000Y-70299979D01*
X119073653Y-70216262D01*
X119081979Y-70174402D01*
X119096330Y-70139755D01*
X119130977Y-70056110D01*
X119202114Y-69949646D01*
X119292646Y-69859114D01*
X119399110Y-69787977D01*
X119482755Y-69753330D01*
X119517402Y-69738979D01*
X119559262Y-69730653D01*
X119642979Y-69714000D01*
X119771021Y-69714000D01*
X119854738Y-69730653D01*
X119896598Y-69738979D01*
X119931245Y-69753330D01*
X120014890Y-69787977D01*
X120121354Y-69859114D01*
X120184321Y-69922081D01*
X120203263Y-69937627D01*
X120224874Y-69949178D01*
X120248323Y-69956291D01*
X120272709Y-69958693D01*
X120297095Y-69956291D01*
X120320544Y-69949178D01*
X120342155Y-69937627D01*
X120361097Y-69922081D01*
X120376643Y-69903139D01*
X120388194Y-69881528D01*
X120395307Y-69858080D01*
X120406979Y-69799402D01*
X120455977Y-69681110D01*
X120527114Y-69574646D01*
X120617646Y-69484114D01*
X120724109Y-69412978D01*
X120744613Y-69404485D01*
X120766224Y-69392933D01*
X120785166Y-69377388D01*
X120800711Y-69358446D01*
X120812262Y-69336835D01*
X120819375Y-69313386D01*
X120821777Y-69289000D01*
X120819375Y-69264613D01*
X120812262Y-69241164D01*
X120800710Y-69219553D01*
X120785165Y-69200611D01*
X120766223Y-69185066D01*
X120744612Y-69173515D01*
X120721163Y-69166402D01*
X120696777Y-69164000D01*
X118732000Y-69164000D01*
X118732000Y-68182338D01*
X118729598Y-68157952D01*
X118722485Y-68134503D01*
X118710934Y-68112892D01*
X118695388Y-68093950D01*
X118676446Y-68078404D01*
X118654835Y-68066853D01*
X118631386Y-68059740D01*
X118607000Y-68057338D01*
X118582614Y-68059740D01*
X118559165Y-68066853D01*
X118537554Y-68078404D01*
X118518612Y-68093950D01*
X118503071Y-68112886D01*
X118422589Y-68233336D01*
X118276336Y-68379589D01*
X118104362Y-68494498D01*
X117913274Y-68573650D01*
X117732888Y-68609530D01*
X117710417Y-68614000D01*
X117503583Y-68614000D01*
X117481112Y-68609530D01*
X117300726Y-68573650D01*
X117109638Y-68494498D01*
X116937664Y-68379589D01*
X116791411Y-68233336D01*
X116676502Y-68061362D01*
X116597350Y-67870274D01*
X116557000Y-67667416D01*
X116557000Y-67460584D01*
X116597350Y-67257726D01*
X116676502Y-67066638D01*
X116791411Y-66894664D01*
X116937664Y-66748411D01*
X117109638Y-66633502D01*
X117300726Y-66554350D01*
X117481112Y-66518470D01*
X117503583Y-66514000D01*
X117710417Y-66514000D01*
X117732888Y-66518470D01*
X117913274Y-66554350D01*
X118104362Y-66633502D01*
X118276336Y-66748411D01*
X118422589Y-66894664D01*
X118503071Y-67015114D01*
X118518612Y-67034050D01*
X118537554Y-67049596D01*
X118559164Y-67061147D01*
X118582614Y-67068260D01*
X118607000Y-67070662D01*
X118631386Y-67068260D01*
X118654835Y-67061147D01*
X118676446Y-67049596D01*
X118695388Y-67034050D01*
X118710934Y-67015108D01*
X118722485Y-66993498D01*
X118729598Y-66970048D01*
X118732000Y-66945662D01*
X118732000Y-65964000D01*
X120696777Y-65964000D01*
X120721163Y-65961598D01*
X120744612Y-65954485D01*
X120766223Y-65942934D01*
X120785165Y-65927388D01*
X120800711Y-65908446D01*
X120812262Y-65886835D01*
X120819375Y-65863386D01*
X120821777Y-65839000D01*
X120819375Y-65814614D01*
X120812262Y-65791165D01*
X120800711Y-65769554D01*
X120785165Y-65750612D01*
X120766223Y-65735066D01*
X120744613Y-65723515D01*
X120724109Y-65715022D01*
X120617646Y-65643886D01*
X120527114Y-65553354D01*
X120455977Y-65446890D01*
X120406979Y-65328598D01*
X120395307Y-65269920D01*
X120388194Y-65246471D01*
X120376642Y-65224860D01*
X120361097Y-65205918D01*
X120342154Y-65190373D01*
X120320544Y-65178822D01*
X120297094Y-65171709D01*
X120272708Y-65169307D01*
X120248322Y-65171709D01*
X120224873Y-65178822D01*
X120203262Y-65190374D01*
X120184321Y-65205919D01*
X120121354Y-65268886D01*
X120014890Y-65340023D01*
X119931245Y-65374670D01*
X119896598Y-65389021D01*
X119854738Y-65397347D01*
X119771021Y-65414000D01*
X119642979Y-65414000D01*
X119559262Y-65397347D01*
X119517402Y-65389021D01*
X119482755Y-65374670D01*
X119399110Y-65340023D01*
X119292646Y-65268886D01*
X119202114Y-65178354D01*
X119130977Y-65071890D01*
X119081979Y-64953597D01*
X119081145Y-64949402D01*
X119071852Y-64902688D01*
X119057000Y-64828021D01*
X119057000Y-64804260D01*
X119054598Y-64779874D01*
X119047485Y-64756425D01*
X119035934Y-64734814D01*
X119020388Y-64715872D01*
X119001446Y-64700326D01*
X118979835Y-64688775D01*
X118956386Y-64681662D01*
X118932000Y-64679260D01*
X118907614Y-64681662D01*
X118884165Y-64688775D01*
X118862554Y-64700326D01*
X118808310Y-64736571D01*
X118644521Y-64804414D01*
X118470644Y-64839000D01*
X118293356Y-64839000D01*
X118119479Y-64804414D01*
X117955691Y-64736571D01*
X117808280Y-64638074D01*
X117682926Y-64512720D01*
X117584429Y-64365309D01*
X117516586Y-64201521D01*
X117482000Y-64027644D01*
X117482000Y-63850356D01*
X117516586Y-63676479D01*
X117584429Y-63512691D01*
X117682926Y-63365280D01*
X117808280Y-63239926D01*
X117955691Y-63141429D01*
X118119479Y-63073586D01*
X118293356Y-63039000D01*
X118470644Y-63039000D01*
X118644521Y-63073586D01*
X118644521Y-63073586D01*
G37*
G36*
X141684400Y-71834300D02*
X140384400Y-71834300D01*
X140384400Y-70634300D01*
X141684400Y-70634300D01*
X141684400Y-71834300D01*
X141684400Y-71834300D01*
G37*
G36*
X143384400Y-71834300D02*
X142084400Y-71834300D01*
X142084400Y-70634300D01*
X143384400Y-70634300D01*
X143384400Y-71834300D01*
X143384400Y-71834300D01*
G37*
G36*
X137125000Y-71783600D02*
X135925000Y-71783600D01*
X135925000Y-70483600D01*
X137125000Y-70483600D01*
X137125000Y-71783600D01*
X137125000Y-71783600D01*
G37*
G36*
X135448600Y-71682000D02*
X134248600Y-71682000D01*
X134248600Y-70382000D01*
X135448600Y-70382000D01*
X135448600Y-71682000D01*
X135448600Y-71682000D01*
G37*
G36*
X197120526Y-69204115D02*
X197338912Y-69294573D01*
X197535458Y-69425901D01*
X197702599Y-69593042D01*
X197833927Y-69789588D01*
X197924385Y-70007974D01*
X197970500Y-70239809D01*
X197970500Y-70476191D01*
X197924385Y-70708026D01*
X197833927Y-70926412D01*
X197702599Y-71122958D01*
X197535458Y-71290099D01*
X197338912Y-71421427D01*
X197120526Y-71511885D01*
X196888691Y-71558000D01*
X196652309Y-71558000D01*
X196420474Y-71511885D01*
X196202088Y-71421427D01*
X196005542Y-71290099D01*
X195838401Y-71122958D01*
X195707073Y-70926412D01*
X195616615Y-70708026D01*
X195570500Y-70476191D01*
X195570500Y-70239809D01*
X195616615Y-70007974D01*
X195707073Y-69789588D01*
X195838401Y-69593042D01*
X196005542Y-69425901D01*
X196202088Y-69294573D01*
X196420474Y-69204115D01*
X196652309Y-69158000D01*
X196888691Y-69158000D01*
X197120526Y-69204115D01*
X197120526Y-69204115D01*
G37*
G36*
X183377600Y-70650000D02*
X180677600Y-70650000D01*
X180677600Y-69050000D01*
X183377600Y-69050000D01*
X183377600Y-70650000D01*
X183377600Y-70650000D01*
G37*
G36*
X171377600Y-70650000D02*
X168677600Y-70650000D01*
X168677600Y-69050000D01*
X171377600Y-69050000D01*
X171377600Y-70650000D01*
X171377600Y-70650000D01*
G37*
G36*
X161753500Y-70450000D02*
X160453500Y-70450000D01*
X160453500Y-69250000D01*
X161753500Y-69250000D01*
X161753500Y-70450000D01*
X161753500Y-70450000D01*
G37*
G36*
X160053500Y-70450000D02*
X158753500Y-70450000D01*
X158753500Y-69250000D01*
X160053500Y-69250000D01*
X160053500Y-70450000D01*
X160053500Y-70450000D01*
G37*
G36*
X141681900Y-70246800D02*
X140381900Y-70246800D01*
X140381900Y-69046800D01*
X141681900Y-69046800D01*
X141681900Y-70246800D01*
X141681900Y-70246800D01*
G37*
G36*
X143381900Y-70246800D02*
X142081900Y-70246800D01*
X142081900Y-69046800D01*
X143381900Y-69046800D01*
X143381900Y-70246800D01*
X143381900Y-70246800D01*
G37*
G36*
X155981200Y-69836400D02*
X149681200Y-69836400D01*
X149681200Y-68136400D01*
X155981200Y-68136400D01*
X155981200Y-69836400D01*
X155981200Y-69836400D01*
G37*
G36*
X137375000Y-69772000D02*
X135675000Y-69772000D01*
X135675000Y-68572000D01*
X137375000Y-68572000D01*
X137375000Y-69772000D01*
X137375000Y-69772000D01*
G37*
G36*
X185069619Y-66681930D02*
X185251257Y-66737030D01*
X185418658Y-66826507D01*
X185565385Y-66946923D01*
X185685799Y-67093648D01*
X185775278Y-67261052D01*
X185830378Y-67442688D01*
X185844320Y-67584250D01*
X185844320Y-67983725D01*
X185830378Y-68125287D01*
X185775278Y-68306925D01*
X185685801Y-68474326D01*
X185565385Y-68621053D01*
X185418660Y-68741467D01*
X185251256Y-68830946D01*
X185069620Y-68886046D01*
X184880720Y-68904650D01*
X184691821Y-68886046D01*
X184510185Y-68830946D01*
X184342781Y-68741467D01*
X184196056Y-68621053D01*
X184157153Y-68573650D01*
X184075640Y-68474326D01*
X183986163Y-68306926D01*
X183986162Y-68306924D01*
X183931062Y-68125288D01*
X183917120Y-67983726D01*
X183917120Y-67584251D01*
X183931062Y-67442689D01*
X183986162Y-67261051D01*
X184075639Y-67093650D01*
X184196055Y-66946923D01*
X184342780Y-66826509D01*
X184488886Y-66748414D01*
X184510182Y-66737031D01*
X184510184Y-66737030D01*
X184691820Y-66681930D01*
X184880720Y-66663326D01*
X185069619Y-66681930D01*
X185069619Y-66681930D01*
G37*
G36*
X167289619Y-66681930D02*
X167471257Y-66737030D01*
X167638658Y-66826507D01*
X167785385Y-66946923D01*
X167905799Y-67093648D01*
X167995278Y-67261052D01*
X168050378Y-67442688D01*
X168064320Y-67584250D01*
X168064320Y-67983725D01*
X168050378Y-68125287D01*
X167995278Y-68306925D01*
X167905801Y-68474326D01*
X167785385Y-68621053D01*
X167638660Y-68741467D01*
X167471256Y-68830946D01*
X167289620Y-68886046D01*
X167100720Y-68904650D01*
X166911821Y-68886046D01*
X166730185Y-68830946D01*
X166562781Y-68741467D01*
X166416056Y-68621053D01*
X166377153Y-68573650D01*
X166295640Y-68474326D01*
X166206163Y-68306926D01*
X166206162Y-68306924D01*
X166151062Y-68125288D01*
X166137120Y-67983726D01*
X166137120Y-67584251D01*
X166151062Y-67442689D01*
X166206162Y-67261051D01*
X166295639Y-67093650D01*
X166416055Y-66946923D01*
X166562780Y-66826509D01*
X166708886Y-66748414D01*
X166730182Y-66737031D01*
X166730184Y-66737030D01*
X166911820Y-66681930D01*
X167100720Y-66663326D01*
X167289619Y-66681930D01*
X167289619Y-66681930D01*
G37*
G36*
X127715000Y-68633000D02*
X126915000Y-68633000D01*
X126915000Y-67733000D01*
X127715000Y-67733000D01*
X127715000Y-68633000D01*
X127715000Y-68633000D01*
G37*
G36*
X126215000Y-68633000D02*
X125015000Y-68633000D01*
X125015000Y-67733000D01*
X126215000Y-67733000D01*
X126215000Y-68633000D01*
X126215000Y-68633000D01*
G37*
G36*
X183377600Y-68350000D02*
X180677600Y-68350000D01*
X180677600Y-66750000D01*
X183377600Y-66750000D01*
X183377600Y-68350000D01*
X183377600Y-68350000D01*
G37*
G36*
X171377600Y-68350000D02*
X168677600Y-68350000D01*
X168677600Y-66750000D01*
X171377600Y-66750000D01*
X171377600Y-68350000D01*
X171377600Y-68350000D01*
G37*
G36*
X161753500Y-68291000D02*
X160453500Y-68291000D01*
X160453500Y-67091000D01*
X161753500Y-67091000D01*
X161753500Y-68291000D01*
X161753500Y-68291000D01*
G37*
G36*
X160053500Y-68291000D02*
X158753500Y-68291000D01*
X158753500Y-67091000D01*
X160053500Y-67091000D01*
X160053500Y-68291000D01*
X160053500Y-68291000D01*
G37*
G36*
X137375000Y-67572000D02*
X135675000Y-67572000D01*
X135675000Y-66372000D01*
X137375000Y-66372000D01*
X137375000Y-67572000D01*
X137375000Y-67572000D01*
G37*
G36*
X127715000Y-66633000D02*
X126915000Y-66633000D01*
X126915000Y-65733000D01*
X127715000Y-65733000D01*
X127715000Y-66633000D01*
X127715000Y-66633000D01*
G37*
G36*
X125815000Y-66633000D02*
X125015000Y-66633000D01*
X125015000Y-65733000D01*
X125815000Y-65733000D01*
X125815000Y-66633000D01*
X125815000Y-66633000D01*
G37*
G36*
X185069619Y-64141930D02*
X185251257Y-64197030D01*
X185418658Y-64286507D01*
X185565385Y-64406923D01*
X185685799Y-64553648D01*
X185775278Y-64721052D01*
X185830378Y-64902688D01*
X185844320Y-65044250D01*
X185844320Y-65443725D01*
X185830378Y-65585287D01*
X185775278Y-65766925D01*
X185685801Y-65934326D01*
X185565385Y-66081053D01*
X185418660Y-66201467D01*
X185251256Y-66290946D01*
X185069620Y-66346046D01*
X184880720Y-66364650D01*
X184691821Y-66346046D01*
X184510185Y-66290946D01*
X184342781Y-66201467D01*
X184196056Y-66081053D01*
X184092184Y-65954485D01*
X184075640Y-65934326D01*
X183986163Y-65766926D01*
X183986162Y-65766924D01*
X183931062Y-65585288D01*
X183917120Y-65443726D01*
X183917120Y-65044251D01*
X183931062Y-64902689D01*
X183986162Y-64721051D01*
X184075639Y-64553650D01*
X184196055Y-64406923D01*
X184342780Y-64286509D01*
X184510184Y-64197030D01*
X184691820Y-64141930D01*
X184880720Y-64123326D01*
X185069619Y-64141930D01*
X185069619Y-64141930D01*
G37*
G36*
X167289619Y-64141930D02*
X167471257Y-64197030D01*
X167638658Y-64286507D01*
X167785385Y-64406923D01*
X167905799Y-64553648D01*
X167995278Y-64721052D01*
X168050378Y-64902688D01*
X168064320Y-65044250D01*
X168064320Y-65443725D01*
X168050378Y-65585287D01*
X167995278Y-65766925D01*
X167905801Y-65934326D01*
X167785385Y-66081053D01*
X167638660Y-66201467D01*
X167471256Y-66290946D01*
X167289620Y-66346046D01*
X167100720Y-66364650D01*
X166911821Y-66346046D01*
X166730185Y-66290946D01*
X166562781Y-66201467D01*
X166416056Y-66081053D01*
X166312184Y-65954485D01*
X166295640Y-65934326D01*
X166206163Y-65766926D01*
X166206162Y-65766924D01*
X166151062Y-65585288D01*
X166137120Y-65443726D01*
X166137120Y-65044251D01*
X166151062Y-64902689D01*
X166206162Y-64721051D01*
X166295639Y-64553650D01*
X166416055Y-64406923D01*
X166562780Y-64286509D01*
X166730184Y-64197030D01*
X166911820Y-64141930D01*
X167100720Y-64123326D01*
X167289619Y-64141930D01*
X167289619Y-64141930D01*
G37*
G36*
X201038970Y-64344172D02*
X201154889Y-64367229D01*
X201336878Y-64442611D01*
X201500663Y-64552049D01*
X201639951Y-64691337D01*
X201749389Y-64855122D01*
X201824771Y-65037111D01*
X201847828Y-65153030D01*
X201862117Y-65224860D01*
X201863200Y-65230309D01*
X201863200Y-65427291D01*
X201824771Y-65620489D01*
X201749389Y-65802478D01*
X201639951Y-65966263D01*
X201500663Y-66105551D01*
X201336878Y-66214989D01*
X201154889Y-66290371D01*
X201038970Y-66313428D01*
X200961693Y-66328800D01*
X200764707Y-66328800D01*
X200687430Y-66313428D01*
X200571511Y-66290371D01*
X200389522Y-66214989D01*
X200225737Y-66105551D01*
X200086449Y-65966263D01*
X199977011Y-65802478D01*
X199901629Y-65620489D01*
X199863200Y-65427291D01*
X199863200Y-65230309D01*
X199864284Y-65224860D01*
X199878572Y-65153030D01*
X199901629Y-65037111D01*
X199977011Y-64855122D01*
X200086449Y-64691337D01*
X200225737Y-64552049D01*
X200389522Y-64442611D01*
X200571511Y-64367229D01*
X200687430Y-64344172D01*
X200764707Y-64328800D01*
X200961693Y-64328800D01*
X201038970Y-64344172D01*
X201038970Y-64344172D01*
G37*
G36*
X190701572Y-64351431D02*
X190876935Y-64424068D01*
X191034762Y-64529525D01*
X191168975Y-64663738D01*
X191274432Y-64821565D01*
X191347069Y-64996928D01*
X191384100Y-65183094D01*
X191384100Y-65372906D01*
X191347069Y-65559072D01*
X191274432Y-65734435D01*
X191168975Y-65892262D01*
X191034762Y-66026475D01*
X190876935Y-66131932D01*
X190701572Y-66204569D01*
X190515406Y-66241600D01*
X190325594Y-66241600D01*
X190139428Y-66204569D01*
X189964065Y-66131932D01*
X189806238Y-66026475D01*
X189672025Y-65892262D01*
X189566568Y-65734435D01*
X189493931Y-65559072D01*
X189456900Y-65372906D01*
X189456900Y-65183094D01*
X189493931Y-64996928D01*
X189566568Y-64821565D01*
X189672025Y-64663738D01*
X189806238Y-64529525D01*
X189964065Y-64424068D01*
X190139428Y-64351431D01*
X190325594Y-64314400D01*
X190515406Y-64314400D01*
X190701572Y-64351431D01*
X190701572Y-64351431D01*
G37*
G36*
X183377600Y-66050000D02*
X180677600Y-66050000D01*
X180677600Y-64450000D01*
X183377600Y-64450000D01*
X183377600Y-66050000D01*
X183377600Y-66050000D01*
G37*
G36*
X171377600Y-66050000D02*
X168677600Y-66050000D01*
X168677600Y-64450000D01*
X171377600Y-64450000D01*
X171377600Y-66050000D01*
X171377600Y-66050000D01*
G37*
G36*
X167289619Y-61601930D02*
X167471257Y-61657030D01*
X167638658Y-61746507D01*
X167785385Y-61866923D01*
X167905799Y-62013648D01*
X167995278Y-62181052D01*
X168050378Y-62362688D01*
X168064320Y-62504250D01*
X168064320Y-62903725D01*
X168050378Y-63045287D01*
X167995278Y-63226925D01*
X167905801Y-63394326D01*
X167785385Y-63541053D01*
X167638660Y-63661467D01*
X167471256Y-63750946D01*
X167289620Y-63806046D01*
X167100720Y-63824650D01*
X166911821Y-63806046D01*
X166730185Y-63750946D01*
X166562781Y-63661467D01*
X166416056Y-63541053D01*
X166295641Y-63394327D01*
X166280117Y-63365283D01*
X166206163Y-63226926D01*
X166196307Y-63194436D01*
X166151062Y-63045288D01*
X166137120Y-62903726D01*
X166137120Y-62504251D01*
X166151062Y-62362689D01*
X166206162Y-62181051D01*
X166295639Y-62013650D01*
X166416055Y-61866923D01*
X166562780Y-61746509D01*
X166730184Y-61657030D01*
X166911820Y-61601930D01*
X167100720Y-61583326D01*
X167289619Y-61601930D01*
X167289619Y-61601930D01*
G37*
G36*
X185069619Y-61601930D02*
X185251257Y-61657030D01*
X185418658Y-61746507D01*
X185565385Y-61866923D01*
X185685799Y-62013648D01*
X185775278Y-62181052D01*
X185830378Y-62362688D01*
X185844320Y-62504250D01*
X185844320Y-62903725D01*
X185830378Y-63045287D01*
X185775278Y-63226925D01*
X185685801Y-63394326D01*
X185565385Y-63541053D01*
X185418660Y-63661467D01*
X185251256Y-63750946D01*
X185069620Y-63806046D01*
X184880720Y-63824650D01*
X184691821Y-63806046D01*
X184510185Y-63750946D01*
X184342781Y-63661467D01*
X184196056Y-63541053D01*
X184075641Y-63394327D01*
X184060117Y-63365283D01*
X183986163Y-63226926D01*
X183976307Y-63194436D01*
X183931062Y-63045288D01*
X183917120Y-62903726D01*
X183917120Y-62504251D01*
X183931062Y-62362689D01*
X183986162Y-62181051D01*
X184075639Y-62013650D01*
X184196055Y-61866923D01*
X184342780Y-61746509D01*
X184510184Y-61657030D01*
X184691820Y-61601930D01*
X184880720Y-61583326D01*
X185069619Y-61601930D01*
X185069619Y-61601930D01*
G37*
G36*
X183377600Y-63750000D02*
X180677600Y-63750000D01*
X180677600Y-62150000D01*
X183377600Y-62150000D01*
X183377600Y-63750000D01*
X183377600Y-63750000D01*
G37*
G36*
X171377600Y-63750000D02*
X168677600Y-63750000D01*
X168677600Y-62150000D01*
X171377600Y-62150000D01*
X171377600Y-63750000D01*
X171377600Y-63750000D01*
G37*
G36*
X190701572Y-61811431D02*
X190876935Y-61884068D01*
X191034762Y-61989525D01*
X191168975Y-62123738D01*
X191274432Y-62281565D01*
X191347069Y-62456928D01*
X191384100Y-62643094D01*
X191384100Y-62832906D01*
X191347069Y-63019072D01*
X191274432Y-63194435D01*
X191168975Y-63352262D01*
X191034762Y-63486475D01*
X190876935Y-63591932D01*
X190701572Y-63664569D01*
X190515406Y-63701600D01*
X190325594Y-63701600D01*
X190139428Y-63664569D01*
X189964065Y-63591932D01*
X189806238Y-63486475D01*
X189672025Y-63352262D01*
X189566568Y-63194435D01*
X189493931Y-63019072D01*
X189456900Y-62832906D01*
X189456900Y-62643094D01*
X189493931Y-62456928D01*
X189566568Y-62281565D01*
X189672025Y-62123738D01*
X189806238Y-61989525D01*
X189964065Y-61884068D01*
X190139428Y-61811431D01*
X190325594Y-61774400D01*
X190515406Y-61774400D01*
X190701572Y-61811431D01*
X190701572Y-61811431D01*
G37*
G36*
X159997800Y-63655500D02*
X158697800Y-63655500D01*
X158697800Y-62455500D01*
X159997800Y-62455500D01*
X159997800Y-63655500D01*
X159997800Y-63655500D01*
G37*
G36*
X161697800Y-63655500D02*
X160397800Y-63655500D01*
X160397800Y-62455500D01*
X161697800Y-62455500D01*
X161697800Y-63655500D01*
X161697800Y-63655500D01*
G37*
G36*
X155981200Y-62636400D02*
X149681200Y-62636400D01*
X149681200Y-60936400D01*
X155981200Y-60936400D01*
X155981200Y-62636400D01*
X155981200Y-62636400D01*
G37*
G36*
X148758200Y-62114600D02*
X147558200Y-62114600D01*
X147558200Y-60814600D01*
X148758200Y-60814600D01*
X148758200Y-62114600D01*
X148758200Y-62114600D01*
G37*
G36*
X171377600Y-61450000D02*
X168677600Y-61450000D01*
X168677600Y-59850000D01*
X171377600Y-59850000D01*
X171377600Y-61450000D01*
X171377600Y-61450000D01*
G37*
G36*
X183377600Y-61450000D02*
X180677600Y-61450000D01*
X180677600Y-59850000D01*
X183377600Y-59850000D01*
X183377600Y-61450000D01*
X183377600Y-61450000D01*
G37*
G36*
X197120526Y-59044115D02*
X197338912Y-59134573D01*
X197535458Y-59265901D01*
X197702599Y-59433042D01*
X197833927Y-59629588D01*
X197924385Y-59847974D01*
X197970500Y-60079809D01*
X197970500Y-60316191D01*
X197924385Y-60548026D01*
X197833927Y-60766412D01*
X197702599Y-60962958D01*
X197535458Y-61130099D01*
X197338912Y-61261427D01*
X197120526Y-61351885D01*
X196888691Y-61398000D01*
X196652309Y-61398000D01*
X196420474Y-61351885D01*
X196202088Y-61261427D01*
X196005542Y-61130099D01*
X195838401Y-60962958D01*
X195707073Y-60766412D01*
X195616615Y-60548026D01*
X195570500Y-60316191D01*
X195570500Y-60079809D01*
X195616615Y-59847974D01*
X195707073Y-59629588D01*
X195838401Y-59433042D01*
X196005542Y-59265901D01*
X196202088Y-59134573D01*
X196420474Y-59044115D01*
X196652309Y-58998000D01*
X196888691Y-58998000D01*
X197120526Y-59044115D01*
X197120526Y-59044115D01*
G37*
G36*
X161690000Y-61361836D02*
X160390000Y-61361836D01*
X160390000Y-60161836D01*
X161690000Y-60161836D01*
X161690000Y-61361836D01*
X161690000Y-61361836D01*
G37*
G36*
X159990000Y-61361836D02*
X158690000Y-61361836D01*
X158690000Y-60161836D01*
X159990000Y-60161836D01*
X159990000Y-61361836D01*
X159990000Y-61361836D01*
G37*
G36*
X122141109Y-60827421D02*
X120941109Y-60827421D01*
X120941109Y-59527421D01*
X122141109Y-59527421D01*
X122141109Y-60827421D01*
X122141109Y-60827421D01*
G37*
G36*
X123868309Y-60827421D02*
X122668309Y-60827421D01*
X122668309Y-59527421D01*
X123868309Y-59527421D01*
X123868309Y-60827421D01*
X123868309Y-60827421D01*
G37*
G36*
X187724614Y-57864648D02*
X187973937Y-57967921D01*
X188198327Y-58117853D01*
X188389147Y-58308673D01*
X188539079Y-58533063D01*
X188642352Y-58782386D01*
X188695000Y-59047065D01*
X188695000Y-59316935D01*
X188642352Y-59581614D01*
X188539079Y-59830937D01*
X188389147Y-60055327D01*
X188198327Y-60246147D01*
X187973937Y-60396079D01*
X187724614Y-60499352D01*
X187459935Y-60552000D01*
X187190065Y-60552000D01*
X186925386Y-60499352D01*
X186676063Y-60396079D01*
X186451673Y-60246147D01*
X186260853Y-60055327D01*
X186110921Y-59830937D01*
X186007648Y-59581614D01*
X185955000Y-59316935D01*
X185955000Y-59047065D01*
X186007648Y-58782386D01*
X186110921Y-58533063D01*
X186260853Y-58308673D01*
X186451673Y-58117853D01*
X186676063Y-57967921D01*
X186925386Y-57864648D01*
X187190065Y-57812000D01*
X187459935Y-57812000D01*
X187724614Y-57864648D01*
X187724614Y-57864648D01*
G37*
G36*
X117874614Y-57864648D02*
X118123937Y-57967921D01*
X118348327Y-58117853D01*
X118539147Y-58308673D01*
X118689079Y-58533063D01*
X118792352Y-58782386D01*
X118845000Y-59047065D01*
X118845000Y-59316935D01*
X118792352Y-59581614D01*
X118689079Y-59830937D01*
X118539147Y-60055327D01*
X118348327Y-60246147D01*
X118123937Y-60396079D01*
X117874614Y-60499352D01*
X117609935Y-60552000D01*
X117340065Y-60552000D01*
X117075386Y-60499352D01*
X116826063Y-60396079D01*
X116601673Y-60246147D01*
X116410853Y-60055327D01*
X116260921Y-59830937D01*
X116157648Y-59581614D01*
X116105000Y-59316935D01*
X116105000Y-59047065D01*
X116157648Y-58782386D01*
X116260921Y-58533063D01*
X116410853Y-58308673D01*
X116601673Y-58117853D01*
X116826063Y-57967921D01*
X117075386Y-57864648D01*
X117340065Y-57812000D01*
X117609935Y-57812000D01*
X117874614Y-57864648D01*
X117874614Y-57864648D01*
G37*
G36*
X148758200Y-60414600D02*
X147558200Y-60414600D01*
X147558200Y-59114600D01*
X148758200Y-59114600D01*
X148758200Y-60414600D01*
X148758200Y-60414600D01*
G37*
G36*
X156592400Y-60061400D02*
X155292400Y-60061400D01*
X155292400Y-58861400D01*
X156592400Y-58861400D01*
X156592400Y-60061400D01*
X156592400Y-60061400D01*
G37*
G36*
X152670600Y-60061400D02*
X151370600Y-60061400D01*
X151370600Y-58861400D01*
X152670600Y-58861400D01*
X152670600Y-60061400D01*
X152670600Y-60061400D01*
G37*
G36*
X150970600Y-60061400D02*
X149670600Y-60061400D01*
X149670600Y-58861400D01*
X150970600Y-58861400D01*
X150970600Y-60061400D01*
X150970600Y-60061400D01*
G37*
G36*
X154892400Y-60061400D02*
X153592400Y-60061400D01*
X153592400Y-58861400D01*
X154892400Y-58861400D01*
X154892400Y-60061400D01*
X154892400Y-60061400D01*
G37*
G36*
X161690000Y-59583836D02*
X160390000Y-59583836D01*
X160390000Y-58383836D01*
X161690000Y-58383836D01*
X161690000Y-59583836D01*
X161690000Y-59583836D01*
G37*
G36*
X159990000Y-59583836D02*
X158690000Y-59583836D01*
X158690000Y-58383836D01*
X159990000Y-58383836D01*
X159990000Y-59583836D01*
X159990000Y-59583836D01*
G37*
G36*
X122141109Y-59127421D02*
X120941109Y-59127421D01*
X120941109Y-57827421D01*
X122141109Y-57827421D01*
X122141109Y-59127421D01*
X122141109Y-59127421D01*
G37*
G36*
X123868309Y-59127421D02*
X122668309Y-59127421D01*
X122668309Y-57827421D01*
X123868309Y-57827421D01*
X123868309Y-59127421D01*
X123868309Y-59127421D01*
G37*
M02*
